<?xml version="1.0" encoding="utf-8"?>
<!-- Generator: Adobe Illustrator 18.1.1, SVG Export Plug-In . SVG Version: 6.00 Build 0)  -->
<!DOCTYPE svg PUBLIC "-//W3C//DTD SVG 1.1//EN" "http://www.w3.org/Graphics/SVG/1.1/DTD/svg11.dtd">
<svg version="1.1" id="Layer_1" xmlns="http://www.w3.org/2000/svg" xmlns:xlink="http://www.w3.org/1999/xlink" x="0px" y="0px"
	 viewBox="194 381 500 500" enable-background="new 194 381 500 500" xml:space="preserve">
<path fill="#EA4C3A" d="M694,881H194V381h500V881"/>
<path fill="none" stroke="#FFFFFF" stroke-width="16" stroke-linejoin="round" stroke-miterlimit="10" d="M450.2,457.6
	c7.8,3.1,6.2,7.8,3.1,31.2c-3.1,23.4-10.9,65.6-25,107.8c-15.6,42.2-37.5,82.8-57.8,114.1c-20.3,31.2-35.9,50-50,62.5
	c-12.5,10.9-21.9,14.1-28.1,15.6c-6.2,1.6-7.8,0-9.4-3.1s-1.6-7.8,0-14.1c1.6-6.2,4.7-12.5,14.1-21.9c9.4-9.4,23.4-20.3,43.8-31.2
	c20.3-10.9,46.9-20.3,68.7-26.6c21.9-6.2,39.1-10.9,53.1-12.5c14.1-3.1,28.1-4.7,39.1-6.2c12.5-1.6,25-1.6,35.9,0
	c12.5,1.6,23.4,3.1,32.8,6.2c9.4,3.1,18.7,6.2,26.6,10.9c7.8,4.7,14.1,10.9,17.2,18.8c3.1,7.8,3.1,15.6,0,21.9
	c-3.1,6.2-7.8,9.4-14.1,10.9c-6.2,1.6-12.5,3.1-21.9,0c-7.8-3.1-17.2-7.8-28.1-15.6c-9.4-7.8-20.3-17.2-34.4-31.2
	c-14.1-14.1-31.3-34.4-45.3-53.1c-14.1-18.8-26.6-37.5-34.4-53.1s-12.5-28.1-15.6-40.6c-3.1-12.5-6.2-25-7.8-37.5
	c-1.6-10.9,0-21.9,0-29.7c1.6-7.8,3.1-14.1,4.7-18.8c3.1-4.7,6.2-6.2,9.4-7.8c3.1-1.6,4.7-1.6,6.2-1.6h6.2
	C445.6,454.4,448.7,456,450.2,457.6"/>
</svg>
