<svg xmlns="http://www.w3.org/2000/svg" viewBox="194 381 32 32" enable-background="new 194 381 32 32"><path fill="#EA4C3A" d="M226 413h-32v-32h32v32"/><path fill="none" stroke="#fff" stroke-width="1.4" stroke-linejoin="round" stroke-miterlimit="10" d="M210.4 385.9c.5.2.4.5.2 2s-.7 4.2-1.6 6.9c-1 2.7-2.4 5.3-3.7 7.3-1.3 2-2.3 3.2-3.2 4-.8.7-1.4.9-1.8 1-.4.1-.5 0-.6-.2-.1-.2-.1-.5 0-.9s.3-.8.9-1.4c.6-.6 1.5-1.3 2.8-2 1.3-.7 3-1.3 4.4-1.7 1.4-.4 2.5-.7 3.4-.8.9-.2 1.8-.3 2.5-.4.8-.1 1.6-.1 2.3 0 .8.1 1.5.2 2.1.4.6.2 1.2.4 1.7.7.5.3.9.7 1.1 1.2.2.5.2 1 0 1.4-.2.4-.5.6-.9.7-.4.1-.8.2-1.4 0-.5-.2-1.1-.5-1.8-1-.6-.5-1.3-1.1-2.2-2-.9-.9-2-2.2-2.9-3.4-.9-1.2-1.7-2.4-2.2-3.4-.5-1-.8-1.8-1-2.6-.2-.8-.4-1.6-.5-2.4-.1-.7 0-1.4 0-1.9.1-.5.2-.9.3-1.2.2-.3.4-.4.6-.5.2-.1.3-.1.4-.1h.4c.4.1.6.2.7.3"/></svg>