<?xml version="1.0" encoding="utf-8"?>
<!-- Generated by IcoMoon.io -->
<!DOCTYPE svg PUBLIC "-//W3C//DTD SVG 1.1//EN" "http://www.w3.org/Graphics/SVG/1.1/DTD/svg11.dtd">
<svg version="1.1" xmlns="http://www.w3.org/2000/svg" xmlns:xlink="http://www.w3.org/1999/xlink" width="32" height="32" viewBox="0 0 32 32">
<path d="M16 0q6.25 0 10.844 4.219t5.094 10.406h-2q-0.313-3.688-2.469-6.688t-5.469-4.563l-1.813 1.75-5.063-5.063zM22.063 15.75q0-3.563-2.938-3.563h-1.25v7.688h1.188q2.25 0 2.875-2.125 0.125-0.438 0.125-1.5v-0.5zM19.125 10.688q3.313 0 4.5 2.938 0.313 0.75 0.313 2.125v0.5q0 2.375-1.313 3.688-1.375 1.375-3.563 1.375h-3.063v-10.625h3.125zM12.938 15.875q1.75 0.688 1.75 2.438 0 0.625-0.313 1.25-0.375 0.75-0.688 1-0.938 0.75-2.5 0.75-1.5 0-2.438-0.75t-0.938-2.188h1.688q0 0.688 0.469 1.125t1.219 0.438q1.75 0 1.75-1.688t-1.938-1.688h-1v-1.375h1q1.813 0 1.813-1.563t-1.625-1.563q-1.563 0-1.563 1.438h-1.75q0-1.063 0.938-2 1-0.813 2.375-0.813 2.188 0 3.063 1.688 0.25 0.5 0.25 1.25 0 1.438-1.563 2.25zM10 28.625l1.813-1.75 5.063 5.063-0.875 0.063q-6.25 0-10.844-4.25t-5.094-10.438h2q0.375 3.75 2.5 6.75t5.438 4.563z"></path>
</svg>
