<?xml version="1.0" encoding="utf-8"?>
<!-- Generated by IcoMoon.io -->
<!DOCTYPE svg PUBLIC "-//W3C//DTD SVG 1.1//EN" "http://www.w3.org/Graphics/SVG/1.1/DTD/svg11.dtd">
<svg version="1.1" xmlns="http://www.w3.org/2000/svg" xmlns:xlink="http://www.w3.org/1999/xlink" width="32" height="32" viewBox="0 0 32 32">
<path d="M29.313 14.688v2.625h-5.563l4.313 4.313-1.875 1.938-6.188-6.25h-2.688v2.688l6.25 6.188-1.938 1.875-4.313-4.313v5.563h-2.625v-5.563l-4.313 4.313-1.938-1.875 6.25-6.188v-2.688h-2.688l-6.188 6.25-1.875-1.938 4.313-4.313h-5.563v-2.625h5.563l-4.313-4.313 1.875-1.938 6.188 6.25h2.688v-2.688l-6.25-6.188 1.938-1.875 4.313 4.313v-5.563h2.625v5.563l4.313-4.313 1.938 1.875-6.25 6.188v2.688h2.688l6.188-6.25 1.875 1.938-4.313 4.313h5.563z"></path>
</svg>
