<?xml version="1.0" encoding="utf-8"?>
<!-- Generated by IcoMoon.io -->
<!DOCTYPE svg PUBLIC "-//W3C//DTD SVG 1.1//EN" "http://www.w3.org/Graphics/SVG/1.1/DTD/svg11.dtd">
<svg version="1.1" xmlns="http://www.w3.org/2000/svg" xmlns:xlink="http://www.w3.org/1999/xlink" width="32" height="32" viewBox="0 0 32 32">
<path d="M17.125 24h2.75q-0.5 2.313-2.313 3.813t-4.25 1.5q-2.75 0-4.688-1.938t-1.938-4.688q0-2.438 1.5-4.25t3.813-2.313v2.75q-1.188 0.438-1.938 1.469t-0.75 2.344q0 1.625 1.188 2.813t2.813 1.188q1.313 0 2.344-0.75t1.469-1.938zM13.313 12.125q0-1.5 1.313-2.375t2.688-0.063h0.063v0.063q0.438 0.188 0.813 0.563l1.75 1.938q2.25 2.438 5.375 2.438v2.625q-3.5 0-6.625-2.563v4.563h4q1.063 0 1.844 0.813t0.781 1.875v7.313h-2.625v-6.625h-6.688q-1.063 0-1.875-0.813t-0.813-1.875v-7.875zM13.313 5.313q0-1.125 0.781-1.875t1.906-0.75 1.906 0.75 0.781 1.875-0.781 1.906-1.906 0.781-1.906-0.781-0.781-1.906z"></path>
</svg>
