<?xml version="1.0" encoding="utf-8"?>
<!-- Generated by IcoMoon.io -->
<!DOCTYPE svg PUBLIC "-//W3C//DTD SVG 1.1//EN" "http://www.w3.org/Graphics/SVG/1.1/DTD/svg11.dtd">
<svg version="1.1" xmlns="http://www.w3.org/2000/svg" xmlns:xlink="http://www.w3.org/1999/xlink" width="32" height="32" viewBox="0 0 32 32">
<path d="M16 25.625q5.063 0 8-4.313-0.063-1.75-2.813-2.938t-5.188-1.188-5.188 1.156-2.813 2.969q2.938 4.313 8 4.313zM16 6.688q-1.625 0-2.813 1.188t-1.188 2.813 1.188 2.813 2.813 1.188 2.813-1.188 1.188-2.813-1.188-2.813-2.813-1.188zM16 2.688q5.5 0 9.406 3.906t3.906 9.406-3.906 9.406-9.406 3.906-9.406-3.906-3.906-9.406 3.906-9.406 9.406-3.906z"></path>
</svg>
