<?xml version="1.0" encoding="utf-8"?>
<!-- Generated by IcoMoon.io -->
<!DOCTYPE svg PUBLIC "-//W3C//DTD SVG 1.1//EN" "http://www.w3.org/Graphics/SVG/1.1/DTD/svg11.dtd">
<svg version="1.1" xmlns="http://www.w3.org/2000/svg" xmlns:xlink="http://www.w3.org/1999/xlink" width="32" height="32" viewBox="0 0 32 32">
<path d="M20 12q0.563 0 0.938-0.375t0.375-0.938-0.375-0.969-0.938-0.406-0.938 0.406-0.375 0.969 0.375 0.938 0.938 0.375zM12 12q0.563 0 0.938-0.375t0.375-0.938-0.375-0.969-0.938-0.406-0.938 0.406-0.375 0.969 0.375 0.938 0.938 0.375zM21.5 5.813q3.813 2.813 3.813 7.5v1.375h-18.625v-1.375q0-4.688 3.813-7.5l-2.813-2.813 1.125-1.063 3.063 3.063q2-1 4.125-1t4.125 1l3.063-3.063 1.125 1.063zM6.688 21.313v-5.313h18.625v5.313q0 3.875-2.719 6.625t-6.594 2.75-6.594-2.75-2.719-6.625z"></path>
</svg>
