<?xml version="1.0" encoding="utf-8"?>
<!-- Generated by IcoMoon.io -->
<!DOCTYPE svg PUBLIC "-//W3C//DTD SVG 1.1//EN" "http://www.w3.org/Graphics/SVG/1.1/DTD/svg11.dtd">
<svg version="1.1" xmlns="http://www.w3.org/2000/svg" xmlns:xlink="http://www.w3.org/1999/xlink" width="32" height="32" viewBox="0 0 32 32">
<path d="M9.563 19.688q0 0.313 0.313 0.313h15.438v2.688h-16q-1.063 0-1.844-0.813t-0.781-1.875q0-0.625 0.313-1.25l1.813-3.313-4.813-10.125h-2.688v-2.625h4.375q1.25 2.625 2.5 5.313 0.313 0.563 1.438 2.969t1.75 3.719h9.375q4.688-8.5 5.125-9.375l2.313 1.313-5.125 9.313q-0.75 1.375-2.313 1.375h-9.938l-1.188 2.188zM22.688 24q1.063 0 1.844 0.813t0.781 1.875-0.781 1.844-1.844 0.781-1.875-0.781-0.813-1.844 0.813-1.875 1.875-0.813zM9.313 24q1.063 0 1.875 0.813t0.813 1.875-0.813 1.844-1.875 0.781-1.844-0.781-0.781-1.844 0.781-1.875 1.844-0.813zM14.688 12v-4h-4v-2.688h4v-4h2.625v4h4v2.688h-4v4h-2.625z"></path>
</svg>
