<?xml version="1.0" encoding="utf-8"?>
<!-- Generated by IcoMoon.io -->
<!DOCTYPE svg PUBLIC "-//W3C//DTD SVG 1.1//EN" "http://www.w3.org/Graphics/SVG/1.1/DTD/svg11.dtd">
<svg version="1.1" xmlns="http://www.w3.org/2000/svg" xmlns:xlink="http://www.w3.org/1999/xlink" width="32" height="32" viewBox="0 0 32 32">
<path d="M21.313 17.375v-2.688h-4v-4h-2.625v4h-4v2.688h4v4h2.625v-4h4zM25.188 22.438l2.813 2.813v1.438h-24v-1.438l2.813-2.813v-7.75q0-3.188 2-5.719t5.063-3.219v-0.938q0-0.875 0.625-1.5t1.5-0.625 1.5 0.625 0.625 1.5v0.938q3.063 0.688 5.063 3.219t2 5.719v7.75zM13.375 28h5.25q0 1.063-0.781 1.875t-1.844 0.813-1.844-0.813-0.781-1.875z"></path>
</svg>
