<?xml version="1.0" encoding="utf-8"?>
<!-- Generated by IcoMoon.io -->
<!DOCTYPE svg PUBLIC "-//W3C//DTD SVG 1.1//EN" "http://www.w3.org/Graphics/SVG/1.1/DTD/svg11.dtd">
<svg version="1.1" xmlns="http://www.w3.org/2000/svg" xmlns:xlink="http://www.w3.org/1999/xlink" width="32" height="32" viewBox="0 0 32 32">
<path d="M17.313 12v4h4v2.688h-4v4h-2.625v-4h-4v-2.688h4v-4h2.625zM16 26.688q3.875 0 6.594-2.75t2.719-6.625-2.719-6.594-6.594-2.719-6.594 2.719-2.719 6.594 2.719 6.625 6.594 2.75zM16 5.313q5 0 8.5 3.531t3.5 8.469-3.5 8.469-8.5 3.531-8.5-3.531-3.5-8.469 3.5-8.469 8.5-3.531zM29.313 7.625l-1.688 2.063-6.125-5.188 1.688-2zM10.5 4.5l-6.125 5.125-1.688-2 6.125-5.125z"></path>
</svg>
