<?xml version="1.0" encoding="utf-8"?>
<!-- Generated by IcoMoon.io -->
<!DOCTYPE svg PUBLIC "-//W3C//DTD SVG 1.1//EN" "http://www.w3.org/Graphics/SVG/1.1/DTD/svg11.dtd">
<svg version="1.1" xmlns="http://www.w3.org/2000/svg" xmlns:xlink="http://www.w3.org/1999/xlink" width="32" height="32" viewBox="0 0 32 32">
<path d="M25.313 14.688v-2.688h-5.313v-5.313h-2.688v5.313h-5.313v2.688h5.313v5.313h2.688v-5.313h5.313zM26.688 2.688q1.063 0 1.844 0.781t0.781 1.844v16q0 1.063-0.781 1.875t-1.844 0.813h-16q-1.063 0-1.875-0.813t-0.813-1.875v-16q0-1.063 0.813-1.844t1.875-0.781h16zM5.313 8v18.688h18.688v2.625h-18.688q-1.063 0-1.844-0.781t-0.781-1.844v-18.688h2.625z"></path>
</svg>
