<?xml version="1.0" encoding="utf-8"?>
<!-- Generated by IcoMoon.io -->
<!DOCTYPE svg PUBLIC "-//W3C//DTD SVG 1.1//EN" "http://www.w3.org/Graphics/SVG/1.1/DTD/svg11.dtd">
<svg version="1.1" xmlns="http://www.w3.org/2000/svg" xmlns:xlink="http://www.w3.org/1999/xlink" width="32" height="32" viewBox="0 0 32 32">
<path d="M26.688 26.75l-1.938 1.938-4.688-4.688h-6.75q-1.625 0-2.813-1.188t-1.188-2.813v-7.688q0-1.188 0.906-2.094t2.094-0.906h0.063q1.188 0 2.188 1l1.875 2.063q1.063 1.188 2.844 1.938t3.406 0.75v2.938q-3.875 0-7.375-2.938v4.938h4.625zM8 21.313q0 1.625 1.188 2.813t2.813 1.188h8v2.688h-8q-2.75 0-4.719-1.969t-1.969-4.719v-12h2.688v12zM10.125 7.188q-0.813-0.813-0.813-1.875t0.813-1.875 1.875-0.813 1.875 0.813 0.813 1.875-0.813 1.875-1.875 0.813-1.875-0.813z"></path>
</svg>
