<?xml version="1.0" encoding="utf-8"?>
<!-- Generated by IcoMoon.io -->
<!DOCTYPE svg PUBLIC "-//W3C//DTD SVG 1.1//EN" "http://www.w3.org/Graphics/SVG/1.1/DTD/svg11.dtd">
<svg version="1.1" xmlns="http://www.w3.org/2000/svg" xmlns:xlink="http://www.w3.org/1999/xlink" width="32" height="32" viewBox="0 0 32 32">
<path d="M21.625 20l7.688 6-2 2-5.063-4h-9.125q-1.438 0-2.531-0.906t-1.406-2.344l-1.813-7.875q-0.188-1.25 0.531-2.25t1.906-1.25h0.063q1.375-0.188 2.313 0.563l2.188 1.688q3 2.313 6.25 1.688v2.875q-3 0.5-6.875-1.625l1.375 5.438h6.5zM21.313 25.313v2.688h-9.375q-2.5 0-4.375-1.594t-2.25-4.031l-2.625-13.063h2.625l2.625 12.625q0.25 1.438 1.375 2.406t2.625 0.969h9.375zM7.125 7.5q-0.875-0.625-1.063-1.719t0.438-1.969 1.719-1.094 1.969 0.406q0.875 0.688 1.094 1.781t-0.406 1.969-1.75 1.063-2-0.438z"></path>
</svg>
