<?xml version="1.0" encoding="utf-8"?>
<!-- Generated by IcoMoon.io -->
<!DOCTYPE svg PUBLIC "-//W3C//DTD SVG 1.1//EN" "http://www.w3.org/Graphics/SVG/1.1/DTD/svg11.dtd">
<svg version="1.1" xmlns="http://www.w3.org/2000/svg" xmlns:xlink="http://www.w3.org/1999/xlink" width="32" height="32" viewBox="0 0 32 32">
<path d="M6.688 16q0 1.625 1.188 2.813t2.813 1.188h5.313v2.688h-5.313q-2.75 0-4.719-1.969t-1.969-4.719v-12h2.688v12zM26.625 25.625q0.188 0.938-0.406 1.656t-1.531 0.719h-6v-4l1.313-5.313h-8q-1.625 0-2.813-1.188t-1.188-2.813v-10.688h8v8h6.688q1.063 0 1.844 0.813t0.781 1.875l-2.625 9.313h1.875q0.75 0 1.344 0.469t0.719 1.156z"></path>
</svg>
