<?xml version="1.0" encoding="utf-8"?>
<!-- Generated by IcoMoon.io -->
<!DOCTYPE svg PUBLIC "-//W3C//DTD SVG 1.1//EN" "http://www.w3.org/Graphics/SVG/1.1/DTD/svg11.dtd">
<svg version="1.1" xmlns="http://www.w3.org/2000/svg" xmlns:xlink="http://www.w3.org/1999/xlink" width="32" height="32" viewBox="0 0 32 32">
<path d="M20 14.688h6.688l-5.375-5.375h-1.313v5.375zM23.313 23.313q0.813 0 1.406-0.594t0.594-1.406-0.594-1.406-1.406-0.594-1.406 0.594-0.594 1.406 0.594 1.406 1.406 0.594zM17.313 14.688v-5.375h-5.313v5.375h5.313zM8 23.313q0.875 0 1.438-0.594t0.563-1.406-0.563-1.406-1.438-0.594-1.438 0.594-0.563 1.406 0.563 1.406 1.438 0.594zM4 14.688h5.313v-5.375h-5.313v5.375zM22.688 6.688l8 8v6.625h-3.375q0 1.625-1.188 2.813t-2.813 1.188-2.813-1.188-1.188-2.813h-7.313q0 1.625-1.188 2.813t-2.813 1.188-2.813-1.188-1.188-2.813h-2.688v-12q0-1.125 0.781-1.875t1.906-0.75h18.688z"></path>
</svg>
