<?xml version="1.0" encoding="utf-8"?>
<!-- Generated by IcoMoon.io -->
<!DOCTYPE svg PUBLIC "-//W3C//DTD SVG 1.1//EN" "http://www.w3.org/Graphics/SVG/1.1/DTD/svg11.dtd">
<svg version="1.1" xmlns="http://www.w3.org/2000/svg" xmlns:xlink="http://www.w3.org/1999/xlink" width="32" height="32" viewBox="0 0 32 32">
<path d="M10.688 4.375l-1.125 0.938-1.938-1.875 1.188-0.938zM21.938 24.5l-13.125-13.125q-2.125 2.625-2.125 5.938 0 3.875 2.719 6.625t6.594 2.75q3.25 0 5.938-2.188zM3.875 3.063q4.75 4.75 13.531 13.5t11.094 11.063l-1.688 1.688-2.938-2.938q-3.438 2.938-7.875 2.938-5 0-8.5-3.531t-3.5-8.469q0-4.375 2.938-7.813l-1.063-1.063-1.5 1.25-1.875-1.938 1.5-1.188-1.813-1.813zM29.313 7.625l-1.688 2.063-6.125-5.188 1.688-2zM16 8q-1.688 0-3.188 0.563l-2.063-2q2.625-1.25 5.25-1.25 5 0 8.5 3.531t3.5 8.469q0 2.75-1.188 5.25l-2.063-2q0.563-1.5 0.563-3.25 0-3.875-2.719-6.594t-6.594-2.719z"></path>
</svg>
