<?xml version="1.0" encoding="utf-8"?>
<!-- Generated by IcoMoon.io -->
<!DOCTYPE svg PUBLIC "-//W3C//DTD SVG 1.1//EN" "http://www.w3.org/Graphics/SVG/1.1/DTD/svg11.dtd">
<svg version="1.1" xmlns="http://www.w3.org/2000/svg" xmlns:xlink="http://www.w3.org/1999/xlink" width="32" height="32" viewBox="0 0 32 32">
<path d="M24.813 8.813q3 0 5.094 2.125t2.094 5.063-2.094 5.063-5.094 2.125-5.125-2.125l-1.688-1.5 2-1.75 1.563 1.313q1.375 1.375 3.25 1.375t3.188-1.313 1.313-3.188-1.313-3.188-3.188-1.313-3.188 1.313q-4.438 3.875-5.625 5l-3.75 3.313q-2.063 2.063-5.063 2.063t-5.094-2.125-2.094-5.063 2.094-5.063 5.094-2.125 5.125 2.125l1.688 1.5-2.063 1.75-1.5-1.313q-1.375-1.375-3.25-1.375t-3.188 1.313-1.313 3.188 1.313 3.188 3.188 1.313 3.188-1.313q4.438-3.875 5.625-5l3.75-3.313q2.063-2.063 5.063-2.063z"></path>
</svg>
