<?xml version="1.0" encoding="utf-8"?>
<!-- Generated by IcoMoon.io -->
<!DOCTYPE svg PUBLIC "-//W3C//DTD SVG 1.1//EN" "http://www.w3.org/Graphics/SVG/1.1/DTD/svg11.dtd">
<svg version="1.1" xmlns="http://www.w3.org/2000/svg" xmlns:xlink="http://www.w3.org/1999/xlink" width="32" height="32" viewBox="0 0 32 32">
<path d="M20 6.688v-1.375h-1.313v1.375h1.313zM13.313 6.688v-1.375h-1.313v1.375h1.313zM20.688 2.875q3.313 2.375 3.313 6.438h-16q0-4.125 3.25-6.438l-1.75-1.75q-0.5-0.5 0-0.938t0.938 0l2 2q1.625-0.875 3.563-0.875 1.875 0 3.5 0.875l2-2q0.5-0.438 0.938 0t0 0.938zM27.313 10.688q0.813 0 1.406 0.594t0.594 1.406v9.313q0 0.875-0.594 1.438t-1.406 0.563-1.406-0.563-0.594-1.438v-9.313q0-0.813 0.594-1.406t1.406-0.594zM4.688 10.688q0.813 0 1.406 0.594t0.594 1.406v9.313q0 0.875-0.594 1.438t-1.406 0.563-1.406-0.563-0.594-1.438v-9.313q0-0.813 0.594-1.406t1.406-0.594zM8 24v-13.313h16v13.313q0 0.563-0.375 0.938t-0.938 0.375h-1.375v4.688q0 0.875-0.594 1.438t-1.406 0.563-1.406-0.563-0.594-1.438v-4.688h-2.625v4.688q0 0.875-0.594 1.438t-1.406 0.563-1.406-0.563-0.594-1.438v-4.688h-1.375q-0.563 0-0.938-0.375t-0.375-0.938z"></path>
</svg>
