<?xml version="1.0" encoding="utf-8"?>
<!-- Generated by IcoMoon.io -->
<!DOCTYPE svg PUBLIC "-//W3C//DTD SVG 1.1//EN" "http://www.w3.org/Graphics/SVG/1.1/DTD/svg11.dtd">
<svg version="1.1" xmlns="http://www.w3.org/2000/svg" xmlns:xlink="http://www.w3.org/1999/xlink" width="32" height="32" viewBox="0 0 32 32">
<path d="M14 20l-3-4-2.313 3-1.688-2-2.313 3h9.313zM16 12v8q0 1.063-0.813 1.875t-1.875 0.813h-8q-1.063 0-1.844-0.813t-0.781-1.875v-8q0-1.063 0.781-1.875t1.844-0.813h8q1.063 0 1.875 0.813t0.813 1.875zM18.688 22.688v-2.688h10.625v2.688h-10.625zM29.313 9.313v2.688h-10.625v-2.688h10.625zM29.313 17.313h-10.625v-2.625h10.625v2.625z"></path>
</svg>
