<?xml version="1.0" encoding="utf-8"?>
<!-- Generated by IcoMoon.io -->
<!DOCTYPE svg PUBLIC "-//W3C//DTD SVG 1.1//EN" "http://www.w3.org/Graphics/SVG/1.1/DTD/svg11.dtd">
<svg version="1.1" xmlns="http://www.w3.org/2000/svg" xmlns:xlink="http://www.w3.org/1999/xlink" width="32" height="32" viewBox="0 0 32 32">
<path d="M22.688 12v-2.688h-13.375v2.688h13.375zM22.688 17.313v-2.625h-13.375v2.625h13.375zM18.688 22.688v-2.688h-9.375v2.688h9.375zM16 4q-0.563 0-0.938 0.375t-0.375 0.938 0.375 0.969 0.938 0.406 0.938-0.406 0.375-0.969-0.375-0.938-0.938-0.375zM25.313 4q1.063 0 1.875 0.813t0.813 1.875v18.625q0 1.063-0.813 1.875t-1.875 0.813h-18.625q-1.063 0-1.875-0.813t-0.813-1.875v-18.625q0-1.063 0.813-1.875t1.875-0.813h5.563q0.438-1.188 1.438-1.938t2.313-0.75 2.313 0.75 1.438 1.938h5.563z"></path>
</svg>
