<?xml version="1.0" encoding="utf-8"?>
<!-- Generated by IcoMoon.io -->
<!DOCTYPE svg PUBLIC "-//W3C//DTD SVG 1.1//EN" "http://www.w3.org/Graphics/SVG/1.1/DTD/svg11.dtd">
<svg version="1.1" xmlns="http://www.w3.org/2000/svg" xmlns:xlink="http://www.w3.org/1999/xlink" width="32" height="32" viewBox="0 0 32 32">
<path d="M2.688 16.688q0-3.063 2.125-5.219t5.188-2.156h14q2.188 0 3.75 1.594t1.563 3.781-1.563 3.75-3.75 1.563h-11.313q-1.375 0-2.375-0.969t-1-2.344 1-2.375 2.375-1h10v2.688h-10.125q-0.563 0-0.563 0.656t0.563 0.656h11.438q1.063 0 1.875-0.781t0.813-1.844-0.813-1.875-1.875-0.813h-14q-1.938 0-3.313 1.375t-1.375 3.313 1.375 3.281 3.313 1.344h12.688v2.688h-12.688q-3.063 0-5.188-2.125t-2.125-5.188z"></path>
</svg>
