<?xml version="1.0" encoding="utf-8"?>
<!-- Generated by IcoMoon.io -->
<!DOCTYPE svg PUBLIC "-//W3C//DTD SVG 1.1//EN" "http://www.w3.org/Graphics/SVG/1.1/DTD/svg11.dtd">
<svg version="1.1" xmlns="http://www.w3.org/2000/svg" xmlns:xlink="http://www.w3.org/1999/xlink" width="32" height="32" viewBox="0 0 32 32">
<path d="M22 8h2v15.313q0 3.063-2.125 5.219t-5.188 2.156-5.219-2.156-2.156-5.219v-16.625q0-2.188 1.594-3.781t3.781-1.594 3.75 1.594 1.563 3.781v14q0 1.375-0.969 2.344t-2.344 0.969-2.375-0.969-1-2.344v-12.688h2v12.688q0 0.563 0.406 0.938t0.969 0.375 0.938-0.375 0.375-0.938v-14q0-1.375-0.969-2.375t-2.344-1-2.375 1-1 2.375v16.625q0 2.188 1.594 3.781t3.781 1.594 3.75-1.594 1.563-3.781v-15.313z"></path>
</svg>
