<?xml version="1.0" encoding="utf-8"?>
<!-- Generated by IcoMoon.io -->
<!DOCTYPE svg PUBLIC "-//W3C//DTD SVG 1.1//EN" "http://www.w3.org/Graphics/SVG/1.1/DTD/svg11.dtd">
<svg version="1.1" xmlns="http://www.w3.org/2000/svg" xmlns:xlink="http://www.w3.org/1999/xlink" width="32" height="32" viewBox="0 0 32 32">
<path d="M15.75 14.563q1.375 0.375 2.281 0.75t1.906 1.031 1.531 1.656 0.531 2.375q0 1.938-1.281 3.156t-3.406 1.594v2.875h-4v-2.875q-2.063-0.438-3.406-1.75t-1.469-3.375h2.938q0.25 2.813 3.938 2.813 1.938 0 2.781-0.719t0.844-1.656q0-2.25-4-3.25-6.25-1.438-6.25-5.5 0-1.813 1.313-3.094t3.313-1.719v-2.875h4v2.938q2.063 0.5 3.156 1.875t1.156 3.188h-2.938q-0.125-2.813-3.375-2.813-1.625 0-2.594 0.688t-0.969 1.813q0 1.813 4 2.875z"></path>
</svg>
