<?xml version="1.0" encoding="utf-8"?>
<!-- Generated by IcoMoon.io -->
<!DOCTYPE svg PUBLIC "-//W3C//DTD SVG 1.1//EN" "http://www.w3.org/Graphics/SVG/1.1/DTD/svg11.dtd">
<svg version="1.1" xmlns="http://www.w3.org/2000/svg" xmlns:xlink="http://www.w3.org/1999/xlink" width="32" height="32" viewBox="0 0 32 32">
<path d="M25 10.313q1.688 2.563 1.688 5.688 0 4.375-3.156 7.531t-7.531 3.156v4l-5.313-5.375 5.313-5.313v4q3.313 0 5.656-2.344t2.344-5.656q0-1.875-0.938-3.75zM16 8q-3.313 0-5.656 2.344t-2.344 5.656q0 2.063 0.938 3.75l-1.938 1.938q-1.688-2.563-1.688-5.688 0-4.375 3.156-7.531t7.531-3.156v-4l5.313 5.375-5.313 5.313v-4z"></path>
</svg>
