<?xml version="1.0" encoding="utf-8"?>
<!-- Generated by IcoMoon.io -->
<!DOCTYPE svg PUBLIC "-//W3C//DTD SVG 1.1//EN" "http://www.w3.org/Graphics/SVG/1.1/DTD/svg11.dtd">
<svg version="1.1" xmlns="http://www.w3.org/2000/svg" xmlns:xlink="http://www.w3.org/1999/xlink" width="32" height="32" viewBox="0 0 32 32">
<path d="M8 16q0-0.563 0.375-0.938t0.938-0.375 0.969 0.375 0.406 0.938-0.406 0.938-0.969 0.375-0.938-0.375-0.375-0.938zM24 16q0 0.563-0.375 0.938t-0.938 0.375-0.969-0.375-0.406-0.938 0.406-0.938 0.969-0.375 0.938 0.375 0.375 0.938zM14.688 4h1.313q5 0 8.5 3.5t3.5 8.5-3.5 8.5-8.5 3.5-8.5-3.5-3.5-8.5q0-6 4.813-9.563v-0.063l9.063 9.063-1.875 1.875-7.25-7.188q-2.063 2.563-2.063 5.875 0 3.875 2.719 6.594t6.594 2.719 6.594-2.719 2.719-6.594q0-3.5-2.313-6.125t-5.688-3.125v2.563h-2.625v-5.313zM14.688 22.688q0-0.563 0.375-0.969t0.938-0.406 0.938 0.406 0.375 0.969-0.375 0.938-0.938 0.375-0.938-0.375-0.375-0.938z"></path>
</svg>
