<?xml version="1.0" encoding="utf-8"?>
<!-- Generated by IcoMoon.io -->
<!DOCTYPE svg PUBLIC "-//W3C//DTD SVG 1.1//EN" "http://www.w3.org/Graphics/SVG/1.1/DTD/svg11.dtd">
<svg version="1.1" xmlns="http://www.w3.org/2000/svg" xmlns:xlink="http://www.w3.org/1999/xlink" width="32" height="32" viewBox="0 0 32 32">
<path d="M19.063 16.938q0.938-0.938 0.938-2.25 0-1.625-1.188-2.813t-2.813-1.188-2.813 1.188-1.188 2.813h2q0-0.813 0.563-1.406t1.438-0.594 1.438 0.594 0.563 1.406-0.563 1.375l-1.25 1.25q-1.25 1.25-1.25 2.688h2.125q0-1 1.125-2.125zM17.25 23.938v-2.563h-2.5v2.563h2.5zM20.875 5.313q0.75 0 1.281 0.531t0.531 1.281v20.438q0 0.75-0.531 1.25t-1.281 0.5h-9.75q-0.75 0-1.281-0.5t-0.531-1.25v-20.438q0-0.75 0.531-1.281t1.281-0.531h2.188v-2.625h5.375v2.625h2.188z"></path>
</svg>
