<?xml version="1.0" encoding="utf-8"?>
<!-- Generated by IcoMoon.io -->
<!DOCTYPE svg PUBLIC "-//W3C//DTD SVG 1.1//EN" "http://www.w3.org/Graphics/SVG/1.1/DTD/svg11.dtd">
<svg version="1.1" xmlns="http://www.w3.org/2000/svg" xmlns:xlink="http://www.w3.org/1999/xlink" width="32" height="32" viewBox="0 0 32 32">
<path d="M17.188 21.75l-2.5-2.563v5.063zM14.688 7.75v5.063l2.5-2.563zM20.938 10.25l-5.75 5.75 5.75 5.75-7.625 7.563h-1.313v-10.125l-6.125 6.125-1.875-1.875 7.438-7.438-7.438-7.438 1.875-1.875 6.125 6.125v-10.125h1.313zM26.063 8.938q1.938 3.125 1.938 6.938t-2.063 7.063l-1.563-1.563q1.313-2.625 1.313-5.375t-1.313-5.375zM19 16l3.063-3.063q0.625 1.563 0.625 3.063 0 1.563-0.625 3.125z"></path>
</svg>
