<?xml version="1.0" encoding="utf-8"?>
<!-- Generated by IcoMoon.io -->
<!DOCTYPE svg PUBLIC "-//W3C//DTD SVG 1.1//EN" "http://www.w3.org/Graphics/SVG/1.1/DTD/svg11.dtd">
<svg version="1.1" xmlns="http://www.w3.org/2000/svg" xmlns:xlink="http://www.w3.org/1999/xlink" width="32" height="32" viewBox="0 0 32 32">
<path d="M4 18q0.688 0 0.688 0.688 0 0.625-0.688 0.625t-0.688-0.625q0-0.688 0.688-0.688zM8 22.688q0.563 0 0.938 0.375t0.375 0.938-0.375 0.938-0.938 0.375-0.938-0.375-0.375-0.938 0.375-0.938 0.938-0.375zM13.313 27.313q0.688 0 0.688 0.688t-0.688 0.688q-0.625 0-0.625-0.688t0.625-0.688zM4 12.688q0.688 0 0.688 0.625 0 0.688-0.688 0.688t-0.688-0.688q0-0.625 0.688-0.625zM8 17.313q0.563 0 0.938 0.406t0.375 0.969-0.375 0.938-0.938 0.375-0.938-0.375-0.375-0.938 0.375-0.969 0.938-0.406zM28 18q0.688 0 0.688 0.688 0 0.625-0.688 0.625t-0.688-0.625q0-0.688 0.688-0.688zM13.313 22.688q0.563 0 0.969 0.375t0.406 0.938-0.406 0.938-0.969 0.375-0.938-0.375-0.375-0.938 0.375-0.938 0.938-0.375zM3.313 7l1.688-1.688 21.688 21.688-1.75 1.688-5-5.063q0.063 0.125 0.063 0.375 0 0.563-0.375 0.938t-0.938 0.375-0.969-0.375-0.406-0.938 0.406-0.938 0.969-0.375q0.25 0 0.375 0.063l-3.75-3.75q-0.125 0.688-0.688 1.188t-1.313 0.5q-0.813 0-1.406-0.594t-0.594-1.406q0-0.75 0.5-1.313t1.188-0.688l-3.75-3.75q0.063 0.125 0.063 0.375 0 0.563-0.375 0.969t-0.938 0.406-0.938-0.406-0.375-0.969 0.375-0.938 0.938-0.375l0.375 0.063zM18.688 27.313q0.625 0 0.625 0.688t-0.625 0.688q-0.688 0-0.688-0.688t0.688-0.688zM24 9.313q-0.563 0-0.938-0.375t-0.375-0.938 0.375-0.938 0.938-0.375 0.938 0.375 0.375 0.938-0.375 0.938-0.938 0.375zM24 14.688q-0.563 0-0.938-0.406t-0.375-0.969 0.375-0.938 0.938-0.375 0.938 0.375 0.375 0.938-0.375 0.969-0.938 0.406zM24 20q-0.563 0-0.938-0.375t-0.375-0.938 0.375-0.969 0.938-0.406 0.938 0.406 0.375 0.969-0.375 0.938-0.938 0.375zM13.313 9.313q-0.563 0-0.938-0.375t-0.375-0.938 0.375-0.938 0.938-0.375 0.969 0.375 0.406 0.938-0.406 0.938-0.969 0.375zM28 14q-0.688 0-0.688-0.688 0-0.625 0.688-0.625t0.688 0.625q0 0.688-0.688 0.688zM13.313 4.688q-0.625 0-0.625-0.688t0.625-0.688q0.688 0 0.688 0.688t-0.688 0.688zM18.688 4.688q-0.688 0-0.688-0.688t0.688-0.688q0.625 0 0.625 0.688t-0.625 0.688zM18.375 15.313q-0.625-0.063-1.125-0.563t-0.563-1.125v-0.313q0-0.813 0.594-1.406t1.406-0.594 1.406 0.594 0.594 1.406-0.594 1.406-1.406 0.594h-0.313zM18.688 9.313q-0.563 0-0.969-0.375t-0.406-0.938 0.406-0.938 0.969-0.375 0.938 0.375 0.375 0.938-0.375 0.938-0.938 0.375z"></path>
</svg>
