<?xml version="1.0" encoding="utf-8"?>
<!-- Generated by IcoMoon.io -->
<!DOCTYPE svg PUBLIC "-//W3C//DTD SVG 1.1//EN" "http://www.w3.org/Graphics/SVG/1.1/DTD/svg11.dtd">
<svg version="1.1" xmlns="http://www.w3.org/2000/svg" xmlns:xlink="http://www.w3.org/1999/xlink" width="32" height="32" viewBox="0 0 32 32">
<path d="M17.313 22.688q-0.563 0-0.938-0.406t-0.375-0.969 0.375-0.938 0.938-0.375 0.969 0.375 0.406 0.938-0.406 0.969-0.969 0.406zM17.313 17.313q-0.563 0-0.938-0.375t-0.375-0.938 0.375-0.938 0.938-0.375 0.969 0.375 0.406 0.938-0.406 0.938-0.969 0.375zM17.313 12q-0.563 0-0.938-0.375t-0.375-0.938 0.375-0.969 0.938-0.406 0.969 0.406 0.406 0.969-0.406 0.938-0.969 0.375zM22.688 16.688q-0.688 0-0.688-0.688t0.688-0.688q0.625 0 0.625 0.688t-0.625 0.688zM22.688 11.313q-0.688 0-0.688-0.625 0-0.688 0.688-0.688 0.625 0 0.625 0.688 0 0.625-0.625 0.625zM4 4h24v2.688h-24v-2.688zM22.688 22q-0.688 0-0.688-0.688 0-0.625 0.688-0.625 0.625 0 0.625 0.625 0 0.688-0.625 0.688zM12 22.688q-0.563 0-0.938-0.406t-0.375-0.969 0.375-0.938 0.938-0.375 0.938 0.375 0.375 0.938-0.375 0.969-0.938 0.406zM6.688 18q-0.813 0-1.406-0.563t-0.594-1.438 0.594-1.438 1.406-0.563 1.406 0.563 0.594 1.438-0.594 1.438-1.406 0.563zM6.688 12.688q-0.813 0-1.406-0.594t-0.594-1.406 0.594-1.406 1.406-0.594 1.406 0.594 0.594 1.406-0.594 1.406-1.406 0.594zM4 28v-2.688h24v2.688h-24zM12 12q-0.563 0-0.938-0.375t-0.375-0.938 0.375-0.969 0.938-0.406 0.938 0.406 0.375 0.969-0.375 0.938-0.938 0.375zM12 17.313q-0.563 0-0.938-0.375t-0.375-0.938 0.375-0.938 0.938-0.375 0.938 0.375 0.375 0.938-0.375 0.938-0.938 0.375zM6.688 23.313q-0.813 0-1.406-0.594t-0.594-1.406 0.594-1.406 1.406-0.594 1.406 0.594 0.594 1.406-0.594 1.406-1.406 0.594z"></path>
</svg>
