<?xml version="1.0" encoding="utf-8"?>
<!-- Generated by IcoMoon.io -->
<!DOCTYPE svg PUBLIC "-//W3C//DTD SVG 1.1//EN" "http://www.w3.org/Graphics/SVG/1.1/DTD/svg11.dtd">
<svg version="1.1" xmlns="http://www.w3.org/2000/svg" xmlns:xlink="http://www.w3.org/1999/xlink" width="32" height="32" viewBox="0 0 32 32">
<path d="M18.688 17.313q0.563 0 0.938 0.406t0.375 0.969-0.375 0.938-0.938 0.375-0.969-0.375-0.406-0.938 0.406-0.969 0.969-0.406zM18.688 22q0.625 0 0.625 0.688 0 0.625-0.625 0.625-0.688 0-0.688-0.625 0-0.688 0.688-0.688zM16 26.688q4.375 0 7.531-3.156t3.156-7.531-3.156-7.531-7.531-3.156-7.531 3.156-3.156 7.531 3.156 7.531 7.531 3.156zM16 2.688q5.5 0 9.406 3.906t3.906 9.406-3.906 9.406-9.406 3.906-9.406-3.906-3.906-9.406 3.906-9.406 9.406-3.906zM22.688 12.688q0.625 0 0.625 0.625 0 0.688-0.625 0.688-0.688 0-0.688-0.688 0-0.625 0.688-0.625zM22.688 18q0.625 0 0.625 0.688 0 0.625-0.625 0.625-0.688 0-0.688-0.625 0-0.688 0.688-0.688zM18.688 10q-0.688 0-0.688-0.688 0-0.625 0.688-0.625 0.625 0 0.625 0.625 0 0.688-0.625 0.688zM18.688 12q0.563 0 0.938 0.375t0.375 0.938-0.375 0.969-0.938 0.406-0.969-0.406-0.406-0.969 0.406-0.938 0.969-0.375zM13.313 10q-0.625 0-0.625-0.688 0-0.625 0.625-0.625 0.688 0 0.688 0.625 0 0.688-0.688 0.688zM9.313 18q0.688 0 0.688 0.688 0 0.625-0.688 0.625-0.625 0-0.625-0.625 0-0.688 0.625-0.688zM13.313 22q0.688 0 0.688 0.688 0 0.625-0.688 0.625-0.625 0-0.625-0.625 0-0.688 0.625-0.688zM9.313 12.688q0.688 0 0.688 0.625 0 0.688-0.688 0.688-0.625 0-0.625-0.688 0-0.625 0.625-0.625zM13.313 17.313q0.563 0 0.969 0.406t0.406 0.969-0.406 0.938-0.969 0.375-0.938-0.375-0.375-0.938 0.375-0.969 0.938-0.406zM13.313 12q0.563 0 0.969 0.375t0.406 0.938-0.406 0.969-0.969 0.406-0.938-0.406-0.375-0.969 0.375-0.938 0.938-0.375z"></path>
</svg>
