<?xml version="1.0" encoding="utf-8"?>
<!-- Generated by IcoMoon.io -->
<!DOCTYPE svg PUBLIC "-//W3C//DTD SVG 1.1//EN" "http://www.w3.org/Graphics/SVG/1.1/DTD/svg11.dtd">
<svg version="1.1" xmlns="http://www.w3.org/2000/svg" xmlns:xlink="http://www.w3.org/1999/xlink" width="32" height="32" viewBox="0 0 32 32">
<path d="M16 10.688q2.188 0 3.75 1.563t1.563 3.75-1.563 3.75-3.75 1.563-3.75-1.563-1.563-3.75 1.563-3.75 3.75-1.563zM16 24q3.313 0 5.656-2.344t2.344-5.656-2.344-5.656-5.656-2.344-5.656 2.344-2.344 5.656 2.344 5.656 5.656 2.344zM26.688 11.563l4.375 4.438-4.375 4.438v6.25h-6.25l-4.438 4.375-4.438-4.375h-6.25v-6.25l-4.375-4.438 4.375-4.438v-6.25h6.25l4.438-4.375 4.438 4.375h6.25v6.25z"></path>
</svg>
