<?xml version="1.0" encoding="utf-8"?>
<!-- Generated by IcoMoon.io -->
<!DOCTYPE svg PUBLIC "-//W3C//DTD SVG 1.1//EN" "http://www.w3.org/Graphics/SVG/1.1/DTD/svg11.dtd">
<svg version="1.1" xmlns="http://www.w3.org/2000/svg" xmlns:xlink="http://www.w3.org/1999/xlink" width="32" height="32" viewBox="0 0 32 32">
<path d="M18.688 16v-2.688h-5.375v2.688h5.375zM18.688 21.313v-2.625h-5.375v2.625h5.375zM26.688 10.688v2.625h-2.813q0.125 0.875 0.125 1.375v1.313h2.688v2.688h-2.688v1.313q0 0.438-0.125 1.313h2.813v2.688h-3.75q-1.063 1.813-2.906 2.906t-4.031 1.094-4.031-1.094-2.906-2.906h-3.75v-2.688h2.813q-0.125-0.875-0.125-1.313v-1.313h-2.688v-2.688h2.688v-1.313q0-0.5 0.125-1.375h-2.813v-2.625h3.75q0.938-1.563 2.438-2.625l-2.188-2.188 1.875-1.875 2.938 2.875q0.938-0.188 1.875-0.188t1.875 0.188l2.938-2.875 1.875 1.875-2.188 2.188q1.5 1.063 2.438 2.625h3.75z"></path>
</svg>
