<?xml version="1.0" encoding="utf-8"?>
<!-- Generated by IcoMoon.io -->
<!DOCTYPE svg PUBLIC "-//W3C//DTD SVG 1.1//EN" "http://www.w3.org/Graphics/SVG/1.1/DTD/svg11.dtd">
<svg version="1.1" xmlns="http://www.w3.org/2000/svg" xmlns:xlink="http://www.w3.org/1999/xlink" width="32" height="32" viewBox="0 0 32 32">
<path d="M24 20v2.688h-2.688v-2.688h2.688zM24 14.688v2.625h-2.688v-2.625h2.688zM26.688 25.313v-13.313h-10.688v2.688h2.688v2.625h-2.688v2.688h2.688v2.688h-2.688v2.625h10.688zM13.313 9.313v-2.625h-2.625v2.625h2.625zM13.313 14.688v-2.688h-2.625v2.688h2.625zM13.313 20v-2.688h-2.625v2.688h2.625zM13.313 25.313v-2.625h-2.625v2.625h2.625zM8 9.313v-2.625h-2.688v2.625h2.688zM8 14.688v-2.688h-2.688v2.688h2.688zM8 20v-2.688h-2.688v2.688h2.688zM8 25.313v-2.625h-2.688v2.625h2.688zM16 9.313h13.313v18.688h-26.625v-24h13.313v5.313z"></path>
</svg>
