<?xml version="1.0" encoding="utf-8"?>
<!-- Generated by IcoMoon.io -->
<!DOCTYPE svg PUBLIC "-//W3C//DTD SVG 1.1//EN" "http://www.w3.org/Graphics/SVG/1.1/DTD/svg11.dtd">
<svg version="1.1" xmlns="http://www.w3.org/2000/svg" xmlns:xlink="http://www.w3.org/1999/xlink" width="32" height="32" viewBox="0 0 32 32">
<path d="M8 16h4l-5.313 5.313-5.375-5.313h4q0-4.375 3.156-7.531t7.531-3.156q3.125 0 5.688 1.688l-1.938 1.938q-1.688-0.938-3.75-0.938-3.313 0-5.656 2.344t-2.344 5.656zM25.313 10.688l5.375 5.313h-4q0 4.375-3.156 7.531t-7.531 3.156q-3.125 0-5.688-1.688l1.938-1.938q1.688 0.938 3.75 0.938 3.313 0 5.656-2.344t2.344-5.656h-4z"></path>
</svg>
