<?xml version="1.0" encoding="utf-8"?>
<!-- Generated by IcoMoon.io -->
<!DOCTYPE svg PUBLIC "-//W3C//DTD SVG 1.1//EN" "http://www.w3.org/Graphics/SVG/1.1/DTD/svg11.dtd">
<svg version="1.1" xmlns="http://www.w3.org/2000/svg" xmlns:xlink="http://www.w3.org/1999/xlink" width="32" height="32" viewBox="0 0 32 32">
<path d="M24 12q1.625 0 2.813 1.188t1.188 2.813v2.063q0 1.063-0.781 1.844t-1.844 0.781-1.813-0.75l-2.875-2.875-2.875 2.875q-0.75 0.75-1.844 0.75t-1.844-0.75l-2.813-2.875-2.875 2.875q-0.75 0.75-1.813 0.75t-1.844-0.781-0.781-1.844v-2.063q0-1.625 1.188-2.813t2.813-1.188h6.688v-2.688h2.625v2.688h6.688zM22.125 21.313q1.375 1.375 3.25 1.375 1.375 0 2.625-0.813v6.125q0 0.563-0.375 0.938t-0.938 0.375h-21.375q-0.563 0-0.938-0.375t-0.375-0.938v-6.125q1.188 0.813 2.625 0.813 1.875 0 3.25-1.375l1.438-1.438 1.438 1.438q1.313 1.313 3.25 1.313t3.25-1.313l1.438-1.438zM16 8q-1.063 0-1.875-0.813t-0.813-1.875q0-0.688 0.438-1.375l2.25-3.938 2.25 3.938q0.438 0.688 0.438 1.375 0 1.063-0.781 1.875t-1.906 0.813z"></path>
</svg>
