<?xml version="1.0" encoding="utf-8"?>
<!-- Generated by IcoMoon.io -->
<!DOCTYPE svg PUBLIC "-//W3C//DTD SVG 1.1//EN" "http://www.w3.org/Graphics/SVG/1.1/DTD/svg11.dtd">
<svg version="1.1" xmlns="http://www.w3.org/2000/svg" xmlns:xlink="http://www.w3.org/1999/xlink" width="32" height="32" viewBox="0 0 32 32">
<path d="M16 12q-3.25 0-6.125 0.938v4.125q0 0.938-0.75 1.25-2 0.938-3.563 2.438-0.375 0.375-0.938 0.375t-0.938-0.375l-3.313-3.313q-0.375-0.375-0.375-0.938t0.375-0.938q6.563-6.25 15.625-6.25t15.625 6.25q0.375 0.375 0.375 0.938t-0.375 0.938l-3.313 3.313q-0.375 0.375-0.938 0.375t-0.938-0.375q-1.563-1.5-3.563-2.438-0.75-0.313-0.75-1.188v-4.125q-3.125-1-6.125-1z"></path>
</svg>
