<?xml version="1.0" encoding="utf-8"?>
<!-- Generated by IcoMoon.io -->
<!DOCTYPE svg PUBLIC "-//W3C//DTD SVG 1.1//EN" "http://www.w3.org/Graphics/SVG/1.1/DTD/svg11.dtd">
<svg version="1.1" xmlns="http://www.w3.org/2000/svg" xmlns:xlink="http://www.w3.org/1999/xlink" width="32" height="32" viewBox="0 0 32 32">
<path d="M26.688 12v-2.688h-2.688v2.688h2.688zM26.688 24v-2.688h-2.688v2.688h2.688zM21.313 12v-2.688h-2.625v2.688h2.625zM21.313 24v-2.688h-2.625v2.688h2.625zM16 12v-2.688h-2.688v2.688h2.688zM16 24v-2.688h-2.688v2.688h2.688zM18.688 6.688h10.625v20h-10.625q0 1.063-0.813 1.844t-1.875 0.781h-10.688q-1.063 0-1.844-0.781t-0.781-1.844v-20q0-1.063 0.781-1.875t1.844-0.813h1.375v-1.313q0-0.563 0.375-0.969t0.938-0.406h5.313q0.563 0 0.969 0.406t0.406 0.969v1.313h1.313q1.063 0 1.875 0.813t0.813 1.875z"></path>
</svg>
