<?xml version="1.0" encoding="utf-8"?>
<!-- Generated by IcoMoon.io -->
<!DOCTYPE svg PUBLIC "-//W3C//DTD SVG 1.1//EN" "http://www.w3.org/Graphics/SVG/1.1/DTD/svg11.dtd">
<svg version="1.1" xmlns="http://www.w3.org/2000/svg" xmlns:xlink="http://www.w3.org/1999/xlink" width="32" height="32" viewBox="0 0 32 32">
<path d="M16 8q1.063 0 1.844-0.813t0.781-1.875-0.781-1.844-1.844-0.781-1.875 0.781-0.813 1.844 0.781 1.875 1.906 0.813zM22.688 0q1.063 0 1.844 0.813t0.781 1.875v18.625q0 1.063-0.781 1.875t-1.844 0.813h-9.375l4 4-4 4v-2.688h-6.625v-2.625h6.625v-2.688h-4q-1.063 0-1.844-0.813t-0.781-1.875v-18.625q0-1.063 0.781-1.875t1.844-0.813h13.375zM18.688 26.688h6.625v2.625h-6.625v-2.625z"></path>
</svg>
