<?xml version="1.0" encoding="utf-8"?>
<!-- Generated by IcoMoon.io -->
<!DOCTYPE svg PUBLIC "-//W3C//DTD SVG 1.1//EN" "http://www.w3.org/Graphics/SVG/1.1/DTD/svg11.dtd">
<svg version="1.1" xmlns="http://www.w3.org/2000/svg" xmlns:xlink="http://www.w3.org/1999/xlink" width="32" height="32" viewBox="0 0 32 32">
<path d="M13.125 29q0.25-0.438 2.688-4.688t3.75-6.438l4.875 8.438q-3.688 3-8.438 3-1.313 0-2.875-0.313zM3.25 20h12.938l-4.938 8.438q-2.875-1.063-4.969-3.281t-3.031-5.156zM6.188 7l6.75 11.688h-10q-0.25-1.188-0.25-2.688 0-5.188 3.5-9zM29.063 13.313q0.25 1.188 0.25 2.688 0 5.188-3.5 9l-6.375-11-0.375-0.688h10zM28.75 12h-12.938l4.938-8.438q2.875 1.063 4.969 3.281t3.031 5.156zM12.563 14l-0.125 0.125-4.875-8.438q3.688-3 8.438-3 1.313 0 2.875 0.313z"></path>
</svg>
