<?xml version="1.0" encoding="utf-8"?>
<!-- Generated by IcoMoon.io -->
<!DOCTYPE svg PUBLIC "-//W3C//DTD SVG 1.1//EN" "http://www.w3.org/Graphics/SVG/1.1/DTD/svg11.dtd">
<svg version="1.1" xmlns="http://www.w3.org/2000/svg" xmlns:xlink="http://www.w3.org/1999/xlink" width="32" height="32" viewBox="0 0 32 32">
<path d="M28 4q1.063 0 1.875 0.813t0.813 1.875v18.625q0 1.063-0.813 1.875t-1.875 0.813h-9.313v-2.688h9.313v-18.625h-24v4h-2.688v-4q0-1.063 0.813-1.875t1.875-0.813h24zM1.313 13.313q6.063 0 10.375 4.313t4.313 10.375h-2.688q0-5-3.531-8.5t-8.469-3.5v-2.688zM25.313 9.313v13.375h-7.5q-1.25-3.938-4.219-6.938t-6.906-4.25v-2.188h18.625zM1.313 18.688q3.875 0 6.625 2.719t2.75 6.594h-2.688q0-2.75-1.969-4.719t-4.719-1.969v-2.625zM1.313 24q1.625 0 2.813 1.188t1.188 2.813h-4v-4z"></path>
</svg>
