<?xml version="1.0" encoding="utf-8"?>
<!-- Generated by IcoMoon.io -->
<!DOCTYPE svg PUBLIC "-//W3C//DTD SVG 1.1//EN" "http://www.w3.org/Graphics/SVG/1.1/DTD/svg11.dtd">
<svg version="1.1" xmlns="http://www.w3.org/2000/svg" xmlns:xlink="http://www.w3.org/1999/xlink" width="32" height="32" viewBox="0 0 32 32">
<path d="M22.688 26.688q0.813 0 1.406-0.594t0.594-1.406-0.594-1.406-1.406-0.594-1.406 0.594-0.594 1.406 0.594 1.406 1.406 0.594zM10.688 26.688q0.813 0 1.406-0.594t0.594-1.406-0.594-1.406-1.406-0.594-1.406 0.594-0.594 1.406 0.594 1.406 1.406 0.594zM25.75 21.188q1.563 1.438 1.563 3.5 0 1.938-1.344 3.281t-3.281 1.344q-1.75 0-3.063-1.156t-1.563-2.844h-2.813q-0.25 1.688-1.531 2.844t-3.031 1.156q-1.938 0-3.313-1.344t-1.375-3.281q0-2.75 2.438-4.125l-2.813-5.875h-2.938v-2.688h4.625l1.25 2.688h19.438q0 3.563-2.25 6.5zM17.313 2.688q4.438 0 7.563 3.125t3.125 7.5h-10.688v-10.625z"></path>
</svg>
