<?xml version="1.0" encoding="utf-8"?>
<!-- Generated by IcoMoon.io -->
<!DOCTYPE svg PUBLIC "-//W3C//DTD SVG 1.1//EN" "http://www.w3.org/Graphics/SVG/1.1/DTD/svg11.dtd">
<svg version="1.1" xmlns="http://www.w3.org/2000/svg" xmlns:xlink="http://www.w3.org/1999/xlink" width="32" height="32" viewBox="0 0 32 32">
<path d="M10 18.688h12q-0.75 1.813-2.375 2.906t-3.625 1.094-3.625-1.094-2.375-2.906zM16 25.313q3.188 0 5.656-1.875t3.281-4.813q0.063 0 0.188 0.031t0.188 0.031q1.063 0 1.875-0.813t0.813-1.875-0.813-1.875-1.875-0.813q-0.063 0-0.188 0.031t-0.188 0.031q-0.813-2.938-3.281-4.813t-5.656-1.875-5.656 1.875-3.281 4.813q-0.063 0-0.188-0.031t-0.188-0.031q-1.063 0-1.875 0.813t-0.813 1.875 0.813 1.875 1.875 0.813q0.063 0 0.188-0.031t0.188-0.031q0.813 2.938 3.281 4.813t5.656 1.875zM30.563 16.875q-0.25 1.5-1.25 2.656t-2.438 1.594q-1.375 2.938-4.344 4.906t-6.531 1.969-6.5-1.969-4.313-4.906q-1.438-0.438-2.469-1.594t-1.281-2.656q-0.125-0.5-0.125-0.875t0.125-0.875q0.25-1.5 1.281-2.656t2.469-1.594q1.063-2.375 2.875-3.875 3.375-3 7.938-3 3.625 0 6.531 1.938t4.281 4.938q1.438 0.438 2.469 1.594t1.281 2.656q0.125 0.5 0.125 0.875t-0.125 0.875zM11 14q0-0.688 0.5-1.188t1.188-0.5 1.156 0.5 0.469 1.188-0.469 1.188-1.156 0.5-1.188-0.5-0.5-1.188zM17.688 14q0-0.688 0.469-1.188t1.156-0.5 1.188 0.5 0.5 1.188-0.5 1.188-1.188 0.5-1.156-0.5-0.469-1.188z"></path>
</svg>
