<?xml version="1.0" encoding="utf-8"?>
<!-- Generated by IcoMoon.io -->
<!DOCTYPE svg PUBLIC "-//W3C//DTD SVG 1.1//EN" "http://www.w3.org/Graphics/SVG/1.1/DTD/svg11.dtd">
<svg version="1.1" xmlns="http://www.w3.org/2000/svg" xmlns:xlink="http://www.w3.org/1999/xlink" width="32" height="32" viewBox="0 0 32 32">
<path d="M10.313 13.313h-2.313q-2.188 0-3.75 1.594t-1.563 3.781 1.563 3.75 3.75 1.563h13zM4 7l1.688-1.688 22.313 22.313-1.688 1.688-2.688-2.625h-15.625q-3.313 0-5.656-2.344t-2.344-5.656q0-3.25 2.25-5.563t5.438-2.438zM25.813 13.375q2.563 0.188 4.375 2.094t1.813 4.531q0 3.438-2.813 5.438l-1.938-1.938q2.063-1.125 2.063-3.5 0-1.625-1.188-2.813t-2.813-1.188h-2v-0.688q0-3.063-2.125-5.188t-5.188-2.125q-1.938 0-3.375 0.813l-2-1.938q2.438-1.563 5.375-1.563 3.625 0 6.375 2.281t3.438 5.781z"></path>
</svg>
