<?xml version="1.0" encoding="utf-8"?>
<!-- Generated by IcoMoon.io -->
<!DOCTYPE svg PUBLIC "-//W3C//DTD SVG 1.1//EN" "http://www.w3.org/Graphics/SVG/1.1/DTD/svg11.dtd">
<svg version="1.1" xmlns="http://www.w3.org/2000/svg" xmlns:xlink="http://www.w3.org/1999/xlink" width="32" height="32" viewBox="0 0 32 32">
<path d="M22 21.313q1.375 0 2.344-0.969t0.969-2.344-0.969-2.344-2.344-0.969h-0.688q0-2.188-1.563-3.781t-3.75-1.594q-1.875 0-3.281 1.156t-1.844 2.906l-0.188-0.063q-1.625 0-2.813 1.188t-1.188 2.813 1.188 2.813 2.813 1.188h11.313zM16 2.688q5.5 0 9.406 3.906t3.906 9.406-3.906 9.406-9.406 3.906-9.406-3.906-3.906-9.406 3.906-9.406 9.406-3.906z"></path>
</svg>
