<?xml version="1.0" encoding="utf-8"?>
<!-- Generated by IcoMoon.io -->
<!DOCTYPE svg PUBLIC "-//W3C//DTD SVG 1.1//EN" "http://www.w3.org/Graphics/SVG/1.1/DTD/svg11.dtd">
<svg version="1.1" xmlns="http://www.w3.org/2000/svg" xmlns:xlink="http://www.w3.org/1999/xlink" width="32" height="32" viewBox="0 0 32 32">
<path d="M25.313 26.688v-21.375h-2.625v4h-13.375v-4h-2.625v21.375h18.625zM16 2.688q-0.563 0-0.938 0.375t-0.375 0.938 0.375 0.938 0.938 0.375 0.938-0.375 0.375-0.938-0.375-0.938-0.938-0.375zM25.313 2.688q1.063 0 1.875 0.781t0.813 1.844v21.375q0 1.063-0.813 1.844t-1.875 0.781h-18.625q-1.063 0-1.875-0.781t-0.813-1.844v-21.375q0-1.063 0.813-1.844t1.875-0.781h5.563q0.438-1.188 1.438-1.938t2.313-0.75 2.313 0.75 1.438 1.938h5.563z"></path>
</svg>
