<?xml version="1.0" encoding="utf-8"?>
<!-- Generated by IcoMoon.io -->
<!DOCTYPE svg PUBLIC "-//W3C//DTD SVG 1.1//EN" "http://www.w3.org/Graphics/SVG/1.1/DTD/svg11.dtd">
<svg version="1.1" xmlns="http://www.w3.org/2000/svg" xmlns:xlink="http://www.w3.org/1999/xlink" width="32" height="32" viewBox="0 0 32 32">
<path d="M20 25.313q3.875 0 6.594-2.719t2.719-6.594-2.719-6.594-6.594-2.719-6.594 2.719-2.719 6.594 2.719 6.594 6.594 2.719zM20 4q5 0 8.5 3.5t3.5 8.5-3.5 8.5-8.5 3.5-8.5-3.5-3.5-8.5 3.5-8.5 8.5-3.5zM2.688 16q0 2.75 1.438 5.031t3.875 3.406v2.875q-3.5-1.25-5.75-4.375t-2.25-6.938 2.25-6.938 5.75-4.375v2.875q-2.438 1.125-3.875 3.406t-1.438 5.031zM21.313 10.688v4h4v2.625h-4v4h-2.625v-4h-4v-2.625h4v-4h2.625z"></path>
</svg>
