<?xml version="1.0" encoding="utf-8"?>
<!-- Generated by IcoMoon.io -->
<!DOCTYPE svg PUBLIC "-//W3C//DTD SVG 1.1//EN" "http://www.w3.org/Graphics/SVG/1.1/DTD/svg11.dtd">
<svg version="1.1" xmlns="http://www.w3.org/2000/svg" xmlns:xlink="http://www.w3.org/1999/xlink" width="32" height="32" viewBox="0 0 32 32">
<path d="M25.313 4h4v1.313l-9.313 9.375-2.688-2.688zM16 16.688q0.688 0 0.688-0.688t-0.688-0.688-0.688 0.688 0.688 0.688zM8 26.688q1.063 0 1.875-0.781t0.813-1.906-0.813-1.906-1.875-0.781-1.875 0.781-0.813 1.906 0.813 1.906 1.875 0.781zM8 10.688q1.063 0 1.875-0.781t0.813-1.906-0.813-1.906-1.875-0.781-1.875 0.781-0.813 1.906 0.813 1.906 1.875 0.781zM12.875 10.188l16.438 16.5v1.313h-4l-9.313-9.313-3.125 3.125q0.438 0.938 0.438 2.188 0 2.188-1.563 3.75t-3.75 1.563-3.75-1.563-1.563-3.75 1.563-3.75 3.75-1.563q1.25 0 2.188 0.438l3.125-3.125-3.125-3.125q-0.938 0.438-2.188 0.438-2.188 0-3.75-1.563t-1.563-3.75 1.563-3.75 3.75-1.563 3.75 1.563 1.563 3.75q0 1.25-0.438 2.188z"></path>
</svg>
