<?xml version="1.0" encoding="utf-8"?>
<!-- Generated by IcoMoon.io -->
<!DOCTYPE svg PUBLIC "-//W3C//DTD SVG 1.1//EN" "http://www.w3.org/Graphics/SVG/1.1/DTD/svg11.dtd">
<svg version="1.1" xmlns="http://www.w3.org/2000/svg" xmlns:xlink="http://www.w3.org/1999/xlink" width="32" height="32" viewBox="0 0 32 32">
<path d="M29.313 16v-8h-10.625v8h10.625zM18.688 24v-1.313q0-1.813-2.75-2.969t-5.25-1.156-5.25 1.156-2.75 2.969v1.313h16zM10.688 8q-1.625 0-2.813 1.188t-1.188 2.813 1.188 2.813 2.813 1.188 2.813-1.188 1.188-2.813-1.188-2.813-2.813-1.188zM29.313 4q1.063 0 1.875 0.813t0.813 1.875v18.625q0 1.063-0.813 1.875t-1.875 0.813h-26.625q-1.063 0-1.875-0.813t-0.813-1.875v-18.625q0-1.063 0.813-1.875t1.875-0.813h26.625zM28 10.688l-4 2.625-4-2.625v-1.375l4 2.688 4-2.688v1.375z"></path>
</svg>
