<?xml version="1.0" encoding="utf-8"?>
<!-- Generated by IcoMoon.io -->
<!DOCTYPE svg PUBLIC "-//W3C//DTD SVG 1.1//EN" "http://www.w3.org/Graphics/SVG/1.1/DTD/svg11.dtd">
<svg version="1.1" xmlns="http://www.w3.org/2000/svg" xmlns:xlink="http://www.w3.org/1999/xlink" width="32" height="32" viewBox="0 0 32 32">
<path d="M16 26.688q4.375 0 7.531-3.156t3.156-7.531-3.156-7.531-7.531-3.156-7.531 3.156-3.156 7.531 3.156 7.531 7.531 3.156zM16 2.688q5.5 0 9.406 3.906t3.906 9.406-3.906 9.406-9.406 3.906-9.406-3.906-3.906-9.406 3.906-9.406 9.406-3.906zM15.813 12.188q-2.5 0-2.5 3.625v0.375q0 3.625 2.5 3.625 0.938 0 1.563-0.531t0.625-1.344h2.375q0 1.563-1.375 2.75-1.313 1.125-3.188 1.125-2.5 0-3.813-1.5t-1.313-4.125v-0.375q0-2.563 1.25-4 1.5-1.688 3.875-1.688 2.063 0 3.25 1.188 1.313 1.313 1.313 3.063h-2.375q0-0.438-0.188-0.813-0.313-0.625-0.438-0.75-0.625-0.625-1.563-0.625z"></path>
</svg>
