<?xml version="1.0" encoding="utf-8"?>
<!-- Generated by IcoMoon.io -->
<!DOCTYPE svg PUBLIC "-//W3C//DTD SVG 1.1//EN" "http://www.w3.org/Graphics/SVG/1.1/DTD/svg11.dtd">
<svg version="1.1" xmlns="http://www.w3.org/2000/svg" xmlns:xlink="http://www.w3.org/1999/xlink" width="32" height="32" viewBox="0 0 32 32">
<path d="M10.688 21.313h16v2.688h-2.688v2.688h-2.688v-2.688h-10.625q-1.125 0-1.906-0.813t-0.781-1.875v-10.625h-2.688v-2.688h2.688v-2.688h2.688v16zM21.313 18.688v-8h-8v-2.688h8q1.063 0 1.875 0.781t0.813 1.906v8h-2.688zM16.063 0q6.25 0 10.844 4.25t5.094 10.438h-2q-0.375-3.75-2.5-6.75t-5.438-4.563l-1.813 1.75-5.063-5.063q0.188 0 0.438-0.031t0.438-0.031zM9.938 28.625l1.813-1.75 5.063 5.063q-0.188 0-0.438 0.031t-0.438 0.031q-6.25 0-10.844-4.25t-5.094-10.438h2q0.375 3.75 2.5 6.75t5.438 4.563z"></path>
</svg>
