<?xml version="1.0" encoding="utf-8"?>
<!-- Generated by IcoMoon.io -->
<!DOCTYPE svg PUBLIC "-//W3C//DTD SVG 1.1//EN" "http://www.w3.org/Graphics/SVG/1.1/DTD/svg11.dtd">
<svg version="1.1" xmlns="http://www.w3.org/2000/svg" xmlns:xlink="http://www.w3.org/1999/xlink" width="32" height="32" viewBox="0 0 32 32">
<path d="M16 25.313q4.5 0 7.25-3.5l3.5 2.063q-4 5.438-10.75 5.438-5.5 0-9.406-3.906t-3.906-9.406q0-5.188 3.469-8.969t8.531-4.281v4q-3.375 0.5-5.688 3.125t-2.313 6.125q0 3.875 2.719 6.594t6.594 2.719zM17.313 2.75q5.063 0.5 8.531 4.281t3.469 8.969q0 3-1.125 5.438l-3.5-2.063q0.625-1.75 0.625-3.375 0-3.5-2.313-6.125t-5.688-3.125v-4z"></path>
</svg>
