<?xml version="1.0" encoding="utf-8"?>
<!-- Generated by IcoMoon.io -->
<!DOCTYPE svg PUBLIC "-//W3C//DTD SVG 1.1//EN" "http://www.w3.org/Graphics/SVG/1.1/DTD/svg11.dtd">
<svg version="1.1" xmlns="http://www.w3.org/2000/svg" xmlns:xlink="http://www.w3.org/1999/xlink" width="32" height="32" viewBox="0 0 32 32">
<path d="M22.688 25.313v-2.625h2.625v5.313q0 1.063-0.781 1.875t-1.844 0.813h-13.375q-1.063 0-1.844-0.813t-0.781-1.875v-5.313h2.625v2.625h13.375zM13.313 20.25l-1.875 1.875-6.125-6.125 6.125-6.125 1.875 1.875-4.188 4.25zM20.563 22.125l-1.875-1.875 4.188-4.25-4.188-4.25 1.875-1.875 6.125 6.125zM9.313 6.688v2.625h-2.625v-5.313q0-1.063 0.781-1.875t1.844-0.813l13.375 0.063q1.063 0 1.844 0.781t0.781 1.844v5.313h-2.625v-2.625h-13.375z"></path>
</svg>
