<?xml version="1.0" encoding="utf-8"?>
<!-- Generated by IcoMoon.io -->
<!DOCTYPE svg PUBLIC "-//W3C//DTD SVG 1.1//EN" "http://www.w3.org/Graphics/SVG/1.1/DTD/svg11.dtd">
<svg version="1.1" xmlns="http://www.w3.org/2000/svg" xmlns:xlink="http://www.w3.org/1999/xlink" width="32" height="32" viewBox="0 0 32 32">
<path d="M16 14.688h5.313v8h-5.313v-8zM8 9.313h6.688v6.688h-6.688v-6.688zM16 9.313h5.313v4h-5.313v-4zM8 17.313h6.688v5.375h-6.688v-5.375zM24 25.313v-18.625h-18.688v18.625h18.688zM29.313 12h-2.625v2.688h2.625v2.625h-2.625v2.688h2.625v2.688h-2.625v2.625q0 1.063-0.813 1.875t-1.875 0.813h-18.688q-1.063 0-1.844-0.813t-0.781-1.875v-18.625q0-1.063 0.781-1.875t1.844-0.813h18.688q1.063 0 1.875 0.813t0.813 1.875v2.625h2.625v2.688z"></path>
</svg>
