<?xml version="1.0" encoding="utf-8"?>
<!-- Generated by IcoMoon.io -->
<!DOCTYPE svg PUBLIC "-//W3C//DTD SVG 1.1//EN" "http://www.w3.org/Graphics/SVG/1.1/DTD/svg11.dtd">
<svg version="1.1" xmlns="http://www.w3.org/2000/svg" xmlns:xlink="http://www.w3.org/1999/xlink" width="32" height="32" viewBox="0 0 32 32">
<path d="M28 24v-10.688h-5.313v10.688h5.313zM29.313 10.688q0.5 0 0.938 0.406t0.438 0.906v13.313q0 0.5-0.438 0.938t-0.938 0.438h-8q-0.5 0-0.906-0.438t-0.406-0.938v-13.313q0-0.5 0.406-0.906t0.906-0.406h8zM14.688 23.313q0.813 0 1.406-0.594t0.594-1.406-0.594-1.406-1.406-0.594-1.406 0.594-0.594 1.406 0.594 1.406 1.406 0.594zM17.313 16v2.375q1.375 1.25 1.375 2.938 0 1.75-1.375 3v2.375h-5.313v-2.375q-1.313-1.188-1.313-3 0-1.75 1.313-2.938v-2.375h5.313zM4 8v16h5.313v2.688h-5.313q-1.063 0-1.875-0.813t-0.813-1.875v-16q0-1.063 0.813-1.875t1.875-0.813h24v2.688h-24z"></path>
</svg>
