<?xml version="1.0" encoding="utf-8"?>
<!-- Generated by IcoMoon.io -->
<!DOCTYPE svg PUBLIC "-//W3C//DTD SVG 1.1//EN" "http://www.w3.org/Graphics/SVG/1.1/DTD/svg11.dtd">
<svg version="1.1" xmlns="http://www.w3.org/2000/svg" xmlns:xlink="http://www.w3.org/1999/xlink" width="32" height="32" viewBox="0 0 32 32">
<path d="M25.313 27.313q1.938 0 3.313-1.344t1.375-3.281-1.375-3.313-3.313-1.375-3.281 1.375-1.344 3.313 1.344 3.281 3.281 1.344zM25.313 16q2.813 0 4.75 1.938t1.938 4.75-1.938 4.719-4.75 1.906-4.719-1.906-1.906-4.719 1.906-4.75 4.719-1.938zM14.375 14l2.938 3.063v8.25h-2.625v-6.625l-4.313-3.75q-0.75-0.5-0.75-1.875 0-1.125 0.75-1.875l3.75-3.75q0.5-0.75 1.875-0.75 1.188 0 2.125 0.75l2.563 2.563q2 2 4.75 2v2.688q-3.938 0-6.75-2.813l-1.063-1.063zM6.688 27.313q1.938 0 3.281-1.344t1.344-3.281-1.344-3.313-3.281-1.375-3.313 1.375-1.375 3.313 1.375 3.281 3.313 1.344zM6.688 16q2.813 0 4.719 1.938t1.906 4.75-1.906 4.719-4.719 1.906-4.75-1.906-1.938-4.719 1.938-4.75 4.75-1.938zM20.688 7.313q-1.063 0-1.875-0.781t-0.813-1.844 0.813-1.875 1.875-0.813 1.844 0.813 0.781 1.875-0.781 1.844-1.844 0.781z"></path>
</svg>
