<?xml version="1.0" encoding="utf-8"?>
<!-- Generated by IcoMoon.io -->
<!DOCTYPE svg PUBLIC "-//W3C//DTD SVG 1.1//EN" "http://www.w3.org/Graphics/SVG/1.1/DTD/svg11.dtd">
<svg version="1.1" xmlns="http://www.w3.org/2000/svg" xmlns:xlink="http://www.w3.org/1999/xlink" width="32" height="32" viewBox="0 0 32 32">
<path d="M24 13.313v-6.625h-16v6.625h16zM16 22.688q1.063 0 1.875-0.813t0.813-1.875-0.813-1.875-1.875-0.813-1.875 0.813-0.813 1.875 0.813 1.875 1.875 0.813zM5.313 20.688v-14q0-3.188 2.75-4.281t7.938-1.094 7.938 1.094 2.75 4.281v14q0 1.938-1.375 3.281t-3.313 1.344l2 2v0.688h-16v-0.688l2-2q-1.938 0-3.313-1.344t-1.375-3.281z"></path>
</svg>
