<?xml version="1.0" encoding="utf-8"?>
<!-- Generated by IcoMoon.io -->
<!DOCTYPE svg PUBLIC "-//W3C//DTD SVG 1.1//EN" "http://www.w3.org/Graphics/SVG/1.1/DTD/svg11.dtd">
<svg version="1.1" xmlns="http://www.w3.org/2000/svg" xmlns:xlink="http://www.w3.org/1999/xlink" width="32" height="32" viewBox="0 0 32 32">
<path d="M24 14.688v-6.688h-16v6.688h16zM22 22.688q0.875 0 1.438-0.594t0.563-1.406-0.563-1.406-1.438-0.594-1.438 0.594-0.563 1.406 0.563 1.406 1.438 0.594zM10 22.688q0.875 0 1.438-0.594t0.563-1.406-0.563-1.406-1.438-0.594-1.438 0.594-0.563 1.406 0.563 1.406 1.438 0.594zM5.313 21.313v-13.313q0-3.188 2.75-4.25t7.938-1.063 7.938 1.063 2.75 4.25v13.313q0 1.75-1.375 3v2.375q0 0.563-0.375 0.938t-0.938 0.375h-1.313q-0.563 0-0.969-0.375t-0.406-0.938v-1.375h-10.625v1.375q0 0.563-0.406 0.938t-0.969 0.375h-1.313q-0.563 0-0.938-0.375t-0.375-0.938v-2.375q-1.375-1.25-1.375-3z"></path>
</svg>
