<?xml version="1.0" encoding="utf-8"?>
<!-- Generated by IcoMoon.io -->
<!DOCTYPE svg PUBLIC "-//W3C//DTD SVG 1.1//EN" "http://www.w3.org/Graphics/SVG/1.1/DTD/svg11.dtd">
<svg version="1.1" xmlns="http://www.w3.org/2000/svg" xmlns:xlink="http://www.w3.org/1999/xlink" width="32" height="32" viewBox="0 0 32 32">
<path d="M8 8v5.313l8-2.625 8 2.625v-5.313h-16zM5.25 25.313l-2.5-8.875q-0.438-1.25 0.875-1.688l1.688-0.563v-6.188q0-1.063 0.813-1.875t1.875-0.813h4v-4h8v4h4q1.063 0 1.875 0.813t0.813 1.875v6.188l1.688 0.563q1.313 0.438 0.875 1.688l-2.5 8.875h-0.063q-3.063 0-5.375-2.625-2.313 2.625-5.313 2.625t-5.313-2.625q-2.313 2.625-5.375 2.625h-0.063zM26.688 28h2.625v2.688h-2.625q-2.813 0-5.375-1.313-5.313 2.75-10.625 0-2.563 1.313-5.375 1.313h-2.625v-2.688h2.625q2.875 0 5.375-1.75 2.438 1.688 5.313 1.688t5.313-1.688q2.5 1.75 5.375 1.75z"></path>
</svg>
