<?xml version="1.0" encoding="utf-8"?>
<!-- Generated by IcoMoon.io -->
<!DOCTYPE svg PUBLIC "-//W3C//DTD SVG 1.1//EN" "http://www.w3.org/Graphics/SVG/1.1/DTD/svg11.dtd">
<svg version="1.1" xmlns="http://www.w3.org/2000/svg" xmlns:xlink="http://www.w3.org/1999/xlink" width="32" height="32" viewBox="0 0 32 32">
<path d="M24 14.688v-6.688h-6.688v6.688h6.688zM22 22.688q0.875 0 1.438-0.594t0.563-1.406-0.563-1.406-1.438-0.594-1.438 0.594-0.563 1.406 0.563 1.406 1.438 0.594zM14.688 14.688v-6.688h-6.688v6.688h6.688zM10 22.688q0.875 0 1.438-0.594t0.563-1.406-0.563-1.406-1.438-0.594-1.438 0.594-0.563 1.406 0.563 1.406 1.438 0.594zM16 2.688q5.188 0 7.938 1.063t2.75 4.25v12.688q0 1.938-1.375 3.281t-3.313 1.344l2 2v0.688h-16v-0.688l2-2q-1.938 0-3.313-1.344t-1.375-3.281v-12.688q0-3.188 2.75-4.25t7.938-1.063z"></path>
</svg>
