<?xml version="1.0" encoding="utf-8"?>
<!-- Generated by IcoMoon.io -->
<!DOCTYPE svg PUBLIC "-//W3C//DTD SVG 1.1//EN" "http://www.w3.org/Graphics/SVG/1.1/DTD/svg11.dtd">
<svg version="1.1" xmlns="http://www.w3.org/2000/svg" xmlns:xlink="http://www.w3.org/1999/xlink" width="32" height="32" viewBox="0 0 32 32">
<path d="M13.063 11.875l-3.75 18.813h2.813l2.438-10.688 2.75 2.688v8h2.688v-10l-2.813-2.688 0.813-4q2.875 3.313 7.313 3.313v-2.625q-3.875 0-5.688-3.25l-1.375-2.125q-0.938-1.313-2.25-1.313-0.188 0-0.531 0.063t-0.531 0.063l-6.938 2.938v6.25h2.688v-4.5l2.375-0.938zM18 7.313q-1.063 0-1.875-0.781t-0.813-1.844 0.813-1.875 1.875-0.813 1.875 0.813 0.813 1.875-0.813 1.844-1.875 0.781z"></path>
</svg>
