<?xml version="1.0" encoding="utf-8"?>
<!-- Generated by IcoMoon.io -->
<!DOCTYPE svg PUBLIC "-//W3C//DTD SVG 1.1//EN" "http://www.w3.org/Graphics/SVG/1.1/DTD/svg11.dtd">
<svg version="1.1" xmlns="http://www.w3.org/2000/svg" xmlns:xlink="http://www.w3.org/1999/xlink" width="32" height="32" viewBox="0 0 32 32">
<path d="M13.188 25.813l-9.313-1.813 0.5-2.688 6.563 1.313 2.125-10.813-2.438 0.938v4.563h-2.625v-6.25l6.938-2.938q0.188 0 0.531-0.063t0.531-0.063q1.313 0 2.25 1.313l1.313 2.125q1.813 3.188 5.75 3.188v2.688q-4.438 0-7.313-3.313l-0.813 4 2.813 2.625v10h-2.688v-8l-2.813-2.625zM18 7.313q-1.063 0-1.875-0.813t-0.813-1.875 0.813-1.844 1.875-0.781 1.844 0.781 0.781 1.844-0.781 1.875-1.844 0.813z"></path>
</svg>
