<?xml version="1.0" encoding="utf-8"?>
<!-- Generated by IcoMoon.io -->
<!DOCTYPE svg PUBLIC "-//W3C//DTD SVG 1.1//EN" "http://www.w3.org/Graphics/SVG/1.1/DTD/svg11.dtd">
<svg version="1.1" xmlns="http://www.w3.org/2000/svg" xmlns:xlink="http://www.w3.org/1999/xlink" width="32" height="32" viewBox="0 0 32 32">
<path d="M21.313 21.313v-2.625h-4v-4h-2.625v4h-4v2.625h4v4h2.625v-4h4zM11.875 8v2.688h8.25v-2.688q0-1.688-1.219-2.906t-2.906-1.219-2.906 1.219-1.219 2.906zM24 10.688q1.063 0 1.875 0.781t0.813 1.844v13.375q0 1.063-0.813 1.844t-1.875 0.781h-16q-1.063 0-1.875-0.781t-0.813-1.844v-13.375q0-1.063 0.813-1.844t1.875-0.781h1.313v-2.688q0-2.75 1.969-4.719t4.719-1.969 4.719 1.969 1.969 4.719v2.688h1.313z"></path>
</svg>
