<?xml version="1.0" encoding="utf-8"?>
<!-- Generated by IcoMoon.io -->
<!DOCTYPE svg PUBLIC "-//W3C//DTD SVG 1.1//EN" "http://www.w3.org/Graphics/SVG/1.1/DTD/svg11.dtd">
<svg version="1.1" xmlns="http://www.w3.org/2000/svg" xmlns:xlink="http://www.w3.org/1999/xlink" width="32" height="32" viewBox="0 0 32 32">
<path d="M10.688 9.313v5.375h5.313v2.625h-5.313v5.375h-2.688v-5.375h-5.313v-2.625h5.313v-5.375h2.688zM21.375 21.75h7.938v2.25h-11.5v-2l5.563-6.063q1.125-1.125 1.938-2.5 0.5-0.813 0.5-1.75 0-1-0.688-1.938-0.625-0.813-1.875-0.813-1.313 0-2.188 0.875-0.688 0.688-0.688 2.188h-2.875q0-2.25 1.5-3.75 0.875-0.875 1.813-1.188 1.125-0.375 2.5-0.375 1.125 0 2.25 0.313 1.25 0.5 1.688 0.938 1.438 1.25 1.438 3.438 0 1.5-1 3.125-0.75 1.25-1.063 1.563-0.875 1-1.438 1.563z"></path>
</svg>
