<?xml version="1.0" encoding="utf-8"?>
<!-- Generated by IcoMoon.io -->
<!DOCTYPE svg PUBLIC "-//W3C//DTD SVG 1.1//EN" "http://www.w3.org/Graphics/SVG/1.1/DTD/svg11.dtd">
<svg version="1.1" xmlns="http://www.w3.org/2000/svg" xmlns:xlink="http://www.w3.org/1999/xlink" width="32" height="32" viewBox="0 0 32 32">
<path d="M18.688 13.5q0-2.5-0.688-3.563-0.25-0.375-0.875-0.75-0.438-0.25-1.125-0.25t-1.125 0.25q-0.625 0.375-0.875 0.75-0.688 1.063-0.688 3.563v3.563q0 3.5 1.563 4.438 0.438 0.25 1.125 0.25 1.313 0 2-1.063 0.75-1.125 0.75-3.625v-3.563h-0.063zM10.5 13.938q0-7.25 5.5-7.25 4.063 0 5.125 3.875 0.438 1.625 0.438 3.375v2.75h-0.063q0 3.688-1.5 5.625-0.875 1-1.75 1.313-1 0.375-2.25 0.375t-2.25-0.375q-0.875-0.313-1.75-1.313-1.5-1.688-1.5-5.625v-2.75z"></path>
</svg>
