<?xml version="1.0" encoding="utf-8"?>
<!-- Generated by IcoMoon.io -->
<!DOCTYPE svg PUBLIC "-//W3C//DTD SVG 1.1//EN" "http://www.w3.org/Graphics/SVG/1.1/DTD/svg11.dtd">
<svg version="1.1" xmlns="http://www.w3.org/2000/svg" xmlns:xlink="http://www.w3.org/1999/xlink" width="32" height="32" viewBox="0 0 32 32">
<path d="M2.688 14.688h10.625v2.625h-10.625v-2.625zM21.938 6.688q5.375 0 5.375 4.688 0 0.875-0.25 1.563-0.438 1.188-0.688 1.563-1.063 1.688-2.5 3.125l-3.813 4.125h7.938v2.25h-11.5v-2l5.563-6.063q1.125-1.125 1.938-2.5 0.438-0.75 0.438-1.75 0-0.813-0.125-1.125-0.625-1.625-2.375-1.625-2.875 0-2.875 3.063h-2.875q0-2.25 1.5-3.75 1.563-1.563 4.25-1.563z"></path>
</svg>
