<?xml version="1.0" encoding="utf-8"?>
<!-- Generated by IcoMoon.io -->
<!DOCTYPE svg PUBLIC "-//W3C//DTD SVG 1.1//EN" "http://www.w3.org/Graphics/SVG/1.1/DTD/svg11.dtd">
<svg version="1.1" xmlns="http://www.w3.org/2000/svg" xmlns:xlink="http://www.w3.org/1999/xlink" width="32" height="32" viewBox="0 0 32 32">
<path d="M27.313 14.688q1.375 0 2.375 0.969t1 2.344-1 2.344-2.375 0.969h-2v5.375q0 1.063-0.781 1.844t-1.844 0.781h-5.063v-2q0-1.5-1.063-2.531t-2.563-1.031-2.563 1.031-1.063 2.531v2h-5.063q-1.063 0-1.844-0.781t-0.781-1.844v-5.063h2q1.5 0 2.531-1.063t1.031-2.563-1.031-2.563-2.531-1.063h-2v-5.063q0-1.063 0.781-1.844t1.844-0.781h5.375v-2q0-1.375 0.969-2.375t2.344-1 2.344 1 0.969 2.375v2h5.375q1.063 0 1.844 0.781t0.781 1.844v5.375h2z"></path>
</svg>
