<?xml version="1.0" encoding="utf-8"?>
<!-- Generated by IcoMoon.io -->
<!DOCTYPE svg PUBLIC "-//W3C//DTD SVG 1.1//EN" "http://www.w3.org/Graphics/SVG/1.1/DTD/svg11.dtd">
<svg version="1.1" xmlns="http://www.w3.org/2000/svg" xmlns:xlink="http://www.w3.org/1999/xlink" width="32" height="32" viewBox="0 0 32 32">
<path d="M16 26.688q4.375 0 7.531-3.156t3.156-7.531q0-1.375-0.438-3-1.188 0.313-3 0.313-6.875 0-10.875-5.625-2.063 5-7 7.188-0.063 0.375-0.063 1.125 0 4.375 3.156 7.531t7.531 3.156zM16 2.688q5.5 0 9.406 3.906t3.906 9.406-3.906 9.406-9.406 3.906-9.406-3.906-3.906-9.406 3.906-9.406 9.406-3.906zM20 15.688q0.688 0 1.188 0.469t0.5 1.156-0.5 1.188-1.188 0.5-1.188-0.5-0.5-1.188 0.5-1.156 1.188-0.469zM12 15.688q0.688 0 1.188 0.469t0.5 1.156-0.5 1.188-1.188 0.5-1.188-0.5-0.5-1.188 0.5-1.156 1.188-0.469z"></path>
</svg>
