<svg xmlns="http://www.w3.org/2000/svg" width="24" height="24" viewBox="0 0 24 24"><path d="M14.695 17.105c-.745.575-1.7.895-2.695.895s-1.95-.32-2.695-.895c-.215-.17-.53-.13-.7.09s-.13.53.09.7C9.61 18.605 10.785 19 12 19s2.39-.395 3.305-1.105c.22-.17.26-.485.09-.7-.17-.22-.485-.26-.7-.09zM9.5 12.5c0 .552-.448 1-1 1s-1-.448-1-1 .448-1 1-1 1 .448 1 1z"/><path d="M12 0C5.375 0 0 5.375 0 12s5.375 12 12 12 12-5.375 12-12S18.625 0 12 0zm7.96 14.82c-1.09 3.74-4.27 6.455-8.04 6.455-3.775 0-6.96-2.725-8.045-6.475-1.19-.1-2.125-1.18-2.125-2.51 0-1.27.855-2.315 1.965-2.495V9.79C5.805 8.325 7.52 6.3 7.81 4.74l.005.005V4.73c1.355 2.625 6.3 5.19 11.825 5.06.1-.015.195-.035.295-.035 1.275 0 2.31 1.135 2.31 2.535.005 1.39-1.02 2.52-2.285 2.53z"/><path d="M16.5 12.5c0 .552-.448 1-1 1s-1-.448-1-1 .448-1 1-1 1 .448 1 1z"/></svg>