<?xml version="1.0" encoding="utf-8"?>
<!-- Generated by IcoMoon.io -->
<!DOCTYPE svg PUBLIC "-//W3C//DTD SVG 1.1//EN" "http://www.w3.org/Graphics/SVG/1.1/DTD/svg11.dtd">
<svg version="1.1" xmlns="http://www.w3.org/2000/svg" xmlns:xlink="http://www.w3.org/1999/xlink" width="32" height="32" viewBox="0 0 32 32">
<path d="M16.125 24.75q3-2.688 4.438-4.063t3.125-3.25 2.344-3.313 0.656-2.813q0-2-1.344-3.313t-3.344-1.313q-1.563 0-2.906 0.875t-1.844 2.25h-2.5q-0.5-1.375-1.844-2.25t-2.906-0.875q-2 0-3.344 1.313t-1.344 3.313q0 1.375 0.656 2.813t2.344 3.313 3.125 3.25 4.438 4.063l0.125 0.125zM22 4q3.125 0 5.219 2.125t2.094 5.188q0 1.813-0.688 3.531t-2.531 3.844-3.344 3.563-4.813 4.438l-1.938 1.75-1.938-1.688q-4.313-3.875-6.219-5.813t-3.531-4.563-1.625-5.063q0-3.063 2.094-5.188t5.219-2.125q3.625 0 6 2.813 2.375-2.813 6-2.813z"></path>
</svg>
