<?xml version="1.0" encoding="utf-8"?>
<!-- Generated by IcoMoon.io -->
<!DOCTYPE svg PUBLIC "-//W3C//DTD SVG 1.1//EN" "http://www.w3.org/Graphics/SVG/1.1/DTD/svg11.dtd">
<svg version="1.1" xmlns="http://www.w3.org/2000/svg" xmlns:xlink="http://www.w3.org/1999/xlink" width="32" height="32" viewBox="0 0 32 32">
<path d="M4.253 23.467c-2.343 0.008-4.24 1.909-4.24 4.253 0 2.349 1.904 4.253 4.253 4.253s4.253-1.904 4.253-4.253c-0.008-2.351-1.915-4.253-4.267-4.253 0 0 0 0-0 0zM0 10.867v6.133c0.028-0 0.062-0 0.095-0 4.095 0 7.803 1.656 10.492 4.334 2.71 2.697 4.387 6.431 4.387 10.556 0 0.039-0 0.078-0 0.117l6.16-0.006c-0.008-11.669-9.465-21.126-21.133-21.133zM0 0v6.133c14.277 0.015 25.846 11.589 25.853 25.866l6.147 0.001c0-17.673-14.327-32-32-32z"></path>
</svg>
