<?xml version="1.0" encoding="utf-8"?>
<!-- Generated by IcoMoon.io -->
<!DOCTYPE svg PUBLIC "-//W3C//DTD SVG 1.1//EN" "http://www.w3.org/Graphics/SVG/1.1/DTD/svg11.dtd">
<svg version="1.1" xmlns="http://www.w3.org/2000/svg" xmlns:xlink="http://www.w3.org/1999/xlink" width="32" height="32" viewBox="0 0 32 32">
<path d="M28 15.313v-1.313q0-0.875-0.563-1.438t-1.438-0.563h-4.688v8h2v-2.688h1.563l1.125 2.688h2l-1.188-2.813q1.188-0.563 1.188-1.875zM16.813 20l2.375-8h-2l-1.375 4.563-1.313-4.563h-2l2.313 8h2zM10.688 18v-4q0-0.875-0.594-1.438t-1.406-0.563h-4.688v8h4.688q0.813 0 1.406-0.563t0.594-1.438zM28 4q1.125 0 1.906 0.781t0.781 1.906v18.625q0 1.063-0.781 1.875t-1.906 0.813h-24q-1.125 0-1.906-0.813t-0.781-1.875v-18.625q0-1.125 0.781-1.906t1.906-0.781h24zM6 14h2.688v4h-2.688v-4zM23.313 14h2.688v1.313h-2.688v-1.313z"></path>
</svg>
