<?xml version="1.0" encoding="utf-8"?>
<!-- Generated by IcoMoon.io -->
<!DOCTYPE svg PUBLIC "-//W3C//DTD SVG 1.1//EN" "http://www.w3.org/Graphics/SVG/1.1/DTD/svg11.dtd">
<svg version="1.1" xmlns="http://www.w3.org/2000/svg" xmlns:xlink="http://www.w3.org/1999/xlink" width="32" height="32" viewBox="0 0 32 32">
<path d="M26.688 20v-8h-1.688v4.688l-3.313-4.688h-1.688v8h1.688v-4.688l3.375 4.688h1.625zM16.688 20v-8h-2v8h2zM12 15.313v-1.313q0-0.875-0.563-1.438t-1.438-0.563h-4.688v8h2v-2.688h2.688q0.875 0 1.438-0.594t0.563-1.406zM26.688 5.313q1.125 0 1.875 0.781t0.75 1.906v16q0 1.125-0.75 1.906t-1.875 0.781h-21.375q-1.125 0-1.875-0.781t-0.75-1.906v-16q0-1.125 0.75-1.906t1.875-0.781h21.375zM7.313 14h2.688v1.313h-2.688v-1.313z"></path>
</svg>
