<?xml version="1.0" encoding="utf-8"?>
<!-- Generated by IcoMoon.io -->
<!DOCTYPE svg PUBLIC "-//W3C//DTD SVG 1.1//EN" "http://www.w3.org/Graphics/SVG/1.1/DTD/svg11.dtd">
<svg version="1.1" xmlns="http://www.w3.org/2000/svg" xmlns:xlink="http://www.w3.org/1999/xlink" width="32" height="32" viewBox="0 0 32 32">
<path d="M25.313 24q1.625 0 2.813-1.188t1.188-2.813-1.188-2.813-2.813-1.188h-2v-0.688q0-3.063-2.125-5.188t-5.188-2.125q-3.625 0-5.875 2.938 2.563 0.688 4.219 2.844t1.656 4.906h-2.688q0-2.188-1.563-3.781t-3.75-1.594-3.75 1.594-1.563 3.781 1.563 3.75 3.75 1.563h17.313zM25.813 13.375q2.563 0.188 4.375 2.094t1.813 4.531q0 2.75-1.969 4.719t-4.719 1.969h-17.313q-3.313 0-5.656-2.344t-2.344-5.656q0-3.063 2.063-5.344t5.063-2.594q1.313-2.438 3.688-3.938t5.188-1.5q3.625 0 6.375 2.281t3.438 5.781z"></path>
</svg>
