<?xml version="1.0" encoding="utf-8"?>
<!-- Generated by IcoMoon.io -->
<!DOCTYPE svg PUBLIC "-//W3C//DTD SVG 1.1//EN" "http://www.w3.org/Graphics/SVG/1.1/DTD/svg11.dtd">
<svg version="1.1" xmlns="http://www.w3.org/2000/svg" xmlns:xlink="http://www.w3.org/1999/xlink" width="32" height="32" viewBox="0 0 32 32">
<path d="M28 12v-8h-18.688v18.688h18.688v-8h-2.688v2.625h-2.625v-2.625h-2.688v-2.688h2.688v-2.688h2.625v2.688h2.688zM28 1.313q1.063 0 1.875 0.813t0.813 1.875v18.688q0 1.063-0.813 1.844t-1.875 0.781h-18.688q-1.063 0-1.844-0.781t-0.781-1.844v-18.688q0-1.063 0.781-1.875t1.844-0.813h18.688zM14.688 12h1.313v-1.313h-1.313v1.313zM18.688 16q0 1.125-0.813 1.906t-1.875 0.781h-4v-2.688h4v-1.313h-1.313q-1.063 0-1.875-0.781t-0.813-1.906v-1.313q0-1.125 0.813-1.906t1.875-0.781h1.313q1.063 0 1.875 0.781t0.813 1.906v5.313zM4 6.688v21.313h21.313v2.688h-21.313q-1.063 0-1.875-0.813t-0.813-1.875v-21.313h2.688z"></path>
</svg>
