<?xml version="1.0" encoding="utf-8"?>
<!-- Generated by IcoMoon.io -->
<!DOCTYPE svg PUBLIC "-//W3C//DTD SVG 1.1//EN" "http://www.w3.org/Graphics/SVG/1.1/DTD/svg11.dtd">
<svg version="1.1" xmlns="http://www.w3.org/2000/svg" xmlns:xlink="http://www.w3.org/1999/xlink" width="32" height="32" viewBox="0 0 32 32">
<path d="M16 21.313q2.188 0 3.75-1.563t1.563-3.75-1.563-3.75-3.75-1.563-3.75 1.563-1.563 3.75 1.563 3.75 3.75 1.563zM3.063 23.438q0-2.375 1.406-4.531t3.719-2.906l-1.125-0.563q-1.875-1.125-2.938-2.969t-1.063-3.906q4-2.313 8 0 0.563 0.25 1.063 0.688-0.125-0.875-0.125-1.25 0-2.188 1.094-4.031t2.906-2.906q1.813 1.063 2.906 2.906t1.094 4.031q0 0.375-0.125 1.25 0.5-0.438 1.063-0.688 4-2.313 8 0 0 2.063-1.063 3.906t-2.938 2.969q-0.125 0.063-0.344 0.188t-0.406 0.219-0.375 0.156q0.188 0.063 0.375 0.156t0.406 0.219 0.344 0.188q1.875 1.125 2.938 2.969t1.063 3.906q-4 2.313-8 0-0.563-0.25-1.063-0.688 0.125 0.875 0.125 1.25 0 2.188-1.094 4.031t-2.906 2.906q-1.813-1.063-2.906-2.906t-1.094-4.031q0-0.375 0.125-1.25-0.5 0.438-1.063 0.688-4 2.313-8 0z"></path>
</svg>
