<?xml version="1.0" encoding="utf-8"?>
<!-- Generated by IcoMoon.io -->
<!DOCTYPE svg PUBLIC "-//W3C//DTD SVG 1.1//EN" "http://www.w3.org/Graphics/SVG/1.1/DTD/svg11.dtd">
<svg version="1.1" xmlns="http://www.w3.org/2000/svg" xmlns:xlink="http://www.w3.org/1999/xlink" width="32" height="32" viewBox="0 0 32 32">
<path d="M7.563 26.313l1.875-1.875q2.313 1.75 5.25 2.125v2.688q-3.938-0.375-7.125-2.938zM17.313 26.563q2.938-0.375 5.188-2.125l1.938 1.875q-3.188 2.563-7.125 2.938v-2.688zM24.438 22.563q1.75-2.375 2.125-5.188h2.688q-0.375 3.875-2.938 7.063zM20 16q0 1.625-1.188 2.813t-2.813 1.188-2.813-1.188-1.188-2.813 1.188-2.813 2.813-1.188 2.813 1.188 1.188 2.813zM5.438 17.313q0.375 2.938 2.125 5.188l-1.875 1.938q-2.563-3.188-2.938-7.125h2.688zM7.563 9.438q-1.75 2.313-2.125 5.25h-2.688q0.375-3.938 2.938-7.125zM26.563 14.688q-0.375-2.938-2.125-5.25l1.875-1.875q2.563 3.188 2.938 7.125h-2.688zM24.438 5.688l-1.875 1.875q-2.313-1.75-5.25-2.125v-2.688q3.938 0.375 7.125 2.938zM14.688 5.438q-2.938 0.375-5.25 2.125l-1.875-1.875q3.188-2.563 7.125-2.938v2.688z"></path>
</svg>
