<?xml version="1.0" encoding="utf-8"?>
<!-- Generated by IcoMoon.io -->
<!DOCTYPE svg PUBLIC "-//W3C//DTD SVG 1.1//EN" "http://www.w3.org/Graphics/SVG/1.1/DTD/svg11.dtd">
<svg version="1.1" xmlns="http://www.w3.org/2000/svg" xmlns:xlink="http://www.w3.org/1999/xlink" width="32" height="32" viewBox="0 0 32 32">
<path d="M12 17.313q0-1.625 1.188-2.813t2.813-1.188 2.813 1.188 1.188 2.813-1.188 2.813-2.813 1.188-2.813-1.188-1.188-2.813zM26.688 26.125l-5.125-5.125q1.125-1.75 1.125-3.688 0-2.75-1.969-4.688t-4.719-1.938-4.719 1.938-1.969 4.688 1.969 4.719 4.719 1.969q1.938 0 3.688-1.125l5.875 5.938q-0.688 0.5-1.563 0.5h-16q-1.063 0-1.875-0.781t-0.813-1.844l0.063-21.375q0-1.063 0.781-1.844t1.844-0.781h10.688l8 8v15.438z"></path>
</svg>
