<?xml version="1.0" encoding="utf-8"?>
<!-- Generated by IcoMoon.io -->
<!DOCTYPE svg PUBLIC "-//W3C//DTD SVG 1.1//EN" "http://www.w3.org/Graphics/SVG/1.1/DTD/svg11.dtd">
<svg version="1.1" xmlns="http://www.w3.org/2000/svg" xmlns:xlink="http://www.w3.org/1999/xlink" width="32" height="32" viewBox="0 0 32 32">
<path d="M22.188 20.188l6.438 6.5-1.938 1.938-6.5-6.438q-2.5 1.813-5.5 1.813-3.875 0-6.625-2.75l-2.75 2.75v-8h8l-3.375 3.375q1.938 1.938 4.75 1.938 2.438 0 4.219-1.5t2.281-3.813h2.688q-0.25 2.25-1.688 4.188zM14.688 8q-2.438 0-4.25 1.5t-2.313 3.813h-2.688q0.5-3.375 3.125-5.688t6.125-2.313q3.813 0 6.563 2.75l2.75-2.75v8h-8l3.375-3.375q-1.938-1.938-4.688-1.938z"></path>
</svg>
