<?xml version="1.0" encoding="utf-8"?>
<!-- Generated by IcoMoon.io -->
<!DOCTYPE svg PUBLIC "-//W3C//DTD SVG 1.1//EN" "http://www.w3.org/Graphics/SVG/1.1/DTD/svg11.dtd">
<svg version="1.1" xmlns="http://www.w3.org/2000/svg" xmlns:xlink="http://www.w3.org/1999/xlink" width="32" height="32" viewBox="0 0 32 32">
<path d="M19.875 29.313h-0.188q-2.875-0.75-4.938-2.813-2.875-2.875-2.875-6.938 0-1.625 1.188-2.781t2.875-1.156 2.906 1.156 1.219 2.781q0 1.063 0.781 1.813t1.969 0.75 2-0.75 0.813-1.813q0-3.75-2.844-6.438t-6.844-2.688q-2.875 0-5.25 1.469t-3.563 3.906q-0.75 1.563-0.75 3.75 0 2.5 0.875 4.813 0.188 0.625-0.438 0.813t-0.813-0.375q-1-2.813-1-5.25t0.938-4.313q1.313-2.813 4.031-4.5t5.969-1.688q4.563 0 7.781 3.094t3.219 7.406q0 1.625-1.219 2.75t-2.906 1.125-2.875-1.125-1.188-2.75q0-1.063-0.813-1.844t-2-0.781-1.969 0.781-0.781 1.844q0 3.5 2.5 6 1.75 1.75 4.375 2.438 0.563 0.063 0.438 0.813-0.125 0.5-0.625 0.5zM16.563 19.563q0 2.313 1.719 4t4.281 1.688q0.125 0 0.563-0.063t0.719-0.063 0.563 0.094 0.344 0.406q0.125 0.688-0.563 0.813-0.75 0.125-1.625 0.125-2.5 0-4.125-1.188-3.188-2.188-3.188-5.813 0-0.688 0.688-0.688 0.625 0 0.625 0.688zM13 29.063q-0.25 0-0.438-0.188-1.688-1.688-2.688-3.563-1.438-2.5-1.438-5.75 0-2.938 2.219-5.063t5.344-2.125 5.344 2.125 2.219 5.063q0 0.625-0.688 0.625t-0.688-0.625q0-2.438-1.813-4.156t-4.375-1.719-4.375 1.719-1.813 4.156q0 3 1.188 5.125 0.813 1.438 2.5 3.25 0.5 0.438 0 0.938-0.188 0.188-0.5 0.188zM4.688 12.938q-0.438 0-0.625-0.313t0.063-0.688q2-2.875 5-4.375 3.125-1.625 6.875-1.625t6.875 1.625q3.063 1.5 5 4.313 0.375 0.625-0.188 0.938-0.625 0.375-0.938-0.188-1.688-2.438-4.5-3.875-2.875-1.438-6.25-1.469t-6.25 1.469q-2.813 1.438-4.563 3.938-0.188 0.25-0.5 0.25zM23.75 5.938q-0.25 0-0.313-0.063-3.688-1.875-7.438-1.875-4.063 0-7.438 1.875-0.375 0.188-0.656-0.031t-0.281-0.563 0.313-0.594q3.625-2 8.063-2 4.063 0 8.063 2 0.438 0.25 0.313 0.75t-0.625 0.5z"></path>
</svg>
