<?xml version="1.0" encoding="utf-8"?>
<!-- Generated by IcoMoon.io -->
<!DOCTYPE svg PUBLIC "-//W3C//DTD SVG 1.1//EN" "http://www.w3.org/Graphics/SVG/1.1/DTD/svg11.dtd">
<svg version="1.1" xmlns="http://www.w3.org/2000/svg" xmlns:xlink="http://www.w3.org/1999/xlink" width="32" height="32" viewBox="0 0 32 32">
<path d="M20 22.688v-2.688h2.688v2.688h-2.688zM20 6.688v-2.688h2.688v2.688h-2.688zM6.688 9.313v16h16v2.688h-16q-1.125 0-1.906-0.813t-0.781-1.875v-16h2.688zM25.313 22.688v-2.688h2.688q0 1.063-0.813 1.875t-1.875 0.813zM25.313 12v-2.688h2.688v2.688h-2.688zM25.313 17.313v-2.625h2.688v2.625h-2.688zM12 22.688q-1.125 0-1.906-0.813t-0.781-1.875h2.688v2.688zM17.313 4v2.688h-2.625v-2.688h2.625zM25.313 4q1.063 0 1.875 0.813t0.813 1.875h-2.688v-2.688zM17.313 20v2.688h-2.625v-2.688h2.625zM12 4v2.688h-2.688q0-1.063 0.781-1.875t1.906-0.813zM12 14.688v2.625h-2.688v-2.625h2.688zM12 9.313v2.688h-2.688v-2.688h2.688z"></path>
</svg>
