<?xml version="1.0" encoding="utf-8"?>
<!-- Generated by IcoMoon.io -->
<!DOCTYPE svg PUBLIC "-//W3C//DTD SVG 1.1//EN" "http://www.w3.org/Graphics/SVG/1.1/DTD/svg11.dtd">
<svg version="1.1" xmlns="http://www.w3.org/2000/svg" xmlns:xlink="http://www.w3.org/1999/xlink" width="32" height="32" viewBox="0 0 32 32">
<path d="M25.313 22.688v-1.375q0-1.188-1.844-1.906t-3.469-0.719-3.469 0.719-1.844 1.906v1.375h10.625zM20 12q-1.063 0-1.875 0.813t-0.813 1.875 0.813 1.844 1.875 0.781 1.875-0.781 0.813-1.844-0.813-1.875-1.875-0.813zM26.688 8q1.063 0 1.844 0.813t0.781 1.875v13.313q0 1.063-0.781 1.875t-1.844 0.813h-21.375q-1.063 0-1.844-0.813t-0.781-1.875v-16q0-1.063 0.781-1.875t1.844-0.813h8l2.688 2.688h10.688z"></path>
</svg>
