<?xml version="1.0" encoding="utf-8"?>
<!-- Generated by IcoMoon.io -->
<!DOCTYPE svg PUBLIC "-//W3C//DTD SVG 1.1//EN" "http://www.w3.org/Graphics/SVG/1.1/DTD/svg11.dtd">
<svg version="1.1" xmlns="http://www.w3.org/2000/svg" xmlns:xlink="http://www.w3.org/1999/xlink" width="32" height="32" viewBox="0 0 32 32">
<path d="M9.313 6.688h18.688v2.625h-18.688v-2.625zM9.313 17.313v-2.625h18.688v2.625h-18.688zM9.313 25.313v-2.625h18.688v2.625h-18.688zM5.313 22.25q0.75 0 1.281 0.5t0.531 1.25-0.531 1.25-1.281 0.5-1.25-0.5-0.5-1.25 0.5-1.25 1.25-0.5zM5.313 6q0.813 0 1.406 0.563t0.594 1.438-0.594 1.438-1.406 0.563-1.406-0.563-0.594-1.438 0.594-1.438 1.406-0.563zM5.313 14q0.813 0 1.406 0.563t0.594 1.438-0.594 1.438-1.406 0.563-1.406-0.563-0.594-1.438 0.594-1.438 1.406-0.563z"></path>
</svg>
