<?xml version="1.0" encoding="utf-8"?>
<!-- Generated by IcoMoon.io -->
<!DOCTYPE svg PUBLIC "-//W3C//DTD SVG 1.1//EN" "http://www.w3.org/Graphics/SVG/1.1/DTD/svg11.dtd">
<svg version="1.1" xmlns="http://www.w3.org/2000/svg" xmlns:xlink="http://www.w3.org/1999/xlink" width="32" height="32" viewBox="0 0 32 32">
<path d="M0 26.688h32v5.313h-32v-5.313zM25.313 15.313q2.688 2.938 2.688 4.688 0 1.063-0.813 1.875t-1.875 0.813-1.844-0.813-0.781-1.875q0-0.75 0.656-1.938t1.281-1.938zM6.938 13.313h12.813l-6.438-6.375zM22.063 11.938q0.625 0.625 0.625 1.438t-0.625 1.375l-7.313 7.313q-0.625 0.625-1.438 0.625-0.75 0-1.375-0.625l-7.375-7.313q-0.625-0.563-0.625-1.375t0.625-1.438l6.875-6.875-3.188-3.188 1.938-1.875z"></path>
</svg>
