<?xml version="1.0" encoding="utf-8"?>
<!-- Generated by IcoMoon.io -->
<!DOCTYPE svg PUBLIC "-//W3C//DTD SVG 1.1//EN" "http://www.w3.org/Graphics/SVG/1.1/DTD/svg11.dtd">
<svg version="1.1" xmlns="http://www.w3.org/2000/svg" xmlns:xlink="http://www.w3.org/1999/xlink" width="32" height="32" viewBox="0 0 32 32">
<path d="M15.625 18.125q-0.438 0.188-0.438 0.25l-0.125 0.188h-0.813l0.313-2.938h3.188v0.938h-2.313l-0.125 1.188q0.125 0 0.125-0.125 0-0.063 0.094-0.094t0.094-0.094h0.5q0.5 0 0.688 0.188 0.063 0.063 0.25 0.188t0.25 0.188q0.563 0.563 0.563 1.438 0 0.563-0.125 0.688-0.063 0.063-0.188 0.313t-0.25 0.375q-0.5 0.5-1.438 0.5-0.563 0-0.688-0.125-0.063-0.063-0.281-0.125t-0.344-0.125q-0.563-0.313-0.563-1.188h1.063q0 0.625 0.813 0.625 0.25 0 0.375-0.125l0.313-0.25q0.125-0.25 0.125-0.375v-0.813l-0.125-0.25-0.313-0.313q-0.25-0.125-0.375-0.125h-0.25zM5.313 17.313q0-4.375 3.125-7.5t7.563-3.125v-5.375l6.688 6.688-6.688 6.688v-5.375q-3.25 0-5.625 2.344t-2.375 5.656 2.375 5.656 5.625 2.344 5.625-2.344 2.375-5.656h2.688q0 4.438-3.156 7.563t-7.531 3.125-7.531-3.125-3.156-7.563z"></path>
</svg>
