<?xml version="1.0" encoding="utf-8"?>
<!-- Generated by IcoMoon.io -->
<!DOCTYPE svg PUBLIC "-//W3C//DTD SVG 1.1//EN" "http://www.w3.org/Graphics/SVG/1.1/DTD/svg11.dtd">
<svg version="1.1" xmlns="http://www.w3.org/2000/svg" xmlns:xlink="http://www.w3.org/1999/xlink" width="32" height="32" viewBox="0 0 32 32">
<path d="M5.313 17.313q0-4.375 3.125-7.5t7.563-3.125v-5.375l6.688 6.688-6.688 6.688v-5.375q-3.25 0-5.625 2.344t-2.375 5.656 2.375 5.656 5.625 2.344 5.625-2.344 2.375-5.656h2.688q0 4.438-3.156 7.563t-7.531 3.125-7.531-3.125-3.156-7.563zM17.75 20.25q0 0.438 0.625 0.438 0.313 0 0.438-0.125l0.25-0.313q0.125-0.25 0.125-0.375v-2.688q-0.125-0.25-0.125-0.375t-0.281-0.281-0.406-0.156q-0.188 0-0.375 0.188l-0.25 0.25q-0.125 0.25-0.125 0.375v2.688q0.125 0.25 0.125 0.375zM20.375 18.938q0 0.813-0.125 1.063l-0.375 0.813q-0.438 0.375-0.688 0.375-0.125 0-0.406 0.063t-0.406 0.063q-0.438 0-1.438-0.5-0.125-0.063-0.375-0.813-0.188-0.563-0.188-1.063v-0.938q0-0.688 0.188-1.063l0.375-0.813q0.438-0.375 0.688-0.375 0.125 0 0.375-0.063t0.375-0.063q0.563 0 0.813 0.125 0.125 0.063 0.344 0.188t0.344 0.188 0.375 0.813q0.125 0.375 0.125 1.063v0.938zM13.313 18q0.938 0 0.938-0.813v-0.25q-0.125-0.125-0.125-0.25t-0.25-0.125h-0.688q-0.125 0.125-0.25 0.125t-0.125 0.25v0.25h-1.375q0-0.5 0.344-0.969t0.781-0.469q0.063 0 0.313-0.063t0.313-0.063q0.75 0 1.5 0.375 0.5 0.25 0.5 1.188v0.438q-0.125 0.25-0.125 0.375 0 0.25-0.25 0.25-0.125 0-0.438 0.313 0.563 0.313 0.688 0.5 0.25 0.5 0.25 0.813 0 0.563-0.125 0.688-0.063 0.063-0.188 0.25t-0.188 0.25q-0.25 0.25-0.688 0.25-0.125 0-0.406 0.063t-0.406 0.063q-0.5 0-0.625-0.125-0.063-0.063-0.313-0.125t-0.375-0.125q-0.563-0.313-0.563-1.313h1.125v0.25q0.125 0.125 0.125 0.25t0.25 0.125h0.688q0.125-0.125 0.25-0.125t0.125-0.25v-0.688q-0.125-0.125-0.125-0.25t-0.25-0.125h-0.813v-0.938h0.5z"></path>
</svg>
