<?xml version="1.0" encoding="utf-8"?>
<!-- Generated by IcoMoon.io -->
<!DOCTYPE svg PUBLIC "-//W3C//DTD SVG 1.1//EN" "http://www.w3.org/Graphics/SVG/1.1/DTD/svg11.dtd">
<svg version="1.1" xmlns="http://www.w3.org/2000/svg" xmlns:xlink="http://www.w3.org/1999/xlink" width="32" height="32" viewBox="0 0 32 32">
<path d="M18.5 24.75q0.875 0 1.75-1.156t1.125-3.531q-1.875 0.5-2.875 1.688t-1 2q0 0.438 0.313 0.719t0.688 0.281zM6.125 9.188l-2.313-2.25q0.625-0.75 1.125-1.25 1.688-1.688 3.625-1.688 1.188 0 2.281 0.938t1.094 2.875q0 1.875-1.75 4.375-1.75 2.438-2.438 4.688-0.375 1.063-0.219 1.813t0.656 0.75q0.563 0 1.5-1.125 1.375-1.375 3.063-3.625 3-3.75 6.563-3.75 2.625 0 3.906 1.719t1.469 3.844h3.313v3.313h-3.25q-0.375 4.313-2.313 6.25t-4 1.938q-1.75 0-3-1.219t-1.25-2.906q0-2.063 1.875-4.313t5.313-2.875q-0.063-0.5-0.094-0.688t-0.188-0.594-0.375-0.594-0.656-0.344-1.063-0.156q-1.75 0-5.438 4.563-1.063 1.313-1.469 1.781t-1.156 1.094-1.438 0.813q-2.188 0.688-3.75-0.813t-1.563-3.75q0-0.938 0.344-2.063t0.906-2.188 1.063-1.906 0.969-1.531 0.531-0.75q1.063-1.75 0.375-2-0.438-0.188-2.25 1.625z"></path>
</svg>
