<?xml version="1.0" encoding="utf-8"?>
<!-- Generated by IcoMoon.io -->
<!DOCTYPE svg PUBLIC "-//W3C//DTD SVG 1.1//EN" "http://www.w3.org/Graphics/SVG/1.1/DTD/svg11.dtd">
<svg version="1.1" xmlns="http://www.w3.org/2000/svg" xmlns:xlink="http://www.w3.org/1999/xlink" width="32" height="32" viewBox="0 0 32 32">
<path d="M31.938 12.125q0.063 0.063 0.063 0.156t-0.063 0.156l-1.563 2q-0.125 0.125-0.25 0.125l-0.938-0.188-0.438 1.375q-0.125 0.25-0.406 0.25t-0.406-0.25l-0.875-1.875-1.438-0.313-2.938 7 1.063 8.5q0 0.25-0.25 0.25h-1.25q-0.125 0-0.25-0.188l-1.25-5.063-0.625-1.063-1.563 6.125q0 0.188-0.25 0.188h-1.313q-0.25 0-0.25-0.25l1.438-8.438h-8.438l-2.188 4.125 0.5 4.25q0.125 0.313-0.25 0.313h-1.25q-0.188 0-0.25-0.125l-1.75-6.375-2.125 2.438 0.375 3.75q0.125 0.313-0.25 0.313h-1.375q-0.25 0-0.25-0.125l-0.813-3.5 1.313-5.125v-9q-1.438-0.563-1.438-1.875h17.125q3 0.063 5.938-2.063-0.5-1.375 0.375-2.25 1.75 1.25 2.25 1.563 0.438 0.25 0.719-0.094t0.156-0.781q-0.563-1.75-2.813-2.625-0.063 0-0.188-0.063-0.75-0.188-0.625-0.5 0-0.188 0.25-0.188 1.813 0.25 3.094 1.406t1.719 2.219l0.25 0.188q0.188 0.25 0.406 0.5t0.375 0.719 0.094 0.969q0 0.313 0.125 0.438z"></path>
</svg>
