<?xml version="1.0" encoding="utf-8"?>
<!-- Generated by IcoMoon.io -->
<!DOCTYPE svg PUBLIC "-//W3C//DTD SVG 1.1//EN" "http://www.w3.org/Graphics/SVG/1.1/DTD/svg11.dtd">
<svg version="1.1" xmlns="http://www.w3.org/2000/svg" xmlns:xlink="http://www.w3.org/1999/xlink" width="32" height="32" viewBox="0 0 32 32">
<path d="M10.16 13.987v4h5.493c-0.867 2.667-2.2 4-5.493 4-3.279-0.008-5.933-2.667-5.933-5.947 0-0.014 0-0.028 0-0.042-0-0.026-0.001-0.058-0.001-0.091 0-3.28 2.655-5.939 5.933-5.947 0.043-0.001 0.094-0.002 0.144-0.002 1.486 0 2.84 0.563 3.862 1.486 0.835-0.844 0.755-0.964 2.888-2.964-1.797-1.637-4.197-2.64-6.832-2.64-5.611 0-10.16 4.549-10.16 10.16 0 5.59 4.514 10.125 10.095 10.16 8.39 0 10.443-7.307 9.763-12.173h-9.76zM28.48 14.187v-3.52h-2.52v3.52h-3.627v2.52h3.627v3.627h2.52v-3.627h3.52v-2.52h-3.52z"></path>
</svg>
