<?xml version="1.0" encoding="utf-8"?>
<!-- Generated by IcoMoon.io -->
<!DOCTYPE svg PUBLIC "-//W3C//DTD SVG 1.1//EN" "http://www.w3.org/Graphics/SVG/1.1/DTD/svg11.dtd">
<svg version="1.1" xmlns="http://www.w3.org/2000/svg" xmlns:xlink="http://www.w3.org/1999/xlink" width="32" height="32" viewBox="0 0 32 32">
<path d="M25.313 14.688v-8h-18.625v8h2.625v2.625h2.688v2.688h2.688v-2.688h2.625v2.688h2.688v-2.688h2.688v-2.625h2.625zM22.688 24v-2.688h-2.688v2.688h2.688zM17.313 24v-2.688h-2.625v2.688h2.625zM12 24v-2.688h-2.688v2.688h2.688zM25.313 4q1.063 0 1.875 0.813t0.813 1.875v18.625q0 1.063-0.813 1.875t-1.875 0.813h-18.625q-1.063 0-1.875-0.813t-0.813-1.875v-18.625q0-1.063 0.813-1.875t1.875-0.813h18.625zM9.313 12h2.688v2.688h-2.688v-2.688zM20 12h2.688v2.688h-2.688v-2.688zM14.688 12h2.625v2.688h2.688v2.625h-2.688v-2.625h-2.625v2.625h-2.688v-2.625h2.688v-2.688zM22.688 17.313v2.688h2.625v-2.688h-2.625zM9.313 17.313h-2.625v2.688h2.625v-2.688z"></path>
</svg>
