<?xml version="1.0" encoding="utf-8"?>
<!-- Generated by IcoMoon.io -->
<!DOCTYPE svg PUBLIC "-//W3C//DTD SVG 1.1//EN" "http://www.w3.org/Graphics/SVG/1.1/DTD/svg11.dtd">
<svg version="1.1" xmlns="http://www.w3.org/2000/svg" xmlns:xlink="http://www.w3.org/1999/xlink" width="32" height="32" viewBox="0 0 32 32">
<path d="M13.313 5.313q1.063 0 1.875 0.813t0.813 1.875-0.813 1.875-1.875 0.813-1.844-0.813-0.781-1.875 0.781-1.875 1.844-0.813zM18.688 10.688q1.063 0 1.844 0.781t0.781 1.844-0.781 1.875-1.844 0.813-1.875-0.813-0.813-1.875 0.813-1.844 1.875-0.781zM24 16q1.063 0 1.875 0.813t0.813 1.875-0.813 1.844-1.875 0.781-1.875-0.781-0.813-1.844 0.813-1.875 1.875-0.813zM18.688 21.313q1.063 0 1.844 0.813t0.781 1.875-0.781 1.875-1.844 0.813-1.875-0.813-0.813-1.875 0.813-1.875 1.875-0.813zM24 10.688q-1.063 0-1.875-0.813t-0.813-1.875 0.813-1.875 1.875-0.813 1.875 0.813 0.813 1.875-0.813 1.875-1.875 0.813zM8 21.313q1.063 0 1.875 0.813t0.813 1.875-0.813 1.875-1.875 0.813-1.875-0.813-0.813-1.875 0.813-1.875 1.875-0.813zM8 10.688q1.063 0 1.875 0.781t0.813 1.844-0.813 1.875-1.875 0.813-1.875-0.813-0.813-1.875 0.813-1.844 1.875-0.781zM13.313 16q1.063 0 1.875 0.813t0.813 1.875-0.813 1.844-1.875 0.781-1.844-0.781-0.781-1.844 0.781-1.875 1.844-0.813z"></path>
</svg>
