<?xml version="1.0" encoding="utf-8"?>
<!-- Generated by IcoMoon.io -->
<!DOCTYPE svg PUBLIC "-//W3C//DTD SVG 1.1//EN" "http://www.w3.org/Graphics/SVG/1.1/DTD/svg11.dtd">
<svg version="1.1" xmlns="http://www.w3.org/2000/svg" xmlns:xlink="http://www.w3.org/1999/xlink" width="32" height="32" viewBox="0 0 32 32">
<path d="M17.313 17.313q2.5 0 5.25 1.094t2.75 2.906v2.688h-16v-2.688q0-1.813 2.75-2.906t5.25-1.094zM26.188 17.563q2.313 0.375 4.063 1.344t1.75 2.406v2.688h-4v-2.688q0-2.125-1.813-3.75zM17.313 14.688q-1.625 0-2.813-1.188t-1.188-2.813 1.188-2.813 2.813-1.188 2.813 1.188 1.188 2.813-1.188 2.813-2.813 1.188zM24 14.688q-0.625 0-1.188-0.188 1.188-1.688 1.188-3.813t-1.188-3.813q0.563-0.188 1.188-0.188 1.625 0 2.813 1.188t1.188 2.813-1.188 2.813-2.813 1.188zM10.688 13.313v2.688h-4v4h-2.688v-4h-4v-2.688h4v-4h2.688v4h4z"></path>
</svg>
