<?xml version="1.0" encoding="utf-8"?>
<!-- Generated by IcoMoon.io -->
<!DOCTYPE svg PUBLIC "-//W3C//DTD SVG 1.1//EN" "http://www.w3.org/Graphics/SVG/1.1/DTD/svg11.dtd">
<svg version="1.1" xmlns="http://www.w3.org/2000/svg" xmlns:xlink="http://www.w3.org/1999/xlink" width="32" height="32" viewBox="0 0 32 32">
<path d="M21.313 23.313q1.375 0 2.375-0.969t1-2.344-1-2.344-2.375-0.969-2.344 0.969-0.969 2.344 0.969 2.344 2.344 0.969zM12.688 10.688q0 1.375 0.969 2.344t2.344 0.969 2.344-0.969 0.969-2.344-0.969-2.375-2.344-1-2.344 1-0.969 2.375zM10.688 23.313q1.375 0 2.344-0.969t0.969-2.344-0.969-2.344-2.344-0.969-2.375 0.969-1 2.344 1 2.344 2.375 0.969zM16 2.688q5.5 0 9.406 3.906t3.906 9.406-3.906 9.406-9.406 3.906-9.406-3.906-3.906-9.406 3.906-9.406 9.406-3.906z"></path>
</svg>
