<?xml version="1.0" encoding="utf-8"?>
<!-- Generated by IcoMoon.io -->
<!DOCTYPE svg PUBLIC "-//W3C//DTD SVG 1.1//EN" "http://www.w3.org/Graphics/SVG/1.1/DTD/svg11.dtd">
<svg version="1.1" xmlns="http://www.w3.org/2000/svg" xmlns:xlink="http://www.w3.org/1999/xlink" width="32" height="32" viewBox="0 0 32 32">
<path d="M19.313 18v-4h2.688v4h-2.688zM17.313 12v8h5.375q0.563 0 0.938-0.375t0.375-0.938v-5.375q0-0.563-0.375-0.938t-0.938-0.375h-5.375zM14.688 20v-8h-2v3.313h-2.688v-3.313h-2v8h2v-2.688h2.688v2.688h2zM25.313 4q1.063 0 1.875 0.813t0.813 1.875v18.625q0 1.063-0.813 1.875t-1.875 0.813h-18.625q-1.125 0-1.906-0.813t-0.781-1.875v-18.625q0-1.063 0.781-1.875t1.906-0.813h18.625z"></path>
</svg>
