<?xml version="1.0" encoding="utf-8"?>
<!-- Generated by IcoMoon.io -->
<!DOCTYPE svg PUBLIC "-//W3C//DTD SVG 1.1//EN" "http://www.w3.org/Graphics/SVG/1.1/DTD/svg11.dtd">
<svg version="1.1" xmlns="http://www.w3.org/2000/svg" xmlns:xlink="http://www.w3.org/1999/xlink" width="32" height="32" viewBox="0 0 32 32">
<path d="M22.688 21.313q2.188 0 3.75-1.563t1.563-3.75-1.563-3.75-3.75-1.563-3.781 1.563-1.594 3.75 1.594 3.75 3.781 1.563zM22.688 8q3.313 0 5.656 2.344t2.344 5.656-2.344 5.656-5.656 2.344-5.656-2.344-2.344-5.656 2.344-5.656 5.656-2.344zM6.688 10.688q2.188 0 3.75 1.563t1.563 3.75-1.563 3.75-3.75 1.563-3.781-1.563-1.594-3.75 1.594-3.75 3.781-1.563z"></path>
</svg>
