<?xml version="1.0" encoding="utf-8"?>
<!-- Generated by IcoMoon.io -->
<!DOCTYPE svg PUBLIC "-//W3C//DTD SVG 1.1//EN" "http://www.w3.org/Graphics/SVG/1.1/DTD/svg11.dtd">
<svg version="1.1" xmlns="http://www.w3.org/2000/svg" xmlns:xlink="http://www.w3.org/1999/xlink" width="32" height="32" viewBox="0 0 32 32">
<path d="M17.313 18v-4h-2.625v4h2.625zM17.313 12q0.813 0 1.406 0.594t0.594 1.406v4q0 0.813-0.594 1.406t-1.406 0.594h-4.625v-8h4.625zM8.688 14.688v-2.688h2v8h-2v-3.313h-2.688v3.313h-2v-8h2v2.688h2.688zM26 15.313v-1.313h-2.688v1.313h2.688zM28 15.313q0 1.25-1.188 1.875l1.188 2.813h-2l-1.188-2.688h-1.5v2.688h-2v-8h4.688q0.813 0 1.406 0.594t0.594 1.406v1.313z"></path>
</svg>
