<?xml version="1.0" encoding="utf-8"?>
<!-- Generated by IcoMoon.io -->
<!DOCTYPE svg PUBLIC "-//W3C//DTD SVG 1.1//EN" "http://www.w3.org/Graphics/SVG/1.1/DTD/svg11.dtd">
<svg version="1.1" xmlns="http://www.w3.org/2000/svg" xmlns:xlink="http://www.w3.org/1999/xlink" width="32" height="32" viewBox="0 0 32 32">
<path d="M22.188 27.125l4.875-4.875-4.875-4.813-4.813 4.875zM18.688 14.688q-0.563 0-0.969 0.375t-0.406 0.938 0.406 0.938 0.969 0.375 0.938-0.375 0.375-0.938-0.375-0.938-0.938-0.375zM16 20q0.563 0 0.938-0.375t0.375-0.938-0.375-0.969-0.938-0.406-0.938 0.406-0.375 0.969 0.375 0.938 0.938 0.375zM13.313 17.313q0.563 0 0.969-0.375t0.406-0.938-0.406-0.938-0.969-0.375-0.938 0.375-0.375 0.938 0.375 0.938 0.938 0.375zM9.75 14.625l4.813-4.875-4.813-4.813-4.875 4.875zM16 12q-0.563 0-0.938 0.375t-0.375 0.938 0.375 0.969 0.938 0.406 0.938-0.406 0.375-0.969-0.375-0.938-0.938-0.375zM23.625 16l5.313 5.313q0.375 0.375 0.375 0.938t-0.375 0.938l-5.75 5.813q-0.375 0.375-0.938 0.375-0.625 0-1-0.375l-5.25-5.313-5.313 5.313q-0.375 0.375-0.938 0.375t-0.938-0.375l-5.813-5.813q-0.375-0.375-0.375-0.938t0.375-0.938l5.313-5.313-5.313-5.25q-0.375-0.375-0.375-0.969t0.375-0.969l5.813-5.75q0.375-0.375 0.938-0.375t0.938 0.375l5.313 5.313 5.25-5.313q0.375-0.375 0.969-0.375t0.969 0.375l5.75 5.75q0.375 0.375 0.375 0.969t-0.375 0.969z"></path>
</svg>
