<?xml version="1.0" encoding="utf-8"?>
<!-- Generated by IcoMoon.io -->
<!DOCTYPE svg PUBLIC "-//W3C//DTD SVG 1.1//EN" "http://www.w3.org/Graphics/SVG/1.1/DTD/svg11.dtd">
<svg version="1.1" xmlns="http://www.w3.org/2000/svg" xmlns:xlink="http://www.w3.org/1999/xlink" width="32" height="32" viewBox="0 0 32 32">
<path d="M16 8q2.188 0 3.75 1.563t1.563 3.75q0 1.688-2 3.469t-2 3.219h-2.625q0-1.438 0.625-2.469t1.375-1.5 1.375-1.156 0.625-1.563q0-1.063-0.813-1.844t-1.875-0.781-1.875 0.781-0.813 1.844h-2.625q0-2.188 1.563-3.75t3.75-1.563zM16 26.688q4.375 0 7.531-3.156t3.156-7.531-3.156-7.531-7.531-3.156-7.531 3.156-3.156 7.531 3.156 7.531 7.531 3.156zM16 2.688q5.5 0 9.406 3.906t3.906 9.406-3.906 9.406-9.406 3.906-9.406-3.906-3.906-9.406 3.906-9.406 9.406-3.906zM14.688 24v-2.688h2.625v2.688h-2.625z"></path>
</svg>
