<?xml version="1.0" encoding="utf-8"?>
<!-- Generated by IcoMoon.io -->
<!DOCTYPE svg PUBLIC "-//W3C//DTD SVG 1.1//EN" "http://www.w3.org/Graphics/SVG/1.1/DTD/svg11.dtd">
<svg version="1.1" xmlns="http://www.w3.org/2000/svg" xmlns:xlink="http://www.w3.org/1999/xlink" width="32" height="32" viewBox="0 0 32 32">
<path d="M20.063 15q1.25-1.25 1.25-3 0-2.188-1.563-3.75t-3.75-1.563-3.75 1.563-1.563 3.75h2.625q0-1.063 0.813-1.875t1.875-0.813 1.875 0.813 0.813 1.875-0.813 1.875l-1.625 1.688q-1.563 1.688-1.563 3.75v0.688h2.625q0-2.063 1.563-3.75zM17.313 25.313v-2.625h-2.625v2.625h2.625zM16 2.688q5.5 0 9.406 3.906t3.906 9.406-3.906 9.406-9.406 3.906-9.406-3.906-3.906-9.406 3.906-9.406 9.406-3.906z"></path>
</svg>
