<?xml version="1.0" encoding="utf-8"?>
<!-- Generated by IcoMoon.io -->
<!DOCTYPE svg PUBLIC "-//W3C//DTD SVG 1.1//EN" "http://www.w3.org/Graphics/SVG/1.1/DTD/svg11.dtd">
<svg version="1.1" xmlns="http://www.w3.org/2000/svg" xmlns:xlink="http://www.w3.org/1999/xlink" width="32" height="32" viewBox="0 0 32 32">
<path d="M19.563 7.813q2.063 2 1.688 4.938l-0.063 0.563h-2.563l0.188-0.75q0.313-1.688-1-3-2.125-2.125-1.75-5l0.063-0.563h2.563l-0.125 0.813q-0.313 1.688 0.875 2.938zM24.875 7.813q2.125 2.063 1.75 4.938l-0.125 0.563h-2.5l0.125-0.75q0.313-1.688-0.875-2.938l-0.125-0.063q-2.125-2.125-1.75-5l0.125-0.563h2.5l-0.125 0.813q-0.313 1.688 0.875 2.938zM25.313 26.688v-8h-2.625v8h2.625zM20 26.688v-8h-2.688v8h2.688zM14.688 26.688v-8h-2.688v8h2.688zM9.313 26.688v-8h-2.625v8h2.625zM14.875 16h14.438v10.688q0 1.063-0.781 1.844t-1.844 0.781h-21.375q-1.063 0-1.844-0.781t-0.781-1.844v-10.688h4v-1q0-1.25 0.906-2.125t2.094-0.875q1.25 0 2.25 1l1.813 2.063q0.25 0.313 1.125 0.938zM6.688 8q0-1.125 0.75-1.906t1.875-0.781 1.906 0.781 0.781 1.906-0.781 1.906-1.906 0.781-1.875-0.781-0.75-1.906z"></path>
</svg>
