<?xml version="1.0" encoding="utf-8"?>
<!-- Generated by IcoMoon.io -->
<!DOCTYPE svg PUBLIC "-//W3C//DTD SVG 1.1//EN" "http://www.w3.org/Graphics/SVG/1.1/DTD/svg11.dtd">
<svg version="1.1" xmlns="http://www.w3.org/2000/svg" xmlns:xlink="http://www.w3.org/1999/xlink" width="32" height="32" viewBox="0 0 32 32">
<path d="M28.688 15.313v-1.313h-2.688v1.313h2.688zM28.688 12q0.813 0 1.406 0.594t0.594 1.406v1.313q0 0.813-0.594 1.406t-1.406 0.594h-2.688v2.688h-2v-8h4.688zM16.688 14v-2h6v2h-2v6h-2v-6h-2zM9.313 14v-2h6v2h-2v6h-2v-6h-2zM6 14.688v-2.688h2v8h-2v-3.313h-2.688v3.313h-2v-8h2v2.688h2.688z"></path>
</svg>
