<?xml version="1.0" encoding="utf-8"?>
<!-- Generated by IcoMoon.io -->
<!DOCTYPE svg PUBLIC "-//W3C//DTD SVG 1.1//EN" "http://www.w3.org/Graphics/SVG/1.1/DTD/svg11.dtd">
<svg version="1.1" xmlns="http://www.w3.org/2000/svg" xmlns:xlink="http://www.w3.org/1999/xlink" width="32" height="32" viewBox="0 0 32 32">
<path d="M28 24.688v-15.375q-2.063-0.625-4.688-0.625-4.063 0-7.313 2v15.313q3.25-2 7.313-2 2.438 0 4.688 0.688zM23.313 6q4.75 0 7.375 2v19.438q0 0.25-0.219 0.469t-0.469 0.219q-0.188 0-0.313-0.063-2.563-1.375-6.375-1.375-4.063 0-7.313 2-2.688-2-7.313-2-3.375 0-6.375 1.438-0.063 0-0.156 0.031t-0.156 0.031q-0.25 0-0.469-0.188t-0.219-0.438v-19.563q2.688-2 7.375-2 4.625 0 7.313 2 2.688-2 7.313-2z"></path>
</svg>
