<?xml version="1.0" encoding="utf-8"?>
<!-- Generated by IcoMoon.io -->
<!DOCTYPE svg PUBLIC "-//W3C//DTD SVG 1.1//EN" "http://www.w3.org/Graphics/SVG/1.1/DTD/svg11.dtd">
<svg version="1.1" xmlns="http://www.w3.org/2000/svg" xmlns:xlink="http://www.w3.org/1999/xlink" width="32" height="32" viewBox="0 0 32 32">
<path d="M26.667 0h-21.333c-2.946 0-5.333 2.388-5.333 5.333v21.333c0 2.946 2.388 5.333 5.333 5.333h21.333c2.946 0 5.333-2.388 5.333-5.333v-21.333c0-2.946-2.388-5.333-5.333-5.333zM10.24 14h11.507c0.215 0.598 0.34 1.288 0.34 2.007 0 3.365-2.728 6.093-6.093 6.093s-6.093-2.728-6.093-6.093c0-0.719 0.125-1.409 0.353-2.050zM28 14v12c0 1.105-0.895 2-2 2h-20c-1.105 0-2-0.895-2-2v-12h3.133c-0.14 0.597-0.22 1.283-0.22 1.988 0 5.022 4.071 9.093 9.093 9.093s9.093-4.071 9.093-9.093c0-0.705-0.080-1.391-0.232-2.049l3.132 0.061zM28 7c0 0.552-0.448 1-1 1h-2c-0.552 0-1-0.448-1-1v-2c0-0.552 0.448-1 1-1h2c0.552 0 1 0.448 1 1v2z"></path>
</svg>
