<?xml version="1.0" encoding="utf-8"?>
<!-- Generated by IcoMoon.io -->
<!DOCTYPE svg PUBLIC "-//W3C//DTD SVG 1.1//EN" "http://www.w3.org/Graphics/SVG/1.1/DTD/svg11.dtd">
<svg version="1.1" xmlns="http://www.w3.org/2000/svg" xmlns:xlink="http://www.w3.org/1999/xlink" width="32" height="32" viewBox="0 0 32 32">
<path d="M16 6.813l-3.063 3-1.875-1.875 4.938-4.938 7.563 7.563q2.375 2.375 2.938 5.719t-0.813 6.281l-9.688-9.625v-6.125zM16 26.125v-6.438l-6.375-6.375q-1.625 2.125-1.625 4.813 0 3.25 2.375 5.625t5.625 2.375zM27.563 27.813l0.438 0.5-1.688 1.688-3.625-3.625q-2.938 2.375-6.688 2.375-4.438 0-7.563-3.125-2.875-2.938-3.094-7.031t2.344-7.219l-3.688-3.688 1.688-1.688q18.688 18.688 21.875 21.813z"></path>
</svg>
