<?xml version="1.0" encoding="utf-8"?>
<!-- Generated by IcoMoon.io -->
<!DOCTYPE svg PUBLIC "-//W3C//DTD SVG 1.1//EN" "http://www.w3.org/Graphics/SVG/1.1/DTD/svg11.dtd">
<svg version="1.1" xmlns="http://www.w3.org/2000/svg" xmlns:xlink="http://www.w3.org/1999/xlink" width="32" height="32" viewBox="0 0 32 32">
<path d="M16 30.688l-5.313-5.375h10.625zM25.313 10.688v-2.688h-2.625v2.688h2.625zM25.313 14.688v-2.688h-2.625v2.688h2.625zM21.313 10.688v-2.688h-2.625v2.688h2.625zM21.313 14.688v-2.688h-2.625v2.688h2.625zM21.313 20v-2.688h-10.625v2.688h10.625zM9.313 10.688v-2.688h-2.625v2.688h2.625zM9.313 14.688v-2.688h-2.625v2.688h2.625zM10.688 12v2.688h2.625v-2.688h-2.625zM10.688 8v2.688h2.625v-2.688h-2.625zM14.688 12v2.688h2.625v-2.688h-2.625zM14.688 8v2.688h2.625v-2.688h-2.625zM26.688 4q1.063 0 1.844 0.813t0.781 1.875v13.313q0 1.063-0.781 1.875t-1.844 0.813h-21.375q-1.063 0-1.844-0.813t-0.781-1.875v-13.313q0-1.063 0.781-1.875t1.844-0.813h21.375z"></path>
</svg>
