<?xml version="1.0" encoding="utf-8"?>
<!-- Generated by IcoMoon.io -->
<!DOCTYPE svg PUBLIC "-//W3C//DTD SVG 1.1//EN" "http://www.w3.org/Graphics/SVG/1.1/DTD/svg11.dtd">
<svg version="1.1" xmlns="http://www.w3.org/2000/svg" xmlns:xlink="http://www.w3.org/1999/xlink" width="32" height="32" viewBox="0 0 32 32">
<path d="M25.313 13.313v-2.625h-2.625v2.625h2.625zM25.313 17.313v-2.625h-2.625v2.625h2.625zM21.313 13.313v-2.625h-2.625v2.625h2.625zM21.313 17.313v-2.625h-2.625v2.625h2.625zM21.313 22.688v-2.688h-10.625v2.688h10.625zM9.313 13.313v-2.625h-2.625v2.625h2.625zM9.313 17.313v-2.625h-2.625v2.625h2.625zM10.688 14.688v2.625h2.625v-2.625h-2.625zM10.688 10.688v2.625h2.625v-2.625h-2.625zM14.688 14.688v2.625h2.625v-2.625h-2.625zM14.688 10.688v2.625h2.625v-2.625h-2.625zM26.688 6.688q1.063 0 1.844 0.781t0.781 1.844v13.375q0 1.063-0.781 1.844t-1.844 0.781h-21.375q-1.063 0-1.844-0.781t-0.781-1.844v-13.375q0-1.063 0.781-1.844t1.844-0.781h21.375z"></path>
</svg>
