<?xml version="1.0" encoding="utf-8"?>
<!-- Generated by IcoMoon.io -->
<!DOCTYPE svg PUBLIC "-//W3C//DTD SVG 1.1//EN" "http://www.w3.org/Graphics/SVG/1.1/DTD/svg11.dtd">
<svg version="1.1" xmlns="http://www.w3.org/2000/svg" xmlns:xlink="http://www.w3.org/1999/xlink" width="32" height="32" viewBox="0 0 32 32">
<path d="M21.813 18.688h4.5q0.375-1.75 0.375-2.688t-0.375-2.688h-4.5q0.188 1.313 0.188 2.688t-0.188 2.688zM19.438 26.063q3.813-1.25 5.813-4.75h-3.938q-0.625 2.5-1.875 4.75zM19.125 18.688q0.188-1.313 0.188-2.688t-0.188-2.688h-6.25q-0.188 1.313-0.188 2.688t0.188 2.688h6.25zM16 26.625q1.75-2.563 2.563-5.313h-5.125q0.813 2.75 2.563 5.313zM10.688 10.688q0.625-2.5 1.875-4.75-3.813 1.25-5.813 4.75h3.938zM6.75 21.313q2 3.5 5.813 4.75-1.25-2.25-1.875-4.75h-3.938zM5.688 18.688h4.5q-0.188-1.313-0.188-2.688t0.188-2.688h-4.5q-0.375 1.75-0.375 2.688t0.375 2.688zM16 5.375q-1.75 2.563-2.563 5.313h5.125q-0.813-2.75-2.563-5.313zM25.25 10.688q-2-3.5-5.813-4.75 1.25 2.25 1.875 4.75h3.938zM16 2.688q5.5 0 9.406 3.906t3.906 9.406-3.906 9.406-9.406 3.906-9.406-3.906-3.906-9.406 3.906-9.406 9.406-3.906z"></path>
</svg>
