<svg xmlns="http://www.w3.org/2000/svg" width="24" height="24" viewBox="0 0 24 24"><path d="M11.995 2C6.47 2 2 6.475 2 12s4.47 10 9.995 10C17.52 22 22 17.525 22 12S17.52 2 11.995 2zm6.925 6h-2.95c-.325-1.25-.78-2.45-1.38-3.56 1.84.63 3.37 1.905 4.33 3.56zM12 4.035c.835 1.2 1.485 2.535 1.91 3.965h-3.82c.425-1.43 1.075-2.765 1.91-3.965zM4.26 14c-.165-.64-.26-1.31-.26-2s.095-1.36.26-2h3.375c-.08.655-.135 1.32-.135 2s.055 1.345.14 2H4.26zm.815 2h2.95c.325 1.25.78 2.45 1.38 3.565-1.84-.63-3.37-1.91-4.33-3.565zm2.95-8h-2.95c.96-1.655 2.49-2.935 4.33-3.565C8.805 5.55 8.35 6.75 8.025 8zM12 19.965c-.83-1.2-1.48-2.535-1.91-3.965h3.82c-.43 1.43-1.08 2.765-1.91 3.965zM14.34 14H9.66c-.095-.655-.16-1.32-.16-2s.065-1.345.16-2h4.68c.095.655.16 1.32.16 2s-.065 1.345-.16 2zm.255 5.56c.6-1.115 1.055-2.31 1.38-3.56h2.95c-.965 1.655-2.495 2.93-4.33 3.56zM16.36 14c.08-.655.14-1.32.14-2s-.055-1.345-.14-2h3.375c.165.64.265 1.31.265 2s-.095 1.36-.265 2H16.36z"/></svg>