<?xml version="1.0" encoding="utf-8"?>
<!-- Generated by IcoMoon.io -->
<!DOCTYPE svg PUBLIC "-//W3C//DTD SVG 1.1//EN" "http://www.w3.org/Graphics/SVG/1.1/DTD/svg11.dtd">
<svg version="1.1" xmlns="http://www.w3.org/2000/svg" xmlns:xlink="http://www.w3.org/1999/xlink" width="32" height="32" viewBox="0 0 32 32">
<path d="M16 25.313q0.563 0 0.938-0.375t0.375-0.938-0.375-0.938-0.938-0.375-0.938 0.375-0.375 0.938 0.375 0.938 0.938 0.375zM5.313 6.688v14.625h21.375v-14.625h-21.375zM26.688 24h5.313q0 1.063-0.813 1.875t-1.875 0.813h-26.625q-1.063 0-1.875-0.813t-0.813-1.875h5.313q-1.063 0-1.844-0.813t-0.781-1.875v-14.625q0-1.063 0.781-1.875t1.844-0.813h21.375q1.063 0 1.844 0.813t0.781 1.875v14.625q0 1.063-0.781 1.875t-1.844 0.813z"></path>
</svg>
