<?xml version="1.0" encoding="utf-8"?>
<!-- Generated by IcoMoon.io -->
<!DOCTYPE svg PUBLIC "-//W3C//DTD SVG 1.1//EN" "http://www.w3.org/Graphics/SVG/1.1/DTD/svg11.dtd">
<svg version="1.1" xmlns="http://www.w3.org/2000/svg" xmlns:xlink="http://www.w3.org/1999/xlink" width="32" height="32" viewBox="0 0 32 32">
<path d="M22.427 0c-5.333 8.72-9.453 4.427-15.547 10.667-5.333 5.533-3.52 12.2 1.013 14.493 4.48-2.293 9.053-7.4 12.453-14.8 0 0 3.053 9.333-6.293 18.36 4.533 5.333 12.24 1.613 14.4-6.84 2.333-9.173-3.773-18.533-6.027-21.88v0zM3.027 30.2c0.108 1.027 0.969 1.821 2.016 1.821 0.102 0 0.203-0.008 0.302-0.022 1.629 0.001 9.922-4.519 14.189-16.252-6.4 11.413-15.76 14.24-16.507 14.453v0z"></path>
</svg>
