<?xml version="1.0" encoding="utf-8"?>
<!-- Generated by IcoMoon.io -->
<!DOCTYPE svg PUBLIC "-//W3C//DTD SVG 1.1//EN" "http://www.w3.org/Graphics/SVG/1.1/DTD/svg11.dtd">
<svg version="1.1" xmlns="http://www.w3.org/2000/svg" xmlns:xlink="http://www.w3.org/1999/xlink" width="32" height="32" viewBox="0 0 32 32">
<path d="M18.688 28q0-3.875 2.719-6.594t6.594-2.719v2.625q-2.75 0-4.719 1.969t-1.969 4.719h-2.625zM24 28q0-1.625 1.188-2.813t2.813-1.188v4h-4zM13.313 28q0-6.063 4.313-10.375t10.375-4.313v2.688q-5 0-8.5 3.5t-3.5 8.5h-2.688zM13.313 4q0 3.875-2.719 6.594t-6.594 2.719v-2.625q2.75 0 4.719-1.969t1.969-4.719h2.625zM18.688 4q0 6.063-4.313 10.375t-10.375 4.313v-2.688q5 0 8.5-3.5t3.5-8.5h2.688zM8 4q0 1.625-1.188 2.813t-2.813 1.188v-4h4z"></path>
</svg>
