<?xml version="1.0" encoding="utf-8"?>
<!-- Generated by IcoMoon.io -->
<!DOCTYPE svg PUBLIC "-//W3C//DTD SVG 1.1//EN" "http://www.w3.org/Graphics/SVG/1.1/DTD/svg11.dtd">
<svg version="1.1" xmlns="http://www.w3.org/2000/svg" xmlns:xlink="http://www.w3.org/1999/xlink" width="32" height="32" viewBox="0 0 32 32">
<path d="M20.5 15.438q3.563-2.125 7.5-2.125v2.688q-2.938 0-5.563 1.375zM26.563 21.5l-2.125-2.125q1.688-0.688 3.563-0.688v2.625q-0.75 0-1.438 0.188zM18.688 4q0 3.938-2.125 7.5l-1.938-1.938q1.375-2.625 1.375-5.563h2.688zM4 5.688l1.688-1.688 22.313 22.313-1.688 1.688-3.813-3.813q-1.188 1.688-1.188 3.813h-2.625q0-3.125 1.938-5.688l-1.938-1.875q-2.688 3.313-2.688 7.563h-2.688q0-5.375 3.5-9.5l-3.313-3.313q-4.125 3.5-9.5 3.5v-2.688q4.313 0 7.625-2.688l-1.938-1.938q-2.563 1.938-5.688 1.938v-2.625q2.125 0 3.813-1.188zM13.313 4q0 1.875-0.688 3.563l-2.125-2.125q0.188-0.688 0.188-1.438h2.625z"></path>
</svg>
