<?xml version="1.0" encoding="utf-8"?>
<!-- Generated by IcoMoon.io -->
<!DOCTYPE svg PUBLIC "-//W3C//DTD SVG 1.1//EN" "http://www.w3.org/Graphics/SVG/1.1/DTD/svg11.dtd">
<svg version="1.1" xmlns="http://www.w3.org/2000/svg" xmlns:xlink="http://www.w3.org/1999/xlink" width="32" height="32" viewBox="0 0 32 32">
<path d="M19.813 17.438q2.875-2 2.875-5.438 0-2.75-1.969-4.719t-4.719-1.969-4.719 1.969-1.969 4.719q0 3.438 2.875 5.438l1.125 0.813v3.063h5.375v-3.063zM16 2.688q3.875 0 6.594 2.719t2.719 6.594q0 4.875-4 7.625v3.063q0 0.563-0.375 0.938t-0.938 0.375h-8q-0.563 0-0.938-0.375t-0.375-0.938v-3.063q-4-2.75-4-7.625 0-3.875 2.719-6.594t6.594-2.719zM12 28v-1.313h8v1.313q0 0.563-0.375 0.938t-0.938 0.375h-5.375q-0.563 0-0.938-0.375t-0.375-0.938z"></path>
</svg>
