<?xml version="1.0" encoding="utf-8"?>
<!-- Generated by IcoMoon.io -->
<!DOCTYPE svg PUBLIC "-//W3C//DTD SVG 1.1//EN" "http://www.w3.org/Graphics/SVG/1.1/DTD/svg11.dtd">
<svg version="1.1" xmlns="http://www.w3.org/2000/svg" xmlns:xlink="http://www.w3.org/1999/xlink" width="32" height="32" viewBox="0 0 32 32">
<path d="M21.313 8q1.125 0 1.906 0.781t0.781 1.906h1.75q0-1.813-1.313-3.125t-3.125-1.313v1.75zM16 25.313q2.75 0 4.719-1.938t1.969-4.688-1.969-4.719-4.719-1.969-4.719 1.969-1.969 4.719 1.969 4.688 4.719 1.938zM22.688 12h6.625v14.688q0 1.063-0.781 1.844t-1.844 0.781h-21.375q-1.063 0-1.844-0.781t-0.781-1.844v-16q0-1.063 0.781-1.875t1.844-0.813h4.25l2.438-2.688h8v4q1.125 0 1.906 0.781t0.781 1.906zM21.313 4.438v-1.75q3.313 0 5.656 2.344t2.344 5.656h-1.75q0-2.563-1.844-4.406t-4.406-1.844zM11.75 18.688q0-1.813 1.25-3.063t3-1.25 3 1.25 1.25 3.063-1.25 3.031-3 1.219-3-1.219-1.25-3.031z"></path>
</svg>
