<?xml version="1.0" encoding="utf-8"?>
<!-- Generated by IcoMoon.io -->
<!DOCTYPE svg PUBLIC "-//W3C//DTD SVG 1.1//EN" "http://www.w3.org/Graphics/SVG/1.1/DTD/svg11.dtd">
<svg version="1.1" xmlns="http://www.w3.org/2000/svg" xmlns:xlink="http://www.w3.org/1999/xlink" width="32" height="32" viewBox="0 0 32 32">
<path d="M7.267 10.667v20.627h-6.867v-20.627h6.867zM7.707 4.267c0.002 0.042 0.003 0.092 0.003 0.142 0 0.948-0.4 1.802-1.041 2.403-0.708 0.64-1.649 1.031-2.681 1.031-0.052 0-0.104-0.001-0.155-0.003l0.007 0c-0.063 0.004-0.137 0.006-0.212 0.006-1.004 0-1.916-0.393-2.59-1.034-0.641-0.62-1.040-1.49-1.040-2.453 0-0.032 0-0.065 0.001-0.097-0.001-0.022-0.001-0.054-0.001-0.085 0-0.969 0.41-1.842 1.066-2.455 0.695-0.633 1.621-1.019 2.637-1.019 0.063 0 0.125 0.001 0.187 0.004 0.049-0.003 0.116-0.005 0.184-0.005 1.003 0 1.916 0.387 2.596 1.020 0.64 0.628 1.038 1.504 1.038 2.474 0 0.025-0 0.049-0.001 0.074zM32 19.453v11.827h-6.853v-11.027c0.006-0.102 0.010-0.221 0.010-0.341 0-1.139-0.316-2.204-0.865-3.112-0.528-0.734-1.407-1.224-2.401-1.224-0.088 0-0.175 0.004-0.261 0.011-0.023-0.002-0.063-0.003-0.103-0.003-0.791 0-1.517 0.272-2.093 0.727-0.259 0.080-0.936 0.839-1.316 1.752-0.157 0.479-0.241 0.997-0.241 1.535 0 0.066 0.001 0.132 0.004 0.197l-0 11.511h-6.813q0-8.307 0-13.48t0-6.16v-1h6.853v3c-0.588 1.068-0.023-0.159 0.764-1.21-0.881 0.938 0.022-0.181 1.136-1.041 0.028-0.124 0.86-0.641 1.796-0.912 0.721-0.213 1.505-0.33 2.317-0.33 0.038 0 0.076 0 0.114 0.001 0.086-0.004 0.195-0.007 0.303-0.007 2.141 0 4.069 0.909 5.42 2.362 1.403 1.701 2.251 3.898 2.251 6.292 0 0.223-0.007 0.444-0.022 0.663l0.002-0.030z"></path>
</svg>
