<?xml version="1.0" encoding="utf-8"?>
<!-- Generated by IcoMoon.io -->
<!DOCTYPE svg PUBLIC "-//W3C//DTD SVG 1.1//EN" "http://www.w3.org/Graphics/SVG/1.1/DTD/svg11.dtd">
<svg version="1.1" xmlns="http://www.w3.org/2000/svg" xmlns:xlink="http://www.w3.org/1999/xlink" width="32" height="32" viewBox="0 0 32 32">
<path d="M20.063 13.688q1.25-1.25 1.25-3 0-2.188-1.563-3.781t-3.75-1.594-3.75 1.594-1.563 3.781h2.625q0-1.063 0.813-1.875t1.875-0.813 1.875 0.813 0.813 1.875-0.813 1.875l-1.625 1.688q-1.563 1.688-1.563 3.75v0.688h2.625q0-2.125 1.563-3.813zM17.313 24v-2.688h-2.625v2.688h2.625zM25.313 2.688q1.063 0 1.875 0.781t0.813 1.844v18.688q0 1.063-0.813 1.875t-1.875 0.813h-5.313l-4 4-4-4h-5.313q-1.125 0-1.906-0.813t-0.781-1.875v-18.688q0-1.063 0.781-1.844t1.906-0.781h18.625z"></path>
</svg>
