<?xml version="1.0" encoding="utf-8"?>
<!-- Generated by IcoMoon.io -->
<!DOCTYPE svg PUBLIC "-//W3C//DTD SVG 1.1//EN" "http://www.w3.org/Graphics/SVG/1.1/DTD/svg11.dtd">
<svg version="1.1" xmlns="http://www.w3.org/2000/svg" xmlns:xlink="http://www.w3.org/1999/xlink" width="32" height="32" viewBox="0 0 32 32">
<path d="M16 7.313q-1.375 0-2.344 1t-0.969 2.375 0.969 2.344 2.344 0.969 2.344-0.969 0.969-2.344-0.969-2.375-2.344-1zM7.438 13.688q0-2.063 1.938-3-1.938-0.938-1.938-3 0-1.375 1-2.375t2.375-1q0.938 0 1.875 0.625v-0.25q0-1.375 0.969-2.375t2.344-1 2.344 1 0.969 2.375v0.25q0.938-0.625 1.875-0.625 1.375 0 2.375 1t1 2.375q0 2.063-1.938 3 1.938 0.938 1.938 3 0 1.375-1 2.344t-2.375 0.969q-1.063 0-1.875-0.563v0.25q0 1.375-0.969 2.344t-2.344 0.969-2.344-0.969-0.969-2.344v-0.25q-0.813 0.563-1.875 0.563-1.375 0-2.375-0.969t-1-2.344zM16 29.313q-5 0-8.5-3.531t-3.5-8.469q5 0 8.5 3.531t3.5 8.469zM16 29.313q0-4.938 3.5-8.469t8.5-3.531q0 4.938-3.5 8.469t-8.5 3.531z"></path>
</svg>
