<?xml version="1.0" encoding="utf-8"?>
<!-- Generated by IcoMoon.io -->
<!DOCTYPE svg PUBLIC "-//W3C//DTD SVG 1.1//EN" "http://www.w3.org/Graphics/SVG/1.1/DTD/svg11.dtd">
<svg version="1.1" xmlns="http://www.w3.org/2000/svg" xmlns:xlink="http://www.w3.org/1999/xlink" width="32" height="32" viewBox="0 0 32 32">
<path d="M16 17.313q2.75 0 4.719-1.938t1.969-4.688h-2.688q0 1.625-1.188 2.813t-2.813 1.188-2.813-1.188-1.188-2.813h-2.688q0 2.75 1.969 4.688t4.719 1.938zM16 4q-1.625 0-2.813 1.188t-1.188 2.813h8q0-1.625-1.188-2.813t-2.813-1.188zM25.313 8q1.063 0 1.875 0.813t0.813 1.875v16q0 1.063-0.813 1.844t-1.875 0.781h-18.625q-1.063 0-1.875-0.781t-0.813-1.844v-16q0-1.063 0.813-1.875t1.875-0.813h2.625q0-2.75 1.969-4.719t4.719-1.969 4.719 1.969 1.969 4.719h2.625z"></path>
</svg>
