<?xml version="1.0" encoding="utf-8"?>
<!-- Generated by IcoMoon.io -->
<!DOCTYPE svg PUBLIC "-//W3C//DTD SVG 1.1//EN" "http://www.w3.org/Graphics/SVG/1.1/DTD/svg11.dtd">
<svg version="1.1" xmlns="http://www.w3.org/2000/svg" xmlns:xlink="http://www.w3.org/1999/xlink" width="32" height="32" viewBox="0 0 32 32">
<path d="M24 24.688q0.875 0 1.438-0.594t0.563-1.406-0.563-1.406-1.438-0.594-1.438 0.594-0.563 1.406 0.563 1.406 1.438 0.594zM26 12.688h-3.313v3.313h5.938zM8 24.688q0.875 0 1.438-0.594t0.563-1.406-0.563-1.406-1.438-0.594-1.438 0.594-0.563 1.406 0.563 1.406 1.438 0.594zM26.688 10.688l4 5.313v6.688h-2.688q0 1.625-1.188 2.813t-2.813 1.188-2.813-1.188-1.188-2.813h-8q0 1.625-1.188 2.813t-2.813 1.188-2.813-1.188-1.188-2.813h-2.688v-14.688q0-1.063 0.813-1.875t1.875-0.813h18.688v5.375h4z"></path>
</svg>
