<?xml version="1.0" encoding="utf-8"?>
<!-- Generated by IcoMoon.io -->
<!DOCTYPE svg PUBLIC "-//W3C//DTD SVG 1.1//EN" "http://www.w3.org/Graphics/SVG/1.1/DTD/svg11.dtd">
<svg version="1.1" xmlns="http://www.w3.org/2000/svg" xmlns:xlink="http://www.w3.org/1999/xlink" width="32" height="32" viewBox="0 0 32 32">
<path d="M24 13.313q0.563 0 0.938-0.375t0.375-0.938-0.375-0.938-0.938-0.375-0.938 0.375-0.375 0.938 0.375 0.938 0.938 0.375zM16 13.313v-6.625h-8v6.625h8zM26.375 9.625q0.938 0.938 0.938 2.375v12.688q0 1.375-0.969 2.344t-2.344 0.969-2.344-0.969-0.969-2.344v-6.688h-2v10h-13.375v-21.313q0-1.063 0.813-1.875t1.875-0.813h8q1.063 0 1.875 0.813t0.813 1.875v9.313h1.313q1.063 0 1.875 0.813t0.813 1.875v6q0 0.563 0.375 0.938t0.938 0.375 0.938-0.375 0.375-0.938v-9.625q-0.563 0.25-1.313 0.25-1.375 0-2.344-0.969t-0.969-2.344q0-2.25 2.125-3.125l-2.813-2.813 1.438-1.375z"></path>
</svg>
