<?xml version="1.0" encoding="utf-8"?>
<!-- Generated by IcoMoon.io -->
<!DOCTYPE svg PUBLIC "-//W3C//DTD SVG 1.1//EN" "http://www.w3.org/Graphics/SVG/1.1/DTD/svg11.dtd">
<svg version="1.1" xmlns="http://www.w3.org/2000/svg" xmlns:xlink="http://www.w3.org/1999/xlink" width="32" height="32" viewBox="0 0 32 32">
<path d="M16 26.688q3.313 0 5.656-2.344t2.344-5.656-2.344-5.656-5.656-2.344-5.656 2.344-2.344 5.656 2.344 5.656 5.656 2.344zM9.313 5.313q-0.563 0-0.938 0.406t-0.375 0.969 0.375 0.938 0.938 0.375 0.969-0.375 0.406-0.938-0.406-0.969-0.969-0.406zM13.313 5.313q-0.563 0-0.938 0.406t-0.375 0.969 0.375 0.938 0.938 0.375 0.969-0.375 0.406-0.938-0.406-0.969-0.969-0.406zM24 2.688q1.125 0 1.906 0.75t0.781 1.875v21.375q0 1.125-0.781 1.875t-1.906 0.75h-16q-1.125 0-1.906-0.75t-0.781-1.875v-21.375q0-1.125 0.781-1.875t1.906-0.75h16zM12.25 22.438l7.5-7.563q1.563 1.563 1.563 3.781t-1.563 3.781-3.75 1.563-3.75-1.563z"></path>
</svg>
