<?xml version="1.0" encoding="utf-8"?>
<!-- Generated by IcoMoon.io -->
<!DOCTYPE svg PUBLIC "-//W3C//DTD SVG 1.1//EN" "http://www.w3.org/Graphics/SVG/1.1/DTD/svg11.dtd">
<svg version="1.1" xmlns="http://www.w3.org/2000/svg" xmlns:xlink="http://www.w3.org/1999/xlink" width="32" height="32" viewBox="0 0 32 32">
<path d="M20.75 22.375l-1.438-5.438 4.375-3.625-5.625-0.313-2.063-5.25-2.063 5.25-5.688 0.313 4.438 3.625-1.438 5.438 4.75-3.063zM26.688 16q0 1.063 0.781 1.875t1.844 0.813v5.313q0 1.063-0.781 1.875t-1.844 0.813h-21.375q-1.063 0-1.844-0.813t-0.781-1.875v-5.313q1.125 0 1.875-0.781t0.75-1.906q0-1.063-0.781-1.875t-1.844-0.813v-5.313q0-1.063 0.781-1.875t1.844-0.813h21.375q1.063 0 1.844 0.813t0.781 1.875v5.313q-1.063 0-1.844 0.813t-0.781 1.875z"></path>
</svg>
