<?xml version="1.0" encoding="utf-8"?>
<!-- Generated by IcoMoon.io -->
<!DOCTYPE svg PUBLIC "-//W3C//DTD SVG 1.1//EN" "http://www.w3.org/Graphics/SVG/1.1/DTD/svg11.dtd">
<svg version="1.1" xmlns="http://www.w3.org/2000/svg" xmlns:xlink="http://www.w3.org/1999/xlink" width="32" height="32" viewBox="0 0 32 32">
<path d="M21.688 23.375l-13.063-13.063q-1.938 2.563-1.938 5.688 0 3.875 2.719 6.594t6.594 2.719q3.125 0 5.688-1.938zM4 5.688l1.688-1.688 22.313 22.313-1.688 1.688-2.75-2.75q-2.813 2.313-6.25 2.688v2.75h-2.625v-2.75q-4.188-0.438-7.188-3.438t-3.438-7.188h-2.75v-2.625h2.75q0.375-3.438 2.688-6.25zM27.938 14.688h2.75v2.625h-2.75q-0.313 2.438-1.313 4.25l-2-2q0.688-1.688 0.688-3.563 0-3.875-2.719-6.594t-6.594-2.719q-1.875 0-3.563 0.688l-2-2q1.938-1 4.25-1.313v-2.75h2.625v2.75q4.188 0.438 7.188 3.438t3.438 7.188z"></path>
</svg>
