<?xml version="1.0" encoding="utf-8"?>
<!-- Generated by IcoMoon.io -->
<!DOCTYPE svg PUBLIC "-//W3C//DTD SVG 1.1//EN" "http://www.w3.org/Graphics/SVG/1.1/DTD/svg11.dtd">
<svg version="1.1" xmlns="http://www.w3.org/2000/svg" xmlns:xlink="http://www.w3.org/1999/xlink" width="32" height="32" viewBox="0 0 32 32">
<path d="M26.688 24v-16h-21.375v16h21.375zM26.688 5.313q1.125 0 1.875 0.781t0.75 1.906v16q0 1.125-0.75 1.906t-1.875 0.781h-21.375q-1.125 0-1.875-0.781t-0.75-1.906v-16q0-1.125 0.75-1.906t1.875-0.781h21.375zM14.688 22.688v-1.375h-2.688v-2.625h5.313v-1.375h-4q-0.563 0-0.938-0.375t-0.375-0.938v-4q0-0.563 0.375-0.938t0.938-0.375h1.375v-1.375h2.625v1.375h2.688v2.625h-5.313v1.375h4q0.563 0 0.938 0.375t0.375 0.938v4q0 0.563-0.375 0.938t-0.938 0.375h-1.375v1.375h-2.625z"></path>
</svg>
