<?xml version="1.0" encoding="utf-8"?>
<!-- Generated by IcoMoon.io -->
<!DOCTYPE svg PUBLIC "-//W3C//DTD SVG 1.1//EN" "http://www.w3.org/Graphics/SVG/1.1/DTD/svg11.dtd">
<svg version="1.1" xmlns="http://www.w3.org/2000/svg" xmlns:xlink="http://www.w3.org/1999/xlink" width="32" height="32" viewBox="0 0 32 32">
<path d="M24 21.313v-1.188q0-1.813-2.75-2.969t-5.25-1.156-5.25 1.156-2.75 2.969v1.188h16zM16 7.063q-1.5 0-2.563 1.063t-1.063 2.563 1.063 2.531 2.563 1.031 2.563-1.031 1.063-2.531-1.063-2.563-2.563-1.063zM25.313 2.688q1.063 0 1.875 0.781t0.813 1.844v18.688q0 1.063-0.813 1.875t-1.875 0.813h-5.313l-4 4-4-4h-5.313q-1.125 0-1.906-0.813t-0.781-1.875v-18.688q0-1.063 0.781-1.844t1.906-0.781h18.625z"></path>
</svg>
