<?xml version="1.0" encoding="utf-8"?>
<!-- Generated by IcoMoon.io -->
<!DOCTYPE svg PUBLIC "-//W3C//DTD SVG 1.1//EN" "http://www.w3.org/Graphics/SVG/1.1/DTD/svg11.dtd">
<svg version="1.1" xmlns="http://www.w3.org/2000/svg" xmlns:xlink="http://www.w3.org/1999/xlink" width="32" height="32" viewBox="0 0 32 32">
<path d="M15.625 15.313q6.813 6.75 11.063 11l-1.688 1.688-4.5-4.438q-1 1.5-2.125 2.938t-1.75 2.125l-0.625 0.688q-0.375-0.438-1-1.156t-2.25-2.875-2.844-4.188-2.219-4.594-1-4.5q0-0.688 0.25-2.063l-4.25-4.25 1.688-1.688 11.125 11.125zM16 8.688q-1.438 0-2.438 1.125l-4.313-4.25q2.75-2.875 6.75-2.875 3.875 0 6.594 2.719t2.719 6.594q0 3-2.25 7.313l-4.813-4.875q1.063-0.938 1.063-2.438 0-1.375-0.969-2.344t-2.344-0.969z"></path>
</svg>
