<?xml version="1.0" encoding="utf-8"?>
<!-- Generated by IcoMoon.io -->
<!DOCTYPE svg PUBLIC "-//W3C//DTD SVG 1.1//EN" "http://www.w3.org/Graphics/SVG/1.1/DTD/svg11.dtd">
<svg version="1.1" xmlns="http://www.w3.org/2000/svg" xmlns:xlink="http://www.w3.org/1999/xlink" width="32" height="32" viewBox="0 0 32 32">
<path d="M20 14.688v-2.688q0-1.125-0.813-1.906t-1.875-0.781h-5.313v2.688h5.313v2.688h-2.625q-1.125 0-1.906 0.75t-0.781 1.875v5.375h8v-2.688h-5.313v-2.688h2.625q1.125 0 1.906-0.75t0.781-1.875zM25.313 4q1.063 0 1.875 0.813t0.813 1.875v18.625q0 1.063-0.813 1.875t-1.875 0.813h-18.625q-1.063 0-1.875-0.813t-0.813-1.875v-18.625q0-1.063 0.813-1.875t1.875-0.813h18.625z"></path>
</svg>
