<?xml version="1.0" encoding="utf-8"?>
<!-- Generated by IcoMoon.io -->
<!DOCTYPE svg PUBLIC "-//W3C//DTD SVG 1.1//EN" "http://www.w3.org/Graphics/SVG/1.1/DTD/svg11.dtd">
<svg version="1.1" xmlns="http://www.w3.org/2000/svg" xmlns:xlink="http://www.w3.org/1999/xlink" width="32" height="32" viewBox="0 0 32 32">
<path d="M20 14v-2q0-1.125-0.781-1.906t-1.844-0.781h-5.375v2.688h5.375v2.688h-2.688v2.625h2.688v2.688h-5.375v2.688h5.375q1.063 0 1.844-0.781t0.781-1.906v-2q0-0.875-0.563-1.438t-1.438-0.563q0.875 0 1.438-0.563t0.563-1.438zM25.375 4q1.063 0 1.844 0.813t0.781 1.875v18.625q0 1.063-0.781 1.875t-1.844 0.813h-18.688q-1.063 0-1.875-0.813t-0.813-1.875v-18.625q0-1.063 0.813-1.875t1.875-0.813h18.688z"></path>
</svg>
