<?xml version="1.0" encoding="utf-8"?>
<!-- Generated by IcoMoon.io -->
<!DOCTYPE svg PUBLIC "-//W3C//DTD SVG 1.1//EN" "http://www.w3.org/Graphics/SVG/1.1/DTD/svg11.dtd">
<svg version="1.1" xmlns="http://www.w3.org/2000/svg" xmlns:xlink="http://www.w3.org/1999/xlink" width="32" height="32" viewBox="0 0 32 32">
<path d="M16 26.688q4.375 0 7.531-3.156t3.156-7.531-3.156-7.531-7.531-3.156-7.531 3.156-3.156 7.531 3.156 7.531 7.531 3.156zM16 2.688q5.5 0 9.406 3.906t3.906 9.406v10.688q0 1.063-0.781 1.844t-1.844 0.781h-10.688q-5.5 0-9.406-3.906t-3.906-9.406 3.906-9.406 9.406-3.906zM17.313 9.313v5.375h5.375v2.625h-5.375v5.375h-2.625v-5.375h-5.375v-2.625h5.375v-5.375h2.625z"></path>
</svg>
