<?xml version="1.0" encoding="utf-8"?>
<!-- Generated by IcoMoon.io -->
<!DOCTYPE svg PUBLIC "-//W3C//DTD SVG 1.1//EN" "http://www.w3.org/Graphics/SVG/1.1/DTD/svg11.dtd">
<svg version="1.1" xmlns="http://www.w3.org/2000/svg" xmlns:xlink="http://www.w3.org/1999/xlink" width="32" height="32" viewBox="0 0 32 32">
<path d="M23 20.375q1-1 1-2.375t-0.969-2.344-2.344-0.969q-1.438 0-2.375 0.938l-1 1-0.938-1q-0.938-0.938-2.375-0.938-1.375 0-2.344 0.969t-0.969 2.344q0 1.438 0.938 2.375l5.688 5.688zM7.313 9.313q0.813 0 1.406-0.594t0.594-1.406-0.594-1.406-1.406-0.594-1.406 0.594-0.594 1.406 0.594 1.406 1.406 0.594zM28.563 15.438q0.75 0.75 0.75 1.875t-0.75 1.875l-9.375 9.375q-0.75 0.75-1.875 0.75t-1.875-0.75l-12-12q-0.75-0.75-0.75-1.875v-9.375q0-1.063 0.781-1.844t1.844-0.781h9.375q1.125 0 1.875 0.75z"></path>
</svg>
