<?xml version="1.0" encoding="utf-8"?>
<!-- Generated by IcoMoon.io -->
<!DOCTYPE svg PUBLIC "-//W3C//DTD SVG 1.1//EN" "http://www.w3.org/Graphics/SVG/1.1/DTD/svg11.dtd">
<svg version="1.1" xmlns="http://www.w3.org/2000/svg" xmlns:xlink="http://www.w3.org/1999/xlink" width="32" height="32" viewBox="0 0 32 32">
<path d="M5.688 4l22.313 22.313-1.688 1.688-5.563-5.563q-1.375 0.875-3.438 1.188v4.375h-2.625v-4.375q-3.313-0.5-5.656-3.031t-2.344-5.906h2.25q0 2.938 2.094 4.844t4.969 1.906q1.563 0 3.063-0.688l-2.188-2.188q-0.5 0.125-0.875 0.125-1.625 0-2.813-1.188t-1.188-2.813v-1l-8-8zM20 14.875l-8-7.938v-0.25q0-1.625 1.188-2.813t2.813-1.188 2.813 1.188 1.188 2.813v8.188zM25.313 14.688q0 2.313-1.188 4.375l-1.625-1.688q0.563-1.25 0.563-2.688h2.25z"></path>
</svg>
