<?xml version="1.0" encoding="utf-8"?>
<!-- Generated by IcoMoon.io -->
<!DOCTYPE svg PUBLIC "-//W3C//DTD SVG 1.1//EN" "http://www.w3.org/Graphics/SVG/1.1/DTD/svg11.dtd">
<svg version="1.1" xmlns="http://www.w3.org/2000/svg" xmlns:xlink="http://www.w3.org/1999/xlink" width="32" height="32" viewBox="0 0 32 32">
<path d="M7.125 5.438l19.438 19.5-1.688 1.688-2.938-3q-1.188 1.063-3.25 1.5v2.875h-4v-2.875q-2.063-0.438-3.438-1.75t-1.5-3.375h2.938q0.25 2.813 4 2.813 2.313 0 3.188-1.25l-4.688-4.625q-5.188-1.563-5.188-5.25l-4.563-4.563zM16.688 9.188q-1.188 0-2.063 0.375l-1.938-1.938q0.875-0.438 2-0.75v-2.875h4v2.938q2 0.5 3.094 1.875t1.156 3.188h-2.938q-0.125-2.813-3.313-2.813z"></path>
</svg>
