<?xml version="1.0" encoding="utf-8"?>
<!-- Generated by IcoMoon.io -->
<!DOCTYPE svg PUBLIC "-//W3C//DTD SVG 1.1//EN" "http://www.w3.org/Graphics/SVG/1.1/DTD/svg11.dtd">
<svg version="1.1" xmlns="http://www.w3.org/2000/svg" xmlns:xlink="http://www.w3.org/1999/xlink" width="32" height="32" viewBox="0 0 32 32">
<path d="M26.688 25.313v-16h-10.688v1.375q2.813 0 4.75 1.906t1.938 4.719-1.938 4.75-4.75 1.938v-2.375q-1.75 0-3-1.25t-1.25-3.063 1.25-3.031 3-1.219v8.563q1.75 0 3-1.25t1.25-3.063-1.25-3.031-3-1.219v-2.375q-2.813 0-4.75 1.906t-1.938 4.719 1.938 4.75 4.75 1.938v1.313h10.688zM26.688 6.688q1.063 0 1.844 0.781t0.781 1.844v16q0 1.063-0.781 1.875t-1.844 0.813h-21.375q-1.063 0-1.844-0.813t-0.781-1.875v-16q0-1.063 0.781-1.844t1.844-0.781h4.313l2.375-2.688h8l2.375 2.688h4.313z"></path>
</svg>
