<?xml version="1.0" encoding="utf-8"?>
<!-- Generated by IcoMoon.io -->
<!DOCTYPE svg PUBLIC "-//W3C//DTD SVG 1.1//EN" "http://www.w3.org/Graphics/SVG/1.1/DTD/svg11.dtd">
<svg version="1.1" xmlns="http://www.w3.org/2000/svg" xmlns:xlink="http://www.w3.org/1999/xlink" width="32" height="32" viewBox="0 0 32 32">
<path d="M16 18.688q2.313 0 4.156 1.281t2.656 3.344h-13.625q0.813-2.063 2.656-3.344t4.156-1.281zM11.313 14.688q-0.813 0-1.406-0.594t-0.594-1.406 0.594-1.406 1.406-0.594 1.406 0.594 0.594 1.406-0.594 1.406-1.406 0.594zM20.688 14.688q-0.813 0-1.406-0.594t-0.594-1.406 0.594-1.406 1.406-0.594 1.406 0.594 0.594 1.406-0.594 1.406-1.406 0.594zM16 26.688q4.375 0 7.531-3.156t3.156-7.531-3.156-7.531-7.531-3.156-7.531 3.156-3.156 7.531 3.156 7.531 7.531 3.156zM16 2.688q5.5 0 9.406 3.906t3.906 9.406-3.906 9.406-9.406 3.906-9.406-3.906-3.906-9.406 3.906-9.406 9.406-3.906z"></path>
</svg>
