<?xml version="1.0" encoding="utf-8"?>
<!-- Generated by IcoMoon.io -->
<!DOCTYPE svg PUBLIC "-//W3C//DTD SVG 1.1//EN" "http://www.w3.org/Graphics/SVG/1.1/DTD/svg11.dtd">
<svg version="1.1" xmlns="http://www.w3.org/2000/svg" xmlns:xlink="http://www.w3.org/1999/xlink" width="32" height="32" viewBox="0 0 32 32">
<path d="M25.313 18q0.813 0 1.406-0.563t0.594-1.438-0.594-1.438-1.406-0.563-1.406 0.563-0.594 1.438 0.594 1.438 1.406 0.563zM18.688 18q0.813 0 1.406-0.563t0.594-1.438-0.594-1.438-1.406-0.563-1.406 0.563-0.594 1.438 0.594 1.438 1.406 0.563zM12 18q0.875 0 1.438-0.563t0.563-1.438-0.563-1.438-1.438-0.563-1.438 0.563-0.563 1.438 0.563 1.438 1.438 0.563zM29.313 4q1.063 0 1.875 0.813t0.813 1.875v18.625q0 1.063-0.813 1.875t-1.875 0.813h-19.875q-1.375 0-2.25-1.188l-7.188-10.813 7.188-10.813q0.875-1.188 2.125-1.188h20z"></path>
</svg>
