<?xml version="1.0" encoding="utf-8"?>
<!-- Generated by IcoMoon.io -->
<!DOCTYPE svg PUBLIC "-//W3C//DTD SVG 1.1//EN" "http://www.w3.org/Graphics/SVG/1.1/DTD/svg11.dtd">
<svg version="1.1" xmlns="http://www.w3.org/2000/svg" xmlns:xlink="http://www.w3.org/1999/xlink" width="32" height="32" viewBox="0 0 32 32">
<path d="M25.313 22.688q1.625 0 2.813-1.188t1.188-2.813-1.188-2.813-2.813-1.188-2.813 1.188-1.188 2.813 1.188 2.813 2.813 1.188zM10.438 20h-3.75v-2.688h3.75q-0.438-1.188-1.469-1.906t-2.281-0.719q-1.625 0-2.813 1.188t-1.188 2.813 1.188 2.813 2.813 1.188q1.25 0 2.281-0.75t1.469-1.938zM25.938 12.063q2.563 0.188 4.313 2.063t1.75 4.563q0 2.813-1.938 4.719t-4.75 1.906-4.719-1.906-1.906-4.719q0-1.25 0.375-2.375l-3.688 3.688h-2.188q-0.5 2.313-2.281 3.813t-4.219 1.5q-2.813 0-4.75-1.906t-1.938-4.719 1.938-4.75 4.75-1.938h15.438l-2.688-2.688h-4.75v-2.625h5.875z"></path>
</svg>
