<?xml version="1.0" encoding="utf-8"?>
<!-- Generated by IcoMoon.io -->
<!DOCTYPE svg PUBLIC "-//W3C//DTD SVG 1.1//EN" "http://www.w3.org/Graphics/SVG/1.1/DTD/svg11.dtd">
<svg version="1.1" xmlns="http://www.w3.org/2000/svg" xmlns:xlink="http://www.w3.org/1999/xlink" width="32" height="32" viewBox="0 0 32 32">
<path d="M20.125 16.25l1.563-0.688-1.563-0.688-0.688-1.563-0.688 1.563-1.563 0.688 1.563 0.688 0.688 1.563zM15.25 20.938l3.063-1.438-3.063-1.375-1.438-3.125-1.375 3.125-3.125 1.375 3.125 1.438 1.375 3.063zM24 5.313h5.313v18.688q0 1.063-0.781 1.875t-1.844 0.813h-21.375q-1.063 0-1.844-0.813t-0.781-1.875v-16q0-1.063 0.781-1.875t1.844-0.813h1.375l2.625 5.375h4l-2.625-5.375h2.625l2.688 5.375h4l-2.688-5.375h2.688l2.688 5.375h4z"></path>
</svg>
