<?xml version="1.0" encoding="utf-8"?>
<!-- Generated by IcoMoon.io -->
<!DOCTYPE svg PUBLIC "-//W3C//DTD SVG 1.1//EN" "http://www.w3.org/Graphics/SVG/1.1/DTD/svg11.dtd">
<svg version="1.1" xmlns="http://www.w3.org/2000/svg" xmlns:xlink="http://www.w3.org/1999/xlink" width="32" height="32" viewBox="0 0 32 32">
<path d="M10.688 20q0-1.625 1.188-2.813t2.813-1.188q0.438 0 1.313 0.25v-8.25h6.688v2.688h-4v9.375q0 1.625-1.188 2.781t-2.813 1.156-2.813-1.188-1.188-2.813zM28 25.313v-18.625h-24v18.625h24zM28 4q1.063 0 1.875 0.813t0.813 1.875v18.625q0 1.063-0.813 1.875t-1.875 0.813h-24q-1.063 0-1.875-0.813t-0.813-1.875v-18.625q0-1.063 0.813-1.875t1.875-0.813h24z"></path>
</svg>
