<?xml version="1.0" encoding="utf-8"?>
<!-- Generated by IcoMoon.io -->
<!DOCTYPE svg PUBLIC "-//W3C//DTD SVG 1.1//EN" "http://www.w3.org/Graphics/SVG/1.1/DTD/svg11.dtd">
<svg version="1.1" xmlns="http://www.w3.org/2000/svg" xmlns:xlink="http://www.w3.org/1999/xlink" width="32" height="32" viewBox="0 0 32 32">
<path d="M6 14.688q-0.875 0-1.438-0.594t-0.563-1.406 0.563-1.406 1.438-0.594 1.438 0.594 0.563 1.406-0.563 1.406-1.438 0.594zM29.563 12.25q0 3.563-2.375 6.188t-5.875 3.063v5.188h4v2.625h-21.313v-6.625h-1.313v-5.375q0-0.563 0.375-0.938t0.938-0.375h4q0.563 0 0.938 0.375t0.375 0.938v5.375h-1.313v4h10.688v-5.25q-3.375-0.563-5.594-3.156t-2.219-6.031q0-3.875 2.75-6.625t6.625-2.75 6.594 2.75 2.719 6.625z"></path>
</svg>
