<?xml version="1.0" encoding="utf-8"?>
<!-- Generated by IcoMoon.io -->
<!DOCTYPE svg PUBLIC "-//W3C//DTD SVG 1.1//EN" "http://www.w3.org/Graphics/SVG/1.1/DTD/svg11.dtd">
<svg version="1.1" xmlns="http://www.w3.org/2000/svg" xmlns:xlink="http://www.w3.org/1999/xlink" width="32" height="32" viewBox="0 0 32 32">
<path d="M16 9c2.483-0.008 4.493-2.022 4.493-4.507 0-2.489-2.018-4.507-4.507-4.507s-4.507 2.018-4.507 4.507c0 0.005 0 0.009 0 0.014-0 0.023-0.001 0.052-0.001 0.081 0 2.437 1.976 4.413 4.413 4.413 0.038 0 0.075-0 0.113-0.001zM16 18.507h-4.813v-3.507l-3.6 3.667c-0.283 0.359-0.718 0.587-1.207 0.587-0.847 0-1.533-0.686-1.533-1.533 0-0.442 0.187-0.84 0.486-1.12l6.001-6.107c0.443-0.49 1.081-0.796 1.791-0.796 0.074 0 0.146 0.003 0.218 0.010l5.324-0.001c0.014-0 0.031-0 0.047-0 0.732 0 1.392 0.307 1.858 0.799l6.094 6.095c0.392 0.281 0.644 0.736 0.644 1.249 0 0.847-0.686 1.533-1.533 1.533-0.544 0-1.021-0.283-1.293-0.709l-3.804-3.806v3.533zM20.707 20.307l-3.6 3.6 2.667 2.667-2.667 2.667c-0.333 0.288-0.542 0.711-0.542 1.182 0 0.862 0.698 1.56 1.56 1.56 0.472 0 0.895-0.209 1.181-0.54l4.308-4.402c0.497-0.485 0.805-1.161 0.805-1.909 0-0.644-0.228-1.235-0.608-1.696-0.13-0.129-3.13-3.129-3.13-3.129zM11.2 20.307l3.6 3.6-2.667 2.667 2.667 2.667c0.334 0.295 0.544 0.724 0.544 1.202 0 0.884-0.716 1.6-1.6 1.6-0.505 0-0.955-0.234-1.248-0.599l-4.309-4.403c-0.497-0.485-0.805-1.161-0.805-1.909 0-0.644 0.228-1.235 0.608-1.696 0.090-0.129 3.196-3.129 3.196-3.129z"></path>
</svg>
