<?xml version="1.0" encoding="utf-8"?>
<!-- Generated by IcoMoon.io -->
<!DOCTYPE svg PUBLIC "-//W3C//DTD SVG 1.1//EN" "http://www.w3.org/Graphics/SVG/1.1/DTD/svg11.dtd">
<svg version="1.1" xmlns="http://www.w3.org/2000/svg" xmlns:xlink="http://www.w3.org/1999/xlink" width="32" height="32" viewBox="0 0 32 32">
<path d="M31 31l-7.2-10.667c0.266-0.297 0.785-1.573 0.994-2.95l7.206-1.383-7.2-1.333c-0.537-3.785-3.568-6.853-7.416-7.46l-1.384-7.207-1.333 7.2c-0.298-0.057-1.701 0.356-2.946 1.026l-10.614-7.226 7.2 10.667c-0.243 0.21-0.838 1.519-1.098 2.945l-7.208 1.389 7.2 1.333c0.537 3.785 3.568 6.853 7.416 7.46l1.384 7.207 1.333-7.2c0.298 0.057 1.701-0.356 2.946-1.026zM16 8.8c0.008-0 0.017-0 0.027-0 3.962 0 7.173 3.212 7.173 7.173 0 0.009-0 0.019-0 0.028-0.003 0.904-0.199 1.85-0.551 2.715l-2.982-4.543-1.76-1.867-4.507-2.973c0.675-0.295 1.609-0.508 2.59-0.533zM17.333 16c0 0.736-0.597 1.333-1.333 1.333s-1.333-0.597-1.333-1.333c0-0.736 0.597-1.333 1.333-1.333s1.333 0.597 1.333 1.333zM16 23.2c-0.008 0-0.017 0-0.027 0-3.962 0-7.173-3.212-7.173-7.173 0-0.009 0-0.019 0-0.028 0.003-0.904 0.199-1.85 0.551-2.715l2.982 4.557 1.693 1.8 4.48 3.027c-0.697 0.317-1.577 0.521-2.502 0.533z"></path>
</svg>
