<?xml version="1.0" encoding="utf-8"?>
<!-- Generated by IcoMoon.io -->
<!DOCTYPE svg PUBLIC "-//W3C//DTD SVG 1.1//EN" "http://www.w3.org/Graphics/SVG/1.1/DTD/svg11.dtd">
<svg version="1.1" xmlns="http://www.w3.org/2000/svg" xmlns:xlink="http://www.w3.org/1999/xlink" width="32" height="32" viewBox="0 0 32 32">
<path d="M3.813 23.88h-2.667v5.213c0.079 1.623 1.414 2.909 3.050 2.909 0.043 0 0.087-0.001 0.13-0.003l23.354 0c0.049 0.003 0.106 0.004 0.163 0.004 1.636 0 2.972-1.287 3.050-2.904l0-5.22h-2.667v4.72c-0.014 0.615-0.516 1.109-1.133 1.109-0.024 0-0.047-0.001-0.070-0.002l-22.21 0c-0.020 0.001-0.043 0.002-0.067 0.002-0.617 0-1.119-0.493-1.133-1.107l-0-4.721h0.2z"></path>
<path d="M24.973 27.387v-4.12l-17.947-6.013v4.213zM11.133 17.253c-0.6-0.707-4.707-5.413-0.6-9.533 3.413-3.4 4.013-6.32 2.8-7.72 0 0 8.827 3.613 3.613 12-0.907 1.4-3.107 3.107-1.907 6.667zM16.547 18.453c-0.2-0.707-1-2.213 1.507-5.333 0.864-0.964 1.712-2.812 1.942-4.848s4.524 2.621 0.004 8.981zM17.547 19.36l7.427-2.413v4.12l-1.2 0.4zM14.44 25.333l-7.413 2.453v-4.107l1.333-0.4z"></path>
</svg>
