<?xml version="1.0" encoding="utf-8"?>
<!-- Generated by IcoMoon.io -->
<!DOCTYPE svg PUBLIC "-//W3C//DTD SVG 1.1//EN" "http://www.w3.org/Graphics/SVG/1.1/DTD/svg11.dtd">
<svg version="1.1" xmlns="http://www.w3.org/2000/svg" xmlns:xlink="http://www.w3.org/1999/xlink" width="32" height="32" viewBox="0 0 32 32">
<path d="M11 22.547c-0.022 0.001-0.047 0.002-0.073 0.002-0.191 0-0.372-0.040-0.536-0.112-0.682-0.313-1.224-1.028-1.324-1.879-0.091-0.596-0.854-1.681-1.891-2.4-0.221 0.015-1.199-0.872-1.829-1.982-0.356-0.637-0.592-1.457-0.615-2.329-0-0.023-0.001-0.043-0.001-0.062 0-2.121 1.719-3.84 3.84-3.84 0.042 0 0.085 0.001 0.127 0.002 0.014-0.001 0.037-0.001 0.061-0.001 2.121 0 3.84 1.719 3.84 3.84 0 0.019-0 0.038-0 0.057l1.6-0.003c0-0.020 0-0.043 0-0.067 0-2.997-2.43-5.427-5.427-5.427-0.024 0-0.047 0-0.071 0-0.020-0-0.049-0.001-0.077-0.001-2.997 0-5.427 2.43-5.427 5.427 0 0.028 0 0.057 0.001 0.085 0.008 1.040 0.303 2.151 0.819 3.128-0.33-0.211 0.75 1.32 2.163 2.453 0.493 0.205 1.075 0.826 1.346 1.594 0.154 0.955 0.962 2.107 2.080 2.809 0.382 0.198 0.81 0.306 1.264 0.306 0.031 0 0.063-0.001 0.094-0.002 1.702-0.015 3.081-1.398 3.089-3.106l-1.653-0.001c0.007 0.053 0.012 0.114 0.012 0.176 0 0.736-0.597 1.333-1.333 1.333-0.028 0-0.055-0.001-0.082-0.002zM3.6 8.947l-1.093-1.093c-1.548 1.533-2.507 3.659-2.507 6.008 0 0.030 0 0.060 0 0.089 0.017 2.311 0.97 4.467 2.509 6.051l1.091-1.109c-1.292-1.263-2.093-3.023-2.093-4.97 0-0.011 0-0.021 0-0.031 0.043-1.785 0.833-3.591 2.098-4.95zM6.667 13.947c-0 0.016-0.001 0.034-0.001 0.053 0 1.105 0.895 2 2 2s2-0.895 2-2c0-1.095-0.88-1.984-1.971-2-0.010-0-0.019-0-0.029-0-1.086 0-1.97 0.865-1.999 1.944zM21.467 15.747c-0.001-0.022-0.002-0.047-0.002-0.073 0-0.191 0.040-0.372 0.112-0.536l2.89 2.915c-0.2 0-0.4 0.107-0.6 0.107-1.304-0.044-2.346-1.105-2.36-2.412zM23.867 13.44c-0.022-0.001-0.047-0.002-0.073-0.002-0.191 0-0.372 0.040-0.536 0.112l2.902 2.89c0-0.2 0.107-0.4 0.107-0.6-0.022-1.304-1.070-2.357-2.371-2.387zM23.867 11.547c-0.010-0-0.022-0-0.034-0-0.772 0-1.517 0.112-2.221 0.321l0.949 0.879c0.369-0.194 0.806-0.307 1.269-0.307 0.023 0 0.045 0 0.068 0.001 1.758 0.015 3.182 1.439 3.197 3.198 0.001 0.028 0.001 0.059 0.001 0.091 0 0.454-0.109 0.882-0.302 1.26l1.607 1.584c-0.3 0.449 1.909-0.989 3.587-2.904s-3.587-4.122-8.093-4.122zM25.2 18.747c-0.362 0.186-0.791 0.295-1.244 0.295-0.031 0-0.063-0.001-0.094-0.002-1.757-0.015-3.18-1.439-3.195-3.198-0.001-0.028-0.001-0.059-0.001-0.091 0-0.454 0.109-0.882 0.302-1.26l-1.607-1.584c0.305-0.449-1.905 0.977-3.588 2.879s3.628 4.214 8.121 4.214c0.024 0 0.052 0 0.080 0 0.755 0 1.485-0.107 2.175-0.307zM29 20.853c0.092-0.107 0.148-0.247 0.148-0.4s-0.056-0.293-0.149-0.401l-9.333-9.333c-0.102-0.102-0.244-0.166-0.4-0.166-0.312 0-0.566 0.253-0.566 0.566 0 0.156 0.063 0.298 0.166 0.4l9.333 9.4c0.068 0.081 0.222 0.17 0.395 0.199-0.018 0.038 0.218-0.089 0.405-0.267z"></path>
</svg>
