<?xml version="1.0" encoding="utf-8"?>
<!-- Generated by IcoMoon.io -->
<!DOCTYPE svg PUBLIC "-//W3C//DTD SVG 1.1//EN" "http://www.w3.org/Graphics/SVG/1.1/DTD/svg11.dtd">
<svg version="1.1" xmlns="http://www.w3.org/2000/svg" xmlns:xlink="http://www.w3.org/1999/xlink" width="32" height="32" viewBox="0 0 32 32">
<path d="M19.293 12.253c-0.478 0.49-1.15 0.797-1.893 0.8-0.028 0.001-0.059 0.002-0.091 0.002-0.603 0-1.143-0.269-1.508-0.693l-6.469-6.509-0.6 0.6 2.16 2.2-7.2 7.2c0.124-0.185-0.239 0.21-0.485 0.677-0.152 0.302-0.237 0.638-0.237 0.994 0 0.126 0.011 0.249 0.031 0.369-1.751-1.667-2.924-4.109-3.002-6.826 0.004-2.504 1.023-4.772 2.666-6.414 1.654-1.648 3.936-2.667 6.455-2.667 0.013 0 0.027 0 0.040 0 0.066-0.002 0.146-0.003 0.227-0.003 1.441 0 2.8 0.356 3.991 0.986l1.42 0.884 4.707 4.707c0.399 0.463 0.642 1.071 0.642 1.736 0 0.773-0.329 1.469-0.854 1.956z"></path>
<path d="M14.2 12l-7.2 7.2c-0.339 0.314-0.794 0.507-1.295 0.507-0.014 0-0.027-0-0.041-0-1.090-0.028-1.969-0.907-1.998-1.997 0.002-0.505 0.188-0.975 0.496-1.339l7.197-7.197z"></path>
<path d="M32 11.147c-0.028 2.645-1.172 5.117-2.998 6.891l-3.802 3.816-7.8 7.693c-0.339 0.314-0.794 0.507-1.295 0.507-0.014 0-0.027-0-0.041-0-0.497-0.011-0.982-0.239-1.331-0.599-0.369-0.325-0.601-0.797-0.601-1.324 0-0.003 0-0.007 0-0.010-0-0.015-0.001-0.034-0.001-0.052 0-0.494 0.188-0.944 0.495-1.282l7.599-7.598-0.707-0.707-7.6 7.6c-0.339 0.314-0.794 0.507-1.295 0.507-0.014 0-0.027-0-0.041-0-1.032-0.065-1.857-0.894-1.918-1.928 0.002-0.508 0.188-0.978 0.496-1.342l7.597-7.597-0.8-0.8-7.6 7.6c-0.339 0.314-0.794 0.507-1.295 0.507-0.014 0-0.027-0-0.041-0-0.542-0.002-1.041-0.232-1.397-0.599-0.369-0.325-0.601-0.797-0.601-1.324 0-0.003 0-0.007 0-0.010-0-0.015-0.001-0.034-0.001-0.052 0-0.494 0.188-0.944 0.495-1.282l7.145-7.105 0.2 0.2c0.56 0.552 1.33 0.893 2.18 0.893 0.007 0 0.014-0 0.021-0 0.951-0.014 1.85-0.435 2.491-1.105 0.658-0.612 1.067-1.48 1.067-2.445 0-0.843-0.313-1.613-0.829-2.2l-3.49-3.543c1.63-1.552 3.841-2.507 6.275-2.507 0.030 0 0.060 0 0.089 0 2.486 0.014 4.794 1.028 6.491 2.669 1.726 1.624 2.82 3.948 2.837 6.528z"></path>
</svg>
