<?xml version="1.0" encoding="utf-8"?>
<!-- Generated by IcoMoon.io -->
<!DOCTYPE svg PUBLIC "-//W3C//DTD SVG 1.1//EN" "http://www.w3.org/Graphics/SVG/1.1/DTD/svg11.dtd">
<svg version="1.1" xmlns="http://www.w3.org/2000/svg" xmlns:xlink="http://www.w3.org/1999/xlink" width="32" height="32" viewBox="0 0 32 32">
<path d="M25.333 8.6v-4.467h-5.333v4.467c-3.2 3.333-3.2 4.133-3.2 4.533v15.333c0.022 1.684 1.382 3.044 3.065 3.067l5.602 0c1.684-0.022 3.044-1.382 3.067-3.065l0-15.335c0-0.4 0-1.2-3.2-4.533z"></path>
<path d="M25.333 2.8v-2.133c0-0.368-0.298-0.667-0.667-0.667h-4c-0.368 0-0.667 0.298-0.667 0.667v2.133h5.333z"></path>
<path d="M14.4 11c0-0.368-0.298-0.667-0.667-0.667h-9.6c-0.368 0-0.667 0.298-0.667 0.667v4.133h10.933v-4.133z"></path>
<path d="M3.467 16.4v3.067c-0 0.006-0 0.014-0 0.022 0 2.774 2.086 5.060 4.775 5.376l0.025 5.802h-2.133c-0.368 0-0.667 0.298-0.667 0.667s0.298 0.667 0.667 0.667h5.533c0.368 0 0.667-0.298 0.667-0.667s-0.298-0.667-0.667-0.667h-2.067v-5.8c2.709-0.341 4.786-2.626 4.8-5.399v-3.068h-10.933z"></path>
</svg>
