<?xml version="1.0" encoding="utf-8"?>
<!-- Generated by IcoMoon.io -->
<!DOCTYPE svg PUBLIC "-//W3C//DTD SVG 1.1//EN" "http://www.w3.org/Graphics/SVG/1.1/DTD/svg11.dtd">
<svg version="1.1" xmlns="http://www.w3.org/2000/svg" xmlns:xlink="http://www.w3.org/1999/xlink" width="32" height="32" viewBox="0 0 32 32">
<path d="M32 17.8c-0.019 0.322-0.277 0.58-0.598 0.6l-3.295 0v10.933c-0.019 0.322-0.277 0.58-0.598 0.6l-10.282 0c0.053 0.126-0.661-0.355-1.194-0.993-0.049 0.049-0.522-0.582-0.796-1.312 0.012-0.028 0.038-0.028 0.064-0.028 0.398 0 0.788-0.034 1.167-0.1 4.866-0.714 6.199-4.608 6.199-7.608 0-4.693-6.093-7.387-6.093-7.387 0 2.493-3.493 5.333-3.493 5.333s-3.4 2.4-3.4 5.187c0.106 2.016 1.483 3.746 3.365 4.377-0.097-0.442-0.174-0.961-0.174-1.498 0-0.754 0.15-1.473 0.422-2.129-1.547 2.029 0.201-0.681 2.472-2.849 0.312-0.189 0.912-1.061 1.199-2.066 0.157 0.275 0.243 0.638 0.243 1.022 0 0.455-0.122 0.881-0.335 1.249-0.887 1.481-2.594 2.081-2.887 4.775-0.010 0.122-0.015 0.265-0.015 0.408 0 1.47 0.574 2.805 1.511 3.794l-11.042-0.003c-0.322-0.019-0.58-0.277-0.6-0.598l-0-11.015h-3.293c-0.16-0.002-0.305-0.079-0.399-0.199-0.093-0.108-0.149-0.248-0.149-0.401s0.056-0.293 0.149-0.401l15.373-15.373c0.091-0.118 0.236-0.197 0.399-0.2 0.030-0.006 0.063-0.010 0.097-0.010 0.164 0 0.309 0.082 0.396 0.208l7.894 7.895v-1.333c-0.001-0.012-0.001-0.027-0.001-0.041 0-0.34 0.265-0.618 0.599-0.639l2.495-0c0.322 0.019 0.58 0.277 0.6 0.598l0 5.095 3.8 3.8c0.119 0.053 0.2 0.17 0.2 0.305 0 0 0 0.001 0 0.001z"></path>
</svg>
