<?xml version="1.0" encoding="utf-8"?>
<!-- Generated by IcoMoon.io -->
<!DOCTYPE svg PUBLIC "-//W3C//DTD SVG 1.1//EN" "http://www.w3.org/Graphics/SVG/1.1/DTD/svg11.dtd">
<svg version="1.1" xmlns="http://www.w3.org/2000/svg" xmlns:xlink="http://www.w3.org/1999/xlink" width="32" height="32" viewBox="0 0 32 32">
<path d="M19.053 23.44c-4.049-0.006-7.747-1.599-10.487-4.193-0.272-0.345-0.705-0.574-1.192-0.58-0.144-0.002-0.509 0.159-0.804 0.403-0.327 0.615-2.686 2.172-5.378 2.946-0.193 0.071-0.304 0.099-0.421 0.099-0.231 0-0.436-0.106-0.571-0.273-0.118-0.134-0.189-0.31-0.189-0.501s0.071-0.367 0.188-0.501c0.599-1.199 1.093-2.399 1.693-3.492 0.235-0.417 0.374-0.916 0.374-1.447s-0.139-1.030-0.381-1.462c-0.552-1.185-1.099-2.438-1.699-3.478-0.094-0.141-0.15-0.314-0.15-0.5s0.056-0.359 0.152-0.503c0.164-0.163 0.394-0.266 0.648-0.266 0.126 0 0.246 0.025 0.356 0.071 0.755-0.063 3.306 1.135 5.345 2.906 0.204 0.305 0.569 0.511 0.983 0.511s0.778-0.207 0.997-0.522c2.75-2.614 6.474-4.219 10.572-4.219 5.045 0 9.521 2.432 12.322 6.187 0.375 0.367 0.59 0.829 0.59 1.341s-0.215 0.973-0.56 1.299c-2.325 3.35-6.434 5.837-11.137 6.184-0.088 0-0.132-0.002-0.176-0.002-0.204 0-0.399 0.036-0.579 0.102-0.125-0.071-0.287-0.111-0.458-0.111-0.013 0-0.026 0-0.039 0.001zM27.733 14.107c-0.036-0.538-0.481-0.961-1.025-0.961-0.015 0-0.030 0-0.044 0.001-0.55-0-0.998 0.448-0.998 1 0.014 0.556 0.468 1.002 1.026 1.002 0.024 0 0.047-0.001 0.070-0.002 0.543-0.007 0.984-0.452 0.984-1 0-0 0-0 0-0z"></path>
</svg>
