<?xml version="1.0" encoding="utf-8"?>
<!-- Generated by IcoMoon.io -->
<!DOCTYPE svg PUBLIC "-//W3C//DTD SVG 1.1//EN" "http://www.w3.org/Graphics/SVG/1.1/DTD/svg11.dtd">
<svg version="1.1" xmlns="http://www.w3.org/2000/svg" xmlns:xlink="http://www.w3.org/1999/xlink" width="32" height="32" viewBox="0 0 32 32">
<path d="M10 13.88c-0.2-1-1.707-0.547-1.707-0.547s-1.507 0.307-1.2 1.333v0.2c0.208-0.221 0.732-0.498 1.317-0.598 0.332-0.086 0.694-0.134 1.067-0.134 0.161 0 0.32 0.009 0.476 0.026l-0.019-0.282zM13.8 15.88c-0.347 0.511-1.056 0.976-1.877 1.104-0.297 0.082-0.62 0.127-0.953 0.127-0.454 0-0.889-0.085-1.288-0.24 0.008-0.069 0.087 0.156 0.129 0.395 0.165 0.93 0.956 1.616 1.907 1.616 0.215 0 0.422-0.035 0.615-0.1 0.942-0.151 1.662-0.971 1.662-1.958 0-0.194-0.028-0.381-0.080-0.558 0.032 0.083-0.026-0.169-0.122-0.401zM13.333 12.080s-1.507 0.307-1.2 1.333v0.2c0.208-0.221 0.732-0.498 1.316-0.598 0.332-0.086 0.694-0.134 1.067-0.134 0.161 0 0.32 0.009 0.476 0.026l-0.019-0.228c-0.173-1-1.64-0.6-1.64-0.6z"></path>
<path d="M32 18.28s-2.107-0.293-2.8-0.507 1-1.6 0-2c-0.324-0.089-0.697-0.14-1.081-0.14-0.511 0-1.001 0.090-1.455 0.256 0.229-1.009 0.429-2.009 0.536-2.676l0.2-1-0.893 0.507-0.8 0.307c-1.107-0.040-3.040-0.147-5-0.44 0.52 0.178-1.686-0.198-3.773-0.846-0.12-1.287-0.627-3.46-0.827-4.46l-0.2-1-0.6 0.8-0.64 0.6c4.537-1.683 0.172 0.207-4.467 1.419 1.914-0.384-1.427 0.465-4.887 0.94-0.263 0.028-0.282 0.029-0.301 0.029-0.325 0-0.623-0.116-0.854-0.309l-0.851-0.425 0.293 1.053c0.507 1.8 1.333 5.333 1.507 5.507s0.093 0.2 0.093 0.307c-0.356-0.145-0.768-0.228-1.2-0.228s-0.844 0.084-1.222 0.236c-0.978 0.285 0.729 1.792 0.022 1.992s-2.8 0.467-2.8 0.467l1.907 0.6-1.333 1.2 3.293-0.6s1.6-0.4 1-1.333c-0.693-1.333 0.507-0.707 1.333-0.2 1.8 2.747 5 4.253 7 3.747 0.148 0.021 0.729-0.229 1.207-0.605 0.993 2.299 2.793 4.005 4.299 4.205 2.4 0.4 6.8-2.4 7.507-6.667 0-0.107 0.107-0.6 0.2-1.333 0.707-0.293 1.333-0.6 0.8 0.507s1 1.333 1 1.333l3.293 0.6-1.333-1.2zM17.333 16.080h0.107c0.201 0.066 0.433 0.104 0.673 0.104 0.321 0 0.626-0.068 0.901-0.19l-0.014 0.206c-0.2 1-1.6 0.707-1.6 0.707h-0.2c0.087-0.209 0.137-0.451 0.137-0.705 0-0.043-0.001-0.085-0.004-0.127zM12.893 21.080c-1.8 0.4-5.907-1.6-6.907-5.507-0.093-0.2-0.907-3.307-1.333-4.8 0.699 0.128 1.504 0.201 2.326 0.201 1.162 0 2.291-0.146 3.367-0.421l0.053 0.020c0.755 0.051 3.094-0.889 5.037-2.333 0.27 1.533 0.963 4.626 0.963 4.826 0.933 3.92-1.733 7.613-3.507 8.013zM21.293 22.28c0.021-0.043-0.029 0.194-0.112 0.416-0.433-0.47-1.165-0.837-1.982-0.908-0.213-0.042-0.444-0.066-0.68-0.066-0.558 0-1.085 0.132-1.552 0.368 0.020-0.012 0.020-0.017 0.020-0.021 0-0.143 0.040-0.277 0.109-0.392 0.123-0.977 0.952-1.727 1.956-1.727 0.157 0 0.309 0.018 0.455 0.053 1.028 0.049 1.853 0.905 1.853 1.955 0 0.114-0.010 0.225-0.028 0.334zM24.093 17.080c-0.2 1-1.6 0.707-1.6 0.707s-1.507-0.2-1.333-1.2v-0.2c0.315 0.27 0.798 0.475 1.327 0.506 0.188 0.054 0.396 0.084 0.612 0.084 0.326 0 0.636-0.070 0.915-0.196l-0.014 0.312z"></path>
</svg>
