<?xml version="1.0" encoding="utf-8"?>
<!-- Generator: Adobe Illustrator 19.1.0, SVG Export Plug-In . SVG Version: 6.00 Build 0)  -->
<svg version="1.1" id="Layer_1" xmlns="http://www.w3.org/2000/svg" xmlns:xlink="http://www.w3.org/1999/xlink" x="0px" y="0px"
	 viewBox="-15 17 32 32" style="enable-background:new -15 17 32 32;" xml:space="preserve">
<g>
	<path d="M8.1,22.2c0,1.2-0.9,2.1-2.1,2.1s-2.1-0.9-2.1-2.1c0-1.2,0.9-2.1,2.1-2.1S8.1,21.1,8.1,22.2z"/>
	<path d="M10.9,33.9v-6.4c0-1.4-0.8-2.8-2.4-2.8H3.8c-1.5,0-2.4,1.2-2.4,2.7v1.3l-0.2-0.5c-0.2-0.6-0.7-1.7-2.1-1.7l0,0h-3.2
		c-1.4,0-1.9,1.1-2.1,1.7l-1.6,5.4c-0.4,1.2,1.2,1.6,1.5,0.5l1.5-5h0.4L-7.1,38h2.4V45c0,1.2,1.8,1.2,1.8,0V38h0.7V45
		c0,1.2,1.8,1.2,1.8,0V38h2.4l-2.6-8.9h0.4l1.5,5c0.1,0.4,0.4,0.6,0.7,0.6c0.5,0.1,1-0.2,1-0.9v-6.3h0.5v17c0,0.6,0.5,1.2,1.2,1.2
		s1.2-0.5,1.2-1.2v-9.8h0.5v9.8c0,0.6,0.5,1.2,1.2,1.2s1.2-0.5,1.2-1.2v-17h0.5v6.3C9.3,35.2,10.9,35.2,10.9,33.9z"/>
	<path d="M-0.6,24.2c0,1.1-0.9,1.9-1.9,1.9s-1.9-0.9-1.9-1.9c0-1.1,0.9-1.9,1.9-1.9S-0.6,23.1-0.6,24.2z"/>
	<path d="M17,38.2l-1-3.4c-0.1-0.4-0.5-1.1-1.3-1.1l0,0h-2c-0.8,0-1.2,0.7-1.3,1.1l-1,3.4c-0.2,0.7,0.7,1,0.9,0.3l0.9-3.2h0.3
		l-1.6,5.6h1.5v4.3c0,0.7,1.1,0.7,1.1,0v-4.4h0.5v4.4c0,0.7,1.1,0.7,1.1,0v-4.3h1.5l-1.6-5.6h0.3l0.9,3.1
		C16.2,39.2,17.2,38.9,17,38.2z"/>
	<path d="M14.8,32.2c0,0.7-0.5,1.2-1.2,1.2c-0.7,0-1.2-0.5-1.2-1.2s0.5-1.2,1.2-1.2C14.3,31,14.8,31.5,14.8,32.2z"/>
	<path d="M-10.3,29.4c0,0.8-0.6,1.4-1.4,1.4s-1.4-0.6-1.4-1.4c0-0.8,0.6-1.4,1.4-1.4C-11,28-10.3,28.6-10.3,29.4z"/>
	<path d="M-10.1,31.2h-3.2c-1,0-1.7,0.8-1.7,1.9v4.5c0,0.9,1.2,0.9,1.2,0v-4.3h0.4V45c0,0.5,0.4,0.8,0.8,0.8c0.5,0,0.8-0.4,0.8-0.8
		v-6.9h0.4V45c0,0.5,0.4,0.8,0.8,0.8c0.5,0,0.8-0.4,0.8-0.8V33.2h0.4v4.3c0,0.9,1.2,0.9,1.1,0v-4.4C-8.4,32.2-9,31.2-10.1,31.2z"/>
</g>
</svg>
