<?xml version="1.0" encoding="utf-8"?>
<!-- Generated by IcoMoon.io -->
<!DOCTYPE svg PUBLIC "-//W3C//DTD SVG 1.1//EN" "http://www.w3.org/Graphics/SVG/1.1/DTD/svg11.dtd">
<svg version="1.1" xmlns="http://www.w3.org/2000/svg" xmlns:xlink="http://www.w3.org/1999/xlink" width="32" height="32" viewBox="0 0 32 32">
<path d="M29 11.493c-0.994 0-1.8 0.806-1.8 1.8s0.806 1.8 1.8 1.8c0.98 0 1.777-0.783 1.8-1.758 0.001-0.018 0.001-0.037 0.001-0.055 0-0.987-0.8-1.787-1.787-1.787-0.005 0-0.010 0-0.015 0zM3 11.493c-0.994 0-1.8 0.806-1.8 1.8s0.806 1.8 1.8 1.8c0.98 0 1.777-0.783 1.8-1.758 0.001-0.018 0.001-0.037 0.001-0.055 0-0.987-0.8-1.787-1.787-1.787-0.005 0-0.010 0-0.015 0zM23.6 8.2c-1.473 0-2.667 1.194-2.667 2.667s1.194 2.667 2.667 2.667c1.473 0 2.667-1.194 2.667-2.667s-1.194-2.667-2.667-2.667zM32 24.6h-3.107v-5.693c-0.007-0.905-0.268-1.862-0.722-2.698 0.221-0.038 0.456-0.078 0.702-0.078 0.040 0 0.080 0.001 0.12 0.003-0.005-0-0.005-0-0.005-0 1.65 0 2.991 1.326 3.013 2.971l0 5.509zM8.4 8.2c-1.473 0-2.667 1.194-2.667 2.667s1.194 2.667 2.667 2.667c1.473 0 2.667-1.194 2.667-2.667s-1.194-2.667-2.667-2.667c0 0 0 0 0 0zM3.067 16.107c0.293 0 0.6 0.107 0.8 0.107-0.445 0.728-0.708 1.608-0.708 2.55 0 0.041 0.001 0.082 0.002 0.122l-0 5.701h-3.16v-5.48c0.007-1.654 1.346-2.992 2.999-3zM16 2.8c-2.209 0-4 1.791-4 4s1.791 4 4 4c2.209 0 4-1.791 4-4s-1.791-4-4-4zM27.893 26.667h-4.693v-8.573c-0.001-1.199-0.297-2.342-0.819-3.347 0.254-0.046 0.722-0.137 1.208-0.159 0.019-0 0.028-0 0.038-0 2.356 0 4.267 1.91 4.267 4.267 0 0.009-0 0.019-0 0.028v7.785zM8.8 18.107v8.56h-4.707v-7.76c0.015-2.345 1.919-4.24 4.267-4.24 0.014 0 0.028 0 0.042 0 0.312-0.001 0.786 0.074 1.233 0.209-0.517 0.893-0.821 2.025-0.835 3.226zM9.693 29.2h12.507v-11.093c0.004-0.087 0.007-0.188 0.007-0.29 0-3.483-2.824-6.307-6.307-6.307s-6.307 2.824-6.307 6.307c0 0.102 0.002 0.203 0.007 0.304l-0.001 11.079h0.093z"></path>
</svg>
