<?xml version="1.0" encoding="utf-8"?>
<!-- Generated by IcoMoon.io -->
<!DOCTYPE svg PUBLIC "-//W3C//DTD SVG 1.1//EN" "http://www.w3.org/Graphics/SVG/1.1/DTD/svg11.dtd">
<svg version="1.1" xmlns="http://www.w3.org/2000/svg" xmlns:xlink="http://www.w3.org/1999/xlink" width="32" height="32" viewBox="0 0 32 32">
<path d="M6.667 24.64v-9.88c0.667-0.007 1.206-0.546 1.213-1.213v-1.201h-6.253v1.213c0.007 0.667 0.546 1.206 1.213 1.213l0.001 9.88h3.827zM14.12 24.64v-9.88c0.667-0.007 1.206-0.546 1.213-1.213v-1.201h-6.253v1.213c0.007 0.667 0.546 1.206 1.213 1.213l0.001 9.88h3.827zM21.48 24.64v-9.88c0.651-0.021 1.172-0.548 1.187-1.199l0-1.215h-6.227v1.213c0.007 0.667 0.546 1.206 1.213 1.213l0.001 9.88h3.827zM28.933 24.64v-9.88c0.667-0.007 1.206-0.546 1.213-1.213v-1.201h-6.24v1.213c0.007 0.667 0.546 1.206 1.213 1.213l0.001 9.88h3.813zM30.267 28.373h-1.227v-2.52h-26v2.52h-1.213c-0.667 0.007-1.206 0.546-1.213 1.213v1.214c0.007 0.667 0.546 1.206 1.213 1.213h28.521c0.667-0.007 1.206-0.546 1.213-1.213v-1.214c-0.112-0.636-0.641-1.139-1.3-1.213zM1.627 11.040h28.627c0.667-0.007 1.206-0.546 1.213-1.213 0.001-0.017 0.001-0.037 0.001-0.057 0-0.473-0.289-0.878-0.701-1.048l-14.221-8.576c-0.176-0.092-0.385-0.146-0.607-0.146s-0.43 0.054-0.614 0.149l-14.299 8.663c-0.354 0.193-0.591 0.562-0.591 0.987 0 0.154 0.031 0.3 0.087 0.434 0.158 0.455 0.59 0.789 1.102 0.806zM16 4c0.149-0.030 0.321-0.047 0.497-0.047 1.473 0 2.667 1.194 2.667 2.667s-1.194 2.667-2.667 2.667c-0.176 0-0.347-0.017-0.514-0.049-1.456 0.003-2.65-1.191-2.65-2.664 0.052-1.432 1.225-2.573 2.665-2.573 0.001 0 0.001 0 0.002 0z"></path>
</svg>
