<?xml version="1.0" encoding="utf-8"?>
<!-- Generated by IcoMoon.io -->
<!DOCTYPE svg PUBLIC "-//W3C//DTD SVG 1.1//EN" "http://www.w3.org/Graphics/SVG/1.1/DTD/svg11.dtd">
<svg version="1.1" xmlns="http://www.w3.org/2000/svg" xmlns:xlink="http://www.w3.org/1999/xlink" width="32" height="32" viewBox="0 0 32 32">
<path d="M21.493 25.707c-1.538 3.712-5.133 6.276-9.325 6.276-5.56 0-10.067-4.507-10.067-10.067 0-3.85 2.162-7.196 5.338-8.889l0.361 2.867c-1.86 1.377-3.053 3.564-3.053 6.029 0 4.131 3.349 7.48 7.48 7.48s7.48-3.349 7.48-7.48c0-0.010-0-0.021-0-0.031v-0.292zM8.16 3.040v0c0-1.657 1.343-3 3-3s3 1.343 3 3c-0.030 1.641-1.367 2.96-3.013 2.96-0.019 0-0.038-0-0.057-0.001l0.003 0 0.307 5.893h7.907v2.507h-7.8l0.093 2.107h10.2l4.307 9.2 2.893-1.333 0.893 2-5.333 2.4-4.4-9.693h-11.053z"></path>
</svg>
