<?xml version="1.0" encoding="utf-8"?>
<!-- Generated by IcoMoon.io -->
<!DOCTYPE svg PUBLIC "-//W3C//DTD SVG 1.1//EN" "http://www.w3.org/Graphics/SVG/1.1/DTD/svg11.dtd">
<svg version="1.1" xmlns="http://www.w3.org/2000/svg" xmlns:xlink="http://www.w3.org/1999/xlink" width="32" height="32" viewBox="0 0 32 32">
<path d="M17.507 7.347v21.907h4.4v1.893h-11.8v-1.893h4.4v-21.907h-9.507v-1.893h9.507v-4.6h3v4.6h9.507v1.893h-9.507z"></path>
<path d="M5 7.347l-5 11.707c0 1.6 2.2 2.893 5 2.893s5-1.333 5-2.893zM0.8 19.053l4.2-9.8 4.2 9.8h-8.4zM27 7.347l-5 11.707c0 1.6 2.2 2.893 5 2.893s5-1.333 5-2.893zM22.8 19.053l4.2-9.8 4.2 9.8h-8.4z"></path>
</svg>
