<?xml version="1.0" encoding="utf-8"?>
<!-- Generated by IcoMoon.io -->
<!DOCTYPE svg PUBLIC "-//W3C//DTD SVG 1.1//EN" "http://www.w3.org/Graphics/SVG/1.1/DTD/svg11.dtd">
<svg version="1.1" xmlns="http://www.w3.org/2000/svg" xmlns:xlink="http://www.w3.org/1999/xlink" width="32" height="32" viewBox="0 0 32 32">
<path d="M15.6 5.547c-2.32-1.653-6.825-3.34-11.689-3.792l-0.111 22.245c3.198 0.045 7.876 1.443 11.943 3.783l-0.143-22.236zM28.093 1.747c-3.321 0.056-7.944 1.486-11.928 3.871l0.128 22.036c2.266-1.554 6.803-3.195 11.684-3.645l0.116-22.262z"></path>
<path d="M15.507 28.747c0.133 0.049 0.287 0.077 0.447 0.077s0.314-0.028 0.456-0.080c3.705-1.691 8.048-2.679 12.62-2.679 0.341 0 0.681 0.006 1.020 0.016l-0.049-21.935h-1.2v20.4h-0.293c-3.492 0.055-8.233 1.481-12.339 3.875 0.038-0.029-0.082-0.002-0.207-0.002s-0.245-0.027-0.352-0.076c-2.641-1.8-7.195-3.429-12.102-3.792l-0.399-0.006v-20.4h-1.2v22c0.331-0.013 0.72-0.020 1.111-0.020 4.519 0 8.813 0.964 12.686 2.699z"></path>
<path d="M32 6.667c-0.293-0.063-0.63-0.099-0.974-0.099-0.079 0-0.158 0.002-0.237 0.006l0.011 20.4h-0.4c-0.44-0.022-0.955-0.035-1.473-0.035-4.572 0-8.911 0.995-12.813 2.781l-0.114 0.028-0.307-0.107c-3.68-1.71-7.988-2.707-12.529-2.707-0.55 0-1.097 0.015-1.64 0.044l-0.324-0.003v-20.427c-0.4 0-0.8 0.12-1.2 0.12v22.28c-0.113-0.089 0.172 0.073 0.401 0.294 1.594-0.275 3.431-0.432 5.304-0.432 3.421 0 6.72 0.523 9.821 1.494l1.167-0.063c2.868-0.908 6.167-1.431 9.588-1.431 1.873 0 3.71 0.157 5.498 0.458-0.318 0.065-0.082-0.16 0.198-0.315l0.010-22.285z"></path>
</svg>
