<?xml version="1.0" encoding="utf-8"?>
<!-- Generated by IcoMoon.io -->
<!DOCTYPE svg PUBLIC "-//W3C//DTD SVG 1.1//EN" "http://www.w3.org/Graphics/SVG/1.1/DTD/svg11.dtd">
<svg version="1.1" xmlns="http://www.w3.org/2000/svg" xmlns:xlink="http://www.w3.org/1999/xlink" width="32" height="32" viewBox="0 0 32 32">
<path d="M30.28 13.213c0.090-0.534 0.141-1.15 0.141-1.777 0-4.514-2.66-8.406-6.499-10.194-4.216-1.869-11.536-1.869-15.296 1.691-1.473 1.057-3.372 3.969-4.128 7.315 0.001-0.166-0.279 0.997-0.413 2.205-0.006 0.56 0.581 0.76 0.487 1.053s-0.693 0.987-1.187 1.88c0.626-1.079-0.805 0.859-1.736 3.060-0.011 0.581 0.373 0.966 0.853 0.994 0.3 0.014 0.8 0.242 1.192 0.589 0.091 0.198-0.296 0.891-0.296 1.331-0.002 0.018-0.003 0.038-0.003 0.059 0 0.251 0.169 0.462 0.399 0.527 0.404 0.094 0.991 0.201 0.991 0.201s-1.333 0.2-1.187 0.787c-1.104-1.439-0.188-0.043 0.984 1.090-0.325 0.64-0.558 1.511-0.584 2.435 0.093 1.342 1.333 1.982 3.56 1.688s2.96-0.587 3.16 0.493c0.2 0.693 0.093 1.88 0.4 3.16v0.2h15.213c-0.93-1.573-1.48-3.467-1.48-5.489 0-0.015 0-0.031 0-0.046 0-1.678 0.2-4.144 1.333-5.438 1.627-1.973 3.6-4.253 4.093-7.813zM24 16.68s-0.2 2.173-1.773 2.467c-0.049 0.003-0.106 0.005-0.164 0.005-0.871 0-1.642-0.431-2.11-1.091l-0.499 2.165h-1.040c0.246 0.282-0.442-1.904-1.522-3.841-0.051-0.064-0.693-0.432-1.411-0.606-0.743-0.028-1.536-0.36-2.152-0.89-0.19-0.236-0.308-0.546-0.308-0.883s0.118-0.646 0.315-0.889c-0.059 0.004-0.126 0.004-0.193 0.004-1.024 0-2.014-0.147-2.95-0.42-2.059-0.475-1.459-1.768-1.459-1.768-0.023 0.002-0.050 0.003-0.077 0.003-0.384 0-0.722-0.195-0.92-0.492-0.223-0.372-0.354-0.816-0.354-1.291s0.13-0.919 0.357-1.298c0.126-0.381 0.715-0.986 1.454-1.314s-0.273-0.408 0.42-0.995c0.278-0.204 0.649-0.338 1.051-0.347 0.107-0.417 0.541-0.924 1.109-1.194 0.317-0.164 0.676-0.257 1.057-0.257 0.301 0 0.588 0.058 0.852 0.163 0.139-0.392 0.594-0.811 1.157-0.988 0.203-0.056 0.419-0.085 0.643-0.085 0.418 0 0.812 0.104 1.158 0.288 0.415-0.294 0.943-0.465 1.51-0.465 0.060 0 0.119 0.002 0.178 0.006 0.042-0.006 0.1-0.008 0.159-0.008 0.522 0 0.991 0.229 1.311 0.593 0.285-0.116 0.614-0.184 0.959-0.184 0.204 0 0.403 0.024 0.594 0.069 0.38 0.105 0.786 0.484 0.966 0.972 0.213-0.132 0.472-0.218 0.751-0.218 0.213 0 0.415 0.050 0.594 0.139 0.388 0.11 0.85 0.533 1.081 1.077 0.043 0.009 0.087 0.007 0.132 0.007 0.67 0 1.213 0.543 1.213 1.213 0 0.045-0.002 0.089-0.007 0.132 0.336 0.092 0.76 0.475 0.982 0.969 0.11 0.183 0.172 0.391 0.172 0.613 0 0.279-0.098 0.535-0.262 0.735 0.643 0.669 1.038 1.581 1.038 2.585 0 0.094-0.003 0.187-0.010 0.279 0.201 2.454-1.333 2.948-1.333 2.948 0.056 0.182 0.089 0.392 0.089 0.608 0 0.395-0.107 0.764-0.294 1.081-0.394 0.372-0.936 0.606-1.532 0.606-0.337 0-0.656-0.075-0.943-0.209z"></path>
</svg>
