<?xml version="1.0" encoding="utf-8"?>
<!-- Generated by IcoMoon.io -->
<!DOCTYPE svg PUBLIC "-//W3C//DTD SVG 1.1//EN" "http://www.w3.org/Graphics/SVG/1.1/DTD/svg11.dtd">
<svg version="1.1" xmlns="http://www.w3.org/2000/svg" xmlns:xlink="http://www.w3.org/1999/xlink" width="32" height="32" viewBox="0 0 32 32">
<path d="M21.333 10.667v-10.667h-10.667v10.667h-10.667v10.667h10.667v10.667h10.667v-10.667h10.667v-10.667h-10.667zM15.547 21.427l-0.093-3.093c0.094-0.332 0.525-0.816 1.080-1.087l-0.080 3.087c-0.036 0.23-0.271 0.574-0.595 0.797zM17.44 16.093c0.129-0.046-0.379 0.4-0.978 0.684-0.793 0.354-1.4 1.146-1.514 2.090-0.395-0.4-0.668-1.006-0.694-1.675 0.103-0.444 0.57-1.012 1.186-1.332 0.84-0.394 1.491-1.259 1.613-2.286l0.001-1.707c0.601 0.484 1.038 1.279 1.093 2.178 0.019 0.113 0.029 0.233 0.029 0.356 0 0.639-0.284 1.211-0.733 1.597zM16.547 14.4c0.115-0.013-0.462 0.639-1.182 1.083l-0.218-7.403c0.093 0 0.2-0.093 0.293-0.093 0.49-0.035 0.95-0.346 1.196-0.792zM15.347 7.827c-0.493 0.038-1.005 0.344-1.329 0.794-0.044 0.127-0.067 0.266-0.067 0.411 0 0.3 0.099 0.576 0.265 0.799l0.491 0.797v1.64c-0.961-0.781-1.569-1.963-1.569-3.287 0-0.499 0.086-0.978 0.245-1.423 0.281-0.747 1.018-1.295 1.883-1.304 0.052-0.011 0.111-0.017 0.171-0.017 0.418 0 0.765 0.306 0.829 0.706 0.187 0.431-0.266 0.631-0.919 0.831zM15.147 24.827c-0.275-0.323-0.442-0.745-0.442-1.206 0-0.14 0.015-0.275 0.044-0.406 0.091-0.671 0.604-1.385 1.317-1.781 0.582-0.521 0.938-1.262 0.938-2.086 0-0.146-0.011-0.29-0.033-0.43 0.324 0.378 0.521 0.859 0.521 1.385 0 0.114-0.009 0.227-0.027 0.336-0.057 0.803-0.576 1.57-1.318 1.981-0.639 0.339-1.059 0.987-1.059 1.732 0 0.169 0.021 0.332 0.062 0.488zM17.040 26.52c-0.044 0.294-0.274 0.614-0.594 0.797 0.192-0.433 0.362-1.138 0.393-1.878 0.152 0.215 0.242 0.494 0.242 0.795 0 0.102-0.010 0.201-0.030 0.296zM16 3.693c0.004-0 0.009-0 0.013-0 0.434 0 0.787 0.352 0.787 0.787 0 0.005-0 0.009-0 0.014v2.173c-0.163-0.43-0.571-0.73-1.050-0.73-0.101 0-0.198 0.013-0.291 0.038l-0.206-0.002v-1.333c-0.028-0.073-0.044-0.157-0.044-0.245 0-0.39 0.316-0.707 0.707-0.707 0.030 0 0.059 0.002 0.087 0.005zM16 27.92c-0.2 0-0.293-0.2-0.293-0.693v-0.56l-0.093-2.893c0.066-0.398 0.379-0.755 0.792-0.891l-0.085 3.584c0.016 0.082-0.105 0.471-0.3 0.813-0.018 0.046-0.032 0.115-0.032 0.187s0.014 0.141 0.040 0.204l-0.028 0.143h0.093c0.053 0.093-0.093 0.093-0.093 0.093z"></path>
</svg>
