<?xml version="1.0" encoding="utf-8"?>
<!-- Generated by IcoMoon.io -->
<!DOCTYPE svg PUBLIC "-//W3C//DTD SVG 1.1//EN" "http://www.w3.org/Graphics/SVG/1.1/DTD/svg11.dtd">
<svg version="1.1" xmlns="http://www.w3.org/2000/svg" xmlns:xlink="http://www.w3.org/1999/xlink" width="32" height="32" viewBox="0 0 32 32">
<path d="M13 16c0 1.657 1.343 3 3 3s3-1.343 3-3c0-1.657-1.343-3-3-3-0.016-0-0.035-0.001-0.054-0.001-1.627 0-2.947 1.319-2.947 2.947 0 0.019 0 0.038 0.001 0.057zM11.667 16v0c0.002-1.584 0.881-2.965 2.178-3.682-1.178-2.104-2.872-5.011-3.872-6.678-3.59 2.111-5.967 5.957-5.973 10.359l7.693 0.001zM16 0c-8.837 0-16 7.163-16 16s7.163 16 16 16c8.837 0 16-7.163 16-16s-7.163-16-16-16zM16 29.333c-7.364 0-13.333-5.97-13.333-13.333s5.97-13.333 13.333-13.333c7.364 0 13.333 5.97 13.333 13.333s-5.97 13.333-13.333 13.333zM22 5.6c-1 1.707-2.667 4.6-3.893 6.667 1.321 0.729 2.2 2.112 2.2 3.701 0 0.011-0 0.023-0 0.034l7.693-0.002c0-0.002 0-0.005 0-0.008 0-4.418-2.388-8.279-5.943-10.362zM16 20.267c-0.843-0.007-1.696-0.269-2.421-0.719-1.179 2.119-2.873 5.012-3.873 6.679 1.757 1.11 3.901 1.771 6.199 1.773 0.030 0 0.064 0 0.098 0 2.256 0 4.363-0.635 6.153-1.736-1.051-1.677-2.718-4.571-3.944-6.637-0.581 0.418-1.306 0.669-2.090 0.669-0.043 0-0.087-0.001-0.13-0.002z"></path>
</svg>
