<?xml version="1.0" encoding="utf-8"?>
<!-- Generated by IcoMoon.io -->
<!DOCTYPE svg PUBLIC "-//W3C//DTD SVG 1.1//EN" "http://www.w3.org/Graphics/SVG/1.1/DTD/svg11.dtd">
<svg version="1.1" xmlns="http://www.w3.org/2000/svg" xmlns:xlink="http://www.w3.org/1999/xlink" width="32" height="32" viewBox="0 0 32 32">
<path d="M28.707 15.147h-10.040v1.507h10.107v-1.507zM17 5.333h-9.8v1.52h9.8v-1.52zM28.707 21.533h-10.040v1.507h10.107v-1.493zM28.707 18.333h-10.040v1.507h10.107v-1.493zM26.907 28.333h-25.107v-21.187h0.6v-1.813h-2.4v24.8h28.707v-2.4h-1.8v0.6zM28.507 5.333h-9.84v8h9.893v-8zM17 21.547h-9.8v1.507h9.8v-1.507zM3.707 1.853v24.813h28.293v-24.813h-28.293zM30.2 24.853h-24.693v-21.333h24.693v21.333zM17 18.347h-9.8v1.507h9.8v-1.507zM17 8.653h-9.8v1.493h9.8v-1.493zM17 15.147h-9.8v1.493h9.8v-1.493zM17 11.947h-9.8v1.493h9.8v-1.44z"></path>
</svg>
