<?xml version="1.0" encoding="utf-8"?>
<!-- Generated by IcoMoon.io -->
<!DOCTYPE svg PUBLIC "-//W3C//DTD SVG 1.1//EN" "http://www.w3.org/Graphics/SVG/1.1/DTD/svg11.dtd">
<svg version="1.1" xmlns="http://www.w3.org/2000/svg" xmlns:xlink="http://www.w3.org/1999/xlink" width="32" height="32" viewBox="0 0 32 32">
<path d="M28.893 14.6c-3.313-3.277-7.87-5.301-12.9-5.301s-9.587 2.024-12.902 5.303c-1.092-1.108-2.092-2.202-3.092-3.308 4.132-4.013 9.777-6.488 16-6.488s11.868 2.474 16.006 6.493c-1.006 1.101-2.006 2.035-3.112 3.301z"></path>
<path d="M9.8 21l-3.133-3.2c2.392-2.474 5.74-4.009 9.447-4.009s7.055 1.536 9.443 4.006l-3.196 3.204c-1.536-1.594-3.744-2.627-6.193-2.667-0.057-0.001-0.116-0.002-0.175-0.002-2.438 0-4.636 1.024-6.189 2.664zM19.133 24.107l-3.133 3.093-3.107-3.107c0.907-1.693 5-1.693 6.213 0z"></path>
</svg>
