<?xml version="1.0" encoding="utf-8"?>
<!-- Generated by IcoMoon.io -->
<!DOCTYPE svg PUBLIC "-//W3C//DTD SVG 1.1//EN" "http://www.w3.org/Graphics/SVG/1.1/DTD/svg11.dtd">
<svg version="1.1" xmlns="http://www.w3.org/2000/svg" xmlns:xlink="http://www.w3.org/1999/xlink" width="32" height="32" viewBox="0 0 32 32">
<path d="M15.093 21.080h-6.4c-0.129 0.008-0.285 0.084-0.4 0.2 1.52-2.078-0.209-0.039-1.445 2.301-0.407 0.704-0.636 1.474-0.648 2.296-0 2.003 0.6 3.003 2 3.003h6.893c0.335-0.005 0.605-0.277 0.605-0.613 0-0.028-0.002-0.056-0.006-0.083l0-6.503c0.005-0.026 0.007-0.057 0.007-0.087 0-0.287-0.233-0.52-0.52-0.52-0.031 0-0.061 0.003-0.091 0.008zM9.893 17.68c-1.067-0.741-0.261-0.093 0.65 0.38 0.336 0.114 0.536 0.020 0.536-0.18 0.005-0.088-0.070-0.337-0.191-0.555s-2.596-4.938-2.889-5.445c-0.162-0.243-0.436-0.402-0.746-0.402-0.019 0-0.038 0.001-0.057 0.002-0.691-0-6.397 0.2-6.397 0.2-0.008-0.001-0.018-0.001-0.027-0.001-0.258 0-0.467 0.209-0.467 0.467 0 0.010 0 0.019 0.001 0.029 0.031 0.13 0.144 0.249 0.29 0.291l1.003 0.521c0.181 0.118 0.298 0.32 0.298 0.549 0 0.128-0.037 0.247-0.1 0.348l-1.198 1.797c-0.24 0.292-0.513 0.934-0.598 1.635-0.002 0.514 0.148 0.976 0.404 1.361s3.888 6.658 3.994 6.991 0.6 0.293 0.6-0.2c0.012-0.851 0.309-1.755 0.811-2.511l3.189-5.075c0.118-0.181 0.32-0.298 0.549-0.298 0.128 0 0.247 0.037 0.348 0.1zM5.333 8.587l5.493 3.6c0.11 0.088 0.252 0.142 0.406 0.142 0.241 0 0.452-0.131 0.565-0.325s3.295-5.203 3.495-5.336c0.047-0.069 0.076-0.155 0.076-0.247s-0.028-0.178-0.077-0.248c0.378 0.744-0.264-1.067-1.232-2.657-0.018-0.274-0.684-1.095-1.548-1.624q-2.566-1.664-3.619-0.011l-3.693 5.8c-0.059 0.105-0.093 0.231-0.093 0.365 0 0.212 0.087 0.404 0.227 0.541zM23.493 10.48c0.317-0.003 0.587-0.205 0.692-0.488 0.295-0.605 3.095-5.699 3.095-5.699 0.093-0.293 0.093-0.493-0.2-0.6-0.010-0-0.022-0.001-0.034-0.001-0.134 0-0.261 0.035-0.37 0.096l-0.889 0.491c-0.098 0.062-0.217 0.098-0.345 0.098-0.229 0-0.43-0.118-0.547-0.296l-1.002-1.896c0.101-0.006-0.408-0.765-1.086-1.327-0.362-0.192-0.782-0.302-1.228-0.302-0.040 0-0.079 0.001-0.118 0.003l-8.128-0c-0.087 0.055-0.144 0.151-0.144 0.26s0.057 0.205 0.143 0.259c0.501 0.171 1.27 0.924 1.685 1.868l2.81 5.359c0.058 0.087 0.092 0.193 0.092 0.308 0 0.211-0.117 0.395-0.29 0.49 0.073-0.008-0.33 0.249-0.783 0.396-0.133 0.048-0.211 0.155-0.211 0.281 0 0.087 0.038 0.165 0.097 0.218 0.108 0.065 0.239 0.103 0.378 0.103 0.041 0 0.081-0.003 0.12-0.010 0.102 0.187 5.662 0.387 6.262 0.387zM31.693 15.68l-3.8-5.8c-0.118-0.181-0.32-0.298-0.549-0.298-0.128 0-0.247 0.037-0.348 0.1l-5.504 3.652c-0.181 0.118-0.298 0.32-0.298 0.549 0 0.128 0.037 0.247 0.1 0.348s3.398 5.091 3.492 5.331c0.070 0.122 0.2 0.203 0.348 0.203 0.018 0 0.036-0.001 0.054-0.004l2.811 0c0.568-0.006 1.455-0.269 2.228-0.708q2.519-1.719 1.465-3.372zM30.493 20.28c-0.661 0.436-1.472 0.696-2.343 0.696-0.053 0-0.105-0.001-0.157-0.003l-6.086 0.094c-0.009 0-0.019 0.001-0.030 0.001-0.345 0-0.629-0.262-0.663-0.598l-0-0.896c0-0 0-0.001 0-0.001 0-0.184-0.149-0.333-0.333-0.333-0.059 0-0.114 0.015-0.162 0.042l-0.398 0.399s-2.667 4.893-3 5.333c-0.043 0.106-0.068 0.228-0.068 0.357 0 0.2 0.060 0.385 0.163 0.54l3.598 5.33c0.072 0.138 0.215 0.231 0.379 0.231 0.124 0 0.236-0.053 0.314-0.138 0.094-0 0.094-0.2 0.094-0.4v-0.96c0.011-0.334 0.269-0.606 0.597-0.64l2.203-0c0.084 0.008 0.182 0.013 0.281 0.013 0.56 0 1.084-0.154 1.533-0.421 0.015 0.076 0.535-0.439 0.87-1.067s3.503-6.912 3.609-7.219 0-0.56-0.4-0.36z"></path>
</svg>
