<?xml version="1.0" encoding="utf-8"?>
<!-- Generated by IcoMoon.io -->
<!DOCTYPE svg PUBLIC "-//W3C//DTD SVG 1.1//EN" "http://www.w3.org/Graphics/SVG/1.1/DTD/svg11.dtd">
<svg version="1.1" xmlns="http://www.w3.org/2000/svg" xmlns:xlink="http://www.w3.org/1999/xlink" width="32" height="32" viewBox="0 0 32 32">
<path d="M13.52 23.48c0.015 1.638-0.321 4.607-0.945 7.468-0.052-0.146-0.213-0.059-0.395-0.059-0.055 0-0.108-0.008-0.158-0.023-0.196-0.092-1.329-0.599-1.676-0.692-0.179-0.13-0.294-0.338-0.294-0.574 0-0.009 0-0.019 0.001-0.028l-0.787-3.999h0.693c0.196 1.551-0.712-2.736-1.164-7.158-0.031-1.123 0.18-2.691 0.567-4.189 0.064-0.066 0.371-0.76 0.864-0.16 0.238 0.414 1.072 1.039 2.050 1.326 0.138 0.062 0.28 0.098 0.429 0.101l0.001 1.093c0.082-0.152 0.593 3.247 0.805 6.727zM20.853 30.013s-1.787-9.413-1.787-9.813c-0.189-0.779-0.297-1.673-0.297-2.593 0-0.096 0.001-0.192 0.004-0.288 0.011-2.544 0.864-4.976 2.304-6.954 0.069-0.059 0.376-0.365 0.763 0.128-3.874-5.897-1.115-0.947 2.519 3.22-2.035-2.023 0.263 0.662 3.070 2.684-0.122 0.206-0.238 0.443-0.238 0.707 0 0.043 0.003 0.086 0.009 0.128 0.035-0.003 0.076-0.002 0.117-0.002 0.243 0 0.478-0.035 0.699-0.101-0.035-0.036-0.045-0.083-0.045-0.132 0-0.105 0.047-0.2 0.121-0.263 0.176 0.206 0.669 0.487 1.224 0.597l-2.423 14.069 0.6 0.2 2.373-14.16c0.316-0.041 0.592-0.278 0.692-0.594 0.002-0.016 0.002-0.027 0.002-0.038 0-0.286-0.161-0.534-0.397-0.66 1.789 1.595-1.466-0.742-3.975-3.727-0.809-0.622-2.441-3.519-3.179-6.757-0.050-0.179-0.066-0.25-0.066-0.325 0-0.221 0.138-0.41 0.333-0.485 0.204-0.001 0.404 0.092 0.604 0.092 0.056 0.005 0.121 0.008 0.187 0.008 1.273 0 2.307-1.019 2.333-2.285 0-1.508-1.221-2.729-2.727-2.729s-2.727 1.221-2.727 2.727c0.012 0.048 0.019 0.102 0.019 0.159 0 0.281-0.171 0.523-0.414 0.626-0.477-0.082-2.67 1.379-4.253 3.351-1.138 1.085-2.436 3.547-2.875 6.296 0.086 0.142-0.129 0.029-0.305-0.127-1.072-0.418-1.84-1.447-1.878-2.661-0.121-0.003 0.311-1.76 1.023-3.364 0.085-0.086 0.287-0.202 0.517-0.202 0.016 0 0.033 0.001 0.049 0.002 1.275-0.238 2.241-1.334 2.278-2.663-0.026-1.457-1.21-2.624-2.667-2.624-1.473 0-2.667 1.194-2.667 2.667 0 0.016 0 0.033 0 0.049-0 0.598 0.093 0.784 0.093 1.091 0.001 0.121-0.162 0.444-0.401 0.694-4.159 3.666-8.119 10.399-7.999 19.999h1.853l-0.4 6.040h3.573c0.693 0 0.6-0.6 0.2-0.693 1.958 0.635-0.003 0.117-1.809-0.686-0.041-0.046-0.145-0.213-0.145-0.405 0-0.089 0.022-0.172 0.062-0.246l1.092-3.997h1.333l2.040 6.027h8c0.003 0 0.006 0 0.009 0 0.209 0 0.391-0.118 0.483-0.29 0.095-0.203-0.292-0.403-0.399-0.403 0.293 0.142-0.506-0.114-1.218-0.509-0.088-0.058-0.167-0.188-0.167-0.337 0-0.050 0.009-0.099 0.026-0.143 0.44-1.872 0.693-4.025 0.693-6.236 0-0.028-0-0.057-0-0.085 0.4 0.991 0.987 2.484 1.333 3.871-0.439-1.692 0.391 0.881 0.867 3.577 0.049 0.392 0.215 0.559 0.425 0.583l3.469 0c0.215-0.013 0.387-0.184 0.4-0.399-0.005-0.184-0.124-0.34-0.29-0.4l-1.643-0.561c-0.239-0.124-0.4-0.37-0.4-0.653 0-0 0-0 0-0z"></path>
</svg>
