<?xml version="1.0" encoding="utf-8"?>
<!-- Generated by IcoMoon.io -->
<!DOCTYPE svg PUBLIC "-//W3C//DTD SVG 1.1//EN" "http://www.w3.org/Graphics/SVG/1.1/DTD/svg11.dtd">
<svg version="1.1" xmlns="http://www.w3.org/2000/svg" xmlns:xlink="http://www.w3.org/1999/xlink" width="32" height="32" viewBox="0 0 32 32">
<path d="M9.333 0c-0 0-0 0-0 0-0.523 0-0.947 0.424-0.947 0.947 0 0.057 0.005 0.112 0.014 0.166 0.021 0.5 0.436 0.901 0.945 0.901 0.057 0 0.112-0.005 0.167-0.015l0.488 0.001v10.2l-9.107 14c-0.481 0.549-0.841 1.381-0.893 2.296-0.009 0.096-0.014 0.195-0.014 0.295 0 0.956 0.434 1.811 1.115 2.378l0.005 0.004c0.636 0.55 1.478 0.89 2.399 0.893h25.001c0.109 0.014 0.236 0.021 0.364 0.021 0.912 0 1.732-0.393 2.301-1.019 0.526-0.618 0.873-1.468 0.896-2.398-0.002-0.885-0.341-1.693-0.896-2.301l0.002-0.171-9.173-14v-10.2h0.507c0.016 0.001 0.036 0.002 0.055 0.002 0.523 0 0.947-0.424 0.947-0.947 0-0.019-0.001-0.038-0.002-0.058 0.001-0.014 0.002-0.033 0.002-0.052 0-0.523-0.424-0.947-0.947-0.947-0.019 0-0.038 0.001-0.058 0.002l-13.171-0zM12 2h8v2h-1.6c-0.268 0.020-0.48 0.236-0.493 0.505 0.060 0.283 0.303 0.495 0.599 0.508l1.495 0v2.987h-1.6c-0.268 0.020-0.48 0.236-0.493 0.505 0.060 0.283 0.303 0.495 0.599 0.508l1.495 0v2.987h-1.6c-0.242 0.041-0.425 0.249-0.425 0.5s0.182 0.459 0.422 0.5l1.603 0 1.893 3h-1.693c-0.025-0.004-0.053-0.007-0.082-0.007-0.28 0-0.507 0.227-0.507 0.507s0.227 0.507 0.507 0.507c0.029 0 0.057-0.002 0.085-0.007l2.197 0 1.893 3h-5.893c0.169-0.259 0.269-0.575 0.269-0.915 0-0.030-0.001-0.059-0.002-0.089 0-1.1-0.895-1.996-2-1.996s-2 0.895-2 2c-0 0.008-0 0.018-0 0.028 0 0.364 0.115 0.701 0.31 0.977l-7.67-0.005 4.587-6.893 0.2-0.2-0.093-10.907zM13 23c0.552 0 1 0.448 1 1s-0.448 1-1 1c-0.552 0-1-0.448-1-1-0.001-0.016-0.002-0.036-0.002-0.055 0-0.523 0.424-0.947 0.947-0.947 0.019 0 0.039 0.001 0.058 0.002zM15.507 27c0.004-0 0.009-0 0.013-0 0.28 0 0.507 0.227 0.507 0.507s-0.227 0.507-0.507 0.507c-0.28 0-0.507-0.227-0.507-0.506-0.001-0.012-0.002-0.026-0.002-0.041 0-0.258 0.209-0.467 0.467-0.467 0.010 0 0.020 0 0.030 0.001z"></path>
</svg>
