<svg xmlns="http://www.w3.org/2000/svg" width="32" height="32" viewBox="0 0 32 32"><path d="M23.1 5.2c0 1.16-.94 2.1-2.1 2.1s-2.1-.94-2.1-2.1c0-1.16.94-2.1 2.1-2.1s2.1.94 2.1 2.1zm2.8 11.7v-6.4c0-1.4-.8-2.8-2.4-2.8h-4.7c-1.5 0-2.4 1.2-2.4 2.7v1.3l-.2-.6c-.2-.6-.7-1.7-2.1-1.7h-3.3c-1.4 0-1.9 1.1-2.1 1.7L7 16.5c-.3 1.2 1.2 1.6 1.5.5l1.5-5h.4l-2.6 8.9h2.4v6.9c0 1.2 1.8 1.2 1.8 0v-7h.7v7c0 1.2 1.8 1.2 1.8 0v-6.9h2.4L14.3 12h.4l1.5 5c.1.4.4.6.7.6.5.1 1-.2 1-.9v-6.3h.5v17c0 .6.5 1.2 1.2 1.2.6 0 1.2-.5 1.2-1.2v-9.8h.5v9.8c0 .6.5 1.2 1.2 1.2s1.2-.5 1.2-1.2v-17h.5v6.3c.1 1.5 1.7 1.5 1.7.2zM14.4 7.2c0 1.05-.85 1.9-1.9 1.9s-1.9-.85-1.9-1.9c0-1.05.85-1.9 1.9-1.9s1.9.85 1.9 1.9zm17.6 14l-1-3.4c-.1-.4-.5-1.1-1.3-1.1h-2c-.9 0-1.2.7-1.3 1.1l-1 3.4c-.2.7.7 1 .9.3l.9-3.1h.3L25.9 24h1.5v4.3c0 .7 1.1.7 1.1 0v-4.4h.5v4.4c0 .7 1.1.7 1.1 0V24h1.5L30 18.4h.3l.9 3.1c0 .7 1 .4.8-.3zm-2.2-6c0 .663-.537 1.2-1.2 1.2s-1.2-.537-1.2-1.2c0-.663.537-1.2 1.2-1.2s1.2.537 1.2 1.2zM4.7 12.4c0 .828-.672 1.5-1.5 1.5s-1.5-.672-1.5-1.5.672-1.5 1.5-1.5 1.5.672 1.5 1.5zm.2 1.8H1.6c-1 0-1.7.8-1.7 1.9v4.5c0 .9 1.1.9 1.1 0v-4.4h.4V28c0 .5.4.8.8.8.5 0 .8-.4.8-.8v-6.8h.4V28c0 .5.4.8.8.8.5 0 .8-.4.8-.8V16.2h.4v4.4c0 .9 1.1.9 1.1 0v-4.4c.1-1.1-.4-2-1.6-2z"/></svg>