<?xml version="1.0" encoding="utf-8"?>
<!-- Generated by IcoMoon.io -->
<!DOCTYPE svg PUBLIC "-//W3C//DTD SVG 1.1//EN" "http://www.w3.org/Graphics/SVG/1.1/DTD/svg11.dtd">
<svg version="1.1" xmlns="http://www.w3.org/2000/svg" xmlns:xlink="http://www.w3.org/1999/xlink" width="32" height="32" viewBox="0 0 32 32">
<path d="M14.88 13.333v13.467c-0.107 1.533-1.376 2.736-2.927 2.736s-2.82-1.203-2.926-2.726c-0.064-0.566-0.532-0.995-1.101-0.995s-1.037 0.429-1.1 0.98c-0 2.848 2.304 5.152 5.146 5.152s5.147-2.304 5.147-5.147v-13.467c-0.29-0.178-0.642-0.283-1.018-0.283-0.036 0-0.072 0.001-0.107 0.003-0.008-0.001-0.024-0.001-0.040-0.001-0.395 0-0.765 0.104-1.086 0.286z"></path>
<path d="M29.213 14.88c-0.175-6.765-5.395-12.278-12.039-12.916l-0.054-0.858c-0.063-0.557-0.532-0.985-1.1-0.985s-1.037 0.429-1.1 0.98l-0 0.858c-6.799 0.6-12.096 6.257-12.12 13.158v0.002c-0 0.004-0 0.009-0 0.013 0 0.604 0.49 1.093 1.093 1.093 0.005 0 0.009-0 0.014-0h-0.001c0.004 0 0.009 0 0.013 0 0.604 0 1.093-0.489 1.093-1.093 0-0.005-0-0.009-0-0.014v0.001c-0.004-0.059-0.007-0.128-0.007-0.198 0-1.62 1.313-2.933 2.933-2.933s2.933 1.313 2.933 2.933c0 0.070-0.002 0.139-0.007 0.207 0-0.005 0-0.001 0 0.004 0 0.604 0.489 1.093 1.093 1.093 0.005 0 0.009-0 0.014-0 0.561-0.001 1.025-0.415 1.105-0.954l0.001-0.139c0.107-1.533 1.376-2.736 2.927-2.736s2.82 1.203 2.926 2.726l0 0.143c0.081 0.545 0.545 0.959 1.107 0.96 0.004 0 0.009 0 0.014 0 0.604 0 1.093-0.489 1.093-1.093 0-0.005-0-0.009-0-0.014 0.051-1.58 1.344-2.842 2.932-2.842 1.527 0 2.782 1.167 2.921 2.657l0.001 0.185c-0 0.004-0 0.009-0 0.013 0 0.604 0.489 1.093 1.093 1.093 0.005 0 0.009-0 0.014-0h-0.001c0.004 0 0.009 0 0.013 0 0.604 0 1.093-0.489 1.093-1.093 0-0.005-0-0.009-0-0.014 0.008-0.035 0.012-0.077 0.012-0.119s-0.005-0.084-0.013-0.124z"></path>
</svg>
