<?xml version="1.0" encoding="utf-8"?>
<!-- Generated by IcoMoon.io -->
<!DOCTYPE svg PUBLIC "-//W3C//DTD SVG 1.1//EN" "http://www.w3.org/Graphics/SVG/1.1/DTD/svg11.dtd">
<svg version="1.1" xmlns="http://www.w3.org/2000/svg" xmlns:xlink="http://www.w3.org/1999/xlink" width="32" height="32" viewBox="0 0 32 32">
<path d="M31.907 11.853c-1.907-1-5.8-0.907-7-0.907h-0.2c-0.836 0-1.731 0.073-2.603 0.213 0.441 0.016 0.71 0.302 0.71 0.652 0 0.368-0.298 0.667-0.667 0.667s-0.667-0.298-0.667-0.667c0-0.349 0.269-0.636 0.611-0.664-0.504 0.107-0.998 0.2-1.398 0.306-1.097 0.448-2.841 0.826-4.665 0.893-1.427-0.004-3.2-0.339-4.844-0.941-0.291-0.058-0.784-0.152-1.291-0.258h-0.093c-0.698-0.118-1.591-0.195-2.502-0.2l-0.205-0c-1.333 0-5.107 0-7 0.907-0.048 0.33-0.075 0.712-0.075 1.1s0.027 0.77 0.080 1.143c-0.035-0.36 0.781 1.32 1.217 3.147 0.418 2.196 1.725 3.796 5.618 3.796 0.156 0.012 0.339 0.018 0.522 0.018 2.067 0 3.936-0.849 5.276-2.217 1.908-2.201 1.108-4.508 3.308-4.508s1.333 2.307 3.307 4.507c1.342 1.37 3.211 2.218 5.278 2.218 0.184 0 0.366-0.007 0.547-0.020 3.883 0.001 5.176-1.599 5.576-3.705-0.075-0.3 0.425-1.928 1.229-3.364 0.006-0.225 0.025-0.551 0.025-0.882 0-0.435-0.035-0.863-0.101-1.28zM6.893 20.36c-4.6 0-5.107-2.307-5.107-5.107 0-2.307 0.707-3.707 5.507-3.707 4.4 0 6.107 1.333 6.107 3.107-0.067 2.893-1.6 5.707-6.507 5.707zM25.107 20.36c-4.907 0-6.667-2.8-6.667-5.8 0-1.8 1.707-3.107 6.107-3.107 4.907 0 5.507 1.507 5.507 3.707 0.16 2.893-0.347 5.2-4.947 5.2z"></path>
</svg>
