<?xml version="1.0" encoding="utf-8"?>
<!-- Generated by IcoMoon.io -->
<!DOCTYPE svg PUBLIC "-//W3C//DTD SVG 1.1//EN" "http://www.w3.org/Graphics/SVG/1.1/DTD/svg11.dtd">
<svg version="1.1" xmlns="http://www.w3.org/2000/svg" xmlns:xlink="http://www.w3.org/1999/xlink" width="32" height="32" viewBox="0 0 32 32">
<path d="M23.093 32c-0.035 0.006-0.075 0.009-0.116 0.009-0.139 0-0.269-0.038-0.381-0.104l-6.597-3.545-6.587 3.507c-0.153 0.089-0.336 0.142-0.532 0.142-0.254 0-0.487-0.089-0.67-0.237-0.258-0.203-0.423-0.517-0.423-0.87 0-0.083 0.009-0.164 0.027-0.242l1.332-7.379-5.333-5.187c-0.205-0.205-0.332-0.488-0.332-0.801 0-0.104 0.014-0.205 0.040-0.3 0.108-0.369 0.453-0.695 0.883-0.791l7.395-1.095 3.293-6.667c0.195-0.36 0.569-0.6 1-0.6s0.805 0.24 0.997 0.594l3.296 6.673 7.387 1.093c0.393 0.068 0.749 0.38 0.891 0.791 0.027 0.096 0.041 0.197 0.041 0.301 0 0.313-0.127 0.596-0.332 0.801l-5.333 5.187 1.333 7.387c0.010 0.058 0.016 0.124 0.016 0.191 0 0.36-0.161 0.683-0.414 0.901-0.24 0.143-0.55 0.235-0.88 0.241zM21.333 11.387h-1.2c-0.007 0-0.016 0-0.024 0-0.424 0-0.792-0.241-0.973-0.594l-0.936-1.699c-0.6-1.093-0.493-1.6 1-1.6h2c0.462 0.037 0.823 0.422 0.823 0.891 0 0.072-0.009 0.142-0.025 0.209l0.001 1.701c0.093 0.6-0.107 1.093-0.667 1.093z"></path>
<path d="M11.707 11.387h-1.493c-0.499-0.030-0.892-0.442-0.892-0.945 0-0.052 0.004-0.104 0.012-0.154l-0.001-1.795c-0.007-0.044-0.012-0.095-0.012-0.148 0-0.508 0.4-0.923 0.903-0.946l2.282-0c1.333 0 1.8 0.293 1 1.6l-0.907 1.667c-0.104 0.403-0.461 0.703-0.892 0.72zM18.6 6.667h-5.493c-0 0-0.001 0-0.001 0-0.374 0-0.703-0.195-0.89-0.489l-2.883-4.764c-0.096-0.158-0.153-0.349-0.153-0.553s0.057-0.395 0.155-0.558c0.165-0.206 0.421-0.34 0.709-0.34 0.093 0 0.183 0.014 0.268 0.040l11.38-0.002c0.078-0.024 0.168-0.038 0.261-0.038 0.288 0 0.544 0.134 0.71 0.343 0.095 0.158 0.15 0.347 0.15 0.549s-0.055 0.39-0.151 0.552l-2.864 4.702c-0.149 0.174-0.636 0.446-1.182 0.557z"></path>
</svg>
