<?xml version="1.0" encoding="utf-8"?>
<!-- Generated by IcoMoon.io -->
<!DOCTYPE svg PUBLIC "-//W3C//DTD SVG 1.1//EN" "http://www.w3.org/Graphics/SVG/1.1/DTD/svg11.dtd">
<svg version="1.1" xmlns="http://www.w3.org/2000/svg" xmlns:xlink="http://www.w3.org/1999/xlink" width="32" height="32" viewBox="0 0 32 32">
<path d="M28 21.313v-2q0-0.813-0.563-1.406t-1.438-0.594-1.438 0.594-0.563 1.406v2h4zM29.313 21.313q0.563 0 0.969 0.406t0.406 0.969v5.313q0 0.563-0.406 0.938t-0.969 0.375h-6.625q-0.563 0-0.969-0.375t-0.406-0.938v-5.313q0-0.563 0.406-0.969t0.969-0.406v-2q0-1.375 0.969-2.344t2.344-0.969 2.344 0.969 0.969 2.344v2zM26 13.313q-2.5 0-4.25 1.75t-1.75 4.25v0.375q-1.313 1.188-1.313 3v4h-17.375l25.375-25.375v12.063q-0.125 0-0.344-0.031t-0.344-0.031z"></path>
</svg>
