<?xml version="1.0" encoding="utf-8"?>
<!-- Generated by IcoMoon.io -->
<!DOCTYPE svg PUBLIC "-//W3C//DTD SVG 1.1//EN" "http://www.w3.org/Graphics/SVG/1.1/DTD/svg11.dtd">
<svg version="1.1" xmlns="http://www.w3.org/2000/svg" xmlns:xlink="http://www.w3.org/1999/xlink" width="32" height="32" viewBox="0 0 32 32">
<path d="M6.688 17.313q4-4 9.75-3.813l-1.75 3.813q-3.063 0.375-5.375 2.688zM22.688 20q-0.688-0.688-1.625-1.313l0.75-3.875q2 1 3.5 2.5zM28 14.688q-2.438-2.438-5.5-3.688l0.688-3.75q4.313 1.563 7.5 4.75zM1.313 12q3.688-3.688 8.531-5.156t9.781-0.594l-1.563 3.563q-3.813-0.5-7.531 0.781t-6.531 4.094zM21.188 6.688q0.688 0 0.688 0.625l-3.25 17.188v0.063q-0.188 0.875-0.938 1.5t-1.688 0.625q-1.125 0-1.906-0.781t-0.781-1.906q0-0.688 0.313-1.313l6.938-15.5q0.188-0.5 0.625-0.5z"></path>
</svg>
