<?xml version="1.0" encoding="utf-8"?>
<!-- Generated by IcoMoon.io -->
<!DOCTYPE svg PUBLIC "-//W3C//DTD SVG 1.1//EN" "http://www.w3.org/Graphics/SVG/1.1/DTD/svg11.dtd">
<svg version="1.1" xmlns="http://www.w3.org/2000/svg" xmlns:xlink="http://www.w3.org/1999/xlink" width="32" height="32" viewBox="0 0 32 32">
<path d="M14.688 24.688l5.313-5.375-5.313-5.313-1.375 1.313 4 4-4 4zM13.313 6.688v2.625h5.375v-2.625h-5.375zM18.688 4q1.063 0 1.844 0.781t0.781 1.906v2.625h5.375q1.063 0 1.844 0.813t0.781 1.875v14.688q0 1.063-0.781 1.844t-1.844 0.781h-21.375q-1.063 0-1.844-0.781t-0.781-1.844v-14.688q0-1.063 0.781-1.875t1.844-0.813h5.375v-2.625q0-1.063 0.781-1.875t1.844-0.813h5.375z"></path>
</svg>
