<?xml version="1.0" encoding="utf-8"?>
<!-- Generated by IcoMoon.io -->
<!DOCTYPE svg PUBLIC "-//W3C//DTD SVG 1.1//EN" "http://www.w3.org/Graphics/SVG/1.1/DTD/svg11.dtd">
<svg version="1.1" xmlns="http://www.w3.org/2000/svg" xmlns:xlink="http://www.w3.org/1999/xlink" width="32" height="32" viewBox="0 0 32 32">
<path d="M24 8v16h-16v-16h5.313v2.688h-2.625v10.625h10.625v-10.625h-4v3q1.375 0.75 1.375 2.313 0 1.063-0.813 1.875t-1.875 0.813-1.875-0.813-0.813-1.875q0-1.563 1.375-2.313v-3q0-1.063 0.781-1.875t1.844-0.813h6.688zM26.688 26.688v-21.375h-21.375v21.375h21.375zM26.688 2.688q1.063 0 1.844 0.781t0.781 1.844v21.375q0 1.063-0.781 1.844t-1.844 0.781h-21.375q-1.063 0-1.844-0.781t-0.781-1.844v-21.375q0-1.063 0.781-1.844t1.844-0.781h21.375z"></path>
</svg>
