<?xml version="1.0" encoding="utf-8"?>
<!-- Generated by IcoMoon.io -->
<!DOCTYPE svg PUBLIC "-//W3C//DTD SVG 1.1//EN" "http://www.w3.org/Graphics/SVG/1.1/DTD/svg11.dtd">
<svg version="1.1" xmlns="http://www.w3.org/2000/svg" xmlns:xlink="http://www.w3.org/1999/xlink" width="32" height="32" viewBox="0 0 32 32">
<path d="M11.875 8v1.625l-2.438-2.438q0.313-2.5 2.156-4.188t4.406-1.688q2.75 0 4.719 1.969t1.969 4.719v2.688h1.313q1.063 0 1.875 0.781t0.813 1.844v11.125l-13.813-13.75h7.25v-2.688q0-1.688-1.219-2.906t-2.906-1.219-2.906 1.219-1.219 2.906zM28 29.063l-1.625 1.625-1.5-1.5q-0.5 0.125-0.875 0.125h-16q-1.063 0-1.875-0.781t-0.813-1.844v-13.375q0-1.563 1.438-2.313l-2.75-2.688 1.625-1.625z"></path>
</svg>
