<?xml version="1.0" encoding="utf-8"?>
<!-- Generated by IcoMoon.io -->
<!DOCTYPE svg PUBLIC "-//W3C//DTD SVG 1.1//EN" "http://www.w3.org/Graphics/SVG/1.1/DTD/svg11.dtd">
<svg version="1.1" xmlns="http://www.w3.org/2000/svg" xmlns:xlink="http://www.w3.org/1999/xlink" width="32" height="32" viewBox="0 0 32 32">
<path d="M16 29.313q-1.125 0-1.906-0.781t-0.781-1.844h5.313q0 1.125-0.75 1.875t-1.875 0.75zM24 14.688v6.625l2.688 2.688v1.313h-21.375v-1.313l2.688-2.688v-6.625q0-3.125 1.594-5.438t4.406-3v-0.938q0-0.813 0.563-1.406t1.438-0.594 1.438 0.594 0.563 1.406v0.938q2.813 0.688 4.406 3t1.594 5.438zM26.625 14q-0.313-5.375-4.688-8.563l1.875-1.875q5.188 4 5.5 10.438h-2.688zM10.125 5.438q-4.438 3.125-4.75 8.563h-2.688q0.313-6.438 5.5-10.438z"></path>
</svg>
