<?xml version="1.0" encoding="utf-8"?>
<!-- Generated by IcoMoon.io -->
<!DOCTYPE svg PUBLIC "-//W3C//DTD SVG 1.1//EN" "http://www.w3.org/Graphics/SVG/1.1/DTD/svg11.dtd">
<svg version="1.1" xmlns="http://www.w3.org/2000/svg" xmlns:xlink="http://www.w3.org/1999/xlink" width="32" height="32" viewBox="0 0 32 32">
<path d="M24 19.563l-11.938-12.563q0.188-0.063 0.5-0.219l0.438-0.219h0.063l0.375-0.188q0.063 0 0.25-0.063t0.313-0.063v-0.938q0-0.813 0.563-1.406t1.438-0.594 1.438 0.594 0.563 1.406v0.938q2.813 0.688 4.406 3t1.594 5.438v4.875zM16 29.313q-1.125 0-1.906-0.75t-0.781-1.875h5.375q0 1.125-0.781 1.875t-1.906 0.75zM10.438 8.188q1.5 1.563 7.844 8.063t9.719 10.063l-1.688 1.688-2.688-2.688h-18.313v-1.313l2.688-2.688v-6.688q0-2.563 1.063-4.563l-3.75-3.688 1.688-1.75z"></path>
</svg>
