<svg xmlns="http://www.w3.org/2000/svg" width="24" height="24" viewBox="0 0 24 24"><path d="M6.58 3.58L5.15 2.15C2.755 3.975 1.175 6.795 1.025 10h2c.155-2.65 1.52-4.97 3.555-6.42zM19.975 10h2c-.15-3.205-1.73-6.025-4.125-7.85l-1.425 1.425C18.455 5.03 19.82 7.35 19.975 10zM18 10.5c0-3.075-2.135-5.64-5-6.32V3.5c0-.83-.67-1.5-1.5-1.5S10 2.67 10 3.5v.68c-2.865.68-5 3.245-5 6.32V16l-2 2v1h17v-1l-2-2v-5.5zM11.5 22c.14 0 .275-.015.405-.04.65-.135 1.185-.585 1.44-1.18.1-.24.155-.5.155-.78h-4c0 1.105.895 2 2 2z"/></svg>