<?xml version="1.0" encoding="utf-8"?>
<!-- Generated by IcoMoon.io -->
<!DOCTYPE svg PUBLIC "-//W3C//DTD SVG 1.1//EN" "http://www.w3.org/Graphics/SVG/1.1/DTD/svg11.dtd">
<svg version="1.1" xmlns="http://www.w3.org/2000/svg" xmlns:xlink="http://www.w3.org/1999/xlink" width="32" height="32" viewBox="0 0 32 32">
<path d="M5.313 17.313v9.375h9.375v2.625h-9.375q-1.063 0-1.844-0.781t-0.781-1.844v-9.375h2.625zM26.688 26.688v-9.375h2.625v9.375q0 1.063-0.781 1.844t-1.844 0.781h-9.375v-2.625h9.375zM26.688 2.688q1.063 0 1.844 0.781t0.781 1.844v9.375h-2.625v-9.375h-9.375v-2.625h9.375zM22.688 11.313q0 0.813-0.594 1.406t-1.406 0.594-1.406-0.594-0.594-1.406 0.594-1.406 1.406-0.594 1.406 0.594 0.594 1.406zM13.313 17.313l4 4.938 2.688-3.563 4 5.313h-16zM5.313 5.313v9.375h-2.625v-9.375q0-1.063 0.781-1.844t1.844-0.781h9.375v2.625h-9.375z"></path>
</svg>
