<?xml version="1.0" encoding="utf-8"?>
<!-- Generated by IcoMoon.io -->
<!DOCTYPE svg PUBLIC "-//W3C//DTD SVG 1.1//EN" "http://www.w3.org/Graphics/SVG/1.1/DTD/svg11.dtd">
<svg version="1.1" xmlns="http://www.w3.org/2000/svg" xmlns:xlink="http://www.w3.org/1999/xlink" width="32" height="32" viewBox="0 0 32 32">
<path d="M22.375 24.25l1.875-1.875-3.875-3.875q0.938-1.563 0.938-3.188 0-2.5-1.75-4.25t-4.25-1.75-4.25 1.75-1.75 4.25 1.75 4.25 4.25 1.75q1.625 0 3.188-0.938zM26.688 5.313q1.063 0 1.844 0.813t0.781 1.875v16q0 1.063-0.781 1.875t-1.844 0.813h-21.375q-1.063 0-1.844-0.813t-0.781-1.875v-16q0-1.063 0.781-1.875t1.844-0.813h21.375zM15.313 12q1.375 0 2.375 0.969t1 2.344-1 2.375-2.375 1-2.344-1-0.969-2.375 0.969-2.344 2.344-0.969z"></path>
</svg>
