<?xml version="1.0" encoding="utf-8"?>
<!-- Generated by IcoMoon.io -->
<!DOCTYPE svg PUBLIC "-//W3C//DTD SVG 1.1//EN" "http://www.w3.org/Graphics/SVG/1.1/DTD/svg11.dtd">
<svg version="1.1" xmlns="http://www.w3.org/2000/svg" xmlns:xlink="http://www.w3.org/1999/xlink" width="32" height="32" viewBox="0 0 32 32">
<path d="M30.688 7.313v19.375q0 2.188-1.594 3.75t-3.781 1.563h-9.688q-2.25 0-3.813-1.563l-10.5-10.688q1.688-1.625 1.75-1.625 0.438-0.375 1.063-0.375 0.438 0 0.813 0.188l5.75 3.25v-15.875q0-0.813 0.594-1.406t1.406-0.594 1.406 0.594 0.594 1.406v9.375h1.313v-12.688q0-0.875 0.563-1.438t1.438-0.563 1.438 0.563 0.563 1.438v12.688h1.313v-11.375q0-0.813 0.594-1.406t1.406-0.594 1.406 0.594 0.594 1.406v11.375h1.375v-7.375q0-0.813 0.594-1.406t1.406-0.594 1.406 0.594 0.594 1.406z"></path>
</svg>
