<?xml version="1.0" encoding="utf-8"?>
<!-- Generated by IcoMoon.io -->
<!DOCTYPE svg PUBLIC "-//W3C//DTD SVG 1.1//EN" "http://www.w3.org/Graphics/SVG/1.1/DTD/svg11.dtd">
<svg version="1.1" xmlns="http://www.w3.org/2000/svg" xmlns:xlink="http://www.w3.org/1999/xlink" width="32" height="32" viewBox="0 0 32 32">
<path d="M16 5.313q4.813 0 10.625 1l1.188 0.188 0.375 1.188q1.125 4.125 1.125 8.313t-1.125 8.313l-0.375 1.188-1.188 0.188q-5.813 1-10.625 1t-10.625-1l-1.188-0.188-0.375-1.188q-1.125-4.125-1.125-8.313t1.125-8.313l0.375-1.188 1.188-0.188q5.813-1 10.625-1zM16 8q-4.375 0-9.75 0.875-0.938 3.563-0.938 7.125t0.938 7.125q5.375 0.875 9.75 0.875t9.75-0.875q0.938-3.563 0.938-7.125t-0.938-7.125q-5.375-0.875-9.75-0.875z"></path>
</svg>
