<?xml version="1.0" encoding="utf-8"?>
<!-- Generated by IcoMoon.io -->
<!DOCTYPE svg PUBLIC "-//W3C//DTD SVG 1.1//EN" "http://www.w3.org/Graphics/SVG/1.1/DTD/svg11.dtd">
<svg version="1.1" xmlns="http://www.w3.org/2000/svg" xmlns:xlink="http://www.w3.org/1999/xlink" width="32" height="32" viewBox="0 0 32 32">
<path d="M8.75 26.688h14.5q-1.5-5.188-1.5-10.688t1.5-10.688h-14.5q1.5 5.125 1.5 10.688 0 5.5-1.5 10.688zM26.563 28.188q0.125 0.25 0.125 0.375 0 0.75-0.875 0.75h-19.625q-0.875 0-0.875-0.75 0-0.125 0.125-0.375 2.188-6 2.188-12.188t-2.188-12.188q-0.125-0.25-0.125-0.375 0-0.75 0.875-0.75h19.625q0.875 0 0.875 0.75 0 0.125-0.125 0.375-2.188 6-2.188 12.188t2.188 12.188z"></path>
</svg>
