<?xml version="1.0" encoding="utf-8"?>
<!-- Generated by IcoMoon.io -->
<!DOCTYPE svg PUBLIC "-//W3C//DTD SVG 1.1//EN" "http://www.w3.org/Graphics/SVG/1.1/DTD/svg11.dtd">
<svg version="1.1" xmlns="http://www.w3.org/2000/svg" xmlns:xlink="http://www.w3.org/1999/xlink" width="32" height="32" viewBox="0 0 32 32">
<path d="M28.563 5.313q0.75 0 0.75 0.875v19.625q0 0.875-0.75 0.875-0.125 0-0.375-0.125-6-2.188-12.188-2.188t-12.188 2.188q-0.25 0.125-0.375 0.125-0.75 0-0.75-0.875v-19.625q0-0.875 0.75-0.875 0.125 0 0.375 0.125 6 2.188 12.188 2.188t12.188-2.188q0.25-0.125 0.375-0.125zM26.688 8.75q-4.875 1.5-10.688 1.5-5.5 0-10.688-1.5v14.5q5.125-1.5 10.688-1.5 5.5 0 10.688 1.5v-14.5z"></path>
</svg>
