<?xml version="1.0" encoding="utf-8"?>
<!-- Generated by IcoMoon.io -->
<!DOCTYPE svg PUBLIC "-//W3C//DTD SVG 1.1//EN" "http://www.w3.org/Graphics/SVG/1.1/DTD/svg11.dtd">
<svg version="1.1" xmlns="http://www.w3.org/2000/svg" xmlns:xlink="http://www.w3.org/1999/xlink" width="32" height="32" viewBox="0 0 32 32">
<path d="M16 22.688q2.75 0 4.719-1.969t1.969-4.719q0-0.438-0.125-1.313h-2.813q0.25 0.875 0.25 1.313 0 1.625-1.188 2.813t-2.813 1.188h-5.313q2.063 2.688 5.313 2.688zM16 9.313q-2.75 0-4.719 1.969t-1.969 4.719q0 0.438 0.125 1.313h2.813q-0.25-0.875-0.25-1.313 0-1.625 1.188-2.813t2.813-1.188h5.313q-2.063-2.688-5.313-2.688zM26.688 5.313q1.063 0 1.844 0.813t0.781 1.875v16q0 1.063-0.781 1.875t-1.844 0.813h-21.375q-1.063 0-1.844-0.813t-0.781-1.875v-16q0-1.063 0.781-1.875t1.844-0.813h4.25l2.438-2.625h8l2.438 2.625h4.25z"></path>
</svg>
