<?xml version="1.0" encoding="utf-8"?>
<!-- Generated by IcoMoon.io -->
<!DOCTYPE svg PUBLIC "-//W3C//DTD SVG 1.1//EN" "http://www.w3.org/Graphics/SVG/1.1/DTD/svg11.dtd">
<svg version="1.1" xmlns="http://www.w3.org/2000/svg" xmlns:xlink="http://www.w3.org/1999/xlink" width="32" height="32" viewBox="0 0 32 32">
<path d="M21.313 17.313q1.75 0 3.813 0.5t3.813 1.625 1.75 2.563v3.313h-8v-3.313q0-2.75-2.625-4.625 0.438-0.063 1.25-0.063zM10.688 17.313q1.75 0 3.813 0.5t3.781 1.625 1.719 2.563v3.313h-18.688v-3.313q0-1.438 1.75-2.563t3.813-1.625 3.813-0.5zM10.688 14.688q-1.625 0-2.813-1.188t-1.188-2.813 1.188-2.813 2.813-1.188 2.781 1.188 1.156 2.813-1.156 2.813-2.781 1.188zM21.313 14.688q-1.625 0-2.813-1.188t-1.188-2.813 1.188-2.813 2.813-1.188 2.813 1.188 1.188 2.813-1.188 2.813-2.813 1.188z"></path>
</svg>
