<?xml version="1.0" encoding="utf-8"?>
<!-- Generated by IcoMoon.io -->
<!DOCTYPE svg PUBLIC "-//W3C//DTD SVG 1.1//EN" "http://www.w3.org/Graphics/SVG/1.1/DTD/svg11.dtd">
<svg version="1.1" xmlns="http://www.w3.org/2000/svg" xmlns:xlink="http://www.w3.org/1999/xlink" width="32" height="32" viewBox="0 0 32 32">
<path d="M22 8.688q-1.063 0-1.875 0.781t-0.813 1.844 0.813 1.875 1.875 0.813 1.875-0.813 0.813-1.875-0.813-1.844-1.875-0.781zM22 16q-1.938 0-3.313-1.375t-1.375-3.313 1.375-3.281 3.313-1.344 3.313 1.344 1.375 3.281-1.375 3.313-3.313 1.375zM10 8.688q-1.063 0-1.875 0.781t-0.813 1.844 0.813 1.875 1.875 0.813 1.875-0.813 0.813-1.875-0.813-1.844-1.875-0.781zM10 16q-1.938 0-3.313-1.375t-1.375-3.313 1.375-3.281 3.313-1.344 3.313 1.344 1.375 3.281-1.375 3.313-3.313 1.375zM28.688 23.313v-1.625q0-0.625-2.219-1.5t-4.469-0.875q-1.625 0-4 0.75 0.688 0.813 0.688 1.625v1.625h10zM16.688 23.313v-1.625q0-0.625-2.219-1.5t-4.469-0.875-4.469 0.875-2.219 1.5v1.625h13.375zM22 17.313q2.688 0 5.688 1.219t3 3.156v3.625h-29.375v-3.625q0-1.938 3-3.156t5.688-1.219q2.938 0 6 1.375 3.063-1.375 6-1.375z"></path>
</svg>
