<?xml version="1.0" encoding="utf-8"?>
<!-- Generated by IcoMoon.io -->
<!DOCTYPE svg PUBLIC "-//W3C//DTD SVG 1.1//EN" "http://www.w3.org/Graphics/SVG/1.1/DTD/svg11.dtd">
<svg version="1.1" xmlns="http://www.w3.org/2000/svg" xmlns:xlink="http://www.w3.org/1999/xlink" width="32" height="32" viewBox="0 0 32 32">
<path d="M25.313 27.313q0.813 0 1.406-0.594t0.594-1.406-0.594-1.406-1.406-0.594-1.406 0.594-0.594 1.406 0.594 1.406 1.406 0.594zM30.25 26l1.438 1.063q0.188 0.188 0.063 0.438l-1.313 2.313q-0.188 0.313-0.438 0.188l-1.625-0.688q-0.188 0.188-1.125 0.625l-0.25 1.813q0 0.25-0.375 0.25h-2.625q-0.375 0-0.375-0.25l-0.25-1.813q-0.5-0.25-1.125-0.625l-1.625 0.688q-0.313 0.125-0.438-0.188l-1.313-2.313q-0.125-0.25 0.063-0.438l1.438-1.063q0-0.063-0.031-0.313t-0.031-0.375 0.031-0.344 0.031-0.281l-1.438-1.125q-0.188-0.188-0.063-0.438l1.313-2.313q0.125-0.25 0.438-0.125l1.625 0.688q0.75-0.5 1.125-0.688l0.25-1.75q0-0.25 0.375-0.25h2.625q0.375 0 0.375 0.25l0.25 1.75q0.25 0.125 1.125 0.688l1.625-0.688q0.313-0.125 0.438 0.125l1.313 2.313q0.125 0.25-0.063 0.438l-1.438 1.125q0.063 0.188 0.063 0.625 0 0.125-0.031 0.375t-0.031 0.313zM25.313 15.313q-4.125 0-7.063 2.938t-2.938 7.063q0 0.5 0.125 1.375h-15.438l26.688-26.688-0.063 15.438q-0.875-0.125-1.313-0.125z"></path>
</svg>
