<?xml version="1.0" encoding="utf-8"?>
<!-- Generated by IcoMoon.io -->
<!DOCTYPE svg PUBLIC "-//W3C//DTD SVG 1.1//EN" "http://www.w3.org/Graphics/SVG/1.1/DTD/svg11.dtd">
<svg version="1.1" xmlns="http://www.w3.org/2000/svg" xmlns:xlink="http://www.w3.org/1999/xlink" width="32" height="32" viewBox="0 0 32 32">
<path d="M16 17.313q2 0 4.375 0.563t4.344 1.875 1.969 2.938v4h-21.375v-4q0-1.625 1.969-2.938t4.344-1.875 4.375-0.563zM16 5.313q2.188 0 3.75 1.594t1.563 3.781-1.563 3.75-3.75 1.563-3.75-1.563-1.563-3.75 1.563-3.781 3.75-1.594zM16 19.875q-2.75 0-5.438 1.031t-2.688 1.781v1.438h16.25v-1.438q0-0.75-2.688-1.781t-5.438-1.031zM16 7.875q-1.188 0-2 0.813t-0.813 2 0.813 1.969 2 0.781 2-0.781 0.813-1.969-0.813-2-2-0.813z"></path>
</svg>
