<?xml version="1.0" encoding="utf-8"?>
<!-- Generated by IcoMoon.io -->
<!DOCTYPE svg PUBLIC "-//W3C//DTD SVG 1.1//EN" "http://www.w3.org/Graphics/SVG/1.1/DTD/svg11.dtd">
<svg version="1.1" xmlns="http://www.w3.org/2000/svg" xmlns:xlink="http://www.w3.org/1999/xlink" width="32" height="32" viewBox="0 0 32 32">
<path d="M18.688 17.313v-5.313q0-1.063-0.813-1.875t-1.875-0.813-1.875 0.813-0.813 1.875v5.313q0 1.063 0.813 1.875t1.875 0.813 1.875-0.813 0.813-1.875zM26.688 6.688q1.063 0 1.844 0.781t0.781 1.844v16q0 1.063-0.781 1.875t-1.844 0.813h-9.375v-2.813q2.813-0.5 4.75-2.719t1.938-5.156h-2.688q0 2.188-1.563 3.781t-3.75 1.594-3.75-1.594-1.563-3.781h-2.688q0 2.938 1.938 5.156t4.75 2.719v2.813h-9.375q-1.063 0-1.844-0.813t-0.781-1.875v-16q0-1.063 0.781-1.844t1.844-0.781h4.25l2.438-2.688h8l2.438 2.688h4.25z"></path>
</svg>
