<?xml version="1.0" encoding="utf-8"?>
<!-- Generated by IcoMoon.io -->
<!DOCTYPE svg PUBLIC "-//W3C//DTD SVG 1.1//EN" "http://www.w3.org/Graphics/SVG/1.1/DTD/svg11.dtd">
<svg version="1.1" xmlns="http://www.w3.org/2000/svg" xmlns:xlink="http://www.w3.org/1999/xlink" width="32" height="32" viewBox="0 0 32 32">
<path d="M23.125 19.813l1.063 1.063t0.531 0.563 0.5 0.594 0.469 0.594 0.406 0.625 0.313 0.688 0.188 0.719 0.063 0.75-0.031 0.781q-0.688 2.625-3.125 3.125-0.438 0.063-3.031-0.25t-4.344-0.313h-0.25q-1.75 0-4.344 0.313t-3.031 0.25q-2.438-0.5-3.125-3.125-0.188-1.25 0.438-2.563t1.156-1.875 1.906-1.938q0.625-0.688 1.656-1.938t1.656-1.938q1.125-1.375 2.313-1.75 0.25-0.125 0.438-0.125 0.375-0.063 1.063-0.063 0.75 0 1.063 0.063 0.188 0 0.438 0.125 1.188 0.375 2.313 1.75 0.563 0.688 1.625 1.938t1.688 1.938zM22.688 12.688q0-1.375 0.969-2.375t2.344-1 2.344 1 0.969 2.375-0.969 2.344-2.344 0.969-2.344-0.969-0.969-2.344zM16.688 7.313q0-1.375 0.969-2.344t2.344-0.969 2.344 0.969 0.969 2.344-0.969 2.375-2.344 1-2.344-1-0.969-2.375zM8.688 7.313q0-1.375 0.969-2.344t2.344-0.969 2.344 0.969 0.969 2.344-0.969 2.375-2.344 1-2.344-1-0.969-2.375zM2.688 12.688q0-1.375 0.969-2.375t2.344-1 2.344 1 0.969 2.375-0.969 2.344-2.344 0.969-2.344-0.969-0.969-2.344z"></path>
</svg>
