<?xml version="1.0" encoding="utf-8"?>
<!-- Generated by IcoMoon.io -->
<!DOCTYPE svg PUBLIC "-//W3C//DTD SVG 1.1//EN" "http://www.w3.org/Graphics/SVG/1.1/DTD/svg11.dtd">
<svg version="1.1" xmlns="http://www.w3.org/2000/svg" xmlns:xlink="http://www.w3.org/1999/xlink" width="32" height="32" viewBox="0 0 32 32">
<path d="M12.688 14.688v-2q0-0.75-0.594-1.25t-1.406-0.5-1.406 0.5-0.594 1.25v2h4zM14.375 14.688q0.625 0 1.125 0.5t0.5 1.188v4.688q0 0.625-0.531 1.125t-1.219 0.5h-7.313q-0.625 0-1.125-0.531t-0.5-1.219v-4.688q0-0.625 0.5-1.094t1.125-0.469v-2q0-1.375 1.156-2.375t2.594-1 2.563 1 1.125 2.375v2zM25.313 1.313q1.063 0 1.875 0.813t0.813 1.875v24q0 1.063-0.813 1.875t-1.875 0.813h-13.313q-1.063 0-1.875-0.813t-0.813-1.875v-4h2.688v2.688h13.313v-21.375h-13.313v2.688h-2.688v-4q0-1.063 0.813-1.875t1.875-0.813h13.313z"></path>
</svg>
