<?xml version="1.0" encoding="utf-8"?>
<!-- Generated by IcoMoon.io -->
<!DOCTYPE svg PUBLIC "-//W3C//DTD SVG 1.1//EN" "http://www.w3.org/Graphics/SVG/1.1/DTD/svg11.dtd">
<svg version="1.1" xmlns="http://www.w3.org/2000/svg" xmlns:xlink="http://www.w3.org/1999/xlink" width="32" height="32" viewBox="0 0 32 32">
<path d="M18.688 26.688v-21.375h-13.375v21.375h13.375zM18.688 1.313q1.063 0 1.844 0.813t0.781 1.875v24q0 1.063-0.781 1.875t-1.844 0.813h-13.375q-1.063 0-1.844-0.813t-0.781-1.875v-24q0-1.063 0.781-1.875t1.844-0.813h13.375zM24 13.063q1.25 1.313 1.25 2.938t-1.25 2.813l-1.313-1.375q1.125-1.563 0-3.063zM26.813 10.25q2.5 2.375 2.5 5.719t-2.5 5.656l-1.375-1.375q1.813-1.938 1.813-4.406t-1.813-4.219z"></path>
</svg>
