<?xml version="1.0" encoding="utf-8"?>
<!-- Generated by IcoMoon.io -->
<!DOCTYPE svg PUBLIC "-//W3C//DTD SVG 1.1//EN" "http://www.w3.org/Graphics/SVG/1.1/DTD/svg11.dtd">
<svg version="1.1" xmlns="http://www.w3.org/2000/svg" xmlns:xlink="http://www.w3.org/1999/xlink" width="32" height="32" viewBox="0 0 32 32">
<path d="M30.688 10.688q0.563 0 0.938 0.375t0.375 0.938v13.313q0 0.563-0.375 0.969t-0.938 0.406h-0.25l-4-4h2.875v-9.375h-5.313v6.938l-2.688-2.688v-5.563q0-0.563 0.406-0.938t0.969-0.375h8zM5.313 8.375v14.313h14.313zM2.563 2.188q5.063 5.063 14.406 14.438t11.469 11.5l-1.688 1.688-3.125-3.125h-23.625v-4h2.688v-14.688q0-0.938 0.625-1.688l-2.438-2.438zM29.313 8h-17.563l-2.688-2.688h20.25v2.688z"></path>
</svg>
