<?xml version="1.0" encoding="utf-8"?>
<!-- Generated by IcoMoon.io -->
<!DOCTYPE svg PUBLIC "-//W3C//DTD SVG 1.1//EN" "http://www.w3.org/Graphics/SVG/1.1/DTD/svg11.dtd">
<svg version="1.1" xmlns="http://www.w3.org/2000/svg" xmlns:xlink="http://www.w3.org/1999/xlink" width="32" height="32" viewBox="0 0 32 32">
<path d="M25.625 5.313v-0.625q0-0.938-0.688-1.625t-1.625-0.688-1.594 0.688-0.656 1.625v0.625h4.563zM26.688 5.313q0.563 0 0.938 0.406t0.375 0.969v5.313q0 0.563-0.375 0.938t-0.938 0.375h-6.688q-0.563 0-0.938-0.375t-0.375-0.938v-5.313q0-0.563 0.375-0.969t0.938-0.406v-0.625q0-1.375 0.969-2.375t2.344-1 2.375 1 1 2.375v0.625zM26.688 20.688q0.563 0 0.938 0.375t0.375 0.938v4.688q0 0.563-0.375 0.938t-0.938 0.375q-9.375 0-16.031-6.656t-6.656-16.031q0-0.563 0.375-0.938t0.938-0.375h4.688q0.563 0 0.938 0.375t0.375 0.938q0 2.5 0.75 4.75 0.25 0.813-0.313 1.375l-2.938 2.938q2.938 5.75 8.813 8.813l2.938-2.938q0.563-0.563 1.375-0.313 2.25 0.75 4.75 0.75z"></path>
</svg>
