<?xml version="1.0" encoding="utf-8"?>
<!-- Generated by IcoMoon.io -->
<!DOCTYPE svg PUBLIC "-//W3C//DTD SVG 1.1//EN" "http://www.w3.org/Graphics/SVG/1.1/DTD/svg11.dtd">
<svg version="1.1" xmlns="http://www.w3.org/2000/svg" xmlns:xlink="http://www.w3.org/1999/xlink" width="32" height="32" viewBox="0 0 32 32">
<path d="M16 22.688q2.75 0 4.719-1.969t1.969-4.719-1.969-4.719-4.719-1.969-4.719 1.969-1.969 4.719 1.969 4.719 4.719 1.969zM12 2.688h8l2.438 2.625h4.25q1.063 0 1.844 0.813t0.781 1.875v16q0 1.063-0.781 1.875t-1.844 0.813h-21.375q-1.063 0-1.844-0.813t-0.781-1.875v-16q0-1.063 0.781-1.875t1.844-0.813h4.25zM11.75 16q0-1.75 1.25-3t3-1.25 3 1.25 1.25 3-1.25 3-3 1.25-3-1.25-1.25-3z"></path>
</svg>
