<?xml version="1.0" encoding="utf-8"?>
<!-- Generated by IcoMoon.io -->
<!DOCTYPE svg PUBLIC "-//W3C//DTD SVG 1.1//EN" "http://www.w3.org/Graphics/SVG/1.1/DTD/svg11.dtd">
<svg version="1.1" xmlns="http://www.w3.org/2000/svg" xmlns:xlink="http://www.w3.org/1999/xlink" width="32" height="32" viewBox="0 0 32 32">
<path d="M9.313 4v2.688h-2.625v-2.688h2.625zM14.688 4v2.688h-2.688v-2.688h2.688zM4 14.688v2.625h-2.688v-2.625h2.688zM4 4v2.688h-2.688q0-1 0.844-1.844t1.844-0.844zM25.313 25.313v2.688h-2.625v-2.688h2.625zM25.313 4v2.688h-2.625v-2.688h2.625zM20 25.313v2.688h-2.688v-2.688h2.688zM4 9.313v2.688h-2.688v-2.688h2.688zM4 28q-1.063 0-1.875-0.813t-0.813-1.875v-5.313h13.375v8h-10.688zM28 4q1 0 1.844 0.844t0.844 1.844h-2.688v-2.688zM30.688 9.313v2.688h-2.688v-2.688h2.688zM20 4v2.688h-2.688v-2.688h2.688zM30.688 25.313q0 1-0.844 1.844t-1.844 0.844v-2.688h2.688zM30.688 14.688v2.625h-2.688v-2.625h2.688zM30.688 20v2.688h-2.688v-2.688h2.688z"></path>
</svg>
