<?xml version="1.0" encoding="utf-8"?>
<!-- Generated by IcoMoon.io -->
<!DOCTYPE svg PUBLIC "-//W3C//DTD SVG 1.1//EN" "http://www.w3.org/Graphics/SVG/1.1/DTD/svg11.dtd">
<svg version="1.1" xmlns="http://www.w3.org/2000/svg" xmlns:xlink="http://www.w3.org/1999/xlink" width="32" height="32" viewBox="0 0 32 32">
<path d="M18.688 15.313v-4h1.313v4h-1.313zM5.313 8v18.688h18.688v2.625h-18.688q-1.063 0-1.844-0.781t-0.781-1.844v-18.688h2.625zM12 12.688v-1.375h1.313v1.375h-1.313zM27.313 11.313v-2h-4v8h2v-2.625h2v-2h-2v-1.375h2zM22 15.313v-4q0-0.813-0.563-1.406t-1.438-0.594h-3.313v8h3.313q0.875 0 1.438-0.594t0.563-1.406zM15.313 12.688v-1.375q0-0.813-0.594-1.406t-1.406-0.594h-3.313v8h2v-2.625h1.313q0.813 0 1.406-0.594t0.594-1.406zM26.688 2.688q1.063 0 1.844 0.781t0.781 1.844v16q0 1.063-0.781 1.875t-1.844 0.813h-16q-1.063 0-1.875-0.813t-0.813-1.875v-16q0-1.063 0.813-1.844t1.875-0.781h16z"></path>
</svg>
