<?xml version="1.0" encoding="utf-8"?>
<!-- Generated by IcoMoon.io -->
<!DOCTYPE svg PUBLIC "-//W3C//DTD SVG 1.1//EN" "http://www.w3.org/Graphics/SVG/1.1/DTD/svg11.dtd">
<svg version="1.1" xmlns="http://www.w3.org/2000/svg" xmlns:xlink="http://www.w3.org/1999/xlink" width="32" height="32" viewBox="0 0 32 32">
<path d="M13.787 21.16c-0.84 4.4-1.867 8.627-4.907 10.84-0.933-6.667 1.333-11.653 2.453-16.973-1.84-3.093 0.227-9.333 4.093-7.773 4.76 1.88-4.12 11.48 1.84 12.68 6.227 1.253 8.76-10.8 4.907-14.667-5.573-5.667-16.24-0.133-14.92 8 0.32 1.987 2.36 2.587 0.813 5.333-3.573-0.787-4.64-3.6-4.493-7.36 0.213-6.24 5.507-10.533 10.827-11.133 6.667-0.76 13.027 2.467 13.907 8.787 1.027 7.107-2.973 14.867-10.227 14.307-1.947-0.147-2.76-1.107-4.293-2.040z"></path>
</svg>
