<?xml version="1.0" encoding="utf-8"?>
<!-- Generated by IcoMoon.io -->
<!DOCTYPE svg PUBLIC "-//W3C//DTD SVG 1.1//EN" "http://www.w3.org/Graphics/SVG/1.1/DTD/svg11.dtd">
<svg version="1.1" xmlns="http://www.w3.org/2000/svg" xmlns:xlink="http://www.w3.org/1999/xlink" width="32" height="32" viewBox="0 0 32 32">
<path d="M18.688 7.313q0-1.375 0.969-2.344t2.344-0.969 2.344 0.969 0.969 2.344-0.969 2.375-2.344 1-2.344-1-0.969-2.375zM11.563 16q-0.75 0-1.563-0.5-0.25-0.188-1-0.5l4.313-4.313-1.313-1.375q-2-2-5.313-2v-3.313q2.563 0 4.188 0.594t3.125 2.094l8.563 8.5q-0.375 0.25-0.563 0.313-0.813 0.5-1.563 0.5-0.688 0-1.5-0.5-1.375-0.813-2.938-0.813t-2.938 0.813q-0.813 0.5-1.5 0.5zM29.313 22q-1.438 0-2.875-0.875-0.688-0.438-1.563-0.438-0.813 0-1.5 0.438-1.438 0.875-2.938 0.875-1.438 0-2.875-0.875-0.688-0.438-1.563-0.438-0.813 0-1.5 0.438-1.438 0.875-2.938 0.875-1.438 0-2.875-0.875-0.688-0.438-1.563-0.438-0.813 0-1.5 0.438-1.438 0.875-2.938 0.875v-2.688q0.813 0 1.5-0.438 1.438-0.875 2.938-0.875 1.438 0 2.875 0.875 0.688 0.438 1.563 0.438 0.813 0 1.5-0.438 1.438-0.875 2.938-0.875 1.438 0 2.875 0.875 0.688 0.438 1.563 0.438 0.813 0 1.5-0.438 1.438-0.875 2.938-0.875 1.438 0 2.875 0.875 0.688 0.438 1.563 0.438v2.688zM29.313 28q-1.438 0-2.875-0.875-0.688-0.438-1.563-0.438-0.813 0-1.5 0.438-1.438 0.875-2.938 0.875-1.438 0-2.875-0.875-0.688-0.438-1.563-0.438-0.813 0-1.5 0.438-1.438 0.875-2.938 0.875t-2.938-0.875q-0.688-0.438-1.5-0.438-0.875 0-1.563 0.438-1.438 0.875-2.875 0.875v-2.688q0.813 0 1.5-0.438 1.438-0.875 2.938-0.875 1.438 0 2.875 0.875 0.688 0.438 1.563 0.438 0.813 0 1.5-0.438 1.438-0.875 2.938-0.875t2.938 0.875q0.688 0.438 1.5 0.438 0.875 0 1.563-0.438 1.438-0.875 2.875-0.875 1.5 0 2.938 0.875 0.688 0.438 1.5 0.438v2.688z"></path>
</svg>
