<?xml version="1.0" encoding="utf-8"?>
<!-- Generated by IcoMoon.io -->
<!DOCTYPE svg PUBLIC "-//W3C//DTD SVG 1.1//EN" "http://www.w3.org/Graphics/SVG/1.1/DTD/svg11.dtd">
<svg version="1.1" xmlns="http://www.w3.org/2000/svg" xmlns:xlink="http://www.w3.org/1999/xlink" width="32" height="32" viewBox="0 0 32 32">
<path d="M25.313 25.313v-18.625h-18.625v18.625h18.625zM25.313 4q1.063 0 1.875 0.813t0.813 1.875v18.625q0 1.063-0.813 1.875t-1.875 0.813h-18.625q-1.063 0-1.875-0.813t-0.813-1.875v-18.625q0-1.063 0.813-1.875t1.875-0.813h18.625zM22 21.688v1h-12v-1q0-1.375 2.063-2.188t3.938-0.813 3.938 0.813 2.063 2.188zM16 16.313q-1.25 0-2.125-0.906t-0.875-2.094 0.875-2.094 2.125-0.906 2.125 0.906 0.875 2.094-0.875 2.094-2.125 0.906z"></path>
</svg>
