<?xml version="1.0" encoding="utf-8"?>
<!-- Generated by IcoMoon.io -->
<!DOCTYPE svg PUBLIC "-//W3C//DTD SVG 1.1//EN" "http://www.w3.org/Graphics/SVG/1.1/DTD/svg11.dtd">
<svg version="1.1" xmlns="http://www.w3.org/2000/svg" xmlns:xlink="http://www.w3.org/1999/xlink" width="32" height="32" viewBox="0 0 32 32">
<path d="M4.375 3.313l1.313 1.375 22.313 22.313-1.688 1.688-10-10.063h-0.063l-0.25 0.063q-1.063 0-1.875-0.813t-0.813-1.875l0.063-0.25-2.125-2.125q-0.563 1.125-0.563 2.375 0 3.063 2.625 4.625l-1.313 2.313q-1.813-1.063-2.906-2.906t-1.094-4.031q0-2.375 1.25-4.313l-1.875-1.938q-2.063 2.875-2.063 6.25 0 2.875 1.438 5.344t3.875 3.906l-1.313 2.313q-3.063-1.75-4.844-4.844t-1.781-6.719q0-4.625 2.75-8.188l-2.75-2.813zM16 5.313q-2.688 0-5 1.25l-1.938-1.938q3.125-1.938 6.938-1.938 5.5 0 9.406 3.906t3.906 9.406q0 3.813-1.938 6.938l-2-1.938q1.313-2.438 1.313-5 0-4.375-3.156-7.531t-7.531-3.156zM23.438 19l-2.188-2.188q0.063-0.25 0.063-0.813 0-2.188-1.563-3.75t-3.75-1.563q-0.563 0-0.813 0.063l-2.188-2.188q1.375-0.563 3-0.563 3.313 0 5.656 2.344t2.344 5.656q0 1.625-0.563 3z"></path>
</svg>
