<?xml version="1.0" encoding="utf-8"?>
<!-- Generated by IcoMoon.io -->
<!DOCTYPE svg PUBLIC "-//W3C//DTD SVG 1.1//EN" "http://www.w3.org/Graphics/SVG/1.1/DTD/svg11.dtd">
<svg version="1.1" xmlns="http://www.w3.org/2000/svg" xmlns:xlink="http://www.w3.org/1999/xlink" width="32" height="32" viewBox="0 0 32 32">
<path d="M32 24l-6 6-2-2 4-4-4-4 2-2zM17.313 13.313h4v2.688h-4v4h-2.625v-4h-4v-2.688h4v-4h2.625v4zM28 4q1.063 0 1.875 0.781t0.813 1.906v10.625h-2.688v-10.625h-24v16h20v2.625h-2.688v2.688h-10.625v-2.688h-6.688q-1.125 0-1.906-0.781t-0.781-1.844v-16q0-1.125 0.781-1.906t1.906-0.781h24z"></path>
</svg>
