<?xml version="1.0" encoding="utf-8"?>
<!-- Generated by IcoMoon.io -->
<!DOCTYPE svg PUBLIC "-//W3C//DTD SVG 1.1//EN" "http://www.w3.org/Graphics/SVG/1.1/DTD/svg11.dtd">
<svg version="1.1" xmlns="http://www.w3.org/2000/svg" xmlns:xlink="http://www.w3.org/1999/xlink" width="32" height="32" viewBox="0 0 32 32">
<path d="M16.688 22.688v-1q0-1.375-2.063-2.188t-3.938-0.813-3.938 0.813-2.063 2.188v1h12zM10.688 10.313q-1.188 0-2.094 0.906t-0.906 2.094 0.906 2.094 2.094 0.906 2.094-0.906 0.906-2.094-0.906-2.094-2.094-0.906zM18.688 6.688q0.563 0 0.938 0.375t0.375 0.938v16q0 0.563-0.375 0.938t-0.938 0.375h-16q-0.563 0-0.969-0.375t-0.406-0.938v-16q0-0.563 0.406-0.938t0.969-0.375h16zM22.688 25.313v-18.625h2.625v18.625h-2.625zM28 6.688h2.688v18.625h-2.688v-18.625z"></path>
</svg>
