<?xml version="1.0" encoding="utf-8"?>
<!-- Generated by IcoMoon.io -->
<!DOCTYPE svg PUBLIC "-//W3C//DTD SVG 1.1//EN" "http://www.w3.org/Graphics/SVG/1.1/DTD/svg11.dtd">
<svg version="1.1" xmlns="http://www.w3.org/2000/svg" xmlns:xlink="http://www.w3.org/1999/xlink" width="32" height="32" viewBox="0 0 32 32">
<path d="M26.75 2.688q3.875 4.063 3.875 9.406t-3.875 9.219l-2.188-2.125q2.75-3.188 2.75-7.281t-2.75-7.094zM22.375 7.125q2 2.188 2 4.938t-2 4.75l-2.25-2.25q0.875-1.188 0.875-2.594t-0.875-2.594zM12 20q3.375 0 7.031 1.469t3.656 3.844v2.688h-21.375v-2.688q0-2.375 3.656-3.844t7.031-1.469zM6.688 12q0-2.188 1.563-3.75t3.75-1.563 3.75 1.563 1.563 3.75-1.563 3.75-3.75 1.563-3.75-1.563-1.563-3.75z"></path>
</svg>
