<?xml version="1.0" encoding="utf-8"?>
<!-- Generated by IcoMoon.io -->
<!DOCTYPE svg PUBLIC "-//W3C//DTD SVG 1.1//EN" "http://www.w3.org/Graphics/SVG/1.1/DTD/svg11.dtd">
<svg version="1.1" xmlns="http://www.w3.org/2000/svg" xmlns:xlink="http://www.w3.org/1999/xlink" width="32" height="32" viewBox="0 0 32 32">
<path d="M26.688 18.688v-8h-6.813l2.813 3.75-2.188 1.563q-4-5.438-4.5-6.125-0.5 0.688-4.5 6.125l-2.188-1.563 2.813-3.75h-6.813v8h21.375zM26.688 25.313v-2.625h-21.375v2.625h21.375zM12 5.313q-0.563 0-0.938 0.406t-0.375 0.969 0.375 0.938 0.938 0.375 0.938-0.375 0.375-0.938-0.375-0.969-0.938-0.406zM20 5.313q-0.563 0-0.938 0.406t-0.375 0.969 0.375 0.938 0.938 0.375 0.938-0.375 0.375-0.938-0.375-0.969-0.938-0.406zM26.688 8q1.125 0 1.875 0.781t0.75 1.906v14.625q0 1.125-0.75 1.906t-1.875 0.781h-21.375q-1.125 0-1.875-0.781t-0.75-1.906v-14.625q0-1.125 0.75-1.906t1.875-0.781h2.938q-0.25-0.875-0.25-1.313 0-1.625 1.188-2.813t2.813-1.188q2.063 0 3.313 1.75l0.688 0.938 0.688-0.938q1.25-1.75 3.313-1.75 1.625 0 2.813 1.188t1.188 2.813q0 0.438-0.25 1.313h2.938z"></path>
</svg>
