<?xml version="1.0" encoding="utf-8"?>
<!-- Generated by IcoMoon.io -->
<!DOCTYPE svg PUBLIC "-//W3C//DTD SVG 1.1//EN" "http://www.w3.org/Graphics/SVG/1.1/DTD/svg11.dtd">
<svg version="1.1" xmlns="http://www.w3.org/2000/svg" xmlns:xlink="http://www.w3.org/1999/xlink" width="32" height="32" viewBox="0 0 32 32">
<path d="M17.625 20.25q0 0.438 0.625 0.438 0.313 0 0.438-0.125l0.25-0.313q0.125-0.25 0.125-0.375v-2.688q-0.125-0.25-0.125-0.375t-0.281-0.281-0.406-0.156q-0.188 0-0.375 0.188l-0.25 0.25q-0.188 0.25-0.188 0.375v2.688q0.188 0.25 0.188 0.375zM20.25 18.938q0 0.813-0.125 1.063l-0.375 0.813q-0.438 0.375-0.688 0.375-0.125 0-0.406 0.063t-0.406 0.063q-0.563 0-0.813-0.125-0.125-0.063-0.313-0.188t-0.313-0.188q-0.563-0.313-0.563-1.875v-0.938q0-0.813 0.125-1.063l0.438-0.813q0.375-0.375 0.625-0.375 0.125 0 0.406-0.063t0.406-0.063q0.563 0 0.813 0.125 0.125 0.063 0.344 0.188t0.344 0.188 0.375 0.813q0.125 0.375 0.125 1.063v0.938zM14.563 21.313h-1.25v-4.375l-1.313 0.375v-0.938l2.375-0.75h0.188v5.688zM16 6.688q4.438 0 7.563 3.125t3.125 7.5q0 4.438-3.156 7.563t-7.531 3.125-7.531-3.125-3.156-7.563h2.688q0 3.313 2.375 5.656t5.625 2.344 5.625-2.344 2.375-5.656-2.375-5.656-5.625-2.344v5.375l-6.688-6.688 6.688-6.688v5.375z"></path>
</svg>
