<?xml version="1.0" encoding="utf-8"?>
<!-- Generated by IcoMoon.io -->
<!DOCTYPE svg PUBLIC "-//W3C//DTD SVG 1.1//EN" "http://www.w3.org/Graphics/SVG/1.1/DTD/svg11.dtd">
<svg version="1.1" xmlns="http://www.w3.org/2000/svg" xmlns:xlink="http://www.w3.org/1999/xlink" width="32" height="32" viewBox="0 0 32 32">
<path d="M16 10.688h2v5.625l4.688 2.813-1 1.625-5.688-3.438v-6.625zM17.313 4q4.938 0 8.469 3.5t3.531 8.5-3.531 8.5-8.469 3.5-8.438-3.5l1.875-1.938q2.75 2.75 6.563 2.75 3.875 0 6.625-2.719t2.75-6.594-2.75-6.594-6.625-2.719-6.594 2.719-2.719 6.594h4l-5.375 5.375-0.125-0.188-5.188-5.188h4q0-5 3.531-8.5t8.469-3.5z"></path>
</svg>
