<?xml version="1.0" encoding="utf-8"?>
<!-- Generated by IcoMoon.io -->
<!DOCTYPE svg PUBLIC "-//W3C//DTD SVG 1.1//EN" "http://www.w3.org/Graphics/SVG/1.1/DTD/svg11.dtd">
<svg version="1.1" xmlns="http://www.w3.org/2000/svg" xmlns:xlink="http://www.w3.org/1999/xlink" width="32" height="32" viewBox="0 0 32 32">
<path d="M16 15.313q1.375 0 2.344-0.969t0.969-2.344-0.969-2.344-2.344-0.969-2.344 0.969-0.969 2.344 0.969 2.344 2.344 0.969zM16 2.688q3.875 0 6.594 2.719t2.719 6.594q0 1.938-0.969 4.438t-2.344 4.688-2.719 4.094-2.281 3.031l-1 1.063q-0.375-0.438-1-1.156t-2.25-2.875-2.844-4.188-2.219-4.594-1-4.5q0-3.875 2.719-6.594t6.594-2.719z"></path>
</svg>
