<?xml version="1.0" encoding="utf-8"?>
<!-- Generated by IcoMoon.io -->
<!DOCTYPE svg PUBLIC "-//W3C//DTD SVG 1.1//EN" "http://www.w3.org/Graphics/SVG/1.1/DTD/svg11.dtd">
<svg version="1.1" xmlns="http://www.w3.org/2000/svg" xmlns:xlink="http://www.w3.org/1999/xlink" width="32" height="32" viewBox="0 0 32 32">
<path d="M25.813 8.875q3.5 3.5 3.5 8.469t-3.5 8.469q-3.438 3.5-8.5 3.5-3.063 0-5.75-1.5l2-1.938q1.688 0.813 3.75 0.813 3.875 0 6.625-2.75 2.688-2.688 2.688-6.563t-2.688-6.625q-2.75-2.75-6.625-2.75v4.313l-5.625-5.625 5.625-5.688v4.313q5.063 0 8.5 3.563zM4.938 17.188l4.875 4.875 4.875-4.875-4.875-4.875zM9.813 8.563l8.625 8.625-8.625 8.625-8.688-8.625z"></path>
</svg>
