<?xml version="1.0" encoding="utf-8"?>
<!-- Generated by IcoMoon.io -->
<!DOCTYPE svg PUBLIC "-//W3C//DTD SVG 1.1//EN" "http://www.w3.org/Graphics/SVG/1.1/DTD/svg11.dtd">
<svg version="1.1" xmlns="http://www.w3.org/2000/svg" xmlns:xlink="http://www.w3.org/1999/xlink" width="32" height="32" viewBox="0 0 32 32">
<path d="M17.313 5.438q3.938 0.5 6.656 3.5t2.719 7.063-2.719 7.063-6.656 3.5v-2.688q2.875-0.5 4.781-2.719t1.906-5.156-1.906-5.156-4.781-2.719v5.188l-6.063-5.938 6.063-6.063v4.125zM9.438 24.438l1.938-1.938q1.438 1.063 3.313 1.375v2.688q-3-0.375-5.25-2.125zM8.125 17.313q0.313 1.813 1.313 3.313l-1.875 1.875q-1.75-2.313-2.125-5.188h2.688zM9.5 11.375q-1.125 1.625-1.375 3.313h-2.688q0.375-2.813 2.188-5.188z"></path>
</svg>
