<?xml version="1.0" encoding="utf-8"?>
<!-- Generated by IcoMoon.io -->
<!DOCTYPE svg PUBLIC "-//W3C//DTD SVG 1.1//EN" "http://www.w3.org/Graphics/SVG/1.1/DTD/svg11.dtd">
<svg version="1.1" xmlns="http://www.w3.org/2000/svg" xmlns:xlink="http://www.w3.org/1999/xlink" width="32" height="32" viewBox="0 0 32 32">
<path d="M22.5 20.625q1.063-1.438 1.375-3.313h2.688q-0.375 2.875-2.125 5.188zM17.313 23.875q1.875-0.313 3.313-1.375l1.938 1.938q-2.25 1.75-5.25 2.125v-2.688zM26.563 14.688h-2.688q-0.313-1.875-1.375-3.313l1.938-1.875q1.75 2.313 2.125 5.188zM20.75 7.375l-6.063 5.938v-5.188q-2.875 0.5-4.781 2.719t-1.906 5.156 1.906 5.156 4.781 2.719v2.688q-3.938-0.5-6.656-3.5t-2.719-7.063 2.719-7.063 6.656-3.5v-4.125z"></path>
</svg>
