<?xml version="1.0" encoding="utf-8"?>
<!-- Generated by IcoMoon.io -->
<!DOCTYPE svg PUBLIC "-//W3C//DTD SVG 1.1//EN" "http://www.w3.org/Graphics/SVG/1.1/DTD/svg11.dtd">
<svg version="1.1" xmlns="http://www.w3.org/2000/svg" xmlns:xlink="http://www.w3.org/1999/xlink" width="32" height="32" viewBox="0 0 32 32">
<path d="M20 24v-2.688h-2.688v2.688h2.688zM15.313 24v-2.688h-2.625v2.688h2.625zM10.688 24v-2.688h-2.688v2.688h2.688zM25.313 17.313q1.063 0 1.875 0.813t0.813 1.875v5.313q0 1.063-0.813 1.875t-1.875 0.813h-18.625q-1.063 0-1.875-0.813t-0.813-1.875v-5.313q0-1.063 0.813-1.875t1.875-0.813h13.313v-5.313h2.688v5.313h2.625zM25.75 8.938l-1.063 1.063q-1.313-1.313-3.375-1.313-2 0-3.313 1.313l-1.063-1.063q1.875-1.875 4.375-1.875 2.563 0 4.438 1.875zM26.938 7.875q-2.563-2.25-5.625-2.25-3 0-5.563 2.25l-1.063-1.063q2.813-2.813 6.625-2.813 3.875 0 6.688 2.813z"></path>
</svg>
