<?xml version="1.0" encoding="utf-8"?>
<!-- Generated by IcoMoon.io -->
<!DOCTYPE svg PUBLIC "-//W3C//DTD SVG 1.1//EN" "http://www.w3.org/Graphics/SVG/1.1/DTD/svg11.dtd">
<svg version="1.1" xmlns="http://www.w3.org/2000/svg" xmlns:xlink="http://www.w3.org/1999/xlink" width="32" height="32" viewBox="0 0 32 32">
<path d="M28 28l-4 4-4-4v-2l-9.438-9.438q-0.438 0.063-1.25 0.063v-2.875q1.625 0.063 3.375-0.719t2.875-1.969l1.875-2.063q1-1 2.188-1h0.063q1.188 0 2.094 0.875t0.906 2.125v7.688q0 1.625-1.25 2.875l-4.75-4.75v-3.063q-1.25 1.063-3.063 1.875l8.375 8.375h2zM20 1.313q1.063 0 1.875 0.813t0.813 1.875-0.813 1.875-1.875 0.813-1.875-0.813-0.813-1.875 0.813-1.875 1.875-0.813zM11.313 19.313l3.375 3.375h-2.688l-4.688 4.625-2-2z"></path>
</svg>
