<?xml version="1.0" encoding="utf-8"?>
<!-- Generated by IcoMoon.io -->
<!DOCTYPE svg PUBLIC "-//W3C//DTD SVG 1.1//EN" "http://www.w3.org/Graphics/SVG/1.1/DTD/svg11.dtd">
<svg version="1.1" xmlns="http://www.w3.org/2000/svg" xmlns:xlink="http://www.w3.org/1999/xlink" width="32" height="32" viewBox="0 0 32 32">
<path d="M22.688 2.688l4 4-4 4v-2.688h-10.688v-2.688h10.688v-2.625zM24 18.688v-4h-5.313v4h5.313zM14.688 26.688q0.563 0 0.938-0.406t0.375-0.969-0.375-0.938-0.938-0.375-0.969 0.375-0.406 0.938 0.406 0.969 0.969 0.406zM26.688 22.688h2.625v2.625h-10.625q0 1.625-1.188 2.813t-2.813 1.188-2.813-1.188-1.188-2.813h-2.688q-1.063 0-1.875-0.781t-0.813-1.844v-4h9.375v-4h-5.375v2.625l-4-4 4-4v2.688h14.688q1.063 0 1.875 0.813t0.813 1.875v8z"></path>
</svg>
