<?xml version="1.0" encoding="utf-8"?>
<!-- Generated by IcoMoon.io -->
<!DOCTYPE svg PUBLIC "-//W3C//DTD SVG 1.1//EN" "http://www.w3.org/Graphics/SVG/1.1/DTD/svg11.dtd">
<svg version="1.1" xmlns="http://www.w3.org/2000/svg" xmlns:xlink="http://www.w3.org/1999/xlink" width="32" height="32" viewBox="0 0 32 32">
<path d="M6.688 24h18.625l-6-8-4.625 6-3.375-4zM6.688 16q3.875 0 6.594-2.75t2.719-6.625h-2.688q0 2.75-1.938 4.719t-4.688 1.969v2.688zM6.688 6.625v4.063q1.625 0 2.813-1.219t1.188-2.844h-4zM25.313 4q1.063 0 1.875 0.813t0.813 1.875v18.625q0 1.063-0.813 1.875t-1.875 0.813h-18.625q-1.063 0-1.875-0.813t-0.813-1.875v-18.625q0-1.063 0.813-1.875t1.875-0.813h18.625z"></path>
</svg>
