<?xml version="1.0" encoding="utf-8"?>
<!-- Generated by IcoMoon.io -->
<!DOCTYPE svg PUBLIC "-//W3C//DTD SVG 1.1//EN" "http://www.w3.org/Graphics/SVG/1.1/DTD/svg11.dtd">
<svg version="1.1" xmlns="http://www.w3.org/2000/svg" xmlns:xlink="http://www.w3.org/1999/xlink" width="32" height="32" viewBox="0 0 32 32">
<path d="M22.375 3.313v0.688h4.563v-0.688q0-0.938-0.656-1.594t-1.594-0.656-1.625 0.656-0.688 1.594zM21.313 12q-0.563 0-0.938-0.375t-0.375-0.938v-5.375q0-0.563 0.375-0.938t0.938-0.375v-0.688q0-1.375 1-2.344t2.375-0.969 2.344 0.969 0.969 2.344v0.688q0.563 0 0.938 0.375t0.375 0.938v5.375q0 0.563-0.375 0.938t-0.938 0.375h-6.688zM11.313 27.313l1.75-1.75 5.063 5.063-0.875 0.063q-6.25 0-10.844-4.25t-5.094-10.438h2q0.375 3.688 2.531 6.719t5.469 4.594zM31 17q0.625 0.563 0.625 1.406t-0.625 1.469l-8.5 8.438q-0.563 0.625-1.375 0.625t-1.438-0.625l-16-16q-0.625-0.563-0.625-1.375t0.625-1.438l8.438-8.5q0.563-0.625 1.406-0.625t1.469 0.625l3.25 3.25-1.875 1.875-2.813-2.75-7.563 7.5 15.125 15.125 7.5-7.563-2.938-2.938 1.875-1.875z"></path>
</svg>
