<?xml version="1.0" encoding="utf-8"?>
<!-- Generated by IcoMoon.io -->
<!DOCTYPE svg PUBLIC "-//W3C//DTD SVG 1.1//EN" "http://www.w3.org/Graphics/SVG/1.1/DTD/svg11.dtd">
<svg version="1.1" xmlns="http://www.w3.org/2000/svg" xmlns:xlink="http://www.w3.org/1999/xlink" width="32" height="32" viewBox="0 0 32 32">
<path d="M10 28.625l1.813-1.75 5.063 5.063-0.875 0.063q-6.25 0-10.844-4.25t-5.094-10.438h2q0.375 3.75 2.5 6.75t5.438 4.563zM19.75 28.25l8.5-8.5-16-16-8.5 8.5zM13.625 2.313l16.063 16.063q0.625 0.563 0.625 1.375t-0.625 1.438l-8.5 8.5q-0.563 0.625-1.375 0.625t-1.438-0.625l-16.063-16.063q-0.625-0.563-0.625-1.375t0.625-1.438l8.5-8.5q0.563-0.625 1.375-0.625t1.438 0.625zM22 3.375l-1.813 1.75-5.063-5.063 0.875-0.063q6.25 0 10.844 4.25t5.094 10.438h-2q-0.375-3.75-2.5-6.75t-5.438-4.563z"></path>
</svg>
