<?xml version="1.0" encoding="utf-8"?>
<!-- Generated by IcoMoon.io -->
<!DOCTYPE svg PUBLIC "-//W3C//DTD SVG 1.1//EN" "http://www.w3.org/Graphics/SVG/1.1/DTD/svg11.dtd">
<svg version="1.1" xmlns="http://www.w3.org/2000/svg" xmlns:xlink="http://www.w3.org/1999/xlink" width="32" height="32" viewBox="0 0 32 32">
<path d="M16 1.313q6.063 0 10.375 4.313t4.313 10.375h-2.688q0-5-3.5-8.5t-8.5-3.5-8.5 3.5-3.5 8.5h-2.688q0-6.063 4.313-10.375t10.375-4.313zM17.313 19.063v4.375l4.563 4.563-1.875 1.875-4-4-4 4-1.875-1.875 4.563-4.563v-4.375q-2-0.813-2-3.063 0-1.375 0.969-2.344t2.344-0.969 2.344 0.969 0.969 2.344q0 2.25-2 3.063zM16 6.688q3.875 0 6.594 2.719t2.719 6.594h-2.625q0-2.75-1.969-4.719t-4.719-1.969-4.719 1.969-1.969 4.719h-2.625q0-3.875 2.719-6.594t6.594-2.719z"></path>
</svg>
