<?xml version="1.0" encoding="utf-8"?>
<!-- Generated by IcoMoon.io -->
<!DOCTYPE svg PUBLIC "-//W3C//DTD SVG 1.1//EN" "http://www.w3.org/Graphics/SVG/1.1/DTD/svg11.dtd">
<svg version="1.1" xmlns="http://www.w3.org/2000/svg" xmlns:xlink="http://www.w3.org/1999/xlink" width="32" height="32" viewBox="0 0 32 32">
<path d="M28 25.375v-18.75h-24v18.75h24zM28 4q1.063 0 1.875 0.813t0.813 1.875v18.625q0 1.063-0.813 1.875t-1.875 0.813h-24q-1.063 0-1.875-0.813t-0.813-1.875v-18.625q0-1.063 0.813-1.875t1.875-0.813h24zM18.688 21.313l-2.688 3.375-2.688-3.375h5.375zM8 13.313v5.375l-3.313-2.688zM24 13.313l3.313 2.688-3.313 2.688v-5.375zM16 7.313l2.688 3.375h-5.375z"></path>
</svg>
