<?xml version="1.0" encoding="utf-8"?>
<!-- Generated by IcoMoon.io -->
<!DOCTYPE svg PUBLIC "-//W3C//DTD SVG 1.1//EN" "http://www.w3.org/Graphics/SVG/1.1/DTD/svg11.dtd">
<svg version="1.1" xmlns="http://www.w3.org/2000/svg" xmlns:xlink="http://www.w3.org/1999/xlink" width="32" height="32" viewBox="0 0 32 32">
<path d="M16 4q5 0 8.5 3.5t3.5 8.5-3.5 8.5-8.5 3.5q-4.125 0-7.313-2.5l1.875-1.875q2.5 1.688 5.438 1.688 3.875 0 6.594-2.719t2.719-6.594-2.719-6.594-6.594-2.719-6.594 2.719-2.719 6.594h4l-5.375 5.313-5.313-5.313h4q0-5 3.5-8.5t8.5-3.5zM18.688 16q0 1.063-0.813 1.875t-1.875 0.813-1.875-0.813-0.813-1.875 0.813-1.875 1.875-0.813 1.875 0.813 0.813 1.875z"></path>
</svg>
