<?xml version="1.0" encoding="utf-8"?>
<!-- Generated by IcoMoon.io -->
<!DOCTYPE svg PUBLIC "-//W3C//DTD SVG 1.1//EN" "http://www.w3.org/Graphics/SVG/1.1/DTD/svg11.dtd">
<svg version="1.1" xmlns="http://www.w3.org/2000/svg" xmlns:xlink="http://www.w3.org/1999/xlink" width="32" height="32" viewBox="0 0 32 32">
<path d="M16 12v8q1.625 0 2.813-1.188t1.188-2.813-1.188-2.813-2.813-1.188zM10.688 21.313v-3.313l-2-2 2-2v-3.313h3.313l2-2 2 2h3.313v3.313l2 2-2 2v3.313h-3.313l-2 2-2-2h-3.313zM28 25.375v-18.75h-24v18.75h24zM28 4q1.063 0 1.875 0.813t0.813 1.875v18.625q0 1.063-0.813 1.875t-1.875 0.813h-24q-1.063 0-1.875-0.813t-0.813-1.875v-18.625q0-1.063 0.813-1.875t1.875-0.813h24z"></path>
</svg>
