<?xml version="1.0" encoding="utf-8"?>
<!-- Generated by IcoMoon.io -->
<!DOCTYPE svg PUBLIC "-//W3C//DTD SVG 1.1//EN" "http://www.w3.org/Graphics/SVG/1.1/DTD/svg11.dtd">
<svg version="1.1" xmlns="http://www.w3.org/2000/svg" xmlns:xlink="http://www.w3.org/1999/xlink" width="32" height="32" viewBox="0 0 32 32">
<path d="M16 0q6.188 0 10.375 4.313l-1.875 1.875q-3.5-3.5-8.5-3.5t-8.5 3.5l-1.875-1.875q4.313-4.313 10.375-4.313zM9.375 8.063q2.75-2.75 6.625-2.75t6.625 2.75l-1.875 1.875q-1.938-1.938-4.75-1.938t-4.75 1.938zM16 20q1.063 0 1.875-0.813t0.813-1.875-0.813-1.844-1.875-0.781-1.875 0.781-0.813 1.844 0.813 1.875 1.875 0.813zM20 12q0.563 0 0.938 0.375t0.375 0.938v16q0 0.563-0.375 0.969t-0.938 0.406h-8q-0.563 0-0.938-0.406t-0.375-0.969v-16q0-0.563 0.375-0.938t0.938-0.375h8z"></path>
</svg>
