<?xml version="1.0" encoding="utf-8"?>
<!-- Generated by IcoMoon.io -->
<!DOCTYPE svg PUBLIC "-//W3C//DTD SVG 1.1//EN" "http://www.w3.org/Graphics/SVG/1.1/DTD/svg11.dtd">
<svg version="1.1" xmlns="http://www.w3.org/2000/svg" xmlns:xlink="http://www.w3.org/1999/xlink" width="32" height="32" viewBox="0 0 32 32">
<path d="M22.688 21.313v-2.625h8v2.625q0 1.313-0.75 2.313t-1.938 1.438v5.625h-2.688v-5.625q-2.625-0.938-2.625-3.75zM17.313 2.688v5.313h2.688v8h-8v-8h2.688v-5.313q0-0.563 0.375-0.969t0.938-0.406 0.938 0.406 0.375 0.969zM28 8h2.688v8h-8v-8h2.625v-5.313q0-0.563 0.406-0.969t0.969-0.406 0.938 0.406 0.375 0.969v5.313zM1.313 21.313v-2.625h8v2.625q0 2.813-2.625 3.75v5.625h-2.688v-5.625q-1.188-0.438-1.938-1.438t-0.75-2.313zM12 21.313v-2.625h8v2.625q0 1.313-0.75 2.313t-1.938 1.438v5.625h-2.625v-5.625q-1.188-0.438-1.938-1.438t-0.75-2.313zM6.688 2.688v5.313h2.625v8h-8v-8h2.688v-5.313q0-0.563 0.375-0.969t0.938-0.406 0.969 0.406 0.406 0.969z"></path>
</svg>
