<?xml version="1.0" encoding="utf-8"?>
<!-- Generated by IcoMoon.io -->
<!DOCTYPE svg PUBLIC "-//W3C//DTD SVG 1.1//EN" "http://www.w3.org/Graphics/SVG/1.1/DTD/svg11.dtd">
<svg version="1.1" xmlns="http://www.w3.org/2000/svg" xmlns:xlink="http://www.w3.org/1999/xlink" width="32" height="32" viewBox="0 0 32 32">
<path d="M25.313 13.313q0 3.375-2.344 5.938t-5.656 3.063v4.375h-2.625v-4.375q-3.313-0.5-5.656-3.063t-2.344-5.938h2.25q0 2.938 2.094 4.875t4.969 1.938 4.969-1.938 2.094-4.875h2.25zM20 32v-2.688h2.688v2.688h-2.688zM14.688 32v-2.688h2.625v2.688h-2.625zM16 17.313q-1.625 0-2.813-1.188t-1.188-2.813v-8q0-1.625 1.188-2.813t2.813-1.188 2.813 1.188 1.188 2.813v8q0 1.625-1.188 2.813t-2.813 1.188zM9.313 32v-2.688h2.688v2.688h-2.688z"></path>
</svg>
