<?xml version="1.0" encoding="utf-8"?>
<!-- Generated by IcoMoon.io -->
<!DOCTYPE svg PUBLIC "-//W3C//DTD SVG 1.1//EN" "http://www.w3.org/Graphics/SVG/1.1/DTD/svg11.dtd">
<svg version="1.1" xmlns="http://www.w3.org/2000/svg" xmlns:xlink="http://www.w3.org/1999/xlink" width="32" height="32" viewBox="0 0 32 32">
<path d="M28 25.375v-18.75h-24v18.75h24zM28 4q1.063 0 1.875 0.813t0.813 1.875v18.625q0 1.063-0.813 1.875t-1.875 0.813h-24q-1.063 0-1.875-0.813t-0.813-1.875v-18.625q0-1.063 0.813-1.875t1.875-0.813h24zM12 21.313q-1.625 0-2.813-1.188t-1.188-2.813q0-1.563 1.031-2.688t2.531-1.25h0.25q1.313-2.688 4.188-2.688 1.75 0 3.063 1.156t1.563 2.844h0.063q1.375 0 2.344 0.969t0.969 2.344-0.969 2.344-2.344 0.969h-8.688z"></path>
</svg>
