<?xml version="1.0" encoding="utf-8"?>
<!-- Generated by IcoMoon.io -->
<!DOCTYPE svg PUBLIC "-//W3C//DTD SVG 1.1//EN" "http://www.w3.org/Graphics/SVG/1.1/DTD/svg11.dtd">
<svg version="1.1" xmlns="http://www.w3.org/2000/svg" xmlns:xlink="http://www.w3.org/1999/xlink" width="32" height="32" viewBox="0 0 32 32">
<path d="M23 16q0-0.625-0.063-0.938l2-1.5q0.313-0.25 0.063-0.625l-1.875-3.25q-0.188-0.313-0.563-0.188l-2.313 0.938q-0.813-0.625-1.563-0.938l-0.375-2.438q-0.125-0.375-0.438-0.375h-3.75q-0.375 0-0.438 0.375l-0.375 2.5q-1 0.438-1.563 0.875l-2.313-0.938q-0.313-0.125-0.563 0.25l-1.875 3.188q-0.25 0.375 0.063 0.625l2 1.5q-0.063 0.313-0.063 0.938t0.063 0.938l-2 1.5q-0.313 0.25-0.063 0.625l1.875 3.25q0.188 0.313 0.563 0.188l2.313-0.938q0.813 0.625 1.563 0.938l0.375 2.438q0.125 0.375 0.438 0.375h3.75q0.375 0 0.438-0.375l0.375-2.5q1-0.438 1.563-0.875l2.313 0.938q0.313 0.125 0.563-0.25l1.875-3.188q0.25-0.375-0.063-0.625l-2-1.5q0.063-0.313 0.063-0.938zM25.313 4q1.125 0 1.906 0.813t0.781 1.875v18.625q0 1.063-0.781 1.875t-1.906 0.813h-18.625q-1.125 0-1.906-0.813t-0.781-1.875v-18.625q0-1.063 0.781-1.875t1.906-0.813h18.625zM16 13.313q1.063 0 1.875 0.813t0.813 1.875-0.813 1.875-1.875 0.813-1.875-0.813-0.813-1.875 0.813-1.875 1.875-0.813z"></path>
</svg>
