<?xml version="1.0" encoding="utf-8"?>
<!-- Generated by IcoMoon.io -->
<!DOCTYPE svg PUBLIC "-//W3C//DTD SVG 1.1//EN" "http://www.w3.org/Graphics/SVG/1.1/DTD/svg11.dtd">
<svg version="1.1" xmlns="http://www.w3.org/2000/svg" xmlns:xlink="http://www.w3.org/1999/xlink" width="32" height="32" viewBox="0 0 32 32">
<path d="M20.688 20q0.813 0 1.406 0.563t0.594 1.438-0.594 1.438-1.406 0.563-1.406-0.563-0.594-1.438 0.594-1.438 1.406-0.563zM23.313 13.313q0.813 0 1.406 0.594t0.594 1.406-0.594 1.406-1.406 0.594-1.406-0.594-0.594-1.406 0.594-1.406 1.406-0.594zM16 28q5 0 8.5-3.5t3.5-8.5-3.5-8.5-8.5-3.5-8.5 3.5-3.5 8.5 3.5 8.5 8.5 3.5zM16 1.313q6.063 0 10.375 4.313t4.313 10.375-4.313 10.375-10.375 4.313-10.375-4.313-4.313-10.375 4.313-10.375 10.375-4.313zM11.313 20q0.813 0 1.406 0.563t0.594 1.438-0.594 1.438-1.406 0.563-1.406-0.563-0.594-1.438 0.594-1.438 1.406-0.563zM20 8.688q0 0.813-0.563 1.406t-1.438 0.594h-4q-0.875 0-1.438-0.594t-0.563-1.406 0.563-1.406 1.438-0.594h4q0.875 0 1.438 0.594t0.563 1.406zM10.688 15.313q0 0.813-0.594 1.406t-1.406 0.594-1.406-0.594-0.594-1.406 0.594-1.406 1.406-0.594 1.406 0.594 0.594 1.406z"></path>
</svg>
