<?xml version="1.0" encoding="utf-8"?>
<!-- Generated by IcoMoon.io -->
<!DOCTYPE svg PUBLIC "-//W3C//DTD SVG 1.1//EN" "http://www.w3.org/Graphics/SVG/1.1/DTD/svg11.dtd">
<svg version="1.1" xmlns="http://www.w3.org/2000/svg" xmlns:xlink="http://www.w3.org/1999/xlink" width="32" height="32" viewBox="0 0 32 32">
<path d="M20 32v-2.688h2.688v2.688h-2.688zM22.063 5.938q4.625 3.25 4.625 8.75 0 4.375-3.125 7.5t-7.563 3.125-7.563-3.125-3.125-7.5q0-5.5 4.625-8.75l1.875 1.875q-3.813 2.375-3.813 6.875 0 3.313 2.344 5.656t5.656 2.344 5.656-2.344 2.344-5.656q0-4.5-3.875-6.813zM17.313 2.688v13.313h-2.625v-13.313h2.625zM14.688 32v-2.688h2.625v2.688h-2.625zM9.313 32v-2.688h2.688v2.688h-2.688z"></path>
</svg>
