<?xml version="1.0" encoding="utf-8"?>
<!-- Generated by IcoMoon.io -->
<!DOCTYPE svg PUBLIC "-//W3C//DTD SVG 1.1//EN" "http://www.w3.org/Graphics/SVG/1.1/DTD/svg11.dtd">
<svg version="1.1" xmlns="http://www.w3.org/2000/svg" xmlns:xlink="http://www.w3.org/1999/xlink" width="32" height="32" viewBox="0 0 32 32">
<path d="M24 21.438q1.625 0 2.75 1.156t1.125 2.719q0 1.625-1.156 2.781t-2.719 1.156-2.719-1.156-1.156-2.781q0-0.625 0.063-0.875l-9.438-5.5q-1.188 1.063-2.75 1.063-1.625 0-2.813-1.188t-1.188-2.813 1.188-2.813 2.813-1.188q1.563 0 2.75 1.063l9.375-5.438q-0.125-0.625-0.125-0.938 0-1.625 1.188-2.813t2.813-1.188 2.813 1.188 1.188 2.813-1.188 2.813-2.813 1.188q-1.5 0-2.75-1.125l-9.375 5.5q0.125 0.625 0.125 0.938t-0.125 0.938l9.5 5.5q1.125-1 2.625-1z"></path>
</svg>
