<?xml version="1.0" encoding="utf-8"?>
<!-- Generated by IcoMoon.io -->
<!DOCTYPE svg PUBLIC "-//W3C//DTD SVG 1.1//EN" "http://www.w3.org/Graphics/SVG/1.1/DTD/svg11.dtd">
<svg version="1.1" xmlns="http://www.w3.org/2000/svg" xmlns:xlink="http://www.w3.org/1999/xlink" width="32" height="32" viewBox="0 0 32 32">
<path d="M16 22.688q1.063 0 1.875-0.813t0.813-1.875-0.813-1.875-1.875-0.813-1.875 0.813-0.813 1.875 0.813 1.875 1.875 0.813zM12 12h8l-4-5.875zM22.938 12h6.375q0.563 0 0.969 0.375t0.406 0.938q-0.625 2.5-1.875 7.031t-1.563 5.719q-0.563 1.938-2.563 1.938h-17.375q-2 0-2.563-1.938l-3.375-12.375q-0.063-0.125-0.063-0.375 0-0.563 0.406-0.938t0.969-0.375h6.375l5.813-8.75q0.375-0.563 1.125-0.563t1.125 0.563z"></path>
</svg>
