<?xml version="1.0" encoding="utf-8"?>
<!-- Generated by IcoMoon.io -->
<!DOCTYPE svg PUBLIC "-//W3C//DTD SVG 1.1//EN" "http://www.w3.org/Graphics/SVG/1.1/DTD/svg11.dtd">
<svg version="1.1" xmlns="http://www.w3.org/2000/svg" xmlns:xlink="http://www.w3.org/1999/xlink" width="32" height="32" viewBox="0 0 32 32">
<path d="M20.688 19.313v3.5l-4.688 5.875-15.438-19.375 0.375-0.313q0.375-0.25 0.781-0.531t1.094-0.719 1.469-0.813 1.781-0.844 2.125-0.813 2.344-0.656 2.625-0.469 2.844-0.156 2.844 0.156 2.625 0.469 2.344 0.656 2.125 0.813 1.781 0.844 1.469 0.813 1.094 0.719 0.781 0.531l0.375 0.313-2.75 3.5q-0.375-0.125-1.375-0.125-2.813 0-4.719 1.906t-1.906 4.719zM29.313 21.313v-2q0-0.813-0.594-1.406t-1.406-0.594-1.406 0.594-0.594 1.406v2h4zM30.688 21.313q0.5 0 0.906 0.438t0.406 0.938v5.313q0 0.5-0.406 0.906t-0.906 0.406h-6.688q-0.5 0-0.906-0.406t-0.406-0.906v-5.313q0-0.5 0.406-0.938t0.906-0.438v-2q0-1.438 0.938-2.375t2.375-0.938 2.406 0.969 0.969 2.344v2z"></path>
</svg>
