<?xml version="1.0" encoding="utf-8"?>
<!-- Generated by IcoMoon.io -->
<!DOCTYPE svg PUBLIC "-//W3C//DTD SVG 1.1//EN" "http://www.w3.org/Graphics/SVG/1.1/DTD/svg11.dtd">
<svg version="1.1" xmlns="http://www.w3.org/2000/svg" xmlns:xlink="http://www.w3.org/1999/xlink" width="32" height="32" viewBox="0 0 32 32">
<path d="M29.313 16q0 5.125-3.438 8.938t-8.5 4.313v-2.688q3.938-0.5 6.625-3.531t2.688-7.031-2.688-7.031-6.625-3.531v-2.688q5.063 0.5 8.5 4.313t3.438 8.938zM7.563 26.313l1.875-1.875q2.313 1.75 5.25 2.125v2.688q-3.938-0.375-7.125-2.938zM5.438 17.313q0.375 2.938 2.125 5.188l-1.875 1.938q-2.563-3.188-2.938-7.125h2.688zM7.563 9.438q-1.75 2.313-2.125 5.25h-2.688q0.375-3.938 2.938-7.125zM14.688 5.438q-2.938 0.375-5.25 2.125l-1.875-1.875q3.188-2.563 7.125-2.938v2.688zM17.375 13.063l3.938 2.938q-3.938 2.938-8 6z"></path>
</svg>
