<?xml version="1.0" encoding="utf-8"?>
<!-- Generated by IcoMoon.io -->
<!DOCTYPE svg PUBLIC "-//W3C//DTD SVG 1.1//EN" "http://www.w3.org/Graphics/SVG/1.1/DTD/svg11.dtd">
<svg version="1.1" xmlns="http://www.w3.org/2000/svg" xmlns:xlink="http://www.w3.org/1999/xlink" width="32" height="32" viewBox="0 0 32 32">
<path d="M21.375 13.625q1.938 0 3.281 1.188t1.344 3v2.188h-2v-1.75q0-1.25-0.781-1.969t-1.844-0.719h-2.063q-1.813 0-3.125-1.344t-1.313-3.156 1.313-3.125 3.125-1.313v2q-1.063 0-1.75 0.656t-0.688 1.656q0 1.063 0.719 1.875t1.719 0.813h2.063zM25.125 10.313q1.875 0.875 3.031 2.688t1.156 4v3h-2v-3q0-2.25-1.531-3.813t-3.781-1.563v-2q1 0 1.719-0.719t0.719-1.781q0-1-0.719-1.719t-1.719-0.719v-2q1.813 0 3.125 1.313t1.313 3.125q0 1.875-1.313 3.188zM24 21.313h2v4h-2v-4zM27.313 21.313h2v4h-2v-4zM2.688 21.313h20v4h-20v-4z"></path>
</svg>
