<?xml version="1.0" encoding="utf-8"?>
<!-- Generated by IcoMoon.io -->
<!DOCTYPE svg PUBLIC "-//W3C//DTD SVG 1.1//EN" "http://www.w3.org/Graphics/SVG/1.1/DTD/svg11.dtd">
<svg version="1.1" xmlns="http://www.w3.org/2000/svg" xmlns:xlink="http://www.w3.org/1999/xlink" width="32" height="32" viewBox="0 0 32 32">
<path d="M22.688 21.25l-3.938-3.938h3.938v3.938zM19.313 11.625q-1.813 0-3.125-1.344t-1.313-3.156 1.313-3.125 3.125-1.313v2q-1.063 0-1.75 0.656t-0.688 1.656q0 1.063 0.719 1.875t1.719 0.813h2.063q1.875 0 3.25 1.219t1.375 2.969v2.125h-2v-1.688q0-1.25-0.781-1.969t-1.844-0.719h-2.063zM25.125 6.5q1.875 0.875 3.031 2.688t1.156 4.063v2.75h-2v-2.75q0-2.25-1.531-3.844t-3.781-1.594v-2q1 0 1.719-0.719t0.719-1.781h2q0 1.875-1.313 3.188zM24 17.313h2v4h-2v-4zM27.313 17.313h2v4h-2v-4zM2.688 8l1.625-1.688 22.688 22.688-1.688 1.688-9.313-9.375h-13.313v-4h9.313z"></path>
</svg>
