<?xml version="1.0" encoding="utf-8"?>
<!-- Generated by IcoMoon.io -->
<!DOCTYPE svg PUBLIC "-//W3C//DTD SVG 1.1//EN" "http://www.w3.org/Graphics/SVG/1.1/DTD/svg11.dtd">
<svg version="1.1" xmlns="http://www.w3.org/2000/svg" xmlns:xlink="http://www.w3.org/1999/xlink" width="32" height="32" viewBox="0 0 32 32">
<path d="M12 14.688v-2.688h8v2.375l-4.813 5.625h4.813v2.688h-8v-2.438l4.813-5.563h-4.813zM16 26.688q3.875 0 6.594-2.75t2.719-6.625-2.719-6.594-6.594-2.719-6.594 2.719-2.719 6.594 2.719 6.625 6.594 2.75zM16 5.313q5 0 8.5 3.531t3.5 8.469-3.5 8.469-8.5 3.531-8.5-3.531-3.5-8.469 3.5-8.469 8.5-3.531zM29.313 7.625l-1.688 2.063-6.125-5.188 1.688-2zM10.5 4.5l-6.125 5.125-1.688-2 6.125-5.125z"></path>
</svg>
