<?xml version="1.0" encoding="utf-8"?>
<!-- Generated by IcoMoon.io -->
<!DOCTYPE svg PUBLIC "-//W3C//DTD SVG 1.1//EN" "http://www.w3.org/Graphics/SVG/1.1/DTD/svg11.dtd">
<svg version="1.1" xmlns="http://www.w3.org/2000/svg" xmlns:xlink="http://www.w3.org/1999/xlink" width="32" height="32" viewBox="0 0 32 32">
<path d="M16 16q1.625 0 2.813 1.188t1.188 2.813-1.188 2.813-2.813 1.188-2.813-1.188-1.188-2.813 1.188-2.813 2.813-1.188zM16 26.688q2.75 0 4.719-1.969t1.969-4.719-1.969-4.719-4.719-1.969-4.719 1.969-1.969 4.719 1.969 4.719 4.719 1.969zM16 5.313q-1.125 0-1.906 0.813t-0.781 1.875 0.781 1.875 1.906 0.813q1.063 0 1.875-0.813t0.813-1.875-0.813-1.875-1.875-0.813zM22.688 2.688q1.063 0 1.844 0.781t0.781 1.844v21.375q0 1.063-0.781 1.844t-1.844 0.781h-13.375q-1.063 0-1.844-0.781t-0.781-1.844v-21.375q0-1.063 0.781-1.844t1.844-0.781h13.375z"></path>
</svg>
