<?xml version="1.0" encoding="utf-8"?>
<!-- Generated by IcoMoon.io -->
<!DOCTYPE svg PUBLIC "-//W3C//DTD SVG 1.1//EN" "http://www.w3.org/Graphics/SVG/1.1/DTD/svg11.dtd">
<svg version="1.1" xmlns="http://www.w3.org/2000/svg" xmlns:xlink="http://www.w3.org/1999/xlink" width="32" height="32" viewBox="0 0 32 32">
<path d="M20 26.688v-10.688h-8v10.688h8zM19.813 13.375q0.625 0 1.063 0.438t0.438 1.063v12.938q0 0.625-0.438 1.063t-1.063 0.438h-7.625q-0.625 0-1.063-0.438t-0.438-1.063v-12.938q0-0.625 0.438-1.094t1.063-0.469zM16 1.313q6 0 10.313 4.313l-1.875 1.875q-3.5-3.5-8.438-3.5t-8.438 3.5l-1.875-1.875q4.313-4.313 10.313-4.313zM9.313 9.438q2.75-2.75 6.688-2.75t6.688 2.75l-1.938 1.875q-1.938-1.938-4.75-1.938t-4.75 1.938z"></path>
</svg>
