<?xml version="1.0" encoding="utf-8"?>
<!-- Generated by IcoMoon.io -->
<!DOCTYPE svg PUBLIC "-//W3C//DTD SVG 1.1//EN" "http://www.w3.org/Graphics/SVG/1.1/DTD/svg11.dtd">
<svg version="1.1" xmlns="http://www.w3.org/2000/svg" xmlns:xlink="http://www.w3.org/1999/xlink" width="32" height="32" viewBox="0 0 32 32">
<path d="M8 6.688v21.313h13.313v2.688h-13.313q-1.125 0-1.906-0.813t-0.781-1.875v-21.313h2.688zM15.313 16.688q0-1.375 1-2.375t2.375-1 2.344 1 0.969 2.375-0.969 2.344-2.344 0.969-2.375-0.969-1-2.344zM18.688 22q2.188 0 3.75-1.563t1.563-3.75-1.563-3.781-3.75-1.594-3.781 1.594-1.594 3.781 1.594 3.75 3.781 1.563zM18.688 4q-1.063 0-1.875 0.781t-0.813 1.906 0.781 1.875 1.906 0.75q1.063 0 1.844-0.75t0.781-1.875-0.781-1.906-1.844-0.781zM24.25 1.313q1 0 1.719 0.719t0.719 1.719v19.188q0 1-0.719 1.688t-1.719 0.688h-11.188q-1 0-1.688-0.688t-0.688-1.688v-19.188q0-1 0.688-1.719t1.688-0.719h11.188z"></path>
</svg>
