<?xml version="1.0" encoding="utf-8"?>
<!-- Generated by IcoMoon.io -->
<!DOCTYPE svg PUBLIC "-//W3C//DTD SVG 1.1//EN" "http://www.w3.org/Graphics/SVG/1.1/DTD/svg11.dtd">
<svg version="1.1" xmlns="http://www.w3.org/2000/svg" xmlns:xlink="http://www.w3.org/1999/xlink" width="32" height="32" viewBox="0 0 32 32">
<path d="M12.5 17.5q0 3.375 3.875 3.375 3.063 0 3.063-2.25 0-1-0.406-1.438t-1.469-0.938q-0.063 0-0.219-0.063t-0.281-0.125-0.25-0.063h-12.813v-2.688h24v2.688h-5.188q0 0.063 0.094 0.219t0.156 0.219q0.438 1.063 0.438 2.188 0 3.813-4.188 5-1.313 0.375-2.875 0.375-1 0-1.938-0.188-2.25-0.438-3.5-1.375-2.438-1.813-2.438-4.938h3.938zM19.438 10q0-2.813-3.188-2.813-2.25 0-2.938 1.375-0.188 0.375-0.188 0.875 0 0.938 1 1.625 1 0.625 1.875 0.938h-6.125q0-0.063-0.125-0.156t-0.125-0.156q-0.5-0.813-0.5-2.25 0-2.313 2-3.938 2.125-1.5 5.188-1.5 3.313 0 5.188 1.688 1.938 1.75 1.938 4.313h-4z"></path>
</svg>
