<?xml version="1.0" encoding="utf-8"?>
<!-- Generated by IcoMoon.io -->
<!DOCTYPE svg PUBLIC "-//W3C//DTD SVG 1.1//EN" "http://www.w3.org/Graphics/SVG/1.1/DTD/svg11.dtd">
<svg version="1.1" xmlns="http://www.w3.org/2000/svg" xmlns:xlink="http://www.w3.org/1999/xlink" width="32" height="32" viewBox="0 0 32 32">
<path d="M7.813 26.313v-8.438l4.625 11.125h-1.938q-1.063 0-1.875-0.813t-0.813-1.875zM10.5 11.688q0.563 0 0.938-0.406t0.375-0.969-0.375-0.938-0.938-0.375-0.938 0.375-0.375 0.938 0.375 0.969 0.938 0.406zM29.375 21.25q0.438 1 0 2.031t-1.438 1.469l-9.813 4.063q-0.5 0.188-1.063 0.188-1.75 0-2.438-1.625l-6.625-16q-0.188-0.563-0.188-1.063 0-1.688 1.625-2.375l9.875-4.063q0.563-0.188 1.063-0.188 1.688 0 2.375 1.625zM3.375 26.188q-1-0.438-1.438-1.438t0-2l3.25-7.813v12z"></path>
</svg>
