<?xml version="1.0" encoding="utf-8"?>
<!-- Generated by IcoMoon.io -->
<!DOCTYPE svg PUBLIC "-//W3C//DTD SVG 1.1//EN" "http://www.w3.org/Graphics/SVG/1.1/DTD/svg11.dtd">
<svg version="1.1" xmlns="http://www.w3.org/2000/svg" xmlns:xlink="http://www.w3.org/1999/xlink" width="32" height="32" viewBox="0 0 32 32">
<path d="M12 17.313q1.375 0 3.188 0.375-3.188 1.75-3.188 4.625v3h-9.313v-3.313q0-1.438 1.719-2.563t3.781-1.625 3.813-0.5zM22 18.688q2.313 0 4.813 1t2.5 2.625v3h-14.625v-3q0-1.625 2.5-2.625t4.813-1zM12 14.688q-1.625 0-2.813-1.188t-1.188-2.813 1.188-2.813 2.813-1.188 2.813 1.188 1.188 2.813-1.188 2.813-2.813 1.188zM22 16q-1.375 0-2.344-0.969t-0.969-2.344 0.969-2.375 2.344-1 2.344 1 0.969 2.375-0.969 2.344-2.344 0.969z"></path>
</svg>
