<?xml version="1.0" encoding="utf-8"?>
<!-- Generated by IcoMoon.io -->
<!DOCTYPE svg PUBLIC "-//W3C//DTD SVG 1.1//EN" "http://www.w3.org/Graphics/SVG/1.1/DTD/svg11.dtd">
<svg version="1.1" xmlns="http://www.w3.org/2000/svg" xmlns:xlink="http://www.w3.org/1999/xlink" width="32" height="32" viewBox="0 0 32 32">
<path d="M16 13.313q1.063 0 1.875 0.813t0.813 1.875-0.813 1.875-1.875 0.813-1.875-0.813-0.813-1.875 0.813-1.875 1.875-0.813zM23.563 23.563q3.125-3.125 3.125-7.563t-3.125-7.563l-1.938 1.938q2.375 2.375 2.375 5.625 0 3.375-2.313 5.688zM16 21.313q2.188 0 3.75-1.563t1.563-3.75-1.563-3.75-3.75-1.563-3.75 1.563-1.563 3.75 1.563 3.75 3.75 1.563zM10.375 21.625q-2.375-2.375-2.375-5.625 0-3.375 2.313-5.688l-1.875-1.875q-3.125 3.125-3.125 7.563t3.125 7.563zM26.688 5.313q1.063 0 1.844 0.813t0.781 1.875v16q0 1.063-0.781 1.875t-1.844 0.813h-21.375q-1.063 0-1.844-0.813t-0.781-1.875v-16q0-1.063 0.781-1.875t1.844-0.813h21.375z"></path>
</svg>
