<?xml version="1.0" encoding="utf-8"?>
<!-- Generated by IcoMoon.io -->
<!DOCTYPE svg PUBLIC "-//W3C//DTD SVG 1.1//EN" "http://www.w3.org/Graphics/SVG/1.1/DTD/svg11.dtd">
<svg version="1.1" xmlns="http://www.w3.org/2000/svg" xmlns:xlink="http://www.w3.org/1999/xlink" width="32" height="32" viewBox="0 0 32 32">
<path d="M24 5.313l5.313 5.375h-4v9.313q0 2.188-1.563 3.75t-3.75 1.563-3.75-1.563-1.563-3.75v-9.313q0-1.063-0.813-1.875t-1.875-0.813-1.875 0.813-0.813 1.875v9.313h4l-5.313 5.313-5.313-5.313h4v-9.313q0-2.188 1.563-3.781t3.75-1.594 3.75 1.594 1.563 3.781v9.313q0 1.063 0.813 1.875t1.875 0.813 1.875-0.813 0.813-1.875v-9.313h-4z"></path>
</svg>
