<?xml version="1.0" encoding="utf-8"?>
<!-- Generated by IcoMoon.io -->
<!DOCTYPE svg PUBLIC "-//W3C//DTD SVG 1.1//EN" "http://www.w3.org/Graphics/SVG/1.1/DTD/svg11.dtd">
<svg version="1.1" xmlns="http://www.w3.org/2000/svg" xmlns:xlink="http://www.w3.org/1999/xlink" width="32" height="32" viewBox="0 0 32 32">
<path d="M26.688 5.313l-3.188 3.188q3.188 3.188 3.188 7.5 0 3-1.625 5.625l-2-1.938q0.938-1.875 0.938-3.688 0-3.25-2.375-5.625l-2.938 2.938v-8h8zM3.813 7.188l1.688-1.688 20.938 21-1.688 1.688-3.125-3.125q-1.5 0.875-3 1.25v-2.75q0.5-0.188 1.063-0.5l-10.75-10.75q-0.938 1.875-0.938 3.688 0 3.25 2.375 5.625l2.938-2.938v8h-8l3.188-3.188q-3.188-3.188-3.188-7.5 0-3 1.625-5.625zM13.313 8.438q-0.375 0.125-1 0.5l-1.938-2q1.563-0.938 2.938-1.25v2.75z"></path>
</svg>
