<?xml version="1.0" encoding="utf-8"?>
<!-- Generated by IcoMoon.io -->
<!DOCTYPE svg PUBLIC "-//W3C//DTD SVG 1.1//EN" "http://www.w3.org/Graphics/SVG/1.1/DTD/svg11.dtd">
<svg version="1.1" xmlns="http://www.w3.org/2000/svg" xmlns:xlink="http://www.w3.org/1999/xlink" width="32" height="32" viewBox="0 0 32 32">
<path d="M16 24v-4l5.313 5.313-5.313 5.375v-4q-4.375 0-7.531-3.156t-3.156-7.531q0-3.125 1.688-5.688l1.938 1.938q-0.938 1.688-0.938 3.75 0 3.313 2.344 5.656t5.656 2.344zM16 5.313q4.375 0 7.531 3.156t3.156 7.531q0 3.125-1.688 5.688l-1.938-1.938q0.938-1.688 0.938-3.75 0-3.313-2.344-5.656t-5.656-2.344v4l-5.313-5.313 5.313-5.375v4z"></path>
</svg>
