<?xml version="1.0" encoding="utf-8"?>
<!-- Generated by IcoMoon.io -->
<!DOCTYPE svg PUBLIC "-//W3C//DTD SVG 1.1//EN" "http://www.w3.org/Graphics/SVG/1.1/DTD/svg11.dtd">
<svg version="1.1" xmlns="http://www.w3.org/2000/svg" xmlns:xlink="http://www.w3.org/1999/xlink" width="32" height="32" viewBox="0 0 32 32">
<path d="M14.688 17.313v-8h2.625v8h-2.625zM28 5.313l-3.125 3.188q3.125 3.125 3.125 7.5 0 3.688-2.25 6.563t-5.75 3.75v-2.75q2.375-0.813 3.844-2.875t1.469-4.688q0-3.313-2.313-5.625l-3 2.938v-8h8zM14.688 22.688v-2.688h2.625v2.688h-2.625zM4 16q0-3.688 2.25-6.563t5.75-3.75v2.75q-2.375 0.813-3.844 2.875t-1.469 4.688q0 3.313 2.313 5.625l3-2.938v8h-8l3.125-3.188q-3.125-3.125-3.125-7.5z"></path>
</svg>
