<?xml version="1.0" encoding="utf-8"?>
<!-- Generated by IcoMoon.io -->
<!DOCTYPE svg PUBLIC "-//W3C//DTD SVG 1.1//EN" "http://www.w3.org/Graphics/SVG/1.1/DTD/svg11.dtd">
<svg version="1.1" xmlns="http://www.w3.org/2000/svg" xmlns:xlink="http://www.w3.org/1999/xlink" width="32" height="32" viewBox="0 0 32 32">
<path d="M22.688 28v-2.688h2.625v2.688h-2.625zM17.313 28v-2.688h2.688v2.688h-2.688zM28 17.313v-2.625h2.688v2.625h-2.688zM28 28v-2.688h2.688q0 1.063-0.813 1.875t-1.875 0.813zM6.688 6.688v-2.688h2.625v2.688h-2.625zM6.688 28v-2.688h2.625v2.688h-2.625zM12 6.688v-2.688h2.688v2.688h-2.688zM28 22.688v-2.688h2.688v2.688h-2.688zM28 4q1.063 0 1.875 0.813t0.813 1.875v5.313h-13.375v-8h10.688zM4 28q-1.063 0-1.875-0.813t-0.813-1.875h2.688v2.688zM1.313 22.688v-2.688h2.688v2.688h-2.688zM12 28v-2.688h2.688v2.688h-2.688zM1.313 6.688q0-1.063 0.813-1.875t1.875-0.813v2.688h-2.688zM1.313 17.313v-2.625h2.688v2.625h-2.688zM1.313 12v-2.688h2.688v2.688h-2.688z"></path>
</svg>
