<?xml version="1.0" encoding="utf-8"?>
<!-- Generated by IcoMoon.io -->
<!DOCTYPE svg PUBLIC "-//W3C//DTD SVG 1.1//EN" "http://www.w3.org/Graphics/SVG/1.1/DTD/svg11.dtd">
<svg version="1.1" xmlns="http://www.w3.org/2000/svg" xmlns:xlink="http://www.w3.org/1999/xlink" width="32" height="32" viewBox="0 0 32 32">
<path d="M22.688 1.375q1.063 0 1.844 0.781t0.781 1.844v22.688q0 1.063-0.781 1.844t-1.844 0.781h-2.813q-0.188-2.688-1.25-5.313h4.063v-17.313h-13.375v8q-1.563-0.688-2.625-0.875v-9.813q0-1.063 0.781-1.875t1.844-0.813zM2.688 16q6.063 0 10.344 4.281t4.281 10.406h-2.625q0-4.938-3.531-8.469t-8.469-3.531v-2.688zM2.688 26.688q1.625 0 2.813 1.188t1.188 2.813h-4v-4zM2.688 21.313q3.875 0 6.594 2.75t2.719 6.625h-2.688q0-2.75-1.938-4.719t-4.688-1.969v-2.688z"></path>
</svg>
