<?xml version="1.0" encoding="utf-8"?>
<!-- Generated by IcoMoon.io -->
<!DOCTYPE svg PUBLIC "-//W3C//DTD SVG 1.1//EN" "http://www.w3.org/Graphics/SVG/1.1/DTD/svg11.dtd">
<svg version="1.1" xmlns="http://www.w3.org/2000/svg" xmlns:xlink="http://www.w3.org/1999/xlink" width="32" height="32" viewBox="0 0 32 32">
<path d="M30 13.313q0.875 0 1.438 0.594t0.563 1.406v8.688q0 0.875-0.563 1.438l-6.625 6.563-1.063-1.063q-0.438-0.438-0.438-1.063 0.188-0.875 0.531-2.5t0.406-2.063h-6.938q-0.563 0-0.938-0.375t-0.375-0.938v-1.688q0-0.188 0.125-0.688l3.063-7.063q0.563-1.25 1.813-1.25h9zM16 8v1.688q0 0.188-0.125 0.688l-3.063 7.063q-0.563 1.25-1.813 1.25h-9q-0.875 0-1.438-0.594t-0.563-1.406v-8.688q0-0.875 0.563-1.438l6.625-6.563 1.063 1.063q0.438 0.438 0.438 1.063-0.188 0.875-0.531 2.5t-0.406 2.063h6.938q0.563 0 0.938 0.375t0.375 0.938z"></path>
</svg>
