<?xml version="1.0" encoding="utf-8"?>
<!-- Generated by IcoMoon.io -->
<!DOCTYPE svg PUBLIC "-//W3C//DTD SVG 1.1//EN" "http://www.w3.org/Graphics/SVG/1.1/DTD/svg11.dtd">
<svg version="1.1" xmlns="http://www.w3.org/2000/svg" xmlns:xlink="http://www.w3.org/1999/xlink" width="32" height="32" viewBox="0 0 32 32">
<path d="M16 26.688q2.438 0 4.688-1.313l-12.75-12.75q-1.25 2.125-1.25 4.688 0 3.875 2.719 6.625t6.594 2.75zM4 5.313l23.688 23.688-1.688 1.688-3.375-3.375q-3.125 2-6.625 2-5 0-8.5-3.531t-3.5-8.469q0-3.625 2-6.625l-3.688-3.688zM14.688 12.563v-1.875h2.625v4.563zM20 1.313v2.688h-8v-2.688h8zM25.375 6.063l1.875 1.875-1.875 1.938q2.625 3.313 2.625 7.438 0 3.625-2 6.625l-1.938-1.938q1.25-2.125 1.25-4.688 0-3.875-2.719-6.594t-6.594-2.719q-2.5 0-4.625 1.25l-2-1.938q3-2 6.625-2 4.188 0 7.5 2.625z"></path>
</svg>
