<?xml version="1.0" encoding="utf-8"?>
<!-- Generated by IcoMoon.io -->
<!DOCTYPE svg PUBLIC "-//W3C//DTD SVG 1.1//EN" "http://www.w3.org/Graphics/SVG/1.1/DTD/svg11.dtd">
<svg version="1.1" xmlns="http://www.w3.org/2000/svg" xmlns:xlink="http://www.w3.org/1999/xlink" width="32" height="32" viewBox="0 0 32 32">
<path d="M6.688 13.313h18.625l-2-6h-14.625zM23.313 20q0.813 0 1.406-0.563t0.594-1.438-0.594-1.438-1.406-0.563-1.406 0.563-0.594 1.438 0.594 1.438 1.406 0.563zM8.688 20q0.813 0 1.406-0.563t0.594-1.438-0.594-1.438-1.406-0.563-1.406 0.563-0.594 1.438 0.594 1.438 1.406 0.563zM25.25 6.688l2.75 8v10.625q0 0.563-0.375 0.969t-0.938 0.406h-1.375q-0.563 0-0.938-0.406t-0.375-0.969v-1.313h-16v1.313q0 0.563-0.375 0.969t-0.938 0.406h-1.375q-0.563 0-0.938-0.406t-0.375-0.969v-10.625l2.75-8q0.438-1.375 1.938-1.375h14.625q1.5 0 1.938 1.375z"></path>
</svg>
