<?xml version="1.0" encoding="utf-8"?>
<!-- Generated by IcoMoon.io -->
<!DOCTYPE svg PUBLIC "-//W3C//DTD SVG 1.1//EN" "http://www.w3.org/Graphics/SVG/1.1/DTD/svg11.dtd">
<svg version="1.1" xmlns="http://www.w3.org/2000/svg" xmlns:xlink="http://www.w3.org/1999/xlink" width="32" height="32" viewBox="0 0 32 32">
<path d="M16 26.688q3.875 0 6.594-2.75t2.719-6.625-2.719-6.594-6.594-2.719-6.594 2.719-2.719 6.594 2.719 6.625 6.594 2.75zM25.375 9.875q2.625 3.313 2.625 7.438 0 4.938-3.5 8.469t-8.5 3.531-8.5-3.531-3.5-8.469 3.5-8.469 8.5-3.531q4.063 0 7.5 2.688l1.875-1.938q1 0.813 1.875 1.875zM14.688 18.688v-8h2.625v8h-2.625zM20 1.313v2.688h-8v-2.688h8z"></path>
</svg>
