<?xml version="1.0" encoding="utf-8"?>
<!-- Generated by IcoMoon.io -->
<!DOCTYPE svg PUBLIC "-//W3C//DTD SVG 1.1//EN" "http://www.w3.org/Graphics/SVG/1.1/DTD/svg11.dtd">
<svg version="1.1" xmlns="http://www.w3.org/2000/svg" xmlns:xlink="http://www.w3.org/1999/xlink" width="32" height="32" viewBox="0 0 32 32">
<path d="M17.188 17.625v-3.375q0-2.25-0.625-3.313-0.438-0.938-1.875-0.938-0.625 0-1.125 0.188-1.438 0.875-1.438 4.125v3.313q0 1.5 0.125 2.063 0.063 0.313 0.563 1.313t1.875 1 1.875-1q0.375-0.75 0.5-1.313t0.125-2.063zM9.5 14.688q0-6.813 5.188-6.813 2.563 0 3.75 1.5 1.375 1.75 1.375 5.313v2.563q0 6.875-5.125 6.875-5.188 0-5.188-6.875v-2.563zM27.25 13.938q-1.875 0-1.875 1.438 0 0.188 0.031 0.344t0.094 0.25l0.125 0.188t0.188 0.156l0.188 0.094t0.281 0.125 0.281 0.094q0.563 0.25 1.188 0.313 0.563 0.125 1.75 0.5 0.5 0.188 1.375 0.75 0.5 0.313 0.813 1 0.313 0.625 0.313 1.313 0 2.313-2.75 3.25-0.75 0.25-1.875 0.25-3.563 0-4.625-2.438-0.313-0.75-0.313-1.375h2.563q0 1.875 2.375 1.875 2.063 0 2.063-1.438 0-0.375-0.188-0.656t-0.375-0.375-0.625-0.281-1.531-0.469-1.469-0.406q-0.5-0.188-1.25-0.688-1.188-0.813-1.188-2.25 0-2.375 2.625-3.25 0.75-0.25 1.813-0.25 2.063 0 3.375 0.938t1.313 2.75h-2.625q0-1.313-1.125-1.563-0.75-0.188-0.938-0.188zM0 10.313l6.313-2.313h0.375v16h-2.688v-12.813l-4 1.375v-2.25z"></path>
</svg>
