<?xml version="1.0" encoding="utf-8"?>
<!-- Generated by IcoMoon.io -->
<!DOCTYPE svg PUBLIC "-//W3C//DTD SVG 1.1//EN" "http://www.w3.org/Graphics/SVG/1.1/DTD/svg11.dtd">
<svg version="1.1" xmlns="http://www.w3.org/2000/svg" xmlns:xlink="http://www.w3.org/1999/xlink" width="32" height="32" viewBox="0 0 32 32">
<path d="M30.688 10.688q0 1.063-0.813 1.844t-1.875 0.781q-0.5 0-0.688-0.063l-4.75 4.75q0.125 0.375 0.125 0.688 0 1.063-0.813 1.844t-1.875 0.781-1.875-0.781-0.813-1.844q0-0.313 0.125-0.688l-3.438-3.438q-0.375 0.125-0.688 0.125t-0.688-0.125l-6.063 6.063q0.125 0.375 0.125 0.688 0 1.063-0.813 1.875t-1.875 0.813-1.875-0.813-0.813-1.875 0.813-1.844 1.875-0.781q0.5 0 0.688 0.063l6.063-6.063q-0.063-0.188-0.063-0.688 0-1.063 0.781-1.875t1.844-0.813 1.875 0.813 0.813 1.875q0 0.5-0.063 0.688l3.375 3.375q0.188-0.063 0.688-0.063t0.688 0.063l4.75-4.688q-0.125-0.375-0.125-0.688 0-1.063 0.813-1.875t1.875-0.813 1.875 0.813 0.813 1.875z"></path>
</svg>
