<?xml version="1.0" encoding="utf-8"?>
<!-- Generated by IcoMoon.io -->
<!DOCTYPE svg PUBLIC "-//W3C//DTD SVG 1.1//EN" "http://www.w3.org/Graphics/SVG/1.1/DTD/svg11.dtd">
<svg version="1.1" xmlns="http://www.w3.org/2000/svg" xmlns:xlink="http://www.w3.org/1999/xlink" width="32" height="32" viewBox="0 0 32 32">
<path d="M23.375 13.938q-1.938 0-1.938 1.438 0 0.188 0.031 0.313t0.063 0.219 0.125 0.188 0.156 0.125 0.188 0.125 0.188 0.094 0.25 0.094 0.25 0.094q0.563 0.25 1.125 0.313 0.688 0.125 1.813 0.5 0.5 0.188 1.375 0.75 0.438 0.313 0.813 1 0.313 0.625 0.313 1.313 0 2.313-2.75 3.25-0.75 0.25-1.938 0.25-3.5 0-4.563-2.438-0.313-0.75-0.313-1.375h2.5q0 0.938 0.688 1.406t1.75 0.469q2.063 0 2.063-1.438 0-0.375-0.188-0.656t-0.375-0.375-0.625-0.281q-0.313-0.125-1.313-0.375-1.75-0.375-3-1.188-1.125-0.75-1.125-2.25 0-2.375 2.625-3.25 0.75-0.25 1.813-0.25 2.063 0 3.375 0.938t1.313 2.75h-2.625q0-1.25-1.188-1.563-0.75-0.188-0.875-0.188zM13.438 15.813q2.625 1 2.625 3.625 0 2.313-1.5 3.438-1.438 1.25-3.75 1.25t-3.781-1.188-1.469-3.313h2.688q0 1.25 0.688 1.75 0.813 0.625 1.875 0.625 2.625 0 2.625-2.563t-2.875-2.563h-1.625v-2.063h1.563q2 0 2.563-1.438 0.125-0.313 0.125-1 0-2.375-2.375-2.375-1.625 0-2.25 1.25-0.188 0.375-0.188 0.938h-2.625q0-2.813 3-4 1.063-0.313 2.063-0.313 2.375 0 3.688 1.125t1.313 3.375-2.375 3.438z"></path>
</svg>
