<?xml version="1.0" encoding="utf-8"?>
<!-- Generated by IcoMoon.io -->
<!DOCTYPE svg PUBLIC "-//W3C//DTD SVG 1.1//EN" "http://www.w3.org/Graphics/SVG/1.1/DTD/svg11.dtd">
<svg version="1.1" xmlns="http://www.w3.org/2000/svg" xmlns:xlink="http://www.w3.org/1999/xlink" width="32" height="32" viewBox="0 0 32 32">
<path d="M4 16q0 2.625 1.469 4.688t3.844 2.875v2.75q-3.5-0.875-5.75-3.75t-2.25-6.563 2.25-6.563 5.75-3.75v2.75q-2.375 0.813-3.844 2.875t-1.469 4.688zM20 24q3.313 0 5.656-2.344t2.344-5.656-2.344-5.656-5.656-2.344-5.656 2.344-2.344 5.656 2.344 5.656 5.656 2.344zM20 5.313q4.375 0 7.531 3.156t3.156 7.531-3.156 7.531-7.531 3.156-7.531-3.156-3.156-7.531 3.156-7.531 7.531-3.156z"></path>
</svg>
