<?xml version="1.0" encoding="utf-8"?>
<!-- Generated by IcoMoon.io -->
<!DOCTYPE svg PUBLIC "-//W3C//DTD SVG 1.1//EN" "http://www.w3.org/Graphics/SVG/1.1/DTD/svg11.dtd">
<svg version="1.1" xmlns="http://www.w3.org/2000/svg" xmlns:xlink="http://www.w3.org/1999/xlink" width="32" height="32" viewBox="0 0 32 32">
<path d="M26.313 18.688q0.125-0.375 0.25-1.375h-9.25v1.375h9zM24.313 22.688q0.75-1.063 0.938-1.375h-7.938v1.375h7zM17.313 26.563q2-0.25 3.875-1.25h-3.875v1.25zM17.313 13.313v1.375h9.25q-0.125-1-0.25-1.375h-9zM17.313 9.313v1.375h7.938q-0.188-0.313-0.938-1.375h-7zM17.313 5.438v1.25h3.875q-1.875-1-3.875-1.25zM14.688 26.563v-21.125q-3.938 0.5-6.656 3.5t-2.719 7.063 2.719 7.063 6.656 3.5zM16 2.688q5.5 0 9.406 3.906t3.906 9.406-3.906 9.406-9.406 3.906-9.406-3.906-3.906-9.406 3.906-9.406 9.406-3.906z"></path>
</svg>
