<?xml version="1.0" encoding="utf-8"?>
<!-- Generated by IcoMoon.io -->
<!DOCTYPE svg PUBLIC "-//W3C//DTD SVG 1.1//EN" "http://www.w3.org/Graphics/SVG/1.1/DTD/svg11.dtd">
<svg version="1.1" xmlns="http://www.w3.org/2000/svg" xmlns:xlink="http://www.w3.org/1999/xlink" width="32" height="32" viewBox="0 0 32 32">
<path d="M25.125 21.188q1.188 0.563 1.188 1.813v0.25l-1 7.063q-0.063 0.75-0.625 1.219t-1.313 0.469h-9.063q-0.813 0-1.375-0.563l-6.625-6.625 1.063-1.063q0.438-0.438 1.063-0.438 0.063 0 0.156 0.031t0.156 0.031l4.563 0.938v-14.313q0-0.875 0.594-1.438t1.406-0.563 1.406 0.563 0.594 1.438v8h1.063q0.188 0 0.688 0.125zM12 15q-2.688-1.75-2.688-5 0-2.5 1.75-4.25t4.25-1.75 4.25 1.75 1.75 4.25q0 3.313-2.625 5v-5q0-1.375-1-2.344t-2.375-0.969-2.344 0.969-0.969 2.344v5z"></path>
</svg>
