<?xml version="1.0" encoding="utf-8"?>
<!-- Generated by IcoMoon.io -->
<!DOCTYPE svg PUBLIC "-//W3C//DTD SVG 1.1//EN" "http://www.w3.org/Graphics/SVG/1.1/DTD/svg11.dtd">
<svg version="1.1" xmlns="http://www.w3.org/2000/svg" xmlns:xlink="http://www.w3.org/1999/xlink" width="32" height="32" viewBox="0 0 32 32">
<path d="M25.438 6.563q3.875 3.875 3.875 9.438 0 5.5-3.906 9.406t-9.406 3.906-9.406-3.906-3.906-9.406 3.906-9.406 9.406-3.906h1.313v11q1.375 0.75 1.375 2.313 0 1.063-0.813 1.875t-1.875 0.813-1.875-0.813-0.813-1.875q0-1.563 1.375-2.313v-2.813q-1.75 0.5-2.875 1.875t-1.125 3.25q0 2.188 1.563 3.75t3.75 1.563 3.75-1.563 1.563-3.75q0-2.063-1.563-3.75l1.875-1.875q2.375 2.375 2.375 5.625 0 3.313-2.344 5.656t-5.656 2.344-5.656-2.344-2.344-5.656q0-2.938 1.906-5.156t4.781-2.719v-2.688q-3.938 0.5-6.656 3.5t-2.719 7.063q0 4.375 3.156 7.531t7.531 3.156 7.531-3.156 3.156-7.531q0-4.438-3.125-7.563z"></path>
</svg>
