<?xml version="1.0" encoding="utf-8"?>
<!-- Generated by IcoMoon.io -->
<!DOCTYPE svg PUBLIC "-//W3C//DTD SVG 1.1//EN" "http://www.w3.org/Graphics/SVG/1.1/DTD/svg11.dtd">
<svg version="1.1" xmlns="http://www.w3.org/2000/svg" xmlns:xlink="http://www.w3.org/1999/xlink" width="32" height="32" viewBox="0 0 32 32">
<path d="M16 12q1.125 0 1.906-0.813t0.781-1.875q0-1.125-0.781-1.875t-1.906-0.75-1.906 0.75-0.781 1.875q0 1.063 0.781 1.875t1.906 0.813zM16 18.688q1.125 0 1.906-0.813t0.781-1.875-0.813-1.875-1.875-0.813q-1.125 0-1.906 0.813t-0.781 1.875 0.781 1.875 1.906 0.813zM16 25.313q1.125 0 1.906-0.781t0.781-1.844-0.813-1.875-1.875-0.813q-1.125 0-1.906 0.813t-0.781 1.875 0.781 1.844 1.906 0.781zM26.688 13.313q0 1.875-1.125 3.281t-2.875 1.906v1.5h4q0 1.875-1.125 3.25t-2.875 1.875v1.563q0 0.563-0.406 0.938t-0.969 0.375h-10.625q-0.563 0-0.969-0.375t-0.406-0.938v-1.563q-1.75-0.5-2.875-1.875t-1.125-3.25h4v-1.5q-1.75-0.5-2.875-1.906t-1.125-3.281h4v-1.5q-1.75-0.5-2.875-1.875t-1.125-3.25h4v-1.375q0-0.563 0.406-0.938t0.969-0.375h10.625q0.563 0 0.969 0.375t0.406 0.938v1.375h4q0 1.875-1.125 3.25t-2.875 1.875v1.5h4z"></path>
</svg>
