<svg xmlns="http://www.w3.org/2000/svg" width="24" height="24" viewBox="0 0 24 24"><path d="M20 10h-3V8.86c1.725-.445 3-1.995 3-3.86h-3V4c0-.55-.445-1-1-1H8c-.55 0-1 .45-1 1v1H4c0 1.86 1.28 3.415 3 3.86V10H4c0 1.86 1.28 3.415 3 3.86V15H4c0 1.86 1.28 3.415 3 3.86V20c0 .55.45 1 1 1h8c.555 0 1-.45 1-1v-1.14c1.725-.445 3-1.995 3-3.86h-3v-1.14c1.725-.445 3-2 3-3.86zm-8 9c-1.105 0-2-.895-2-2s.895-2 2-2 2 .895 2 2-.895 2-2 2zm0-5c-1.105 0-2-.895-2-2s.895-2 2-2 2 .895 2 2-.895 2-2 2zm0-5c-1.105 0-2-.895-2-2s.895-2 2-2 2 .895 2 2-.895 2-2 2z"/></svg>