<?xml version="1.0" encoding="utf-8"?>
<!-- Generated by IcoMoon.io -->
<!DOCTYPE svg PUBLIC "-//W3C//DTD SVG 1.1//EN" "http://www.w3.org/Graphics/SVG/1.1/DTD/svg11.dtd">
<svg version="1.1" xmlns="http://www.w3.org/2000/svg" xmlns:xlink="http://www.w3.org/1999/xlink" width="32" height="32" viewBox="0 0 32 32">
<path d="M21.188 22.688h4.313l-2.188-5.813zM24.688 13.313l6 16h-2.688l-1.5-4h-6.313l-1.5 4h-2.688l6-16h2.688zM17.188 20.063l-1.063 2.75-4.125-4.125-6.688 6.625-1.875-1.875 6.813-6.688q-2.5-2.75-4-6.063h2.688q1.313 2.5 3.063 4.438 2.875-3.188 4.25-7.125h-14.938v-2.688h9.375v-2.625h2.625v2.625h9.375v2.688h-3.938q-1.625 5-4.938 8.688l-0.063 0.063z"></path>
</svg>
