<?xml version="1.0" encoding="utf-8"?>
<!-- Generated by IcoMoon.io -->
<!DOCTYPE svg PUBLIC "-//W3C//DTD SVG 1.1//EN" "http://www.w3.org/Graphics/SVG/1.1/DTD/svg11.dtd">
<svg version="1.1" xmlns="http://www.w3.org/2000/svg" xmlns:xlink="http://www.w3.org/1999/xlink" width="32" height="32" viewBox="0 0 32 32">
<path d="M32 6.080c-0.358 0.271-1.982 0.82-3.709 1.034 0.979-0.443 2.244-1.851 2.816-3.574-0.168 0.234-2.038 1.109-4.076 1.513-1.285-1.257-2.982-2.048-4.865-2.048-3.63 0-6.573 2.943-6.573 6.573 0 0.523 0.061 1.032 0.177 1.52-5.224-0.193-10.202-2.821-13.516-6.865-0.582 0.911-0.91 2.047-0.91 3.26 0 2.27 1.151 4.271 2.901 5.453-0.956 0.005-2.019-0.296-2.943-0.815s0.033 0.017 0.033 0.097c0 0.003 0 0.006 0 0.009 0 3.149 2.214 5.78 5.17 6.423-0.47 0.152-1.059 0.234-1.667 0.234-0.442 0-0.874-0.044-1.291-0.127 0.891 2.625 3.306 4.511 6.169 4.567-2.21 1.754-5.047 2.813-8.13 2.813-0.008 0-0.016 0-0.024-0-0.54-0-1.086-0.034-1.623-0.1 2.902 1.854 6.374 2.953 10.103 2.953 0.010 0 0.020 0 0.029-0 0.034 0 0.077 0 0.119 0 10.243 0 18.547-8.304 18.547-18.547 0-0.042-0-0.085-0-0.127q0-0.42 0-0.847c-0.241 0.478 1.799-1.218 3.236-3.352l0.030-0.048z"></path>
</svg>
