<?xml version="1.0" encoding="utf-8"?>
<!-- Generated by IcoMoon.io -->
<!DOCTYPE svg PUBLIC "-//W3C//DTD SVG 1.1//EN" "http://www.w3.org/Graphics/SVG/1.1/DTD/svg11.dtd">
<svg version="1.1" xmlns="http://www.w3.org/2000/svg" xmlns:xlink="http://www.w3.org/1999/xlink" width="32" height="32" viewBox="0 0 32 32">
<path d="M16.688 10.688v5.625l4.625 2.813-0.938 1.625-5.688-3.438v-6.625h2zM28 13.5h-9.063l3.688-3.75q-2.75-2.75-6.594-2.781t-6.594 2.656q-2.688 2.75-2.688 6.5t2.688 6.5 6.563 2.75 6.625-2.75q2.688-2.688 2.688-6.5h2.688q0 4.938-3.5 8.375-3.5 3.5-8.5 3.5t-8.5-3.5q-3.5-3.438-3.5-8.344t3.5-8.406 8.438-3.5 8.438 3.5l3.625-3.75v9.5z"></path>
</svg>
