<?xml version="1.0" encoding="utf-8"?>
<!-- Generated by IcoMoon.io -->
<!DOCTYPE svg PUBLIC "-//W3C//DTD SVG 1.1//EN" "http://www.w3.org/Graphics/SVG/1.1/DTD/svg11.dtd">
<svg version="1.1" xmlns="http://www.w3.org/2000/svg" xmlns:xlink="http://www.w3.org/1999/xlink" width="32" height="32" viewBox="0 0 32 32">
<path d="M20 9.313h5.313v5.375h-1.313v2.625q0 1.125-0.781 1.906t-1.906 0.781h-4v4.063q1.625 0.875 1.625 2.625 0 1.188-0.844 2.063t-2.094 0.875-2.094-0.875-0.844-2.063q0-1.75 1.625-2.625v-4.063h-4q-1.125 0-1.906-0.781t-0.781-1.906v-2.75q-1.625-0.875-1.625-2.563 0-1.25 0.875-2.094t2.063-0.844 2.063 0.844 0.875 2.094q0 1.75-1.563 2.563v2.75h4v-10.625h-2.688l4-5.375 4 5.375h-2.688v10.625h4v-2.625h-1.313v-5.375z"></path>
</svg>
