<?xml version="1.0" encoding="utf-8"?>
<!-- Generated by IcoMoon.io -->
<!DOCTYPE svg PUBLIC "-//W3C//DTD SVG 1.1//EN" "http://www.w3.org/Graphics/SVG/1.1/DTD/svg11.dtd">
<svg version="1.1" xmlns="http://www.w3.org/2000/svg" xmlns:xlink="http://www.w3.org/1999/xlink" width="32" height="32" viewBox="0 0 32 32">
<path d="M26 16q0.875 0 1.438-0.563t0.563-1.438-0.563-1.438-1.438-0.563-1.438 0.563-0.563 1.438 0.563 1.438 1.438 0.563zM20.688 20q0.813 0 1.406-0.563t0.594-1.438-0.594-1.438-1.406-0.563-1.406 0.563-0.594 1.438 0.594 1.438 1.406 0.563zM14.688 17.313v-2.625h-4v-4h-2.688v4h-4v2.625h4v4h2.688v-4h4zM28 8q1.063 0 1.875 0.813t0.813 1.875v10.625q0 1.063-0.813 1.875t-1.875 0.813h-24q-1.063 0-1.875-0.813t-0.813-1.875v-10.625q0-1.063 0.813-1.875t1.875-0.813h24z"></path>
</svg>
