<?xml version="1.0" encoding="utf-8"?>
<!-- Generated by IcoMoon.io -->
<!DOCTYPE svg PUBLIC "-//W3C//DTD SVG 1.1//EN" "http://www.w3.org/Graphics/SVG/1.1/DTD/svg11.dtd">
<svg version="1.1" xmlns="http://www.w3.org/2000/svg" xmlns:xlink="http://www.w3.org/1999/xlink" width="32" height="32" viewBox="0 0 32 32">
<path d="M26.688 4q0.563 0 0.938 0.375t0.375 0.938v8q0 0.563-0.375 0.969t-0.938 0.406h-22.688q-0.563 0-0.938-0.406t-0.375-0.969v-8q0-0.563 0.375-0.938t0.938-0.375h22.688zM26.688 17.313q0.563 0 0.938 0.406t0.375 0.969v8q0 0.563-0.375 0.938t-0.938 0.375h-22.688q-0.563 0-0.938-0.375t-0.375-0.938v-8q0-0.563 0.375-0.969t0.938-0.406h22.688z"></path>
</svg>
