<?xml version="1.0" encoding="utf-8"?>
<!-- Generated by IcoMoon.io -->
<!DOCTYPE svg PUBLIC "-//W3C//DTD SVG 1.1//EN" "http://www.w3.org/Graphics/SVG/1.1/DTD/svg11.dtd">
<svg version="1.1" xmlns="http://www.w3.org/2000/svg" xmlns:xlink="http://www.w3.org/1999/xlink" width="32" height="32" viewBox="0 0 32 32">
<path d="M17.313 6.688q0.563 0 0.969 0.375t0.406 0.938v16q0 0.563-0.406 0.938t-0.969 0.375h-4q-0.563 0-0.938-0.375t-0.375-0.938v-16q0-0.563 0.375-0.938t0.938-0.375h4zM26.688 6.688q0.563 0 0.938 0.375t0.375 0.938v16q0 0.563-0.375 0.938t-0.938 0.375h-4q-0.563 0-0.969-0.375t-0.406-0.938v-16q0-0.563 0.406-0.938t0.969-0.375h4zM8 6.688q0.563 0 0.938 0.375t0.375 0.938v16q0 0.563-0.375 0.938t-0.938 0.375h-4q-0.563 0-0.938-0.375t-0.375-0.938v-16q0-0.563 0.375-0.938t0.938-0.375h4z"></path>
</svg>
