<?xml version="1.0" encoding="utf-8"?>
<!-- Generated by IcoMoon.io -->
<!DOCTYPE svg PUBLIC "-//W3C//DTD SVG 1.1//EN" "http://www.w3.org/Graphics/SVG/1.1/DTD/svg11.dtd">
<svg version="1.1" xmlns="http://www.w3.org/2000/svg" xmlns:xlink="http://www.w3.org/1999/xlink" width="32" height="32" viewBox="0 0 32 32">
<path d="M24.688 20q1.938 0 3.281-1.375t1.344-3.313-1.344-3.281-3.281-1.344-3.313 1.344-1.375 3.281 1.375 3.313 3.313 1.375zM7.313 20q1.938 0 3.313-1.375t1.375-3.313-1.375-3.281-3.313-1.344-3.281 1.344-1.344 3.281 1.344 3.313 3.281 1.375zM24.688 8q3.063 0 5.188 2.125t2.125 5.188-2.125 5.219-5.188 2.156h-17.375q-3.063 0-5.188-2.156t-2.125-5.219 2.125-5.188 5.188-2.125 5.219 2.125 2.156 5.188q0 2.688-1.688 4.688h6q-1.688-2-1.688-4.688 0-3.063 2.156-5.188t5.219-2.125z"></path>
</svg>
