<?xml version="1.0" encoding="utf-8"?>
<!-- Generated by IcoMoon.io -->
<!DOCTYPE svg PUBLIC "-//W3C//DTD SVG 1.1//EN" "http://www.w3.org/Graphics/SVG/1.1/DTD/svg11.dtd">
<svg version="1.1" xmlns="http://www.w3.org/2000/svg" xmlns:xlink="http://www.w3.org/1999/xlink" width="32" height="32" viewBox="0 0 32 32">
<path d="M13.313 27.938v-2.625q-1.063 0-1.844-0.781t-0.781-1.844v-1.375l-6.438-6.375q-0.25 1-0.25 2.375 0 4.063 2.688 7.094t6.625 3.531zM25.25 16h2.688q0.063 0.438 0.063 1.313 0 5.563-3.906 9.469t-9.406 3.906q-5.563 0-9.469-3.906t-3.906-9.469q0-5.5 3.906-9.406t9.469-3.906q1.938 0 4 0.625v3.375q0 1.063-0.813 1.875t-1.875 0.813h-2.688v2.625q0 0.563-0.375 0.969t-0.938 0.406h-2.688v2.625h8q0.563 0 0.969 0.406t0.406 0.969v4h1.313q1.938 0 2.563 1.813 2.75-2.938 2.75-7.188 0-0.875-0.063-1.313zM28.25 5.313v-0.625q0-0.938-0.656-1.625t-1.594-0.688-1.594 0.688-0.656 1.625v0.625h4.5zM29.313 5.313q0.563 0 0.969 0.406t0.406 0.969v5.313q0 0.563-0.406 0.938t-0.969 0.375h-6.625q-0.563 0-0.969-0.375t-0.406-0.938v-5.313q0-0.563 0.406-0.969t0.969-0.406v-0.625q0-1.375 0.969-2.375t2.344-1 2.344 1 0.969 2.375v0.625z"></path>
</svg>
