<svg xmlns="http://www.w3.org/2000/svg" width="24" height="24" viewBox="0 0 24 24"><path d="M20 6h-2.185c.11-.315.185-.65.185-1 0-1.655-1.345-3-3-3-1.045 0-1.965.535-2.5 1.345l-.5.68-.5-.68C10.965 2.535 10.045 2 9 2 7.345 2 6 3.345 6 5c0 .35.07.685.185 1H4c-1.105 0-1.99.895-1.99 2L2 19c0 1.105.895 2 2 2h16c1.105 0 2-.895 2-2V8c0-1.105-.895-2-2-2zm-5-2c.55 0 1 .45 1 1s-.45 1-1 1-1-.45-1-1 .45-1 1-1zM9 4c.55 0 1 .45 1 1s-.45 1-1 1-1-.45-1-1 .45-1 1-1zm11 15H4v-2h16v2zm0-5H4V8h5.08L7 10.835 8.625 12 12 7.405l1 1.36L15.375 12 17 10.835 14.92 8H20v6z"/></svg>