<?xml version="1.0" encoding="utf-8"?>
<!-- Generated by IcoMoon.io -->
<!DOCTYPE svg PUBLIC "-//W3C//DTD SVG 1.1//EN" "http://www.w3.org/Graphics/SVG/1.1/DTD/svg11.dtd">
<svg version="1.1" xmlns="http://www.w3.org/2000/svg" xmlns:xlink="http://www.w3.org/1999/xlink" width="32" height="32" viewBox="0 0 32 32">
<path d="M13.75 21.313h2.5l-4.25-12h-2.688l-4.25 12h2.563l0.938-2.625h4.25zM29.313 9.313h2.438l-2.75 12h-2.313l-2-8.125-2 8.125h-2.375l-0.125-0.563q-1.313 2.688-3.875 4.313t-5.625 1.625q-4.438 0-7.563-3.156t-3.125-7.531 3.125-7.531 7.563-3.156q5.125 0 8.313 4h1l1.625 8.438 2-8.438h2.125l2 8.438zM9.125 16.875l1.563-4.875 1.5 4.875h-3.063z"></path>
</svg>
