<?xml version="1.0" encoding="utf-8"?>
<!-- Generated by IcoMoon.io -->
<!DOCTYPE svg PUBLIC "-//W3C//DTD SVG 1.1//EN" "http://www.w3.org/Graphics/SVG/1.1/DTD/svg11.dtd">
<svg version="1.1" xmlns="http://www.w3.org/2000/svg" xmlns:xlink="http://www.w3.org/1999/xlink" width="32" height="32" viewBox="0 0 32 32">
<path d="M22 8q-1.125 0-1.906-0.781t-0.781-1.906 0.781-1.875 1.906-0.75 1.906 0.75 0.781 1.875-0.781 1.906-1.906 0.781zM10 8q-1.125 0-1.906-0.781t-0.781-1.906 0.781-1.875 1.906-0.75 1.906 0.75 0.781 1.875-0.781 1.906-1.906 0.781zM24 29.313h-4v-8h-4l3.375-10.125q0.688-1.875 2.563-1.875h0.125q1.875 0 2.563 1.875l3.375 10.125h-4v8zM7.313 29.313v-10h-2v-7.313q0-1.063 0.813-1.875t1.875-0.813h4q1.063 0 1.875 0.813t0.813 1.875v7.313h-2v10h-5.375z"></path>
</svg>
