<?xml version="1.0" encoding="utf-8"?>
<!-- Generated by IcoMoon.io -->
<!DOCTYPE svg PUBLIC "-//W3C//DTD SVG 1.1//EN" "http://www.w3.org/Graphics/SVG/1.1/DTD/svg11.dtd">
<svg version="1.1" xmlns="http://www.w3.org/2000/svg" xmlns:xlink="http://www.w3.org/1999/xlink" width="32" height="32" viewBox="0 0 32 32">
<path d="M15.625 25.313q2.688 0 4.531-1.844t1.844-4.531q0-2.75-0.75-5.375-1.938 2.563-6.188 3.438-3.75 0.813-3.75 4.125 0 1.75 1.25 2.969t3.063 1.219zM18 0.875q4 3.25 6.344 7.906t2.344 9.906q0 4.375-3.125 7.5t-7.563 3.125-7.563-3.125-3.125-7.5q0-6.75 4.313-11.875v0.5q0 2.063 1.375 3.5t3.438 1.438q2 0 3.281-1.406t1.281-3.531q0-1.25-0.25-2.875t-0.5-2.563z"></path>
</svg>
