<?xml version="1.0" encoding="utf-8"?>
<!-- Generated by IcoMoon.io -->
<!DOCTYPE svg PUBLIC "-//W3C//DTD SVG 1.1//EN" "http://www.w3.org/Graphics/SVG/1.1/DTD/svg11.dtd">
<svg version="1.1" xmlns="http://www.w3.org/2000/svg" xmlns:xlink="http://www.w3.org/1999/xlink" width="32" height="32" viewBox="0 0 32 32">
<path d="M16 4q5.5 0 9.406 3.875t3.906 9.438q0 3.625-1.781 6.719t-4.844 4.844l-1.375-2.313q2.438-1.438 3.906-3.906t1.469-5.344q0-4.375-3.125-7.5t-7.563-3.125-7.563 3.125-3.125 7.5q0 2.938 1.438 5.375t3.875 3.875l-1.313 2.313q-3.063-1.75-4.844-4.844t-1.781-6.719q0-5.563 3.906-9.438t9.406-3.875zM24 17.313q0 2.188-1.094 4.031t-2.906 2.906l-1.313-2.313q2.625-1.563 2.625-4.625 0-2.188-1.563-3.75t-3.75-1.563-3.75 1.563-1.563 3.75q0 3.063 2.625 4.625l-1.313 2.313q-1.813-1.063-2.906-2.906t-1.094-4.031q0-3.313 2.344-5.656t5.656-2.344 5.656 2.344 2.344 5.656zM16 14.688q1.063 0 1.875 0.781t0.813 1.844-0.813 1.875-1.875 0.813-1.875-0.813-0.813-1.875 0.813-1.844 1.875-0.781z"></path>
</svg>
