<?xml version="1.0" encoding="utf-8"?>
<!-- Generated by IcoMoon.io -->
<!DOCTYPE svg PUBLIC "-//W3C//DTD SVG 1.1//EN" "http://www.w3.org/Graphics/SVG/1.1/DTD/svg11.dtd">
<svg version="1.1" xmlns="http://www.w3.org/2000/svg" xmlns:xlink="http://www.w3.org/1999/xlink" width="32" height="32" viewBox="0 0 32 32">
<path d="M29.313 21.313v-2q0-0.813-0.594-1.406t-1.406-0.594-1.406 0.594-0.594 1.406v2h4zM30.688 21.313q0.563 0 0.938 0.406t0.375 0.969v5.313q0 0.563-0.375 0.938t-0.938 0.375h-6.688q-0.563 0-0.938-0.375t-0.375-0.938v-5.313q0-0.563 0.375-0.969t0.938-0.406v-2q0-1.375 0.969-2.344t2.344-0.969 2.375 0.969 1 2.344v2zM27.313 12.688q-2.75 0-4.688 1.938t-1.938 4.688v3.813l-4.688 6.188-16-21.313q7-5.313 16-5.313t16 5.313l-3.563 4.75q-0.375-0.063-1.125-0.063z"></path>
</svg>
