<?xml version="1.0" encoding="utf-8"?>
<!-- Generated by IcoMoon.io -->
<!DOCTYPE svg PUBLIC "-//W3C//DTD SVG 1.1//EN" "http://www.w3.org/Graphics/SVG/1.1/DTD/svg11.dtd">
<svg version="1.1" xmlns="http://www.w3.org/2000/svg" xmlns:xlink="http://www.w3.org/1999/xlink" width="32" height="32" viewBox="0 0 32 32">
<path d="M26 4h-20c-3.311 0.008-5.992 2.689-6 5.999v12.001c0.008 3.311 2.689 5.992 5.999 6h20.001c3.311-0.008 5.992-2.689 6-5.999v-12.001c-0.008-3.311-2.689-5.992-5.999-6zM30 22c0 2.209-1.791 4-4 4h-20c-2.209 0-4-1.791-4-4v-12c0-2.209 1.791-4 4-4h20c2.209 0 4 1.791 4 4v12zM12 24l10-8-10-8v16z"></path>
</svg>
