<?xml version="1.0" encoding="utf-8"?>
<!-- Generated by IcoMoon.io -->
<!DOCTYPE svg PUBLIC "-//W3C//DTD SVG 1.1//EN" "http://www.w3.org/Graphics/SVG/1.1/DTD/svg11.dtd">
<svg version="1.1" xmlns="http://www.w3.org/2000/svg" xmlns:xlink="http://www.w3.org/1999/xlink" width="32" height="32" viewBox="0 0 32 32">
<path d="M22.688 18.688l6.625 6.625-1.938 2-6.688-6.688v-1l-0.375-0.375q-2.375 2.063-5.625 2.063-2.375 0-4.438-1.188l2-1.938q1.188 0.5 2.438 0.5 2.5 0 4.25-1.75t1.75-4.25-1.75-4.25-4.25-1.75-4.25 1.75-1.75 4.25h4.625l-5.5 5.313-5.125-5.313h3.313q0-3.563 2.563-6.125t6.125-2.563q3.625 0 6.156 2.531t2.531 6.156q0 3.188-2.125 5.625l0.375 0.375h1.063z"></path>
</svg>
