<?xml version="1.0" encoding="utf-8"?>
<!-- Generated by IcoMoon.io -->
<!DOCTYPE svg PUBLIC "-//W3C//DTD SVG 1.1//EN" "http://www.w3.org/Graphics/SVG/1.1/DTD/svg11.dtd">
<svg version="1.1" xmlns="http://www.w3.org/2000/svg" xmlns:xlink="http://www.w3.org/1999/xlink" width="32" height="32" viewBox="0 0 32 32">
<path d="M16 13.313h-2.688v2.688h-1.313v-2.688h-2.688v-1.313h2.688v-2.688h1.313v2.688h2.688v1.313zM12.688 18.688q2.5 0 4.25-1.75t1.75-4.25-1.75-4.25-4.25-1.75-4.25 1.75-1.75 4.25 1.75 4.25 4.25 1.75zM20.688 18.688l6.625 6.625-2 2-6.625-6.625v-1.063l-0.375-0.375q-2.375 2.063-5.625 2.063-3.625 0-6.156-2.5t-2.531-6.125 2.531-6.156 6.156-2.531 6.125 2.531 2.5 6.156q0 3.25-2.063 5.625l0.375 0.375h1.063z"></path>
</svg>
