<?xml version="1.0" encoding="UTF-8" standalone="no"?>
<!DOCTYPE svg  PUBLIC '-//W3C//DTD SVG 1.1//EN'  'http://www.w3.org/Graphics/SVG/1.1/DTD/svg11.dtd'>
<svg xmlns="http://www.w3.org/2000/svg">
<defs>
<font id="TransportNewMedium-Regular" horiz-adv-x="710">
<font-face underline-position="-113" font-weight="400" descent="-200" panose-1="0 0 0 0 0 0 0 0 0 0" units-per-em="1000" unicode-range="U+000D-25CA" bbox="-55 -288 1375 1060" x-height="568" underline-thickness="20" font-family="TransportNewMedium" ascent="800" cap-height="780"/>
<missing-glyph horiz-adv-x="1000"/>
<glyph glyph-name=".notdef" horiz-adv-x="1000"/>
<glyph glyph-name=".null" horiz-adv-x="0"/>
<glyph glyph-name="nonmarkingreturn" horiz-adv-x="0" unicode=""/>
<glyph glyph-name="space" horiz-adv-x="350" unicode=" "/>
<glyph glyph-name="exclam" horiz-adv-x="328" unicode="!" d="M242 68q0 -18 -6.5 -33.5t-18 -27t-26.5 -18t-32 -6.5t-32.5 6.5t-27 18t-18 27t-6.5 33.5q0 35 24.5 59.5t59.5 24.5t59 -24.5t24 -59.5zM243 780l-40 -576h-89l-39 576h168z"/>
<glyph glyph-name="quotedbl" horiz-adv-x="438" unicode='&quot;' d="M176 474h-101v306h101v-306zM363 474h-102v306h102v-306z"/>
<glyph glyph-name="numbersign" horiz-adv-x="636" unicode="#" d="M392 469h-126l-21 -159h126zM611 559l-12 -90h-107l-20 -159h107l-12 -90h-107l-28 -220h-100l27 220h-126l-27 -220h-101l28 220h-108l11 90h109l20 159h-108l11 90h109l28 220h101l-28 -220h126l28 220h100l-28 -220h107z"/>
<glyph glyph-name="dollar" horiz-adv-x="736" unicode="$" d="M671 216q0 -57 -18 -98.5t-49.5 -69t-74.5 -42.5t-93 -20v-87h-133v89q-77 11 -143 48.5t-120 101.5l105 93q15 -18 37.5 -40.5t50.5 -42t61 -32.5t69 -13t67 5.5t54.5 18.5t36.5 34.5t13 54.5q0 24 -14 42t-37 32t-54.5 24t-65.5 17q-49 10 -101.5 24.5t-96.5 40 t-72 65.5t-28 100q0 51 18 91t49.5 68.5t74.5 46t94 24.5v79h133v-80q65 -10 119 -38.5t95 -77.5l-102 -90q-33 40 -85.5 65t-110.5 25q-24 0 -49.5 -6t-46.5 -18t-34.5 -31t-13.5 -46t16 -46t43 -32t61.5 -21.5t71.5 -15.5q52 -9 101 -26.5t87 -46.5t61.5 -70.5t23.5 -98.5 z"/>
<glyph glyph-name="percent" horiz-adv-x="952" unicode="%" d="M232 689q-18 0 -34 -9q-16 -8 -30 -24q-12 -16 -20 -38t-7 -45q-1 -25 7 -46t20 -37t30 -24q16 -9 34 -9t34 9q16 8 30 24q12 16 20 37t7 46q1 23 -7 45t-20 38t-30 24q-16 9 -34 9zM229 358q-44 0 -79 18q-36 18 -60 46t-37 66t-13 79q0 39 12 78t34 71q24 32 60 51 q36 20 82 20q48 1 84 -15t61 -44t38 -68t13 -86q0 -44 -12 -84t-38 -69q-24 -29 -60 -46t-85 -17zM811 209q1 23 -7 45t-20 38t-30 24q-16 9 -34 9t-34 -9q-16 -8 -30 -24q-12 -16 -20 -38t-7 -45q-1 -23 7 -45t20 -38t30 -24q16 -9 34 -9t34 9q16 8 30 24q12 16 20 38t7 45 zM816 780l-575 -781h-103l574 781h104zM912 211q0 -45 -12 -85t-38 -68q-24 -30 -60 -46t-85 -17q-44 -1 -79 17q-36 18 -60 47t-37 67t-13 78q0 38 12 78t34 70q24 32 60 52t82 20q48 0 84 -16t61 -44t38 -67t13 -86z"/>
<glyph glyph-name="ampersand" horiz-adv-x="705" unicode="&amp;" d="M418 141l-160 224q-48 -34 -68 -65.5t-20 -73.5q0 -28 11.5 -51t30.5 -39t44.5 -25t53.5 -9h4q23 0 48.5 10t55.5 29zM403 628q0 29 -19 47.5t-51 18.5q-17 0 -30 -8t-21.5 -21t-12.5 -28.5t-4 -30.5q2 -26 17 -49.5t30 -43.5q18 10 34 22t29 26t20.5 30.5t7.5 36.5z M680 -1q-20 -9 -38.5 -12.5t-37.5 -3.5q-31 0 -61.5 13t-57.5 42q-48 -28 -94 -41t-92 -13q-50 0 -96 15t-81.5 43.5t-56 70.5t-20.5 96q1 81 40 141.5t111 105.5q-25 41 -38.5 76.5t-13.5 70.5q0 43 13 78t37 60t58 39t76 14q40 0 75 -10.5t61.5 -31.5t41.5 -53t15 -74 q0 -31 -12 -58t-32.5 -51t-48 -45.5t-57.5 -41.5l135 -195q19 29 28 52.5t12 48.5h120q-4 -53 -27 -107.5t-58 -102.5q21 -17 36 -19.5t24 -2.5q13 0 26 3z"/>
<glyph glyph-name="quotesingle" horiz-adv-x="301" unicode="&apos;" d="M201 476h-101v304h101v-304z"/>
<glyph glyph-name="parenleft" horiz-adv-x="380" unicode="(" d="M325 -37l-54 -65q-110 94 -170.5 220t-60.5 275q0 71 16.5 141t47 133.5t72.5 118t93 93.5l55 -64q-35 -36 -65 -83.5t-51.5 -102t-34 -115t-12.5 -121.5q0 -134 46 -241.5t118 -188.5z"/>
<glyph glyph-name="parenright" horiz-adv-x="380" unicode=")" d="M325 393q0 -149 -60.5 -275t-170.5 -220l-54 65q72 81 118 188.5t46 241.5q0 61 -12.5 121.5t-34 115t-51.5 102t-65 83.5l55 64q51 -39 93 -93.5t72.5 -118t47 -133.5t16.5 -141z"/>
<glyph glyph-name="asterisk" horiz-adv-x="367" unicode="*" d="M342 572l-93 -34l57 -89l-62 -49l-55 91l-55 -91l-64 49l58 89l-93 34l25 79l91 -37v106h73v-105l92 36z"/>
<glyph glyph-name="plus" horiz-adv-x="549" unicode="+" d="M504 199h-172v-199h-114v199h-173v112h173v199h114v-199h172v-112z"/>
<glyph glyph-name="comma" horiz-adv-x="248" unicode="," d="M203 56q0 -6 -0.5 -16t-2.5 -20t-8.5 -28t-24.5 -39q-14 -16 -38.5 -29t-53.5 -21l-15 36q21 7 34.5 13.5t27.5 19.5q4 3 7 8t2 8q0 9 -9 9q-15 0 -29 6t-24.5 16.5t-17 25t-6.5 30.5q0 32 22.5 54.5t54.5 22.5q17 0 32 -7.5t26 -21t17 -31t6 -36.5z"/>
<glyph glyph-name="hyphen" horiz-adv-x="332" unicode="-" d="M272 272h-242v108h242v-108z"/>
<glyph glyph-name="period" horiz-adv-x="243" unicode="." d="M198 58q0 -32 -22.5 -54t-54.5 -22t-54 22t-22 54t22 54t54 22t54.5 -22t22.5 -54z"/>
<glyph glyph-name="slash" horiz-adv-x="404" unicode="/" d="M384 765l-273 -971l-96 29l272 970z"/>
<glyph glyph-name="zero" horiz-adv-x="716" unicode="0" d="M527 390q0 45 -7.5 95t-27 92.5t-52 70t-83.5 27.5q-45 0 -77 -25t-52 -65t-29.5 -90.5t-9.5 -101.5q0 -42 7 -92.5t26 -94t52.5 -73t86.5 -29.5q51 0 83 29.5t50.5 73t25.5 93t7 90.5zM661 396q0 -74 -17 -147.5t-53 -132.5t-92 -96t-133 -37q-83 0 -142 35.5 t-96.5 93.5t-55 131.5t-17.5 149.5q0 75 18.5 147.5t56 128.5t94 90.5t131.5 34.5q82 0 140 -34.5t95 -90.5t54 -127.5t17 -145.5z"/>
<glyph glyph-name="one" horiz-adv-x="454" unicode="1" d="M329 0h-134v557h-130v103q28 1 58 6.5t52 22.5q21 16 29.5 39t10.5 52h114v-780z"/>
<glyph glyph-name="two" horiz-adv-x="627" unicode="2" d="M572 0h-516v120q25 15 53.5 33.5t58.5 39.5t59.5 43t55.5 43q19 16 45 39.5t49.5 54.5t40 70t16.5 86q0 28 -6 53t-20 44t-37 30t-57 11q-38 0 -64.5 -14t-42 -37.5t-19.5 -46.5t-4 -40q0 -15 2 -32h-130l-1 24v12q0 51 16 97t48.5 81t80 55t107.5 20q128 0 196 -68.5 t68 -196.5q0 -48 -17 -92.5t-44 -84t-61 -74.5t-67.5 -63.5t-64 -50.5t-50.5 -36h305v-120z"/>
<glyph glyph-name="three" horiz-adv-x="659" unicode="3" d="M604 244q0 -58 -18 -105.5t-51.5 -81.5t-80.5 -53t-105 -19q-54 0 -102.5 12t-86.5 38.5t-64 70t-36 106.5l128 29q6 -28 18 -52.5t30 -42.5t42 -28.5t54 -10.5q27 0 52 7.5t44.5 22.5t31.5 38t12 55q0 40 -16 64t-41.5 35.5t-46 12.5t-31.5 1q-20 0 -40 -2v112h22 q25 0 50.5 4.5t45.5 16t33 31t13 54.5q0 55 -30 84t-102 29q-61 0 -92 -32.5t-43 -80.5l-124 30q26 107 97 156t182 49q54 0 99.5 -16.5t78.5 -46t51.5 -70t18.5 -87.5q0 -25 -4.5 -50.5t-14.5 -48.5t-27 -41.5t-42 -27.5q45 -28 70 -68t25 -94z"/>
<glyph glyph-name="four" horiz-adv-x="685" unicode="4" d="M421 622l-250 -356h250v356zM645 146h-90v-146h-136v146h-383v144l355 490h164v-514h90v-120z"/>
<glyph glyph-name="five" horiz-adv-x="651" unicode="5" d="M596 260q0 -61 -21 -112t-58 -87.5t-88 -57t-112 -20.5q-108 0 -170.5 47t-91.5 128l126 49q16 -46 49.5 -74t87.5 -28q39 0 66.5 13.5t45 36.5t25.5 53.5t8 65.5q0 32 -10.5 60t-29.5 48.5t-46 32.5t-61 12q-41 0 -77 -18.5t-54 -56.5l-130 37l57 391h445v-120h-325 l-21 -146q29 14 59.5 22.5t62.5 8.5q58 0 106.5 -23.5t83 -63.5t54 -91.5t19.5 -106.5z"/>
<glyph glyph-name="six" horiz-adv-x="670" unicode="6" d="M486 257q0 31 -11.5 59t-31 48.5t-46 32.5t-56.5 12t-56.5 -12t-46 -32.5t-30.5 -48.5t-11 -59q0 -32 11 -60t30.5 -48.5t46 -32.5t56.5 -12t56.5 12t46 32.5t31 48.5t11.5 60zM615 256q0 -58 -17.5 -108t-50.5 -86.5t-81 -57.5t-108 -21q-86 0 -144.5 34.5t-93.5 90.5 t-50 128t-15 146t16 147.5t51 132.5t91 95.5t136 36.5q49 0 85.5 -10t63.5 -27t46 -39.5t34 -47.5l-110 -56q-20 28 -48.5 46t-70.5 18t-72.5 -17t-50.5 -45t-27.5 -59.5t-7.5 -60.5v-14l2 -33q35 34 78 55.5t93 21.5q61 0 107.5 -21t78.5 -57t48.5 -85.5t16.5 -106.5z"/>
<glyph glyph-name="seven" horiz-adv-x="576" unicode="7" d="M554 656l-280 -656h-146l278 660h-384v120h532v-124z"/>
<glyph glyph-name="eight" horiz-adv-x="661" unicode="8" d="M476 222q0 25 -11.5 47t-31 38.5t-45.5 26t-56 9.5t-56.5 -9.5t-46 -26t-30.5 -38.5t-11 -47q0 -26 11 -48t30.5 -38.5t46 -26t56.5 -9.5t56 9.5t45.5 26t31 38.5t11.5 48zM461 560q0 24 -10.5 44.5t-28 36t-41.5 24.5t-51 9t-50.5 -9t-41.5 -24.5t-28 -36t-10 -44.5 t10 -44.5t28 -36t41.5 -24.5t50.5 -9t51 9t41.5 24.5t28 36t10.5 44.5zM606 217q0 -53 -23.5 -96.5t-61.5 -74.5t-86 -47.5t-98 -16.5q-45 0 -95 15.5t-91.5 44t-68.5 70t-27 93.5q0 61 27 112t81 82q-42 30 -68.5 73.5t-26.5 97.5t23 95.5t60.5 70t85.5 43t97 14.5 q50 0 97 -16t83 -45.5t58 -72t22 -96.5q0 -52 -26 -93t-70 -67q48 -32 78 -79.5t30 -106.5z"/>
<glyph glyph-name="nine" horiz-adv-x="670" unicode="9" d="M471 521q0 31 -11.5 59t-31 48.5t-45.5 32.5t-56 12t-56.5 -12t-46 -32.5t-31 -48.5t-11.5 -59q0 -32 11.5 -60t31 -48.5t46 -32.5t56.5 -12t56 12t45.5 32.5t31 48.5t11.5 60zM615 395q0 -74 -16 -147.5t-51 -132t-91 -95.5t-136 -37q-50 0 -86 10t-63 27t-46 39.5 t-34 47.5l110 56q20 -28 48.5 -46t71.5 -18q41 0 72 17t50.5 45t27.5 60.5t8 61.5v13l-2 32q-35 -34 -78.5 -55.5t-93.5 -21.5q-60 0 -107 21t-79 57.5t-48.5 86t-16.5 106.5q0 58 17.5 107.5t50.5 86t81 57.5t108 21q86 0 144 -34.5t93.5 -91t50.5 -128t15 -145.5z"/>
<glyph glyph-name="colon" horiz-adv-x="244" unicode=":" d="M199 58q0 -32 -22 -54t-54 -22t-54 22t-22 54t22 54t54 22t54 -22t22 -54zM198 361q0 -32 -22.5 -54.5t-54.5 -22.5t-54 22.5t-22 54.5t22 54t54 22t54.5 -22t22.5 -54z"/>
<glyph glyph-name="semicolon" horiz-adv-x="248" unicode=";" d="M203 56q0 -6 -0.5 -16t-2.5 -20t-8.5 -28t-24.5 -39q-14 -16 -38.5 -29t-53.5 -21l-15 36q21 7 34.5 13.5t27.5 19.5q4 3 7 8t2 8q0 9 -9 9q-15 0 -29 6t-24.5 16.5t-17 25t-6.5 30.5q0 32 22.5 54.5t54.5 22.5q17 0 32 -7.5t26 -21t17 -31t6 -36.5zM200 361 q0 -32 -22.5 -54.5t-54.5 -22.5t-54 22.5t-22 54.5t22 54t54 22t54.5 -22t22.5 -54z"/>
<glyph glyph-name="less" horiz-adv-x="688" unicode="&lt;" d="M643 -10l-598 244v83l598 244v-114l-442 -171l442 -172v-114z"/>
<glyph glyph-name="equal" horiz-adv-x="603" unicode="=" d="M553 100h-503v104h503v-104zM553 334h-503v103h503v-103z"/>
<glyph glyph-name="greater" horiz-adv-x="698" unicode="&gt;" d="M648 236l-598 -245v114l442 172l-442 171v115l598 -245v-82z"/>
<glyph glyph-name="question" horiz-adv-x="616" unicode="?" d="M395 68q0 -18 -6.5 -33.5t-18 -27t-26.5 -18t-32 -6.5t-32.5 6.5t-27 18t-18 27t-6.5 33.5q0 35 24.5 59.5t59.5 24.5t59 -24.5t24 -59.5zM566 529q0 -45 -12.5 -80.5t-31 -62.5t-40 -45t-39.5 -29q-39 -23 -54 -47t-15 -61v-10h-129v9q0 68 29 118.5t79 74.5 q90 44 90 134q0 27 -9.5 52t-27.5 44t-42.5 30t-54.5 11q-27 0 -51 -11t-42.5 -28.5t-29 -40t-10.5 -45.5h-121q0 57 20 103.5t54.5 79.5t82 51t102.5 18q57 0 103.5 -22t79.5 -59t51 -85t18 -99z"/>
<glyph glyph-name="at" horiz-adv-x="926" unicode="@" d="M573 429q3 13 1 29t-11.5 29.5t-26.5 22.5t-43 9q-60 0 -95.5 -37.5t-49.5 -94.5q-7 -26 -9 -44t-2 -26q0 -17 5 -35t22.5 -32t51.5 -14q16 0 36.5 7t39.5 18t33.5 26t18.5 31zM846 462q0 -80 -28.5 -139t-69 -98t-84.5 -58.5t-75 -19.5q-26 0 -44 15t-25 33h-5 q-5 -5 -15.5 -13.5t-25.5 -16t-33.5 -13t-37.5 -5.5q-41 0 -72 14t-51.5 38.5t-31 57.5t-10.5 71q0 58 17 109t49 89t78 60.5t104 22.5q19 0 38 -5t35 -14t28 -20.5t17 -24.5l13 49h84l-72 -280q-3 -12 -6.5 -26.5t-3.5 -22.5q0 -11 5.5 -20t18.5 -9q22 0 44.5 15.5t40 43.5 t28.5 65t11 81q0 65 -21.5 116t-59.5 86t-90.5 53t-114.5 18q-68 0 -126.5 -25t-102 -69.5t-68.5 -104t-25 -128.5q0 -71 26 -131t70.5 -103t104 -67t126.5 -24t120.5 24t89.5 56l46 -54q-20 -19 -46 -38t-58 -34t-71 -24t-85 -9q-83 0 -156 30.5t-127.5 85t-86.5 129 t-32 162.5q0 85 31.5 159t86.5 128.5t128 85.5t156 31q74 0 140.5 -24t116 -68t78.5 -105t29 -135z"/>
<glyph glyph-name="A" d="M472 260l-118 377l-117 -377h235zM690 0h-134l-46 146h-309l-47 -146h-134l251 780h165z" unicode="A"/>
<glyph glyph-name="B" horiz-adv-x="716" unicode="B" d="M544 240q0 24 -9 46.5t-24.5 39.5t-37 27t-46.5 10h-201v-241h187q26 0 50 7.5t42 22.5t28.5 37t10.5 51zM505 569q0 18 -7.5 34.5t-21 29t-31 20t-38.5 7.5h-181v-192h183q24 0 42 8.5t30 22.5t18 32t6 38zM671 226q0 -50 -18 -91.5t-49.5 -71.5t-74.5 -46.5t-92 -16.5 h-347v780h319q40 0 79 -13t70 -38t50 -62.5t19 -86.5q0 -29 -8 -54t-20.5 -45t-29 -35t-32.5 -23q38 -11 63.5 -30.5t41.5 -45.5t22.5 -57t6.5 -64z"/>
<glyph glyph-name="C" horiz-adv-x="779" unicode="C" d="M724 569l-121 -43q-9 29 -25.5 56.5t-40 48.5t-54.5 34t-69 13q-63 0 -106.5 -24t-70.5 -64t-38.5 -92.5t-11.5 -109.5q0 -53 11 -104t36.5 -91.5t67.5 -65.5t103 -25q72 0 122 37.5t72 105.5l123 -41q-40 -109 -118 -165.5t-201 -56.5q-86 0 -152 33t-110.5 88.5 t-67.5 128.5t-23 153q0 83 22.5 158t67 131.5t110.5 89.5t154 33q60 0 111.5 -16t92.5 -45.5t70.5 -72t45.5 -94.5z"/>
<glyph glyph-name="D" horiz-adv-x="769" unicode="D" d="M590 395q0 43 -12.5 90t-37.5 86t-63 64t-88 25h-165v-540h158q55 0 94.5 25t65 64.5t37 88.5t11.5 97zM724 397q0 -81 -21.5 -153.5t-65 -126.5t-109 -85.5t-152.5 -31.5h-286v780h287q91 0 156.5 -34.5t108 -89t62.5 -123t20 -136.5z"/>
<glyph glyph-name="E" horiz-adv-x="645" unicode="E" d="M600 0h-510v780h487v-122h-353v-204h323v-120h-323v-214h376v-120z"/>
<glyph glyph-name="F" horiz-adv-x="612" unicode="F" d="M577 660h-353v-205h323v-122h-323v-333h-134v780h487v-120z"/>
<glyph glyph-name="G" horiz-adv-x="799" unicode="G" d="M709 0h-113v78q-20 -30 -44 -48.5t-50 -29t-52.5 -14t-51.5 -3.5q-91 0 -157.5 34.5t-110 92.5t-64.5 134t-21 159q0 80 23 151.5t67 125.5t109.5 86t151.5 32q103 0 184 -44.5t128 -138.5l-110 -56q-12 28 -33 50t-47 37.5t-55.5 23.5t-59.5 8q-62 0 -105 -26t-70 -67.5 t-39 -94t-12 -105.5t11.5 -103.5t38 -90.5t68.5 -64.5t103 -24.5q46 0 83 14.5t62 37.5t38.5 52.5t13.5 60.5v55h-204v117h318v-439z"/>
<glyph glyph-name="H" horiz-adv-x="758" unicode="H" d="M703 0h-134v358h-345v-358h-134v780h134v-303h345v303h134v-780z"/>
<glyph glyph-name="I" horiz-adv-x="315" unicode="I" d="M225 0h-135v780h135v-780z"/>
<glyph glyph-name="J" horiz-adv-x="485" unicode="J" d="M395 159q0 -45 -18.5 -78t-49.5 -55t-70.5 -33t-81.5 -11q-40 0 -80 7t-75 19l34 123q34 -15 63.5 -20t51.5 -5q13 0 29 4t29.5 12.5t22.5 22.5t9 34v600h136v-620z"/>
<glyph glyph-name="K" horiz-adv-x="716" unicode="K" d="M696 0h-149l-225 364l-98 -114v-250h-134v780h134v-347l293 347h166l-276 -320z"/>
<glyph glyph-name="L" horiz-adv-x="552" unicode="L" d="M527 0h-437v780h134v-660h303v-120z"/>
<glyph glyph-name="M" horiz-adv-x="935" unicode="M" d="M845 0h-134v563l-250 -347l-237 347v-563h-134v780h135l238 -346l248 346h134v-780z"/>
<glyph glyph-name="N" horiz-adv-x="838" unicode="N" d="M748 0h-150l-374 559v-559h-134v780h150l374 -560v560h134v-780z"/>
<glyph glyph-name="O" horiz-adv-x="817" unicode="O" d="M632 391q0 58 -11.5 110t-38.5 91.5t-70.5 62.5t-106.5 23q-61 0 -103.5 -24t-69 -63.5t-38.5 -91.5t-12 -107q0 -59 12 -111.5t38.5 -92.5t69 -63t104.5 -23q67 0 110.5 24.5t69 65t36 92.5t10.5 107zM767 386q0 -85 -23 -159t-68 -129t-113 -87t-158 -32q-85 0 -151 30 t-111.5 84t-69 128.5t-23.5 163.5q0 90 22 165.5t66 130.5t110.5 85.5t156.5 30.5q93 0 161 -31t113 -86t66.5 -130.5t21.5 -163.5z"/>
<glyph glyph-name="P" horiz-adv-x="655" unicode="P" d="M496 530q0 25 -9 48t-25.5 41t-39 28.5t-48.5 10.5h-150v-254h151q25 0 47 11t38.5 28.5t26 40t9.5 46.5zM625 531q0 -44 -16.5 -88t-46.5 -79.5t-72 -57.5t-93 -22h-171v-284h-136v780h307q57 0 100 -22.5t71.5 -58t42.5 -80t14 -88.5z"/>
<glyph glyph-name="Q" horiz-adv-x="824" unicode="Q" d="M638 391q0 58 -12 110t-39 91.5t-71 62.5t-108 23q-61 0 -104 -24t-70 -63.5t-39 -91.5t-12 -107q0 -59 12 -111.5t39 -92.5t70 -63t105 -23q18 0 33 3l-58 109l113 58l64 -118q44 42 60.5 105t16.5 132zM774 386q0 -109 -38.5 -199.5t-113.5 -144.5l50 -89l-121 -64 l-51 101q-23 -6 -45 -8.5t-46 -2.5q-86 0 -153 30t-113 84t-69.5 128.5t-23.5 163.5q0 90 22 165.5t67 130.5t112 85.5t157 30.5q94 0 163 -31t114 -86t67 -130.5t22 -163.5z"/>
<glyph glyph-name="R" horiz-adv-x="681" unicode="R" d="M506 535q0 52 -32 87.5t-85 35.5h-165v-235h164q57 0 87.5 32.5t30.5 79.5zM651 0h-146l-147 304h-134v-304h-134v780h301q63 0 109 -21t75.5 -55.5t43.5 -78t14 -89.5q0 -38 -9 -72.5t-27 -63t-44.5 -49.5t-60.5 -31z"/>
<glyph glyph-name="S" horiz-adv-x="754" unicode="S" d="M694 216q0 -66 -23.5 -110.5t-64.5 -72t-95.5 -39t-114.5 -11.5q-87 0 -177 37t-159 118l98 91q12 -20 38 -42t58 -41t67.5 -31t66.5 -12q36 0 67 4.5t54.5 16.5t36.5 32.5t13 53.5q0 22 -11.5 40t-31 32t-45.5 24t-55 17l-106 27q-14 4 -35.5 10.5t-46.5 17.5 t-50.5 27.5t-46 39.5t-33.5 54t-13 71q0 57 24 99t65.5 70t97 42t118.5 14q100 0 168.5 -29.5t113.5 -78.5l-98 -88q-36 39 -84 57t-105 18q-31 0 -60 -6t-51 -18t-35 -31t-13 -46q0 -23 13.5 -39.5t34.5 -28.5t46.5 -20.5t48.5 -14.5q6 -2 19.5 -5.5t28.5 -7t29 -7.5t20 -5 q35 -9 75 -24.5t74 -41.5t56.5 -66t22.5 -97z"/>
<glyph glyph-name="T" horiz-adv-x="601" unicode="T" d="M581 658h-214v-658h-134v658h-213v122h561v-122z"/>
<glyph glyph-name="U" horiz-adv-x="780" unicode="U" d="M695 269q0 -65 -25 -118t-67 -90.5t-96.5 -58t-113.5 -20.5q-60 0 -115.5 21t-98.5 58.5t-68.5 90t-25.5 116.5v512h140v-517q0 -32 14.5 -60.5t38 -50t53.5 -34t62 -12.5q28 0 57.5 12.5t53.5 34t39.5 50t15.5 60.5q-1 121 -1 225v292h137v-511z"/>
<glyph glyph-name="V" horiz-adv-x="680" unicode="V" d="M650 780l-228 -780h-165l-227 780h135l176 -600l174 600h135z"/>
<glyph glyph-name="W" horiz-adv-x="976" unicode="W" d="M946 780l-179 -779h-150l-128 559l-130 -559h-149l-180 779h140l122 -527l122 527h148l122 -530l122 530h140z"/>
<glyph glyph-name="X" horiz-adv-x="702" unicode="X" d="M677 0h-150l-176 289l-176 -289h-150l251 411l-225 369h150l150 -245l149 245h151l-225 -369z"/>
<glyph glyph-name="Y" horiz-adv-x="684" unicode="Y" d="M659 780l-250 -467v-313h-134v313l-250 467h142l175 -327l175 327h142z"/>
<glyph glyph-name="Z" horiz-adv-x="628" unicode="Z" d="M578 1h-528v122l364 537h-354v120h518v-122l-364 -537h364v-120z"/>
<glyph glyph-name="bracketleft" horiz-adv-x="376" unicode="[" d="M356 -122h-281v902h281v-81h-161v-741h161v-80z"/>
<glyph glyph-name="backslash" horiz-adv-x="399" unicode="\" d="M384 -177l-96 -29l-273 971l96 28z"/>
<glyph glyph-name="bracketright" horiz-adv-x="376" unicode="]" d="M301 -122h-281v80h161v741h-161v81h281v-902z"/>
<glyph glyph-name="asciicircum" horiz-adv-x="667" unicode="^" d="M562 324h-107l-119 258l-125 -258h-106l190 382h85z"/>
<glyph glyph-name="underscore" horiz-adv-x="500" unicode="_" d="M510 -125h-520v50h520v-50z"/>
<glyph glyph-name="grave" horiz-adv-x="595" unicode="`" d="M411 637h-79l-168 158h139z"/>
<glyph glyph-name="a" horiz-adv-x="585" unicode="a" d="M376 144v112q-17 3 -33 3.5t-32 0.5q-22 0 -46.5 -5t-45.5 -16t-35 -29t-14 -45q0 -20 8.5 -34t22.5 -24t31.5 -14.5t34.5 -4.5q32 0 61.5 14.5t47.5 41.5zM555 75l-58 -95q-31 4 -55.5 20t-38.5 39q-26 -23 -65 -39.5t-95 -16.5q-41 0 -78 11t-64.5 32.5t-44 54 t-16.5 75.5q0 42 13 73.5t35 54.5t50.5 38.5t59.5 24.5t62 12.5t58 3.5q15 0 30 -1t29 -3l2 20q1 6 1 11q0 34 -25 55.5t-69 21.5q-45 0 -83.5 -14t-80.5 -35l-46 101q22 16 51 28.5t59.5 21.5t60.5 13.5t54 4.5q63 0 103 -16.5t63 -46t31.5 -68.5t8.5 -84v-237 q0 -26 13 -40.5t35 -19.5z"/>
<glyph glyph-name="b" horiz-adv-x="623" unicode="b" d="M452 283q0 38 -9.5 70.5t-28 56t-46 37t-63.5 13.5q-19 0 -40 -7t-38 -19.5t-28.5 -31.5t-11.5 -43v-153q0 -25 12.5 -43.5t31.5 -30.5t39.5 -18t37.5 -6q35 0 62 15.5t45 40.5t27.5 56.5t9.5 62.5zM583 278q0 -56 -17 -109t-50 -94.5t-80 -67t-107 -25.5q-40 0 -75.5 16 t-65.5 42v-40h-123v780h123v-253q32 26 68.5 40.5t77.5 14.5q54 0 100 -25t79 -67t51.5 -97t18.5 -115z"/>
<glyph glyph-name="c" horiz-adv-x="583" unicode="c" d="M543 432l-109 -53q-20 40 -52 65t-79 25q-36 0 -61 -18t-41 -45.5t-23 -60.5t-7 -64t8 -64t24.5 -60t42 -44t60.5 -17q44 0 78.5 26t51.5 64l106 -53q-18 -33 -41.5 -60.5t-52 -47.5t-62.5 -31.5t-73 -11.5q-67 0 -118 23.5t-85.5 64t-52 95.5t-17.5 118q0 57 16.5 111 t49.5 96.5t83.5 68t118.5 25.5q82 0 141 -40t94 -112z"/>
<glyph glyph-name="d" horiz-adv-x="628" unicode="d" d="M437 206v153q0 24 -11.5 43t-29 31.5t-38.5 19.5t-40 7q-36 0 -63.5 -13.5t-46 -37t-28 -56t-9.5 -70.5q0 -31 9.5 -62.5t27.5 -56.5t45 -40.5t62 -15.5q16 0 37.5 6t40 18t31.5 30.5t13 43.5zM563 -1h-130l-1 37q-29 -24 -63.5 -38.5t-72.5 -14.5q-59 0 -106 26 t-80.5 67.5t-51.5 94t-18 106.5q0 59 15.5 114.5t47.5 98t81 68t115 25.5q38 0 72.5 -13t63.5 -36v246h128v-781z"/>
<glyph glyph-name="e" horiz-adv-x="601" unicode="e" d="M431 336v6q0 26 -8 49t-25.5 40.5t-41.5 27.5t-53 10t-53 -11t-41 -29.5t-26 -42.5t-9 -50h257zM561 261l-1 -23h-384q6 -65 42.5 -97.5t100.5 -32.5q37 0 66 9.5t62 39.5l78 -93q-40 -38 -92.5 -59.5t-112.5 -21.5q-68 0 -120 23.5t-87.5 64.5t-54 96t-18.5 119 q0 63 17 117t51 94t84.5 63t117.5 23q66 0 114.5 -25t80 -68.5t44.5 -97t13 -107.5q0 -12 -1 -24z"/>
<glyph glyph-name="f" horiz-adv-x="391" unicode="f" d="M377 785l-11 -113q-12 3 -24.5 6t-25.5 3q-27 0 -43.5 -7t-26 -19.5t-12 -28t-2.5 -29.5v-10l2 -19h103v-106h-103v-463h-127v463h-91v106h91l-1 32v8q0 87 43.5 137t140.5 50q22 0 44 -2.5t43 -7.5z"/>
<glyph glyph-name="g" horiz-adv-x="596" unicode="g" d="M406 296q0 32 -6.5 62t-21 53t-36.5 37t-53 14q-30 0 -52.5 -14t-38 -36t-23 -50t-7.5 -55q0 -31 6.5 -60t21.5 -51.5t39 -36t58 -13.5q31 0 52.5 14t35 36t19.5 48.5t6 51.5zM531 -10q0 -56 -20 -92.5t-54 -58.5t-80 -31t-97 -9q-57 0 -106.5 13t-98.5 41l46 106 q40 -21 79 -31t84 -10q19 0 40.5 3t40 12t30.5 25t12 42v76q-27 -24 -61 -37t-75 -13q-56 0 -99.5 23.5t-72.5 63t-44 90.5t-15 105q0 48 16 96.5t45.5 88.5t72 65t96.5 25q42 0 75 -11.5t62 -40.5v37h124v-578z"/>
<glyph glyph-name="h" horiz-adv-x="590" unicode="h" d="M525 0h-125v365q0 52 -23 75t-65 23q-24 0 -46 -7.5t-39.5 -21t-27.5 -33.5t-10 -45v-356h-124v781h124v-259q35 32 70.5 47t73.5 15q93 0 142.5 -50t49.5 -136v-398z"/>
<glyph glyph-name="i" horiz-adv-x="283" unicode="i" d="M205 0h-128v568h128v-568zM218 718q0 -32 -22 -54.5t-54 -22.5t-54.5 22.5t-22.5 54.5t22.5 54t54.5 22t54 -22t22 -54z"/>
<glyph glyph-name="j" horiz-adv-x="283" unicode="j" d="M190 -55q0 -64 -36 -98.5t-100 -34.5q-32 0 -58 5.5t-51 13.5l34 115q11 -4 22 -6.5t28 -2.5q33 0 33 43v588h128v-623zM203 718q0 -32 -22 -54.5t-54 -22.5t-54.5 22.5t-22.5 54.5t22.5 54t54.5 22t54 -22t22 -54z"/>
<glyph glyph-name="k" horiz-adv-x="598" unicode="k" d="M578 0h-139l-173 259l-73 -77v-182h-128v780h128v-430l213 218h168l-226 -227z"/>
<glyph glyph-name="l" horiz-adv-x="340" unicode="l" d="M320 -3q-26 -6 -50 -10t-50 -4q-84 0 -119.5 38t-35.5 113v647h125v-629q0 -23 14.5 -37t42.5 -14q16 0 28.5 2t29.5 6z"/>
<glyph glyph-name="m" horiz-adv-x="899" unicode="m" d="M834 0h-127v385q0 16 -8 31t-20 26t-27 18t-30 7q-18 0 -37 -7.5t-34.5 -20.5t-25.5 -30.5t-10 -36.5v-372h-129v31t-0.5 51t-0.5 62.5v67.5v174q0 15 -6.5 30t-17 26.5t-24.5 18.5t-30 7q-22 0 -42 -8t-35.5 -21.5t-24.5 -30t-9 -34.5v-374h-131v568h131v-37 q10 11 25 21t32 17.5t34 11.5t31 4q48 0 89 -17t70 -55q32 31 72 51.5t85 20.5q44 0 81 -14t63.5 -40t41 -62t14.5 -80v-389z"/>
<glyph glyph-name="n" horiz-adv-x="599" unicode="n" d="M534 0h-129v355q0 53 -25 79t-71 26q-21 0 -42 -9.5t-38 -25.5t-27.5 -36.5t-10.5 -41.5v-347h-126v568h126v-46q29 29 65.5 45.5t81.5 16.5q48 0 85 -14.5t61.5 -40t37 -60.5t12.5 -76v-393z"/>
<glyph glyph-name="o" horiz-adv-x="622" unicode="o" d="M459 284q0 37 -11.5 70t-31.5 58t-47 39t-57 14t-57 -14t-47 -39t-31.5 -58t-11.5 -70q0 -38 11.5 -71t31.5 -57.5t47 -38.5t57 -14t57 14t47 38.5t31.5 57.5t11.5 71zM582 286q0 -65 -17.5 -120t-52 -96t-86 -64t-119.5 -23q-62 0 -111 24t-84 64.5t-53.5 93.5 t-18.5 111q0 55 16.5 110t50 99.5t83.5 72t116 27.5t117.5 -21.5t86.5 -60.5t53.5 -94.5t18.5 -122.5z"/>
<glyph glyph-name="p" horiz-adv-x="636" unicode="p" d="M463 285q0 31 -11 62t-31.5 55.5t-49 39.5t-63.5 15q-17 0 -38 -8t-39.5 -22.5t-31.5 -35t-13 -45.5v-137q0 -24 11.5 -43t29 -32.5t38.5 -20.5t40 -7q36 0 65 14t50 38t32 56.5t11 70.5zM596 290q0 -73 -20.5 -130t-56 -96.5t-83.5 -60t-102 -20.5q-41 0 -78 13.5 t-68 44.5v-228h-123v755h123v-40q23 24 62 40t79 16q60 0 109 -23.5t84.5 -64t54.5 -93.5t19 -113z"/>
<glyph glyph-name="q" horiz-adv-x="637" unicode="q" d="M451 209v137q0 25 -13 45.5t-31.5 35t-40 22.5t-37.5 8q-35 0 -63.5 -15t-49 -39.5t-32 -55.5t-11.5 -62q0 -38 11.5 -70.5t32 -56.5t50 -38t65.5 -14q19 0 40 7t38.5 20.5t29 32.5t11.5 43zM572 -187h-123v228q-31 -31 -68 -44.5t-79 -13.5q-54 0 -101.5 20.5t-83.5 60 t-56.5 96.5t-20.5 130q0 60 19 113t54.5 93.5t85 64t109.5 23.5q40 0 79 -16t62 -40v40h123v-755z"/>
<glyph glyph-name="r" horiz-adv-x="391" unicode="r" d="M371 449l-18 1h-6q-27 0 -54 -9t-49.5 -27t-36 -44t-13.5 -59v-311h-129v568h129v-69q34 49 71.5 67t82.5 18q11 0 23 -1v-134z"/>
<glyph glyph-name="s" horiz-adv-x="544" unicode="s" d="M504 159q0 -46 -19.5 -79.5t-52 -55t-74.5 -32t-87 -10.5q-66 0 -125.5 19.5t-110.5 64.5l80 91q36 -32 80 -45.5t79 -13.5q45 0 69.5 13.5t24.5 44.5q0 21 -21.5 36t-56.5 24l-99 25q-27 6 -52.5 18.5t-46 32t-32.5 46.5t-12 62q0 46 19 80.5t50.5 57.5t72 34.5 t82.5 11.5q61 0 117.5 -18.5t103.5 -56.5l-77 -87q-26 18 -61.5 32.5t-74.5 14.5q-43 0 -70 -16.5t-27 -45.5q0 -14 11.5 -29t50.5 -25l104 -26q30 -8 58 -20.5t49.5 -32t34.5 -47.5t13 -68z"/>
<glyph glyph-name="t" horiz-adv-x="422" unicode="t" d="M397 1q-23 -6 -53.5 -12.5t-72.5 -6.5q-26 0 -54 5.5t-51 21t-37.5 43t-14.5 70.5v338h-94v108h94v154l127 57v-211h147v-108h-147v-288q0 -40 13.5 -56t55.5 -16q34 0 66 12z"/>
<glyph glyph-name="u" horiz-adv-x="591" unicode="u" d="M526 0h-126v45q-28 -29 -68.5 -45.5t-77.5 -16.5q-92 0 -143 51.5t-51 136.5v397h127v-364q0 -52 24 -74.5t72 -22.5q21 0 41.5 9.5t37.5 25.5t27.5 36.5t10.5 41.5v348h126v-568z"/>
<glyph glyph-name="v" horiz-adv-x="547" unicode="v" d="M530 568l-180 -568h-154l-179 568h134l123 -401l121 401h135z"/>
<glyph glyph-name="w" horiz-adv-x="798" unicode="w" d="M781 568l-157 -568h-143l-83 373l-82 -373h-142l-157 568h132l90 -381l89 381h142l89 -381l90 381h132z"/>
<glyph glyph-name="x" horiz-adv-x="564" unicode="x" d="M552 0h-146l-124 191l-126 -191h-144l198 299l-178 270h146l105 -158l102 158h145l-177 -267z"/>
<glyph glyph-name="y" horiz-adv-x="543" unicode="y" d="M531 568l-210 -640q-11 -35 -32 -64t-47 -44q-17 -10 -43.5 -13t-51.5 -3q-24 0 -49 4.5t-48 12.5l10 52t11 52q17 -6 34 -10t35 -4q28 0 48.5 11.5t20.5 37.5q0 11 -5 28l-192 580h134l126 -391l123 391h136z"/>
<glyph glyph-name="z" horiz-adv-x="527" unicode="z" d="M492 0h-452v109l270 348h-245v111h412v-107l-272 -350h287v-111z"/>
<glyph glyph-name="braceleft" horiz-adv-x="371" unicode="{" d="M331 -127h-4q-80 0 -129 44.5t-57 128.5q-3 35 -4.5 70t-2.5 70q-1 17 -1 35l1 21q0 26 -9 48q-11 29 -33 39.5t-52 12.5v93q32 2 50.5 13t28 28.5t12 40.5t3.5 50q1 21 1 41q0 10 -0.5 31t-0.5 52q0 51 10 90.5t33 66.5t60.5 41t93.5 14v-96q-35 -2 -54.5 -14.5t-30 -32 t-13 -45.5t-2.5 -56q0 -27 1 -54t1 -54q0 -24 -1.5 -47t-7.5 -44t-19 -39t-36 -32q24 -15 37.5 -36.5t20 -45.5t8 -50.5t1.5 -51.5q0 -23 -0.5 -44.5t-0.5 -44.5q0 -30 2 -55t11.5 -43.5t29 -30.5t53.5 -18v-96z"/>
<glyph glyph-name="bar" horiz-adv-x="249" unicode="|" d="M174 -27h-99v831h99v-831z"/>
<glyph glyph-name="braceright" horiz-adv-x="371" unicode="}" d="M331 342q-29 -2 -51.5 -12.5t-33.5 -39.5q-8 -23 -8 -51t-1 -53q-1 -35 -2.5 -70t-4.5 -70q-7 -84 -56.5 -128.5t-129.5 -44.5h-4v96q34 6 53.5 18t29 30.5t11.5 43.5t2 55q0 23 -0.5 44.5t-0.5 44.5q0 25 1.5 51.5t8 50.5t20 45.5t37.5 36.5q-23 14 -36 32t-19 39 t-7.5 44t-1.5 47q0 27 1 54t1 54q0 30 -2.5 56t-13 45.5t-30.5 32t-54 14.5v96q55 0 93 -14t61 -41t33 -66.5t10 -90.5q0 -31 -0.5 -51.5t-0.5 -31.5q0 -21 1 -41q1 -27 3.5 -50t12 -40.5t28 -28.5t50.5 -13v-93z"/>
<glyph glyph-name="asciitilde" horiz-adv-x="711" unicode="~" d="M630 298q-26 -44 -61.5 -67.5t-88.5 -23.5q-32 0 -66.5 12.5t-69 27t-65.5 27t-55 12.5q-17 0 -31.5 -7.5t-27 -18.5t-23 -25l-19.5 -26l-41 75q26 44 61.5 67.5t88.5 23.5q31 0 66 -12.5t69 -27t65.5 -27t55.5 -12.5q17 0 31.5 7.5t26.5 18.5t23 25t20 26z"/>
<glyph glyph-name="nonbreakingspace" horiz-adv-x="350" unicode=" "/>
<glyph glyph-name="exclamdown" horiz-adv-x="318" unicode="¡" d="M243 -17h-168l39 575h89zM242 695q0 -18 -6.5 -33.5t-18 -27t-26.5 -18t-32 -6.5t-32.5 6.5t-27 18t-18 27t-6.5 33.5t6.5 33.5t18 27t27 18t32.5 6.5t32 -6.5t26.5 -18t18 -27t6.5 -33.5z"/>
<glyph glyph-name="cent" horiz-adv-x="606" unicode="¢" d="M556 130q-19 -28 -37.5 -51t-40 -41t-47 -30.5t-56.5 -18.5v-79h-114v80q-44 6 -82.5 29t-67 61.5t-45 90t-16.5 113.5q0 58 17 109.5t46 90.5t67 63.5t81 30.5v81h114v-79q65 -15 108.5 -52t69.5 -100l-108 -48q-8 17 -19.5 33.5t-26.5 29t-34.5 20.5t-43.5 8 q-38 0 -64.5 -20t-44 -49t-25 -62.5t-7.5 -60.5q0 -29 9 -61t27 -59t44 -44.5t60 -17.5q21 0 41 7t37.5 19t30.5 27.5t20 33.5z"/>
<glyph glyph-name="sterling" horiz-adv-x="653" unicode="£" d="M598 0q-21 -5 -37.5 -8.5t-32 -5.5t-31.5 -3t-35 -1q-48 0 -80 6t-60 15q-15 5 -29.5 9t-30.5 8t-34 6t-40 2q-24 0 -43 -2.5t-36 -6.5q-12 -3 -23.5 -6.5t-22.5 -7.5l-28 116q65 25 86 71t21 104q0 10 -1 21h-94v84h78q-29 47 -40 82.5t-11 76.5q0 46 15.5 88.5 t46.5 74.5t78 51.5t111 19.5q109 0 173.5 -50t81.5 -138l-122 -25q-15 58 -44 78.5t-82 20.5q-30 0 -55 -10.5t-43 -29t-28 -43.5t-10 -54q1 -24 5.5 -42t12.5 -33q7 -14 14.5 -28.5t16.5 -38.5h194v-84h-175q1 -11 1 -22q0 -38 -9.5 -72.5t-32.5 -78.5q21 2 39 2 q25 0 52 -5.5t52 -13.5q13 -4 25.5 -8t26.5 -8q29 -8 60 -8q16 0 27 2.5t23 4.5q9 2 20 4t27 5z"/>
<glyph glyph-name="currency" horiz-adv-x="851" unicode="¤" d="M776 569l-120 -43q-9 29 -25.5 56.5t-40.5 48.5t-55 34t-69 13q-49 0 -86 -14.5t-63.5 -40.5t-43 -61t-24.5 -75h220l-10 -71h-219v-28v-20t1 -20h209l-10 -71h-188q9 -36 25.5 -68t41.5 -56t59.5 -37.5t79.5 -13.5q71 0 121.5 37.5t72.5 105.5l122 -41 q-39 -109 -117 -165.5t-201 -56.5q-71 0 -128.5 23t-100.5 62.5t-71.5 93.5t-41.5 116h-89l10 71h69q-1 9 -1 18.5v18.5v31h-59l10 71h58q12 66 39.5 122.5t71 98t102 65.5t132.5 24q60 0 111.5 -16t92.5 -45.5t70.5 -72t44.5 -94.5z"/>
<glyph glyph-name="yen" horiz-adv-x="724" unicode="¥" d="M679 780l-174 -325h113v-94h-163l-26 -48v-31h189v-94h-189v-188h-134v188h-190v94h190v31l-26 48h-164v94h114l-174 325h142l174 -325h2l174 325h142z"/>
<glyph glyph-name="brokenbar" horiz-adv-x="217" unicode="¦" d="M152 -20h-87v320h87v-320zM152 477h-87v320h87v-320z"/>
<glyph glyph-name="section" horiz-adv-x="516" unicode="§" d="M389 244q0 16 -6 28.5t-15.5 22t-20.5 17t-21 13.5l-146 80q-17 -6 -28.5 -16.5t-18 -22t-9.5 -22t-3 -17.5q0 -31 16 -49t37 -30l158 -91q29 17 43 37.5t14 49.5zM476 268q0 -8 -4.5 -24.5t-16.5 -36t-32 -39.5t-51 -35q29 -26 51 -58t22 -79q0 -45 -16 -78.5t-42.5 -56 t-61.5 -34t-72 -11.5q-53 0 -87.5 17.5t-55 42t-29.5 52.5t-12 49h96q3 -15 9 -30t17 -27t28.5 -19.5t43.5 -7.5q27 0 44 11t26 25.5t12 29.5t3 24q0 34 -19.5 52.5t-45.5 32.5l-147 81q-24 13 -42 27t-30 31.5t-18 40t-6 53.5q0 42 25 73t75 61q-27 26 -44 54.5t-17 68.5 q0 32 11.5 62.5t34 54t55.5 38t77 14.5q31 0 60.5 -7t54 -25t41 -48t21.5 -76h-90q-6 35 -28 57t-62 22q-39 0 -62 -23t-23 -51q0 -45 45 -70l156 -84q23 -12 42.5 -26t33.5 -32t22 -41.5t8 -54.5z"/>
<glyph glyph-name="dieresis" horiz-adv-x="616" unicode="¨" d="M250 708q0 -27 -19 -46t-46 -19t-46 19t-19 46t19 46t46 19t46 -19t19 -46zM456 708q0 -27 -19 -46t-46 -19t-46 19t-19 46t19 46t46 19t46 -19t19 -46z"/>
<glyph glyph-name="copyright" horiz-adv-x="931" unicode="©" d="M714 534l-114 -66q-19 35 -54.5 55.5t-80.5 20.5q-32 0 -60 -12t-48.5 -33t-32.5 -49t-12 -60t12 -60t32.5 -48.5t48.5 -32.5t60 -12q44 0 79 21.5t53 52.5l113 -68q-18 -30 -43.5 -55.5t-57 -43.5t-68 -28.5t-76.5 -10.5q-59 0 -111 22.5t-90.5 61t-61 90.5t-22.5 111 t22.5 111t61 91t90.5 61.5t111 22.5q40 0 78 -10.5t70.5 -29.5t58.5 -45t42 -57zM843 388q0 78 -29.5 147t-81 120.5t-120.5 81t-147 29.5t-146.5 -29.5t-120 -81t-81 -120.5t-29.5 -147t29.5 -146.5t81 -120t120 -81t146.5 -29.5t147 29.5t120.5 81t81 120t29.5 146.5z M871 389q0 -84 -32 -158t-87 -129t-128.5 -87t-157.5 -32t-158 32t-129 87t-87 129t-32 158t32 157.5t87 128.5t129 87t158 32t157.5 -32t128.5 -87t87 -128.5t32 -157.5z"/>
<glyph glyph-name="ordfeminine" horiz-adv-x="482" unicode="ª" d="M304 438l-1 90q-13 1 -25.5 2t-25.5 1q-18 0 -37.5 -3.5t-36.5 -12.5t-28 -23.5t-11 -36.5q0 -16 7 -27.5t18 -19t25 -11t28 -3.5q26 0 49.5 11t37.5 33zM447 384l-46 -76q-25 3 -44 14t-29 30h-5q-23 -25 -55.5 -33.5t-63.5 -8.5q-28 0 -58 8t-54.5 25t-40.5 42t-16 60 q0 54 22.5 87t56.5 51t72.5 24.5t71.5 6.5q11 0 24.5 -1t21.5 -2l2 16q1 5 1 10q0 27 -20 43.5t-55 16.5q-36 0 -67.5 -11t-64.5 -28l-36 81q18 13 41 23t47.5 17t48 10.5t43.5 3.5q50 0 82 -13.5t50 -37t25 -55t7 -66.5v-189q0 -20 11 -32t28 -16z"/>
<glyph glyph-name="guillemotleft" horiz-adv-x="483" unicode="«" d="M207 93l-157 142v124l157 142v-101l-111 -103l111 -103v-101zM433 93l-157 142v124l157 142v-101l-111 -103l111 -103v-101z"/>
<glyph glyph-name="logicalnot" horiz-adv-x="574" unicode="¬" d="M519 108h-93v201h-371v102h464v-303z"/>
<glyph glyph-name="registered" horiz-adv-x="919" unicode="®" d="M565 483q-1 23 -19 41.5t-41 18.5h-115v-124h116q28 0 43.5 20.5t15.5 43.5zM655 165h-91l-106 187h-74v-186h-79v462h196q33 0 59.5 -11t45 -30t29 -46t10.5 -58q0 -45 -26 -76t-71 -53zM783 388q0 68 -25.5 128t-69 104.5t-103 70.5t-126.5 26t-126 -26t-102.5 -70.5 t-69 -104.5t-25.5 -128t25.5 -127.5t69 -104t102.5 -70.5t126 -26t126.5 26t103 70.5t69 104t25.5 127.5zM859 388q0 -84 -31.5 -158t-85.5 -128.5t-126.5 -86.5t-155.5 -32t-156 32t-127 86.5t-85.5 128.5t-31.5 158t31.5 158t85.5 129t127 87t156 32t155.5 -32t126.5 -87 t85.5 -129t31.5 -158z"/>
<glyph glyph-name="macron" horiz-adv-x="353" unicode="¯" d="M350 641h-346v68h346v-68z"/>
<glyph glyph-name="degree" horiz-adv-x="417" unicode="°" d="M294 636q0 36 -25 61t-61 25q-35 0 -60 -25t-25 -61q0 -35 25 -60t60 -25q36 0 61 25t25 60zM367 637q0 -33 -12.5 -62t-34 -50.5t-50 -34t-61.5 -12.5t-62 12.5t-50.5 34t-34 50.5t-12.5 62t12.5 61.5t34 50t50.5 34t62 12.5t61.5 -12.5t50 -34t34 -50t12.5 -61.5z"/>
<glyph glyph-name="plusminus" horiz-adv-x="549" unicode="±" d="M504 26h-459v103h459v-103zM504 403h-172v-199h-114v199h-173v112h173v199h114v-199h172v-112z"/>
<glyph glyph-name="twosuperior" horiz-adv-x="506" unicode="²" d="M421 637q0 -41 -15 -78t-41 -69.5t-62.5 -60t-78.5 -50.5h195l1 -93h-375v97q31 17 77 44.5t89 61.5t73.5 72.5t30.5 77.5q0 35 -21.5 61t-58.5 26q-24 0 -41.5 -9.5t-29 -25.5t-16 -34t-4.5 -35v-7h-109v7q0 95 51 147.5t148 52.5q88 0 137.5 -48.5t49.5 -136.5z"/>
<glyph glyph-name="threesuperior" horiz-adv-x="517" unicode="³" d="M442 450q0 -92 -49.5 -131t-146.5 -39q-173 0 -211 158l102 19q10 -41 38.5 -64.5t73.5 -23.5q38 0 65 19.5t27 61.5q0 28 -16.5 42t-39.5 19q-19 5 -39 5.5t-40 0.5v85h17q24 0 45 4q24 5 45 19t21 45q0 20 -9 32.5t-22.5 20t-29 10t-28.5 2.5q-38 0 -67 -17t-41 -59 l-102 12q23 77 76 114t136 37q36 0 70 -10t60.5 -29.5t42.5 -48.5t16 -66q0 -32 -14.5 -61.5t-55.5 -44.5q41 -19 58.5 -48.5t17.5 -63.5z"/>
<glyph glyph-name="acute" horiz-adv-x="655" unicode="´" d="M497 988l-169 -157h-78l108 157h139z"/>
<glyph glyph-name="mu" horiz-adv-x="626" unicode="µ" d="M591 522l-110 -525h-120l7 33q-34 -29 -58 -38t-50 -9q-11 0 -31 6.5t-42 26.5l-47 -222h-125l153 728h126l-73 -348l-3 -12q-2 -9 -2 -17q0 -18 14 -32.5t38 -14.5q27 0 49.5 10.5t40.5 29t30 44t18 54.5l61 286h124z"/>
<glyph glyph-name="paragraph" horiz-adv-x="541" unicode="¶" d="M521 652h-56v-829h-72v829h-96v-829h-73v429q-46 3 -81 22.5t-59 50.5t-36.5 71.5t-12.5 86.5q0 56 17 99.5t47 73.5t71.5 45.5t90.5 15.5h260v-65z"/>
<glyph glyph-name="periodcentered" horiz-adv-x="283" unicode="·" d="M203 391q0 -32 -22.5 -54t-54.5 -22t-54 22t-22 54t22 54t54 22t54.5 -22t22.5 -54z"/>
<glyph glyph-name="cedilla" horiz-adv-x="760" unicode="¸" d="M478 -117q0 -45 -29.5 -66t-73.5 -21q-49 0 -89 27l-13 50q24 -9 48 -9q9 0 19.5 3.5t19.5 10.5t15 18t6 26q0 31 -12.5 50.5t-29.5 30.5h27q19 0 38.5 -9t36 -25t27 -38t10.5 -48z"/>
<glyph glyph-name="onesuperior" horiz-adv-x="291" unicode="¹" d="M216 295h-109v378h-72v70q35 3 56 20q23 19 28 60h97v-528z"/>
<glyph glyph-name="ordmasculine" horiz-adv-x="504" unicode="º" d="M370 553q0 30 -9.5 56.5t-25.5 46t-37.5 31t-45.5 11.5t-45.5 -11.5t-37.5 -31t-25 -46t-9 -56.5t9 -56.5t25 -46t37.5 -31t45.5 -11.5t45.5 11.5t37.5 31t25.5 46t9.5 56.5zM469 555q0 -52 -14 -96.5t-42 -77t-69 -51t-96 -18.5q-49 0 -88.5 19.5t-67 51.5t-42.5 74.5 t-15 88.5q0 44 13.5 88.5t40 80t66.5 57.5t93 22q52 0 93.5 -17t69.5 -48.5t43 -75.5t15 -98z"/>
<glyph glyph-name="guillemotright" horiz-adv-x="483" unicode="»" d="M207 235l-157 -142v101l111 103l-111 103v101l157 -142v-124zM433 235l-157 -142v101l111 103l-111 103v101l157 -142v-124z"/>
<glyph glyph-name="onequarter" horiz-adv-x="691" unicode="¼" d="M469 377l-175 -219h175v219zM656 55h-78v-89h-109v89h-295v107l260 325h144v-329h78v-103zM216 295h-109v378h-72v70q35 3 56 20q23 19 28 60h97v-528z"/>
<glyph glyph-name="onehalf" horiz-adv-x="716" unicode="½" d="M216 295h-109v378h-72v70q17 2 31 5.5t25 13.5q23 19 28 60h97v-527zM661 317q0 -41 -15 -78t-41 -69.5t-62.5 -60t-78.5 -50.5h196v-93h-375v97q21 11 49 27.5t58 36t59.5 42.5t52.5 47.5t37.5 50.5t14.5 52q0 35 -21.5 61t-59.5 26q-24 0 -41.5 -9.5t-29 -25.5t-16 -34 t-4.5 -35v-7h-109v7q0 94 51.5 147t147.5 53q88 0 137.5 -48.5t49.5 -136.5z"/>
<glyph glyph-name="threequarters" horiz-adv-x="854" unicode="¾" d="M632 377l-175 -219h175v219zM442 450q0 -92 -49.5 -131t-146.5 -39q-173 0 -211 158l102 19q10 -41 38.5 -64.5t73.5 -23.5q38 0 65 19.5t27 61.5q0 28 -16.5 42t-39.5 19q-19 5 -39 5.5t-40 0.5v85h17q24 0 45 4q24 5 45 19t21 45q0 20 -9 32.5t-22.5 20t-29 10 t-28.5 2.5q-38 0 -67 -17t-41 -59l-102 12q23 77 76 114t136 37q36 0 70 -10t60.5 -29.5t42.5 -48.5t16 -66q0 -32 -14.5 -61.5t-55.5 -44.5q41 -19 58.5 -48.5t17.5 -63.5zM819 55h-78v-89h-109v89h-295v107l260 325h144v-329h78v-103z"/>
<glyph glyph-name="questiondown" horiz-adv-x="611" unicode="¿" d="M571 248q-1 -60 -21 -109t-55.5 -83.5t-83.5 -53.5t-105 -19q-59 0 -107 22.5t-82.5 60t-53 86t-18.5 99.5q0 45 12 81t30.5 63.5t40 47t41.5 30.5q38 22 53 43.5t16 55.5h146v-6q0 -30 -9 -60.5t-26 -58t-38.5 -48t-43.5 -29.5q-41 -17 -61 -48t-20 -72q0 -23 9 -45.5 t25 -40t39 -28.5t52 -11q27 0 49 10t38.5 26.5t26.5 39t11 47.5h135zM394 709q0 -18 -6.5 -33.5t-18 -27t-27 -18t-32.5 -6.5t-32.5 6.5t-26.5 18t-17.5 27t-6.5 33.5t6.5 33.5t17.5 27t26.5 18t32.5 6.5t32.5 -6.5t27 -18t18 -27t6.5 -33.5z"/>
<glyph glyph-name="Agrave" d="M472 260l-118 377l-117 -377h235zM690 0h-134l-46 146h-309l-47 -146h-134l251 780h165zM427 831h-78l-169 157h139z" unicode="À"/>
<glyph glyph-name="Aacute" d="M472 260l-118 377l-117 -377h235zM690 0h-134l-46 146h-309l-47 -146h-134l251 780h165zM492 987l-169 -157h-78l108 157h139z" unicode="Á"/>
<glyph glyph-name="Acircumflex" d="M472 260l-118 377l-117 -377h235zM690 0h-134l-46 146h-309l-47 -146h-134l251 780h165zM538 831h-99l-84 104l-84 -104h-99l127 157h112z" unicode="Â"/>
<glyph glyph-name="Atilde" d="M472 260l-118 377l-117 -377h235zM690 0h-134l-46 146h-309l-47 -146h-134l251 780h165zM524 943q-4 -54 -30 -83.5t-72 -29.5q-17 0 -33.5 6.5t-33.5 14.5t-35 15.5t-37 7.5q-20 0 -33 -12t-18 -32h-50q5 48 31.5 81.5t71.5 33.5q20 0 36.5 -6.5t33.5 -14.5 q16 -8 32.5 -15t34.5 -7q40 0 51 41h51z" unicode="Ã"/>
<glyph glyph-name="Adieresis" d="M472 260l-118 377l-117 -377h235zM690 0h-134l-46 146h-309l-47 -146h-134l251 780h165zM320 896q0 -27 -19 -46t-46 -19t-46 19t-19 46t19 46t46 19t46 -19t19 -46zM526 896q0 -27 -19 -46t-46 -19t-46 19t-19 46t19 46t46 19t46 -19t19 -46z" unicode="Ä"/>
<glyph glyph-name="Aring" d="M472 260l-118 377l-117 -377h235zM408 945q0 23 -16 39.5t-39 16.5t-39 -16.5t-16 -39.5t16 -39t39 -16t39 16t16 39zM690 0h-134l-46 146h-309l-47 -146h-134l251 780h165zM468 946q0 -24 -9 -45t-25 -36.5t-36.5 -24.5t-44.5 -9t-44.5 9t-36 24.5t-24.5 36.5t-9 45 t9 44.5t24.5 36t36 24.5t44.5 9t44.5 -9t36.5 -24.5t25 -36t9 -44.5z" unicode="Å"/>
<glyph glyph-name="AE" horiz-adv-x="1107" unicode="Æ" d="M554 255v406l-245 -406h245zM1062 0h-509l1 144h-311l-87 -144h-136l488 780h528v-121h-352v-207h319v-117h-319v-215l378 1v-121z"/>
<glyph glyph-name="Ccedilla" horiz-adv-x="779" unicode="Ç" d="M724 569l-121 -43q-9 29 -25.5 56.5t-40 48.5t-54.5 34t-69 13q-63 0 -106.5 -24t-70.5 -64t-38.5 -92.5t-11.5 -109.5q0 -53 11 -104t36.5 -91.5t67.5 -65.5t103 -25q72 0 122 37.5t72 105.5l123 -41q-35 -96 -99.5 -151t-162.5 -68q23 -15 40 -41.5t17 -60.5 q0 -45 -29.5 -66t-73.5 -21q-49 0 -89 27l-13 50q24 -9 48 -9q9 0 19.5 3.5t19.5 10.5t15 18t6 26q0 19 -5.5 34t-13.5 26q-86 0 -151.5 33.5t-109.5 89t-67 128t-23 152.5q0 83 22.5 158t67 131.5t110.5 89.5t154 33q60 0 111.5 -16t92.5 -45.5t70.5 -72t45.5 -94.5z"/>
<glyph glyph-name="Egrave" horiz-adv-x="645" unicode="È" d="M600 0h-510v780h487v-122h-353v-204h323v-120h-323v-214q63 -2 125 -2l79 1q78 1 172 1v-120zM420 831h-78l-169 157h139z"/>
<glyph glyph-name="Eacute" horiz-adv-x="645" unicode="É" d="M600 0h-510v780h487v-122h-353v-204h323v-120h-323v-214q63 -2 125 -2l79 1q78 1 172 1v-120zM492 988l-169 -157h-78l108 157h139z"/>
<glyph glyph-name="Ecircumflex" horiz-adv-x="645" unicode="Ê" d="M600 0h-510v780h487v-122h-353v-204h323v-120h-323v-214q63 -2 125 -2l79 1q78 1 172 1v-120zM526 831h-99l-84 104l-84 -104h-99l127 157h112z"/>
<glyph glyph-name="Edieresis" horiz-adv-x="645" unicode="Ë" d="M600 0h-510v780h487v-122h-353v-204h323v-120h-323v-214q63 -2 125 -2l79 1q78 1 172 1v-120zM308 896q0 -27 -19 -46t-46 -19t-46 19t-19 46t19 46t46 19t46 -19t19 -46zM514 896q0 -27 -19 -46t-46 -19t-46 19t-19 46t19 46t46 19t46 -19t19 -46z"/>
<glyph glyph-name="Igrave" horiz-adv-x="325" unicode="Ì" d="M230 0h-135v781h135v-781zM248 832h-78l-168 157h139z"/>
<glyph glyph-name="Iacute" horiz-adv-x="325" unicode="Í" d="M230 0h-135v780h135v-780zM324 988l-169 -157h-78l108 157h139z"/>
<glyph glyph-name="Icircumflex" horiz-adv-x="325" unicode="Î" d="M230 0h-135v780h135v-780zM345 831h-99l-84 104l-84 -104h-99l126 157h113z"/>
<glyph glyph-name="Idieresis" horiz-adv-x="325" unicode="Ï" d="M230 0h-135v780h135v-780zM125 896q0 -27 -19 -46t-46 -19t-46 19t-19 46t19 46t46 19t46 -19t19 -46zM331 896q0 -27 -19 -46t-46 -19t-46 19t-19 46t19 46t46 19t46 -19t19 -46z"/>
<glyph glyph-name="Eth" horiz-adv-x="769" unicode="Ð" d="M590 395q0 43 -12.5 90t-37.5 86t-63 64t-88 25h-165l-3 -217h136v-103h-136v-220h161q55 0 94.5 25t65 64.5t37 88.5t11.5 97zM724 397q0 -81 -21.5 -153.5t-65 -126.5t-109 -85.5t-152.5 -31.5h-286l-3 340h-42v103h42v337h290q91 0 156.5 -34.5t108 -89t62.5 -123 t20 -136.5z"/>
<glyph glyph-name="Ntilde" horiz-adv-x="838" unicode="Ñ" d="M748 0h-150l-374 559v-559h-134v780h150l374 -560v560h134v-780zM578 944q-4 -54 -30 -83.5t-72 -29.5q-17 0 -33.5 6.5t-33.5 14.5t-35 15.5t-37 7.5q-20 0 -33 -12t-18 -32h-50q5 48 31.5 81.5t71.5 33.5q20 0 36.5 -6.5t33.5 -14.5q16 -8 32.5 -15t34.5 -7q40 0 51 41 h51z"/>
<glyph glyph-name="Ograve" horiz-adv-x="817" unicode="Ò" d="M632 391q0 58 -11.5 110t-38.5 91.5t-70.5 62.5t-106.5 23q-61 0 -103.5 -24t-69 -63.5t-38.5 -91.5t-12 -107q0 -59 12 -111.5t38.5 -92.5t69 -63t104.5 -23q67 0 110.5 24.5t69 65t36 92.5t10.5 107zM767 386q0 -85 -23 -159t-68 -129t-113 -87t-158 -32q-85 0 -151 30 t-111.5 84t-69 128.5t-23.5 163.5q0 90 22 165.5t66 130.5t110.5 85.5t156.5 30.5q93 0 161 -31t113 -86t66.5 -130.5t21.5 -163.5zM470 831h-78l-169 157h139z"/>
<glyph glyph-name="Oacute" horiz-adv-x="817" unicode="Ó" d="M632 391q0 58 -11.5 110t-38.5 91.5t-70.5 62.5t-106.5 23q-61 0 -103.5 -24t-69 -63.5t-38.5 -91.5t-12 -107q0 -59 12 -111.5t38.5 -92.5t69 -63t104.5 -23q67 0 110.5 24.5t69 65t36 92.5t10.5 107zM767 386q0 -85 -23 -159t-68 -129t-113 -87t-158 -32q-85 0 -151 30 t-111.5 84t-69 128.5t-23.5 163.5q0 90 22 165.5t66 130.5t110.5 85.5t156.5 30.5q93 0 161 -31t113 -86t66.5 -130.5t21.5 -163.5zM562 988l-169 -157h-78l108 157h139z"/>
<glyph glyph-name="Ocircumflex" horiz-adv-x="817" unicode="Ô" d="M632 391q0 58 -11.5 110t-38.5 91.5t-70.5 62.5t-106.5 23q-61 0 -103.5 -24t-69 -63.5t-38.5 -91.5t-12 -107q0 -59 12 -111.5t38.5 -92.5t69 -63t104.5 -23q67 0 110.5 24.5t69 65t36 92.5t10.5 107zM767 386q0 -85 -23 -159t-68 -129t-113 -87t-158 -32q-85 0 -151 30 t-111.5 84t-69 128.5t-23.5 163.5q0 90 22 165.5t66 130.5t110.5 85.5t156.5 30.5q93 0 161 -31t113 -86t66.5 -130.5t21.5 -163.5zM586 831h-99l-84 104l-84 -104h-99l127 157h112z"/>
<glyph glyph-name="Otilde" horiz-adv-x="817" unicode="Õ" d="M632 391q0 58 -11.5 110t-38.5 91.5t-70.5 62.5t-106.5 23q-61 0 -103.5 -24t-69 -63.5t-38.5 -91.5t-12 -107q0 -59 12 -111.5t38.5 -92.5t69 -63t104.5 -23q67 0 110.5 24.5t69 65t36 92.5t10.5 107zM767 386q0 -85 -23 -159t-68 -129t-113 -87t-158 -32q-85 0 -151 30 t-111.5 84t-69 128.5t-23.5 163.5q0 90 22 165.5t66 130.5t110.5 85.5t156.5 30.5q93 0 161 -31t113 -86t66.5 -130.5t21.5 -163.5zM578 944q-4 -54 -30 -83.5t-72 -29.5q-17 0 -33.5 6.5t-33.5 14.5t-35 15.5t-37 7.5q-20 0 -33 -12t-18 -32h-50q5 48 31.5 81.5t71.5 33.5 q20 0 36.5 -6.5t33.5 -14.5q16 -8 32.5 -15t34.5 -7q40 0 51 41h51z"/>
<glyph glyph-name="Odieresis" horiz-adv-x="817" unicode="Ö" d="M632 391q0 58 -11.5 110t-38.5 91.5t-70.5 62.5t-106.5 23q-61 0 -103.5 -24t-69 -63.5t-38.5 -91.5t-12 -107q0 -59 12 -111.5t38.5 -92.5t69 -63t104.5 -23q67 0 110.5 24.5t69 65t36 92.5t10.5 107zM767 386q0 -85 -23 -159t-68 -129t-113 -87t-158 -32q-85 0 -151 30 t-111.5 84t-69 128.5t-23.5 163.5q0 90 22 165.5t66 130.5t110.5 85.5t156.5 30.5q93 0 161 -31t113 -86t66.5 -130.5t21.5 -163.5zM366 896q0 -27 -19 -46t-46 -19t-46 19t-19 46t19 46t46 19t46 -19t19 -46zM572 896q0 -27 -19 -46t-46 -19t-46 19t-19 46t19 46t46 19 t46 -19t19 -46z"/>
<glyph glyph-name="multiply" horiz-adv-x="545" unicode="×" d="M505 426l-152 -171l152 -170l-80 -81l-153 170l-153 -170l-79 81l152 170l-152 171l79 80l153 -171l152 171z"/>
<glyph glyph-name="Oslash" horiz-adv-x="812" unicode="Ø" d="M450 662q-20 2 -28.5 3t-14.5 1q-45 0 -85.5 -18.5t-70.5 -53.5t-48 -87t-19 -119q0 -83 29.5 -145t89.5 -107zM618 387q0 81 -25 141.5t-80 108.5l-147 -525q20 -2 28 -2.5t13 -0.5q46 0 85 19.5t67 56t43.5 88t15.5 114.5zM762 388q0 -92 -28 -167t-76.5 -128.5 t-113.5 -82.5t-138 -29q-16 0 -32.5 1.5t-42.5 6.5l-23 -82l-63 23l23 80q-100 51 -159 148t-59 231q0 96 28 171.5t76.5 128t113 80t138.5 27.5q17 0 35 -1.5t44 -6.5l22 77l64 -23l-22 -76q97 -49 154.5 -143.5t58.5 -234.5z"/>
<glyph glyph-name="Ugrave" horiz-adv-x="780" unicode="Ù" d="M695 269q0 -65 -25 -118t-67 -90.5t-96.5 -58t-113.5 -20.5q-60 0 -115.5 21t-98.5 58.5t-68.5 90t-25.5 116.5v512h140v-517q0 -32 14.5 -60.5t38 -50t53.5 -34t62 -12.5q28 0 57.5 12.5t53.5 34t39.5 50t15.5 60.5q-1 121 -1 225v292h137v-511zM470 831h-78l-169 157 h139z"/>
<glyph glyph-name="Uacute" horiz-adv-x="780" unicode="Ú" d="M695 269q0 -65 -25 -118t-67 -90.5t-96.5 -58t-113.5 -20.5q-60 0 -115.5 21t-98.5 58.5t-68.5 90t-25.5 116.5v512h140v-517q0 -32 14.5 -60.5t38 -50t53.5 -34t62 -12.5q28 0 57.5 12.5t53.5 34t39.5 50t15.5 60.5q-1 121 -1 225v292h137v-511zM532 988l-169 -157h-78 l108 157h139z"/>
<glyph glyph-name="Ucircumflex" horiz-adv-x="780" unicode="Û" d="M695 269q0 -65 -25 -118t-67 -90.5t-96.5 -58t-113.5 -20.5q-60 0 -115.5 21t-98.5 58.5t-68.5 90t-25.5 116.5v512h140v-517q0 -32 14.5 -60.5t38 -50t53.5 -34t62 -12.5q28 0 57.5 12.5t53.5 34t39.5 50t15.5 60.5q-1 121 -1 225v292h137v-511zM574 831h-99l-84 104 l-84 -104h-99l127 157h112z"/>
<glyph glyph-name="Udieresis" horiz-adv-x="780" unicode="Ü" d="M695 269q0 -65 -25 -118t-67 -90.5t-96.5 -58t-113.5 -20.5q-60 0 -115.5 21t-98.5 58.5t-68.5 90t-25.5 116.5v512h140v-517q0 -32 14.5 -60.5t38 -50t53.5 -34t62 -12.5q28 0 57.5 12.5t53.5 34t39.5 50t15.5 60.5q-1 121 -1 225v292h137v-511zM350 896q0 -27 -19 -46 t-46 -19t-46 19t-19 46t19 46t46 19t46 -19t19 -46zM556 896q0 -27 -19 -46t-46 -19t-46 19t-19 46t19 46t46 19t46 -19t19 -46z"/>
<glyph glyph-name="Yacute" horiz-adv-x="684" unicode="Ý" d="M659 780l-250 -467v-313h-134v313l-250 467h142l175 -327l175 327h142zM492 989l-169 -157h-78l108 157h139z"/>
<glyph glyph-name="Thorn" horiz-adv-x="640" unicode="Þ" d="M477 404q0 25 -9.5 48t-26 41t-38.5 28.5t-48 10.5h-151v-254h151q25 0 47 11t38.5 28.5t26.5 40t10 46.5zM605 405q0 -44 -16.5 -88t-46.5 -79.5t-72 -57.5t-93 -22h-173v-158h-134v780h133v-126h174q57 0 100 -22.5t71.5 -58t42.5 -80t14 -88.5z"/>
<glyph glyph-name="germandbls" horiz-adv-x="618" unicode="ß" d="M578 242q0 -54 -17 -98.5t-48 -76.5t-75.5 -49.5t-98.5 -17.5h-63v122h11q26 0 52.5 4.5t48 18t34.5 38t13 62.5q0 35 -14 58t-36.5 36t-48.5 17t-49 4h-11v92h9q22 0 43.5 4.5t39.5 17t28 33.5t10 53q0 45 -29.5 75.5t-75.5 30.5q-24 0 -43.5 -9t-33.5 -24.5 t-21.5 -36.5t-7.5 -44l-2 -552h-133v537q0 118 61.5 187.5t182.5 69.5q47 0 89.5 -16.5t75 -46t51.5 -70t19 -89.5q0 -23 -7 -45.5t-19 -42t-28.5 -35.5t-35.5 -26q25 -8 48.5 -25.5t41.5 -41t28.5 -53t10.5 -61.5z"/>
<glyph glyph-name="agrave" horiz-adv-x="585" unicode="à" d="M376 144v112q-17 3 -33 3.5t-32 0.5q-22 0 -46.5 -4.5t-45.5 -15.5t-35 -29.5t-14 -45.5q0 -20 8.5 -34t22.5 -24t31.5 -14.5t34.5 -4.5q32 0 61.5 14.5t47.5 41.5zM555 75l-58 -95q-31 4 -55.5 20t-38.5 39q-26 -23 -65 -39.5t-95 -16.5q-41 0 -78 11t-64.5 32.5t-44 54 t-16.5 75.5q0 42 13 73.5t35 54.5t50.5 38.5t59.5 24.5t62 12.5t58 3.5q15 0 30 -1t29 -3l2 20q1 6 1 11q0 34 -25 55.5t-69 21.5q-45 0 -83.5 -14t-80.5 -35l-46 101q22 16 51 28.5t59.5 21.5t60.5 13.5t54 4.5q63 0 103 -16.5t63 -46t31.5 -68.5t8.5 -84v-237 q0 -26 13 -40.5t35 -19.5zM376 637h-79l-168 158h139z"/>
<glyph glyph-name="aacute" horiz-adv-x="585" unicode="á" d="M376 144v112q-17 3 -33 3.5t-32 0.5q-22 0 -46.5 -5t-45.5 -16t-35 -29t-14 -45q0 -20 8.5 -34t22.5 -24t31.5 -14.5t34.5 -4.5q32 0 61.5 14.5t47.5 41.5zM555 75l-58 -95q-31 4 -55.5 20t-38.5 39q-26 -23 -65 -39.5t-95 -16.5q-41 0 -78 11t-64.5 32.5t-44 54 t-16.5 75.5q0 42 13 73.5t35 54.5t50.5 38.5t59.5 24.5t62 12.5t58 3.5q15 0 30 -1t29 -3l2 20q1 6 1 11q0 34 -25 55.5t-69 21.5q-45 0 -83.5 -14t-80.5 -35l-46 101q22 16 51 28.5t59.5 21.5t60.5 13.5t54 4.5q63 0 103 -16.5t63 -46t31.5 -68.5t8.5 -84v-237 q0 -26 13 -40.5t35 -19.5zM449 794l-168 -157h-78l107 157h139z"/>
<glyph glyph-name="acircumflex" horiz-adv-x="585" unicode="â" d="M376 144v112q-17 3 -33 3.5t-32 0.5q-22 0 -46.5 -4.5t-45.5 -16t-35 -29.5t-14 -45q0 -20 8.5 -34t22.5 -24t31.5 -14.5t34.5 -4.5q32 0 61.5 14.5t47.5 41.5zM555 75l-58 -95q-31 4 -55.5 20t-38.5 39q-26 -23 -65 -39.5t-95 -16.5q-41 0 -78 11t-64.5 32.5t-44 54 t-16.5 75.5q0 42 13 73.5t35 54.5t50.5 38.5t59.5 24.5t62 12.5t58 3.5q15 0 30 -1t29 -3l2 20q1 6 1 11q0 34 -25 55.5t-69 21.5q-45 0 -83.5 -14t-80.5 -35l-46 101q22 16 51 28.5t59.5 21.5t60.5 13.5t54 4.5q63 0 103 -16.5t63 -46t31.5 -68.5t8.5 -84v-237 q0 -26 13 -40.5t35 -19.5zM478 637h-99l-84 104l-84 -104h-100l127 157h113z"/>
<glyph glyph-name="atilde" horiz-adv-x="585" unicode="ã" d="M376 144v112q-17 3 -33 3.5t-32 0.5q-22 0 -46.5 -5t-45.5 -16.5t-35 -29.5t-14 -44q0 -20 8.5 -34t22.5 -24t31.5 -14.5t34.5 -4.5q32 0 61.5 14.5t47.5 41.5zM555 75l-58 -95q-31 4 -55.5 20t-38.5 39q-26 -23 -65 -39.5t-95 -16.5q-41 0 -78 11t-64.5 32.5t-44 54 t-16.5 75.5q0 42 13 73.5t35 54.5t50.5 38.5t59.5 24.5t62 12.5t58 3.5q15 0 30 -1t29 -3l2 20q1 6 1 11q0 34 -25 55.5t-69 21.5q-45 0 -83.5 -14t-80.5 -35l-46 101q22 16 51 28.5t59.5 21.5t60.5 13.5t54 4.5q63 0 103 -16.5t63 -46t31.5 -68.5t8.5 -84v-237 q0 -26 13 -40.5t35 -19.5zM457 750q-4 -54 -30 -83.5t-72 -29.5q-17 0 -33.5 6.5t-33.5 14.5t-35 15.5t-37 7.5q-20 0 -33 -12t-18 -32h-50q5 48 31.5 81.5t71.5 33.5q20 0 36.5 -6.5t33.5 -14.5q16 -8 32.5 -15t34.5 -7q40 0 51 41h51z"/>
<glyph glyph-name="adieresis" horiz-adv-x="585" unicode="ä" d="M376 144v112q-17 3 -33 3.5t-32 0.5q-22 0 -46.5 -4.5t-45.5 -15.5t-35 -29.5t-14 -45.5q0 -20 8.5 -34t22.5 -24t31.5 -14.5t34.5 -4.5q32 0 61.5 14.5t47.5 41.5zM555 75l-58 -95q-31 4 -55.5 20t-38.5 39q-26 -23 -65 -39.5t-95 -16.5q-41 0 -78 11t-64.5 32.5t-44 54 t-16.5 75.5q0 42 13 73.5t35 54.5t50.5 38.5t59.5 24.5t62 12.5t58 3.5q15 0 30 -1t29 -3l2 20q1 6 1 11q0 34 -25 55.5t-69 21.5q-45 0 -83.5 -14t-80.5 -35l-46 101q22 16 51 28.5t59.5 21.5t60.5 13.5t54 4.5q63 0 103 -16.5t63 -46t31.5 -68.5t8.5 -84v-237 q0 -26 13 -40.5t35 -19.5zM257 701q0 -27 -19 -46t-46 -19t-46 19t-19 46t19 46t46 19t46 -19t19 -46zM463 701q0 -27 -19 -46t-46 -19t-46 19t-19 46t19 46t46 19t46 -19t19 -46z"/>
<glyph glyph-name="aring" horiz-adv-x="585" unicode="å" d="M376 144v112q-17 3 -33 3.5t-32 0.5q-22 0 -46.5 -5t-45.5 -16t-35 -29t-14 -45q0 -20 8.5 -34t22.5 -24t31.5 -14.5t34.5 -4.5q32 0 61.5 14.5t47.5 41.5zM348 747q0 23 -16.5 39t-39.5 16t-39 -16t-16 -39t16 -39t39 -16t39.5 16t16.5 39zM555 75l-58 -95 q-31 4 -55.5 20t-38.5 39q-26 -23 -65 -39.5t-95 -16.5q-41 0 -78 11t-64.5 32.5t-44 54t-16.5 75.5q0 42 13 73.5t35 54.5t50.5 38.5t59.5 24.5t62 12.5t58 3.5q15 0 30 -1t29 -3l2 20q1 6 1 11q0 34 -25 55.5t-69 21.5q-45 0 -83.5 -14t-80.5 -35l-46 101q22 16 51 28.5 t59.5 21.5t60.5 13.5t54 4.5q63 0 103 -16.5t63 -46t31.5 -68.5t8.5 -84v-237q0 -26 13 -40.5t35 -19.5zM407 747q0 -24 -9 -44.5t-24.5 -36t-36 -24.5t-44.5 -9t-45 9t-36.5 24.5t-24.5 36t-9 44.5t9 44.5t24.5 36.5t36.5 25t45 9t44.5 -9t36 -25t24.5 -36.5t9 -44.5z"/>
<glyph glyph-name="ae" horiz-adv-x="898" unicode="æ" d="M369 181q0 13 -0.5 29.5t-0.5 44.5q-22 3 -37 4t-29 1q-20 0 -42.5 -4t-42 -15t-32 -30t-12.5 -49q0 -23 8.5 -37t22 -22t30 -11t31.5 -3q41 0 63.5 10t32.5 33q5 11 6 23t2 26zM733 345q-10 60 -45 95t-82 35q-45 0 -80.5 -35t-43.5 -95h251zM857 276l-1 -29h-376 q8 -76 51 -110.5t100 -34.5q29 0 59.5 11.5t56.5 34.5l83 -78q-42 -47 -91 -67t-109 -20q-57 0 -109 18.5t-99 75.5q-16 -29 -36.5 -47t-43 -28.5t-47 -14.5t-49.5 -4q-39 0 -78 10.5t-69.5 32t-49.5 54.5t-19 78q0 62 30.5 102t78.5 62t93 26.5t75 4.5t59 -3l4 41 q0 22 -8.5 36.5t-22 23.5t-29.5 12.5t-32 3.5q-47 0 -86.5 -13.5t-81.5 -38.5l-46 104q49 31 101 48t106 17q23 0 47.5 -1.5t48.5 -7t46.5 -16.5t43.5 -30q37 32 75 43.5t76 11.5q64 0 112 -25t79 -67t44.5 -94.5t13.5 -106.5v-15z"/>
<glyph glyph-name="ccedilla" horiz-adv-x="583" unicode="ç" d="M543 432l-109 -53q-20 40 -52 65t-79 25q-36 0 -61 -18t-41 -45.5t-23 -60.5t-7 -64t8 -64t24.5 -60t42 -44t60.5 -17q44 0 78.5 26t51.5 64l106 -53q-32 -58 -80 -98.5t-113 -49.5q23 -16 39.5 -42.5t16.5 -59.5q0 -45 -29.5 -66t-73.5 -21q-49 0 -89 27l-13 50 q24 -9 48 -9q9 0 19.5 3.5t19.5 10.5t15 18t6 26q0 20 -5.5 35t-13.5 26q-61 4 -107.5 29t-78 65t-47.5 93t-16 113q0 57 16.5 111t49.5 96.5t83.5 68t118.5 25.5q82 0 141 -40t94 -112z"/>
<glyph glyph-name="egrave" horiz-adv-x="601" unicode="è" d="M431 336v6q0 26 -8 49t-25.5 40.5t-41.5 27.5t-53 10t-53 -11t-41 -29.5t-26 -42.5t-9 -50h257zM561 261l-1 -23h-384q6 -65 43 -97.5t101 -32.5q37 0 69 13t55 33l87 -86q-45 -37 -98 -61t-113 -24q-68 0 -120 23.5t-87.5 64.5t-54 96t-18.5 119q0 63 17 117t51 94 t84.5 63t117.5 23q66 0 114.5 -25t80 -68.5t44.5 -97t13 -107.5q0 -12 -1 -24zM389 637h-79l-168 158h139z"/>
<glyph glyph-name="eacute" horiz-adv-x="601" unicode="é" d="M431 336v6q0 26 -8 49t-25.5 40.5t-41.5 27.5t-53 10t-53 -11t-41 -29.5t-26 -42.5t-9 -50h257zM561 261l-1 -23h-384q6 -65 43 -97.5t101 -32.5q37 0 69 13t55 33l87 -86q-45 -37 -98 -61t-113 -24q-68 0 -120 23.5t-87.5 64.5t-54 96t-18.5 119q0 63 17 117t51 94 t84.5 63t117.5 23q66 0 114.5 -25t80 -68.5t44.5 -97t13 -107.5q0 -12 -1 -24zM469 794l-168 -157h-78l107 157h139z"/>
<glyph glyph-name="ecircumflex" horiz-adv-x="601" unicode="ê" d="M431 336v6q0 26 -8 49t-25.5 40.5t-41.5 27.5t-53 10t-53 -11t-41 -29.5t-26 -42.5t-9 -50h257zM561 261l-1 -23h-384q6 -65 43 -97.5t101 -32.5q37 0 69 13t55 33l87 -86q-45 -37 -98 -61t-113 -24q-68 0 -120 23.5t-87.5 64.5t-54 96t-18.5 119q0 63 17 117t51 94 t84.5 63t117.5 23q66 0 114.5 -25t80 -68.5t44.5 -97t13 -107.5q0 -12 -1 -24zM491 637h-99l-84 104l-84 -104h-100l127 157h113z"/>
<glyph glyph-name="edieresis" horiz-adv-x="601" unicode="ë" d="M431 336v6q0 26 -8 49t-25.5 40.5t-41.5 27.5t-53 10t-53 -11t-41 -29.5t-26 -42.5t-9 -50h257zM561 261l-1 -23h-384q6 -65 43 -97.5t101 -32.5q37 0 69 13t55 33l87 -86q-45 -37 -98 -61t-113 -24q-68 0 -120 23.5t-87.5 64.5t-54 96t-18.5 119q0 63 17 117t51 94 t84.5 63t117.5 23q66 0 114.5 -25t80 -68.5t44.5 -97t13 -107.5q0 -12 -1 -24zM269 701q0 -27 -19 -46t-46 -19t-46 19t-19 46t19 46t46 19t46 -19t19 -46zM475 701q0 -27 -19 -46t-46 -19t-46 19t-19 46t19 46t46 19t46 -19t19 -46z"/>
<glyph glyph-name="igrave" horiz-adv-x="295" unicode="ì" d="M205 0h-128v568h128v-568zM226 637h-79l-168 158h139z"/>
<glyph glyph-name="iacute" horiz-adv-x="283" unicode="í" d="M205 0h-128v568h128v-568zM309 795l-168 -157h-78l107 157h139z"/>
<glyph glyph-name="icircumflex" horiz-adv-x="283" unicode="î" d="M205 0h-128v568h128v-568zM323 637h-99l-84 104l-84 -104h-99l127 157h113z"/>
<glyph glyph-name="idieresis" horiz-adv-x="283" unicode="ï" d="M205 0h-128v568h128v-568zM103 702q0 -27 -19 -46t-46 -19t-46 19t-19 46t19 46t46 19t46 -19t19 -46zM309 702q0 -27 -19 -46t-46 -19t-46 19t-19 46t19 46t46 19t46 -19t19 -46z"/>
<glyph glyph-name="eth" horiz-adv-x="584" unicode="ð" d="M428 274q0 34 -9.5 66t-26.5 56t-40 38.5t-51 14.5t-51 -14.5t-40 -38.5t-26.5 -56t-9.5 -66q0 -35 9.5 -67t26.5 -56t40 -38.5t51 -14.5t51 14.5t40 38.5t26.5 56t9.5 67zM544 273q0 -55 -16.5 -106.5t-47.5 -91.5t-75 -64t-99 -24q-60 0 -106.5 21.5t-79 60t-49 90.5 t-16.5 112q0 51 17.5 104t51.5 95t78 63t91 21q16 0 32 -2l-64 86h-149l-36 66h135l-54 76h126l49 -78h139l39 -62h-135q25 -38 41 -60.5t29 -42.5q19 -29 37 -60t31.5 -64.5t22 -68.5t8.5 -71z"/>
<glyph glyph-name="ntilde" horiz-adv-x="599" unicode="ñ" d="M534 0h-129v363q0 48 -25 72.5t-71 24.5q-21 0 -42 -9.5t-38 -25.5t-27.5 -36.5t-10.5 -41.5v-347h-126v568h126v-46q29 29 65.5 45.5t81.5 16.5q48 0 85 -14.5t61.5 -40t37 -60.5t12.5 -76v-393zM473 750q-4 -54 -30 -83.5t-72 -29.5q-17 0 -33.5 7t-33.5 15t-35 15 t-37 7q-20 0 -33 -12t-18 -32h-50q5 48 31.5 81.5t71.5 33.5q20 0 36.5 -6.5t33.5 -14.5q16 -8 32.5 -15t34.5 -7q40 0 51 41h51z"/>
<glyph glyph-name="ograve" horiz-adv-x="622" unicode="ò" d="M459 284q0 37 -11.5 70t-31.5 58t-47 39t-57 14t-57 -14t-47 -39t-31.5 -58t-11.5 -70q0 -38 11.5 -71t31.5 -57.5t47 -38.5t57 -14t57 14t47 38.5t31.5 57.5t11.5 71zM582 286q0 -65 -17.5 -120t-52 -96t-86 -64t-119.5 -23q-62 0 -111 24t-84 64.5t-53.5 93.5 t-18.5 111q0 55 16.5 110t50 99.5t83.5 72t116 27.5t117.5 -21.5t86.5 -60.5t53.5 -94.5t18.5 -122.5zM388 637h-79l-168 158h139z"/>
<glyph glyph-name="oacute" horiz-adv-x="622" unicode="ó" d="M459 284q0 37 -11.5 70t-31.5 58t-47 39t-57 14t-57 -14t-47 -39t-31.5 -58t-11.5 -70q0 -38 11.5 -71t31.5 -57.5t47 -38.5t57 -14t57 14t47 38.5t31.5 57.5t11.5 71zM582 286q0 -65 -17.5 -120t-52 -96t-86 -64t-119.5 -23q-62 0 -111 24t-84 64.5t-53.5 93.5 t-18.5 111q0 55 16.5 110t50 99.5t83.5 72t116 27.5t117.5 -21.5t86.5 -60.5t53.5 -94.5t18.5 -122.5zM449 794l-168 -157h-78l107 157h139z"/>
<glyph glyph-name="ocircumflex" horiz-adv-x="622" unicode="ô" d="M459 284q0 37 -11.5 70t-31.5 58t-47 39t-57 14t-57 -14t-47 -39t-31.5 -58t-11.5 -70q0 -38 11.5 -71t31.5 -57.5t47 -38.5t57 -14t57 14t47 38.5t31.5 57.5t11.5 71zM582 286q0 -65 -17.5 -120t-52 -96t-86 -64t-119.5 -23q-62 0 -111 24t-84 64.5t-53.5 93.5 t-18.5 111q0 55 16.5 110t50 99.5t83.5 72t116 27.5t117.5 -21.5t86.5 -60.5t53.5 -94.5t18.5 -122.5zM487 637h-99l-84 104l-84 -104h-100l127 157h113z"/>
<glyph glyph-name="otilde" horiz-adv-x="622" unicode="õ" d="M459 284q0 37 -11.5 70t-31.5 58t-47 39t-57 14t-57 -14t-47 -39t-31.5 -58t-11.5 -70q0 -38 11.5 -71t31.5 -57.5t47 -38.5t57 -14t57 14t47 38.5t31.5 57.5t11.5 71zM582 286q0 -65 -17.5 -120t-52 -96t-86 -64t-119.5 -23q-62 0 -111 24t-84 64.5t-53.5 93.5 t-18.5 111q0 55 16.5 110t50 99.5t83.5 72t116 27.5t117.5 -21.5t86.5 -60.5t53.5 -94.5t18.5 -122.5zM493 750q-4 -54 -30 -83.5t-72 -29.5q-17 0 -33.5 7t-33.5 15t-35 15t-37 7q-20 0 -33 -12t-18 -32h-50q5 48 31.5 81.5t71.5 33.5q20 0 36.5 -6.5t33.5 -14.5 q16 -8 32.5 -15t34.5 -7q40 0 51 41h51z"/>
<glyph glyph-name="odieresis" horiz-adv-x="622" unicode="ö" d="M459 284q0 37 -11.5 70t-31.5 58t-47 39t-57 14t-57 -14t-47 -39t-31.5 -58t-11.5 -70q0 -38 11.5 -71t31.5 -57.5t47 -38.5t57 -14t57 14t47 38.5t31.5 57.5t11.5 71zM582 286q0 -65 -17.5 -120t-52 -96t-86 -64t-119.5 -23q-62 0 -111 24t-84 64.5t-53.5 93.5 t-18.5 111q0 55 16.5 110t50 99.5t83.5 72t116 27.5t117.5 -21.5t86.5 -60.5t53.5 -94.5t18.5 -122.5zM265 701q0 -27 -19 -46t-46 -19t-46 19t-19 46t19 46t46 19t46 -19t19 -46zM471 701q0 -27 -19 -46t-46 -19t-46 19t-19 46t19 46t46 19t46 -19t19 -46z"/>
<glyph glyph-name="divide" horiz-adv-x="549" unicode="÷" d="M365 66q0 -14 -6 -28t-16.5 -24.5t-23.5 -17t-28 -6.5q-32 0 -55 22.5t-23 53.5q0 32 23 54t54 22q30 0 52.5 -22.5t22.5 -53.5zM504 217h-459v103h459v-103zM365 470q0 -14 -6 -28t-16.5 -24.5t-23.5 -17t-28 -6.5q-32 0 -55 22.5t-23 53.5q0 32 23 54t54 22 q30 0 52.5 -22.5t22.5 -53.5z"/>
<glyph glyph-name="oslash" horiz-adv-x="622" unicode="ø" d="M332 463q-5 1 -10 1.5t-10 0.5q-30 0 -57 -14t-47 -39t-31.5 -58t-11.5 -70q0 -51 20.5 -93t53.5 -65zM459 284q0 51 -20.5 92t-53.5 65l-93 -336q5 -1 10 -1.5t10 -0.5q30 0 57 14t47 38.5t31.5 57.5t11.5 71zM582 286q0 -65 -17.5 -120t-52 -96t-86 -64t-119.5 -23 q-12 0 -23.5 1t-22.5 3l-20 -72l-55 20l19 68q-39 16 -69.5 44t-52 64t-32.5 78t-11 87q0 55 16.5 110t50 99.5t83.5 72t116 27.5q15 0 29.5 -1.5t28.5 -3.5l20 73l55 -24l-18 -65q78 -31 119.5 -103t41.5 -175z"/>
<glyph glyph-name="ugrave" horiz-adv-x="591" unicode="ù" d="M526 0h-126v45q-28 -29 -68.5 -45.5t-77.5 -16.5q-92 0 -143 51.5t-51 136.5v397h127v-364q0 -52 24 -74.5t72 -22.5q21 0 41.5 9.5t37.5 25.5t27.5 36.5t10.5 41.5v348h126v-568zM386 637h-79l-168 158h139z"/>
<glyph glyph-name="uacute" horiz-adv-x="591" unicode="ú" d="M526 0h-126v45q-28 -29 -68.5 -45.5t-77.5 -16.5q-92 0 -143 51.5t-51 136.5v397h127v-364q0 -52 24 -74.5t72 -22.5q21 0 41.5 9.5t37.5 25.5t27.5 36.5t10.5 41.5v348h126v-568zM432 794l-168 -157h-78l107 157h139z"/>
<glyph glyph-name="ucircumflex" horiz-adv-x="591" unicode="û" d="M526 0h-126v45q-28 -29 -68.5 -45.5t-77.5 -16.5q-92 0 -143 51.5t-51 136.5v397h127v-364q0 -52 24 -74.5t72 -22.5q21 0 41.5 9.5t37.5 25.5t27.5 36.5t10.5 41.5v348h126v-568zM477 637h-99l-84 104l-84 -104h-100l127 157h113z"/>
<glyph glyph-name="udieresis" horiz-adv-x="591" unicode="ü" d="M526 0h-126v45q-28 -29 -68.5 -45.5t-77.5 -16.5q-92 0 -143 51.5t-51 136.5v397h127v-364q0 -52 24 -74.5t72 -22.5q21 0 41.5 9.5t37.5 25.5t27.5 36.5t10.5 41.5v348h126v-568zM258 701q0 -27 -19 -46t-46 -19t-46 19t-19 46t19 46t46 19t46 -19t19 -46zM464 701 q0 -27 -19 -46t-46 -19t-46 19t-19 46t19 46t46 19t46 -19t19 -46z"/>
<glyph glyph-name="yacute" horiz-adv-x="543" unicode="ý" d="M531 568l-223 -674q-8 -26 -23 -43t-28 -23q-23 -11 -55.5 -16t-57.5 -5q-48 0 -94 17l10 52t11 52q17 -6 34 -10t35 -4q28 0 48.5 14.5t20.5 43.5q0 1 -8.5 27.5t-22.5 68.5t-32 95t-36 109l-98 296h134l126 -391l123 391h136zM422 795l-169 -158h-78l108 158h139z"/>
<glyph glyph-name="thorn" horiz-adv-x="636" unicode="þ" d="M463 285q0 31 -10.5 62t-30.5 55.5t-48 39.5t-63 15q-17 0 -37.5 -8t-38.5 -22.5t-30.5 -35t-12.5 -45.5v-137q0 -24 11 -43t28 -32.5t37.5 -20.5t39.5 -7q36 0 64.5 14t49 38t31 56.5t10.5 70.5zM596 290q0 -73 -20.5 -130t-56 -96.5t-83.5 -60t-102 -20.5 q-41 0 -78 13.5t-68 44.5v-228h-123v968h123v-253q23 24 62 40t79 16q60 0 109 -23.5t84.5 -64t54.5 -93.5t19 -113z"/>
<glyph glyph-name="OE" horiz-adv-x="1030" unicode="Œ" d="M478 194l-1 380q0 38 -22 55.5t-68 17.5q-58 0 -97 -22t-62.5 -58t-33.5 -83t-10 -97t10 -96.5t33.5 -82.5t62.5 -58t97 -22q41 0 66 12t25 54zM985 0l-599 -1q-82 0 -144.5 30t-105 82.5t-64.5 123.5t-22 153q0 199 99 295.5t286 96.5h527v-122h-356v-202h323v-121h-323 v-216l379 1v-120z"/>
<glyph glyph-name="oe" horiz-adv-x="966" unicode="œ" d="M432 287q0 37 -10 69.5t-27.5 57t-41.5 38.5t-52 14t-51.5 -14t-41 -38.5t-27.5 -57t-10 -69.5t10 -69.5t27.5 -57t41 -38.5t51.5 -14t52 14t41.5 38.5t27.5 57t10 69.5zM802 345q-4 25 -14 48.5t-25.5 41.5t-37.5 29t-50 11q-26 0 -47.5 -11t-37.5 -29t-26 -41.5 t-13 -48.5h251zM926 247h-377q4 -42 19.5 -69.5t36.5 -43.5t46 -22.5t49 -6.5q30 0 60.5 13t52.5 33l86 -81q-38 -42 -83 -64t-101 -22q-68 0 -121.5 20.5t-98.5 65.5q-81 -87 -191 -87q-59 0 -108 23t-83.5 63.5t-53.5 96t-19 119.5t17.5 118.5t51 95t83 63.5t112.5 23 q105 0 187 -81q38 40 83 60t103 20q64 0 112 -25t79.5 -70t45 -101.5t13.5 -115.5q0 -12 -1 -25z"/>
<glyph glyph-name="Scaron" horiz-adv-x="751" unicode="Š" d="M691 216q0 -66 -23 -110.5t-63.5 -72t-94.5 -39t-114 -11.5q-100 0 -185 38t-151 117l105 93q15 -18 37.5 -40.5t50.5 -42t61 -32.5t69 -13t67 5.5t54.5 18.5t36.5 34.5t13 54.5q0 24 -14 42t-37 32t-54.5 24t-65.5 17q-49 10 -101.5 24.5t-96.5 40t-72 65.5t-28 100 q0 59 23.5 103t64 73t95 43.5t117.5 14.5q100 0 171 -28.5t114 -80.5l-95 -92q-36 42 -84.5 61t-105.5 19q-28 0 -56.5 -6t-51 -18t-37 -31t-14.5 -46t16 -46t43 -32t61.5 -21.5t71.5 -15.5q52 -9 101 -26.5t87 -46.5t61.5 -70.5t23.5 -98.5zM558 987l-127 -157h-112 l-127 157h99l84 -104l84 104h99z"/>
<glyph glyph-name="scaron" horiz-adv-x="544" unicode="š" d="M504 159q0 -46 -19.5 -79.5t-52 -55t-74.5 -32t-87 -10.5q-66 0 -125.5 19.5t-110.5 64.5l80 91q18 -16 39 -27t42 -18t41 -10.5t37 -3.5q45 0 69.5 13.5t24.5 44.5q0 21 -21.5 36t-56.5 24l-99 25q-27 6 -52.5 18.5t-46 32t-32.5 46.5t-12 62q0 46 19 80.5t50.5 57.5 t72 34.5t82.5 11.5q61 0 117.5 -18.5t103.5 -56.5l-77 -87q-26 18 -61.5 32.5t-74.5 14.5q-43 0 -70 -16.5t-27 -45.5q0 -14 11.5 -29t50.5 -25l104 -26q30 -8 58 -20.5t49.5 -32t34.5 -47.5t13 -68zM454 780l-127 -157h-113l-127 157h99l85 -104l84 104h99z"/>
<glyph glyph-name="Ydieresis" horiz-adv-x="684" unicode="Ÿ" d="M659 780l-250 -467v-313h-134v313l-250 467h142l175 -327l175 327h142zM307 894q0 -27 -19 -46t-46 -19t-46 19t-19 46t19 46t46 19t46 -19t19 -46zM513 894q0 -27 -19 -46t-46 -19t-46 19t-19 46t19 46t46 19t46 -19t19 -46z"/>
<glyph glyph-name="circumflex" horiz-adv-x="694" unicode="ˆ" d="M534 637h-99l-84 104l-84 -104h-99l127 157h113z"/>
<glyph glyph-name="tilde" horiz-adv-x="848" unicode="˜" d="M581 750q-4 -54 -30 -83.5t-72 -29.5q-17 0 -33.5 7t-33.5 15t-35 15t-37 7q-20 0 -33 -12t-18 -32h-50q5 48 31.5 81.5t71.5 33.5q20 0 36.5 -6.5t33.5 -14.5q16 -8 32.5 -15t34.5 -7q40 0 51 41h51z"/>
<glyph glyph-name="pi" horiz-adv-x="637" unicode="π" d="M587 -9q-23 -2 -36.5 -3.5t-25.5 -1.5q-28 0 -52.5 6.5t-42.5 20t-28.5 33.5t-10.5 48v379h-152v-472h-130v472h-59v95h536v-95h-64v-342q0 -23 11 -38.5t31 -15.5q7 0 12 0.5t10 1.5z"/>
<glyph glyph-name="endash" horiz-adv-x="569" unicode="–" d="M540 272h-510v109h510v-109z"/>
<glyph glyph-name="emdash" horiz-adv-x="755" unicode="—" d="M726 272h-696v109h696v-109z"/>
<glyph glyph-name="quoteleft" horiz-adv-x="276" unicode="‘" d="M223 599q0 -29 -20.5 -50t-49.5 -21q-39 0 -59.5 30.5t-20.5 76.5q0 72 36 109t95 53v-34q-11 -3 -24 -10.5t-24.5 -19.5t-20 -29t-11.5 -40q17 4 23 4.5t11 0.5q13 0 25 -6t21 -16t14 -22.5t5 -25.5z"/>
<glyph glyph-name="quotesinglbase" horiz-adv-x="291" unicode="‚" d="M231 46q0 -38 -10.5 -66.5t-29.5 -48t-45 -32t-57 -19.5v52q9 1 21 7t22.5 15t19 22t10.5 30q-6 -2 -11 -2h-10q-15 0 -27.5 6.5t-22.5 17.5t-15.5 24.5t-5.5 27.5q0 32 22 54.5t54 22.5q43 0 64 -33t21 -78z"/>
<glyph glyph-name="quotedblleft" horiz-adv-x="520" unicode="“" d="M240 594q0 -32 -21.5 -54t-53.5 -22q-42 0 -63.5 32.5t-21.5 79.5q0 38 10.5 66t29 48.5t44.5 33t57 20.5v-44q-11 -2 -23.5 -8.5t-24 -17.5t-20 -26.5t-11.5 -35.5q12 2 17.5 2.5t10.5 0.5q29 0 49.5 -23.5t20.5 -51.5zM470 594q0 -32 -21.5 -54t-53.5 -22 q-42 0 -63.5 32.5t-21.5 79.5q0 38 10.5 66t29 48.5t44.5 33t57 20.5v-44q-11 -2 -23.5 -8.5t-24 -17.5t-20 -26.5t-11.5 -35.5q12 2 17.5 2.5t10.5 0.5q29 0 49.5 -23.5t20.5 -51.5z"/>
<glyph glyph-name="quotedblright" horiz-adv-x="520" unicode="”" d="M230 682q0 -38 -10.5 -66t-29 -48.5t-44.5 -33.5t-57 -20v44q11 2 23.5 8.5t24 18t20 27t11.5 35.5q-12 -3 -17.5 -3.5t-10.5 -0.5q-29 0 -49.5 23.5t-20.5 51.5q0 32 21.5 54t53.5 22q42 0 63.5 -32.5t21.5 -79.5zM460 682q0 -38 -10.5 -66t-29 -48.5t-44.5 -33.5 t-57 -20v44q11 2 23.5 8.5t24 18t20 27t11.5 35.5q-12 -3 -17.5 -3.5t-10.5 -0.5q-29 0 -49.5 23.5t-20.5 51.5q0 32 21.5 54t53.5 22q42 0 63.5 -32.5t21.5 -79.5z"/>
<glyph glyph-name="dagger" horiz-adv-x="530" unicode="†" d="M490 414h-172v-574h-106v574h-172v98h172v205h106v-205h172v-98z"/>
<glyph glyph-name="daggerdbl" horiz-adv-x="530" unicode="‡" d="M490 37h-172v-197h-106v197h-172v98h172v288h-172v97h172v197h106v-197h172v-97h-172v-288h172v-98z"/>
<glyph glyph-name="ellipsis" horiz-adv-x="716" unicode="…" d="M204 62q0 -30 -21 -51t-51 -21t-51 21t-21 51t21 51t51 21t51 -21t21 -51zM434 62q0 -30 -21 -51t-51 -21t-51 21t-21 51t21 51t51 21t51 -21t21 -51zM664 62q0 -30 -21 -51t-51 -21t-51 21t-21 51t21 51t51 21t51 -21t21 -51z"/>
<glyph glyph-name="perthousand" horiz-adv-x="1386" unicode="‰" d="M1245 209q1 23 -7 45t-20 38t-30 24q-16 9 -34 9t-34 -9q-16 -8 -30 -24q-12 -16 -20 -38t-7 -45q-1 -23 7 -45t20 -38t30 -24q16 -9 34 -9t34 9q16 8 30 24q12 16 20 38t7 45zM1346 211q0 -45 -12 -85t-38 -68q-24 -30 -60 -46t-85 -17q-44 -1 -79 17q-36 18 -60 47 t-37 67t-13 78q0 38 12 78t34 70q24 32 60 52t82 20q48 0 84 -16t61 -44t38 -67t13 -86zM232 689q-18 0 -34 -9q-16 -8 -30 -24q-12 -16 -20 -38t-7 -45q-1 -25 7 -46t20 -37t30 -24q16 -9 34 -9t34 9q16 8 30 24q12 16 20 37t7 46q1 23 -7 45t-20 38t-30 24q-16 9 -34 9z M229 358q-44 0 -79 18q-36 18 -60 46t-37 66t-13 79q0 39 12 78t34 71q24 32 60 51q36 20 82 20q48 1 84 -15t61 -44t38 -68t13 -86q0 -44 -12 -84t-38 -69q-24 -29 -60 -46t-85 -17zM811 209q1 23 -7 45t-20 38t-30 24q-16 9 -34 9t-34 -9q-16 -8 -30 -24q-12 -16 -20 -38 t-7 -45q-1 -23 7 -45t20 -38t30 -24q16 -9 34 -9t34 9q16 8 30 24q12 16 20 38t7 45zM816 780l-575 -781h-103l574 781h104zM912 211q0 -45 -12 -85t-38 -68q-24 -30 -60 -46t-85 -17q-44 -1 -79 17q-36 18 -60 47t-37 67t-13 78q0 38 12 78t34 70q24 32 60 52t82 20 q48 0 84 -16t61 -44t38 -67t13 -86z"/>
<glyph glyph-name="guilsinglleft" horiz-adv-x="257" unicode="‹" d="M207 93l-157 142v124l157 142v-101l-111 -103l111 -103v-101z"/>
<glyph glyph-name="guilsinglright" horiz-adv-x="257" unicode="›" d="M207 235l-157 -142v101l111 103l-111 103v101l157 -142v-124z"/>
<glyph glyph-name="fraction" horiz-adv-x="738" unicode="⁄" d="M708 780l-574 -781h-104l574 781h104z"/>
<glyph glyph-name="euro" horiz-adv-x="851" unicode="€" d="M776 569l-120 -43q-9 29 -25.5 56.5t-40.5 48.5t-55 34t-69 13q-49 0 -86 -14.5t-63.5 -40.5t-43 -61t-24.5 -75h220l-10 -71h-219v-28v-20t1 -20h209l-10 -71h-188q9 -36 25.5 -68t41.5 -56t59.5 -37.5t79.5 -13.5q71 0 121.5 37.5t72.5 105.5l122 -41 q-39 -109 -117 -165.5t-201 -56.5q-71 0 -128.5 23t-100.5 62.5t-71.5 93.5t-41.5 116h-89l10 71h69q-1 9 -1 18.5v18.5v31h-59l10 71h58q12 66 39.5 122.5t71 98t102 65.5t132.5 24q60 0 111.5 -16t92.5 -45.5t70.5 -72t44.5 -94.5z"/>
<glyph glyph-name="trademark" horiz-adv-x="802" unicode="™" d="M318 713h-110v-323h-68v323h-110v67h288v-67zM752 390h-69v302l-123 -184l-122 185v-303h-67v390h93l96 -145l97 145h95v-390z"/>
<glyph glyph-name="arrowleft" horiz-adv-x="1318" unicode="←" d="M1298 280h-850l212 -213h-322l-318 318l318 320h321l-211 -212h850v-213z"/>
<glyph glyph-name="arrowup" horiz-adv-x="678" unicode="↑" d="M658 188l-212 212v-688h-213v688l-213 -213v324l318 319l320 -319v-323z"/>
<glyph glyph-name="arrowright" horiz-adv-x="1318" unicode="→" d="M1298 385l-318 -318h-323l213 213h-850v213h850l-211 212h321z"/>
<glyph glyph-name="arrowdown" horiz-adv-x="1395" unicode="↓" d="M1375 488l-678 -479l-677 479l517 -121v201h321v-201z"/>
<glyph glyph-name="partialdiff" horiz-adv-x="555" unicode="∂" d="M361 238q0 18 -5.5 40.5t-16.5 42t-28.5 33t-42.5 13.5q-27 0 -45.5 -13t-30 -32.5t-16 -43t-4.5 -43.5q0 -18 5.5 -42t17.5 -45t30 -35.5t43 -14.5q27 0 45 15t28.5 36.5t15 45.5t4.5 43zM495 356q0 -62 -11 -128t-38 -120.5t-73 -90t-116 -35.5q-51 0 -90.5 20.5 t-66.5 56t-41 82t-14 98.5q0 45 14.5 89.5t42 80t67.5 57t90 21.5q22 0 46.5 -8t59.5 -33q-3 24 -8.5 63t-17.5 76t-32.5 63.5t-53.5 26.5q-24 0 -37 -9t-26 -27l-77 77q26 43 62 60.5t75 17.5q46 0 82.5 -21.5t63.5 -56.5t46 -80.5t31 -94.5t17 -97t5 -88z"/>
<glyph glyph-name="product" horiz-adv-x="785" unicode="∏" d="M730 606h-78v-752h-132v752h-255v-752h-131v752h-79v111h675v-111z"/>
<glyph glyph-name="summation" horiz-adv-x="651" unicode="∑" d="M601 -146h-551v107l278 331l-268 315v110h528v-123h-353l256 -301l-265 -316h375v-123z"/>
<glyph glyph-name="minus" horiz-adv-x="539" unicode="−" d="M499 202h-459v103h459v-103z"/>
<glyph glyph-name="radical" horiz-adv-x="615" unicode="√" d="M645 930l-304 -948h-80l-135 421l-82 -54l-39 78l185 111l115 -366l243 758h97z"/>
<glyph glyph-name="infinity" horiz-adv-x="714" unicode="∞" d="M314 364q-8 16 -19.5 34t-25.5 33t-30.5 25t-33.5 10q-20 0 -34 -10t-23.5 -25.5t-14 -34.5t-4.5 -36q0 -19 4.5 -39t14.5 -36.5t25 -27t36 -10.5q14 0 31.5 12.5t33.5 30.5t27 38.5t13 35.5zM584 360q0 17 -4.5 36t-14 34.5t-23.5 25.5t-33 10q-17 0 -33.5 -10 t-30.5 -25t-25.5 -33t-19.5 -34q1 -15 12.5 -35.5t27 -38.5t33.5 -30.5t32 -12.5q21 0 36 10.5t24.5 27t14 36.5t4.5 39zM666 358q0 -38 -10 -74t-29.5 -64t-49 -45.5t-68.5 -17.5q-53 0 -87 28t-65 81q-32 -53 -66 -81t-86 -28q-40 0 -69.5 17.5t-49 46t-29 65t-9.5 74.5 q0 37 10 72.5t30 64t49 46t68 17.5q51 0 85.5 -29t66.5 -83q31 54 66 83t86 29q39 0 68.5 -17.5t49 -46t29.5 -65t10 -73.5z"/>
<glyph glyph-name="approxequal" horiz-adv-x="535" unicode="≈" d="M505 426l-152 -171l152 -170l-80 -81l-153 170l-153 -170l-79 81l152 170l-152 171l79 80l153 -171l152 171z"/>
<glyph glyph-name="notequal" horiz-adv-x="545" unicode="≠" d="M505 426l-152 -171l152 -170l-80 -81l-153 170l-153 -170l-79 81l152 170l-152 171l79 80l153 -171l152 171z"/>
<glyph glyph-name="lessequal" horiz-adv-x="698" unicode="≤" d="M647 -1h-597v105h597v-105zM648 203l-598 245v82l598 245v-115l-442 -171l442 -172v-114z"/>
<glyph glyph-name="greaterequal" horiz-adv-x="695" unicode="≥" d="M647 -1h-597v105h597v-105zM648 447l-598 -245v114l442 172l-442 171v115l598 -245v-82z"/>
<glyph glyph-name="lozenge" horiz-adv-x="630" unicode="◊" d="M478 381l-163 259l-163 -259l163 -268zM585 381l-270 -432l-270 432l271 418z"/>
</font>
</defs>
</svg>
