<?xml version="1.0" encoding="utf-8"?>
<!-- Generator: Adobe Illustrator 19.0.0, SVG Export Plug-In . SVG Version: 6.00 Build 0)  -->
<!DOCTYPE svg PUBLIC "-//W3C//DTD SVG 1.1//EN" "http://www.w3.org/Graphics/SVG/1.1/DTD/svg11.dtd">
<svg version="1.1" id="Layer_1" xmlns="http://www.w3.org/2000/svg" xmlns:xlink="http://www.w3.org/1999/xlink" x="0px" y="0px"
	 viewBox="-439 462.2 61.1 39" style="enable-background:new -439 462.2 61.1 39;" xml:space="preserve">
<style type="text/css">
	.st0{clip-path:url(#SVGID_2_);fill:#FFFFFF;}
	.st1{fill:#FFFFFF;}
</style>
<g>
	<g>
		<defs>
			<path id="SVGID_1_" d="M-413.7,488.5l0.1-0.1L-413.7,488.5 M-413.9,488.2L-413.9,488.2L-413.9,488.2 M-413,488.1v0.4h0.1
				C-413,488.3-412.9,488.2-413,488.1 M-415.1,487.6c0.1,0.1-0.1,0.2,0,0.2V487.6 M-413.7,487.4l0.1,0.1L-413.7,487.4L-413.7,487.4
				 M-412.2,487.4L-412.2,487.4l0.1,0.1l0.1-0.1H-412.2 M-413.1,487.2l0.1,0.1L-413.1,487.2 M-413.3,487.2c-0.1,0.1,0,0.1,0,0.1
				V487.2 M-412.4,487.2L-412.4,487.2L-412.4,487.2 M-413,487l0.1,0.1C-412.8,487.1-412.8,487-413,487
				C-412.8,487.1-412.9,487-413,487C-412.9,487.1-412.9,487-413,487 M-413.5,487C-413.4,487-413.4,487-413.5,487 M-412.6,486.9
				l-0.1,0.1L-412.6,486.9L-412.6,486.9 M-410.8,486.8v0.1V486.8c0,0.1-0.1,0.2-0.1,0.2h0.1c0,0,0-0.1,0,0V486.8 M-413.4,486.9
				l0.1-0.1L-413.4,486.9 M-413.3,486.6C-413.2,486.6-413.3,486.7-413.3,486.6L-413.3,486.6L-413.3,486.6 M-414.5,486.7h-0.1v-0.1
				c0,0.1-0.2,0.4-0.3,0.3C-414.9,487.2-414.5,486.7-414.5,486.7l0.1-0.1L-414.5,486.7 M-412.1,486.5l-0.1,0.1c0,0.2,0.1,0.1,0.2,0
				L-412.1,486.5 M-411.6,486.5h0.1v-0.1L-411.6,486.5l0.1-0.1L-411.6,486.5 M-404.8,486.5l-0.1,0.1l0.1,0.1V486.5L-404.8,486.5
				c0,0.2,0,0.3,0.1,0.2h-0.1V486.5l0.1,0.2l0.1-0.1v0.1C-404.6,486.6-404.5,486.4-404.8,486.5
				C-404.6,486.4-404.7,486.5-404.8,486.5C-404.7,486.5-404.8,486.4-404.8,486.5L-404.8,486.5 M-415.4,486.3
				C-415.5,486.2-415.4,486.4-415.4,486.3 M-411.2,486.2C-411.1,486.3-411.2,486.2-411.2,486.2v-0.1V486.2 M-410.9,486L-410.9,486
				h0.1H-410.9 M-407.5,486l0.1,0.1c0.1,0,0.1,0,0.1-0.1h0.1v-0.1L-407.5,486 M-403,486L-403,486L-403,486L-403,486 M-409.2,486.2
				l0.2-0.1h-0.2V486V486.2 M-407.5,486.1v-0.2C-407.5,485.9-407.6,486.1-407.5,486.1 M-411.1,486.1v0.2c0-0.1,0.1-0.1,0.1-0.2
				H-411.1v-0.2V486.1v-0.2V486.1v-0.2V486.1 M-414.2,485.9v0.2V485.9 M-407.4,485.8v0.1V485.8l0.1,0.1L-407.4,485.8 M-405.1,485.8
				c0,0.1,0.1,0.3,0.1,0.3h0.2L-405.1,485.8L-405.1,485.8L-405.1,485.8 M-404.9,485.7C-405.1,485.8-404.9,485.7-404.9,485.7
				 M-414,485.7L-414,485.7c-0.1,0.1-0.2,0.3-0.2,0.3l0.1-0.1C-414.1,485.8-414,485.8-414,485.7h0.3H-414 M-404.8,485.7l0.1,0.2v0.1
				L-404.8,485.7l0.1,0.1C-404.7,485.6-404.7,485.7-404.8,485.7l0.1-0.1L-404.8,485.7 M-405.2,485.6v0.3l0.1,0.1L-405.2,485.6
				 M-405,485.5l0.1,0.1v-0.1C-404.9,485.5-404.9,485.6-405,485.5 M-408.7,485.5C-408.8,485.6-408.7,485.6-408.7,485.5L-408.7,485.5
				l0.1,0.1L-408.7,485.5 M-407.5,485.8l0.1-0.1l-0.2-0.1C-407.6,485.7-407.6,485.8-407.5,485.8 M-405.3,485.6l-0.1-0.2
				L-405.3,485.6 M-406.5,485.5h0.1H-406.5 M-410.7,485.4l0.2,0.1v-0.2l-0.2-0.1V485.4 M-409.2,485.2v0.2V485.2 M-414.8,485.2v0.2
				V485.2v0.2V485.2 M-410.4,485.2h-0.1C-410.3,485.4-410.4,485.3-410.4,485.2 M-415.4,485.2C-415.4,485.1-415.3,485.2-415.4,485.2
				 M-414.7,485.1C-414.7,485.1-414.9,485.2-414.7,485.1 M-416,485.1c0,0.1-0.2,0.1-0.1,0.1l0.1,0.1V485.1l0.1,0.1L-416,485.1
				l0.1,0.1L-416,485.1 M-405.5,485l0.1,0.1v0.1c0.1,0-0.1,0,0,0.1h0.1c0,0.2,0,0.1,0.1,0.1l0.1,0.1v-0.2v0.1l-0.3-0.2L-405.5,485
				L-405.5,485 M-414.5,485.1V485C-414.7,485-414.6,485.1-414.5,485.1 M-409.1,485.1C-409.2,485.1-409.1,485.1-409.1,485.1
				C-409.2,485.1-409.5,485.2-409.1,485.1l0.1-0.1v-0.2L-409.1,485.1 M-413.4,485h0.1H-413.4 M-406,484.7v0.1V484.7L-406,484.7
				 M-413.8,484.8l-0.2,0.2h0.1l0.1,0.2h0.1l0.1-0.1C-413.7,485.2-413.7,484.9-413.8,484.8l0.1,0.1
				C-413.6,484.8-413.7,484.7-413.8,484.8 M-413.2,484.8v0.1V484.8l0.2-0.2h-0.3L-413.2,484.8 M-407,484.8l0.1,0.1v0.3v-0.1h0.1
				c0.1-0.1,0.2,0,0.2,0l0.1-0.1c-0.1,0,0,0,0,0L-407,484.8c0-0.2,0-0.3-0.1-0.3C-407.1,484.6-407.1,484.7-407,484.8 M-412,484.4
				c0,0.1,0,0.2-0.1,0.2c0,0.1,0.1,0.3,0.1,0.3h-0.1c0,0.1,0.1,0.1,0,0.2s0.1,0.1,0.2,0.2c0,0.1,0.4,0.3,0.5,0.1v-0.2
				c0,0.1,0.1-0.1,0.1-0.1c0,0.1,0.1-0.1,0.1-0.1v-0.1l-0.1,0.1c-0.1-0.1,0.1-0.2,0-0.2v-0.1c0,0.1,0.2-0.1,0.2-0.1l-0.1-0.1
				l0.1,0.1h-0.2l-0.3,0.4c0-0.2-0.1-0.3-0.2-0.4h0.1l-0.1-0.1h0.1l-0.1-0.1L-412,484.4 M-411.7,484.3v0.2h0.1v0.1
				c0-0.1,0.1-0.1,0.1-0.2L-411.7,484.3 M-406.8,484.2l0.1,0.1l0.1-0.1c-0.1,0.2,0.1,0.2,0.2,0.2v0.2v-0.1v0.1l0.1-0.1
				c0,0.1,0.1,0.1,0.1-0.1h-0.1l0.1-0.2h-0.1l-0.1-0.1c-0.1,0.1-0.1,0.1-0.1,0l-0.1,0.1c-0.1,0-0.2,0-0.2-0.1V484.2 M-407.7,484.1
				l0.1,0.1C-407.6,484-407.7,484.1-407.7,484.1 M-403.4,484C-403.4,484-403.5,484.1-403.4,484 M-406.9,484.1c0,0-0.2,0.1-0.1,0.1
				L-406.9,484.1v0.2C-406.9,484.6-406.6,484.3-406.9,484.1 M-408.2,484c0,0.2,0.1,0.1,0.1,0.2l0.3-0.2c-0.1,0-0.2-0.1-0.3-0.1
				L-408.2,484 M-403.3,484.1L-403.3,484.1C-403.3,484-403.4,484.1-403.3,484.1 M-415.8,483.7C-415.7,483.7-415.7,483.7-415.8,483.7
				 M-415.6,483.7L-415.6,483.7L-415.6,483.7 M-412.1,483.6l-0.1,0.1L-412.1,483.6L-412.1,483.6 M-409.3,483.5L-409.3,483.5
				L-409.3,483.5 M-415.7,483.4l0.2,0.1l-0.1,0.1l0.1,0.1l0.1-0.1v-0.1l-0.2-0.2L-415.7,483.4 M-411.7,483.2h0.1H-411.7l0.2,0.1
				l-0.1-0.1H-411.7 M-412.4,483.2l0.1,0.1v-0.1H-412.4 M-412,483.3C-412.1,483.3-412.1,483.4-412,483.3v0.2l0.1,0.1h0.1l0.1-0.1
				c0,0-0.1,0.2,0,0v0.1h0.2c0-0.2-0.2-0.1-0.2-0.2c0.1-0.1-0.1-0.1-0.2-0.1H-412l0.2-0.1C-411.8,483.1-412.2,483.2-412,483.3
				 M-408.6,483.2v0.1V483.2 M-408.7,483.2c0-0.1,0.1-0.2,0-0.1V483.2V483h-0.1C-408.8,483.2-408.7,483.2-408.7,483.2 M-411.4,483.1
				h-0.1H-411.4C-411.4,483-411.5,483-411.4,483.1 M-408.2,483c0,0-0.1,0.2-0.1,0.3L-408.2,483L-408.2,483 M-410.5,483
				c0,0.1-0.2,0.1-0.2,0.2l0.1,0.1v0.1l-0.2,0.2l0.3,0.1l0.1-0.1l0.1,0.1h0.2l0.1,0.1c0-0.1,0-0.3-0.1-0.3v0.1v-0.4v0.1
				c0,0-0.1-0.1,0-0.1h-0.3C-410.3,483.2-410.4,483-410.5,483C-410.6,483.1-410.4,483-410.5,483 M-409,483
				C-409.1,483.1-409,483-409,483 M-410.4,483l0.1,0.1C-410.2,483-410.3,483-410.4,483 M-411,482.9L-411,482.9L-411,482.9v0.3h0.1
				c0-0.1,0-0.1,0,0l-0.1-0.1C-410.9,483.1-411,483-411,482.9 M-412.4,482.9c-0.2,0.1,0,0.2,0,0.2V482.9 M-409.3,482.9
				C-409.3,483-409.3,483.2-409.3,482.9l0.1,0.2L-409.3,482.9 M-409.1,482.8c0,0,0,0.3,0.1,0.2c0.1,0.1,0.1,0.2,0.2,0.2l-0.1-0.1
				l0.1-0.1v-0.1c0,0-0.1,0.1,0,0h-0.1c0.1,0,0,0,0,0S-408.9,482.8-409.1,482.8 M-411.3,482.7L-411.3,482.7L-411.3,482.7
				 M-408.7,482.6L-408.7,482.6L-408.7,482.6 M-412.1,482.6C-412.1,482.7-412.1,482.6-412.1,482.6 M-408.1,482.7
				c0,0.1,0.2,0.3,0.2,0.4v0.1V483v0.1v-0.5C-408,482.8-408,482.7-408.1,482.7l0.1-0.2L-408.1,482.7 M-415,482.6h0.1H-415
				 M-409.3,482.6l0.2,0.1l0.1-0.1v-0.1h-0.1l-0.1-0.1L-409.3,482.6 M-407.8,482.5h0.3C-407.5,482.4-407.6,482.4-407.8,482.5
				L-407.8,482.5 M-407.5,482.4l0.1,0.1L-407.5,482.4 M-408.9,482.4L-408.9,482.4L-408.9,482.4 M-408.1,482.3l0.1,0.1L-408.1,482.3
				 M-409.1,482.4v-0.1C-409.2,482.4-409.2,482.4-409.1,482.4 M-408.2,482.4l0.1-0.1L-408.2,482.4 M-408.6,482.2L-408.6,482.2
				c-0.1,0.2-0.2,0.2-0.2,0.3c0,0,0.2,0,0,0.1l0.2-0.1V482.2 M-411.6,482.2c0-0.1-0.1,0-0.1,0.1L-411.6,482.2c0.1,0.1,0.1,0.2,0.1,0
				H-411.6 M-408.5,482.1C-408.5,482.1-408.6,482.3-408.5,482.1 M-408.9,482.1l0.1,0.1L-408.9,482.1L-408.9,482.1 M-407.6,482.1
				c0.1,0.1,0.1,0,0.1,0.1v-0.1H-407.6 M-407.7,481.8L-407.7,481.8L-407.7,481.8L-407.7,481.8 M-409.1,481.7
				C-409.2,481.7-409.2,481.7-409.1,481.7C-409.3,481.9-409.1,481.7-409.1,481.7 M-409,481.8C-409,481.8-409.1,481.8-409,481.8
				 M-406.2,481.7v0.2V481.7 M-413.1,481.6C-413.1,481.5-413,481.5-413.1,481.6L-413.1,481.6 M-408.5,481.5l0.2,0.1v-0.1H-408.5
				L-408.5,481.5L-408.5,481.5 M-412.7,481.5C-412.7,481.6-412.7,481.6-412.7,481.5l0.1-0.2L-412.7,481.5 M-406,481.4v0.2h-0.1v-0.1
				C-406.1,481.5-405.9,481.6-406,481.4L-406,481.4c0.2-0.1,0.1-0.2,0-0.2V481.4 M-407,482.6C-407,482.7-407,482.6-407,482.6
				 M-406.9,482.2l0.1,0.1C-406.9,482.4-406.9,482.3-406.9,482.2v0.1V482.2C-406.8,482.2-406.8,482.2-406.9,482.2 M-407.9,481.4
				l-0.1-0.1l0.3,0.3c0-0.2,0.3,0.2,0.3,0.2l0.1-0.2h0.1v0.1l-0.1,0.1v0.1v-0.1v0.1c0-0.1,0.1,0.1,0.1,0.1h-0.1
				c0,0.1,0.2,0.2,0.1,0.3h-0.1l-0.1,0.1c-0.1,0.3-0.1,0.1-0.2,0.1v-0.1h-0.1v0.4c0,0,0.2,0,0.1-0.1l0.1-0.1c0,0.1,0.1,0.1,0.1,0
				l0.1,0.2v0.1l0.3,0.1c0,0,0.4-0.4,0.2-0.5v-0.1h-0.1c0,0-0.1,0.1-0.1,0c0.1,0,0.1-0.2,0.1-0.2v-0.1h-0.1c0.2,0-0.1-0.3-0.2-0.2
				c0,0,0-0.4-0.2-0.3l-0.2-0.1l-0.1-0.2c-0.1,0,0.1,0.2,0,0.2C-407.7,481.4-407.8,481.4-407.9,481.4L-407.9,481.4l0.1,0.1
				L-407.9,481.4v0.2l-0.1-0.2C-408,481.5-408,481.4-407.9,481.4h-0.2C-407.8,481.2-407.9,481.3-407.9,481.4 M-408.8,481.3
				L-408.8,481.3L-408.8,481.3 M-406.3,481.3L-406.3,481.3L-406.3,481.3 M-408.7,481.2v0.1C-408.6,481.2-408.7,481.2-408.7,481.2
				 M-406.6,481.2v0.2h0.1c0,0.1,0,0.2,0.1,0c0,0.1,0,0.1,0.1,0.1h-0.1c0.1,0,0.3-0.1,0.3-0.2s-0.2,0-0.3,0v-0.1h-0.1
				c0-0.2-0.1-0.1-0.1-0.1V481.2l0.1-0.1L-406.6,481.2 M-413.5,481.2v-0.1V481.2 M-406.3,481L-406.3,481
				C-406.3,481.1-406.2,481-406.3,481 M-412.7,481L-412.7,481L-412.7,481 M-406.5,481C-406.5,481-406.4,481.1-406.5,481 M-411.6,481
				l0.1-0.1L-411.6,481 M-411.7,481.6C-411.6,481.7-411.7,481.6-411.7,481.6 M-411.5,481.2h-0.2c-0.1-0.2-0.1,0.2-0.1,0.2l-0.1,0.1
				h-0.1l0.1,0.1h-0.2v0.1h-0.1c0,0,0,0.3,0.1,0.1v0.1c-0.1-0.1-0.2,0.1-0.2,0.2v0.1l-0.2-0.1v0.1h-0.1v-0.1c-0.1,0-0.1,0.2-0.2,0.1
				v0.2h0.1v0.1h0.1v0.2l0.2,0.1h-0.1l0.2-0.3v-0.1c0,0.1,0.1,0,0.1-0.1l0.3-0.1c-0.1-0.1,0-0.1,0-0.3c0.2,0,0.1,0.1,0.1,0.1
				c0.1,0,0,0,0.1-0.1h0.1v-0.1h0.2c0.1-0.3-0.1-0.4,0.1-0.4c0-0.1,0-0.2,0.1-0.1v0.1c0.2,0,0-0.2,0-0.2h0.2l0.1-0.1
				c-0.1,0-0.1-0.1-0.1-0.2C-411.3,480.9-411.5,481.2-411.5,481.2 M-413,480.9c0,0,0.1,0.1,0,0.2V480.9v0.3c0.1,0.2,0.2,0,0.1-0.2
				C-412.9,481-412.9,480.8-413,480.9 M-411.4,480.8C-411.4,480.9-411.4,480.9-411.4,480.8L-411.4,480.8L-411.4,480.8 M-405.9,480.7
				l0.1,0.2v-0.1h0.1v-0.1H-405.9 M-413.2,480.6c-0.2,0.1,0.1,0.4,0.1,0.3l-0.1-0.1h0.1L-413.2,480.6 M-413.2,480.5
				C-413.2,480.6-413.1,480.5-413.2,480.5 M-411.5,480.3l-0.1,0.1L-411.5,480.3C-411.6,480.3-411.6,480.4-411.5,480.3l-0.1,0.2v0.1
				h-0.1c0,0.1-0.1,0.2-0.1,0.1c-0.1,0-0.3,0.2-0.2,0.3c0.2,0,0.2-0.1,0.3-0.3l-0.1,0.1l0.1-0.1l0.2-0.1l-0.1-0.1v-0.1l0.2-0.2
				C-411.4,480.3-411.5,480.3-411.5,480.3 M-411.9,480.3c0.1,0.1,0,0.1,0,0.2h0.2c0.2-0.1,0-0.2,0.1-0.3L-411.9,480.3 M-412.5,480.1
				l-0.1,0.1L-412.5,480.1L-412.5,480.1C-412.3,480.2-412.6,480.2-412.5,480.1h0.1H-412.5 M-409.8,480.1l-0.2,0.2h0.1
				C-409.8,480.3-409.8,480.2-409.8,480.1 M-411.3,480C-411.3,480.1-411.2,480.1-411.3,480L-411.3,480 M-407.6,479.9L-407.6,479.9
				L-407.6,479.9 M-406.3,479.8l0.1-0.1l-0.1-0.1V479.8 M-406.7,479.7l0.1,0.1L-406.7,479.7 M-409.9,479.7l0.1,0.1L-409.9,479.7
				 M-409.1,479.7v0.1l-0.1,0.1v0.1h0.1v-0.1C-408.9,479.8-409,479.7-409.1,479.7 M-406.9,479.8v-0.2V479.8 M-409.9,479.7
				C-410,479.6-410,479.7-409.9,479.7 M-405.1,479.7C-405.1,479.7-405,479.7-405.1,479.7h0.2l-0.1,0.2l0.1,0.1
				c-0.1,0-0.1-0.1-0.2-0.1v0.1c0.1,0,0.1,0.1,0.2,0.1l0.3-0.1c0-0.1,0-0.1-0.1,0v-0.2l-0.1-0.1l-0.2-0.1L-405.1,479.7
				 M-405.4,479.6c0.1,0.1,0,0.2,0.1,0.2L-405.4,479.6 M-406.5,479.6c0,0,0,0.1,0.1,0.1L-406.5,479.6 M-405.1,479.5
				C-405.2,479.6-405.1,479.7-405.1,479.5 M-405.9,479.7C-405.9,479.8-406,479.7-405.9,479.7l-0.1,0.2v0.1h0.2L-405.9,479.7
				c0.1,0.2,0.2,0.2,0.2,0.3l0.1-0.1c-0.1,0,0.1,0.1,0.2,0.1h0.2v0.1c0-0.2-0.1-0.1-0.1-0.1v-0.1l-0.1,0.1l-0.1-0.2h-0.1
				c0-0.1,0-0.1,0.1-0.1h-0.1c-0.1,0-0.1,0-0.2-0.1L-405.9,479.7 M-409.7,479.6L-409.7,479.6L-409.7,479.6 M-407.9,479.5
				L-407.9,479.5L-407.9,479.5 M-408.1,479.5L-408.1,479.5L-408.1,479.5 M-406.1,479.5v0.3l0.1-0.1c0,0.1,0.1-0.1,0.1-0.1
				L-406.1,479.5 M-410.5,479.3v0.2h-0.2v-0.1l-0.1,0.2h-0.1c0,0.1,0.2,0.3,0.3,0.2c0.1,0.2,0.5-0.1,0.3-0.1v-0.1h-0.1
				c0.1,0,0-0.1,0-0.1L-410.5,479.3 M-406.9,479.3v0.1l0.1,0.1c0,0,0.2,0,0-0.1L-406.9,479.3 M-408.4,479.5L-408.4,479.5
				L-408.4,479.5h-0.2v0.1h-0.1v0.1h0.2L-408.4,479.5C-408.4,479.4-408.5,479.3-408.4,479.5 M-407,479.4
				C-406.8,479.4-407,479.4-407,479.4 M-409.7,479.3v0.1V479.3 M-411.9,479.4c0.1,0.1,0.1,0,0.1-0.1L-411.9,479.4 M-406.9,479.3
				C-407,479.3-406.9,479.3-406.9,479.3 M-404.2,479.2L-404.2,479.2L-404.2,479.2C-404.2,479.3-404.1,479.1-404.2,479.2 M-407,479
				c0.1,0.1,0.2,0.3,0.3,0.1h-0.1L-407,479 M-408.6,479l0.1,0.1v-0.2L-408.6,479 M-408.8,479L-408.8,479L-408.8,479 M-407.5,479
				l0.2,0.1v0.1h-0.1c-0.3-0.6,0,0,0,0.1h-0.1l0.1,0.1v-0.1l0.1-0.1v0.2l0.1-0.1l0.2,0.1h-0.1c0.1-0.2-0.2-0.2-0.2-0.2
				c0-0.2,0.1-0.4-0.1-0.4v-0.1l-0.2-0.1C-407.5,478.8-407.5,478.9-407.5,479 M-407.7,478.7l0.1-0.1L-407.7,478.7 M-407.6,478.6
				C-407.6,478.7-407.5,478.7-407.6,478.6 M-407.7,478.6L-407.7,478.6L-407.7,478.6 M-410,478.5L-410,478.5L-410,478.5
				 M-407.7,478.5C-407.6,478.4-407.6,478.4-407.7,478.5L-407.7,478.5C-407.7,478.4-407.8,478.5-407.7,478.5 M-408.9,478.5v0.3
				l0.1-0.1v0.1l0.2-0.1l0.2-0.1c0-0.2-0.1-0.2-0.1-0.2h-0.1c-0.1,0,0,0,0-0.1C-408.8,478.2-408.9,478.4-408.9,478.5 M-404.6,478.2
				L-404.6,478.2L-404.6,478.2L-404.6,478.2 M-411.4,478.1C-411.5,478.2-411.4,478.3-411.4,478.1 M-411.4,478v0.2
				C-411.3,478.2-411.2,478-411.4,478 M-409.8,478.1V478V478.1 M-408.4,478.1L-408.4,478.1L-408.4,478.1v0.2c0,0.1,0.1,0.1,0.2,0.1
				h0.1v-0.3l-0.1-0.1C-408.3,478-408.4,478.1-408.4,478.1 M-408.5,477.9C-408.5,477.9-408.5,478.1-408.5,477.9 M-411.7,478.1
				L-411.7,478.1c0.1,0,0.1,0.1,0.1,0.2L-411.7,478.1c-0.1-0.1,0-0.1,0-0.2h-0.1C-411.7,477.9-411.7,478-411.7,478.1 M-408.3,477.9
				v-0.1V477.9 M-411.2,477.8l0.1,0.1h0.1C-411.1,477.7-411.1,477.7-411.2,477.8 M-413.9,477.8C-413.9,477.8-413.9,478-413.9,477.8
				l0.1-0.1L-413.9,477.8 M-413.8,477.9l0.1-0.2L-413.8,477.9 M-409.3,477.7L-409.3,477.7L-409.3,477.7l0.1,0.2l0.1-0.1
				c0,0,0.1,0.3,0.2,0.1c-0.1-0.1-0.1-0.2-0.2-0.1v-0.1H-409.3 M-411.6,477.5v0.3c0.1,0.1,0,0.2,0.1,0v0.1c0.2,0-0.1-0.3,0-0.3v0.1
				l0.1-0.1l-0.1,0.1c0-0.1,0.1-0.1,0.1-0.1C-411.5,477.5-411.5,477.7-411.6,477.5 M-406.9,477.5h0.1l-0.1-0.2V477.5 M-405.7,477.4
				L-405.7,477.4L-405.7,477.4 M-404.7,477.4v-0.2V477.4 M-411.4,477.3c0.1,0-0.1,0.2,0,0.2l0.1-0.1v0.1
				C-411.3,477.3-411.4,477.3-411.4,477.3 M-414.1,477l0.1-0.1C-414.1,476.9-414.1,476.9-414.1,477 M-405.8,477h-0.1H-405.8
				L-405.8,477L-405.8,477L-405.8,477l0.1,0.2h-0.2c0.1,0.1,0.2,0.2,0.3,0.2l0.1,0.1h0.2l0.1-0.1v-0.2h-0.5L-405.8,477
				C-405.9,477.1-405.7,477-405.8,477C-405.6,476.8-405.8,476.9-405.8,477 M-410.5,477l0.1,0.1L-410.5,477 M-410.7,476.8l-0.1,0.1
				h-0.2l0.1-0.1l-0.1,0.2h-0.1c0.1,0,0-0.1,0.1-0.1c0-0.1-0.1-0.1-0.1-0.1v0.3l-0.2,0.1v0.1h-0.1c0,0.2,0.1,0.2,0.2,0.2h0.1v-0.1
				h0.2v0.2c0.1,0.2,0,0.2-0.1,0.2v0.1l0.1,0.1l-0.2,0.2h0.2c0.1,0.1,0.1,0.1,0.3,0c0.1,0,0.4-0.3,0.4-0.1l0.1-0.1l0.2,0.1v-0.3
				c0.2,0.3,0.2-0.4,0.2-0.4c0-0.1-0.2-0.1-0.2-0.1h-0.2c0.1-0.1,0-0.1,0-0.2c0,0-0.3,0.1-0.2,0h0.1l-0.1-0.1
				c-0.1-0.1-0.1-0.1-0.2-0.3h0.1v-0.1L-410.7,476.8 M-410,476.6v0.2h0.1L-410,476.6 M-406.1,477.3
				C-406.4,477.2-406.1,477.2-406.1,477.3L-406.1,477.3 M-406.2,476.7h-0.3v0.2h-0.1v-0.1l-0.1-0.2h-0.1c0.1,0.1,0,0.2,0,0.3h0.1
				c0,0.1,0.1,0,0.2,0h-0.1c0,0.1,0.1,0,0.1,0.1h-0.1l0.1,0.1h-0.1l-0.1-0.1v-0.1l-0.1,0.1l0.2,0.2v-0.1v0.1h0.2c0,0.2,0.1,0,0.2,0
				c0,0.1,0.1,0.2,0,0.3h0.3c0.1,0.2,0.3,0,0.3,0v0.1v-0.1c-0.1,0.1-0.2-0.1-0.3-0.2l-0.1-0.1V477l-0.1,0.1V477l0.1,0.1v-0.2v0.1
				h-0.1v-0.2L-406.2,476.7l0.1,0.1c0-0.1,0.1-0.2,0-0.3L-406.2,476.7 M-411,476.7v-0.1V476.7 M-411,476.6l0.1,0.2L-411,476.6h0.2
				v0.1l0.1-0.1H-411 M-407,476.5c-0.1-0.1-0.1,0-0.1-0.1h-0.1l-0.2,0.2v0.1l0.1,0.1v-0.1v0.1l0.1-0.1l-0.1,0.1
				c0.1,0,0.1-0.1,0.1-0.2v-0.1C-406.9,476.7-406.9,476.6-407,476.5v-0.2C-407,476.4-406.9,476.5-407,476.5 M-410.5,476.4l0.1,0.1
				h0.1v-0.1l0.1,0.1v0.1h-0.1v0.1c0.1-0.2,0.3-0.1,0.3,0.1v-0.2c0,0.1,0,0,0,0v-0.1h-0.2v-0.1c0,0.1,0.1,0,0.1,0H-410.5
				 M-411.1,476.4l0.1-0.1L-411.1,476.4 M-404.4,476.4c-0.2,0.1,0.2,0.2,0.3,0.2L-404.4,476.4h0.2H-404.4c0.1,0.1-0.1-0.2,0-0.2
				h-0.2C-404.6,476.4-404.5,476.4-404.4,476.4 M-411.7,476.2C-411.7,476.4-411.6,476.2-411.7,476.2 M-411.5,476.3h-0.1v0.1
				c-0.1-0.1-0.2,0-0.2-0.1h-0.1v0.2l-0.1,0.1c-0.1,0.3,0.2,0.1,0.4,0.2v-0.1l0.1-0.2l0.1-0.1L-411.5,476.3l0.1,0.1L-411.5,476.3
				c0.1,0,0.2,0.1,0.2-0.1h-0.1c0,0-0.1,0-0.1-0.1V476.3 M-407.2,476.2L-407.2,476.2L-407.2,476.2 M-406.7,476.1
				c0,0.3,0.3,0.1,0.3,0.1h-0.1L-406.7,476.1 M-405.9,476.1l-0.2,0.2v0.2h-0.1c0.1,0,0,0,0,0l0.2,0.4c0-0.1,0-0.3,0.1-0.2v0.1
				c0.1,0,0.2-0.1,0.2-0.2v0.1l0.1-0.1v-0.5h-0.1c0,0.1,0.1,0.2,0.1,0.3c0,0-0.1-0.3-0.2-0.2L-405.9,476.1L-405.9,476.1
				L-405.9,476.1L-405.9,476.1C-405.9,476.1-405.8,476.1-405.9,476.1C-405.8,476-405.9,476.1-405.9,476.1 M-406.1,476
				c0,0,0.1,0.1,0.1-0.1L-406.1,476 M-409.3,475.8c-0.1,0.2-0.1,0.2,0,0.2c0,0-0.1,0.1,0,0.2C-409.3,476-409.2,475.9-409.3,475.8
				 M-410.1,475.8l-0.1,0.1L-410.1,475.8c-0.2,0-0.1,0.2-0.1,0.1l-0.1,0.1h0.4v0.1v-0.2C-409.8,475.9-410,475.9-410.1,475.8
				C-409.9,475.8-410.1,475.8-410.1,475.8 M-403.8,475.8C-403.8,476-403.7,475.8-403.8,475.8L-403.8,475.8L-403.8,475.8
				 M-410.2,475.5L-410.2,475.5L-410.2,475.5 M-409.8,475.4L-409.8,475.4L-409.8,475.4C-409.9,475.6-409.7,475.6-409.8,475.4
				l0.1,0.2c0.1,0,0.1,0,0.1-0.1L-409.8,475.4L-409.8,475.4L-409.8,475.4L-409.8,475.4L-409.8,475.4L-409.8,475.4l0.1-0.1h-0.1
				V475.4 M-408.2,475.4c0.1-0.1-0.2-0.1-0.2,0l-0.1-0.1v0.1l-0.1-0.1v0.1c0,0,0.2,0.3,0.3,0.2c0-0.2,0.3-0.1,0.3-0.1l0.1,0.1
				l0.1,0.1v0.1l-0.2-0.1l-0.1,0.1l0.2,0.2c0,0.1,0.1,0.1,0,0.1v0.1h-0.1c0,0.1,0.1,0.1,0.1-0.1c0.1,0,0.1-0.3,0.2-0.4v0.1
				c0,0.1,0,0.1-0.1,0.2l0.1-0.1h0.1v-0.1h-0.1c0.1,0-0.3-0.4-0.2-0.5l-0.1,0.1v-0.2L-408.2,475.4 M-410,475.3L-410,475.3l0.1,0.2
				h0.1h-0.1C-409.8,475.4-410,475.2-410,475.3 M-408.8,475.5h-0.2v-0.2c0,0,0-0.1-0.1,0l-0.2,0.2v0.1v-0.1c0,0.1,0.1,0.2,0.2,0
				c0,0.1,0,0.2,0.1,0.1c-0.1,0.1,0.1,0.2,0.1,0.2v0.1v-0.1l0.2,0.1C-408.7,475.8-408.8,475.5-408.8,475.5L-408.8,475.5
				L-408.8,475.5c0.1,0,0-0.1,0.1-0.2l-0.1-0.1V475.5 M-410.6,475.1L-410.6,475.1c-0.1,0.1,0,0.1,0.1,0.2v0.1
				c0.1-0.1,0.1-0.1,0.1-0.2c0-0.1-0.1-0.1-0.1-0.1H-410.6 M-409.9,474.9L-409.9,474.9L-409.9,474.9 M-410.7,474.7h0.1H-410.7
				 M-408.6,474.7l-0.1,0.1h0.1C-408.7,474.7-408.5,474.7-408.6,474.7L-408.6,474.7 M-408.8,474.6L-408.8,474.6l-0.2,0.1v0.2
				c0.1,0,0.2,0.2,0.2,0V474.6l0.1,0.2L-408.8,474.6L-408.8,474.6 M-407.5,473.9h0.2C-407.3,473.8-407.4,473.9-407.5,473.9
				L-407.5,473.9L-407.5,473.9L-407.5,473.9 M-409.8,473.9L-409.8,473.9c0.2,0,0.2-0.2,0.2-0.2h-0.1
				C-409.8,473.7-409.8,473.8-409.8,473.9 M-407.7,473.8v0.2V473.8L-407.7,473.8L-407.7,473.8c0,0,0.1-0.1,0-0.1V473.8
				 M-409.9,473.6C-409.8,473.6-409.8,473.7-409.9,473.6 M-408.6,473.5C-408.7,473.6-408.6,473.5-408.6,473.5 M-409.8,473.6
				L-409.8,473.6v-0.1C-409.8,473.4-409.9,473.6-409.8,473.6 M-409,473.4L-409,473.4L-409,473.4L-409,473.4c0,0-0.1,0.2-0.2,0.3h0.1
				h-0.1h0.1v-0.1v0.1h0.1h-0.1h0.1v-0.1l0.2-0.1v-0.1L-409,473.4 M-408.5,473.3c0-0.1-0.1,0-0.1,0.1L-408.5,473.3
				c0.1,0.1,0,0.3,0.1,0.2c0,0.1,0.1,0.2,0.1,0.1c0.1,0,0.1,0,0.2-0.1v0.1h0.1l0.1-0.1h-0.2c0,0,0-0.1-0.1-0.2l0.1,0.1h-0.2v-0.1
				v0.1L-408.5,473.3C-408.5,473.4-408.5,473.4-408.5,473.3 M-406.9,473.2C-406.9,473.3-406.9,473.2-406.9,473.2 M-408.6,473.2v-0.1
				V473.2 M-410.7,473l-0.1,0.2L-410.7,473v0.2V473 M-406.8,473C-406.5,473.1-406.7,473-406.8,473L-406.8,473L-406.8,473
				 M-409.4,472.9l-0.1,0.1L-409.4,472.9L-409.4,472.9l-0.2,0.2l0.1-0.1L-409.4,472.9L-409.4,472.9h0.2
				C-409.2,472.9-409.4,473-409.4,472.9 M-409.3,472.8l0.1,0.1v0.1l0.1-0.1c-0.1,0,0,0-0.1,0.1
				C-409.2,472.8-409.1,472.8-409.3,472.8 M-407.2,472.8L-407.2,472.8L-407.2,472.8 M-409.1,472.7v0.1V472.7 M-408.8,472.7
				c0,0.1,0.1,0,0.2,0H-408.8 M-409.7,471.2c-0.3,0.2-0.1,0.3-0.1,0.2L-409.7,471.2L-409.7,471.2v0.1V471.2 M-407,471.2v0.2
				c0-0.1,0.1-0.2,0.1-0.3L-407,471.2 M-410.4,471l-0.1,0.1c0,0.1,0.1,0.1,0.1,0.1V471 M-410,471L-410,471L-410,471 M-410.7,470.9
				L-410.7,470.9L-410.7,470.9 M-409.8,470.7v0.2c0,0.1,0.1,0,0.1,0L-409.8,470.7L-409.8,470.7c0,0.1,0.2,0,0.2,0
				C-409.7,470.7-409.7,470.6-409.8,470.7 M-411.2,470.9L-411.2,470.9L-411.2,470.9 M-410.5,470.7c0.1,0.1,0,0.1,0,0.1v0.1h0.1
				l-0.1,0.1c0.3-0.1,0-0.1,0.1-0.2l-0.1,0.1V470.7 M-411.8,470.6C-411.7,470.6-411.8,470.6-411.8,470.6 M-408.6,470.5
				c-0.1,0.1,0,0.1-0.1,0.1c0,0,0.1,0.2,0.1,0.1l-0.1-0.1L-408.6,470.5 M-409.8,470.4L-409.8,470.4L-409.8,470.4v0.2
				C-409.9,470.5-409.8,470.4-409.8,470.4l-0.1,0.2L-409.8,470.4L-409.8,470.4 M-411.6,470.4L-411.6,470.4l-0.1,0.2
				c0,0-0.1,0.1,0,0.1v0.1v-0.1l0.1,0.2c0.1-0.2,0,0.2,0.1,0.2l0.1-0.1v0.1V471h-0.1l0.1-0.1v-0.1v0.1l-0.1-0.1
				c-0.1-0.1,0.1-0.1,0.1-0.2L-411.6,470.4 M-410.7,470.3C-410.6,470.3-410.7,470.4-410.7,470.3 M-411.8,470
				C-412,470-411.7,470.1-411.8,470 M-408.8,470C-408.8,470.1-408.7,470.2-408.8,470C-408.8,470-408.8,470.1-408.8,470
				 M-410.7,469.7l0.1,0.2l0.1-0.1c0.1,0.1,0.2,0,0.2,0.2h-0.1v0.1h-0.1c0.1,0.1,0.1,0.2,0,0.2v0.1l0.3-0.1l-0.2-0.1
				c0.1,0,0.1-0.2,0-0.3l-0.1-0.1v-0.1v0.1v-0.1L-410.7,469.7 M-410.5,469.6C-410.5,469.5-410.7,469.6-410.5,469.6 M-410.7,469.4
				L-410.7,469.4L-410.7,469.4 M-410.3,469.2C-410.3,469.4-410.2,469.2-410.3,469.2 M-405.3,487.6L-405.3,487.6L-405.3,487.6
				 M-403.2,484.6C-403.2,484.5-403.2,484.5-403.2,484.6 M-409.8,467.3v-3.5c0-0.4-0.3-0.7-0.7-0.7h-8.2c-0.4,0-0.7,0.3-0.7,0.7
				v18.4c0,0.5-0.4,0.6-0.6,0.2l-7.2-17.4l-0.3-0.7c-0.5-1.1-0.5-1.2-1.9-1.2h-8.9c-0.4,0-0.7,0.3-0.7,0.7v36.4
				c0,0.4,0.3,0.7,0.7,0.7h7.8c0.4,0,0.7-0.3,0.7-0.7v-18.4c0-0.5,0.4-0.6,0.6-0.2l7.2,17.4l0.3,0.7c0.2,0.7,0.9,1.2,1.6,1.2h5.5
				c2.3,0,4.2-1.9,4.2-4.2v-9.5c-0.1,0-0.2-0.1-0.3-0.1l-0.1-0.1l0.1,0.2h-0.2v-0.1v0.1l0.1-0.1h-0.2c0,0.2,0,0.3,0.1,0.2h0.1
				l0.1,0.1h-0.1l0.1,0.1c0,0-0.2,0-0.2-0.1v0.2v-0.1l-0.1,0.1l-0.1,0.1c-0.1,0.2,0,0.2,0,0.2h-0.3c-0.2,0-0.3,0.1-0.5,0.1l0.1-0.1
				l-0.1,0.1l-0.2-0.1h0.1c-0.1-0.1,0-0.3-0.2-0.3v0.2l-0.1-0.2l-0.1,0.1l-0.2,0.5v-0.1l0.1,0.1h-0.1l0.1,0.1l-0.1,0.4v-0.1
				c-0.2,0-0.2,0-0.2,0.2h-0.1v-0.1l-0.1,0.2h-0.1c0-0.1,0.1-0.3,0.1-0.4h-0.1l-0.2,0.2v-0.1l-0.1,0.3l-0.2,0.1v-0.1h-0.1
				c0,0.3,0.2,0.2,0,0.2l-0.1,0.1c-0.1,0.1-0.1,0.3-0.2,0.1c-0.1-0.2,0-0.3,0-0.3c0.1,0,0.1-0.3,0.2-0.4l-0.1,0.1v0.1v-0.1h-0.1
				c0,0-0.1-0.2-0.2-0.2c0-0.2-0.2-0.2-0.2-0.3l0.1-0.1l-0.1-0.2c0,0,0.1-0.1,0.2,0.1v-0.1c0.1-0.1,0.1-0.5,0.3-0.4
				c-0.2-0.2,0-0.4,0.1-0.5c0-0.1,0-0.5,0.2-0.3v-0.1h0.1v-0.1h0.1l-0.1-0.1l0.1-0.1h0.1h-0.3v-0.1v0.1v-0.2l0.3,0.1
				c0.1-0.1,0-0.2,0-0.2c0-0.1,0-0.2,0.1-0.3v0.1v-0.2v0.1l-0.1,0.1l-0.2,0.2v-0.1l-0.1,0.2h-0.1l-0.3,0.3v-0.1
				c-0.1,0.1-0.2,0.5-0.2,0.3l0.1,0.1c-0.1,0-0.2,0.1-0.1,0.2c-0.1-0.1,0,0.3-0.2,0.3c-0.1,0-0.1,0.2-0.2,0.3l-0.1-0.3h-0.1v0.1
				h-0.1c0,0.2-0.1,0.1-0.1,0.1h0.2v0.1l0.1-0.1v0.1h-0.1v0.1v-0.1v0.1h-0.2v-0.2h-0.1c0.1,0.1-0.1,0-0.1-0.1l-0.1-0.1l0.1-0.1h0.1
				v-0.2l0.1-0.2h0.1l0.1-0.1l-0.2,0.5l0.1-0.1l-0.1-0.3l-0.2,0.2c-0.2,0.2-0.4,0.3-0.3,0h0.1c0-0.1-0.2-0.4-0.1-0.4
				c-0.4-0.3,0-0.3,0.1-0.3c0,0,0.1-0.3,0.2-0.1c0.1-0.2,0.3-0.1,0.4,0h-0.1l0.1,0.2v-0.1l0.2-0.1h-0.1c0-0.1,0.1-0.1,0.1,0h0.1
				h-0.1c0,0,0.4-0.2,0.4-0.3l-0.1,0.1c0-0.1,0.1-0.1,0.1-0.1v-0.1h0.1v0.1c0.2-0.2,0.4,0,0.4-0.3h0.1v0.2l0.1-0.2
				c0.1,0.1,0.2-0.1,0.2-0.2c-0.2,0.1-0.5-0.1-0.6-0.1v-0.1h-0.2c0.1,0.1,0,0.1,0,0.2l0.1,0.1h-0.1l-0.2,0.1v-0.1h-0.1
				c0-0.1,0,0,0,0v-0.1c0,0-0.1,0,0,0.1h-0.1l0.2,0.1c0.1,0.1,0,0.3-0.1,0.1v-0.1l-0.1,0.1l0.1,0.2h-0.1l0.1-0.1l-0.1,0.1v0.2h-0.2
				c-0.1,0,0-0.3,0.1-0.3c0,0-0.1-0.3-0.1-0.1h0.1h-0.1v0.2v-0.1c0,0-0.2,0.1-0.1,0.1h-0.1v-0.2v0.1h-0.2c0,0.1-0.1,0-0.1,0.1v0.1
				l0.1,0.1c-0.1,0.1-0.1,0.2-0.2,0.3h-0.2l0.1-0.1h-0.4v-0.1v0.2v-0.1h0.1c0,0.1-0.2,0.2-0.2,0.2c0.1,0,0.1,0.1,0,0.2h-0.2v-0.3
				l0.1,0.1l-0.1-0.2h-0.1c0,0,0-0.2-0.1-0.1c0-0.1,0.1-0.1,0.1-0.1h0.1l-0.1-0.1h0.1c-0.1,0.1,0.1,0,0.1,0h-0.1
				c0.1-0.1,0-0.1,0-0.2c0,0.1,0.1,0.1,0.2,0.1v0.1v-0.1c0.1,0,0.2,0,0.2-0.1h0.1l-0.1-0.1l0.1-0.1h0.1h-0.1v-0.2v0.1
				c0,0.1-0.1,0.1-0.1,0.1h-0.1l0.1-0.1l-0.1,0.1h0.1v0.1c-0.1-0.1-0.2,0-0.2,0.1h-0.1c0-0.1-0.2-0.2,0-0.2c0-0.1-0.3-0.3-0.2-0.4
				c0-0.1-0.1-0.4-0.2-0.6h0.1c0-0.1,0.4-0.6,0.4-0.8h0.1c0,0,0-0.4,0.2-0.2h-0.1h0.1v-0.3l-0.1,0.1c0-0.1-0.2-0.2-0.2-0.4
				c0.2,0,0.3,0,0.4-0.1c0-0.2-0.1-0.1-0.1-0.2h0.1v-0.1c0.2,0.1,0.1,0,0.3,0.2c0.1,0.1,0.1,0,0.1-0.1h0.1v-0.4
				c0.2-0.1,0.2-0.3,0.2-0.5c-0.1-0.2,0.1-0.2,0.1-0.3c0,0,0.2,0.1,0.1-0.1v-0.1c-0.2,0.2,0.1-0.1,0-0.2h0.1c0,0,0.1,0.2,0.2,0.1
				c-0.1-0.1,0-0.1,0-0.2h0.1c-0.1,0.1,0.3,0.3,0.4,0.3v0.1h-0.2l0.1,0.1c0-0.1,0-0.1,0.1-0.1v-0.1h-0.1V481l0.1,0.1h0.1V481h0.1
				v0.1c0,0,0.1,0,0.1-0.1h-0.1c0.1,0,0.2,0.1,0.1-0.1h0.1c-0.1-0.1,0.1-0.1,0.2-0.1c0-0.1-0.2-0.2-0.2-0.1l0.1-0.1
				c0-0.1-0.1,0.1-0.1,0.1v-0.1h-0.1v0.2v-0.1v0.1h-0.2l-0.1,0.2c0,0.1-0.1-0.2-0.1-0.4c-0.1-0.2-0.1-0.5,0-0.3c0-0.1,0-0.2-0.1-0.2
				c-0.1,0-0.1,0-0.1-0.2h0.3h-0.1l0.3-0.3h0.1c0-0.2,0.3-0.1,0.3,0c0.1-0.1,0.5-0.1,0.6-0.1c0-0.1,0.1-0.3,0.1-0.2h0.1V479l0.3-0.2
				h-0.1h0.3l0.1-0.1h0.1v-0.1c0-0.1-0.2-0.1-0.3-0.1h0.1c0-0.2-0.3-0.3-0.2-0.2v-0.1v0.2c-0.1-0.1,0,0-0.1,0.1
				c-0.1,0-0.2-0.3-0.2-0.4c0.1,0,0.2-0.2,0.1-0.2v-0.1c0,0,0.3-0.4,0.4-0.6l0.1-0.1l0.1-0.1c-0.1-0.1,0,0-0.1-0.2h-0.1l0.1-0.1
				h-0.1c-0.1,0-0.2-0.1-0.3,0.1l0.1,0.1h-0.2v-0.1l-0.1,0.1v0.2c0-0.1-0.2,0-0.2,0.1c0,0.1-0.3,0.1-0.3,0h0.2c-0.1,0,0.1-0.3,0-0.3
				v-0.1l-0.2,0.1c0.2,0,0,0.2-0.1,0.3h-0.2v0.2h-0.2c0,0,0-0.2-0.1-0.1v0.1c0-0.2-0.4,0.2-0.2,0.2c0.1,0.1-0.2,0.1-0.2,0.1v0.1
				l0.1-0.1v0.1v-0.1v0.1h-0.1l-0.1,0.1v0.2h-0.2c0.1,0,0.1-0.2,0.1-0.2h-0.1c0,0.3-0.2,0.2-0.2,0.1l-0.1,0.1h0.1l-0.1-0.1v0.2
				c0-0.1,0-0.2,0.1-0.2l-0.3,0.1l0.1,0.1h-0.2l-0.2-0.2l-0.1,0.1c-0.1-0.1,0.1-0.5,0.1-0.7v0.1c0-0.2,0-0.4,0.1-0.4l0.1-0.2
				c0.2,0,0.2,0.1,0.3,0.2c-0.1-0.1,0,0,0,0h0.2c0,0,0-0.1-0.1-0.1h-0.2l-0.1-0.1l0.1-0.1v-0.5c-0.1,0,0,0.1,0,0.1
				c-0.2-0.3-0.1-0.3,0-0.5h0.3v-0.4l0.1-0.1c0.1,0,0.1,0.1,0.1,0.2l0.2-0.1c0.1-0.1,0.2-0.1,0.2,0.1l0.1-0.2v0.1c0,0,0.1-0.2,0-0.2
				v0.1c0-0.2-0.2-0.3-0.1-0.5l0.2-0.3c0.1-0.1,0.2-0.1,0.4-0.3h-0.1h0.3l0.1-0.1c0,0.1,0.1,0.2,0.1,0.2v-0.1c0.1,0.1,0.1,0,0.1,0
				c0-0.1,0.4-0.2,0.4-0.2v-0.4v0.1l0.1-0.1l0.2-0.1c0-0.1,0.2-0.1,0.2-0.3l0.1,0.1l-0.1-0.2h0.1v0.1h0.1c0,0,0-0.1,0,0v0.1l0.1,0.1
				v-0.1c0-0.1-0.1-0.2,0-0.3c0,0-0.5,0.2-0.6,0.2l-0.1-0.1c0,0-0.5,0.3-0.6,0.1h0.1l-0.3-0.1v0.1v-0.5c0.1-0.1,0.3,0,0.3-0.2
				c0,0,0.3,0,0.3,0.2c0.3-0.5,0.3-0.4,0.3-0.6c0,0,0.2-0.1-0.1,0l-0.1,0.1V472l0.1,0.1l0.1-0.2v0.1v-0.1v0.1v-0.3l0.1,0.2l0.1-0.4
				h0.3l-0.1,0.1h0.2l-0.1-0.1l-0.1-0.1c0.1,0,0,0,0-0.1s-0.1-0.1-0.1-0.1s-0.3-0.1-0.3-0.3c0.1,0.2,0.1-0.2,0.1-0.2
				c0,0.1-0.1,0.1-0.2,0h-0.1c0-0.1,0-0.2,0.1-0.3h-0.1c0-0.1,0-0.2-0.1-0.3c0.2,0,0-0.3-0.1-0.3c-0.1-0.3,0.2-0.2,0.3-0.4h-0.1
				c0-0.2,0.3-0.4,0.5-0.4l0.2,0.2h0.1c-0.2,0-0.2-0.4-0.1-0.5c0.2,0,0.5-0.3,0.7-0.3l0.1,0.1c0.1,0.1,0.2,0.2,0.2,0.1v0.1
				c0-0.1,0.4-0.1,0.3,0.2c0,0,0.1,0,0.1,0.1l0.1-0.1c0.1,0,0.5,0,0.5,0.1l0.1-0.2c0-0.1,0.1-0.2,0.1-0.2v0.1h0.1v-0.1v0.1h0.3
				c0.1,0,0.3,0,0.3-0.1c0,0.3,0.2,0.2,0.2,0.4v-0.1v0.1v-0.1l0.1,0.1c0,0-0.1,0.1,0,0.2c-0.1,0.1,0,0.2,0,0.3v-0.1l-0.1,0.2
				c-0.1-0.1-0.2,0-0.3,0c0,0.2,0.2,0.3-0.1,0.4h0.1h-0.1c0,0,0.6,0.5,0.2,0.5c0,0,0.3,0.2,0.3,0l0.3-0.3v0.1c0.1,0,0.1-0.3,0.1-0.3
				h0.1c0.1-0.1,0.2-0.1,0.2,0.1c0.1-0.1,0.1-0.1,0-0.2v-0.2l0.2-0.1v0.3c0,0-0.1,0.2,0,0.3c0,0,0.4-0.2,0.2-0.3h0.3
				c0.1,0.1,0.2,0.2,0.1,0.4c0,0-0.1,0.2-0.2,0.3h0.1c0,0-0.1,0,0,0.2l0.1-0.1v0.2c0,0.2,0.2,0,0.2,0.3c0-0.1,0.1,0.3,0.1,0.4
				l0.1-0.1c0.1,0.2,0,0.3-0.1,0.4c0.1,0.1,0.1,0.1,0.1,0.3v0.1l0.2,0.1c0.1,0,0,0.1,0.1,0.2c0,0.2-0.1,0.2-0.1,0.2l-0.3,0.6
				l-0.3-0.2v0.1h0.1v0.3c0,0.1,0.2,0,0.2-0.2l0.1,0.1c0-0.2,0.1-0.1,0.2-0.2c0.1,0.1,0.3,0,0.2,0c0.1-0.2,0.2-0.1,0.4-0.1v0.1
				l0.1-0.1h0.1c0,0.2,0.1,0.2,0.2,0c0.2,0,0,0.5,0.1,0.6c0,0.1,0,0,0,0v0.2h0.2l-0.1,0.2l-0.2,0.2l0.1,0.2c-0.1,0,0,0.1-0.1,0.2
				c-0.2-0.5-0.2-0.3-0.1-0.2v0.1c0-0.1,0.1-0.1-0.1-0.1l-0.1,0.1c-0.2,0,0,0.2,0,0.3c0.1-0.2,0.2-0.1,0.3-0.1h0.2
				c0,0.1,0.1,0,0.2,0h0.1v0.1c0.1-0.1,0.3,0,0.3-0.4c0.1,0,0.1,0,0.2-0.1v0.1h0.1v0.1h0.1v0.2c0,0,0,0.1-0.1,0.2
				c0,0.1-0.1,0.2-0.2,0.2c0.1,0.1,0,0,0,0.1l0.2,0.1c0.1,0.1,0.2,0.2,0.3-0.1l0.3-0.2l0.1,0.2l0.1-0.1v0.1v-0.1h0.1l-0.1,0.4
				l-0.1-0.1l-0.1,0.1h-0.1v0.1l-0.1,0.1h0.1c0,0.2,0.2,0.2,0.3,0.3c0,0.3-0.1,0.3-0.3,0.4h0.1c0-0.2-0.1,0-0.1,0
				c-0.1,0.1-0.2,0.3-0.4,0.3v0.2V477v0.4c0,0-0.1-0.2-0.1,0.1l-0.1-0.3v0.2c0-0.1-0.1-0.1-0.2-0.1c0.1,0.1,0,0.1,0.1,0.3h-0.2v-0.2
				v0.1v-0.2l-0.2,0.2l-0.1-0.2v0.2l0.1,0.1v-0.1l0.1,0.1l0.1-0.1v0.1h0.1c0,0,0.1,0.1,0,0h0.1v0.1l0.2-0.1v0.2
				c0.1-0.1,0.1,0,0.3,0.1l0.1-0.1c0,0.2,0,0.3-0.2,0.3c0.1,0.1-0.2,0.2-0.2,0.2c-0.1,0-0.1-0.1-0.1,0.1h-0.2v0.1h-0.1v0.1v-0.1
				c0,0,0.1,0.1,0.1,0c0.2,0.1-0.3,0.3,0.3,0.1l0.1,0.1l0.1,0.1l-0.1,0.4h0.1h-0.1v0.3c0.2-0.1,0.1,0.2,0,0.2v0.2
				c0.5,0.1-0.3,0.7-0.2,0.5v-0.3h-0.2c-0.3,0,0-0.1-0.1-0.2h-0.1v0.1h-0.1c0.1,0,0.1,0,0.1,0.1c-0.1,0-0.2,0-0.1,0.1h-0.1h0.1h-0.1
				c-0.1,0,0.1,0.2,0.2,0.1l0.1,0.2v0.1c0.1-0.2,0.1,0,0.2,0.1v-0.1c0,0-0.1,0.3-0.2,0.2l0.1,0.1c-0.1,0-0.2,0.1-0.1,0.1
				c0.1-0.1,0.1,0.1,0.1,0.2h-0.6V481h-0.1v-0.1l-0.1,0.1h0.1l-0.3,0.2v0.1h-0.1v0.1c0,0,0-0.2-0.1,0h-0.1v0.1h0.1v0.2h-0.1
				l-0.2,0.3h0.1h-0.2c0,0,0.1-0.1,0.1,0v0.1c0.1,0.1,0.1,0.2,0.2,0.1v0.1c0.1,0,0-0.2,0.1-0.1c0,0,0.1,0.3,0.1,0.1v0.1
				c0,0,0.4,0,0.3,0.2v0.1l0.1-0.1c0.1,0,0.4,0,0.5-0.1c0,0.1,0.1,0.1,0.2,0v0.2l0.1-0.2c0,0.2,0.1-0.1,0.2-0.1h0.1v0.4l0.1-0.1v0.2
				l-0.1,0.1h0.1v0.2l0.2,0.2c0.1-0.1-0.1-0.1,0.1-0.1c0,0.1,0.1,0,0.1-0.1v0.1h0.3c0.1,0-0.1,0.1,0,0v-0.1h0.1v0.1
				c0,0.1,0.2,0,0.1,0.1v-0.1l0.3,0.5v-0.1v0.2c-0.2,0.3-0.1,0.3-0.3,0.3h-0.1h0.1h-0.1c-0.1,0-0.1,0.1-0.3,0
				c-0.1,0-0.2,0.1-0.2,0.2v0.2c0,0-0.2,0.2-0.2,0.1v0.1l-0.1,0.1c0,0,0.2,0.1,0.2,0l0.1-0.1c0.1-0.1,0.1-0.2,0.2,0.1
				c0,0,0.1-0.2,0.1,0c0-0.1,0.1-0.1,0.1,0h0.1v-0.1v0.1v-0.1l0.1,0.1l0.2-0.1v0.1c0.1-0.2,0.4-0.4,0.5-0.4c0,0.2,0.3,0.1,0.2,0h0.2
				v0.5c-0.2,0-0.4,0-0.5,0.2h-0.2v0.2l-0.1,0.1v0.2h0.1v0.2l0.2,0.2v0.1v-0.1h-0.5l-0.3,0.3h-0.1l-0.1,0.1v-0.1h-0.2
				c-0.1,0.1-0.3,0.2-0.4,0.3l-0.1-0.2l-0.1-0.1l-0.1,0.1l-0.1,0.2v0.1l-0.1,0.1c0.1-0.1,0.1,0,0.1,0l-0.1,0.1v-0.1l-0.1-0.1v0.1
				l-0.1,0.1l-0.1-0.1h0.1h-0.1c0-0.1,0,0,0.1-0.1l-0.1-0.1c0,0.3-0.1,0.2,0.1,0.4h-0.2h0.1v0.1c-0.1,0,0,0.1,0,0.2v-0.1l-0.1,0.2
				c0.2,0.1,0.2,0.1,0.1,0.1l-0.2-0.1l-0.4-0.3c0.1-0.2,0-0.1,0-0.2c0-0.1-0.1-0.1,0.1-0.2v-0.1l-0.1,0.1v-0.1
				c-0.1,0-0.3-0.1-0.3-0.2h0.1v-0.1h0.1v-0.1l0.1,0.1l0.1,0.1v0.1c0.1-0.1,0-0.2,0-0.3h-0.1v-0.1v0.1l-0.1,0.1l0.1,0.1h-0.1v-0.1
				c0,0-0.1-0.1-0.1,0v-0.2l0.2-0.1h-0.1l0.1-0.1v-0.2c0.1-0.2-0.2-0.2-0.1-0.2h-0.1v-0.2c0.1,0,0.1-0.1,0-0.1v0.1
				c-0.1-0.2,0-0.1,0-0.4h-0.1l0.1,0.1c-0.1,0-0.5-0.2-0.4-0.4v0.1c0.1-0.1,0-0.1,0-0.1v-0.1l-0.2,0.2l0.1,0.3l-0.1,0.2h-0.1
				c0,0-0.5,0.3-0.4,0.1h-0.3c0-0.1-0.3-0.1-0.3,0v0.1h0.1l0.1,0.1l-0.1,0.1c0,0,0.1,0.1,0.1,0.2c0.2,0,0.3,0.1,0.6,0.2V486l0.1,0.1
				v0.1h0.3c-0.1,0.1,0.2,0.1,0.2,0.1l-0.1,0.2c0.1-0.1,0.3,0.2,0.1,0.2c0-0.1-0.1-0.2-0.2-0.2v-0.2l-0.1,0.1c0-0.1,0,0-0.1,0.1
				v-0.1l-0.2-0.1h-0.2h0.1h-0.1c0-0.1-0.1-0.1-0.2-0.1h0.1v0.1c0-0.1,0-0.2-0.2-0.2h-0.1v0.1h-0.1v0.1l-0.2,0.2
				c-0.1-0.2-0.3-0.2-0.4-0.1v-0.1l-0.2-0.1h-0.1v-0.1v0.1v-0.1l-0.3-0.1h-0.2h0.1l-0.2-0.1v0.2l-0.1,0.1v-0.1h-0.2v0.1h-0.1v0.2
				h0.1v0.1h-0.1c0,0.1,0,0.1,0.1,0.1l0.1,0.1h-0.1h0.2c0.1,0.1-0.1,0.2,0.1,0.3l-0.2,0.2l-0.1-0.1h-0.1V487l-0.1,0.1l-0.1,0.1v9.8
				c0,2.3,1.9,4.2,4.2,4.2h8.5c8.8,0,11.9-4.1,13-8c0.4-1.6,0.6-3.2,0.6-4.3v0.2v-2.4c0-0.4-0.3-0.7-0.7-0.7h-7.8
				c-0.4,0-0.7,0.3-0.7,0.7v0.3c0,3.6-0.5,5.2-4.3,5.2c-4,0-4.3-2.5-4.3-6.5v-7.6c0-4,0.3-6.5,4.2-6.5h0.1c3.9,0,4.3,1.6,4.3,5.4
				v0.4c0.1,0.3,0.4,0.6,0.7,0.6h7.7c0.3,0,0.6-0.2,0.7-0.5v-2.1c0-1-0.1-3.1-0.5-4.7c-1-3.8-3.9-7.9-12.3-8.1h-2.4
				C-405,462.2-408.1,464.5-409.8,467.3"/>
		</defs>
		<clipPath id="SVGID_2_">
			<use xlink:href="#SVGID_1_"  style="overflow:visible;"/>
		</clipPath>
		<path class="st0" d="M-439,462.2h55.9V501H-439V462.2z"/>
	</g>
</g>
<g>
	<path class="st1" d="M-383.1,500.6l0.3-0.3c0.3,0.2,0.5,0.3,0.8,0.3s0.5-0.1,0.5-0.3l0,0c0-0.2-0.1-0.3-0.6-0.4
		c-0.6-0.1-0.9-0.3-0.9-0.8l0,0c0-0.5,0.4-0.8,0.9-0.8c0.4,0,0.7,0.1,1,0.3l-0.3,0.4c-0.2-0.2-0.5-0.3-0.7-0.3
		c-0.3,0-0.4,0.1-0.4,0.3l0,0c0,0.2,0.1,0.3,0.6,0.4c0.6,0.1,0.9,0.3,0.9,0.8l0,0c0,0.5-0.4,0.8-1,0.8
		C-382.4,501-382.8,500.9-383.1,500.6z"/>
	<path class="st1" d="M-380.5,498.3h0.5l0.8,1.3l0.8-1.3h0.5v2.7h-0.5v-2l-0.8,1.3l0,0l-0.8-1.2v1.9h-0.5V498.3z"/>
</g>
</svg>
