<?xml version="1.0" encoding="utf-8"?>
<!-- Generator: Adobe Illustrator 19.1.0, SVG Export Plug-In . SVG Version: 6.00 Build 0)  -->
<!DOCTYPE svg PUBLIC "-//W3C//DTD SVG 1.1//EN" "http://www.w3.org/Graphics/SVG/1.1/DTD/svg11.dtd">
<svg version="1.1" id="Layer_1" xmlns="http://www.w3.org/2000/svg" xmlns:xlink="http://www.w3.org/1999/xlink" x="0px" y="0px"
	 viewBox="-252 462.4 247 39" style="enable-background:new -252 462.4 247 39;" xml:space="preserve">
<style type="text/css">
	.st0{fill:#FFFFFF;}
	.st1{clip-path:url(#SVGID_2_);fill:#FFFFFF;}
</style>
<path class="st0" d="M-93.8,485.2c0.7-3,2.2-4.6,3.4-4.6c1.2,0,1.1,0.9,0.7,2.4l-0.6,2.8c-0.3,1.3,0,2.1,1.1,2.1
	c0.9,0,1.5-0.8,2.2-2l-0.3-0.2c-0.6,0.7-0.9,1.2-1.2,1.2c-0.4,0-0.3-0.5-0.2-0.7l0.8-3.3c0.6-2.5-0.2-3.7-1.8-3.7
	c-0.9,0-2.2,0.5-3.2,2H-93l0.2-0.8c0.3-1.1,0.2-1.2-0.2-1.2l-1.9,0.2l-0.1,0.2l0.5,0.5c0.1,0.1,0.2,0.3,0.1,0.6l-1.4,5.9
	c-0.1,0.3-0.1,0.6-0.3,0.7l-0.5,0.4v0.2h2c0.1,0,0.2-0.1,0.2-0.2L-93.8,485.2z M-99.3,482c-0.7,3-2.2,4.6-3.4,4.6s-1.8-1.5-1.1-3.5
	c0.5-1.5,1.9-2.9,3.5-2.9c0.5,0,1,0.1,1.4,0.2C-98.9,480.4-99.3,482-99.3,482z M-97.6,481.8c0.1-0.4,0.2-0.9,0.7-1.6l0.1-0.1
	c-1.2-0.6-2.6-0.9-3.3-0.9c-3.1,0-4.8,2.2-5.4,4.1c-0.8,2.8,0.6,4.7,2.2,4.7c1.1,0,2.2-0.5,3.3-2.2h0.1c-0.3,1.1-0.2,2.1,1,2.1
	c0.8,0,1.4-0.8,2.1-2l-0.3-0.2c-0.6,0.7-0.9,1.2-1.2,1.2c-0.4,0-0.3-0.5-0.2-0.7L-97.6,481.8L-97.6,481.8z M-118.8,487.8
	c0.1,0,0.2-0.1,0.2-0.2l0.8-3.5c0.5-2,1.8-3.6,2.8-3.6c0.8,0,1,0.5,0.7,1.6l-1.2,5.5c0,0.1,0,0.1,0.1,0.1h1.3c0.1,0,0.2-0.1,0.2-0.2
	l0.8-3.5c0.4-2,1.8-3.6,2.8-3.6c0.8,0,1,0.5,0.7,1.6l-0.8,3.6c-0.3,1.3,0,2.1,1.1,2.1c0.9,0,1.5-0.8,2.2-2l-0.3-0.2
	c-0.6,0.7-0.9,1.2-1.2,1.2c-0.4,0-0.3-0.5-0.2-0.7l0.8-3.5c0.6-2.5-0.3-3.5-1.6-3.5c-1,0-2,0.6-2.9,2l-0.1,0.2
	c0.2-1.3-0.3-2.2-1.7-2.2c-1,0-2,0.6-2.9,2l0.2-0.6c0.3-1.1,0.2-1.2-0.2-1.2l-1.9,0.2l-0.1,0.2l0.5,0.5c0.1,0.1,0.2,0.3,0.1,0.6
	l-1.4,5.9c-0.1,0.3-0.1,0.6-0.3,0.7l-0.5,0.4v0.2L-118.8,487.8L-118.8,487.8z M-123.5,482.1c-0.7,3-2.2,4.6-3.4,4.6
	s-1.1-0.9-0.7-2.4l0.9-3.8c0.3-1.1,0.2-1.2-0.2-1.2l-2.1,0.1l-0.1,0.2l0.5,0.5c0.1,0.1,0.2,0.3,0.1,0.6l-0.9,3.7
	c-0.6,2.5,0.2,3.7,1.8,3.7c1,0,2.2-0.6,3.3-2.2h0.1c-0.3,1.1-0.2,2.1,1,2.1c0.8,0,1.4-0.8,2.1-2l-0.3-0.2c-0.6,0.7-0.9,1.2-1.2,1.2
	c-0.4,0-0.3-0.5-0.2-0.7l1.6-7c0-0.1,0-0.1-0.1-0.1l-1.4,0.1c-0.1,0-0.2,0.1-0.2,0.2L-123.5,482.1L-123.5,482.1z M-133.4,482.4
	l-1,4.3l-0.3,0.6l-0.7,0.5c-0.1,0.1-0.1,0.2,0,0.2h3.4c0.1,0,0.1-0.1,0.1-0.2l-0.5-0.5c-0.1-0.2-0.2-0.3-0.2-0.6l2.1-9.3
	c0.1-0.2,0.2-0.4,0.4-0.6l0.7-0.5c0.1-0.1,0.1-0.2,0-0.2h-3.4c-0.1,0-0.1,0.1-0.1,0.2l0.5,0.5c0.1,0.1,0.2,0.3,0.1,0.6l-0.9,3.9
	h-5.5l0.9-3.9c0.1-0.2,0.2-0.4,0.4-0.6l0.7-0.5c0.1-0.1,0.1-0.2,0-0.2h-3.3c-0.1,0-0.1,0.1-0.1,0.2l0.5,0.5c0.1,0.1,0.2,0.3,0.1,0.6
	l-2.1,9.3c-0.1,0.2-0.2,0.4-0.4,0.6l-0.7,0.5c-0.1,0.1-0.1,0.2,0,0.2h3.4c0.1,0,0.1-0.1,0.1-0.2l-0.5-0.5c-0.1-0.2-0.2-0.3-0.1-0.6
	l1-4.3C-138.8,482.4-133.4,482.4-133.4,482.4z M-154.1,484.6c-0.1,2.1,1.3,3.4,3,3.4c1.3,0,2.8-0.7,4-2.5l-0.2-0.2
	c-1,1-2.2,1.5-3,1.5c-1.3,0-2.2-0.8-2-2.5c2.1-0.1,5.7-0.5,5.9-3c0.1-1.3-1.2-2.1-2.6-2.1C-151.3,479.2-153.9,481.3-154.1,484.6z
	 M-149.2,480.3c0.5,0,1.1,0.3,1.1,1c-0.1,1.2-1.7,2-4.1,2.1C-151.8,481.9-150.8,480.3-149.2,480.3z M-156.8,480.4h2.3l0.3-1h-2.4
	l0.5-2.3l-1.8,0.6l-0.2,1.7h-1.3l-0.3,1h1.3l-1.2,5.2c-0.3,1.5,0,2.4,1.2,2.4c1,0,1.7-0.9,2.5-2.3l-0.3-0.2
	c-0.8,1.1-1.2,1.6-1.6,1.6c-0.5,0-0.4-0.7-0.3-1L-156.8,480.4z M-163.8,482c-0.7,3-2.2,4.6-3.4,4.6s-1.8-1.5-1.1-3.5
	c0.5-1.5,1.9-2.9,3.5-2.9c0.5,0,1,0.1,1.4,0.2C-163.4,480.4-163.8,482-163.8,482z M-162.1,481.8c0.1-0.4,0.2-0.9,0.7-1.6l0.1-0.1
	c-1.2-0.6-2.6-0.9-3.3-0.9c-3.1,0-4.8,2.2-5.4,4.1c-0.8,2.8,0.6,4.7,2.2,4.7c1.1,0,2.2-0.5,3.3-2.2h0.1c-0.3,1.1-0.2,2.1,1,2.1
	c0.8,0,1.4-0.8,2.1-2l-0.3-0.2c-0.6,0.7-0.9,1.2-1.2,1.2c-0.4,0-0.3-0.5-0.2-0.7C-163,486.2-162.1,481.8-162.1,481.8z M-173,480.4
	h2.3l0.3-1h-2.4l0.5-2.3l-1.7,0.6l-0.3,1.7h-1.3l-0.3,1h1.3l-1.2,5.2c-0.3,1.5,0,2.4,1.2,2.4c1,0,1.7-0.9,2.5-2.3l-0.3-0.2
	c-0.8,1.1-1.2,1.6-1.6,1.6c-0.5,0-0.4-0.7-0.3-1L-173,480.4z M-180.2,476.8c1.5,0,2.2,0.9,2.2,2h0.2c0.4-0.6,0.8-1.7,0.9-2.3
	c-0.6-0.3-1.9-0.7-3-0.7c-2.4,0-3.9,1.2-4,2.7c-0.4,3.3,4.3,3.7,4,6.2c-0.2,1.3-1.3,2.2-2.7,2.2c-1.6,0-2.4-0.7-2.6-2.5h-0.3
	c-0.2,0.8-0.4,2.1-0.4,2.7c0.4,0.4,1.8,0.9,3.2,0.9c1.9,0,4.2-1,4.5-3.4c0.4-3.6-4.2-3.7-4-6.3
	C-182.1,477.4-181.2,476.8-180.2,476.8z M-77,477c1.1,0,2.3,0.5,1.9,2.8c-0.3,1.5-1.4,2.5-2.6,2.5c-0.5,0-1-0.1-1.3-0.2
	c0.5-2,1-4.4,1.2-5C-77.8,477-77.3,477-77,477L-77,477z M-76.7,475.9c-0.6,0,0.1,0-3,0.1l-0.2,0.3c0.3,0.6,0.1,1.8-0.5,4l-1.5,6.3
	c-0.1,0.2-0.2,0.4-0.4,0.6l-0.7,0.5c-0.1,0.1-0.1,0.2,0,0.2h3.4c0.1,0,0.1-0.1,0.1-0.2l-0.5-0.5c-0.1-0.2-0.2-0.3-0.1-0.6l0.8-3.6
	c0.5,0.1,0.8,0.2,1.2,0.2c0.3,1.3,0.7,3,1.5,4.2c1,1.4,3.1,0.7,3.8,0.4v-0.1c-0.9-0.2-1.6-0.5-2-1c-1.3-1.3-1.7-3-1.8-3.8
	c1.6-0.5,2.8-1.8,3.1-3.5C-73,476.9-74.9,475.9-76.7,475.9L-76.7,475.9z M-7.7,479.2c-1.4,0-2.9,0.6-3,2.3c-0.2,2.4,3.2,2.5,3.2,4.1
	c0,0.9-0.8,1.4-1.9,1.4c-1.2,0-2.1-0.6-2.2-2h-0.2c-0.1,0.4-0.2,1.1-0.3,1.7v0.6c0.6,0.4,1.6,0.7,2.7,0.7c2.2,0,3.5-1,3.6-2.5
	c0.1-2.5-3.4-2.4-3.3-4.2c0-0.6,0.5-1.2,1.4-1.2c1.1,0,1.8,0.6,1.8,1.7h0.2c0.3-0.5,0.6-1.3,0.7-1.9C-5.6,479.6-6.7,479.2-7.7,479.2
	z M-20.4,484.6c-0.1,2.1,1.3,3.4,3,3.4c1.3,0,2.8-0.7,4-2.5l-0.2-0.2c-1,1-2.2,1.5-3,1.5c-1.3,0-2.2-0.8-2-2.5
	c2.1-0.1,5.7-0.5,5.9-3c0.1-1.3-1.2-2.1-2.6-2.1C-17.6,479.2-20.1,481.3-20.4,484.6L-20.4,484.6z M-15.5,480.3c0.5,0,1.1,0.3,1.1,1
	c-0.1,1.2-1.7,2-4.1,2.1C-18.1,481.9-17,480.3-15.5,480.3z M-23.8,480.2c1.1,0,1.7,0.6,1.7,1.8h0.2c0.3-0.5,0.7-1.5,0.8-2.1
	c-0.6-0.4-1.6-0.7-2.5-0.7c-2.8,0-5.2,2.8-5.4,5.4c-0.2,2.2,1.3,3.4,3,3.4c1.4,0,2.8-0.7,4-2.5l-0.2-0.2c-1,1-2.2,1.6-3,1.6
	c-1.3,0-2.2-0.7-2-2.5C-27.1,482.5-25.7,480.2-23.8,480.2z M-30.1,481.3h0.2c0.3-0.6,0.7-1.4,0.8-2c-0.4-0.1-0.7-0.2-1.2-0.2
	c-0.9,0-2.1,0.5-3.2,2h-0.1l0.2-0.8c0.3-1.1,0.2-1.2-0.2-1.2l-1.9,0.2l-0.1,0.2l0.5,0.5c0.1,0.1,0.2,0.3,0.1,0.6l-1.4,6.2
	c-0.1,0.2-0.2,0.4-0.4,0.6l-0.4,0.3c-0.1,0.1-0.1,0.2,0,0.2h2.9l0.1-0.2l-0.5-0.5c-0.1-0.2-0.2-0.3-0.2-0.6l0.3-1.4
	c0.7-2.9,2.1-4.7,3.3-4.7C-30.7,480.5-30.2,480.7-30.1,481.3L-30.1,481.3z M-39.9,482.1c-0.7,3-2.2,4.6-3.4,4.6s-1.1-0.9-0.7-2.4
	l0.9-3.8c0.3-1.1,0.2-1.2-0.2-1.2l-2.1,0.2l-0.1,0.2l0.5,0.5c0.1,0.1,0.2,0.3,0.1,0.6l-0.9,3.7c-0.6,2.5,0.2,3.7,1.8,3.7
	c1,0,2.2-0.6,3.3-2.2h0.1c-0.3,1.1-0.2,2.1,1,2.1c0.8,0,1.4-0.8,2.1-2l-0.3-0.2c-0.6,0.7-0.9,1.2-1.2,1.2c-0.4,0-0.3-0.5-0.2-0.7
	l1.6-7c0-0.1,0-0.1-0.1-0.1l-1.4,0.1c-0.1,0-0.2,0.1-0.2,0.2L-39.9,482.1L-39.9,482.1z M-50.5,479.2c-2.6,0-4.8,2.8-4.9,5.4
	c-0.1,1.9,0.9,3.4,3.1,3.4c2.6,0,4.8-2.8,4.9-5.4C-47.2,480.8-48.3,479.2-50.5,479.2z M-52.3,487c-1.1,0-1.6-1-1.4-2.4
	c0.1-1.6,1.4-4.3,3.2-4.3c1.1,0,1.6,1,1.4,2.4C-49.2,484.2-50.4,487-52.3,487z M-59.1,479.2c-1.4,0-2.9,0.6-3,2.3
	c-0.2,2.4,3.2,2.5,3.2,4.1c0,0.9-0.8,1.4-1.9,1.4c-1.2,0-2.1-0.6-2.2-2h-0.2c-0.1,0.4-0.2,1.1-0.3,1.7v0.6c0.6,0.4,1.6,0.7,2.7,0.7
	c2.2,0,3.5-1,3.6-2.5c0.1-2.5-3.4-2.4-3.3-4.2c0-0.6,0.5-1.2,1.4-1.2c1.1,0,1.8,0.6,1.8,1.7h0.2c0.3-0.5,0.6-1.3,0.7-1.9
	C-57,479.6-58.1,479.2-59.1,479.2z M-71.7,484.6c-0.1,2.1,1.3,3.4,3,3.4c1.3,0,2.8-0.7,4-2.5l-0.2-0.2c-1,1-2.2,1.5-3,1.5
	c-1.3,0-2.2-0.8-2-2.5c2.1-0.1,5.7-0.5,5.9-3c0.1-1.3-1.2-2.1-2.6-2.1C-68.9,479.2-71.5,481.3-71.7,484.6L-71.7,484.6z M-66.8,480.3
	c0.5,0,1.1,0.3,1.1,1c-0.1,1.2-1.7,2-4.1,2.1C-69.4,481.9-68.4,480.3-66.8,480.3z M-226.7,488.7L-226.7,488.7L-226.7,488.7
	 M-226.9,488.4L-226.9,488.4L-226.9,488.4 M-226,488.3v0.4h0.1C-226,488.5-225.9,488.4-226,488.3 M-228.1,487.8
	c0.1,0.1-0.1,0.2,0,0.2V487.8 M-226.7,487.6L-226.7,487.6L-226.7,487.6L-226.7,487.6 M-225.2,487.6L-225.2,487.6L-225.2,487.6h0.2
	H-225.2 M-226.1,487.4l0.1,0.1L-226.1,487.4 M-226.3,487.4c-0.1,0.1,0,0.1,0,0.1V487.4 M-225.4,487.4L-225.4,487.4L-225.4,487.4
	 M-226,487.2l0.1,0.1C-225.8,487.3-225.8,487.2-226,487.2C-225.8,487.3-225.9,487.2-226,487.2C-225.9,487.3-225.9,487.2-226,487.2
	 M-226.5,487.2C-226.4,487.2-226.4,487.2-226.5,487.2 M-225.6,487.1L-225.6,487.1L-225.6,487.1L-225.6,487.1 M-223.8,487v0.1V487
	c0,0.1-0.1,0.2-0.1,0.2h0.1c0,0,0-0.1,0,0V487 M-226.4,487.1l0.1-0.1L-226.4,487.1z M-226.3,486.8
	C-226.2,486.8-226.3,486.9-226.3,486.8L-226.3,486.8L-226.3,486.8 M-227.5,486.9L-227.5,486.9l-0.1-0.1c0,0.1-0.2,0.4-0.3,0.3
	C-227.9,487.4-227.5,486.9-227.5,486.9l0.1-0.1L-227.5,486.9 M-225.1,486.7L-225.1,486.7C-225.2,487-225.1,486.9-225.1,486.7
	L-225.1,486.7 M-224.6,486.7L-224.6,486.7l0.1-0.1L-224.6,486.7l0.1-0.1L-224.6,486.7 M-217.8,486.7l-0.1,0.1l0.1,0.1V486.7
	L-217.8,486.7c0,0.2,0,0.3,0.1,0.2h-0.1V486.7l0.1,0.2l0.1-0.1v0.1C-217.6,486.8-217.5,486.6-217.8,486.7
	C-217.6,486.6-217.7,486.7-217.8,486.7C-217.7,486.7-217.8,486.6-217.8,486.7L-217.8,486.7 M-228.4,486.5
	C-228.5,486.4-228.4,486.6-228.4,486.5 M-224.2,486.4C-224.1,486.5-224.2,486.4-224.2,486.4v-0.1V486.4 M-223.9,486.2L-223.9,486.2
	L-223.9,486.2L-223.9,486.2 M-220.5,486.2L-220.5,486.2c0.2,0.1,0.2,0.1,0.2,0h0.1v-0.1L-220.5,486.2 M-216,486.2L-216,486.2
	L-216,486.2L-216,486.2 M-222.2,486.4l0.2-0.1h-0.2v-0.1V486.4 M-220.5,486.3v-0.2C-220.5,486.1-220.6,486.3-220.5,486.3
	 M-224.1,486.3v0.2C-224.1,486.4-224,486.4-224.1,486.3L-224.1,486.3v-0.2V486.3v-0.2V486.3v-0.2V486.3 M-227.2,486.1v0.2V486.1
	 M-220.4,486v0.1V486l0.1,0.1L-220.4,486 M-218.1,486c0,0.1,0.1,0.3,0.1,0.3h0.2L-218.1,486L-218.1,486L-218.1,486 M-217.9,485.9
	C-218.1,486-217.9,485.9-217.9,485.9 M-227,485.9L-227,485.9c-0.1,0.1-0.2,0.3-0.2,0.3l0.1-0.1C-227.1,486-227,486-227,485.9h0.3
	H-227 M-217.8,485.9l0.1,0.2v0.1L-217.8,485.9L-217.8,485.9C-217.7,485.8-217.7,485.9-217.8,485.9l0.1-0.1L-217.8,485.9
	 M-218.2,485.8v0.3l0.1,0.1L-218.2,485.8 M-218,485.7l0.1,0.1v-0.1C-217.9,485.7-217.9,485.8-218,485.7 M-221.7,485.7
	C-221.8,485.8-221.7,485.8-221.7,485.7L-221.7,485.7L-221.7,485.7L-221.7,485.7 M-220.5,486l0.1-0.1l-0.2-0.1
	C-220.6,485.9-220.6,486-220.5,486 M-218.3,485.8l-0.1-0.2L-218.3,485.8 M-219.5,485.7h0.1H-219.5 M-223.7,485.6l0.2,0.1v-0.2
	l-0.2-0.1V485.6 M-222.2,485.4v0.2V485.4 M-227.8,485.4v0.2V485.4v0.2V485.4 M-223.4,485.4h-0.1
	C-223.3,485.6-223.4,485.5-223.4,485.4 M-228.4,485.4C-228.4,485.3-228.3,485.4-228.4,485.4 M-227.7,485.3
	C-227.7,485.3-227.9,485.4-227.7,485.3 M-229,485.3C-229,485.4-229.2,485.4-229,485.3v0.2V485.3l0.1,0.1L-229,485.3l0.1,0.1
	L-229,485.3 M-218.5,485.2l0.1,0.1v0.1c0.1,0-0.1,0,0,0.1h0.1c0,0.2,0,0.1,0.1,0.1l0.1,0.1v-0.2v0.1l-0.3-0.2L-218.5,485.2
	L-218.5,485.2 M-227.5,485.3v-0.1C-227.7,485.2-227.6,485.3-227.5,485.3 M-222.1,485.3C-222.2,485.3-222.1,485.3-222.1,485.3
	C-222.2,485.3-222.5,485.3-222.1,485.3l0.1-0.1V485L-222.1,485.3 M-226.4,485.2L-226.4,485.2L-226.4,485.2 M-219,484.9v0.1V484.9
	L-219,484.9 M-226.8,485l-0.2,0.2h0.1l0.1,0.2h0.1l0.1-0.1C-226.7,485.4-226.7,485.1-226.8,485l0.1,0.1
	C-226.6,485-226.7,484.9-226.8,485 M-226.2,485v0.1V485l0.2-0.2h-0.3L-226.2,485 M-220,485l0.1,0.1v0.3v-0.1h0.1
	c0.1-0.1,0.2,0,0.2,0l0.1-0.1c-0.1,0,0,0,0,0L-220,485c0-0.2,0-0.3-0.1-0.3C-220.1,484.8-220.1,484.9-220,485 M-225,484.6
	c0,0.1,0,0.2-0.1,0.2c0,0.1,0.1,0.3,0.1,0.3h-0.1c0,0.1,0.1,0.1,0,0.2c-0.1,0.1,0.1,0.1,0.2,0.2c0,0.1,0.4,0.3,0.5,0.1v-0.2
	c0,0.1,0.1-0.1,0.1-0.1c0,0.1,0.1-0.1,0.1-0.1v-0.1l-0.1,0.1c-0.1-0.1,0.1-0.2,0-0.2v-0.1c0,0.1,0.2-0.1,0.2-0.1l-0.1-0.1l0.1,0.1
	h-0.2l-0.3,0.4c0-0.2-0.1-0.3-0.2-0.4h0.1l-0.1-0.1h0.1l-0.1-0.1L-225,484.6 M-224.7,484.5v0.2h0.1v0.1c0-0.1,0.1-0.1,0.1-0.2
	L-224.7,484.5 M-219.8,484.4l0.1,0.1l0.1-0.1c-0.1,0.2,0.1,0.2,0.2,0.2v0.2v-0.1v0.1l0.1-0.1c0,0.1,0.1,0.1,0.1-0.1h-0.1l0.1-0.2
	h-0.1l-0.1-0.1c-0.1,0.1-0.1,0.1-0.1,0l-0.1,0.1c-0.1,0-0.2,0-0.2-0.1V484.4 M-220.7,484.3L-220.7,484.3
	C-220.6,484.2-220.7,484.3-220.7,484.3 M-216.4,484.2C-216.4,484.2-216.5,484.3-216.4,484.2 M-219.9,484.3c0,0-0.2,0.1-0.1,0.1
	L-219.9,484.3v0.2C-219.9,484.8-219.6,484.5-219.9,484.3 M-221.2,484.2c0,0.2,0.1,0.1,0.1,0.2l0.3-0.2
	C-220.9,484.2-221,484.1-221.2,484.2L-221.2,484.2 M-216.3,484.3L-216.3,484.3C-216.3,484.2-216.4,484.3-216.3,484.3 M-228.8,483.9
	C-228.7,483.9-228.7,483.9-228.8,483.9 M-228.6,483.9L-228.6,483.9L-228.6,483.9 M-225.1,483.8L-225.1,483.8L-225.1,483.8
	L-225.1,483.8 M-222.3,483.7L-222.3,483.7L-222.3,483.7 M-228.7,483.6l0.2,0.1l-0.1,0.1l0.1,0.1l0.1-0.1v-0.1l-0.2-0.2L-228.7,483.6
	 M-224.7,483.4L-224.7,483.4L-224.7,483.4l0.2,0.1L-224.7,483.4L-224.7,483.4 M-225.4,483.4L-225.4,483.4L-225.4,483.4L-225.4,483.4
	 M-225,483.5C-225.1,483.5-225.1,483.6-225,483.5v0.2l0.1,0.1h0.1l0.1-0.1c0,0-0.1,0.2,0,0v0.1h0.2c0-0.2-0.2-0.1-0.2-0.2
	c0.1-0.1-0.1-0.1-0.2-0.1H-225l0.2-0.1C-224.8,483.3-225.2,483.4-225,483.5 M-221.6,483.4v0.1V483.4z M-221.7,483.4
	c0-0.1,0.1-0.2,0-0.1V483.4v-0.2h-0.1C-221.8,483.4-221.7,483.4-221.7,483.4 M-224.4,483.3L-224.4,483.3L-224.4,483.3
	C-224.4,483.2-224.5,483.2-224.4,483.3 M-221.2,483.2c0,0-0.1,0.2-0.1,0.3L-221.2,483.2L-221.2,483.2 M-223.5,483.2
	c0,0.1-0.2,0.1-0.2,0.2l0.1,0.1v0.1l-0.2,0.2l0.3,0.1l0.1-0.1l0.1,0.1h0.2l0.1,0.1c0-0.1,0-0.3-0.1-0.3v0.1v-0.4v0.1
	c0,0-0.1-0.1,0-0.1h-0.3C-223.3,483.4-223.4,483.2-223.5,483.2C-223.6,483.3-223.4,483.2-223.5,483.2 M-222,483.2
	C-222.1,483.3-222,483.2-222,483.2 M-223.4,483.2l0.1,0.1C-223.2,483.2-223.3,483.2-223.4,483.2 M-224,483.1L-224,483.1L-224,483.1
	v0.3h0.1c0-0.1,0-0.1,0,0l-0.1-0.1C-223.9,483.3-224,483.2-224,483.1 M-225.4,483.1c-0.2,0.1,0,0.2,0,0.2V483.1 M-222.3,483.1
	C-222.3,483.2-222.3,483.4-222.3,483.1l0.1,0.2L-222.3,483.1 M-222.1,483c0,0,0,0.3,0.1,0.2c0.1,0.1,0.1,0.2,0.2,0.2l-0.1-0.1
	l0.1-0.1v-0.1c0,0-0.1,0.1,0,0h-0.1c0.1,0,0,0,0,0S-221.9,483-222.1,483 M-224.3,482.9L-224.3,482.9L-224.3,482.9 M-221.7,482.8
	L-221.7,482.8L-221.7,482.8 M-225.1,482.8C-225.1,482.9-225.1,482.8-225.1,482.8 M-221.1,482.9c0,0.1,0.2,0.3,0.2,0.4v0.1v-0.2v0.1
	v-0.5C-221,483-221,482.9-221.1,482.9l0.1-0.2L-221.1,482.9 M-228,482.8h0.1H-228 M-222.3,482.8l0.2,0.1l0.1-0.1v-0.1h-0.1l-0.1-0.1
	L-222.3,482.8 M-220.8,482.7h0.3c0-0.1-0.1-0.1-0.2-0.1L-220.8,482.7 M-220.5,482.6l0.1,0.1L-220.5,482.6 M-221.9,482.6
	L-221.9,482.6L-221.9,482.6 M-221.1,482.5l0.1,0.1L-221.1,482.5 M-222.1,482.6v-0.1C-222.2,482.6-222.2,482.6-222.1,482.6
	 M-221.2,482.6l0.1-0.1L-221.2,482.6 M-221.6,482.4L-221.6,482.4c-0.1,0.2-0.2,0.2-0.2,0.3c0,0,0.2,0,0,0.1l0.2-0.1V482.4
	 M-224.6,482.4c0-0.1-0.1,0-0.1,0.1L-224.6,482.4c0.1,0.1,0.1,0.2,0.1,0H-224.6 M-221.5,482.3C-221.5,482.3-221.6,482.5-221.5,482.3
	 M-221.9,482.3L-221.9,482.3L-221.9,482.3L-221.9,482.3 M-220.6,482.3c0.1,0.1,0.1,0,0.1,0.1v-0.1H-220.6 M-220.7,482L-220.7,482
	L-220.7,482L-220.7,482 M-222.1,481.9C-222.2,481.9-222.2,481.9-222.1,481.9C-222.3,482.1-222.1,481.9-222.1,481.9 M-222,482
	C-222,482-222.1,482-222,482 M-219.2,481.9v0.2V481.9 M-226.1,481.8C-226.1,481.7-226,481.7-226.1,481.8L-226.1,481.8 M-221.5,481.7
	l0.2,0.1v-0.1H-221.5L-221.5,481.7L-221.5,481.7 M-225.7,481.7C-225.7,481.8-225.7,481.8-225.7,481.7l0.1-0.2L-225.7,481.7
	 M-219,481.6v0.2h-0.1v-0.1c0,0,0.2,0.1,0.2,0v-0.1c0.1-0.1,0-0.2-0.1-0.2V481.6 M-220,482.8C-220,482.9-220,482.8-220,482.8
	 M-219.9,482.4l0.1,0.1C-219.9,482.6-219.9,482.5-219.9,482.4v0.1V482.4C-219.8,482.4-219.8,482.4-219.9,482.4 M-220.9,481.6
	l-0.1-0.1l0.3,0.3c0-0.2,0.3,0.2,0.3,0.2l0.1-0.2h0.1v0.1l-0.1,0.1v0.1V482v0.1c0-0.1,0.1,0.1,0.1,0.1h-0.1c0,0.1,0.2,0.2,0.1,0.3
	h-0.1l-0.1,0.1c-0.1,0.3-0.1,0.1-0.2,0.1v-0.1h-0.1v0.4c0,0,0.2,0,0.1-0.1l0.1-0.1c0,0.1,0.1,0.1,0.1,0l0.1,0.2v0.1l0.3,0.1
	c0,0,0.4-0.4,0.2-0.5v-0.1h-0.1c0,0-0.1,0.1-0.1,0c0.1,0,0.1-0.2,0.1-0.2v-0.1h-0.1c0.2,0-0.1-0.3-0.2-0.2c0,0,0-0.4-0.2-0.3
	l-0.2-0.1l-0.1-0.2c-0.1,0,0.1,0.2,0,0.2C-220.7,481.6-220.8,481.6-220.9,481.6L-220.9,481.6L-220.9,481.6L-220.9,481.6v0.2
	l-0.1-0.2C-221,481.7-221,481.6-220.9,481.6h-0.2C-220.8,481.4-220.9,481.5-220.9,481.6 M-221.8,481.5L-221.8,481.5L-221.8,481.5
	 M-219.3,481.5L-219.3,481.5L-219.3,481.5 M-221.7,481.4v0.1C-221.6,481.4-221.7,481.4-221.7,481.4 M-219.6,481.4v0.2h0.1
	c0,0.1,0,0.2,0.1,0c0,0.1,0,0.1,0.1,0.1h-0.1c0.1,0,0.3-0.1,0.3-0.2s-0.2,0-0.3,0v-0.1h-0.1c0-0.2-0.1-0.1-0.1-0.1V481.4l0.1-0.1
	L-219.6,481.4 M-226.5,481.4v-0.1V481.4 M-219.3,481.2L-219.3,481.2C-219.3,481.3-219.2,481.2-219.3,481.2 M-225.7,481.2
	L-225.7,481.2L-225.7,481.2 M-219.5,481.2C-219.5,481.2-219.4,481.3-219.5,481.2 M-224.6,481.2l0.1-0.1L-224.6,481.2 M-224.7,481.8
	C-224.6,481.9-224.7,481.8-224.7,481.8 M-224.5,481.4h-0.2c-0.1-0.2-0.1,0.2-0.1,0.2l-0.1,0.1h-0.1l0.1,0.1h-0.2v0.1h-0.1
	c0,0,0,0.3,0.1,0.1v0.1c-0.1-0.1-0.2,0.1-0.2,0.2v0.1l-0.2-0.1v0.1h-0.1v-0.1c-0.1,0-0.1,0.2-0.2,0.1v0.2h0.1v0.1h0.1v0.2l0.2,0.1
	h-0.1l0.2-0.3v-0.1c0,0.1,0.1,0,0.1-0.1l0.3-0.1c-0.1-0.1,0-0.1,0-0.3c0.2,0,0.1,0.1,0.1,0.1c0.1,0,0,0,0.1-0.1h0.1V482h0.2
	c0.1-0.3-0.1-0.4,0.1-0.4c0-0.1,0-0.2,0.1-0.1v0.1c0.2,0,0-0.2,0-0.2h0.2l0.1-0.1c-0.1,0-0.1-0.1-0.1-0.2
	C-224.3,481.1-224.5,481.4-224.5,481.4 M-226,481.1c0,0,0.1,0.1,0,0.2V481.1v0.3c0.1,0.2,0.2,0,0.1-0.2
	C-225.9,481.2-225.9,481-226,481.1 M-224.4,481C-224.4,481.1-224.4,481.1-224.4,481L-224.4,481L-224.4,481 M-218.9,480.9l0.1,0.2
	L-218.9,480.9l0.2,0.1v-0.1H-218.9 M-226.2,480.8c-0.2,0.1,0.1,0.4,0.1,0.3l-0.1-0.1h0.1L-226.2,480.8 M-226.2,480.7
	C-226.2,480.8-226.1,480.7-226.2,480.7 M-224.5,480.5L-224.5,480.5L-224.5,480.5C-224.6,480.5-224.6,480.6-224.5,480.5l-0.1,0.2v0.1
	h-0.1c0,0.1-0.1,0.2-0.1,0.1c-0.1,0-0.3,0.2-0.2,0.3c0.2,0,0.2-0.1,0.3-0.3l-0.1,0.1l0.1-0.1l0.2-0.1l-0.1-0.1v-0.1l0.2-0.2
	C-224.4,480.5-224.5,480.5-224.5,480.5 M-224.9,480.5c0.1,0.1,0,0.1,0,0.2h0.2c0.2-0.1,0-0.2,0.1-0.3L-224.9,480.5 M-225.5,480.3
	L-225.5,480.3L-225.5,480.3L-225.5,480.3C-225.3,480.4-225.6,480.4-225.5,480.3L-225.5,480.3L-225.5,480.3 M-222.8,480.3l-0.2,0.2
	h0.1C-222.8,480.5-222.8,480.4-222.8,480.3 M-224.3,480.2C-224.3,480.3-224.2,480.3-224.3,480.2L-224.3,480.2 M-220.6,480.1
	L-220.6,480.1L-220.6,480.1 M-219.3,480l0.1-0.1l-0.1-0.1V480 M-219.7,479.9l0.1,0.1L-219.7,479.9 M-222.9,479.9l0.1,0.1
	L-222.9,479.9 M-222.1,479.9v0.1l-0.1,0.1v0.1h0.1v-0.1C-221.9,480-222,479.9-222.1,479.9 M-219.9,480v-0.2V480 M-222.9,479.9
	C-223,479.8-223,479.9-222.9,479.9 M-218.1,479.9C-218.1,479.9-218,479.9-218.1,479.9h0.2l-0.1,0.2l0.1,0.1c-0.1,0-0.1-0.1-0.2-0.1
	v0.1c0.1,0,0.1,0.1,0.2,0.1l0.3-0.1c0-0.1,0-0.1-0.1,0V480l-0.1-0.1l-0.2-0.1L-218.1,479.9 M-218.4,479.8c0.1,0.1,0,0.2,0.1,0.2
	L-218.4,479.8 M-219.5,479.8c0,0,0,0.1,0.1,0.1L-219.5,479.8 M-218.1,479.7C-218.2,479.8-218.1,479.9-218.1,479.7 M-218.9,479.9
	C-218.9,480-219,479.9-218.9,479.9l-0.1,0.2v0.1h0.2L-218.9,479.9c0.1,0.2,0.2,0.2,0.2,0.3l0.1-0.1c-0.1,0,0.1,0.1,0.2,0.1h0.2v0.1
	c0-0.2-0.1-0.1-0.1-0.1v-0.1l-0.1,0.1l-0.1-0.2h-0.1c0-0.1,0-0.1,0.1-0.1h-0.1c-0.1,0-0.2,0-0.2-0.1L-218.9,479.9 M-222.7,479.8
	L-222.7,479.8L-222.7,479.8 M-220.9,479.7L-220.9,479.7L-220.9,479.7 M-221.1,479.7L-221.1,479.7L-221.1,479.7 M-219.1,479.7v0.3
	l0.1-0.1c0,0.1,0.1-0.1,0.1-0.1L-219.1,479.7 M-223.5,479.5v0.2h-0.2v-0.1l-0.1,0.2h-0.1c0,0.1,0.2,0.3,0.3,0.2
	c0.1,0.2,0.5-0.1,0.3-0.1v-0.1h-0.1c0.1,0,0-0.1,0-0.1L-223.5,479.5 M-219.9,479.5v0.1l0.1,0.1c0,0,0.2,0,0-0.1L-219.9,479.5
	 M-221.4,479.7L-221.4,479.7L-221.4,479.7h-0.2v0.1h-0.1v0.1h0.2L-221.4,479.7C-221.4,479.6-221.5,479.5-221.4,479.7 M-220,479.6
	C-219.8,479.6-220,479.6-220,479.6 M-222.7,479.5v0.1V479.5 M-224.9,479.6c0.1,0.1,0.1,0,0.1-0.1L-224.9,479.6 M-219.9,479.5
	C-220,479.5-219.9,479.5-219.9,479.5 M-217.2,479.4L-217.2,479.4L-217.2,479.4C-217.2,479.5-217.1,479.3-217.2,479.4 M-220,479.2
	c0.1,0.1,0.2,0.3,0.3,0.1h-0.1L-220,479.2 M-221.6,479.2l0.1,0.1v-0.2L-221.6,479.2 M-221.8,479.2L-221.8,479.2L-221.8,479.2
	 M-220.5,479.2l0.2,0.1v0.1h-0.1c-0.3-0.6,0,0,0,0.1h-0.1l0.1,0.1v-0.1l0.1-0.1v0.2l0.1-0.1l0.2,0.1h-0.1c0.1-0.2-0.2-0.2-0.2-0.2
	c0-0.2,0.1-0.4-0.1-0.4v-0.1l-0.2-0.1C-220.5,479-220.5,479.1-220.5,479.2 M-220.7,478.9l0.1-0.1L-220.7,478.9 M-220.6,478.8
	C-220.6,478.9-220.5,478.9-220.6,478.8 M-220.7,478.8L-220.7,478.8L-220.7,478.8 M-223,478.7L-223,478.7L-223,478.7 M-220.7,478.7
	C-220.6,478.6-220.6,478.6-220.7,478.7L-220.7,478.7C-220.7,478.6-220.8,478.7-220.7,478.7 M-221.9,478.7v0.3l0.1-0.1v0.1l0.2-0.1
	l0.2-0.1c0-0.2-0.1-0.2-0.1-0.2h-0.1c-0.1,0,0,0,0-0.1C-221.8,478.4-221.9,478.6-221.9,478.7 M-217.6,478.4L-217.6,478.4
	L-217.6,478.4L-217.6,478.4 M-224.4,478.3C-224.5,478.4-224.4,478.5-224.4,478.3 M-224.4,478.2v0.2
	C-224.3,478.4-224.2,478.2-224.4,478.2 M-222.8,478.3v-0.1V478.3 M-221.4,478.3L-221.4,478.3L-221.4,478.3v0.2
	c0,0.1,0.1,0.1,0.2,0.1h0.1v-0.3l-0.1-0.1C-221.3,478.2-221.4,478.3-221.4,478.3 M-221.5,478.1
	C-221.5,478.1-221.5,478.3-221.5,478.1 M-224.7,478.3L-224.7,478.3c0.1,0,0.1,0.1,0.1,0.2L-224.7,478.3c-0.1-0.1,0-0.1,0-0.2h-0.1
	C-224.7,478.1-224.7,478.2-224.7,478.3 M-221.3,478.1V478V478.1 M-224.2,478l0.1,0.1h0.1C-224.1,477.9-224.1,478-224.2,478
	 M-226.9,478C-226.9,478-226.9,478.2-226.9,478l0.1-0.1L-226.9,478 M-226.8,478.1l0.1-0.2L-226.8,478.1 M-222.3,477.9L-222.3,477.9
	L-222.3,477.9l0.1,0.2l0.1-0.1c0,0,0.1,0.3,0.2,0.1c-0.1-0.1-0.1-0.2-0.2-0.1v-0.1H-222.3 M-224.5,477.7v0.3c0.1,0.1,0,0.2,0.1,0
	v0.1C-224.2,478.1-224.5,477.8-224.5,477.7l0.1,0.2l0.1-0.1l-0.1,0.1c0-0.1,0.1-0.1,0.1-0.1C-224.5,477.7-224.5,477.9-224.5,477.7
	 M-219.9,477.7L-219.9,477.7v-0.2V477.7 M-218.7,477.6L-218.7,477.6L-218.7,477.6 M-217.7,477.6v-0.2V477.6 M-224.4,477.5
	c0.1,0-0.1,0.2,0,0.2V477.5l0.1,0.2C-224.3,477.5-224.4,477.5-224.4,477.5 M-227.1,477.2l0.1-0.1
	C-227.1,477.1-227.1,477.1-227.1,477.2 M-218.8,477.2L-218.8,477.2L-218.8,477.2L-218.8,477.2L-218.8,477.2L-218.8,477.2l0.1,0.2
	h-0.2c0.1,0.1,0.2,0.2,0.3,0.2l0.1,0.1h0.2l0.1-0.1v-0.2h-0.5L-218.8,477.2C-218.9,477.3-218.7,477.2-218.8,477.2
	C-218.6,477-218.8,477-218.8,477.2 M-223.5,477.2L-223.5,477.2L-223.5,477.2 M-223.7,477l-0.1,0.1h-0.2l0.1-0.1l-0.1,0.2h-0.1
	c0.1,0,0-0.1,0.1-0.1c0-0.1-0.1-0.1-0.1-0.1v0.3l-0.2,0.1v0.1h-0.1c0,0.2,0.1,0.2,0.2,0.2h0.1v-0.1h0.2v0.2c0.1,0.2,0,0.2-0.1,0.2
	v0.1l0.1,0.1l-0.2,0.2h0.2c0.1,0.1,0.1,0.1,0.3,0c0.1,0,0.4-0.3,0.4-0.1l0.1-0.1l0.2,0.1V478c0.2,0.3,0.2-0.4,0.2-0.4
	c0-0.1-0.2-0.1-0.2-0.1h-0.2c0.1-0.1,0-0.1,0-0.2c0,0-0.3,0.1-0.2,0h0.1l-0.1-0.1c-0.1-0.1-0.1-0.1-0.2-0.3h0.1v-0.1L-223.7,477
	 M-223,476.8v0.2h0.1L-223,476.8z M-219.1,477.5C-219.4,477.4-219.1,477.4-219.1,477.5L-219.1,477.5 M-219.2,476.9h-0.3v0.2h-0.1
	V477l-0.1-0.2h-0.1c0.1,0.1,0,0.2,0,0.3h0.1c0,0.1,0.1,0,0.2,0h-0.1c0,0.1,0.1,0,0.1,0.1h-0.1l0.1,0.1h-0.1l-0.1-0.1v-0.1l-0.1,0.1
	l0.2,0.2v-0.1v0.1h0.2c0,0.2,0.1,0,0.2,0c0,0.1,0.1,0.2,0,0.3h0.3c0.1,0.2,0.3,0,0.3,0v0.1v-0.1c-0.1,0.1-0.2-0.1-0.3-0.2l-0.1-0.1
	v-0.2l-0.1,0.1v-0.1l0.1,0.1v-0.2v0.1h-0.1V477L-219.2,476.9l0.1,0.1c0-0.1,0.1-0.2,0-0.3L-219.2,476.9 M-224,476.9v-0.1V476.9
	 M-224,476.8l0.1,0.2L-224,476.8h0.2v0.1l0.1-0.1H-224 M-220,476.7c-0.1-0.1-0.1,0-0.1-0.1h-0.1l-0.2,0.2v0.1l0.1,0.1v-0.1v0.1
	l0.1-0.1l-0.1,0.1c0.1,0,0.1-0.1,0.1-0.2v-0.1C-219.9,476.9-219.9,476.8-220,476.7v-0.2C-220,476.6-219.9,476.7-220,476.7
	 M-223.5,476.6l0.1,0.1h0.1v-0.1l0.1,0.1v0.1h-0.1v0.1c0.1-0.2,0.3-0.1,0.3,0.1v-0.2c0,0.1,0,0,0,0v-0.1h-0.2v-0.1
	c0,0.1,0.1,0,0.1,0H-223.5 M-224.1,476.6L-224.1,476.6L-224.1,476.6 M-217.4,476.6c-0.2,0.1,0.2,0.2,0.3,0.2L-217.4,476.6h0.2
	H-217.4c0.1,0.1-0.1-0.2,0-0.2h-0.2C-217.6,476.6-217.5,476.6-217.4,476.6 M-224.7,476.4C-224.7,476.6-224.6,476.4-224.7,476.4
	 M-224.5,476.5L-224.5,476.5L-224.5,476.5c-0.2,0-0.3,0.1-0.3,0h-0.1v0.2l-0.1,0.1c-0.1,0.3,0.2,0.1,0.4,0.2v-0.1l0.1-0.2V476.5
	L-224.5,476.5L-224.5,476.5L-224.5,476.5c0.1,0,0.2,0.1,0.2-0.1h-0.1c0,0-0.1,0-0.1-0.1V476.5 M-220.2,476.4L-220.2,476.4
	L-220.2,476.4 M-219.7,476.3c0,0.3,0.3,0.1,0.3,0.1h-0.1L-219.7,476.3 M-218.9,476.3l-0.2,0.2v0.2h-0.1c0.1,0,0,0,0,0l0.2,0.4
	c0-0.1,0-0.3,0.1-0.2v0.1c0.1,0,0.2-0.1,0.2-0.2v0.1l0.1-0.1v-0.5h-0.1c0,0.1,0.1,0.2,0.1,0.3C-218.6,476.6-218.7,476.3-218.9,476.3
	L-218.9,476.3L-218.9,476.3L-218.9,476.3L-218.9,476.3C-218.9,476.3-218.8,476.3-218.9,476.3C-218.8,476.2-218.9,476.3-218.9,476.3
	 M-219.1,476.2c0,0,0.1,0.1,0.1-0.1L-219.1,476.2 M-222.3,476c-0.1,0.2-0.1,0.2,0,0.2c0,0-0.1,0.1,0,0.2
	C-222.3,476.2-222.2,476.1-222.3,476 M-223.1,476l-0.1,0.1L-223.1,476c-0.2,0-0.1,0.2-0.1,0.1l-0.1,0.1h0.4v0.1v-0.2
	C-222.8,476.1-223,476.1-223.1,476C-222.9,476-223.1,476-223.1,476 M-216.8,476C-216.8,476.2-216.7,476-216.8,476L-216.8,476
	L-216.8,476 M-223.2,475.7L-223.2,475.7L-223.2,475.7 M-222.8,475.6L-222.8,475.6L-222.8,475.6
	C-222.9,475.8-222.7,475.8-222.8,475.6l0.1,0.2c0.1,0,0.1,0,0.1-0.1L-222.8,475.6L-222.8,475.6L-222.8,475.6L-222.8,475.6
	L-222.8,475.6L-222.8,475.6l0.1-0.1h-0.1V475.6 M-221.2,475.6c0.1-0.1-0.2-0.1-0.2,0l-0.1-0.1v0.1l-0.1-0.1v0.1c0,0,0.2,0.3,0.3,0.2
	c0-0.2,0.3-0.1,0.3-0.1l0.1,0.1l0.1,0.1v0.1l-0.2-0.1l-0.1,0.1l0.2,0.2c0,0.1,0.1,0.1,0,0.1v0.1h-0.1c0,0.1,0.1,0.1,0.1-0.1
	c0.1,0,0.1-0.3,0.2-0.4v0.1c0,0.1,0,0.1-0.1,0.2l0.1-0.1h0.1V476h-0.1c0.1,0-0.3-0.4-0.2-0.5l-0.1,0.1v-0.2L-221.2,475.6
	 M-223,475.5L-223,475.5l0.1,0.2h0.1h-0.1C-222.8,475.6-223,475.4-223,475.5 M-221.8,475.7h-0.2v-0.2c0,0,0-0.1-0.1,0l-0.2,0.2v0.1
	v-0.1c0,0.1,0.1,0.2,0.2,0c0,0.1,0,0.2,0.1,0.1c-0.1,0.1,0.1,0.2,0.1,0.2v0.1V476l0.2,0.1C-221.7,476-221.8,475.7-221.8,475.7
	L-221.8,475.7L-221.8,475.7c0.1,0,0-0.1,0.1-0.2l-0.1-0.1V475.7 M-223.6,475.3L-223.6,475.3c-0.1,0.1,0,0.1,0.1,0.2v0.1
	c0.1-0.1,0.1-0.1,0.1-0.2C-223.4,475.3-223.5,475.3-223.6,475.3L-223.6,475.3 M-222.9,475.1L-222.9,475.1L-222.9,475.1
	 M-223.7,474.9L-223.7,474.9L-223.7,474.9 M-221.6,474.9l-0.1,0.1h0.1C-221.7,474.9-221.5,474.9-221.6,474.9L-221.6,474.9
	 M-221.8,474.8L-221.8,474.8l-0.2,0.1v0.2c0.1,0,0.2,0.2,0.2,0V474.8l0.1,0.2L-221.8,474.8L-221.8,474.8 M-220.5,474.1h0.2
	C-220.3,474-220.4,474.1-220.5,474.1L-220.5,474.1L-220.5,474.1L-220.5,474.1 M-222.8,474.1L-222.8,474.1c0.2,0,0.2-0.2,0.2-0.2
	h-0.1C-222.8,473.9-222.8,474-222.8,474.1 M-220.7,474v0.2V474L-220.7,474L-220.7,474c0,0,0.1-0.1,0-0.1V474 M-222.9,473.8
	C-222.8,473.8-222.8,473.9-222.9,473.8 M-221.6,473.7C-221.7,473.8-221.6,473.7-221.6,473.7 M-222.8,473.8L-222.8,473.8v-0.1
	C-222.8,473.6-222.9,473.8-222.8,473.8 M-222,473.6L-222,473.6L-222,473.6L-222,473.6c0,0-0.1,0.2-0.2,0.3h0.1h-0.1h0.1v-0.1v0.1
	h0.1h-0.1h0.1v-0.1l0.2-0.1v-0.1L-222,473.6 M-221.5,473.5C-221.5,473.4-221.6,473.5-221.5,473.5L-221.5,473.5
	c0.1,0.1,0,0.3,0.1,0.2c0,0.1,0.1,0.2,0.1,0.1c0.1,0,0.1,0,0.2-0.1v0.1h0.1l0.1-0.1h-0.2c0,0,0-0.1-0.1-0.2l0.1,0.1h-0.2v-0.1v0.1
	L-221.5,473.5C-221.5,473.6-221.5,473.6-221.5,473.5 M-219.9,473.4C-219.9,473.5-219.9,473.4-219.9,473.4 M-221.6,473.4v-0.1V473.4
	 M-223.7,473.2l-0.1,0.2L-223.7,473.2v0.2V473.2 M-219.8,473.2C-219.5,473.3-219.7,473.2-219.8,473.2L-219.8,473.2L-219.8,473.2
	 M-222.4,473.1l-0.1,0.1L-222.4,473.1L-222.4,473.1l-0.2,0.2l0.1-0.1L-222.4,473.1L-222.4,473.1h0.2
	C-222.2,473.1-222.4,473.2-222.4,473.1 M-222.3,473L-222.3,473l0.1,0.2l0.1-0.1c-0.1,0,0,0-0.1,0.1C-222.2,473-222.1,473-222.3,473
	 M-220.2,473L-220.2,473L-220.2,473 M-222.1,472.9v0.1V472.9 M-221.8,472.9c0,0.1,0.1,0,0.2,0H-221.8 M-222.7,471.4
	c-0.3,0.2-0.1,0.3-0.1,0.2L-222.7,471.4L-222.7,471.4v0.1V471.4 M-220,471.4v0.2c0-0.1,0.1-0.2,0.1-0.3L-220,471.4 M-223.4,471.2
	L-223.4,471.2c-0.1,0.2,0,0.2,0,0.2V471.2 M-223,471.2L-223,471.2L-223,471.2 M-223.7,471.1L-223.7,471.1L-223.7,471.1
	 M-222.8,470.9v0.2c0,0.1,0.1,0,0.1,0L-222.8,470.9L-222.8,470.9c0,0.1,0.2,0,0.2,0C-222.7,470.9-222.7,470.8-222.8,470.9
	 M-224.2,471.1L-224.2,471.1L-224.2,471.1 M-223.5,470.9c0.1,0.1,0,0.1,0,0.1v0.1h0.1l-0.1,0.1c0.3-0.1,0-0.1,0.1-0.2l-0.1,0.1
	V470.9 M-224.8,470.8C-224.7,470.8-224.8,470.8-224.8,470.8 M-221.6,470.7c-0.1,0.1,0,0.1-0.1,0.1c0,0,0.1,0.2,0.1,0.1l-0.1-0.1
	L-221.6,470.7 M-222.8,470.6L-222.8,470.6L-222.8,470.6v0.2C-222.9,470.7-222.8,470.6-222.8,470.6l-0.1,0.2L-222.8,470.6
	L-222.8,470.6 M-224.6,470.6L-224.6,470.6l-0.1,0.2c0,0-0.1,0.1,0,0.1v0.1v-0.1l0.1,0.2c0.1-0.2,0,0.2,0.1,0.2l0.1-0.1v0.1v-0.1
	h-0.1l0.1-0.1V471v0.1l-0.1-0.1c-0.1-0.1,0.1-0.1,0.1-0.2L-224.6,470.6 M-223.7,470.5C-223.6,470.5-223.7,470.6-223.7,470.5
	 M-224.8,470.2C-225,470.2-224.7,470.3-224.8,470.2 M-221.8,470.2C-221.8,470.3-221.7,470.4-221.8,470.2
	C-221.8,470.2-221.8,470.3-221.8,470.2 M-223.7,469.9l0.1,0.2l0.1-0.1c0.1,0.1,0.2,0,0.2,0.2h-0.1v0.1h-0.1c0.1,0.1,0.1,0.2,0,0.2
	v0.1l0.3-0.1l-0.2-0.1c0.1,0,0.1-0.2,0-0.3l-0.1-0.1v-0.1v0.1v-0.1L-223.7,469.9 M-223.5,469.8
	C-223.5,469.7-223.7,469.8-223.5,469.8 M-223.7,469.6L-223.7,469.6L-223.7,469.6 M-223.3,469.4
	C-223.3,469.6-223.2,469.4-223.3,469.4 M-218.3,487.8L-218.3,487.8L-218.3,487.8 M-216.2,484.8
	C-216.2,484.7-216.2,484.7-216.2,484.8 M-222.8,467.5V464c0-0.4-0.3-0.7-0.7-0.7h-8.2c-0.4,0-0.7,0.3-0.7,0.7v18.4
	c0,0.5-0.4,0.6-0.6,0.2l-7.2-17.4l-0.3-0.7c-0.5-1.1-0.5-1.2-1.9-1.2h-8.9c-0.4,0-0.7,0.3-0.7,0.7v36.4c0,0.4,0.3,0.7,0.7,0.7h7.8
	c0.4,0,0.7-0.3,0.7-0.7V482c0-0.5,0.4-0.6,0.6-0.2l7.2,17.4l0.3,0.7c0.2,0.7,0.9,1.2,1.6,1.2h5.5c2.3,0,4.2-1.9,4.2-4.2v-9.5
	c-0.1,0-0.2-0.1-0.3-0.1l-0.1-0.1l0.1,0.2h-0.2v-0.1v0.1l0.1-0.1h-0.2c0,0.2,0,0.3,0.1,0.2h0.1l0.1,0.1h-0.1l0.1,0.1
	c0,0-0.2,0-0.2-0.1v0.2v-0.1l-0.1,0.1l-0.1,0.1c-0.1,0.2,0,0.2,0,0.2h-0.3c-0.2,0-0.3,0.1-0.5,0.1l0.1-0.1l-0.1,0.1l-0.2-0.1h0.1
	c-0.1-0.1,0-0.3-0.2-0.3v0.2l-0.1-0.2l-0.1,0.1l-0.2,0.5v-0.1l0.1,0.1h-0.1l0.1,0.1l-0.1,0.4v-0.1c-0.2,0-0.2,0-0.2,0.2h-0.1v-0.1
	l-0.1,0.2h-0.1c0-0.1,0.1-0.3,0.1-0.4h-0.1l-0.2,0.2v-0.1l-0.1,0.3l-0.2,0.1v-0.1h-0.1c0,0.3,0.2,0.2,0,0.2l-0.1,0.1
	c-0.1,0.1-0.1,0.3-0.2,0.1c-0.1-0.2,0-0.3,0-0.3c0.1,0,0.1-0.3,0.2-0.4l-0.1,0.1v0.1v-0.1h-0.1c0,0-0.1-0.2-0.2-0.2
	c0-0.2-0.2-0.2-0.2-0.3l0.1-0.1l-0.1-0.2c0,0,0.1-0.1,0.2,0.1v-0.1c0.1-0.1,0.1-0.5,0.3-0.4c-0.2-0.2,0-0.4,0.1-0.5
	c0-0.1,0-0.5,0.2-0.3v-0.1h0.1v-0.1h0.1l-0.1-0.1l0.1-0.1h0.1h-0.3v-0.1v0.1v-0.2l0.3,0.1c0.1-0.1,0-0.2,0-0.2c0-0.1,0-0.2,0.1-0.3
	v0.1v-0.2v0.1l-0.1,0.1l-0.2,0.2v-0.1l-0.1,0.2h-0.1l-0.3,0.3v-0.1c-0.1,0.1-0.2,0.5-0.2,0.3l0.1,0.1c-0.1,0-0.2,0.1-0.1,0.2
	c-0.1-0.1,0,0.3-0.2,0.3c-0.1,0-0.1,0.2-0.2,0.3l-0.1-0.3h-0.1v0.1h-0.1c0,0.2-0.1,0.1-0.1,0.1h0.2v0.1l0.1-0.1v0.1h-0.1v0.1v-0.1
	v0.1h-0.2v-0.2h-0.1c0.1,0.1-0.1,0-0.1-0.1l-0.1-0.1l0.1-0.1h0.1v-0.2l0.1-0.2h0.1l0.1-0.1l-0.2,0.5l0.1-0.1l-0.1-0.3l-0.2,0.2
	c-0.2,0.2-0.4,0.3-0.3,0h0.1c0-0.1-0.2-0.4-0.1-0.4c-0.4-0.3,0-0.3,0.1-0.3c0,0,0.1-0.3,0.2-0.1c0.1-0.2,0.3-0.1,0.4,0h-0.1l0.1,0.2
	v-0.1l0.2-0.1h-0.1c0-0.1,0.1-0.1,0.1,0h0.1h-0.1c0,0,0.4-0.2,0.4-0.3l-0.1,0.1c0-0.1,0.1-0.1,0.1-0.1v-0.1h0.1v0.1
	c0.2-0.2,0.4,0,0.4-0.3h0.1v0.2l0.1-0.2c0.1,0.1,0.2-0.1,0.2-0.2c-0.2,0.1-0.5-0.1-0.6-0.1v-0.1h-0.2c0.1,0.1,0,0.1,0,0.2l0.1,0.1
	h-0.1l-0.2,0.1v-0.1h-0.1c0-0.1,0,0,0,0v-0.1c0,0-0.1,0,0,0.1h-0.1l0.2,0.1c0.1,0.1,0,0.3-0.1,0.1v-0.1l-0.1,0.1l0.1,0.2h-0.1
	l0.1-0.1l-0.1,0.1v0.2h-0.2c-0.1,0,0-0.3,0.1-0.3c0,0-0.1-0.3-0.1-0.1h0.1h-0.1v0.2v-0.1c0,0-0.2,0.1-0.1,0.1h-0.1v-0.2v0.1h-0.2
	c0,0.1-0.1,0-0.1,0.1v0.1l0.1,0.1c-0.1,0.1-0.1,0.2-0.2,0.3h-0.2l0.1-0.1h-0.4v-0.1v0.2v-0.1h0.1c0,0.1-0.2,0.2-0.2,0.2
	c0.1,0,0.1,0.1,0,0.2h-0.2v-0.3l0.1,0.1l-0.1-0.2h-0.1c0,0,0-0.2-0.1-0.1c0-0.1,0.1-0.1,0.1-0.1h0.1l-0.1-0.1h0.1
	c-0.1,0.1,0.1,0,0.1,0h-0.1c0.1-0.1,0-0.1,0-0.2c0,0.1,0.1,0.1,0.2,0.1v0.1V486c0.1,0,0.2,0,0.2-0.1h0.1l-0.1-0.1l0.1-0.1h0.1h-0.1
	v-0.2v0.1c0,0.1-0.1,0.1-0.1,0.1h-0.1l0.1-0.1l-0.1,0.1h0.1v0.1c-0.1-0.1-0.2,0-0.2,0.1h-0.1c0-0.1-0.2-0.2,0-0.2
	c0-0.1-0.3-0.3-0.2-0.4c0-0.1-0.1-0.4-0.2-0.6h0.1c0-0.1,0.4-0.6,0.4-0.8h0.1c0,0,0-0.4,0.2-0.2h-0.1h0.1v-0.3l-0.1,0.1
	c0-0.1-0.2-0.2-0.2-0.4c0.2,0,0.3,0,0.4-0.1c0-0.2-0.1-0.1-0.1-0.2h0.1v-0.1c0.2,0.1,0.1,0,0.3,0.2c0.1,0.1,0.1,0,0.1-0.1h0.1v-0.4
	c0.2-0.1,0.2-0.3,0.2-0.5c-0.1-0.2,0.1-0.2,0.1-0.3c0,0,0.2,0.1,0.1-0.1v-0.1c-0.2,0.2,0.1-0.1,0-0.2h0.1c0,0,0.1,0.2,0.2,0.1
	c-0.1-0.1,0-0.1,0-0.2h0.1c-0.1,0.1,0.3,0.3,0.4,0.3v0.1h-0.2l0.1,0.1c0-0.1,0-0.1,0.1-0.1v-0.1h-0.1v-0.2l0.1,0.1h0.1v-0.1h0.1v0.1
	c0,0,0.1,0,0.1-0.1h-0.1c0.1,0,0.2,0.1,0.1-0.1h0.1c-0.1-0.1,0.1-0.1,0.2-0.1c0-0.1-0.2-0.2-0.2-0.1l0.1-0.1c0-0.1-0.1,0.1-0.1,0.1
	v-0.1h-0.1v0.2v-0.1v0.1h-0.2l-0.1,0.2c0,0.1-0.1-0.2-0.1-0.4c-0.1-0.2-0.1-0.5,0-0.3c0-0.1,0-0.2-0.1-0.2s-0.1,0-0.1-0.2h0.3h-0.1
	l0.3-0.3h0.1c0-0.2,0.3-0.1,0.3,0c0.1-0.1,0.5-0.1,0.6-0.1c0-0.1,0.1-0.3,0.1-0.2h0.1v-0.3l0.3-0.2h-0.1h0.3l0.1-0.1h0.1v-0.1
	c0-0.1-0.2-0.1-0.3-0.1h0.1c0-0.2-0.3-0.3-0.2-0.2v-0.1v0.2c-0.1-0.1,0,0-0.1,0.1c-0.1,0-0.2-0.3-0.2-0.4c0.1,0,0.2-0.2,0.1-0.2V478
	c0,0,0.3-0.4,0.4-0.6l0.1-0.1l0.1-0.1c-0.1-0.1,0,0-0.1-0.2h-0.1l0.1-0.1h-0.1c-0.1,0-0.2-0.1-0.3,0.1l0.1,0.1h-0.2V477l-0.1,0.1
	v0.2c0-0.1-0.2,0-0.2,0.1c0,0.1-0.3,0.1-0.3,0h0.2c-0.1,0,0.1-0.3,0-0.3V477l-0.2,0.1c0.2,0,0,0.2-0.1,0.3h-0.2v0.2h-0.2
	c0,0,0-0.2-0.1-0.1v0.1c0-0.2-0.4,0.2-0.2,0.2c0.1,0.1-0.2,0.1-0.2,0.1v0.1l0.1-0.1v0.1v-0.1v0.1h-0.1l-0.1,0.1v0.2h-0.2
	c0.1,0,0.1-0.2,0.1-0.2h-0.1c0,0.3-0.2,0.2-0.2,0.1l-0.1,0.1h0.1l-0.1-0.1v0.2c0-0.1,0-0.2,0.1-0.2l-0.3,0.1l0.1,0.1h-0.2l-0.2-0.2
	l-0.1,0.1c-0.1-0.1,0.1-0.5,0.1-0.7v0.1c0-0.2,0-0.4,0.1-0.4l0.1-0.2c0.2,0,0.2,0.1,0.3,0.2c-0.1-0.1,0,0,0,0h0.2c0,0,0-0.1-0.1-0.1
	h-0.2l-0.1-0.1l0.1-0.1v-0.5c-0.1,0,0,0.1,0,0.1c-0.2-0.3-0.1-0.3,0-0.5h0.3v-0.4l0.1-0.1c0.1,0,0.1,0.1,0.1,0.2l0.2-0.1
	c0.1-0.1,0.2-0.1,0.2,0.1l0.1-0.2v0.1c0,0,0.1-0.2,0-0.2v0.1c0-0.2-0.2-0.3-0.1-0.5l0.2-0.3c0.1-0.1,0.2-0.1,0.4-0.3h-0.1h0.3
	l0.1-0.1c0,0.1,0.1,0.2,0.1,0.2v-0.1c0.1,0.1,0.1,0,0.1,0c0-0.1,0.4-0.2,0.4-0.2v-0.4v0.1l0.1-0.1l0.2-0.1c0-0.1,0.2-0.1,0.2-0.3
	l0.1,0.1l-0.1-0.2h0.1v0.1h0.1c0,0,0-0.1,0,0v0.1l0.1,0.1v-0.1c0-0.1-0.1-0.2,0-0.3c0,0-0.5,0.2-0.6,0.2l-0.1-0.1
	c0,0-0.5,0.3-0.6,0.1h0.1l-0.3-0.1v0.1V473c0.1-0.1,0.3,0,0.3-0.2c0,0,0.3,0,0.3,0.2c0.3-0.5,0.3-0.4,0.3-0.6c0,0,0.2-0.1-0.1,0
	l-0.1,0.1v-0.3l0.1,0.1l0.1-0.2v0.1v-0.1v0.1v-0.3l0.1,0.2l0.1-0.4h0.3l-0.1,0.1h0.2l-0.1-0.1l-0.1-0.1c0.1,0,0,0,0-0.1
	s-0.1-0.1-0.1-0.1s-0.3-0.1-0.3-0.3c0.1,0.2,0.1-0.2,0.1-0.2c0,0.1-0.1,0.1-0.2,0h-0.1c0-0.1,0-0.2,0.1-0.3h-0.1
	c0-0.1,0-0.2-0.1-0.3c0.2,0,0-0.3-0.1-0.3c-0.1-0.3,0.2-0.2,0.3-0.4h-0.1c0-0.2,0.3-0.4,0.5-0.4l0.2,0.2h0.1c-0.2,0-0.2-0.4-0.1-0.5
	c0.2,0,0.5-0.3,0.7-0.3l0.1,0.1c0.1,0.1,0.2,0.2,0.2,0.1v0.1c0-0.1,0.4-0.1,0.3,0.2c0,0,0.1,0,0.1,0.1l0.1-0.1c0.1,0,0.5,0,0.5,0.1
	l0.1-0.2c0-0.1,0.1-0.2,0.1-0.2v0.1h0.1v-0.1v0.1h0.3c0.1,0,0.3,0,0.3-0.1c0,0.3,0.2,0.2,0.2,0.4v-0.1v0.1v-0.1l0.1,0.1
	c0,0-0.1,0.1,0,0.2c-0.1,0.1,0,0.2,0,0.3v-0.1l-0.1,0.2c-0.1-0.1-0.2,0-0.3,0c0,0.2,0.2,0.3-0.1,0.4h0.1h-0.1c0,0,0.6,0.5,0.2,0.5
	c0,0,0.3,0.2,0.3,0l0.3-0.3v0.1c0.1,0,0.1-0.3,0.1-0.3h0.1c0.1-0.1,0.2-0.1,0.2,0.1c0.1-0.1,0.1-0.1,0-0.2v-0.2l0.2-0.1v0.3
	c0,0-0.1,0.2,0,0.3c0,0,0.4-0.2,0.2-0.3h0.3c0.1,0.1,0.2,0.2,0.1,0.4c0,0-0.1,0.2-0.2,0.3h0.1c0,0-0.1,0,0,0.2l0.1-0.1v0.2
	c0,0.2,0.2,0,0.2,0.3c0-0.1,0.1,0.3,0.1,0.4l0.1-0.1c0.1,0.2,0,0.3-0.1,0.4c0.1,0.1,0.1,0.1,0.1,0.3v0.1l0.2,0.1
	c0.1,0,0,0.1,0.1,0.2c0,0.2-0.1,0.2-0.1,0.2l-0.3,0.6l-0.3-0.2v0.1h0.1v0.3c0,0.1,0.2,0,0.2-0.2l0.1,0.1c0-0.2,0.1-0.1,0.2-0.2
	c0.1,0.1,0.3,0,0.2,0c0.1-0.2,0.2-0.1,0.4-0.1v0.1l0.1-0.1h0.1c0,0.2,0.1,0.2,0.2,0c0.2,0,0,0.5,0.1,0.6c0,0.1,0,0,0,0v0.2h0.2
	l-0.1,0.2l-0.2,0.2l0.1,0.2c-0.1,0,0,0.1-0.1,0.2c-0.2-0.5-0.2-0.3-0.1-0.2v0.1c0-0.1,0.1-0.1-0.1-0.1l-0.1,0.1c-0.2,0,0,0.2,0,0.3
	c0.1-0.2,0.2-0.1,0.3-0.1h0.2c0,0.1,0.1,0,0.2,0h0.1v0.1c0.1-0.1,0.3,0,0.3-0.4c0.1,0,0.1,0,0.2-0.1v0.1h0.1v0.1h0.1v0.2
	c0,0,0,0.1-0.1,0.2c0,0.1-0.1,0.2-0.2,0.2c0.1,0.1,0,0,0,0.1l0.2,0.1c0.1,0.1,0.2,0.2,0.3-0.1l0.3-0.2l0.1,0.2l0.1-0.1v0.1v-0.1h0.1
	l-0.1,0.4l-0.1-0.1l-0.1,0.1h-0.1v0.1l-0.1,0.1h0.1c0,0.2,0.2,0.2,0.3,0.3c0,0.3-0.1,0.3-0.3,0.4h0.1c0-0.2-0.1,0-0.1,0
	c-0.1,0.1-0.2,0.3-0.4,0.3v0.2v-0.1v0.4c0,0-0.1-0.2-0.1,0.1l-0.1-0.3v0.2c0-0.1-0.1-0.1-0.2-0.1c0.1,0.1,0,0.1,0.1,0.3h-0.2v-0.2
	v0.1v-0.2l-0.2,0.2l-0.1-0.2v0.2l0.1,0.1v-0.1l0.1,0.1l0.1-0.1v0.1h0.1c0,0,0.1,0.1,0,0h0.1v0.1l0.2-0.1v0.2c0.1-0.1,0.1,0,0.3,0.1
	l0.1-0.1c0,0.2,0,0.3-0.2,0.3c0.1,0.1-0.2,0.2-0.2,0.2c-0.1,0-0.1-0.1-0.1,0.1h-0.2v0.1h-0.1v0.1v-0.1c0,0,0.1,0.1,0.1,0
	c0.2,0.1-0.3,0.3,0.3,0.1l0.1,0.1l0.1,0.1l-0.1,0.4h0.1h-0.1v0.3c0.2-0.1,0.1,0.2,0,0.2v0.2c0.5,0.1-0.3,0.7-0.2,0.5v-0.3h-0.2
	c-0.3,0,0-0.1-0.1-0.2h-0.1v0.1h-0.1c0.1,0,0.1,0,0.1,0.1c-0.1,0-0.2,0-0.1,0.1h-0.1h0.1h-0.1c-0.1,0,0.1,0.2,0.2,0.1l0.1,0.2v0.1
	c0.1-0.2,0.1,0,0.2,0.1v-0.1c0,0-0.1,0.3-0.2,0.2l0.1,0.1c-0.1,0-0.2,0.1-0.1,0.1c0.1-0.1,0.1,0.1,0.1,0.2h-0.6v-0.2h-0.1v-0.1
	l-0.1,0.1h0.1l-0.3,0.2v0.1h-0.1v0.1c0,0,0-0.2-0.1,0h-0.1v0.1h0.1v0.2h-0.1l-0.2,0.3h0.1h-0.2c0,0,0.1-0.1,0.1,0v0.1
	c0.1,0.1,0.1,0.2,0.2,0.1v0.1c0.1,0,0-0.2,0.1-0.1c0,0,0.1,0.3,0.1,0.1v0.1c0,0,0.4,0,0.3,0.2v0.1l0.1-0.1c0.1,0,0.4,0,0.5-0.1
	c0,0.1,0.1,0.1,0.2,0v0.2l0.1-0.2c0,0.2,0.1-0.1,0.2-0.1h0.1v0.4l0.1-0.1v0.2l-0.1,0.1h0.1v0.2l0.2,0.2c0.1-0.1-0.1-0.1,0.1-0.1
	c0,0.1,0.1,0,0.1-0.1v0.1h0.3c0.1,0-0.1,0.1,0,0v-0.1h0.1v0.1c0,0.1,0.2,0,0.1,0.1v-0.1l0.3,0.5v-0.1v0.2c-0.2,0.3-0.1,0.3-0.3,0.3
	h-0.1h0.1h-0.1c-0.1,0-0.1,0.1-0.3,0c-0.1,0-0.2,0.1-0.2,0.2v0.2c0,0-0.2,0.2-0.2,0.1v0.1l-0.1,0.1c0,0,0.2,0.1,0.2,0l0.1-0.1
	c0.1-0.1,0.1-0.2,0.2,0.1c0,0,0.1-0.2,0.1,0c0-0.1,0.1-0.1,0.1,0h0.1V485v0.1V485l0.1,0.1l0.2-0.1v0.1c0.1-0.2,0.4-0.4,0.5-0.4
	c0,0.2,0.3,0.1,0.2,0h0.2v0.5c-0.2,0-0.4,0-0.5,0.2h-0.2v0.2l-0.1,0.1v0.2h0.1v0.2l0.2,0.2v0.1v-0.1h-0.5l-0.3,0.3h-0.1l-0.1,0.1
	v-0.1h-0.2c-0.1,0.1-0.3,0.2-0.4,0.3l-0.1-0.2l-0.1-0.1l-0.1,0.1l-0.1,0.2v0.1l-0.1,0.1c0.1-0.1,0.1,0,0.1,0l-0.1,0.1v-0.1l-0.1-0.1
	v0.1l-0.1,0.1l-0.1-0.1h0.1h-0.1c0-0.1,0,0,0.1-0.1l-0.1-0.1c0,0.3-0.1,0.2,0.1,0.4h-0.2h0.1v0.1c-0.1,0,0,0.1,0,0.2v-0.1l-0.1,0.2
	c0.2,0.1,0.2,0.1,0.1,0.1l-0.2-0.1l-0.4-0.3c0.1-0.2,0-0.1,0-0.2c0-0.1-0.1-0.1,0.1-0.2v-0.1l-0.1,0.1v-0.1c-0.1,0-0.3-0.1-0.3-0.2
	h0.1v-0.1h0.1v-0.1l0.1,0.1l0.1,0.1v0.1c0.1-0.1,0-0.2,0-0.3h-0.1v-0.1v0.1l-0.1,0.1l0.1,0.1h-0.1v-0.1c0,0-0.1-0.1-0.1,0v-0.2
	l0.2-0.1h-0.1l0.1-0.1V486c0.1-0.2-0.2-0.2-0.1-0.2h-0.1v-0.2c0.1,0,0.1-0.1,0-0.1v0.1c-0.1-0.2,0-0.1,0-0.4h-0.1l0.1,0.1
	c-0.1,0-0.5-0.2-0.4-0.4v0.1c0.1-0.1,0-0.1,0-0.1v-0.1l-0.2,0.2l0.1,0.3l-0.1,0.2h-0.1c0,0-0.5,0.3-0.4,0.1h-0.3
	c0-0.1-0.3-0.1-0.3,0v0.1h0.1l0.1,0.1l-0.1,0.1c0,0,0.1,0.1,0.1,0.2c0.2,0,0.3,0.1,0.6,0.2v-0.1l0.1,0.1v0.1h0.3
	c-0.1,0.1,0.2,0.1,0.2,0.1l-0.1,0.2c0.1-0.1,0.3,0.2,0.1,0.2c0-0.1-0.1-0.2-0.2-0.2v-0.2l-0.1,0.1c0-0.1,0,0-0.1,0.1v-0.1l-0.2-0.1
	h-0.2h0.1h-0.1c0-0.1-0.1-0.1-0.2-0.1h0.1v0.1c0-0.1,0-0.2-0.2-0.2h-0.1v0.1h-0.1v0.1l-0.2,0.2c-0.1-0.2-0.3-0.2-0.4-0.1v-0.1
	l-0.2-0.1h-0.1v-0.1v0.1v-0.1l-0.3-0.1h-0.2h0.1l-0.2-0.1v0.2l-0.1,0.1v-0.1h-0.2v0.1h-0.1v0.2h0.1v0.1h-0.1c0,0.1,0,0.1,0.1,0.1
	l0.1,0.1h-0.1h0.1c0.1,0.1-0.1,0.2,0.1,0.3l-0.2,0.2l-0.1-0.1h-0.1v-0.1l-0.1,0.1l-0.1,0.1v9.8c0,2.3,1.9,4.2,4.2,4.2h8.5
	c8.8,0,11.9-4.1,13-8c0.4-1.6,0.6-3.2,0.6-4.3v0.2v-2.4c0-0.4-0.3-0.7-0.7-0.7h-7.8c-0.4,0-0.7,0.3-0.7,0.7v0.3
	c0,3.6-0.5,5.2-4.3,5.2c-4,0-4.3-2.5-4.3-6.5v-7.6c0-4,0.3-6.5,4.2-6.5h0.1c3.9,0,4.3,1.6,4.3,5.4v0.4c0.1,0.3,0.4,0.6,0.7,0.6h7.8
	c0.3,0,0.6-0.2,0.7-0.5v-2.1c0-1-0.1-3.1-0.5-4.7c-1-3.8-3.9-7.9-12.3-8.1h-2.4C-218,462.4-221.1,464.7-222.8,467.5"/>
<g>
	<g>
		<defs>
			<path id="SVGID_1_" d="M-226.7,488.7L-226.7,488.7L-226.7,488.7 M-226.9,488.4L-226.9,488.4L-226.9,488.4 M-226,488.3v0.4h0.1
				C-226,488.5-225.9,488.4-226,488.3 M-228.1,487.8c0.1,0.1-0.1,0.2,0,0.2V487.8 M-226.7,487.6L-226.7,487.6L-226.7,487.6
				L-226.7,487.6 M-225.2,487.6L-225.2,487.6L-225.2,487.6h0.2H-225.2 M-226.1,487.4l0.1,0.1L-226.1,487.4 M-226.3,487.4
				c-0.1,0.1,0,0.1,0,0.1V487.4 M-225.4,487.4L-225.4,487.4L-225.4,487.4 M-226,487.2l0.1,0.1C-225.8,487.3-225.8,487.2-226,487.2
				C-225.8,487.3-225.9,487.2-226,487.2C-225.9,487.3-225.9,487.2-226,487.2 M-226.5,487.2C-226.4,487.2-226.4,487.2-226.5,487.2
				 M-225.6,487.1L-225.6,487.1L-225.6,487.1L-225.6,487.1 M-223.8,487v0.1V487c0,0.1-0.1,0.2-0.1,0.2h0.1c0,0,0-0.1,0,0V487
				 M-226.4,487.1l0.1-0.1L-226.4,487.1 M-226.3,486.8C-226.2,486.8-226.3,486.9-226.3,486.8L-226.3,486.8L-226.3,486.8
				 M-227.5,486.9L-227.5,486.9l-0.1-0.1c0,0.1-0.2,0.4-0.3,0.3C-227.9,487.4-227.5,486.9-227.5,486.9l0.1-0.1L-227.5,486.9
				 M-225.1,486.7L-225.1,486.7C-225.2,487-225.1,486.9-225.1,486.7L-225.1,486.7 M-224.6,486.7L-224.6,486.7l0.1-0.1L-224.6,486.7
				l0.1-0.1L-224.6,486.7 M-217.8,486.7l-0.1,0.1l0.1,0.1V486.7L-217.8,486.7c0,0.2,0,0.3,0.1,0.2h-0.1V486.7l0.1,0.2l0.1-0.1v0.1
				C-217.6,486.8-217.5,486.6-217.8,486.7C-217.6,486.6-217.7,486.7-217.8,486.7C-217.7,486.7-217.8,486.6-217.8,486.7L-217.8,486.7
				 M-228.4,486.5C-228.5,486.4-228.4,486.6-228.4,486.5 M-224.2,486.4C-224.1,486.5-224.2,486.4-224.2,486.4v-0.1V486.4
				 M-223.9,486.2L-223.9,486.2L-223.9,486.2L-223.9,486.2 M-220.5,486.2L-220.5,486.2c0.2,0.1,0.2,0.1,0.2,0h0.1v-0.1L-220.5,486.2
				 M-216,486.2L-216,486.2L-216,486.2L-216,486.2 M-222.2,486.4l0.2-0.1h-0.2v-0.1V486.4 M-220.5,486.3v-0.2
				C-220.5,486.1-220.6,486.3-220.5,486.3 M-224.1,486.3v0.2C-224.1,486.4-224,486.4-224.1,486.3L-224.1,486.3v-0.2V486.3v-0.2
				V486.3v-0.2V486.3 M-227.2,486.1v0.2V486.1 M-220.4,486v0.1V486l0.1,0.1L-220.4,486 M-218.1,486c0,0.1,0.1,0.3,0.1,0.3h0.2
				L-218.1,486L-218.1,486L-218.1,486 M-217.9,485.9C-218.1,486-217.9,485.9-217.9,485.9 M-227,485.9L-227,485.9
				c-0.1,0.1-0.2,0.3-0.2,0.3l0.1-0.1C-227.1,486-227,486-227,485.9h0.3H-227 M-217.8,485.9l0.1,0.2v0.1L-217.8,485.9L-217.8,485.9
				C-217.7,485.8-217.7,485.9-217.8,485.9l0.1-0.1L-217.8,485.9 M-218.2,485.8v0.3l0.1,0.1L-218.2,485.8 M-218,485.7l0.1,0.1v-0.1
				C-217.9,485.7-217.9,485.8-218,485.7 M-221.7,485.7C-221.8,485.8-221.7,485.8-221.7,485.7L-221.7,485.7L-221.7,485.7
				L-221.7,485.7 M-220.5,486l0.1-0.1l-0.2-0.1C-220.6,485.9-220.6,486-220.5,486 M-218.3,485.8l-0.1-0.2L-218.3,485.8
				 M-219.5,485.7h0.1H-219.5 M-223.7,485.6l0.2,0.1v-0.2l-0.2-0.1V485.6 M-222.2,485.4v0.2V485.4 M-227.8,485.4v0.2V485.4v0.2
				V485.4 M-223.4,485.4h-0.1C-223.3,485.6-223.4,485.5-223.4,485.4 M-228.4,485.4C-228.4,485.3-228.3,485.4-228.4,485.4
				 M-227.7,485.3C-227.7,485.3-227.9,485.4-227.7,485.3 M-229,485.3c0,0.1-0.2,0.1-0.1,0.1l0.1,0.1V485.3l0.1,0.1L-229,485.3
				l0.1,0.1L-229,485.3 M-218.5,485.2l0.1,0.1v0.1c0.1,0-0.1,0,0,0.1h0.1c0,0.2,0,0.1,0.1,0.1l0.1,0.1v-0.2v0.1l-0.3-0.2
				L-218.5,485.2L-218.5,485.2 M-227.5,485.3v-0.1C-227.7,485.2-227.6,485.3-227.5,485.3 M-222.1,485.3
				C-222.2,485.3-222.1,485.3-222.1,485.3C-222.2,485.3-222.5,485.4-222.1,485.3l0.1-0.1V485L-222.1,485.3 M-226.4,485.2
				L-226.4,485.2L-226.4,485.2 M-219,484.9v0.1V484.9L-219,484.9 M-226.8,485l-0.2,0.2h0.1l0.1,0.2h0.1l0.1-0.1
				C-226.7,485.4-226.7,485.1-226.8,485l0.1,0.1C-226.6,485-226.7,484.9-226.8,485 M-226.2,485v0.1V485l0.2-0.2h-0.3L-226.2,485
				 M-220,485l0.1,0.1v0.3v-0.1h0.1c0.1-0.1,0.2,0,0.2,0l0.1-0.1c-0.1,0,0,0,0,0L-220,485c0-0.2,0-0.3-0.1-0.3
				C-220.1,484.8-220.1,484.9-220,485 M-225,484.6c0,0.1,0,0.2-0.1,0.2c0,0.1,0.1,0.3,0.1,0.3h-0.1c0,0.1,0.1,0.1,0,0.2
				c-0.1,0.1,0.1,0.1,0.2,0.2c0,0.1,0.4,0.3,0.5,0.1v-0.2c0,0.1,0.1-0.1,0.1-0.1c0,0.1,0.1-0.1,0.1-0.1v-0.1l-0.1,0.1
				c-0.1-0.1,0.1-0.2,0-0.2v-0.1c0,0.1,0.2-0.1,0.2-0.1l-0.1-0.1l0.1,0.1h-0.2l-0.3,0.4c0-0.2-0.1-0.3-0.2-0.4h0.1l-0.1-0.1
				L-225,484.6L-225,484.6 M-224.7,484.5v0.2h0.1v0.1c0-0.1,0.1-0.1,0.1-0.2L-224.7,484.5 M-219.8,484.4l0.1,0.1l0.1-0.1
				c-0.1,0.2,0.1,0.2,0.2,0.2v0.2v-0.1v0.1l0.1-0.1c0,0.1,0.1,0.1,0.1-0.1h-0.1l0.1-0.2h-0.1l-0.1-0.1c-0.1,0.1-0.1,0.1-0.1,0
				l-0.1,0.1c-0.1,0-0.2,0-0.2-0.1V484.4 M-220.7,484.3L-220.7,484.3C-220.6,484.2-220.7,484.3-220.7,484.3 M-216.4,484.2
				C-216.4,484.2-216.5,484.3-216.4,484.2 M-219.9,484.3c0,0-0.2,0.1-0.1,0.1L-219.9,484.3v0.2
				C-219.9,484.8-219.6,484.5-219.9,484.3 M-221.2,484.2c0,0.2,0.1,0.1,0.1,0.2l0.3-0.2C-220.9,484.2-221,484.1-221.2,484.2
				L-221.2,484.2 M-216.3,484.3L-216.3,484.3C-216.3,484.2-216.4,484.3-216.3,484.3 M-228.8,483.9
				C-228.7,483.9-228.7,483.9-228.8,483.9 M-228.6,483.9L-228.6,483.9L-228.6,483.9 M-225.1,483.8L-225.1,483.8L-225.1,483.8
				L-225.1,483.8 M-222.3,483.7L-222.3,483.7L-222.3,483.7 M-228.7,483.6l0.2,0.1l-0.1,0.1l0.1,0.1l0.1-0.1v-0.1l-0.2-0.2
				L-228.7,483.6 M-224.7,483.4L-224.7,483.4L-224.7,483.4l0.2,0.1L-224.7,483.4L-224.7,483.4 M-225.4,483.4L-225.4,483.4
				L-225.4,483.4L-225.4,483.4 M-225,483.5C-225.1,483.5-225.1,483.6-225,483.5v0.2l0.1,0.1h0.1l0.1-0.1c0,0-0.1,0.2,0,0v0.1h0.2
				c0-0.2-0.2-0.1-0.2-0.2c0.1-0.1-0.1-0.1-0.2-0.1H-225l0.2-0.1C-224.8,483.3-225.2,483.4-225,483.5 M-221.6,483.4v0.1V483.4
				 M-221.7,483.4c0-0.1,0.1-0.2,0-0.1V483.4v-0.2h-0.1C-221.8,483.4-221.7,483.4-221.7,483.4 M-224.4,483.3L-224.4,483.3
				L-224.4,483.3C-224.4,483.2-224.5,483.2-224.4,483.3 M-221.2,483.2c0,0-0.1,0.2-0.1,0.3L-221.2,483.2L-221.2,483.2 M-223.5,483.2
				c0,0.1-0.2,0.1-0.2,0.2l0.1,0.1v0.1l-0.2,0.2l0.3,0.1l0.1-0.1l0.1,0.1h0.2l0.1,0.1c0-0.1,0-0.3-0.1-0.3v0.1v-0.4v0.1
				c0,0-0.1-0.1,0-0.1h-0.3C-223.3,483.4-223.4,483.2-223.5,483.2C-223.6,483.3-223.4,483.2-223.5,483.2 M-222,483.2
				C-222.1,483.3-222,483.2-222,483.2 M-223.4,483.2l0.1,0.1C-223.2,483.2-223.3,483.2-223.4,483.2 M-224,483.1L-224,483.1
				L-224,483.1v0.3h0.1c0-0.1,0-0.1,0,0l-0.1-0.1C-223.9,483.3-224,483.2-224,483.1 M-225.4,483.1c-0.2,0.1,0,0.2,0,0.2V483.1
				 M-222.3,483.1C-222.3,483.2-222.3,483.4-222.3,483.1l0.1,0.2L-222.3,483.1 M-222.1,483c0,0,0,0.3,0.1,0.2
				c0.1,0.1,0.1,0.2,0.2,0.2l-0.1-0.1l0.1-0.1v-0.1c0,0-0.1,0.1,0,0h-0.1c0.1,0,0,0,0,0S-221.9,483-222.1,483 M-224.3,482.9
				L-224.3,482.9L-224.3,482.9 M-221.7,482.8L-221.7,482.8L-221.7,482.8 M-225.1,482.8C-225.1,482.9-225.1,482.8-225.1,482.8
				 M-221.1,482.9c0,0.1,0.2,0.3,0.2,0.4v0.1v-0.2v0.1v-0.5C-221,483-221,482.9-221.1,482.9l0.1-0.2L-221.1,482.9 M-228,482.8h0.1
				H-228 M-222.3,482.8l0.2,0.1l0.1-0.1v-0.1h-0.1l-0.1-0.1L-222.3,482.8 M-220.8,482.7h0.3c0-0.1-0.1-0.1-0.2-0.1L-220.8,482.7
				 M-220.5,482.6l0.1,0.1L-220.5,482.6 M-221.9,482.6L-221.9,482.6L-221.9,482.6 M-221.1,482.5l0.1,0.1L-221.1,482.5 M-222.1,482.6
				v-0.1C-222.2,482.6-222.2,482.6-222.1,482.6 M-221.2,482.6l0.1-0.1L-221.2,482.6 M-221.6,482.4L-221.6,482.4
				c-0.1,0.2-0.2,0.2-0.2,0.3c0,0,0.2,0,0,0.1l0.2-0.1V482.4 M-224.6,482.4c0-0.1-0.1,0-0.1,0.1L-224.6,482.4c0.1,0.1,0.1,0.2,0.1,0
				H-224.6 M-221.5,482.3C-221.5,482.3-221.6,482.5-221.5,482.3 M-221.9,482.3L-221.9,482.3L-221.9,482.3L-221.9,482.3
				 M-220.6,482.3c0.1,0.1,0.1,0,0.1,0.1v-0.1H-220.6 M-220.7,482L-220.7,482L-220.7,482L-220.7,482 M-222.1,481.9
				C-222.2,481.9-222.2,481.9-222.1,481.9C-222.3,482.1-222.1,481.9-222.1,481.9 M-222,482C-222,482-222.1,482-222,482
				 M-219.2,481.9v0.2V481.9 M-226.1,481.8C-226.1,481.7-226,481.7-226.1,481.8L-226.1,481.8 M-221.5,481.7l0.2,0.1v-0.1H-221.5
				L-221.5,481.7L-221.5,481.7 M-225.7,481.7C-225.7,481.8-225.7,481.8-225.7,481.7l0.1-0.2L-225.7,481.7 M-219,481.6v0.2h-0.1v-0.1
				c0,0,0.2,0.1,0.2,0v-0.1c0.1-0.1,0-0.2-0.1-0.2V481.6 M-220,482.8C-220,482.9-220,482.8-220,482.8 M-219.9,482.4l0.1,0.1
				C-219.9,482.6-219.9,482.5-219.9,482.4v0.1V482.4C-219.8,482.4-219.8,482.4-219.9,482.4 M-220.9,481.6l-0.1-0.1l0.3,0.3
				c0-0.2,0.3,0.2,0.3,0.2l0.1-0.2h0.1v0.1l-0.1,0.1v0.1V482v0.1c0-0.1,0.1,0.1,0.1,0.1h-0.1c0,0.1,0.2,0.2,0.1,0.3h-0.1l-0.1,0.1
				c-0.1,0.3-0.1,0.1-0.2,0.1v-0.1h-0.1v0.4c0,0,0.2,0,0.1-0.1l0.1-0.1c0,0.1,0.1,0.1,0.1,0l0.1,0.2v0.1l0.3,0.1
				c0,0,0.4-0.4,0.2-0.5v-0.1h-0.1c0,0-0.1,0.1-0.1,0c0.1,0,0.1-0.2,0.1-0.2v-0.1h-0.1c0.2,0-0.1-0.3-0.2-0.2c0,0,0-0.4-0.2-0.3
				l-0.2-0.1l-0.1-0.2c-0.1,0,0.1,0.2,0,0.2C-220.7,481.6-220.8,481.6-220.9,481.6L-220.9,481.6L-220.9,481.6L-220.9,481.6v0.2
				l-0.1-0.2C-221,481.7-221,481.6-220.9,481.6h-0.2C-220.8,481.4-220.9,481.5-220.9,481.6 M-221.8,481.5L-221.8,481.5L-221.8,481.5
				 M-219.3,481.5L-219.3,481.5L-219.3,481.5 M-221.7,481.4v0.1C-221.6,481.4-221.7,481.4-221.7,481.4 M-219.6,481.4v0.2h0.1
				c0,0.1,0,0.2,0.1,0c0,0.1,0,0.1,0.1,0.1h-0.1c0.1,0,0.3-0.1,0.3-0.2s-0.2,0-0.3,0v-0.1h-0.1c0-0.2-0.1-0.1-0.1-0.1V481.4l0.1-0.1
				L-219.6,481.4 M-226.5,481.4v-0.1V481.4 M-219.3,481.2L-219.3,481.2C-219.3,481.3-219.2,481.2-219.3,481.2 M-225.7,481.2
				L-225.7,481.2L-225.7,481.2 M-219.5,481.2C-219.5,481.2-219.4,481.3-219.5,481.2 M-224.6,481.2l0.1-0.1L-224.6,481.2
				 M-224.7,481.8C-224.6,481.9-224.7,481.8-224.7,481.8 M-224.5,481.4h-0.2c-0.1-0.2-0.1,0.2-0.1,0.2l-0.1,0.1h-0.1l0.1,0.1h-0.2
				v0.1h-0.1c0,0,0,0.3,0.1,0.1v0.1c-0.1-0.1-0.2,0.1-0.2,0.2v0.1l-0.2-0.1v0.1h-0.1v-0.1c-0.1,0-0.1,0.2-0.2,0.1v0.2h0.1v0.1h0.1
				v0.2l0.2,0.1h-0.1l0.2-0.3v-0.1c0,0.1,0.1,0,0.1-0.1l0.3-0.1c-0.1-0.1,0-0.1,0-0.3c0.2,0,0.1,0.1,0.1,0.1c0.1,0,0,0,0.1-0.1h0.1
				V482h0.2c0.1-0.3-0.1-0.4,0.1-0.4c0-0.1,0-0.2,0.1-0.1v0.1c0.2,0,0-0.2,0-0.2h0.2l0.1-0.1c-0.1,0-0.1-0.1-0.1-0.2
				C-224.3,481.1-224.5,481.4-224.5,481.4 M-226,481.1c0,0,0.1,0.1,0,0.2V481.1v0.3c0.1,0.2,0.2,0,0.1-0.2
				C-225.9,481.2-225.9,481-226,481.1 M-224.4,481C-224.4,481.1-224.4,481.1-224.4,481L-224.4,481L-224.4,481 M-218.9,480.9l0.1,0.2
				L-218.9,480.9l0.2,0.1v-0.1H-218.9 M-226.2,480.8c-0.2,0.1,0.1,0.4,0.1,0.3l-0.1-0.1h0.1L-226.2,480.8 M-226.2,480.7
				C-226.2,480.8-226.1,480.7-226.2,480.7 M-224.5,480.5L-224.5,480.5L-224.5,480.5C-224.6,480.5-224.6,480.6-224.5,480.5l-0.1,0.2
				v0.1h-0.1c0,0.1-0.1,0.2-0.1,0.1c-0.1,0-0.3,0.2-0.2,0.3c0.2,0,0.2-0.1,0.3-0.3l-0.1,0.1l0.1-0.1l0.2-0.1l-0.1-0.1v-0.1l0.2-0.2
				C-224.4,480.5-224.5,480.5-224.5,480.5 M-224.9,480.5c0.1,0.1,0,0.1,0,0.2h0.2c0.2-0.1,0-0.2,0.1-0.3L-224.9,480.5 M-225.5,480.3
				L-225.5,480.3L-225.5,480.3L-225.5,480.3C-225.3,480.4-225.6,480.4-225.5,480.3L-225.5,480.3L-225.5,480.3 M-222.8,480.3
				l-0.2,0.2h0.1C-222.8,480.5-222.8,480.4-222.8,480.3 M-224.3,480.2C-224.3,480.3-224.2,480.3-224.3,480.2L-224.3,480.2
				 M-220.6,480.1L-220.6,480.1L-220.6,480.1 M-219.3,480l0.1-0.1l-0.1-0.1V480 M-219.7,479.9l0.1,0.1L-219.7,479.9 M-222.9,479.9
				l0.1,0.1L-222.9,479.9 M-222.1,479.9v0.1l-0.1,0.1v0.1h0.1v-0.1C-221.9,480-222,479.9-222.1,479.9 M-219.9,480v-0.2V480
				 M-222.9,479.9C-223,479.8-223,479.9-222.9,479.9 M-218.1,479.9C-218.1,479.9-218,479.9-218.1,479.9h0.2l-0.1,0.2l0.1,0.1
				c-0.1,0-0.1-0.1-0.2-0.1v0.1c0.1,0,0.1,0.1,0.2,0.1l0.3-0.1c0-0.1,0-0.1-0.1,0V480l-0.1-0.1l-0.2-0.1L-218.1,479.9 M-218.4,479.8
				c0.1,0.1,0,0.2,0.1,0.2L-218.4,479.8 M-219.5,479.8c0,0,0,0.1,0.1,0.1L-219.5,479.8 M-218.1,479.7
				C-218.2,479.8-218.1,479.9-218.1,479.7 M-218.9,479.9C-218.9,480-219,479.9-218.9,479.9l-0.1,0.2v0.1h0.2L-218.9,479.9
				c0.1,0.2,0.2,0.2,0.2,0.3l0.1-0.1c-0.1,0,0.1,0.1,0.2,0.1h0.2v0.1c0-0.2-0.1-0.1-0.1-0.1v-0.1l-0.1,0.1l-0.1-0.2h-0.1
				c0-0.1,0-0.1,0.1-0.1h-0.1c-0.1,0-0.2,0-0.2-0.1L-218.9,479.9 M-222.7,479.8L-222.7,479.8L-222.7,479.8 M-220.9,479.7
				L-220.9,479.7L-220.9,479.7 M-221.1,479.7L-221.1,479.7L-221.1,479.7 M-219.1,479.7v0.3l0.1-0.1c0,0.1,0.1-0.1,0.1-0.1
				L-219.1,479.7 M-223.5,479.5v0.2h-0.2v-0.1l-0.1,0.2h-0.1c0,0.1,0.2,0.3,0.3,0.2c0.1,0.2,0.5-0.1,0.3-0.1v-0.1h-0.1
				c0.1,0,0-0.1,0-0.1L-223.5,479.5 M-219.9,479.5v0.1l0.1,0.1c0,0,0.2,0,0-0.1L-219.9,479.5 M-221.4,479.7L-221.4,479.7
				L-221.4,479.7h-0.2v0.1h-0.1v0.1h0.2L-221.4,479.7C-221.4,479.6-221.5,479.5-221.4,479.7 M-220,479.6
				C-219.8,479.6-220,479.6-220,479.6 M-222.7,479.5v0.1V479.5 M-224.9,479.6c0.1,0.1,0.1,0,0.1-0.1L-224.9,479.6 M-219.9,479.5
				C-220,479.5-219.9,479.5-219.9,479.5 M-217.2,479.4L-217.2,479.4L-217.2,479.4C-217.2,479.5-217.1,479.3-217.2,479.4 M-220,479.2
				c0.1,0.1,0.2,0.3,0.3,0.1h-0.1L-220,479.2 M-221.6,479.2l0.1,0.1v-0.2L-221.6,479.2 M-221.8,479.2L-221.8,479.2L-221.8,479.2
				 M-220.5,479.2l0.2,0.1v0.1h-0.1c-0.3-0.6,0,0,0,0.1h-0.1l0.1,0.1v-0.1l0.1-0.1v0.2l0.1-0.1l0.2,0.1h-0.1
				c0.1-0.2-0.2-0.2-0.2-0.2c0-0.2,0.1-0.4-0.1-0.4v-0.1l-0.2-0.1C-220.5,479-220.5,479.1-220.5,479.2 M-220.7,478.9l0.1-0.1
				L-220.7,478.9 M-220.6,478.8C-220.6,478.9-220.5,478.9-220.6,478.8 M-220.7,478.8L-220.7,478.8L-220.7,478.8 M-223,478.7
				L-223,478.7L-223,478.7 M-220.7,478.7C-220.6,478.6-220.6,478.6-220.7,478.7L-220.7,478.7C-220.7,478.6-220.8,478.7-220.7,478.7
				 M-221.9,478.7v0.3l0.1-0.1v0.1l0.2-0.1l0.2-0.1c0-0.2-0.1-0.2-0.1-0.2h-0.1c-0.1,0,0,0,0-0.1
				C-221.8,478.4-221.9,478.6-221.9,478.7 M-217.6,478.4L-217.6,478.4L-217.6,478.4L-217.6,478.4 M-224.4,478.3
				C-224.5,478.4-224.4,478.5-224.4,478.3 M-224.4,478.2v0.2C-224.3,478.4-224.2,478.2-224.4,478.2 M-222.8,478.3v-0.1V478.3
				 M-221.4,478.3L-221.4,478.3L-221.4,478.3v0.2c0,0.1,0.1,0.1,0.2,0.1h0.1v-0.3l-0.1-0.1C-221.3,478.2-221.4,478.3-221.4,478.3
				 M-221.5,478.1C-221.5,478.1-221.5,478.3-221.5,478.1 M-224.7,478.3L-224.7,478.3c0.1,0,0.1,0.1,0.1,0.2L-224.7,478.3
				c-0.1-0.1,0-0.1,0-0.2h-0.1C-224.7,478.1-224.7,478.2-224.7,478.3 M-221.3,478.1V478V478.1 M-224.2,478l0.1,0.1h0.1
				C-224.1,477.9-224.1,478-224.2,478 M-226.9,478C-226.9,478-226.9,478.2-226.9,478l0.1-0.1L-226.9,478 M-226.8,478.1l0.1-0.2
				L-226.8,478.1 M-222.3,477.9L-222.3,477.9L-222.3,477.9l0.1,0.2l0.1-0.1c0,0,0.1,0.3,0.2,0.1c-0.1-0.1-0.1-0.2-0.2-0.1v-0.1
				H-222.3 M-224.5,477.7v0.3c0.1,0.1,0,0.2,0.1,0v0.1C-224.2,478.1-224.5,477.8-224.5,477.7l0.1,0.2l0.1-0.1l-0.1,0.1
				c0-0.1,0.1-0.1,0.1-0.1C-224.5,477.7-224.5,477.9-224.5,477.7 M-219.9,477.7L-219.9,477.7v-0.2V477.7 M-218.7,477.6L-218.7,477.6
				L-218.7,477.6 M-217.7,477.6v-0.2V477.6 M-224.4,477.5c0.1,0-0.1,0.2,0,0.2V477.5l0.1,0.2C-224.3,477.5-224.4,477.5-224.4,477.5
				 M-227.1,477.2l0.1-0.1C-227.1,477.1-227.1,477.1-227.1,477.2 M-218.8,477.2L-218.8,477.2L-218.8,477.2L-218.8,477.2
				L-218.8,477.2L-218.8,477.2l0.1,0.2h-0.2c0.1,0.1,0.2,0.2,0.3,0.2l0.1,0.1h0.2l0.1-0.1v-0.2h-0.5L-218.8,477.2
				C-218.9,477.3-218.7,477.2-218.8,477.2C-218.6,477-218.8,477-218.8,477.2 M-223.5,477.2L-223.5,477.2L-223.5,477.2 M-223.7,477
				l-0.1,0.1h-0.2l0.1-0.1l-0.1,0.2h-0.1c0.1,0,0-0.1,0.1-0.1c0-0.1-0.1-0.1-0.1-0.1v0.3l-0.2,0.1v0.1h-0.1c0,0.2,0.1,0.2,0.2,0.2
				h0.1v-0.1h0.2v0.2c0.1,0.2,0,0.2-0.1,0.2v0.1l0.1,0.1l-0.2,0.2h0.2c0.1,0.1,0.1,0.1,0.3,0c0.1,0,0.4-0.3,0.4-0.1l0.1-0.1l0.2,0.1
				V478c0.2,0.3,0.2-0.4,0.2-0.4c0-0.1-0.2-0.1-0.2-0.1h-0.2c0.1-0.1,0-0.1,0-0.2c0,0-0.3,0.1-0.2,0h0.1l-0.1-0.1
				c-0.1-0.1-0.1-0.1-0.2-0.3h0.1v-0.1L-223.7,477 M-223,476.8v0.2h0.1L-223,476.8 M-219.1,477.5
				C-219.4,477.4-219.1,477.4-219.1,477.5L-219.1,477.5 M-219.2,476.9h-0.3v0.2h-0.1V477l-0.1-0.2h-0.1c0.1,0.1,0,0.2,0,0.3h0.1
				c0,0.1,0.1,0,0.2,0h-0.1c0,0.1,0.1,0,0.1,0.1h-0.1l0.1,0.1h-0.1l-0.1-0.1v-0.1l-0.1,0.1l0.2,0.2v-0.1v0.1h0.2c0,0.2,0.1,0,0.2,0
				c0,0.1,0.1,0.2,0,0.3h0.3c0.1,0.2,0.3,0,0.3,0v0.1v-0.1c-0.1,0.1-0.2-0.1-0.3-0.2l-0.1-0.1v-0.2l-0.1,0.1v-0.1l0.1,0.1v-0.2v0.1
				h-0.1V477L-219.2,476.9l0.1,0.1c0-0.1,0.1-0.2,0-0.3L-219.2,476.9 M-224,476.9v-0.1V476.9 M-224,476.8l0.1,0.2L-224,476.8h0.2
				v0.1l0.1-0.1H-224 M-220,476.7c-0.1-0.1-0.1,0-0.1-0.1h-0.1l-0.2,0.2v0.1l0.1,0.1v-0.1v0.1l0.1-0.1l-0.1,0.1
				c0.1,0,0.1-0.1,0.1-0.2v-0.1C-219.9,476.9-219.9,476.8-220,476.7v-0.2C-220,476.6-219.9,476.7-220,476.7 M-223.5,476.6l0.1,0.1
				h0.1v-0.1l0.1,0.1v0.1h-0.1v0.1c0.1-0.2,0.3-0.1,0.3,0.1v-0.2c0,0.1,0,0,0,0v-0.1h-0.2v-0.1c0,0.1,0.1,0,0.1,0H-223.5
				 M-224.1,476.6L-224.1,476.6L-224.1,476.6 M-217.4,476.6c-0.2,0.1,0.2,0.2,0.3,0.2L-217.4,476.6h0.2H-217.4
				c0.1,0.1-0.1-0.2,0-0.2h-0.2C-217.6,476.6-217.5,476.6-217.4,476.6 M-224.7,476.4C-224.7,476.6-224.6,476.4-224.7,476.4
				 M-224.5,476.5L-224.5,476.5L-224.5,476.5c-0.2,0-0.3,0.1-0.3,0h-0.1v0.2l-0.1,0.1c-0.1,0.3,0.2,0.1,0.4,0.2v-0.1l0.1-0.2V476.5
				L-224.5,476.5L-224.5,476.5L-224.5,476.5c0.1,0,0.2,0.1,0.2-0.1h-0.1c0,0-0.1,0-0.1-0.1V476.5 M-220.2,476.4L-220.2,476.4
				L-220.2,476.4 M-219.7,476.3c0,0.3,0.3,0.1,0.3,0.1h-0.1L-219.7,476.3 M-218.9,476.3l-0.2,0.2v0.2h-0.1c0.1,0,0,0,0,0l0.2,0.4
				c0-0.1,0-0.3,0.1-0.2v0.1c0.1,0,0.2-0.1,0.2-0.2v0.1l0.1-0.1v-0.5h-0.1c0,0.1,0.1,0.2,0.1,0.3
				C-218.6,476.6-218.7,476.3-218.9,476.3L-218.9,476.3L-218.9,476.3L-218.9,476.3L-218.9,476.3
				C-218.9,476.3-218.8,476.3-218.9,476.3C-218.8,476.2-218.9,476.3-218.9,476.3 M-219.1,476.2c0,0,0.1,0.1,0.1-0.1L-219.1,476.2
				 M-222.3,476c-0.1,0.2-0.1,0.2,0,0.2c0,0-0.1,0.1,0,0.2C-222.3,476.2-222.2,476.1-222.3,476 M-223.1,476l-0.1,0.1L-223.1,476
				c-0.2,0-0.1,0.2-0.1,0.1l-0.1,0.1h0.4v0.1v-0.2C-222.8,476.1-223,476.1-223.1,476C-222.9,476-223.1,476-223.1,476 M-216.8,476
				C-216.8,476.2-216.7,476-216.8,476L-216.8,476L-216.8,476 M-223.2,475.7L-223.2,475.7L-223.2,475.7 M-222.8,475.6L-222.8,475.6
				L-222.8,475.6C-222.9,475.8-222.7,475.8-222.8,475.6l0.1,0.2c0.1,0,0.1,0,0.1-0.1L-222.8,475.6L-222.8,475.6L-222.8,475.6
				L-222.8,475.6L-222.8,475.6L-222.8,475.6l0.1-0.1h-0.1V475.6 M-221.2,475.6c0.1-0.1-0.2-0.1-0.2,0l-0.1-0.1v0.1l-0.1-0.1v0.1
				c0,0,0.2,0.3,0.3,0.2c0-0.2,0.3-0.1,0.3-0.1l0.1,0.1l0.1,0.1v0.1l-0.2-0.1l-0.1,0.1l0.2,0.2c0,0.1,0.1,0.1,0,0.1v0.1h-0.1
				c0,0.1,0.1,0.1,0.1-0.1c0.1,0,0.1-0.3,0.2-0.4v0.1c0,0.1,0,0.1-0.1,0.2l0.1-0.1h0.1V476h-0.1c0.1,0-0.3-0.4-0.2-0.5l-0.1,0.1
				v-0.2L-221.2,475.6 M-223,475.5L-223,475.5l0.1,0.2h0.1h-0.1C-222.8,475.6-223,475.4-223,475.5 M-221.8,475.7h-0.2v-0.2
				c0,0,0-0.1-0.1,0l-0.2,0.2v0.1v-0.1c0,0.1,0.1,0.2,0.2,0c0,0.1,0,0.2,0.1,0.1c-0.1,0.1,0.1,0.2,0.1,0.2v0.1V476l0.2,0.1
				C-221.7,476-221.8,475.7-221.8,475.7L-221.8,475.7L-221.8,475.7c0.1,0,0-0.1,0.1-0.2l-0.1-0.1V475.7 M-223.6,475.3L-223.6,475.3
				c-0.1,0.1,0,0.1,0.1,0.2v0.1c0.1-0.1,0.1-0.1,0.1-0.2C-223.4,475.3-223.5,475.3-223.6,475.3L-223.6,475.3 M-222.9,475.1
				L-222.9,475.1L-222.9,475.1 M-223.7,474.9L-223.7,474.9L-223.7,474.9 M-221.6,474.9l-0.1,0.1h0.1
				C-221.7,474.9-221.5,474.9-221.6,474.9L-221.6,474.9 M-221.8,474.8L-221.8,474.8l-0.2,0.1v0.2c0.1,0,0.2,0.2,0.2,0V474.8l0.1,0.2
				L-221.8,474.8L-221.8,474.8 M-220.5,474.1h0.2C-220.3,474-220.4,474.1-220.5,474.1L-220.5,474.1L-220.5,474.1L-220.5,474.1
				 M-222.8,474.1L-222.8,474.1c0.2,0,0.2-0.2,0.2-0.2h-0.1C-222.8,473.9-222.8,474-222.8,474.1 M-220.7,474v0.2V474L-220.7,474
				L-220.7,474c0,0,0.1-0.1,0-0.1V474 M-222.9,473.8C-222.8,473.8-222.8,473.9-222.9,473.8 M-221.6,473.7
				C-221.7,473.8-221.6,473.7-221.6,473.7 M-222.8,473.8L-222.8,473.8v-0.1C-222.8,473.6-222.9,473.8-222.8,473.8 M-222,473.6
				L-222,473.6L-222,473.6L-222,473.6c0,0-0.1,0.2-0.2,0.3h0.1h-0.1h0.1v-0.1v0.1h0.1h-0.1h0.1v-0.1l0.2-0.1v-0.1L-222,473.6
				 M-221.5,473.5C-221.5,473.4-221.6,473.5-221.5,473.5L-221.5,473.5c0.1,0.1,0,0.3,0.1,0.2c0,0.1,0.1,0.2,0.1,0.1
				c0.1,0,0.1,0,0.2-0.1v0.1h0.1l0.1-0.1h-0.2c0,0,0-0.1-0.1-0.2l0.1,0.1h-0.2v-0.1v0.1L-221.5,473.5
				C-221.5,473.6-221.5,473.6-221.5,473.5 M-219.9,473.4C-219.9,473.5-219.9,473.4-219.9,473.4 M-221.6,473.4v-0.1V473.4
				 M-223.7,473.2l-0.1,0.2L-223.7,473.2v0.2V473.2 M-219.8,473.2C-219.5,473.3-219.7,473.2-219.8,473.2L-219.8,473.2L-219.8,473.2
				 M-222.4,473.1l-0.1,0.1L-222.4,473.1L-222.4,473.1l-0.2,0.2l0.1-0.1L-222.4,473.1L-222.4,473.1h0.2
				C-222.2,473.1-222.4,473.2-222.4,473.1 M-222.3,473L-222.3,473l0.1,0.2l0.1-0.1c-0.1,0,0,0-0.1,0.1
				C-222.2,473-222.1,473-222.3,473 M-220.2,473L-220.2,473L-220.2,473 M-222.1,472.9v0.1V472.9 M-221.8,472.9
				C-221.8,473-221.7,472.9-221.8,472.9L-221.8,472.9 M-222.7,471.4c-0.3,0.2-0.1,0.3-0.1,0.2L-222.7,471.4L-222.7,471.4v0.1V471.4
				 M-220,471.4v0.2c0.1-0.1,0.1-0.2,0.1-0.3L-220,471.4 M-223.4,471.2L-223.4,471.2c-0.1,0.2,0,0.2,0,0.2V471.2 M-223,471.2
				L-223,471.2L-223,471.2 M-223.7,471.1L-223.7,471.1L-223.7,471.1 M-222.8,470.9v0.2c0,0.1,0.1,0,0.1,0L-222.8,470.9L-222.8,470.9
				c0,0.1,0.2,0,0.2,0C-222.7,470.9-222.7,470.8-222.8,470.9 M-224.2,471.1L-224.2,471.1L-224.2,471.1 M-223.5,470.9
				c0.1,0.1,0,0.1,0,0.1v0.1h0.1l-0.1,0.1c0.3-0.1,0-0.1,0.1-0.2l-0.1,0.1V470.9 M-224.8,470.8
				C-224.7,470.8-224.8,470.8-224.8,470.8 M-221.6,470.7c-0.1,0.1,0,0.1-0.1,0.1c0,0,0.1,0.2,0.1,0.1l-0.1-0.1L-221.6,470.7
				 M-222.8,470.6v0.2C-222.9,470.7-222.8,470.7-222.8,470.6l-0.1,0.2L-222.8,470.6L-222.8,470.6 M-224.6,470.6L-224.6,470.6
				l-0.1,0.2c0,0-0.1,0.1,0,0.1v0.1v-0.1l0.1,0.2c0.1-0.2,0,0.2,0.1,0.2l0.1-0.1v0.1v-0.1h-0.1l0.1-0.1V471v0.1l-0.1-0.1
				c-0.1-0.1,0.1-0.1,0.1-0.2L-224.6,470.6 M-223.7,470.5C-223.6,470.5-223.7,470.6-223.7,470.5 M-224.8,470.2
				C-225,470.2-224.7,470.3-224.8,470.2 M-221.8,470.2C-221.8,470.3-221.7,470.4-221.8,470.2C-221.8,470.2-221.8,470.3-221.8,470.2
				 M-223.7,469.9l0.1,0.2l0.1-0.1c0.1,0.1,0.2,0,0.2,0.2h-0.1v0.1h-0.1c0.1,0.1,0.1,0.2,0,0.2v0.1l0.3-0.1l-0.2-0.1
				c0.1,0,0.1-0.2,0-0.3l-0.1-0.1v-0.1v0.1v-0.1L-223.7,469.9 M-223.5,469.8C-223.5,469.7-223.7,469.8-223.5,469.8 M-223.7,469.6
				L-223.7,469.6L-223.7,469.6 M-223.3,469.4C-223.3,469.6-223.2,469.4-223.3,469.4 M-218.3,487.8L-218.3,487.8L-218.3,487.8
				 M-216.2,484.8C-216.2,484.7-216.2,484.7-216.2,484.8 M-222.8,467.5V464c0-0.4-0.3-0.7-0.7-0.7h-8.2c-0.4,0-0.7,0.3-0.7,0.7v18.4
				c0,0.5-0.4,0.6-0.6,0.2l-7.2-17.4l-0.3-0.7c-0.5-1.1-0.5-1.2-1.9-1.2h-8.9c-0.4,0-0.7,0.3-0.7,0.7v36.4c0,0.4,0.3,0.7,0.7,0.7
				h7.8c0.4,0,0.7-0.3,0.7-0.7V482c0-0.5,0.4-0.6,0.6-0.2l7.2,17.4l0.3,0.7c0.2,0.7,0.9,1.2,1.6,1.2h5.5c2.3,0,4.2-1.9,4.2-4.2v-9.5
				c-0.1,0-0.2-0.1-0.3-0.1l-0.1-0.1l0.1,0.2h-0.2v-0.1v0.1l0.1-0.1h-0.2c0,0.2,0,0.3,0.1,0.2h0.1l0.1,0.1h-0.1l0.1,0.1
				c0,0-0.2,0-0.2-0.1v0.2v-0.1l-0.1,0.1l-0.1,0.1c-0.1,0.2,0,0.2,0,0.2h-0.3c-0.2,0-0.3,0.1-0.5,0.1l0.1-0.1l-0.1,0.1l-0.2-0.1h0.1
				c-0.1-0.1,0-0.3-0.2-0.3v0.2l-0.1-0.2l-0.1,0.1l-0.2,0.5v-0.1l0.1,0.1h-0.1l0.1,0.1l-0.1,0.4v-0.1c-0.2,0-0.2,0-0.2,0.2h-0.1
				v-0.1l-0.1,0.2h-0.1c0-0.1,0.1-0.3,0.1-0.4h-0.1l-0.2,0.2v-0.1l-0.1,0.3l-0.2,0.1v-0.1h-0.1c0,0.3,0.2,0.2,0,0.2v0.1
				c-0.1,0.1-0.1,0.3-0.2,0.1c-0.1-0.2,0-0.3,0-0.3c0.1,0,0.1-0.3,0.2-0.4l-0.1,0.1v0.1v-0.1h-0.2c0,0-0.1-0.2-0.2-0.2
				c0-0.2-0.1-0.2-0.2-0.3l0.1-0.1l-0.1-0.2c0,0,0.1-0.1,0.2,0.1v-0.1c0.1-0.1,0.1-0.5,0.3-0.4c-0.2-0.2,0-0.4,0.1-0.5
				c0-0.1,0-0.5,0.2-0.3v-0.1h0.1v-0.1h0.1l-0.1-0.1l0.1-0.1h0.1h-0.3v-0.1v0.1v-0.2l0.3,0.1c0.1-0.1,0-0.2,0-0.2
				c0-0.1,0-0.2,0.1-0.3v0.1v-0.2v0.1l-0.1,0.1l-0.2,0.2v-0.1l-0.1,0.2h-0.1l-0.3,0.3v-0.1c-0.1,0.1-0.2,0.5-0.2,0.3l0.1,0.1
				c-0.1,0-0.2,0.1-0.1,0.2c-0.1-0.1,0,0.3-0.2,0.3c-0.1,0-0.1,0.2-0.2,0.3l-0.1-0.3h-0.1v0.1h-0.1c0,0.2-0.1,0.1-0.1,0.1h0.2v0.1
				l0.1-0.1v0.1h-0.1v0.1v-0.1v0.1h-0.2v-0.2h-0.1c0.1,0.1-0.1,0-0.1-0.1l-0.1-0.1l0.1-0.1h0.1v-0.2l0.1-0.2h0.1l0.1-0.1l-0.2,0.5
				l0.1-0.1l-0.1-0.3l-0.2,0.2c-0.2,0.2-0.4,0.3-0.3,0h0.1c0-0.1-0.2-0.4-0.1-0.4c-0.4-0.3,0-0.3,0.1-0.3c0,0,0.1-0.3,0.2-0.1
				c0.1-0.2,0.3-0.1,0.4,0h-0.1l0.1,0.2v-0.1l0.2-0.1h-0.1c0-0.1,0.1-0.1,0.1,0h0.1h-0.1c0,0,0.4-0.2,0.4-0.3l-0.1,0.1
				c0-0.1,0.1-0.1,0.1-0.1v-0.1h0.1v0.1c0.2-0.2,0.4,0,0.4-0.3h0.1v0.2l0.1-0.2c0.1,0.1,0.2-0.1,0.2-0.2c-0.2,0.1-0.5-0.1-0.6-0.1
				v-0.1h-0.2c0.1,0.1,0,0.1,0,0.2l0.1,0.1h-0.1l-0.2,0.1v-0.1h-0.1c0-0.1,0,0,0,0v-0.1c0,0-0.1,0,0,0.1h-0.1l0.2,0.1
				c0.1,0.1,0,0.3-0.1,0.1v-0.1l-0.1,0.1l0.1,0.2h-0.1l0.1-0.1l-0.1,0.1v0.2h-0.2c-0.1,0,0-0.3,0.1-0.3c0,0-0.1-0.3-0.1-0.1h0.1
				h-0.1v0.2v-0.1c0,0-0.2,0.1-0.1,0.1h-0.1v-0.2v0.1h-0.2c0,0.1-0.1,0-0.1,0.1v0.1l0.1,0.1c-0.1,0.1-0.1,0.2-0.2,0.3h-0.2l0.1-0.1
				h-0.4v-0.1v0.2v-0.1h0.1c0,0.1-0.2,0.2-0.2,0.2c0.1,0,0.1,0.1,0,0.2h-0.2v-0.3l0.1,0.1l-0.1-0.2h-0.1c0,0,0-0.2-0.1-0.1
				c0-0.1,0.1-0.1,0.1-0.1h0.1l-0.1-0.1h0.1c-0.1,0.1,0.1,0,0.1,0h-0.1c0.1-0.1,0-0.1,0-0.2c0,0.1,0.1,0.1,0.2,0.1v0.1V486
				c0.1,0,0.2,0,0.2-0.1h0.1l-0.1-0.1l0.1-0.1h0.1h-0.1v-0.2v0.1c0,0.1-0.1,0.1-0.1,0.1h-0.1l0.1-0.1l-0.1,0.1h0.1v0.1
				c-0.1-0.1-0.2,0-0.2,0.1h-0.1c0-0.1-0.2-0.2,0-0.2c0-0.1-0.3-0.3-0.2-0.4c0-0.1-0.1-0.4-0.2-0.6h0.1c0-0.1,0.4-0.6,0.4-0.8h0.1
				c0,0,0-0.4,0.2-0.2h-0.1h0.1v-0.3l-0.1,0.1c0-0.1-0.2-0.2-0.2-0.4c0.2,0,0.3,0,0.4-0.1c0-0.2-0.1-0.1-0.1-0.2h0.1v-0.1
				c0.2,0.1,0.1,0,0.3,0.2c0.1,0.1,0.1,0,0.1-0.1h0.1v-0.4c0.2-0.1,0.2-0.3,0.2-0.5c-0.1-0.2,0.1-0.2,0.1-0.3c0,0,0.2,0.1,0.1-0.1
				v-0.1c-0.2,0.2,0.1-0.1,0-0.2h0.1c0,0,0.1,0.2,0.2,0.1c-0.1-0.1,0-0.1,0-0.2h0.1c-0.1,0.1,0.3,0.3,0.4,0.3v0.1h-0.2l0.1,0.1
				c0-0.1,0-0.1,0.1-0.1v-0.1h-0.1v-0.2l0.1,0.1h0.1v-0.1h0.1v0.1c0,0,0.1,0,0.1-0.1h-0.1c0.1,0,0.2,0.1,0.1-0.1h0.1
				c-0.1-0.1,0.1-0.1,0.2-0.1c0-0.1-0.2-0.2-0.2-0.1l0.1-0.1c0-0.1-0.1,0.1-0.1,0.1v-0.1h-0.1v0.2v-0.1v0.1h-0.2l-0.1,0.2
				c0,0.1-0.1-0.2-0.1-0.4c-0.1-0.2-0.1-0.5,0-0.3c0-0.1,0-0.2-0.1-0.2s-0.1,0-0.1-0.2h0.3h-0.1l0.3-0.3h0.1c0-0.2,0.3-0.1,0.3,0
				c0.1-0.1,0.5-0.1,0.6-0.1c0-0.1,0.1-0.3,0.1-0.2h0.1v-0.3l0.3-0.2h-0.1h0.3l0.1-0.1h0.1v-0.1c0-0.1-0.2-0.1-0.3-0.1h0.1
				c0-0.2-0.3-0.3-0.2-0.2v-0.1v0.2c-0.1-0.1,0,0-0.1,0.1c-0.1,0-0.2-0.3-0.2-0.4c0.1,0,0.2-0.2,0.1-0.2V478c0,0,0.3-0.4,0.4-0.6
				l0.1-0.1l0.1-0.1c-0.1-0.1,0,0-0.1-0.2h-0.1l0.1-0.1h-0.1c-0.1,0-0.2-0.1-0.3,0.1l0.1,0.1h-0.2V477l-0.1,0.1v0.2
				c0-0.1-0.2,0-0.2,0.1c0,0.1-0.3,0.1-0.3,0h0.2c-0.1,0,0.1-0.3,0-0.3V477l-0.2,0.1c0.2,0,0,0.2-0.1,0.3h-0.2v0.2h-0.2
				c0,0,0-0.2-0.1-0.1v0.1c0-0.2-0.4,0.2-0.2,0.2c0.1,0.1-0.2,0.1-0.2,0.1v0.1l0.1-0.1v0.1v-0.1v0.1h-0.1l-0.1,0.1v0.2h-0.2
				c0.1,0,0.1-0.2,0.1-0.2h-0.1c0,0.3-0.2,0.2-0.2,0.1l-0.1,0.1h0.1l-0.1-0.1v0.2c0-0.1,0-0.2,0.1-0.2l-0.3,0.1l0.1,0.1h-0.2
				l-0.2-0.2l-0.1,0.1c-0.1-0.1,0.1-0.5,0.1-0.7v0.1c0-0.2,0-0.4,0.1-0.4l0.1-0.2c0.2,0,0.2,0.1,0.3,0.2c-0.1-0.1,0,0,0,0h0.2
				c0,0,0-0.1-0.1-0.1h-0.2l-0.1-0.1l0.1-0.1v-0.5c-0.1,0,0,0.1,0,0.1c-0.2-0.3-0.1-0.3,0-0.5h0.3v-0.4l0.1-0.1
				c0.1,0,0.1,0.1,0.1,0.2l0.2-0.1c0.1-0.1,0.2-0.1,0.2,0.1l0.1-0.2v0.1c0,0,0.1-0.2,0-0.2v0.1c0-0.2-0.2-0.3-0.1-0.5l0.2-0.3
				c0.1-0.1,0.2-0.1,0.4-0.3h-0.1h0.3l0.1-0.1c0,0.1,0.1,0.2,0.1,0.2v-0.1c0.1,0.1,0.1,0,0.1,0c0-0.1,0.4-0.2,0.4-0.2v-0.4v0.1
				l0.1-0.1l0.2-0.1c0-0.1,0.2-0.1,0.2-0.3l0.1,0.1l-0.1-0.2h0.1v0.1h0.1c0,0,0-0.1,0,0v0.1l0.1,0.1v-0.1c0-0.1-0.1-0.2,0-0.3
				c0,0-0.5,0.2-0.6,0.2l-0.1-0.1c0,0-0.5,0.3-0.6,0.1h0.1l-0.3-0.1v0.1V473c0.1-0.1,0.3,0,0.3-0.2c0,0,0.3,0,0.3,0.2
				c0.3-0.5,0.3-0.4,0.3-0.6c0,0,0.2-0.1-0.1,0l-0.1,0.1v-0.3l0.1,0.1l0.1-0.2v0.1v-0.1v0.1v-0.3l0.1,0.2l0.1-0.4h0.3l-0.1,0.1h0.2
				l-0.1-0.1l-0.1-0.1c0.1,0,0,0,0-0.1s-0.1-0.1-0.1-0.1s-0.3-0.1-0.3-0.3c0.1,0.2,0.1-0.2,0.1-0.2c0,0.1-0.1,0.1-0.2,0h-0.1
				c0-0.1,0-0.2,0.1-0.3h-0.1c0-0.1,0-0.2-0.1-0.3c0.2,0,0-0.3-0.1-0.3c-0.1-0.3,0.2-0.2,0.3-0.4h-0.1c0-0.2,0.3-0.4,0.5-0.4
				l0.2,0.2h0.1c-0.2,0-0.2-0.4-0.1-0.5c0.2,0,0.5-0.3,0.7-0.3l0.1,0.1c0.1,0.1,0.2,0.2,0.2,0.1v0.1c0-0.1,0.4-0.1,0.3,0.2
				c0,0,0.1,0,0.1,0.1l0.1-0.1c0.1,0,0.5,0,0.5,0.1l0.1-0.2c0-0.1,0.1-0.2,0.1-0.2v0.1h0.1v-0.1v0.1h0.3c0.1,0,0.3,0,0.3-0.1
				c0,0.3,0.2,0.2,0.2,0.4v-0.1v0.1v-0.1l0.1,0.1c0,0-0.1,0.1,0,0.2c-0.1,0.1,0,0.2,0,0.3v-0.1l-0.1,0.2c-0.1-0.1-0.2,0-0.3,0
				c0,0.2,0.2,0.3-0.1,0.4h0.1h-0.1c0,0,0.6,0.5,0.2,0.5c0,0,0.3,0.2,0.3,0l0.3-0.3v0.1c0.1,0,0.1-0.3,0.1-0.3h0.1
				c0.1-0.1,0.2-0.1,0.2,0.1c0.1-0.1,0.1-0.1,0-0.2v-0.2l0.2-0.1v0.3c0,0-0.1,0.2,0,0.3c0,0,0.4-0.2,0.2-0.3h0.3
				c0.1,0.1,0.2,0.2,0.1,0.4c0,0-0.1,0.2-0.2,0.3h0.1c0,0-0.1,0,0,0.2l0.1-0.1v0.2c0,0.2,0.2,0,0.2,0.3c0-0.1,0.1,0.3,0.1,0.4
				l0.1-0.1c0.1,0.2,0,0.3-0.1,0.4c0.1,0.1,0.1,0.1,0.1,0.3v0.1l0.2,0.1c0.1,0,0,0.1,0.1,0.2c0,0.2-0.1,0.2-0.1,0.2l-0.3,0.6
				l-0.3-0.2v0.1h0.1v0.3c0,0.1,0.2,0,0.2-0.2l0.1,0.1c0-0.2,0.1-0.1,0.2-0.2c0.1,0.1,0.3,0,0.2,0c0.1-0.2,0.2-0.1,0.4-0.1v0.1
				l0.1-0.1h0.1c0,0.2,0.1,0.2,0.2,0c0.2,0,0,0.5,0.1,0.6c0,0.1,0,0,0,0v0.2h0.2l-0.1,0.2l-0.2,0.2l0.1,0.2c-0.1,0,0,0.1-0.1,0.2
				c-0.2-0.5-0.2-0.3-0.1-0.2v0.1c0-0.1,0.1-0.1-0.1-0.1l-0.1,0.1c-0.2,0,0,0.2,0,0.3c0.1-0.2,0.2-0.1,0.3-0.1h0.2
				c0,0.1,0.1,0,0.2,0h0.1v0.1c0.1-0.1,0.3,0,0.3-0.4c0.1,0,0.1,0,0.2-0.1v0.1h0.1v0.1h0.1v0.2c0,0,0,0.1-0.1,0.2
				c0,0.1-0.1,0.2-0.2,0.2c0.1,0.1,0,0,0,0.1l0.2,0.1c0.1,0.1,0.2,0.2,0.3-0.1l0.3-0.2l0.1,0.2l0.1-0.1v0.1v-0.1h0.1l-0.1,0.4
				l-0.1-0.1l-0.1,0.1h-0.1v0.1l-0.1,0.1h0.1c0,0.2,0.2,0.2,0.3,0.3c0,0.3-0.1,0.3-0.3,0.4h0.1c0-0.2-0.1,0-0.1,0
				c-0.1,0.1-0.2,0.3-0.4,0.3v0.2v-0.1v0.4c0,0-0.1-0.2-0.1,0.1l-0.1-0.3v0.2c0-0.1-0.1-0.1-0.2-0.1c0.1,0.1,0,0.1,0.1,0.3h-0.2
				v-0.2v0.1v-0.2l-0.2,0.2l-0.1-0.2v0.2l0.1,0.1v-0.1l0.1,0.1l0.1-0.1v0.1h0.1c0,0,0.1,0.1,0,0h0.1v0.1l0.2-0.1v0.2
				c0.1-0.1,0.1,0,0.3,0.1l0.1-0.1c0,0.2,0,0.3-0.2,0.3c0.1,0.1-0.2,0.2-0.2,0.2c-0.1,0-0.1-0.1-0.1,0.1h-0.2v0.1h-0.1v0.1v-0.1
				c0,0,0.1,0.1,0.1,0c0.2,0.1-0.3,0.3,0.3,0.1l0.1,0.1l0.1,0.1l-0.1,0.4h0.1h-0.1v0.3c0.2-0.1,0.1,0.2,0,0.2v0.2
				c0.5,0.1-0.3,0.7-0.2,0.5v-0.3h-0.2c-0.3,0,0-0.1-0.1-0.2h-0.1v0.1h-0.1c0.1,0,0.1,0,0.1,0.1c-0.1,0-0.2,0-0.1,0.1h-0.1h0.1h-0.1
				c-0.1,0,0.1,0.2,0.2,0.1l0.1,0.2v0.1c0.1-0.2,0.1,0,0.2,0.1v-0.1c0,0-0.1,0.3-0.2,0.2l0.1,0.1c-0.1,0-0.2,0.1-0.1,0.1
				c0.1-0.1,0.1,0.1,0.1,0.2h-0.6v-0.2h-0.1v-0.1l-0.1,0.1h0.1l-0.3,0.2v0.1h-0.1v0.1c0,0,0-0.2-0.1,0h-0.1v0.1h0.1v0.2h-0.1
				l-0.2,0.3h0.1h-0.2c0,0,0.1-0.1,0.1,0v0.1c0.1,0.1,0.1,0.2,0.2,0.1v0.1c0.1,0,0-0.2,0.1-0.1c0,0,0.1,0.3,0.1,0.1v0.1
				c0,0,0.4,0,0.3,0.2v0.1l0.1-0.1c0.1,0,0.4,0,0.5-0.1c0,0.1,0.1,0.1,0.2,0v0.2l0.1-0.2c0,0.2,0.1-0.1,0.2-0.1h0.1v0.4l0.1-0.1v0.2
				l-0.1,0.1h0.1v0.2l0.2,0.2c0.1-0.1-0.1-0.1,0.1-0.1c0,0.1,0.1,0,0.1-0.1v0.1h0.3c0.1,0-0.1,0.1,0,0v-0.1h0.1v0.1
				c0,0.1,0.2,0,0.1,0.1v-0.1l0.3,0.5v-0.1v0.2c-0.2,0.3-0.1,0.3-0.3,0.3h-0.1h0.1h-0.1c-0.1,0-0.1,0.1-0.3,0
				c-0.1,0-0.2,0.1-0.2,0.2v0.2c0,0-0.2,0.2-0.2,0.1v0.1l-0.1,0.1c0,0,0.2,0.1,0.2,0l0.1-0.1c0.1-0.1,0.1-0.2,0.2,0.1
				c0,0,0.1-0.2,0.1,0c0-0.1,0.1-0.1,0.1,0h0.1V485v0.1V485l0.1,0.1l0.2-0.1v0.1c0.1-0.2,0.4-0.4,0.5-0.4c0,0.2,0.3,0.1,0.2,0h0.2
				v0.5c-0.2,0-0.4,0-0.5,0.2h-0.2v0.2l-0.1,0.1v0.2h0.1v0.2l0.2,0.2v0.1v-0.1h-0.5l-0.3,0.3h-0.1l-0.1,0.1v-0.1h-0.2
				c-0.1,0.1-0.3,0.2-0.4,0.3l-0.1-0.2l-0.1-0.1l-0.1,0.1l-0.1,0.2v0.1l-0.1,0.1c0.1-0.1,0.1,0,0.1,0l-0.1,0.1v-0.1l-0.1-0.1v0.1
				l-0.1,0.1l-0.1-0.1h0.1h-0.1c0-0.1,0,0,0.1-0.1l-0.1-0.1c0,0.3-0.1,0.2,0.1,0.4h-0.2h0.1v0.1c-0.1,0,0,0.1,0,0.2v-0.1l-0.1,0.2
				c0.2,0.1,0.2,0.1,0.1,0.1l-0.2-0.1l-0.4-0.3c0.1-0.2,0-0.1,0-0.2c0-0.1-0.1-0.1,0.1-0.2v-0.1l-0.1,0.1v-0.1
				c-0.1,0-0.3-0.1-0.3-0.2h0.1v-0.1h0.1v-0.1l0.1,0.1l0.1,0.1v0.1c0.1-0.1,0-0.2,0-0.3h-0.1v-0.1v0.1l-0.1,0.1l0.1,0.1h-0.1v-0.1
				c0,0-0.1-0.1-0.1,0v-0.2l0.2-0.1h-0.1l0.1-0.1V486c0.1-0.2-0.2-0.2-0.1-0.2h-0.1v-0.2c0.1,0,0.1-0.1,0-0.1v0.1
				c-0.1-0.2,0-0.1,0-0.4h-0.1l0.1,0.1c-0.1,0-0.5-0.2-0.4-0.4v0.1c0.1-0.1,0-0.1,0-0.1v-0.1l-0.2,0.2l0.1,0.3l-0.1,0.2h-0.1
				c0,0-0.5,0.3-0.4,0.1h-0.3c0-0.1-0.3-0.1-0.3,0v0.1h0.1l0.1,0.1l-0.1,0.1c0,0,0.1,0.1,0.1,0.2c0.2,0,0.3,0.1,0.6,0.2v-0.1
				l0.1,0.1v0.1h0.3c-0.1,0.1,0.2,0.1,0.2,0.1l-0.1,0.2c0.1-0.1,0.3,0.2,0.1,0.2c0-0.1-0.1-0.2-0.2-0.2v-0.2v0.1c0-0.1,0,0-0.1,0.1
				v-0.1l-0.2-0.1h-0.2h0.1h-0.1c0-0.1-0.1-0.1-0.2-0.1v0.1c0-0.1,0-0.2-0.2-0.2h-0.1v0.1h-0.1v0.1l-0.2,0.2
				c-0.1-0.2-0.3-0.2-0.4-0.1v-0.1l-0.2-0.1h-0.1v-0.1v0.1v-0.1l-0.3-0.1h-0.2h0.1l-0.2-0.1v0.2l-0.1,0.1v-0.1h-0.2v0.1h-0.1v0.2
				h0.1v0.1h-0.1c0,0.1,0,0.1,0.1,0.1l0.1,0.1h-0.1h0.1c0.1,0.1-0.1,0.2,0.1,0.3l-0.2,0.2l-0.1-0.1h-0.1v-0.1l-0.1,0.1l-0.1,0.1v9.8
				c0,2.3,1.9,4.2,4.2,4.2h8.5c8.8,0,11.9-4.1,13-8c0.4-1.6,0.6-3.2,0.6-4.3v0.2v-2.4c0-0.4-0.3-0.7-0.7-0.7h-7.8
				c-0.4,0-0.7,0.3-0.7,0.7v0.3c0,3.6-0.5,5.2-4.3,5.2c-4,0-4.3-2.5-4.3-6.5v-7.6c0-4,0.3-6.5,4.2-6.5h0.1c3.9,0,4.3,1.6,4.3,5.4
				v0.4c0.1,0.3,0.4,0.6,0.7,0.6h7.8c0.3,0,0.6-0.2,0.7-0.5v-2.1c0-1-0.1-3.1-0.5-4.7c-1-3.8-3.9-7.9-12.3-8.1h-2.4
				C-218,462.4-221.1,464.7-222.8,467.5"/>
		</defs>
		<clipPath id="SVGID_2_">
			<use xlink:href="#SVGID_1_"  style="overflow:visible;"/>
		</clipPath>
		<path class="st1" d="M-252,462.4h55.9v38.8H-252V462.4z"/>
	</g>
</g>
<g>
	<path class="st0" d="M-196.1,500.8l0.3-0.3c0.3,0.2,0.5,0.3,0.8,0.3c0.3,0,0.5-0.1,0.5-0.3l0,0c0-0.2-0.1-0.3-0.6-0.4
		c-0.6-0.1-0.9-0.3-0.9-0.8l0,0c0-0.5,0.4-0.8,0.9-0.8c0.4,0,0.7,0.1,1,0.3l-0.3,0.4c-0.2-0.2-0.5-0.3-0.7-0.3
		c-0.3,0-0.4,0.1-0.4,0.3l0,0c0,0.2,0.1,0.3,0.6,0.4c0.6,0.1,0.9,0.3,0.9,0.8l0,0c0,0.5-0.4,0.8-1,0.8
		C-195.4,501.2-195.8,501.1-196.1,500.8z"/>
	<path class="st0" d="M-193.5,498.5h0.5l0.8,1.3l0.8-1.3h0.5v2.7h-0.5v-2l-0.8,1.3l0,0l-0.8-1.2v1.9h-0.5V498.5z"/>
</g>
</svg>
