<?xml version="1.0" encoding="utf-8"?>
<!-- Generator: Adobe Illustrator 19.0.0, SVG Export Plug-In . SVG Version: 6.00 Build 0)  -->
<!DOCTYPE svg PUBLIC "-//W3C//DTD SVG 1.1//EN" "http://www.w3.org/Graphics/SVG/1.1/DTD/svg11.dtd">
<svg version="1.1" id="Layer_1" xmlns="http://www.w3.org/2000/svg" xmlns:xlink="http://www.w3.org/1999/xlink" x="0px" y="0px"
	 viewBox="-159 231.2 180.7 38.8" style="enable-background:new -159 231.2 180.7 38.8;" xml:space="preserve">
<style type="text/css">
	.st0{fill:#FFFFFF;}
	.st1{clip-path:url(#SVGID_2_);fill:#FFFFFF;}
</style>
<path class="st0" d="M-88.6,251.8h3.5l0.4,3.7c0,0.2-0.1,0.4-0.2,0.5l-0.5,0.5v0.2h3c0.1,0,0.1-0.1,0.1-0.2l-0.4-0.4
	c-0.1-0.2-0.2-0.3-0.2-0.5l-0.9-9.5c-0.1-0.6-0.1-1-0.1-1.5c-1.4,0.1-1.8,0.1-2.5,1.5l-5.6,9.5c-0.1,0.2-0.3,0.3-0.5,0.5l-0.6,0.4
	c-0.1,0.1-0.1,0.2,0,0.2h2.6l0.1-0.2l-0.3-0.5c-0.1-0.1-0.1-0.3,0.1-0.5C-90.6,255.5-88.6,251.8-88.6,251.8z M-85.2,250.7H-88
	c0.8-1.4,1.7-2.8,2.4-4.2L-85.2,250.7z M15,254c0.7-3,2.2-4.6,3.4-4.6s1.1,0.9,0.7,2.4l-0.6,2.8c-0.3,1.3,0,2.1,1.1,2.1
	c0.9,0,1.5-0.8,2.2-2l-0.3-0.2c-0.6,0.7-0.9,1.2-1.2,1.2c-0.4,0-0.3-0.5-0.2-0.7l0.8-3.3c0.6-2.5-0.2-3.7-1.8-3.7
	c-0.9,0-2.2,0.5-3.2,2h-0.1l0.2-0.8c0.3-1.1,0.2-1.2-0.2-1.2l-1.9,0.2l-0.1,0.2l0.5,0.5c0.1,0.1,0.2,0.3,0.1,0.6l-1.4,5.9
	c-0.1,0.3-0.1,0.6-0.3,0.7l-0.5,0.4v0.2h2c0.1,0,0.2-0.1,0.2-0.2L15,254z M8.7,248c-2.6,0-4.8,2.8-4.9,5.4c-0.1,1.9,0.9,3.4,3.1,3.4
	c2.6,0,4.8-2.8,4.9-5.4C11.9,249.6,10.9,248,8.7,248z M6.9,255.8c-1.1,0-1.6-1-1.4-2.4c0.1-1.6,1.4-4.3,3.2-4.3c1.1,0,1.6,1,1.4,2.4
	C10,253,8.7,255.8,6.9,255.8z M-0.8,254.7c-0.3,1.3,0,2.1,1,2.1c0.9,0,1.5-0.8,2.1-2L2,254.6c-0.6,0.7-0.9,1.2-1.2,1.2
	c-0.4,0-0.3-0.5-0.2-0.7l0.8-3.2c0.1-0.5,0.6-2.5,1.2-3.6v-0.1l-2.8,0.3c-0.1,0-0.2,0.1-0.1,0.2l0.5,0.5c0.1,0.1,0.2,0.3,0.1,0.6
	C0.3,249.8-0.8,254.7-0.8,254.7z M1.1,246c0,0.6,0.4,1.1,0.9,1.1s1-0.5,1.1-1.1c0-0.6-0.4-1.1-0.9-1.1S1.1,245.4,1.1,246z
	 M-3.4,249.2h2.3l0.3-1h-2.4l0.5-2.3l-1.8,0.6l-0.4,1.7H-6l-0.3,1H-5l-1.2,5.2c-0.3,1.5,0,2.4,1.2,2.4c1,0,1.7-0.9,2.5-2.3l-0.3-0.2
	c-0.8,1.1-1.2,1.6-1.6,1.6c-0.5,0-0.4-0.7-0.3-1C-4.7,254.9-3.4,249.2-3.4,249.2z M-10.4,250.8c-0.7,3-2.2,4.6-3.4,4.6
	s-1.8-1.5-1.1-3.5c0.5-1.5,1.9-2.9,3.5-2.9c0.5,0,1,0.1,1.4,0.2C-10,249.2-10.4,250.8-10.4,250.8z M-8.7,250.6
	c0.1-0.4,0.2-0.9,0.7-1.6l0.1-0.1c-1.2-0.6-2.6-0.9-3.3-0.9c-3.1,0-4.8,2.2-5.4,4.1c-0.8,2.8,0.6,4.7,2.2,4.7c1.1,0,2.2-0.5,3.3-2.2
	h0.1c-0.3,1.1-0.2,2.1,1,2.1c0.8,0,1.4-0.8,2.1-2l-0.3-0.2c-0.6,0.7-0.9,1.2-1.2,1.2c-0.4,0-0.3-0.5-0.2-0.7L-8.7,250.6L-8.7,250.6z
	 M-18,250.1h0.2c0.3-0.6,0.7-1.4,0.8-2c-0.4-0.1-0.7-0.2-1.2-0.2c-0.9,0-2.1,0.5-3.2,2h-0.1l0.2-0.8c0.3-1.1,0.2-1.2-0.2-1.2
	l-1.9,0.2l-0.1,0.2l0.5,0.5c0.1,0.1,0.2,0.3,0.1,0.6l-1.4,6.2c-0.1,0.2-0.2,0.4-0.4,0.6l-0.4,0.3c-0.1,0.1-0.1,0.2,0,0.2h2.9
	l0.1-0.2l-0.5-0.5c-0.1-0.2-0.2-0.3-0.2-0.6l0.3-1.4c0.7-2.9,2.1-4.7,3.3-4.7C-18.6,249.3-18.1,249.5-18,250.1L-18,250.1z
	 M-26.7,249.2h2.3l0.3-1h-2.4l0.5-2.3l-1.8,0.6l-0.4,1.7h-1.3l-0.3,1h1.3l-1.2,5.2c-0.3,1.5,0,2.4,1.2,2.4c1,0,1.7-0.9,2.5-2.3
	l-0.3-0.2c-0.8,1.1-1.2,1.6-1.6,1.6c-0.5,0-0.4-0.7-0.3-1C-28.2,254.9-26.7,249.2-26.7,249.2z M-33.8,248c-1.4,0-2.9,0.6-3,2.3
	c-0.2,2.4,3.2,2.5,3.2,4.1c0,0.9-0.8,1.4-1.9,1.4c-1.2,0-2.1-0.6-2.2-2h-0.2c-0.1,0.4-0.2,1.1-0.3,1.7v0.6c0.6,0.4,1.6,0.7,2.7,0.7
	c2.2,0,3.5-1,3.6-2.5c0.1-2.5-3.4-2.4-3.3-4.2c0-0.6,0.5-1.2,1.4-1.2c1.1,0,1.8,0.6,1.8,1.7h0.2c0.3-0.5,0.6-1.3,0.7-1.9
	C-31.7,248.4-32.7,248-33.8,248z M-42.3,254.7c-0.3,1.3,0,2.1,1,2.1c0.9,0,1.5-0.8,2.1-2l-0.3-0.2c-0.6,0.7-0.9,1.2-1.2,1.2
	c-0.4,0-0.3-0.5-0.2-0.7l0.8-3.2c0.1-0.5,0.6-2.5,1.2-3.6v-0.1l-2.8,0.3c-0.1,0-0.2,0.1-0.1,0.2l0.5,0.5c0.1,0.1,0.2,0.3,0.1,0.6
	C-41.2,249.8-42.3,254.7-42.3,254.7z M-40.5,246c0,0.6,0.4,1.1,0.9,1.1s1-0.5,1.1-1.1c0-0.6-0.4-1.1-0.9-1.1S-40.5,245.4-40.5,246z
	 M-50.4,254c0.7-3,2.2-4.6,3.4-4.6c1.2,0,1.1,0.9,0.7,2.4l-0.6,2.8c-0.3,1.3,0,2.1,1.1,2.1c0.9,0,1.5-0.8,2.2-2l-0.3-0.2
	c-0.6,0.7-0.9,1.2-1.2,1.2c-0.4,0-0.3-0.5-0.2-0.7l0.8-3.3c0.6-2.5-0.2-3.7-1.8-3.7c-0.9,0-2.2,0.5-3.2,2h-0.1l0.2-0.8
	c0.3-1.1,0.2-1.2-0.2-1.2l-1.9,0.2l-0.1,0.2l0.5,0.5c0.1,0.1,0.2,0.3,0.1,0.6l-1.4,5.9c-0.1,0.3-0.1,0.6-0.3,0.7l-0.5,0.4v0.2h2
	c0.1,0,0.2-0.1,0.2-0.2C-51,256.5-50.4,254-50.4,254z M-56.8,254.7c-0.3,1.3,0,2.1,1,2.1c0.9,0,1.5-0.8,2.1-2l-0.3-0.2
	c-0.6,0.7-0.9,1.2-1.2,1.2c-0.4,0-0.3-0.5-0.2-0.7l0.8-3.2c0.1-0.5,0.6-2.5,1.2-3.6v-0.1l-2.8,0.3c-0.1,0-0.2,0.1-0.1,0.2l0.5,0.5
	c0.1,0.1,0.2,0.3,0.1,0.6C-55.7,249.8-56.8,254.7-56.8,254.7z M-54.9,246c0,0.6,0.4,1.1,0.9,1.1s1-0.5,1.1-1.1
	c0-0.6-0.4-1.1-0.9-1.1S-54.9,245.4-54.9,246z M-69.6,256.6c0.1,0,0.2-0.1,0.2-0.2l0.8-3.5c0.5-2,1.8-3.6,2.8-3.6
	c0.8,0,1,0.5,0.7,1.6l-1.2,5.5c0,0.1,0,0.1,0.1,0.1h1.2c0.1,0,0.2-0.1,0.2-0.2l0.8-3.5c0.4-2,1.8-3.6,2.8-3.6c0.8,0,1,0.5,0.7,1.6
	l-0.8,3.6c-0.3,1.3,0,2.1,1.1,2.1c0.9,0,1.5-0.8,2.2-2l-0.3-0.2c-0.6,0.7-0.9,1.2-1.2,1.2c-0.4,0-0.3-0.5-0.2-0.7l0.8-3.5
	c0.6-2.5-0.3-3.5-1.6-3.5c-1,0-2,0.6-2.9,2l-0.1,0.4c0.2-1.3-0.3-2.2-1.7-2.2c-1,0-2,0.6-2.9,2l0.2-0.8c0.3-1.1,0.2-1.2-0.2-1.2
	l-1.9,0.2v0.2l0.5,0.5c0.1,0.1,0.2,0.3,0.1,0.6l-1.4,5.9c-0.1,0.3-0.1,0.6-0.3,0.7l-0.5,0.4v0.2h2L-69.6,256.6z M-75.3,248
	c-3.1-0.1-4.8,2.2-5.4,4.1c-0.8,2.8,0.6,4.7,2.2,4.7c1.1,0,2.2-0.5,3.3-2.2h0.1c-0.3,1.1-0.2,2.1,1,2.1c0.8,0,1.4-0.8,2.1-2
	l-0.3-0.2c-0.6,0.7-0.9,1.2-1.2,1.2c-0.4,0-0.3-0.5-0.2-0.7l1.7-7.3c0.1-0.5,0.6-2.5,1.2-3.6V244l-2.8,0.3l-0.1,0.2l0.5,0.5
	c0.1,0.1,0.2,0.3,0.1,0.6l-0.7,2.6C-74.3,248.1-74.8,248-75.3,248z M-74.4,250.8c-0.7,3-2.2,4.6-3.4,4.6c-1.2,0-1.8-1.5-1.1-3.5
	c0.5-1.5,1.9-2.9,3.5-2.9c0.5,0,1,0.1,1.4,0.2C-74,249.2-74.4,250.8-74.4,250.8z M-133.7,257.5l0.1-0.1L-133.7,257.5 M-133.9,257.2
	v-0.1V257.2 M-133,257.1v0.4h0.1C-133,257.3-132.9,257.2-133,257.1 M-135.1,256.6c0.1,0.1-0.1,0.2,0,0.2V256.6 M-133.7,256.4
	l0.1,0.1v-0.1H-133.7 M-132.2,256.4v0.1h0.1l0.1-0.1H-132.2 M-133.1,256.2l0.1,0.1L-133.1,256.2 M-133.3,256.2c-0.1,0.1,0,0.1,0,0.1
	V256.2 M-132.4,256.2v-0.1V256.2 M-133,256l0.1,0.1C-132.8,256.1-132.8,256-133,256C-132.8,256.1-132.9,256-133,256
	C-132.9,256.1-132.9,256-133,256 M-133.5,256C-133.4,256-133.4,256-133.5,256 M-132.6,255.9l-0.1,0.1h0.1V255.9 M-130.8,255.8v0.1
	V255.8c0,0.1-0.1,0.2-0.1,0.2h0.1c0,0,0-0.1,0,0V255.8 M-133.4,255.9l0.1-0.1L-133.4,255.9z M-133.3,255.6c0.1,0,0,0.1,0,0.1
	l0.1-0.1H-133.3 M-134.5,255.7h-0.1v-0.1c0,0.1-0.2,0.4-0.3,0.3C-134.9,256.2-134.5,255.7-134.5,255.7l0.1-0.1L-134.5,255.7
	 M-132.1,255.5L-132.1,255.5c-0.1,0.3,0,0.2,0.1,0.1L-132.1,255.5 M-131.6,255.5h0.1v-0.1L-131.6,255.5l0.1-0.1L-131.6,255.5
	 M-124.8,255.5L-124.8,255.5v0.2V255.5L-124.8,255.5c0,0.2,0,0.3,0.1,0.2h-0.1V255.5l0.1,0.2l0.1-0.1v0.1c0-0.1,0.1-0.3-0.1-0.3
	c0.1,0,0,0.1,0,0c0,0.1-0.1,0,0,0L-124.8,255.5 M-135.4,255.3C-135.5,255.2-135.4,255.4-135.4,255.3 M-131.2,255.2
	C-131.1,255.3-131.2,255.2-131.2,255.2v-0.1V255.2 M-130.9,255L-130.9,255L-130.9,255L-130.9,255 M-127.5,255L-127.5,255
	c0.2,0.1,0.2,0.1,0.2,0h0.1v-0.1L-127.5,255 M-123,255L-123,255L-123,255L-123,255 M-129.2,255.2l0.2-0.1h-0.2V255V255.2
	 M-127.5,255.1v-0.2C-127.5,254.9-127.6,255.1-127.5,255.1 M-131.1,255.1v0.2c0-0.1,0.1-0.1,0.1-0.2l-0.1,0.1v-0.3V255.1v-0.2V255.1
	v-0.2V255.1 M-134.2,254.9v0.2V254.9 M-127.4,254.8v0.1V254.8l0.1,0.1L-127.4,254.8 M-125.1,254.8c0,0.1,0.1,0.3,0.1,0.3h0.2
	L-125.1,254.8L-125.1,254.8L-125.1,254.8 M-124.9,254.7C-125.1,254.8-124.9,254.7-124.9,254.7 M-134,254.7h-0.1
	c0,0.1-0.1,0.3-0.1,0.3l0.1-0.1C-134.1,254.8-134,254.8-134,254.7h0.3H-134 M-124.8,254.7l0.1,0.2v0.1L-124.8,254.7L-124.8,254.7
	C-124.7,254.6-124.7,254.7-124.8,254.7l0.1-0.1L-124.8,254.7 M-125.2,254.6v0.3l0.1,0.1L-125.2,254.6 M-125,254.5L-125,254.5
	L-125,254.5C-124.9,254.5-124.9,254.6-125,254.5 M-128.7,254.5C-128.8,254.6-128.7,254.6-128.7,254.5L-128.7,254.5l0.1,0.1
	L-128.7,254.5 M-127.5,254.8L-127.5,254.8l-0.1-0.2C-127.6,254.7-127.6,254.8-127.5,254.8 M-125.3,254.6l-0.1-0.2L-125.3,254.6
	 M-126.5,254.5L-126.5,254.5L-126.5,254.5 M-130.7,254.4l0.2,0.1v-0.2l-0.2-0.1V254.4 M-129.2,254.2v0.2V254.2 M-134.8,254.2v0.2
	v-0.1v0.1V254.2 M-130.4,254.2L-130.4,254.2C-130.3,254.4-130.4,254.3-130.4,254.2 M-135.4,254.2
	C-135.4,254.1-135.3,254.2-135.4,254.2 M-134.7,254.1C-134.7,254.1-134.9,254.2-134.7,254.1 M-136,254.1c0,0.1-0.2,0.1-0.1,0.1
	l0.1,0.1V254.1L-136,254.1L-136,254.1l0.1,0.1L-136,254.1 M-125.5,254l0.1,0.1v0.1c0.1,0-0.1,0,0,0.1h0.1c0,0.2,0,0.1,0.1,0.1
	l0.1,0.1v-0.2v0.1l-0.3-0.2L-125.5,254L-125.5,254 M-134.5,254.1V254C-134.7,254-134.6,254.1-134.5,254.1 M-129.1,254.1
	C-129.2,254.1-129.1,254.1-129.1,254.1C-129.2,254.1-129.5,254.2-129.1,254.1l0.1-0.1v-0.2L-129.1,254.1 M-133.4,254h0.1H-133.4
	 M-126,253.7v0.1V253.7L-126,253.7 M-133.8,253.8l-0.2,0.2h0.1l0.1,0.2h0.1l0.1-0.1C-133.7,254.2-133.7,253.9-133.8,253.8l0.1,0.1
	C-133.6,253.8-133.7,253.7-133.8,253.8 M-133.2,253.8v0.1V253.8l0.2-0.2h-0.3L-133.2,253.8 M-127,253.8l0.1,0.1v0.3v-0.1h0.1
	c0.1-0.1,0.2,0,0.2,0l0.1-0.1c-0.1,0,0,0,0,0L-127,253.8c0-0.2,0-0.3-0.1-0.3C-127.1,253.6-127.1,253.7-127,253.8 M-132,253.4
	c0,0.1,0,0.2-0.1,0.2c0,0.1,0.1,0.3,0.1,0.3h-0.1c0,0.1,0.1,0.1,0,0.2c-0.1,0.1,0.1,0.1,0.2,0.2c0,0.1,0.4,0.3,0.5,0.1v-0.2
	c0,0.1,0.1-0.1,0.1-0.1c0,0.1,0.1-0.1,0.1-0.1v-0.1l-0.1,0.1c-0.1-0.1,0.1-0.2,0-0.2v-0.1c0,0.1,0.2-0.1,0.2-0.1l-0.1-0.1l0.1,0.1
	h-0.2l-0.3,0.4c0-0.2-0.1-0.3-0.2-0.4h0.1l-0.1-0.1h0.1l-0.1-0.1H-132 M-131.7,253.3v0.2h0.1v0.1c0-0.1,0.1-0.1,0.1-0.2
	L-131.7,253.3 M-126.8,253.2l0.1,0.1l0.1-0.1c-0.1,0.2,0.1,0.2,0.2,0.2v0.2v-0.1v0.1l0.1-0.1c0,0.1,0.1,0.1,0.1-0.1h-0.1l0.1-0.2
	h-0.1l-0.1-0.1c-0.1,0.1-0.1,0.1-0.1,0l-0.1,0.1c-0.1,0-0.2,0-0.2-0.1V253.2 M-127.7,253.1l0.1,0.1
	C-127.6,253-127.7,253.1-127.7,253.1 M-123.4,253C-123.4,253-123.5,253.1-123.4,253 M-126.9,253.1c0,0-0.2,0.1-0.1,0.1L-126.9,253.1
	v0.2C-126.9,253.6-126.6,253.3-126.9,253.1 M-128.2,253c0,0.2,0.1,0.1,0.1,0.2l0.3-0.2c-0.1,0-0.2-0.1-0.3-0.1L-128.2,253
	 M-123.3,253.1L-123.3,253.1C-123.3,253-123.4,253.1-123.3,253.1 M-135.8,252.7C-135.7,252.7-135.7,252.7-135.8,252.7 M-135.6,252.7
	L-135.6,252.7L-135.6,252.7 M-132.1,252.6l-0.1,0.1L-132.1,252.6L-132.1,252.6 M-129.3,252.5L-129.3,252.5L-129.3,252.5
	 M-135.7,252.4l0.2,0.1l-0.1,0.1l0.1,0.1l0.1-0.1v-0.1l-0.2-0.2L-135.7,252.4 M-131.7,252.2h0.1H-131.7l0.2,0.1l-0.1-0.1H-131.7
	 M-132.4,252.2l0.1,0.1v-0.1H-132.4 M-132,252.3C-132.1,252.3-132.1,252.4-132,252.3v0.2l0.1,0.1h0.1l0.1-0.1c0,0-0.1,0.2,0,0v0.1
	h0.2c0-0.2-0.2-0.1-0.2-0.2c0.1-0.1-0.1-0.1-0.2-0.1H-132l0.2-0.1C-131.8,252.1-132.2,252.2-132,252.3 M-128.6,252.2v0.1V252.2z
	 M-128.7,252.2c0-0.1,0.1-0.2,0-0.1V252.2V252h-0.1C-128.8,252.2-128.7,252.2-128.7,252.2 M-131.4,252.1h-0.1H-131.4
	C-131.4,252-131.5,252-131.4,252.1 M-128.2,252c0,0-0.1,0.2-0.1,0.3L-128.2,252L-128.2,252 M-130.5,252c0,0.1-0.2,0.1-0.2,0.2
	l0.1,0.1v0.1l-0.2,0.2l0.3,0.1l0.1-0.1l0.1,0.1h0.2l0.1,0.1c0-0.1,0-0.3-0.1-0.3v0.1v-0.4v0.1c0,0-0.1-0.1,0-0.1h-0.3
	C-130.3,252.2-130.4,252-130.5,252C-130.6,252.1-130.4,252-130.5,252 M-129,252C-129.1,252.1-129,252-129,252 M-130.4,252l0.1,0.1
	C-130.2,252-130.3,252-130.4,252 M-131,251.9v0.1V251.9v0.3h0.1c0-0.1,0-0.1,0,0l-0.1-0.1C-130.9,252.1-131,252-131,251.9
	 M-132.4,251.9c-0.2,0.1,0,0.2,0,0.2V251.9 M-129.3,251.9c0,0.1,0,0.3,0.1,0.1v0.1L-129.3,251.9 M-129.1,251.8c0,0,0,0.3,0.1,0.2
	c0.1,0.1,0.1,0.2,0.2,0.2l-0.1-0.1l0.1-0.1v-0.1c0,0-0.1,0.1,0,0h-0.1c0.1,0,0,0,0,0S-128.9,251.8-129.1,251.8 M-131.3,251.7h0.1
	H-131.3 M-128.7,251.6L-128.7,251.6L-128.7,251.6 M-132.1,251.6C-132.1,251.7-132.1,251.6-132.1,251.6 M-128.1,251.7
	c0,0.1,0.2,0.3,0.2,0.4v0.1V252v0.1v-0.5C-128,251.8-128,251.7-128.1,251.7l0.1-0.2L-128.1,251.7 M-135,251.6h0.1H-135
	 M-129.3,251.6l0.2,0.1l0.1-0.1v-0.1h-0.1l-0.1-0.1L-129.3,251.6 M-127.8,251.5h0.3c0-0.1-0.1-0.1-0.2-0.1L-127.8,251.5
	 M-127.5,251.4l0.1,0.1L-127.5,251.4 M-128.9,251.4L-128.9,251.4L-128.9,251.4 M-128.1,251.3l0.1,0.1L-128.1,251.3 M-129.1,251.4
	v-0.1C-129.2,251.4-129.2,251.4-129.1,251.4 M-128.2,251.4l0.1-0.1L-128.2,251.4 M-128.6,251.2L-128.6,251.2
	c-0.1,0.2-0.2,0.2-0.2,0.3c0,0,0.2,0,0,0.1l0.2-0.1V251.2 M-131.6,251.2c0-0.1-0.1,0-0.1,0.1L-131.6,251.2c0.1,0.1,0.1,0.2,0.1,0
	H-131.6 M-128.5,251.1C-128.5,251.1-128.6,251.3-128.5,251.1 M-128.9,251.1l0.1,0.1L-128.9,251.1L-128.9,251.1 M-127.6,251.1
	c0.1,0.1,0.1,0,0.1,0.1v-0.1H-127.6 M-127.7,250.8L-127.7,250.8L-127.7,250.8L-127.7,250.8 M-129.1,250.7
	C-129.2,250.7-129.2,250.7-129.1,250.7C-129.3,250.9-129.1,250.7-129.1,250.7 M-129,250.8C-129,250.8-129.1,250.8-129,250.8
	 M-126.2,250.7v0.2V250.7 M-133.1,250.6C-133.1,250.5-133,250.5-133.1,250.6L-133.1,250.6 M-128.5,250.5l0.2,0.1v-0.1H-128.5v-0.1
	V250.5 M-132.7,250.5C-132.7,250.6-132.7,250.6-132.7,250.5l0.1-0.2L-132.7,250.5 M-126,250.4v0.2h-0.1v-0.1c0,0,0.2,0.1,0.2,0v-0.1
	c0.1-0.1,0-0.2-0.1-0.2V250.4 M-127,251.6C-127,251.7-127,251.6-127,251.6 M-126.9,251.2l0.1,0.1
	C-126.9,251.4-126.9,251.3-126.9,251.2v0.1V251.2C-126.8,251.2-126.8,251.2-126.9,251.2 M-127.9,250.4l-0.1-0.1l0.3,0.3
	c0-0.2,0.3,0.2,0.3,0.2l0.1-0.2h0.1v0.1l-0.1,0.1v0.1v-0.1v0.1c0-0.1,0.1,0.1,0.1,0.1h-0.1c0,0.1,0.2,0.2,0.1,0.3h-0.1l-0.1,0.1
	c-0.1,0.3-0.1,0.1-0.2,0.1v-0.1h-0.1v0.4c0,0,0.2,0,0.1-0.1l0.1-0.1c0,0.1,0.1,0.1,0.1,0l0.1,0.2v0.1l0.3,0.1c0,0,0.4-0.4,0.2-0.5
	v-0.1h-0.1c0,0-0.1,0.1-0.1,0c0.1,0,0.1-0.2,0.1-0.2v-0.1h-0.1c0.2,0-0.1-0.3-0.2-0.2c0,0,0-0.4-0.2-0.3l-0.2-0.1l-0.1-0.2
	c-0.1,0,0.1,0.2,0,0.2C-127.7,250.4-127.8,250.4-127.9,250.4l0,0.1h0.1h-0.1v0.1l-0.1-0.2C-128,250.5-128,250.4-127.9,250.4h-0.2
	C-127.8,250.2-127.9,250.3-127.9,250.4 M-128.8,250.3h0.1H-128.8 M-126.3,250.3L-126.3,250.3L-126.3,250.3 M-128.7,250.2v0.1
	C-128.6,250.2-128.7,250.2-128.7,250.2 M-126.6,250.2v0.2h0.1c0,0.1,0,0.2,0.1,0c0,0.1,0,0.1,0.1,0.1h-0.1c0.1,0,0.3-0.1,0.3-0.2
	c0-0.1-0.2,0-0.3,0v-0.1h-0.1c0-0.2-0.1-0.1-0.1-0.1V250.2l0.1-0.1L-126.6,250.2 M-133.5,250.2v-0.1V250.2 M-126.3,250L-126.3,250
	C-126.3,250.1-126.2,250-126.3,250 M-132.7,250L-132.7,250L-132.7,250 M-126.5,250C-126.5,250-126.4,250.1-126.5,250 M-131.6,250
	l0.1-0.1L-131.6,250 M-131.7,250.6C-131.6,250.7-131.7,250.6-131.7,250.6 M-131.5,250.2h-0.2c-0.1-0.2-0.1,0.2-0.1,0.2l-0.1,0.1
	h-0.1l0.1,0.1h-0.2v0.1h-0.1c0,0,0,0.3,0.1,0.1v0.1c-0.1-0.1-0.2,0.1-0.2,0.2v0.1l-0.2-0.1v0.1h-0.1v-0.1c-0.1,0-0.1,0.2-0.2,0.1
	v0.2h0.1v0.1h0.1v0.2l0.2,0.1h-0.1l0.2-0.3v-0.1c0,0.1,0.1,0,0.1-0.1l0.3-0.1c-0.1-0.1,0-0.1,0-0.3c0.2,0,0.1,0.1,0.1,0.1
	c0.1,0,0,0,0.1-0.1h0.1v-0.1h0.2c0.1-0.3-0.1-0.4,0.1-0.4c0-0.1,0-0.2,0.1-0.1v0.1c0.2,0,0-0.2,0-0.2h0.2l0.1-0.1
	c-0.1,0-0.1-0.1-0.1-0.2C-131.3,249.9-131.5,250.2-131.5,250.2 M-133,249.9c0,0,0.1,0.1,0,0.2V250v0.2c0.1,0.2,0.2,0,0.1-0.2
	C-132.9,250-132.9,249.8-133,249.9 M-131.4,249.8C-131.4,249.9-131.4,249.9-131.4,249.8L-131.4,249.8L-131.4,249.8 M-125.9,249.7
	l0.1,0.2v-0.1h0.1v-0.1H-125.9 M-133.2,249.6c-0.2,0.1,0.1,0.4,0.1,0.3l-0.1-0.1h0.1L-133.2,249.6 M-133.2,249.5
	C-133.2,249.6-133.1,249.5-133.2,249.5 M-131.5,249.3l-0.1,0.1L-131.5,249.3C-131.6,249.3-131.6,249.4-131.5,249.3l-0.1,0.2v0.1
	h-0.1c0,0.1-0.1,0.2-0.1,0.1c-0.1,0-0.3,0.2-0.2,0.3c0.2,0,0.2-0.1,0.3-0.3l-0.1,0.1l0.1-0.1l0.2-0.1l-0.1-0.1v-0.1l0.2-0.2
	C-131.4,249.3-131.5,249.3-131.5,249.3 M-131.9,249.3c0.1,0.1,0,0.1,0,0.2h0.2c0.2-0.1,0-0.2,0.1-0.3L-131.9,249.3 M-132.5,249.1
	l-0.1,0.1L-132.5,249.1L-132.5,249.1C-132.3,249.2-132.6,249.2-132.5,249.1h0.1H-132.5 M-129.8,249.1l-0.2,0.2h0.1
	C-129.8,249.3-129.8,249.2-129.8,249.1 M-131.3,249c0,0.1,0.1,0.1,0.1-0.1L-131.3,249 M-127.6,248.9L-127.6,248.9L-127.6,248.9
	 M-126.3,248.8l0.1-0.1l-0.1-0.1V248.8 M-126.7,248.7l0.1,0.1L-126.7,248.7 M-129.9,248.7l0.1,0.1L-129.9,248.7 M-129.1,248.7v0.1
	l-0.1,0.1v0.1h0.1v-0.1C-128.9,248.8-129,248.7-129.1,248.7 M-126.9,248.8v-0.2V248.8 M-129.9,248.7
	C-130,248.6-130,248.7-129.9,248.7 M-125.1,248.7C-125.1,248.7-125,248.7-125.1,248.7h0.2l-0.1,0.2l0.1,0.1c-0.1,0-0.1-0.1-0.2-0.1
	v0.1c0.1,0,0.1,0.1,0.2,0.1l0.3-0.1c0-0.1,0-0.1-0.1,0v-0.2l-0.1-0.1l-0.2-0.1L-125.1,248.7 M-125.4,248.6c0.1,0.1,0,0.2,0.1,0.2
	L-125.4,248.6 M-126.5,248.6c0,0,0,0.1,0.1,0.1L-126.5,248.6 M-125.1,248.5C-125.2,248.6-125.1,248.7-125.1,248.5 M-125.9,248.7
	C-125.9,248.8-126,248.7-125.9,248.7l-0.1,0.2v0.1h0.2L-125.9,248.7c0.1,0.2,0.2,0.2,0.2,0.3l0.1-0.1c-0.1,0,0.1,0.1,0.2,0.1h0.2
	v0.1c0-0.2-0.1-0.1-0.1-0.1v-0.1l-0.1,0.1l-0.1-0.2h-0.1c0-0.1,0-0.1,0.1-0.1h-0.1c-0.1,0-0.2,0-0.2-0.1L-125.9,248.7 M-129.7,248.6
	L-129.7,248.6L-129.7,248.6 M-127.9,248.5L-127.9,248.5L-127.9,248.5 M-128.1,248.5L-128.1,248.5L-128.1,248.5 M-126.1,248.5v0.3
	l0.1-0.1c0,0.1,0.1-0.1,0.1-0.1L-126.1,248.5 M-130.5,248.3v0.2h-0.2v-0.1l-0.1,0.2h-0.1c0,0.1,0.2,0.3,0.3,0.2
	c0.1,0.2,0.5-0.1,0.3-0.1v-0.1h-0.1c0.1,0,0-0.1,0-0.1L-130.5,248.3 M-126.9,248.3v0.1l0.1,0.1c0,0,0.2,0,0-0.1L-126.9,248.3
	 M-128.4,248.5L-128.4,248.5L-128.4,248.5h-0.2v0.1h-0.1v0.1h0.2l0.1-0.3C-128.4,248.4-128.5,248.3-128.4,248.5 M-127,248.4
	C-126.8,248.4-127,248.4-127,248.4 M-129.7,248.3v0.1V248.3 M-131.9,248.4c0.1,0.1,0.1,0,0.1-0.1L-131.9,248.4 M-126.9,248.3
	C-127,248.3-126.9,248.3-126.9,248.3 M-124.2,248.2L-124.2,248.2L-124.2,248.2C-124.2,248.3-124.1,248.1-124.2,248.2 M-127,248
	c0.1,0.1,0.2,0.3,0.3,0.1h-0.1L-127,248 M-128.6,248l0.1,0.1v-0.2L-128.6,248 M-128.8,248l0.1-0.1L-128.8,248 M-127.5,248l0.2,0.1
	v0.1h-0.1c-0.3-0.6,0,0,0,0.1h-0.1l0.1,0.1v-0.1l0.1-0.1v0.2l0.1-0.1l0.2,0.1h-0.1c0.1-0.2-0.2-0.2-0.2-0.2c0-0.2,0.1-0.4-0.1-0.4
	v-0.1l-0.2-0.1C-127.5,247.8-127.5,247.9-127.5,248 M-127.7,247.7l0.1-0.1L-127.7,247.7 M-127.6,247.6
	C-127.6,247.7-127.5,247.7-127.6,247.6 M-127.7,247.6v0.1V247.6 M-130,247.5L-130,247.5L-130,247.5 M-127.7,247.5
	C-127.6,247.4-127.6,247.4-127.7,247.5v-0.1C-127.7,247.4-127.8,247.5-127.7,247.5 M-128.9,247.5v0.3l0.1-0.1v0.1l0.2-0.1l0.2-0.1
	c0-0.2-0.1-0.2-0.1-0.2h-0.1c-0.1,0,0,0,0-0.1C-128.8,247.2-128.9,247.4-128.9,247.5 M-124.6,247.2L-124.6,247.2L-124.6,247.2
	L-124.6,247.2 M-131.4,247.1C-131.5,247.2-131.4,247.3-131.4,247.1 M-131.4,247v0.2C-131.3,247.2-131.2,247-131.4,247 M-129.8,247.1
	V247V247.1 M-128.4,247.1v0.1V247.1v0.2c0,0.1,0.1,0.1,0.2,0.1h0.1v-0.3l-0.1-0.1C-128.3,247-128.4,247.1-128.4,247.1 M-128.5,246.9
	C-128.5,246.9-128.5,247.1-128.5,246.9 M-131.7,247.1v0.1c0.1-0.1,0.1,0,0.1,0.1L-131.7,247.1c-0.1-0.1,0-0.1,0-0.2h-0.1
	C-131.7,246.9-131.7,247-131.7,247.1 M-128.3,246.9v-0.1V246.9 M-131.2,246.8l0.1,0.1h0.1C-131.1,246.7-131.1,246.8-131.2,246.8
	 M-133.9,246.8C-133.9,246.8-133.9,247-133.9,246.8l0.1-0.1L-133.9,246.8 M-133.8,246.9l0.1-0.2L-133.8,246.9 M-129.3,246.7
	L-129.3,246.7L-129.3,246.7l0.1,0.2l0.1-0.1c0,0,0.1,0.3,0.2,0.1c-0.1-0.1-0.1-0.2-0.2-0.1v-0.1H-129.3 M-131.5,246.5v0.3
	c0.1,0.1,0,0.2,0.1,0v0.1c0.2,0-0.1-0.3,0-0.3v0.1l0.1-0.1l-0.1,0.1c0-0.1,0.1-0.1,0.1-0.1C-131.5,246.5-131.5,246.7-131.5,246.5
	 M-126.9,246.5L-126.9,246.5v-0.2V246.5 M-125.7,246.4v0.1V246.4 M-124.7,246.4v-0.2V246.4 M-131.4,246.3c0.1,0-0.1,0.2,0,0.2
	l0.1-0.1v0.1C-131.3,246.3-131.4,246.3-131.4,246.3 M-134.1,246l0.1-0.1C-134.1,245.9-134.1,245.9-134.1,246 M-125.8,246L-125.8,246
	L-125.8,246L-125.8,246L-125.8,246L-125.8,246l0.1,0.2h-0.2c0.1,0.1,0.2,0.2,0.3,0.2l0.1,0.1h0.2l0.1-0.1v-0.2h-0.5L-125.8,246
	c-0.1,0.1,0.1,0,0.1-0.1C-125.6,245.8-125.8,245.9-125.8,246 M-130.5,246l0.1,0.1L-130.5,246 M-130.7,245.8l-0.1,0.1h-0.2l0.1-0.1
	l-0.1,0.2h-0.1c0.1,0,0-0.1,0.1-0.1c0-0.1-0.1-0.1-0.1-0.1v0.3l-0.2,0.1v0.1h-0.1c0,0.2,0.1,0.2,0.2,0.2h0.1v-0.1h0.2v0.2
	c0.1,0.2,0,0.2-0.1,0.2v0.1l0.1,0.1l-0.2,0.2h0.2c0.1,0.1,0.1,0.1,0.3,0c0.1,0,0.4-0.3,0.4-0.1l0.1-0.1l0.2,0.1v-0.3
	c0.2,0.3,0.2-0.4,0.2-0.4c0-0.1-0.2-0.1-0.2-0.1h-0.2c0.1-0.1,0-0.1,0-0.2c0,0-0.3,0.1-0.2,0h0.1l-0.1-0.1c-0.1-0.1-0.1-0.1-0.2-0.3
	h0.1v-0.1L-130.7,245.8 M-130,245.6v0.2h0.1L-130,245.6z M-126.1,246.3C-126.4,246.2-126.1,246.2-126.1,246.3L-126.1,246.3
	 M-126.2,245.7h-0.3v0.2h-0.1v-0.1l-0.1-0.2h-0.1c0.1,0.1,0,0.2,0,0.3h0.1c0,0.1,0.1,0,0.2,0h-0.1c0,0.1,0.1,0,0.1,0.1h-0.1l0.1,0.1
	h-0.1l-0.1-0.1v-0.1l-0.1,0.1l0.2,0.2v-0.1v0.1h0.2c0,0.2,0.1,0,0.2,0c0,0.1,0.1,0.2,0,0.3h0.3c0.1,0.2,0.3,0,0.3,0v0.1v-0.1
	c-0.1,0.1-0.2-0.1-0.3-0.2l-0.1-0.1V246l-0.1,0.1V246l0.1,0.1v-0.2v0.1h-0.1v-0.2L-126.2,245.7l0.1,0.1c0-0.1,0.1-0.2,0-0.3
	L-126.2,245.7 M-131,245.7v-0.1V245.7 M-131,245.6l0.1,0.2L-131,245.6h0.2v0.1l0.1-0.1H-131 M-127,245.5c-0.1-0.1-0.1,0-0.1-0.1
	h-0.1l-0.2,0.2v0.1l0.1,0.1v-0.1v0.1l0.1-0.1l-0.1,0.1c0.1,0,0.1-0.1,0.1-0.2v-0.1C-126.9,245.7-126.9,245.6-127,245.5v-0.2
	C-127,245.4-126.9,245.5-127,245.5 M-130.5,245.4l0.1,0.1h0.1v-0.1l0.1,0.1v0.1h-0.1v0.1c0.1-0.2,0.3-0.1,0.3,0.1v-0.2
	c0,0.1,0,0,0,0v-0.1h-0.2v-0.1c0,0.1,0.1,0,0.1,0H-130.5 M-131.1,245.4l0.1-0.1L-131.1,245.4 M-124.4,245.4
	c-0.2,0.1,0.2,0.2,0.3,0.2L-124.4,245.4h0.2H-124.4c0.1,0.1-0.1-0.2,0-0.2h-0.2C-124.6,245.4-124.5,245.4-124.4,245.4 M-131.7,245.2
	C-131.7,245.4-131.6,245.2-131.7,245.2 M-131.5,245.3h-0.1v0.1c-0.1-0.1-0.2,0-0.2-0.1h-0.1v0.2l-0.1,0.1c-0.1,0.3,0.2,0.1,0.4,0.2
	v-0.1l0.1-0.2l0.1-0.1L-131.5,245.3l0.1,0.1L-131.5,245.3c0.1,0,0.2,0.1,0.2-0.1h-0.1c0,0-0.1,0-0.1-0.1V245.3 M-127.2,245.2h-0.1
	H-127.2 M-126.7,245.1c0,0.3,0.3,0.1,0.3,0.1h-0.1L-126.7,245.1 M-125.9,245.1l-0.2,0.2v0.2h-0.1c0.1,0,0,0,0,0l0.2,0.4
	c0-0.1,0-0.3,0.1-0.2v0.1c0.1,0,0.2-0.1,0.2-0.2v0.1l0.1-0.1v-0.5h-0.1c0,0.1,0.1,0.2,0.1,0.3c0,0-0.1-0.3-0.2-0.2L-125.9,245.1v0.1
	V245.1v0.1C-125.9,245.1-125.8,245.1-125.9,245.1C-125.8,245-125.9,245.1-125.9,245.1 M-126.1,245c0,0,0.1,0.1,0.1-0.1L-126.1,245
	 M-129.3,244.8c-0.1,0.2-0.1,0.2,0,0.2c0,0-0.1,0.1,0,0.2C-129.3,245-129.2,244.9-129.3,244.8 M-130.1,244.8l-0.1,0.1L-130.1,244.8
	c-0.2,0-0.1,0.2-0.1,0.1l-0.1,0.1h0.4v0.1v-0.2C-129.8,244.9-130,244.9-130.1,244.8C-129.9,244.8-130.1,244.8-130.1,244.8
	 M-123.8,244.8C-123.8,245-123.7,244.8-123.8,244.8L-123.8,244.8L-123.8,244.8 M-130.2,244.5L-130.2,244.5L-130.2,244.5
	 M-129.8,244.4l0.1,0.1h-0.1c-0.1,0.1,0.1,0.1,0.1,0v0.1c0.1,0,0.1,0,0.1-0.1h-0.1L-129.8,244.4h0.1H-129.8h0.1H-129.8l0.1-0.1h-0.1
	V244.4 M-128.2,244.4c0.1-0.1-0.2-0.1-0.2,0l-0.1-0.1v0.1l-0.1-0.1v0.1c0,0,0.2,0.3,0.3,0.2c0-0.2,0.3-0.1,0.3-0.1l0.1,0.1l0.1,0.1
	v0.1l-0.2-0.1l-0.1,0.1l0.2,0.2c0,0.1,0.1,0.1,0,0.1v0.1h-0.1c0,0.1,0.1,0.1,0.1-0.1c0.1,0,0.1-0.3,0.2-0.4v0.1c0,0.1,0,0.1-0.1,0.2
	l0.1-0.1h0.1v-0.1h-0.1c0.1,0-0.3-0.4-0.2-0.5l-0.1,0.1v-0.2L-128.2,244.4 M-130,244.3L-130,244.3l0.1,0.2h0.1h-0.1
	C-129.8,244.4-130,244.2-130,244.3 M-128.8,244.5h-0.2v-0.2c0,0,0-0.1-0.1,0l-0.2,0.2v0.1v-0.1c0,0.1,0.1,0.2,0.2,0
	c0,0.1,0,0.2,0.1,0.1c-0.1,0.1,0.1,0.2,0.1,0.2v0.1v-0.1l0.2,0.1C-128.7,244.8-128.8,244.5-128.8,244.5h0.1H-128.8
	c0.1,0,0-0.1,0.1-0.2l-0.1-0.1V244.5 M-130.6,244.1L-130.6,244.1c-0.1,0.1,0,0.1,0.1,0.2v0.1c0.1-0.1,0.1-0.1,0.1-0.2
	c0-0.1-0.1-0.1-0.1-0.1H-130.6 M-129.9,243.9v0.1V243.9 M-130.7,243.7h0.1H-130.7 M-128.6,243.7l-0.1,0.1h0.1
	C-128.7,243.7-128.5,243.7-128.6,243.7L-128.6,243.7 M-128.8,243.6L-128.8,243.6l-0.2,0.1v0.2c0.1,0,0.2,0.2,0.2,0V243.6l0.1,0.2
	v-0.1L-128.8,243.6 M-127.5,242.9h0.2C-127.3,242.8-127.4,242.9-127.5,242.9L-127.5,242.9L-127.5,242.9L-127.5,242.9 M-129.8,242.9
	h0.1c0.1,0,0.1-0.2,0.1-0.2h-0.1C-129.8,242.7-129.8,242.8-129.8,242.9 M-127.7,242.8v0.2V242.8L-127.7,242.8L-127.7,242.8
	c0,0,0.1-0.1,0-0.1V242.8 M-129.9,242.6C-129.8,242.6-129.8,242.7-129.9,242.6 M-128.6,242.5C-128.7,242.6-128.6,242.5-128.6,242.5
	 M-129.8,242.6L-129.8,242.6v-0.1C-129.8,242.4-129.9,242.6-129.8,242.6 M-129,242.4v0.1V242.4v0.1c0-0.1-0.1,0.1-0.2,0.2h0.1h-0.1
	h0.1v-0.1v0.1h0.1h-0.1h0.1v-0.1l0.2-0.1v-0.1H-129 M-128.5,242.3c0-0.1-0.1,0-0.1,0.1L-128.5,242.3c0.1,0.1,0,0.3,0.1,0.2
	c0,0.1,0.1,0.2,0.1,0.1c0.1,0,0.1,0,0.2-0.1v0.1h0.1l0.1-0.1h-0.2c0,0,0-0.1-0.1-0.2l0.1,0.1h-0.2v-0.1v0.1L-128.5,242.3
	C-128.5,242.4-128.5,242.4-128.5,242.3 M-126.9,242.2C-126.9,242.3-126.9,242.2-126.9,242.2 M-128.6,242.2v-0.1V242.2 M-130.7,242
	l-0.1,0.2L-130.7,242v0.2V242 M-126.8,242C-126.5,242.1-126.7,242-126.8,242v-0.1V242 M-129.4,241.9l-0.1,0.1L-129.4,241.9
	L-129.4,241.9l-0.2,0.2l0.1-0.1L-129.4,241.9v0.1l0.2-0.1C-129.2,241.9-129.4,242-129.4,241.9 M-129.3,241.8l0.1,0.1v0.1l0.1-0.1
	c-0.1,0,0,0-0.1,0.1C-129.2,241.8-129.1,241.8-129.3,241.8 M-127.2,241.8L-127.2,241.8L-127.2,241.8 M-129.1,241.7v0.1V241.7
	 M-128.8,241.7c0,0.1,0.1,0,0.2,0H-128.8 M-129.7,240.2c-0.3,0.2-0.1,0.3-0.1,0.2v-0.1L-129.7,240.2v0.1V240.2 M-127,240.2v0.2
	c0-0.1,0.1-0.2,0.1-0.3L-127,240.2 M-130.4,240l-0.1,0.1c0,0.1,0.1,0.1,0.1,0.1V240 M-130,240v-0.1V240 M-130.7,239.9L-130.7,239.9
	L-130.7,239.9 M-129.8,239.7v0.2c0,0.1,0.1,0,0.1,0L-129.8,239.7h0.1c-0.1,0.1,0.1,0,0.1,0C-129.7,239.7-129.7,239.6-129.8,239.7
	 M-131.2,239.9L-131.2,239.9L-131.2,239.9 M-130.5,239.7c0.1,0.1,0,0.1,0,0.1v0.1h0.1l-0.1,0.1c0.3-0.1,0-0.1,0.1-0.2l-0.1,0.1
	V239.7 M-131.8,239.6C-131.7,239.6-131.8,239.6-131.8,239.6 M-128.6,239.5c-0.1,0.1,0,0.1-0.1,0.1c0,0,0.1,0.2,0.1,0.1l-0.1-0.1
	L-128.6,239.5 M-129.8,239.4v0.1V239.4v0.2C-129.9,239.5-129.8,239.4-129.8,239.4l-0.1,0.2l0.1-0.1V239.4 M-131.6,239.4
	L-131.6,239.4l-0.1,0.2c0,0-0.1,0.1,0,0.1v0.1v-0.1l0.1,0.2c0.1-0.2,0,0.2,0.1,0.2l0.1-0.1v0.1V240h-0.1l0.1-0.1v-0.1v0.1l-0.1-0.1
	c-0.1-0.1,0.1-0.1,0.1-0.2L-131.6,239.4 M-130.7,239.3C-130.6,239.3-130.7,239.4-130.7,239.3 M-131.8,239
	C-132,239-131.7,239.1-131.8,239 M-128.8,239C-128.8,239.1-128.7,239.2-128.8,239C-128.8,239-128.8,239.1-128.8,239 M-130.7,238.7
	l0.1,0.2l0.1-0.1c0.1,0.1,0.2,0,0.2,0.2h-0.1v0.1h-0.1c0.1,0.1,0.1,0.2,0,0.2v0.1l0.3-0.1l-0.2-0.1c0.1,0,0.1-0.2,0-0.3l-0.1-0.1
	v-0.1v0.1v-0.1H-130.7 M-130.5,238.6C-130.5,238.5-130.7,238.6-130.5,238.6 M-130.7,238.4v0.1V238.4 M-130.3,238.2
	C-130.3,238.4-130.2,238.2-130.3,238.2 M-125.3,256.6L-125.3,256.6L-125.3,256.6 M-123.2,253.6
	C-123.2,253.5-123.2,253.5-123.2,253.6 M-129.8,236.3v-3.5c0-0.4-0.3-0.7-0.7-0.7h-8.2c-0.4,0-0.7,0.3-0.7,0.7v18.4
	c0,0.5-0.4,0.6-0.6,0.2l-7.2-17.4l-0.3-0.7c-0.5-1.1-0.5-1.2-1.9-1.2h-8.9c-0.4,0-0.7,0.3-0.7,0.7v36.4c0,0.4,0.3,0.7,0.7,0.7h7.8
	c0.4,0,0.7-0.3,0.7-0.7v-18.4c0-0.5,0.4-0.6,0.6-0.2l7.2,17.4l0.3,0.7c0.2,0.7,0.9,1.2,1.6,1.2h5.5c2.3,0,4.2-1.9,4.2-4.2v-9.5
	c-0.1,0-0.2-0.1-0.3-0.1l-0.1-0.1l0.1,0.2h-0.2v-0.1v0.1l0.1-0.1h-0.2c0,0.2,0,0.3,0.1,0.2h0.1l0.1,0.1h-0.1l0.1,0.1
	c0,0-0.2,0-0.2-0.1v0.2v-0.1l-0.1,0.1l-0.1,0.1c-0.1,0.2,0,0.2,0,0.2h-0.3c-0.2,0-0.3,0.1-0.5,0.1l0.1-0.1l-0.1,0.1l-0.2-0.1h0.1
	c-0.1-0.1,0-0.3-0.2-0.3v0.2l-0.1-0.2l-0.1,0.1l-0.2,0.5v-0.1l0.1,0.1h-0.1l0.1,0.1l-0.1,0.4v-0.1c-0.2,0-0.2,0-0.2,0.2h-0.1v-0.1
	l-0.1,0.2h-0.1c0-0.1,0.1-0.3,0.1-0.4h-0.1l-0.2,0.2v-0.1l-0.1,0.3l-0.2,0.1v-0.1h-0.1c0,0.3,0.2,0.2,0,0.2l-0.1,0.1
	c-0.1,0.1-0.1,0.3-0.2,0.1c-0.1-0.2,0-0.3,0-0.3c0.1,0,0.1-0.3,0.2-0.4l-0.1,0.1v0.1v-0.1h-0.1c0,0-0.1-0.2-0.2-0.2
	c0-0.2-0.2-0.2-0.2-0.3l0.1-0.1l-0.1-0.2c0,0,0.1-0.1,0.2,0.1v-0.1c0.1-0.1,0.1-0.5,0.3-0.4c-0.2-0.2,0-0.4,0.1-0.5
	c0-0.1,0-0.5,0.2-0.3v-0.1h0.1v-0.1h0.1l-0.1-0.1l0.1-0.1h0.1h-0.3v-0.1v0.1v-0.2l0.3,0.1c0.1-0.1,0-0.2,0-0.2c0-0.1,0-0.2,0.1-0.3
	v0.1v-0.2v0.1l-0.1,0.1l-0.2,0.2v-0.1l-0.1,0.2h-0.1l-0.3,0.3v-0.1c-0.1,0.1-0.2,0.5-0.2,0.3l0.1,0.1c-0.1,0-0.2,0.1-0.1,0.2
	c-0.1-0.1,0,0.3-0.2,0.3c-0.1,0-0.1,0.2-0.2,0.3l-0.1-0.3h-0.1v0.1h-0.1c0,0.2-0.1,0.1-0.1,0.1h0.2v0.1l0.1-0.1v0.1h-0.1v0.1v-0.1
	v0.1h-0.2v-0.2h-0.1c0.1,0.1-0.1,0-0.1-0.1l-0.1-0.1l0.1-0.1h0.1v-0.2l0.1-0.2h0.1l0.1-0.1l-0.2,0.5l0.1-0.1l-0.1-0.3l-0.2,0.2
	c-0.2,0.2-0.4,0.3-0.3,0h0.1c0-0.1-0.2-0.4-0.1-0.4c-0.4-0.3,0-0.3,0.1-0.3c0,0,0.1-0.3,0.2-0.1c0.1-0.2,0.3-0.1,0.4,0h-0.1l0.1,0.2
	v-0.1l0.2-0.1h-0.1c0-0.1,0.1-0.1,0.1,0h0.1h-0.1c0,0,0.4-0.2,0.4-0.3l-0.1,0.1c0-0.1,0.1-0.1,0.1-0.1v-0.1h0.1v0.1
	c0.2-0.2,0.4,0,0.4-0.3h0.1v0.2l0.1-0.2c0.1,0.1,0.2-0.1,0.2-0.2c-0.2,0.1-0.5-0.1-0.6-0.1v-0.1h-0.2c0.1,0.1,0,0.1,0,0.2l0.1,0.1
	h-0.1l-0.2,0.1v-0.1h-0.1c0-0.1,0,0,0,0v-0.1c0,0-0.1,0,0,0.1h-0.1l0.2,0.1c0.1,0.1,0,0.3-0.1,0.1v-0.1l-0.1,0.1l0.1,0.2h-0.1
	l0.1-0.1l-0.1,0.1v0.2h-0.2c-0.1,0,0-0.3,0.1-0.3c0,0-0.1-0.3-0.1-0.1h0.1h-0.1v0.2v-0.1c0,0-0.2,0.1-0.1,0.1h-0.1v-0.2v0.1h-0.2
	c0,0.1-0.1,0-0.1,0.1v0.1l0.1,0.1c-0.1,0.1-0.1,0.2-0.2,0.3h-0.2l0.1-0.1h-0.4v-0.1v0.2v-0.1h0.1c0,0.1-0.2,0.2-0.2,0.2
	c0.1,0,0.1,0.1,0,0.2h-0.2v-0.3l0.1,0.1l-0.1-0.2h-0.1c0,0,0-0.2-0.1-0.1c0-0.1,0.1-0.1,0.1-0.1h0.1l-0.1-0.1h0.1
	c-0.1,0.1,0.1,0,0.1,0h-0.1c0.1-0.1,0-0.1,0-0.2c0,0.1,0.1,0.1,0.2,0.1v0.1v-0.1c0.1,0,0.2,0,0.2-0.1h0.1l-0.1-0.1l0.1-0.1h0.1h-0.1
	v-0.2v0.1c0,0.1-0.1,0.1-0.1,0.1h-0.1l0.1-0.1l-0.1,0.1h0.1v0.1c-0.1-0.1-0.2,0-0.2,0.1h-0.1c0-0.1-0.2-0.2,0-0.2
	c0-0.1-0.3-0.3-0.2-0.4c0-0.1-0.1-0.4-0.2-0.6h0.1c0-0.1,0.4-0.6,0.4-0.8h0.1c0,0,0-0.4,0.2-0.2h-0.1h0.1v-0.3l-0.1,0.1
	c0-0.1-0.2-0.2-0.2-0.4c0.2,0,0.3,0,0.4-0.1c0-0.2-0.1-0.1-0.1-0.2h0.1v-0.1c0.2,0.1,0.1,0,0.3,0.2c0.1,0.1,0.1,0,0.1-0.1h0.1v-0.4
	c0.2-0.1,0.2-0.3,0.2-0.5c-0.1-0.2,0.1-0.2,0.1-0.3c0,0,0.2,0.1,0.1-0.1v-0.1c-0.2,0.2,0.1-0.1,0-0.2h0.1c0,0,0.1,0.2,0.2,0.1
	c-0.1-0.1,0-0.1,0-0.2h0.1c-0.1,0.1,0.3,0.3,0.4,0.3v0.1h-0.2l0.1,0.1c0-0.1,0-0.1,0.1-0.1v-0.1h-0.1V250l0.1,0.1h0.1V250h0.1v0.1
	c0,0,0.1,0,0.1-0.1h-0.1c0.1,0,0.2,0.1,0.1-0.1h0.1c-0.1-0.1,0.1-0.1,0.2-0.1c0-0.1-0.2-0.2-0.2-0.1l0.1-0.1c0-0.1-0.1,0.1-0.1,0.1
	v-0.1h-0.1v0.2v-0.1v0.1h-0.2l-0.1,0.2c0,0.1-0.1-0.2-0.1-0.4c-0.1-0.2-0.1-0.5,0-0.3c0-0.1,0-0.2-0.1-0.2s-0.1,0-0.1-0.2h0.3h-0.1
	l0.3-0.3h0.1c0-0.2,0.3-0.1,0.3,0c0.1-0.1,0.5-0.1,0.6-0.1c0-0.1,0.1-0.3,0.1-0.2h0.1V248l0.3-0.2h-0.1h0.3l0.1-0.1h0.1v-0.1
	c0-0.1-0.2-0.1-0.3-0.1h0.1c0-0.2-0.3-0.3-0.2-0.2v-0.1v0.2c-0.1-0.1,0,0-0.1,0.1c-0.1,0-0.2-0.3-0.2-0.4c0.1,0,0.2-0.2,0.1-0.2
	v-0.1c0,0,0.3-0.4,0.4-0.6l0.1-0.1l0.1-0.1c-0.1-0.1,0,0-0.1-0.2h-0.1l0.1-0.1h-0.1c-0.1,0-0.2-0.1-0.3,0.1l0.1,0.1h-0.2v-0.1
	l-0.1,0.1v0.2c0-0.1-0.2,0-0.2,0.1s-0.3,0.1-0.3,0h0.2c-0.1,0,0.1-0.3,0-0.3v-0.1l-0.2,0.1c0.2,0,0,0.2-0.1,0.3h-0.2v0.2h-0.2
	c0,0,0-0.2-0.1-0.1v0.1c0-0.2-0.4,0.2-0.2,0.2c0.1,0.1-0.2,0.1-0.2,0.1v0.1l0.1-0.1v0.1v-0.1v0.1h-0.1l-0.1,0.1v0.2h-0.2
	c0.1,0,0.1-0.2,0.1-0.2h-0.1c0,0.3-0.2,0.2-0.2,0.1l-0.1,0.1h0.1l-0.1-0.1v0.2c0-0.1,0-0.2,0.1-0.2l-0.3,0.1l0.1,0.1h-0.2l-0.2-0.2
	l-0.1,0.1c-0.1-0.1,0.1-0.5,0.1-0.7v0.1c0-0.2,0-0.4,0.1-0.4l0.1-0.2c0.2,0,0.2,0.1,0.3,0.2c-0.1-0.1,0,0,0,0h0.2c0,0,0-0.1-0.1-0.1
	h-0.2l-0.1-0.1l0.1-0.1v-0.5c-0.1,0,0,0.1,0,0.1c-0.2-0.3-0.1-0.3,0-0.5h0.3v-0.4l0.1-0.1c0.1,0,0.1,0.1,0.1,0.2l0.2-0.1
	c0.1-0.1,0.2-0.1,0.2,0.1l0.1-0.2v0.1c0,0,0.1-0.2,0-0.2v0.1c0-0.2-0.2-0.3-0.1-0.5l0.2-0.3c0.1-0.1,0.2-0.1,0.4-0.3h-0.1h0.3
	l0.1-0.1c0,0.1,0.1,0.2,0.1,0.2v-0.1c0.1,0.1,0.1,0,0.1,0c0-0.1,0.4-0.2,0.4-0.2v-0.4v0.1l0.1-0.1l0.2-0.1c0-0.1,0.2-0.1,0.2-0.3
	l0.1,0.1l-0.1-0.2h0.1v0.1h0.1c0,0,0-0.1,0,0v0.1l0.1,0.1v-0.1c0-0.1-0.1-0.2,0-0.3c0,0-0.5,0.2-0.6,0.2l-0.1-0.1
	c0,0-0.5,0.3-0.6,0.1h0.1l-0.3-0.1v0.1v-0.5c0.1-0.1,0.3,0,0.3-0.2c0,0,0.3,0,0.3,0.2c0.3-0.5,0.3-0.4,0.3-0.6c0,0,0.2-0.1-0.1,0
	l-0.1,0.1V241l0.1,0.1l0.1-0.2v0.1v-0.1v0.1v-0.3l0.1,0.2l0.1-0.4h0.3l-0.1,0.1h0.2l-0.1-0.1l-0.1-0.1c0.1,0,0,0,0-0.1
	c0-0.1-0.1-0.1-0.1-0.1s-0.3-0.1-0.3-0.3c0.1,0.2,0.1-0.2,0.1-0.2c0,0.1-0.1,0.1-0.2,0h-0.1c0-0.1,0-0.2,0.1-0.3h-0.1
	c0-0.1,0-0.2-0.1-0.3c0.2,0,0-0.3-0.1-0.3c-0.1-0.3,0.2-0.2,0.3-0.4h-0.1c0-0.2,0.3-0.4,0.5-0.4l0.2,0.2h0.1c-0.2,0-0.2-0.4-0.1-0.5
	c0.2,0,0.5-0.3,0.7-0.3l0.1,0.1c0.1,0.1,0.2,0.2,0.2,0.1v0.1c0-0.1,0.4-0.1,0.3,0.2c0,0,0.1,0,0.1,0.1l0.1-0.1c0.1,0,0.5,0,0.5,0.1
	l0.1-0.2c0-0.1,0.1-0.2,0.1-0.2v0.1h0.1v-0.1v0.1h0.3c0.1,0,0.3,0,0.3-0.1c0,0.3,0.2,0.2,0.2,0.4v-0.1v0.1v-0.1l0.1,0.1
	c0,0-0.1,0.1,0,0.2c-0.1,0.1,0,0.2,0,0.3v-0.1l-0.1,0.2c-0.1-0.1-0.2,0-0.3,0c0,0.2,0.2,0.3-0.1,0.4h0.1h-0.1c0,0,0.6,0.5,0.2,0.5
	c0,0,0.3,0.2,0.3,0l0.3-0.3v0.1c0.1,0,0.1-0.3,0.1-0.3h0.1c0.1-0.1,0.2-0.1,0.2,0.1c0.1-0.1,0.1-0.1,0-0.2v-0.2l0.2-0.1v0.3
	c0,0-0.1,0.2,0,0.3c0,0,0.4-0.2,0.2-0.3h0.3c0.1,0.1,0.2,0.2,0.1,0.4c0,0-0.1,0.2-0.2,0.3h0.1c0,0-0.1,0,0,0.2l0.1-0.1v0.2
	c0,0.2,0.2,0,0.2,0.3c0-0.1,0.1,0.3,0.1,0.4l0.1-0.1c0.1,0.2,0,0.3-0.1,0.4c0.1,0.1,0.1,0.1,0.1,0.3v0.1l0.2,0.1
	c0.1,0,0,0.1,0.1,0.2c0,0.2-0.1,0.2-0.1,0.2l-0.3,0.6l-0.3-0.2v0.1h0.1v0.3c0,0.1,0.2,0,0.2-0.2l0.1,0.1c0-0.2,0.1-0.1,0.2-0.2
	c0.1,0.1,0.3,0,0.2,0c0.1-0.2,0.2-0.1,0.4-0.1v0.1l0.1-0.1h0.1c0,0.2,0.1,0.2,0.2,0c0.2,0,0,0.5,0.1,0.6c0,0.1,0,0,0,0v0.2h0.2
	l-0.1,0.2l-0.2,0.2l0.1,0.2c-0.1,0,0,0.1-0.1,0.2c-0.2-0.5-0.2-0.3-0.1-0.2v0.1c0-0.1,0.1-0.1-0.1-0.1l-0.1,0.1c-0.2,0,0,0.2,0,0.3
	c0.1-0.2,0.2-0.1,0.3-0.1h0.2c0,0.1,0.1,0,0.2,0h0.1v0.1c0.1-0.1,0.3,0,0.3-0.4c0.1,0,0.1,0,0.2-0.1v0.1h0.1v0.1h0.1v0.2
	c0,0,0,0.1-0.1,0.2c0,0.1-0.1,0.2-0.2,0.2c0.1,0.1,0,0,0,0.1l0.2,0.1c0.1,0.1,0.2,0.2,0.3-0.1l0.3-0.2l0.1,0.2l0.1-0.1v0.1v-0.1h0.1
	l-0.1,0.4l-0.1-0.1l-0.1,0.1h-0.1v0.1l-0.1,0.1h0.1c0,0.2,0.2,0.2,0.3,0.3c0,0.3-0.1,0.3-0.3,0.4h0.1c0-0.2-0.1,0-0.1,0
	c-0.1,0.1-0.2,0.3-0.4,0.3v0.2V246v0.4c0,0-0.1-0.2-0.1,0.1l-0.1-0.3v0.2c0-0.1-0.1-0.1-0.2-0.1c0.1,0.1,0,0.1,0.1,0.3h-0.2v-0.2
	v0.1v-0.2l-0.2,0.2l-0.1-0.2v0.2l0.1,0.1v-0.1l0.1,0.1l0.1-0.1v0.1h0.1c0,0,0.1,0.1,0,0h0.1v0.1l0.2-0.1v0.2c0.1-0.1,0.1,0,0.3,0.1
	l0.1-0.1c0,0.2,0,0.3-0.2,0.3c0.1,0.1-0.2,0.2-0.2,0.2c-0.1,0-0.1-0.1-0.1,0.1h-0.2v0.1h-0.1v0.1v-0.1c0,0,0.1,0.1,0.1,0
	c0.2,0.1-0.3,0.3,0.3,0.1l0.1,0.1l0.1,0.1l-0.1,0.4h0.1h-0.1v0.3c0.2-0.1,0.1,0.2,0,0.2v0.2c0.5,0.1-0.3,0.7-0.2,0.5v-0.3h-0.2
	c-0.3,0,0-0.1-0.1-0.2h-0.1v0.1h-0.1c0.1,0,0.1,0,0.1,0.1c-0.1,0-0.2,0-0.1,0.1h-0.1h0.1h-0.1c-0.1,0,0.1,0.2,0.2,0.1l0.1,0.2v0.1
	c0.1-0.2,0.1,0,0.2,0.1v-0.1c0,0-0.1,0.3-0.2,0.2l0.1,0.1c-0.1,0-0.2,0.1-0.1,0.1c0.1-0.1,0.1,0.1,0.1,0.2h-0.6V250h-0.1v-0.1
	l-0.1,0.1h0.1l-0.3,0.2v0.1h-0.1v0.1c0,0,0-0.2-0.1,0h-0.1v0.1h0.1v0.2h-0.1l-0.2,0.3h0.1h-0.2c0,0,0.1-0.1,0.1,0v0.1
	c0.1,0.1,0.1,0.2,0.2,0.1v0.1c0.1,0,0-0.2,0.1-0.1c0,0,0.1,0.3,0.1,0.1v0.1c0,0,0.4,0,0.3,0.2v0.1l0.1-0.1c0.1,0,0.4,0,0.5-0.1
	c0,0.1,0.1,0.1,0.2,0v0.2l0.1-0.2c0,0.2,0.1-0.1,0.2-0.1h0.1v0.4l0.1-0.1v0.2l-0.1,0.1h0.1v0.2l0.2,0.2c0.1-0.1-0.1-0.1,0.1-0.1
	c0,0.1,0.1,0,0.1-0.1v0.1h0.3c0.1,0-0.1,0.1,0,0v-0.1h0.1v0.1c0,0.1,0.2,0,0.1,0.1v-0.1l0.3,0.5v-0.1v0.2c-0.2,0.3-0.1,0.3-0.3,0.3
	h-0.1h0.1h-0.1c-0.1,0-0.1,0.1-0.3,0c-0.1,0-0.2,0.1-0.2,0.2v0.2c0,0-0.2,0.2-0.2,0.1v0.1l-0.1,0.1c0,0,0.2,0.1,0.2,0l0.1-0.1
	c0.1-0.1,0.1-0.2,0.2,0.1c0,0,0.1-0.2,0.1,0c0-0.1,0.1-0.1,0.1,0h0.1v-0.1v0.1v-0.1l0.1,0.1l0.2-0.1v0.1c0.1-0.2,0.4-0.4,0.5-0.4
	c0,0.2,0.3,0.1,0.2,0h0.2v0.5c-0.2,0-0.4,0-0.5,0.2h-0.2v0.2l-0.1,0.1v0.2h0.1v0.2l0.2,0.2v0.1v-0.1h-0.5l-0.3,0.3h-0.1l-0.1,0.1
	v-0.1h-0.2c-0.1,0.1-0.3,0.2-0.4,0.3l-0.1-0.2l-0.1-0.1l-0.1,0.1l-0.1,0.2v0.1l-0.1,0.1c0.1-0.1,0.1,0,0.1,0l-0.1,0.1v-0.1l-0.1-0.1
	v0.1l-0.1,0.1l-0.1-0.1h0.1h-0.1c0-0.1,0,0,0.1-0.1l-0.1-0.1c0,0.3-0.1,0.2,0.1,0.4h-0.2h0.1v0.1c-0.1,0,0,0.1,0,0.2v-0.1l-0.1,0.2
	c0.2,0.1,0.2,0.1,0.1,0.1l-0.2-0.1l-0.4-0.3c0.1-0.2,0-0.1,0-0.2c0-0.1-0.1-0.1,0.1-0.2v-0.1l-0.1,0.1v-0.1c-0.1,0-0.3-0.1-0.3-0.2
	h0.1v-0.1h0.1v-0.1l0.1,0.1l0.1,0.1v0.1c0.1-0.1,0-0.2,0-0.3h-0.1v-0.1v0.1l-0.1,0.1l0.1,0.1h-0.1v-0.1c0,0-0.1-0.1-0.1,0v-0.2
	l0.2-0.1h-0.1l0.1-0.1v-0.2c0.1-0.2-0.2-0.2-0.1-0.2h-0.1v-0.2c0.1,0,0.1-0.1,0-0.1v0.1c-0.1-0.2,0-0.1,0-0.4h-0.1l0.1,0.1
	c-0.1,0-0.5-0.2-0.4-0.4v0.1c0.1-0.1,0-0.1,0-0.1v-0.1l-0.2,0.2l0.1,0.3l-0.1,0.2h-0.1c0,0-0.5,0.3-0.4,0.1h-0.3
	c0-0.1-0.3-0.1-0.3,0v0.1h0.1l0.1,0.1l-0.1,0.1c0,0,0.1,0.1,0.1,0.2c0.2,0,0.3,0.1,0.6,0.2V255l0.1,0.1v0.1h0.3
	c-0.1,0.1,0.2,0.1,0.2,0.1l-0.1,0.2c0.1-0.1,0.3,0.2,0.1,0.2c0-0.1-0.1-0.2-0.2-0.2v-0.2l-0.1,0.1c0-0.1,0,0-0.1,0.1v-0.1l-0.2-0.1
	h-0.2h0.1h-0.1c0-0.1-0.1-0.1-0.2-0.1h0.1v0.1c0-0.1,0-0.2-0.2-0.2h-0.1v0.1h-0.1v0.1l-0.2,0.2c-0.1-0.2-0.3-0.2-0.4-0.1v-0.1
	l-0.2-0.1h-0.1v-0.1v0.1v-0.1l-0.3-0.1h-0.2h0.1l-0.2-0.1v0.2l-0.1,0.1v-0.1h-0.2v0.1h-0.1v0.2h0.1v0.1h-0.1c0,0.1,0,0.1,0.1,0.1
	l0.1,0.1h-0.1h0.1c0.1,0.1-0.1,0.2,0.1,0.3l-0.2,0.2l-0.1-0.1h-0.1V256l-0.1,0.1l-0.1,0.1v9.8c0,2.3,1.9,4.2,4.2,4.2h8.5
	c8.8,0,11.9-4.1,13-8c0.4-1.6,0.6-3.2,0.6-4.3v0.2v-2.4c0-0.4-0.3-0.7-0.7-0.7h-7.8c-0.4,0-0.7,0.3-0.7,0.7v0.3
	c0,3.6-0.5,5.2-4.3,5.2c-4,0-4.3-2.5-4.3-6.5v-7.6c0-4,0.3-6.5,4.2-6.5h0.1c3.9,0,4.3,1.6,4.3,5.4v0.4c0.1,0.3,0.4,0.6,0.7,0.6h7.8
	c0.3,0,0.6-0.2,0.7-0.5v-2.1c0-1-0.1-3.1-0.5-4.7c-1-3.8-3.9-7.9-12.3-8.1h-2.4C-125,231.2-128.1,233.5-129.8,236.3"/>
<g>
	<defs>
		<path id="SVGID_1_" d="M-133.7,257.5l0.1-0.1L-133.7,257.5 M-133.9,257.2v-0.1V257.2 M-133,257.1v0.4h0.1
			C-133,257.3-132.9,257.2-133,257.1 M-135.1,256.6c0.1,0.1-0.1,0.2,0,0.2V256.6 M-133.7,256.4l0.1,0.1L-133.7,256.4L-133.7,256.4
			 M-132.2,256.4v0.1h0.1l0.1-0.1H-132.2 M-133.1,256.2l0.1,0.1L-133.1,256.2 M-133.3,256.2c-0.1,0.1,0,0.1,0,0.1V256.2
			 M-132.4,256.2v-0.1V256.2 M-133,256l0.1,0.1C-132.8,256.1-132.8,256-133,256C-132.8,256.1-132.9,256-133,256
			C-132.9,256.1-132.9,256-133,256 M-133.5,256C-133.4,256-133.4,256-133.5,256 M-132.6,255.9l-0.1,0.1h0.1V255.9 M-130.8,255.8v0.1
			V255.8c0,0.1-0.1,0.2-0.1,0.2h0.1c0,0,0-0.1,0,0V255.8 M-133.4,255.9l0.1-0.1L-133.4,255.9 M-133.3,255.6c0.1,0,0,0.1,0,0.1V255.6
			L-133.3,255.6 M-134.5,255.7h-0.1v-0.1c0,0.1-0.2,0.4-0.3,0.3C-134.9,256.2-134.5,255.7-134.5,255.7l0.1-0.1L-134.5,255.7
			 M-132.1,255.5l-0.1,0.1c0,0.2,0.1,0.1,0.2,0L-132.1,255.5 M-131.6,255.5h0.1v-0.1L-131.6,255.5l0.1-0.1L-131.6,255.5
			 M-124.8,255.5l-0.1,0.1l0.1,0.1V255.5L-124.8,255.5c0,0.2,0,0.3,0.1,0.2h-0.1V255.5l0.1,0.2l0.1-0.1v0.1c0-0.1,0.1-0.3-0.1-0.3
			c0.1,0,0,0.1,0,0c0,0.1-0.1,0,0,0L-124.8,255.5 M-135.4,255.3C-135.5,255.2-135.4,255.4-135.4,255.3 M-131.2,255.2
			C-131.1,255.3-131.2,255.2-131.2,255.2v-0.1V255.2 M-130.9,255L-130.9,255h0.1H-130.9 M-127.5,255L-127.5,255
			c0.2,0.1,0.2,0.1,0.2,0h0.1v-0.1L-127.5,255 M-123,255L-123,255L-123,255L-123,255 M-129.2,255.2l0.2-0.1h-0.2V255V255.2
			 M-127.5,255.1v-0.2C-127.5,254.9-127.6,255.1-127.5,255.1 M-131.1,255.1v0.2c0-0.1,0.1-0.1,0.1-0.2l-0.1,0.1v-0.3V255.1v-0.2
			V255.1v-0.2V255.1 M-134.2,254.9v0.2V254.9 M-127.4,254.8v0.1V254.8l0.1,0.1L-127.4,254.8 M-125.1,254.8c0,0.1,0.1,0.3,0.1,0.3
			h0.2L-125.1,254.8L-125.1,254.8L-125.1,254.8 M-124.9,254.7C-125.1,254.8-124.9,254.7-124.9,254.7 M-134,254.7L-134,254.7
			c-0.1,0.1-0.2,0.3-0.2,0.3l0.1-0.1C-134.1,254.8-134,254.8-134,254.7h0.3H-134 M-124.8,254.7l0.1,0.2v0.1L-124.8,254.7
			L-124.8,254.7C-124.7,254.6-124.7,254.7-124.8,254.7l0.1-0.1L-124.8,254.7 M-125.2,254.6v0.3l0.1,0.1L-125.2,254.6 M-125,254.5
			l0.1,0.1v-0.1C-124.9,254.5-124.9,254.6-125,254.5 M-128.7,254.5C-128.8,254.6-128.7,254.6-128.7,254.5L-128.7,254.5l0.1,0.1
			L-128.7,254.5 M-127.5,254.8l0.1-0.1l-0.2-0.1C-127.6,254.7-127.6,254.8-127.5,254.8 M-125.3,254.6l-0.1-0.2L-125.3,254.6
			 M-126.5,254.5h0.1H-126.5 M-130.7,254.4l0.2,0.1v-0.2l-0.2-0.1V254.4 M-129.2,254.2v0.2V254.2 M-134.8,254.2v0.2V254.2v0.2V254.2
			 M-130.4,254.2h-0.1C-130.3,254.4-130.4,254.3-130.4,254.2 M-135.4,254.2C-135.4,254.1-135.3,254.2-135.4,254.2 M-134.7,254.1
			C-134.7,254.1-134.9,254.2-134.7,254.1 M-136,254.1c0,0.1-0.2,0.1-0.1,0.1l0.1,0.1V254.1l0.1,0.1h-0.1h0.1L-136,254.1 M-125.5,254
			l0.1,0.1v0.1c0.1,0-0.1,0,0,0.1h0.1c0,0.2,0,0.1,0.1,0.1l0.1,0.1v-0.2v0.1l-0.3-0.2L-125.5,254L-125.5,254 M-134.5,254.1V254
			C-134.7,254-134.6,254.1-134.5,254.1 M-129.1,254.1C-129.2,254.1-129.1,254.1-129.1,254.1C-129.2,254.1-129.5,254.2-129.1,254.1
			l0.1-0.1v-0.2L-129.1,254.1 M-133.4,254h0.1H-133.4 M-126,253.7v0.1V253.7L-126,253.7 M-133.8,253.8l-0.2,0.2h0.1l0.1,0.2h0.1
			l0.1-0.1C-133.7,254.2-133.7,253.9-133.8,253.8l0.1,0.1C-133.6,253.8-133.7,253.7-133.8,253.8 M-133.2,253.8v0.1V253.8l0.2-0.2
			h-0.3L-133.2,253.8 M-127,253.8l0.1,0.1v0.3v-0.1h0.1c0.1-0.1,0.2,0,0.2,0l0.1-0.1c-0.1,0,0,0,0,0L-127,253.8c0-0.2,0-0.3-0.1-0.3
			C-127.1,253.6-127.1,253.7-127,253.8 M-132,253.4c0,0.1,0,0.2-0.1,0.2c0,0.1,0.1,0.3,0.1,0.3h-0.1c0,0.1,0.1,0.1,0,0.2
			c-0.1,0.1,0.1,0.1,0.2,0.2c0,0.1,0.4,0.3,0.5,0.1v-0.2c0,0.1,0.1-0.1,0.1-0.1c0,0.1,0.1-0.1,0.1-0.1v-0.1l-0.1,0.1
			c-0.1-0.1,0.1-0.2,0-0.2v-0.1c0,0.1,0.2-0.1,0.2-0.1l-0.1-0.1l0.1,0.1h-0.2l-0.3,0.4c0-0.2-0.1-0.3-0.2-0.4h0.1l-0.1-0.1l-0.1-0.1
			H-132 M-131.7,253.3v0.2h0.1v0.1c0-0.1,0.1-0.1,0.1-0.2L-131.7,253.3 M-126.8,253.2l0.1,0.1l0.1-0.1c-0.1,0.2,0.1,0.2,0.2,0.2v0.2
			v-0.1v0.1l0.1-0.1c0,0.1,0.1,0.1,0.1-0.1h-0.1l0.1-0.2h-0.1l-0.1-0.1c-0.1,0.1-0.1,0.1-0.1,0l-0.1,0.1c-0.1,0-0.2,0-0.2-0.1V253.2
			 M-127.7,253.1l0.1,0.1C-127.6,253-127.7,253.1-127.7,253.1 M-123.4,253C-123.4,253-123.5,253.1-123.4,253 M-126.9,253.1
			c0,0-0.2,0.1-0.1,0.1L-126.9,253.1v0.2C-126.9,253.6-126.6,253.3-126.9,253.1 M-128.2,253c0,0.2,0.1,0.1,0.1,0.2l0.3-0.2
			c-0.1,0-0.2-0.1-0.3-0.1L-128.2,253 M-123.3,253.1L-123.3,253.1C-123.3,253-123.4,253.1-123.3,253.1 M-135.8,252.7
			C-135.7,252.7-135.7,252.7-135.8,252.7 M-135.6,252.7L-135.6,252.7L-135.6,252.7 M-132.1,252.6l-0.1,0.1L-132.1,252.6
			L-132.1,252.6 M-129.3,252.5L-129.3,252.5L-129.3,252.5 M-135.7,252.4l0.2,0.1l-0.1,0.1l0.1,0.1l0.1-0.1v-0.1l-0.2-0.2
			L-135.7,252.4 M-131.7,252.2h0.1H-131.7l0.2,0.1l-0.1-0.1H-131.7 M-132.4,252.2l0.1,0.1v-0.1H-132.4 M-132,252.3
			C-132.1,252.3-132.1,252.4-132,252.3v0.2l0.1,0.1h0.1l0.1-0.1c0,0-0.1,0.2,0,0v0.1h0.2c0-0.2-0.2-0.1-0.2-0.2
			c0.1-0.1-0.1-0.1-0.2-0.1H-132l0.2-0.1C-131.8,252.1-132.2,252.2-132,252.3 M-128.6,252.2v0.1V252.2 M-128.7,252.2
			c0-0.1,0.1-0.2,0-0.1V252.2V252h-0.1C-128.8,252.2-128.7,252.2-128.7,252.2 M-131.4,252.1h-0.1H-131.4
			C-131.4,252-131.5,252-131.4,252.1 M-128.2,252c0,0-0.1,0.2-0.1,0.3L-128.2,252L-128.2,252 M-130.5,252c0,0.1-0.2,0.1-0.2,0.2
			l0.1,0.1v0.1l-0.2,0.2l0.3,0.1l0.1-0.1l0.1,0.1h0.2l0.1,0.1c0-0.1,0-0.3-0.1-0.3v0.1v-0.4v0.1c0,0-0.1-0.1,0-0.1h-0.3
			C-130.3,252.2-130.4,252-130.5,252C-130.6,252.1-130.4,252-130.5,252 M-129,252C-129.1,252.1-129,252-129,252 M-130.4,252l0.1,0.1
			C-130.2,252-130.3,252-130.4,252 M-131,251.9v0.1V251.9v0.3h0.1c0-0.1,0-0.1,0,0l-0.1-0.1C-130.9,252.1-131,252-131,251.9
			 M-132.4,251.9c-0.2,0.1,0,0.2,0,0.2V251.9 M-129.3,251.9c0,0.1,0,0.3,0.1,0.1v0.1L-129.3,251.9 M-129.1,251.8c0,0,0,0.3,0.1,0.2
			c0.1,0.1,0.1,0.2,0.2,0.2l-0.1-0.1l0.1-0.1v-0.1c0,0-0.1,0.1,0,0h-0.1c0.1,0,0,0,0,0S-128.9,251.8-129.1,251.8 M-131.3,251.7h0.1
			H-131.3 M-128.7,251.6L-128.7,251.6L-128.7,251.6 M-132.1,251.6C-132.1,251.7-132.1,251.6-132.1,251.6 M-128.1,251.7
			c0,0.1,0.2,0.3,0.2,0.4v0.1V252v0.1v-0.5C-128,251.8-128,251.7-128.1,251.7l0.1-0.2L-128.1,251.7 M-135,251.6h0.1H-135
			 M-129.3,251.6l0.2,0.1l0.1-0.1v-0.1h-0.1l-0.1-0.1L-129.3,251.6 M-127.8,251.5h0.3c0-0.1-0.1-0.1-0.2-0.1L-127.8,251.5
			 M-127.5,251.4l0.1,0.1L-127.5,251.4 M-128.9,251.4L-128.9,251.4L-128.9,251.4 M-128.1,251.3l0.1,0.1L-128.1,251.3 M-129.1,251.4
			v-0.1C-129.2,251.4-129.2,251.4-129.1,251.4 M-128.2,251.4l0.1-0.1L-128.2,251.4 M-128.6,251.2L-128.6,251.2
			c-0.1,0.2-0.2,0.2-0.2,0.3c0,0,0.2,0,0,0.1l0.2-0.1V251.2 M-131.6,251.2c0-0.1-0.1,0-0.1,0.1L-131.6,251.2c0.1,0.1,0.1,0.2,0.1,0
			H-131.6 M-128.5,251.1C-128.5,251.1-128.6,251.3-128.5,251.1 M-128.9,251.1l0.1,0.1L-128.9,251.1L-128.9,251.1 M-127.6,251.1
			c0.1,0.1,0.1,0,0.1,0.1v-0.1H-127.6 M-127.7,250.8L-127.7,250.8L-127.7,250.8L-127.7,250.8 M-129.1,250.7
			C-129.2,250.7-129.2,250.7-129.1,250.7C-129.3,250.9-129.1,250.7-129.1,250.7 M-129,250.8C-129,250.8-129.1,250.8-129,250.8
			 M-126.2,250.7v0.2V250.7 M-133.1,250.6C-133.1,250.5-133,250.5-133.1,250.6L-133.1,250.6 M-128.5,250.5l0.2,0.1v-0.1H-128.5v-0.1
			V250.5 M-132.7,250.5C-132.7,250.6-132.7,250.6-132.7,250.5l0.1-0.2L-132.7,250.5 M-126,250.4v0.2h-0.1v-0.1c0,0,0.2,0.1,0.2,0
			v-0.1c0.1-0.1,0-0.2-0.1-0.2V250.4 M-127,251.6C-127,251.7-127,251.6-127,251.6 M-126.9,251.2l0.1,0.1
			C-126.9,251.4-126.9,251.3-126.9,251.2v0.1V251.2C-126.8,251.2-126.8,251.2-126.9,251.2 M-127.9,250.4l-0.1-0.1l0.3,0.3
			c0-0.2,0.3,0.2,0.3,0.2l0.1-0.2h0.1v0.1l-0.1,0.1v0.1v-0.1v0.1c0-0.1,0.1,0.1,0.1,0.1h-0.1c0,0.1,0.2,0.2,0.1,0.3h-0.1l-0.1,0.1
			c-0.1,0.3-0.1,0.1-0.2,0.1v-0.1h-0.1v0.4c0,0,0.2,0,0.1-0.1l0.1-0.1c0,0.1,0.1,0.1,0.1,0l0.1,0.2v0.1l0.3,0.1c0,0,0.4-0.4,0.2-0.5
			v-0.1h-0.1c0,0-0.1,0.1-0.1,0c0.1,0,0.1-0.2,0.1-0.2v-0.1h-0.1c0.2,0-0.1-0.3-0.2-0.2c0,0,0-0.4-0.2-0.3l-0.2-0.1l-0.1-0.2
			c-0.1,0,0.1,0.2,0,0.2C-127.7,250.4-127.8,250.4-127.9,250.4l0,0.1h0.1h-0.1v0.1l-0.1-0.2C-128,250.5-128,250.4-127.9,250.4h-0.2
			C-127.8,250.2-127.9,250.3-127.9,250.4 M-128.8,250.3h0.1H-128.8 M-126.3,250.3L-126.3,250.3L-126.3,250.3 M-128.7,250.2v0.1
			C-128.6,250.2-128.7,250.2-128.7,250.2 M-126.6,250.2v0.2h0.1c0,0.1,0,0.2,0.1,0c0,0.1,0,0.1,0.1,0.1h-0.1c0.1,0,0.3-0.1,0.3-0.2
			c0-0.1-0.2,0-0.3,0v-0.1h-0.1c0-0.2-0.1-0.1-0.1-0.1V250.2l0.1-0.1L-126.6,250.2 M-133.5,250.2v-0.1V250.2 M-126.3,250L-126.3,250
			C-126.3,250.1-126.2,250-126.3,250 M-132.7,250L-132.7,250L-132.7,250 M-126.5,250C-126.5,250-126.4,250.1-126.5,250 M-131.6,250
			l0.1-0.1L-131.6,250 M-131.7,250.6C-131.6,250.7-131.7,250.6-131.7,250.6 M-131.5,250.2h-0.2c-0.1-0.2-0.1,0.2-0.1,0.2l-0.1,0.1
			h-0.1l0.1,0.1h-0.2v0.1h-0.1c0,0,0,0.3,0.1,0.1v0.1c-0.1-0.1-0.2,0.1-0.2,0.2v0.1l-0.2-0.1v0.1h-0.1v-0.1c-0.1,0-0.1,0.2-0.2,0.1
			v0.2h0.1v0.1h0.1v0.2l0.2,0.1h-0.1l0.2-0.3v-0.1c0,0.1,0.1,0,0.1-0.1l0.3-0.1c-0.1-0.1,0-0.1,0-0.3c0.2,0,0.1,0.1,0.1,0.1
			c0.1,0,0,0,0.1-0.1h0.1v-0.1h0.2c0.1-0.3-0.1-0.4,0.1-0.4c0-0.1,0-0.2,0.1-0.1v0.1c0.2,0,0-0.2,0-0.2h0.2l0.1-0.1
			c-0.1,0-0.1-0.1-0.1-0.2C-131.3,249.9-131.5,250.2-131.5,250.2 M-133,249.9c0,0,0.1,0.1,0,0.2V250v0.2c0.1,0.2,0.2,0,0.1-0.2
			C-132.9,250-132.9,249.8-133,249.9 M-131.4,249.8C-131.4,249.9-131.4,249.9-131.4,249.8L-131.4,249.8L-131.4,249.8 M-125.9,249.7
			l0.1,0.2v-0.1h0.1v-0.1H-125.9 M-133.2,249.6c-0.2,0.1,0.1,0.4,0.1,0.3l-0.1-0.1h0.1L-133.2,249.6 M-133.2,249.5
			C-133.2,249.6-133.1,249.5-133.2,249.5 M-131.5,249.3l-0.1,0.1L-131.5,249.3C-131.6,249.3-131.6,249.4-131.5,249.3l-0.1,0.2v0.1
			h-0.1c0,0.1-0.1,0.2-0.1,0.1c-0.1,0-0.3,0.2-0.2,0.3c0.2,0,0.2-0.1,0.3-0.3l-0.1,0.1l0.1-0.1l0.2-0.1l-0.1-0.1v-0.1l0.2-0.2
			C-131.4,249.3-131.5,249.3-131.5,249.3 M-131.9,249.3c0.1,0.1,0,0.1,0,0.2h0.2c0.2-0.1,0-0.2,0.1-0.3L-131.9,249.3 M-132.5,249.1
			l-0.1,0.1L-132.5,249.1L-132.5,249.1C-132.3,249.2-132.6,249.2-132.5,249.1h0.1H-132.5 M-129.8,249.1l-0.2,0.2h0.1
			C-129.8,249.3-129.8,249.2-129.8,249.1 M-131.3,249c0,0.1,0.1,0.1,0.1-0.1L-131.3,249 M-127.6,248.9L-127.6,248.9L-127.6,248.9
			 M-126.3,248.8l0.1-0.1l-0.1-0.1V248.8 M-126.7,248.7l0.1,0.1L-126.7,248.7 M-129.9,248.7l0.1,0.1L-129.9,248.7 M-129.1,248.7v0.1
			l-0.1,0.1v0.1h0.1v-0.1C-128.9,248.8-129,248.7-129.1,248.7 M-126.9,248.8v-0.2V248.8 M-129.9,248.7
			C-130,248.6-130,248.7-129.9,248.7 M-125.1,248.7C-125.1,248.7-125,248.7-125.1,248.7h0.2l-0.1,0.2l0.1,0.1
			c-0.1,0-0.1-0.1-0.2-0.1v0.1c0.1,0,0.1,0.1,0.2,0.1l0.3-0.1c0-0.1,0-0.1-0.1,0v-0.2l-0.1-0.1l-0.2-0.1L-125.1,248.7 M-125.4,248.6
			c0.1,0.1,0,0.2,0.1,0.2L-125.4,248.6 M-126.5,248.6c0,0,0,0.1,0.1,0.1L-126.5,248.6 M-125.1,248.5
			C-125.2,248.6-125.1,248.7-125.1,248.5 M-125.9,248.7C-125.9,248.8-126,248.7-125.9,248.7l-0.1,0.2v0.1h0.2L-125.9,248.7
			c0.1,0.2,0.2,0.2,0.2,0.3l0.1-0.1c-0.1,0,0.1,0.1,0.2,0.1h0.2v0.1c0-0.2-0.1-0.1-0.1-0.1v-0.1l-0.1,0.1l-0.1-0.2h-0.1
			c0-0.1,0-0.1,0.1-0.1h-0.1c-0.1,0-0.2,0-0.2-0.1L-125.9,248.7 M-129.7,248.6L-129.7,248.6L-129.7,248.6 M-127.9,248.5
			L-127.9,248.5L-127.9,248.5 M-128.1,248.5L-128.1,248.5L-128.1,248.5 M-126.1,248.5v0.3l0.1-0.1c0,0.1,0.1-0.1,0.1-0.1
			L-126.1,248.5 M-130.5,248.3v0.2h-0.2v-0.1l-0.1,0.2h-0.1c0,0.1,0.2,0.3,0.3,0.2c0.1,0.2,0.5-0.1,0.3-0.1v-0.1h-0.1
			c0.1,0,0-0.1,0-0.1L-130.5,248.3 M-126.9,248.3v0.1l0.1,0.1c0,0,0.2,0,0-0.1L-126.9,248.3 M-128.4,248.5L-128.4,248.5
			L-128.4,248.5h-0.2v0.1h-0.1v0.1h0.2l0.1-0.3C-128.4,248.4-128.5,248.3-128.4,248.5 M-127,248.4C-126.8,248.4-127,248.4-127,248.4
			 M-129.7,248.3v0.1V248.3 M-131.9,248.4c0.1,0.1,0.1,0,0.1-0.1L-131.9,248.4 M-126.9,248.3C-127,248.3-126.9,248.3-126.9,248.3
			 M-124.2,248.2L-124.2,248.2L-124.2,248.2C-124.2,248.3-124.1,248.1-124.2,248.2 M-127,248c0.1,0.1,0.2,0.3,0.3,0.1h-0.1L-127,248
			 M-128.6,248l0.1,0.1v-0.2L-128.6,248 M-128.8,248l0.1-0.1L-128.8,248 M-127.5,248l0.2,0.1v0.1h-0.1c-0.3-0.6,0,0,0,0.1h-0.1
			l0.1,0.1v-0.1l0.1-0.1v0.2l0.1-0.1l0.2,0.1h-0.1c0.1-0.2-0.2-0.2-0.2-0.2c0-0.2,0.1-0.4-0.1-0.4v-0.1l-0.2-0.1
			C-127.5,247.8-127.5,247.9-127.5,248 M-127.7,247.7l0.1-0.1L-127.7,247.7 M-127.6,247.6C-127.6,247.7-127.5,247.7-127.6,247.6
			 M-127.7,247.6v0.1V247.6 M-130,247.5L-130,247.5L-130,247.5 M-127.7,247.5C-127.6,247.4-127.6,247.4-127.7,247.5v-0.1
			C-127.7,247.4-127.8,247.5-127.7,247.5 M-128.9,247.5v0.3l0.1-0.1v0.1l0.2-0.1l0.2-0.1c0-0.2-0.1-0.2-0.1-0.2h-0.1
			c-0.1,0,0,0,0-0.1C-128.8,247.2-128.9,247.4-128.9,247.5 M-124.6,247.2L-124.6,247.2L-124.6,247.2L-124.6,247.2 M-131.4,247.1
			C-131.5,247.2-131.4,247.3-131.4,247.1 M-131.4,247v0.2C-131.3,247.2-131.2,247-131.4,247 M-129.8,247.1V247V247.1 M-128.4,247.1
			v0.1V247.1v0.2c0,0.1,0.1,0.1,0.2,0.1h0.1v-0.3l-0.1-0.1C-128.3,247-128.4,247.1-128.4,247.1 M-128.5,246.9
			C-128.5,246.9-128.5,247.1-128.5,246.9 M-131.7,247.1v0.1c0.1-0.1,0.1,0,0.1,0.1L-131.7,247.1c-0.1-0.1,0-0.1,0-0.2h-0.1
			C-131.7,246.9-131.7,247-131.7,247.1 M-128.3,246.9v-0.1V246.9 M-131.2,246.8l0.1,0.1h0.1C-131.1,246.7-131.1,246.8-131.2,246.8
			 M-133.9,246.8C-133.9,246.8-133.9,247-133.9,246.8l0.1-0.1L-133.9,246.8 M-133.8,246.9l0.1-0.2L-133.8,246.9 M-129.3,246.7
			L-129.3,246.7L-129.3,246.7l0.1,0.2l0.1-0.1c0,0,0.1,0.3,0.2,0.1c-0.1-0.1-0.1-0.2-0.2-0.1v-0.1H-129.3 M-131.5,246.5v0.3
			c0.1,0.1,0,0.2,0.1,0v0.1c0.2,0-0.1-0.3,0-0.3v0.1l0.1-0.1l-0.1,0.1c0-0.1,0.1-0.1,0.1-0.1C-131.5,246.5-131.5,246.7-131.5,246.5
			 M-126.9,246.5L-126.9,246.5v-0.2V246.5 M-125.7,246.4v0.1V246.4 M-124.7,246.4v-0.2V246.4 M-131.4,246.3c0.1,0-0.1,0.2,0,0.2
			l0.1-0.1v0.1C-131.3,246.3-131.4,246.3-131.4,246.3 M-134.1,246l0.1-0.1C-134.1,245.9-134.1,245.9-134.1,246 M-125.8,246
			L-125.8,246L-125.8,246L-125.8,246L-125.8,246L-125.8,246l0.1,0.2h-0.2c0.1,0.1,0.2,0.2,0.3,0.2l0.1,0.1h0.2l0.1-0.1v-0.2h-0.5
			L-125.8,246c-0.1,0.1,0.1,0,0.1-0.1C-125.6,245.8-125.8,245.9-125.8,246 M-130.5,246l0.1,0.1L-130.5,246 M-130.7,245.8l-0.1,0.1
			h-0.2l0.1-0.1l-0.1,0.2h-0.1c0.1,0,0-0.1,0.1-0.1c0-0.1-0.1-0.1-0.1-0.1v0.3l-0.2,0.1v0.1h-0.1c0,0.2,0.1,0.2,0.2,0.2h0.1v-0.1
			h0.2v0.2c0.1,0.2,0,0.2-0.1,0.2v0.1l0.1,0.1l-0.2,0.2h0.2c0.1,0.1,0.1,0.1,0.3,0c0.1,0,0.4-0.3,0.4-0.1l0.1-0.1l0.2,0.1v-0.3
			c0.2,0.3,0.2-0.4,0.2-0.4c0-0.1-0.2-0.1-0.2-0.1h-0.2c0.1-0.1,0-0.1,0-0.2c0,0-0.3,0.1-0.2,0h0.1l-0.1-0.1
			c-0.1-0.1-0.1-0.1-0.2-0.3h0.1v-0.1L-130.7,245.8 M-130,245.6v0.2h0.1L-130,245.6 M-126.1,246.3
			C-126.4,246.2-126.1,246.2-126.1,246.3L-126.1,246.3 M-126.2,245.7h-0.3v0.2h-0.1v-0.1l-0.1-0.2h-0.1c0.1,0.1,0,0.2,0,0.3h0.1
			c0,0.1,0.1,0,0.2,0h-0.1c0,0.1,0.1,0,0.1,0.1h-0.1l0.1,0.1h-0.1l-0.1-0.1v-0.1l-0.1,0.1l0.2,0.2v-0.1v0.1h0.2c0,0.2,0.1,0,0.2,0
			c0,0.1,0.1,0.2,0,0.3h0.3c0.1,0.2,0.3,0,0.3,0v0.1v-0.1c-0.1,0.1-0.2-0.1-0.3-0.2l-0.1-0.1V246l-0.1,0.1V246l0.1,0.1v-0.2v0.1
			h-0.1v-0.2L-126.2,245.7l0.1,0.1c0-0.1,0.1-0.2,0-0.3L-126.2,245.7 M-131,245.7v-0.1V245.7 M-131,245.6l0.1,0.2L-131,245.6h0.2
			v0.1l0.1-0.1H-131 M-127,245.5c-0.1-0.1-0.1,0-0.1-0.1h-0.1l-0.2,0.2v0.1l0.1,0.1v-0.1v0.1l0.1-0.1l-0.1,0.1
			c0.1,0,0.1-0.1,0.1-0.2v-0.1C-126.9,245.7-126.9,245.6-127,245.5v-0.2C-127,245.4-126.9,245.5-127,245.5 M-130.5,245.4l0.1,0.1
			h0.1v-0.1l0.1,0.1v0.1h-0.1v0.1c0.1-0.2,0.3-0.1,0.3,0.1v-0.2c0,0.1,0,0,0,0v-0.1h-0.2v-0.1c0,0.1,0.1,0,0.1,0H-130.5
			 M-131.1,245.4l0.1-0.1L-131.1,245.4 M-124.4,245.4c-0.2,0.1,0.2,0.2,0.3,0.2L-124.4,245.4h0.2H-124.4c0.1,0.1-0.1-0.2,0-0.2h-0.2
			C-124.6,245.4-124.5,245.4-124.4,245.4 M-131.7,245.2C-131.7,245.4-131.6,245.2-131.7,245.2 M-131.5,245.3h-0.1v0.1
			c-0.1-0.1-0.2,0-0.2-0.1h-0.1v0.2l-0.1,0.1c-0.1,0.3,0.2,0.1,0.4,0.2v-0.1l0.1-0.2l0.1-0.1L-131.5,245.3l0.1,0.1L-131.5,245.3
			c0.1,0,0.2,0.1,0.2-0.1h-0.1c0,0-0.1,0-0.1-0.1V245.3 M-127.2,245.2h-0.1H-127.2 M-126.7,245.1c0,0.3,0.3,0.1,0.3,0.1h-0.1
			L-126.7,245.1 M-125.9,245.1l-0.2,0.2v0.2h-0.1c0.1,0,0,0,0,0l0.2,0.4c0-0.1,0-0.3,0.1-0.2v0.1c0.1,0,0.2-0.1,0.2-0.2v0.1l0.1-0.1
			v-0.5h-0.1c0,0.1,0.1,0.2,0.1,0.3c0,0-0.1-0.3-0.2-0.2L-125.9,245.1v0.1V245.1v0.1C-125.9,245.1-125.8,245.1-125.9,245.1
			C-125.8,245-125.9,245.1-125.9,245.1 M-126.1,245c0,0,0.1,0.1,0.1-0.1L-126.1,245 M-129.3,244.8c-0.1,0.2-0.1,0.2,0,0.2
			c0,0-0.1,0.1,0,0.2C-129.3,245-129.2,244.9-129.3,244.8 M-130.1,244.8l-0.1,0.1L-130.1,244.8c-0.2,0-0.1,0.2-0.1,0.1l-0.1,0.1h0.4
			v0.1v-0.2C-129.8,244.9-130,244.9-130.1,244.8C-129.9,244.8-130.1,244.8-130.1,244.8 M-123.8,244.8
			C-123.8,245-123.7,244.8-123.8,244.8L-123.8,244.8L-123.8,244.8 M-130.2,244.5L-130.2,244.5L-130.2,244.5 M-129.8,244.4l0.1,0.1
			h-0.1c-0.1,0.1,0.1,0.1,0.1,0v0.1c0.1,0,0.1,0,0.1-0.1h-0.1L-129.8,244.4h0.1H-129.8h0.1H-129.8l0.1-0.1h-0.1V244.4 M-128.2,244.4
			c0.1-0.1-0.2-0.1-0.2,0l-0.1-0.1v0.1l-0.1-0.1v0.1c0,0,0.2,0.3,0.3,0.2c0-0.2,0.3-0.1,0.3-0.1l0.1,0.1l0.1,0.1v0.1l-0.2-0.1
			l-0.1,0.1l0.2,0.2c0,0.1,0.1,0.1,0,0.1v0.1h-0.1c0,0.1,0.1,0.1,0.1-0.1c0.1,0,0.1-0.3,0.2-0.4v0.1c0,0.1,0,0.1-0.1,0.2l0.1-0.1
			h0.1v-0.1h-0.1c0.1,0-0.3-0.4-0.2-0.5l-0.1,0.1v-0.2L-128.2,244.4 M-130,244.3L-130,244.3l0.1,0.2h0.1h-0.1
			C-129.8,244.4-130,244.2-130,244.3 M-128.8,244.5h-0.2v-0.2c0,0,0-0.1-0.1,0l-0.2,0.2v0.1v-0.1c0,0.1,0.1,0.2,0.2,0
			c0,0.1,0,0.2,0.1,0.1c-0.1,0.1,0.1,0.2,0.1,0.2v0.1v-0.1l0.2,0.1C-128.7,244.8-128.8,244.5-128.8,244.5h0.1H-128.8
			c0.1,0,0-0.1,0.1-0.2l-0.1-0.1V244.5 M-130.6,244.1L-130.6,244.1c-0.1,0.1,0,0.1,0.1,0.2v0.1c0.1-0.1,0.1-0.1,0.1-0.2
			c0-0.1-0.1-0.1-0.1-0.1H-130.6 M-129.9,243.9v0.1V243.9 M-130.7,243.7h0.1H-130.7 M-128.6,243.7l-0.1,0.1h0.1
			C-128.7,243.7-128.5,243.7-128.6,243.7L-128.6,243.7 M-128.8,243.6L-128.8,243.6l-0.2,0.1v0.2c0.1,0,0.2,0.2,0.2,0V243.6l0.1,0.2
			v-0.1L-128.8,243.6 M-127.5,242.9h0.2C-127.3,242.8-127.4,242.9-127.5,242.9L-127.5,242.9L-127.5,242.9L-127.5,242.9
			 M-129.8,242.9h0.1c0.1,0,0.1-0.2,0.1-0.2h-0.1C-129.8,242.7-129.8,242.8-129.8,242.9 M-127.7,242.8v0.2V242.8L-127.7,242.8
			L-127.7,242.8c0,0,0.1-0.1,0-0.1V242.8 M-129.9,242.6C-129.8,242.6-129.8,242.7-129.9,242.6 M-128.6,242.5
			C-128.7,242.6-128.6,242.5-128.6,242.5 M-129.8,242.6L-129.8,242.6v-0.1C-129.8,242.4-129.9,242.6-129.8,242.6 M-129,242.4v0.1
			V242.4v0.1c0-0.1-0.1,0.1-0.2,0.2h0.1h-0.1h0.1v-0.1v0.1h0.1h-0.1h0.1v-0.1l0.2-0.1v-0.1H-129 M-128.5,242.3c0-0.1-0.1,0-0.1,0.1
			L-128.5,242.3c0.1,0.1,0,0.3,0.1,0.2c0,0.1,0.1,0.2,0.1,0.1c0.1,0,0.1,0,0.2-0.1v0.1h0.1l0.1-0.1h-0.2c0,0,0-0.1-0.1-0.2l0.1,0.1
			h-0.2v-0.1v0.1L-128.5,242.3C-128.5,242.4-128.5,242.4-128.5,242.3 M-126.9,242.2C-126.9,242.3-126.9,242.2-126.9,242.2
			 M-128.6,242.2v-0.1V242.2 M-130.7,242l-0.1,0.2L-130.7,242v0.2V242 M-126.8,242C-126.5,242.1-126.7,242-126.8,242v-0.1V242
			 M-129.4,241.9l-0.1,0.1L-129.4,241.9L-129.4,241.9l-0.2,0.2l0.1-0.1L-129.4,241.9v0.1l0.2-0.1
			C-129.2,241.9-129.4,242-129.4,241.9 M-129.3,241.8l0.1,0.1v0.1l0.1-0.1c-0.1,0,0,0-0.1,0.1C-129.2,241.8-129.1,241.8-129.3,241.8
			 M-127.2,241.8L-127.2,241.8L-127.2,241.8 M-129.1,241.7v0.1V241.7 M-128.8,241.7c0,0.1,0.1,0,0.1,0H-128.8 M-129.7,240.2
			c-0.3,0.2-0.1,0.3-0.1,0.2v-0.1L-129.7,240.2v0.1V240.2 M-127,240.2v0.2c0.1-0.1,0.1-0.2,0.1-0.3L-127,240.2 M-130.4,240l-0.1,0.1
			c0,0.1,0.1,0.1,0.1,0.1V240 M-130,240v-0.1V240 M-130.7,239.9L-130.7,239.9L-130.7,239.9 M-129.8,239.7v0.2c0,0.1,0.1,0,0.1,0
			L-129.8,239.7h0.1c-0.1,0.1,0.1,0,0.1,0C-129.7,239.7-129.7,239.6-129.8,239.7 M-131.2,239.9L-131.2,239.9L-131.2,239.9
			 M-130.5,239.7c0.1,0.1,0,0.1,0,0.1v0.1h0.1l-0.1,0.1c0.3-0.1,0-0.1,0.1-0.2l-0.1,0.1V239.7 M-131.8,239.6
			C-131.7,239.6-131.8,239.6-131.8,239.6 M-128.6,239.5c-0.1,0.1,0,0.1-0.1,0.1c0,0,0.1,0.2,0.1,0.1l-0.1-0.1L-128.6,239.5
			 M-129.8,239.4v0.1V239.4v0.2C-129.9,239.5-129.8,239.4-129.8,239.4l-0.1,0.2l0.1-0.1V239.4 M-131.6,239.4L-131.6,239.4l-0.1,0.2
			c0,0-0.1,0.1,0,0.1v0.1v-0.1l0.1,0.2c0.1-0.2,0,0.2,0.1,0.2l0.1-0.1v0.1V240h-0.1l0.1-0.1v-0.1v0.1l-0.1-0.1
			c-0.1-0.1,0.1-0.1,0.1-0.2L-131.6,239.4 M-130.7,239.3C-130.6,239.3-130.7,239.4-130.7,239.3 M-131.8,239
			C-132,239-131.7,239.1-131.8,239 M-128.8,239C-128.8,239.1-128.7,239.2-128.8,239C-128.8,239-128.8,239.1-128.8,239 M-130.7,238.7
			l0.1,0.2l0.1-0.1c0.1,0.1,0.2,0,0.2,0.2h-0.1v0.1h-0.1c0.1,0.1,0.1,0.2,0,0.2v0.1l0.3-0.1l-0.2-0.1c0.1,0,0.1-0.2,0-0.3l-0.1-0.1
			v-0.1v0.1v-0.1H-130.7 M-130.5,238.6C-130.5,238.5-130.7,238.6-130.5,238.6 M-130.7,238.4v0.1V238.4 M-130.3,238.2
			C-130.3,238.4-130.2,238.2-130.3,238.2 M-125.3,256.6L-125.3,256.6L-125.3,256.6 M-123.2,253.6
			C-123.2,253.5-123.2,253.5-123.2,253.6 M-129.8,236.3v-3.5c0-0.4-0.3-0.7-0.7-0.7h-8.2c-0.4,0-0.7,0.3-0.7,0.7v18.4
			c0,0.5-0.4,0.6-0.6,0.2l-7.2-17.4l-0.3-0.7c-0.5-1.1-0.5-1.2-1.9-1.2h-8.9c-0.4,0-0.7,0.3-0.7,0.7v36.4c0,0.4,0.3,0.7,0.7,0.7h7.8
			c0.4,0,0.7-0.3,0.7-0.7v-18.4c0-0.5,0.4-0.6,0.6-0.2l7.2,17.4l0.3,0.7c0.2,0.7,0.9,1.2,1.6,1.2h5.5c2.3,0,4.2-1.9,4.2-4.2v-9.5
			c-0.1,0-0.2-0.1-0.3-0.1l-0.1-0.1l0.1,0.2h-0.2v-0.1v0.1l0.1-0.1h-0.2c0,0.2,0,0.3,0.1,0.2h0.1l0.1,0.1h-0.1l0.1,0.1
			c0,0-0.2,0-0.2-0.1v0.2v-0.1l-0.1,0.1l-0.1,0.1c-0.1,0.2,0,0.2,0,0.2h-0.3c-0.2,0-0.3,0.1-0.5,0.1l0.1-0.1l-0.1,0.1l-0.2-0.1h0.1
			c-0.1-0.1,0-0.3-0.2-0.3v0.2l-0.1-0.2l-0.1,0.1l-0.2,0.5v-0.1l0.1,0.1h-0.1l0.1,0.1l-0.1,0.4v-0.1c-0.2,0-0.2,0-0.2,0.2h-0.1v-0.1
			l-0.1,0.2h-0.1c0-0.1,0.1-0.3,0.1-0.4h-0.1l-0.2,0.2v-0.1l-0.1,0.3l-0.2,0.1v-0.1h-0.1c0,0.3,0.2,0.2,0,0.2v0.1
			c-0.1,0.1-0.1,0.3-0.2,0.1c-0.1-0.2,0-0.3,0-0.3c0.1,0,0.1-0.3,0.2-0.4l-0.1,0.1v0.1v-0.1h-0.2c0,0-0.1-0.2-0.2-0.2
			c0-0.2-0.1-0.2-0.2-0.3l0.1-0.1l-0.1-0.2c0,0,0.1-0.1,0.2,0.1v-0.1c0.1-0.1,0.1-0.5,0.3-0.4c-0.2-0.2,0-0.4,0.1-0.5
			c0-0.1,0-0.5,0.2-0.3v-0.1h0.1v-0.1h0.1l-0.1-0.1l0.1-0.1h0.1h-0.3v-0.1v0.1v-0.2l0.3,0.1c0.1-0.1,0-0.2,0-0.2
			c0-0.1,0-0.2,0.1-0.3v0.1v-0.2v0.1l-0.1,0.1l-0.2,0.2v-0.1l-0.1,0.2h-0.1l-0.3,0.3v-0.1c-0.1,0.1-0.2,0.5-0.2,0.3l0.1,0.1
			c-0.1,0-0.2,0.1-0.1,0.2c-0.1-0.1,0,0.3-0.2,0.3c-0.1,0-0.1,0.2-0.2,0.3l-0.1-0.3h-0.1v0.1h-0.1c0,0.2-0.1,0.1-0.1,0.1h0.2v0.1
			l0.1-0.1v0.1h-0.1v0.1v-0.1v0.1h-0.2v-0.2h-0.1c0.1,0.1-0.1,0-0.1-0.1l-0.1-0.1l0.1-0.1h0.1v-0.2l0.1-0.2h0.1l0.1-0.1l-0.2,0.5
			l0.1-0.1l-0.1-0.3l-0.2,0.2c-0.2,0.2-0.4,0.3-0.3,0h0.1c0-0.1-0.2-0.4-0.1-0.4c-0.4-0.3,0-0.3,0.1-0.3c0,0,0.1-0.3,0.2-0.1
			c0.1-0.2,0.3-0.1,0.4,0h-0.1l0.1,0.2v-0.1l0.2-0.1h-0.1c0-0.1,0.1-0.1,0.1,0h0.1h-0.1c0,0,0.4-0.2,0.4-0.3l-0.1,0.1
			c0-0.1,0.1-0.1,0.1-0.1v-0.1h0.1v0.1c0.2-0.2,0.4,0,0.4-0.3h0.1v0.2l0.1-0.2c0.1,0.1,0.2-0.1,0.2-0.2c-0.2,0.1-0.5-0.1-0.6-0.1
			v-0.1h-0.2c0.1,0.1,0,0.1,0,0.2l0.1,0.1h-0.1l-0.2,0.1v-0.1h-0.1c0-0.1,0,0,0,0v-0.1c0,0-0.1,0,0,0.1h-0.1l0.2,0.1
			c0.1,0.1,0,0.3-0.1,0.1v-0.1l-0.1,0.1l0.1,0.2h-0.1l0.1-0.1l-0.1,0.1v0.2h-0.2c-0.1,0,0-0.3,0.1-0.3c0,0-0.1-0.3-0.1-0.1h0.1h-0.1
			v0.2v-0.1c0,0-0.2,0.1-0.1,0.1h-0.1v-0.2v0.1h-0.2c0,0.1-0.1,0-0.1,0.1v0.1l0.1,0.1c-0.1,0.1-0.1,0.2-0.2,0.3h-0.2l0.1-0.1h-0.4
			v-0.1v0.2v-0.1h0.1c0,0.1-0.2,0.2-0.2,0.2c0.1,0,0.1,0.1,0,0.2h-0.2v-0.3l0.1,0.1l-0.1-0.2h-0.1c0,0,0-0.2-0.1-0.1
			c0-0.1,0.1-0.1,0.1-0.1h0.1l-0.1-0.1h0.1c-0.1,0.1,0.1,0,0.1,0h-0.1c0.1-0.1,0-0.1,0-0.2c0,0.1,0.1,0.1,0.2,0.1v0.1v-0.1
			c0.1,0,0.2,0,0.2-0.1h0.1l-0.1-0.1l0.1-0.1h0.1h-0.1v-0.2v0.1c0,0.1-0.1,0.1-0.1,0.1h-0.1l0.1-0.1l-0.1,0.1h0.1v0.1
			c-0.1-0.1-0.2,0-0.2,0.1h-0.1c0-0.1-0.2-0.2,0-0.2c0-0.1-0.3-0.3-0.2-0.4c0-0.1-0.1-0.4-0.2-0.6h0.1c0-0.1,0.4-0.6,0.4-0.8h0.1
			c0,0,0-0.4,0.2-0.2h-0.1h0.1v-0.3l-0.1,0.1c0-0.1-0.2-0.2-0.2-0.4c0.2,0,0.3,0,0.4-0.1c0-0.2-0.1-0.1-0.1-0.2h0.1v-0.1
			c0.2,0.1,0.1,0,0.3,0.2c0.1,0.1,0.1,0,0.1-0.1h0.1v-0.4c0.2-0.1,0.2-0.3,0.2-0.5c-0.1-0.2,0.1-0.2,0.1-0.3c0,0,0.2,0.1,0.1-0.1
			v-0.1c-0.2,0.2,0.1-0.1,0-0.2h0.1c0,0,0.1,0.2,0.2,0.1c-0.1-0.1,0-0.1,0-0.2h0.1c-0.1,0.1,0.3,0.3,0.4,0.3v0.1h-0.2l0.1,0.1
			c0-0.1,0-0.1,0.1-0.1v-0.1h-0.1V250l0.1,0.1h0.1V250h0.1v0.1c0,0,0.1,0,0.1-0.1h-0.1c0.1,0,0.2,0.1,0.1-0.1h0.1
			c-0.1-0.1,0.1-0.1,0.2-0.1c0-0.1-0.2-0.2-0.2-0.1l0.1-0.1c0-0.1-0.1,0.1-0.1,0.1v-0.1h-0.1v0.2v-0.1v0.1h-0.2l-0.1,0.2
			c0,0.1-0.1-0.2-0.1-0.4c-0.1-0.2-0.1-0.5,0-0.3c0-0.1,0-0.2-0.1-0.2s-0.1,0-0.1-0.2h0.3h-0.1l0.3-0.3h0.1c0-0.2,0.3-0.1,0.3,0
			c0.1-0.1,0.5-0.1,0.6-0.1c0-0.1,0.1-0.3,0.1-0.2h0.1V248l0.3-0.2h-0.1h0.3l0.1-0.1h0.1v-0.1c0-0.1-0.2-0.1-0.3-0.1h0.1
			c0-0.2-0.3-0.3-0.2-0.2v-0.1v0.2c-0.1-0.1,0,0-0.1,0.1c-0.1,0-0.2-0.3-0.2-0.4c0.1,0,0.2-0.2,0.1-0.2v-0.1c0,0,0.3-0.4,0.4-0.6
			l0.1-0.1l0.1-0.1c-0.1-0.1,0,0-0.1-0.2h-0.1l0.1-0.1h-0.1c-0.1,0-0.2-0.1-0.3,0.1l0.1,0.1h-0.2v-0.1l-0.1,0.1v0.2
			c0-0.1-0.2,0-0.2,0.1s-0.3,0.1-0.3,0h0.2c-0.1,0,0.1-0.3,0-0.3v-0.1l-0.2,0.1c0.2,0,0,0.2-0.1,0.3h-0.2v0.2h-0.2
			c0,0,0-0.2-0.1-0.1v0.1c0-0.2-0.4,0.2-0.2,0.2c0.1,0.1-0.2,0.1-0.2,0.1v0.1l0.1-0.1v0.1v-0.1v0.1h-0.1l-0.1,0.1v0.2h-0.2
			c0.1,0,0.1-0.2,0.1-0.2h-0.1c0,0.3-0.2,0.2-0.2,0.1l-0.1,0.1h0.1l-0.1-0.1v0.2c0-0.1,0-0.2,0.1-0.2l-0.3,0.1l0.1,0.1h-0.2
			l-0.2-0.2l-0.1,0.1c-0.1-0.1,0.1-0.5,0.1-0.7v0.1c0-0.2,0-0.4,0.1-0.4l0.1-0.2c0.2,0,0.2,0.1,0.3,0.2c-0.1-0.1,0,0,0,0h0.2
			c0,0,0-0.1-0.1-0.1h-0.2l-0.1-0.1l0.1-0.1v-0.5c-0.1,0,0,0.1,0,0.1c-0.2-0.3-0.1-0.3,0-0.5h0.3v-0.4l0.1-0.1
			c0.1,0,0.1,0.1,0.1,0.2l0.2-0.1c0.1-0.1,0.2-0.1,0.2,0.1l0.1-0.2v0.1c0,0,0.1-0.2,0-0.2v0.1c0-0.2-0.2-0.3-0.1-0.5l0.2-0.3
			c0.1-0.1,0.2-0.1,0.4-0.3h-0.1h0.3l0.1-0.1c0,0.1,0.1,0.2,0.1,0.2v-0.1c0.1,0.1,0.1,0,0.1,0c0-0.1,0.4-0.2,0.4-0.2v-0.4v0.1
			l0.1-0.1l0.2-0.1c0-0.1,0.2-0.1,0.2-0.3l0.1,0.1l-0.1-0.2h0.1v0.1h0.1c0,0,0-0.1,0,0v0.1l0.1,0.1v-0.1c0-0.1-0.1-0.2,0-0.3
			c0,0-0.5,0.2-0.6,0.2l-0.1-0.1c0,0-0.5,0.3-0.6,0.1h0.1l-0.3-0.1v0.1v-0.5c0.1-0.1,0.3,0,0.3-0.2c0,0,0.3,0,0.3,0.2
			c0.3-0.5,0.3-0.4,0.3-0.6c0,0,0.2-0.1-0.1,0l-0.1,0.1V241l0.1,0.1l0.1-0.2v0.1v-0.1v0.1v-0.3l0.1,0.2l0.1-0.4h0.3l-0.1,0.1h0.2
			l-0.1-0.1l-0.1-0.1c0.1,0,0,0,0-0.1c0-0.1-0.1-0.1-0.1-0.1s-0.3-0.1-0.3-0.3c0.1,0.2,0.1-0.2,0.1-0.2c0,0.1-0.1,0.1-0.2,0h-0.1
			c0-0.1,0-0.2,0.1-0.3h-0.1c0-0.1,0-0.2-0.1-0.3c0.2,0,0-0.3-0.1-0.3c-0.1-0.3,0.2-0.2,0.3-0.4h-0.1c0-0.2,0.3-0.4,0.5-0.4l0.2,0.2
			h0.1c-0.2,0-0.2-0.4-0.1-0.5c0.2,0,0.5-0.3,0.7-0.3l0.1,0.1c0.1,0.1,0.2,0.2,0.2,0.1v0.1c0-0.1,0.4-0.1,0.3,0.2c0,0,0.1,0,0.1,0.1
			l0.1-0.1c0.1,0,0.5,0,0.5,0.1l0.1-0.2c0-0.1,0.1-0.2,0.1-0.2v0.1h0.1v-0.1v0.1h0.3c0.1,0,0.3,0,0.3-0.1c0,0.3,0.2,0.2,0.2,0.4
			v-0.1v0.1v-0.1l0.1,0.1c0,0-0.1,0.1,0,0.2c-0.1,0.1,0,0.2,0,0.3v-0.1l-0.1,0.2c-0.1-0.1-0.2,0-0.3,0c0,0.2,0.2,0.3-0.1,0.4h0.1
			h-0.1c0,0,0.6,0.5,0.2,0.5c0,0,0.3,0.2,0.3,0l0.3-0.3v0.1c0.1,0,0.1-0.3,0.1-0.3h0.1c0.1-0.1,0.2-0.1,0.2,0.1
			c0.1-0.1,0.1-0.1,0-0.2v-0.2l0.2-0.1v0.3c0,0-0.1,0.2,0,0.3c0,0,0.4-0.2,0.2-0.3h0.3c0.1,0.1,0.2,0.2,0.1,0.4c0,0-0.1,0.2-0.2,0.3
			h0.1c0,0-0.1,0,0,0.2l0.1-0.1v0.2c0,0.2,0.2,0,0.2,0.3c0-0.1,0.1,0.3,0.1,0.4l0.1-0.1c0.1,0.2,0,0.3-0.1,0.4
			c0.1,0.1,0.1,0.1,0.1,0.3v0.1l0.2,0.1c0.1,0,0,0.1,0.1,0.2c0,0.2-0.1,0.2-0.1,0.2l-0.3,0.6l-0.3-0.2v0.1h0.1v0.3
			c0,0.1,0.2,0,0.2-0.2l0.1,0.1c0-0.2,0.1-0.1,0.2-0.2c0.1,0.1,0.3,0,0.2,0c0.1-0.2,0.2-0.1,0.4-0.1v0.1l0.1-0.1h0.1
			c0,0.2,0.1,0.2,0.2,0c0.2,0,0,0.5,0.1,0.6c0,0.1,0,0,0,0v0.2h0.2l-0.1,0.2l-0.2,0.2l0.1,0.2c-0.1,0,0,0.1-0.1,0.2
			c-0.2-0.5-0.2-0.3-0.1-0.2v0.1c0-0.1,0.1-0.1-0.1-0.1l-0.1,0.1c-0.2,0,0,0.2,0,0.3c0.1-0.2,0.2-0.1,0.3-0.1h0.2c0,0.1,0.1,0,0.2,0
			h0.1v0.1c0.1-0.1,0.3,0,0.3-0.4c0.1,0,0.1,0,0.2-0.1v0.1h0.1v0.1h0.1v0.2c0,0,0,0.1-0.1,0.2c0,0.1-0.1,0.2-0.2,0.2
			c0.1,0.1,0,0,0,0.1l0.2,0.1c0.1,0.1,0.2,0.2,0.3-0.1l0.3-0.2l0.1,0.2l0.1-0.1v0.1v-0.1h0.1l-0.1,0.4l-0.1-0.1l-0.1,0.1h-0.1v0.1
			l-0.1,0.1h0.1c0,0.2,0.2,0.2,0.3,0.3c0,0.3-0.1,0.3-0.3,0.4h0.1c0-0.2-0.1,0-0.1,0c-0.1,0.1-0.2,0.3-0.4,0.3v0.2V246v0.4
			c0,0-0.1-0.2-0.1,0.1l-0.1-0.3v0.2c0-0.1-0.1-0.1-0.2-0.1c0.1,0.1,0,0.1,0.1,0.3h-0.2v-0.2v0.1v-0.2l-0.2,0.2l-0.1-0.2v0.2
			l0.1,0.1v-0.1l0.1,0.1l0.1-0.1v0.1h0.1c0,0,0.1,0.1,0,0h0.1v0.1l0.2-0.1v0.2c0.1-0.1,0.1,0,0.3,0.1l0.1-0.1c0,0.2,0,0.3-0.2,0.3
			c0.1,0.1-0.2,0.2-0.2,0.2c-0.1,0-0.1-0.1-0.1,0.1h-0.2v0.1h-0.1v0.1v-0.1c0,0,0.1,0.1,0.1,0c0.2,0.1-0.3,0.3,0.3,0.1l0.1,0.1
			l0.1,0.1l-0.1,0.4h0.1h-0.1v0.3c0.2-0.1,0.1,0.2,0,0.2v0.2c0.5,0.1-0.3,0.7-0.2,0.5v-0.3h-0.2c-0.3,0,0-0.1-0.1-0.2h-0.1v0.1h-0.1
			c0.1,0,0.1,0,0.1,0.1c-0.1,0-0.2,0-0.1,0.1h-0.1h0.1h-0.1c-0.1,0,0.1,0.2,0.2,0.1l0.1,0.2v0.1c0.1-0.2,0.1,0,0.2,0.1v-0.1
			c0,0-0.1,0.3-0.2,0.2l0.1,0.1c-0.1,0-0.2,0.1-0.1,0.1c0.1-0.1,0.1,0.1,0.1,0.2h-0.6V250h-0.1v-0.1l-0.1,0.1h0.1l-0.3,0.2v0.1h-0.1
			v0.1c0,0,0-0.2-0.1,0h-0.1v0.1h0.1v0.2h-0.1l-0.2,0.3h0.1h-0.2c0,0,0.1-0.1,0.1,0v0.1c0.1,0.1,0.1,0.2,0.2,0.1v0.1
			c0.1,0,0-0.2,0.1-0.1c0,0,0.1,0.3,0.1,0.1v0.1c0,0,0.4,0,0.3,0.2v0.1l0.1-0.1c0.1,0,0.4,0,0.5-0.1c0,0.1,0.1,0.1,0.2,0v0.2
			l0.1-0.2c0,0.2,0.1-0.1,0.2-0.1h0.1v0.4l0.1-0.1v0.2l-0.1,0.1h0.1v0.2l0.2,0.2c0.1-0.1-0.1-0.1,0.1-0.1c0,0.1,0.1,0,0.1-0.1v0.1
			h0.3c0.1,0-0.1,0.1,0,0v-0.1h0.1v0.1c0,0.1,0.2,0,0.1,0.1v-0.1l0.3,0.5v-0.1v0.2c-0.2,0.3-0.1,0.3-0.3,0.3h-0.1h0.1h-0.1
			c-0.1,0-0.1,0.1-0.3,0c-0.1,0-0.2,0.1-0.2,0.2v0.2c0,0-0.2,0.2-0.2,0.1v0.1l-0.1,0.1c0,0,0.2,0.1,0.2,0l0.1-0.1
			c0.1-0.1,0.1-0.2,0.2,0.1c0,0,0.1-0.2,0.1,0c0-0.1,0.1-0.1,0.1,0h0.1v-0.1v0.1v-0.1l0.1,0.1l0.2-0.1v0.1c0.1-0.2,0.4-0.4,0.5-0.4
			c0,0.2,0.3,0.1,0.2,0h0.2v0.5c-0.2,0-0.4,0-0.5,0.2h-0.2v0.2l-0.1,0.1v0.2h0.1v0.2l0.2,0.2v0.1v-0.1h-0.5l-0.3,0.3h-0.1l-0.1,0.1
			v-0.1h-0.2c-0.1,0.1-0.3,0.2-0.4,0.3l-0.1-0.2l-0.1-0.1l-0.1,0.1l-0.1,0.2v0.1l-0.1,0.1c0.1-0.1,0.1,0,0.1,0l-0.1,0.1v-0.1
			l-0.1-0.1v0.1l-0.1,0.1l-0.1-0.1h0.1h-0.1c0-0.1,0,0,0.1-0.1l-0.1-0.1c0,0.3-0.1,0.2,0.1,0.4h-0.2h0.1v0.1c-0.1,0,0,0.1,0,0.2
			v-0.1l-0.1,0.2c0.2,0.1,0.2,0.1,0.1,0.1l-0.2-0.1l-0.4-0.3c0.1-0.2,0-0.1,0-0.2c0-0.1-0.1-0.1,0.1-0.2v-0.1l-0.1,0.1v-0.1
			c-0.1,0-0.3-0.1-0.3-0.2h0.1v-0.1h0.1v-0.1l0.1,0.1l0.1,0.1v0.1c0.1-0.1,0-0.2,0-0.3h-0.1v-0.1v0.1l-0.1,0.1l0.1,0.1h-0.1v-0.1
			c0,0-0.1-0.1-0.1,0v-0.2l0.2-0.1h-0.1l0.1-0.1v-0.2c0.1-0.2-0.2-0.2-0.1-0.2h-0.1v-0.2c0.1,0,0.1-0.1,0-0.1v0.1
			c-0.1-0.2,0-0.1,0-0.4h-0.1l0.1,0.1c-0.1,0-0.5-0.2-0.4-0.4v0.1c0.1-0.1,0-0.1,0-0.1v-0.1l-0.2,0.2l0.1,0.3l-0.1,0.2h-0.1
			c0,0-0.5,0.3-0.4,0.1h-0.3c0-0.1-0.3-0.1-0.3,0v0.1h0.1l0.1,0.1l-0.1,0.1c0,0,0.1,0.1,0.1,0.2c0.2,0,0.3,0.1,0.6,0.2V255l0.1,0.1
			v0.1h0.3c-0.1,0.1,0.2,0.1,0.2,0.1l-0.1,0.2c0.1-0.1,0.3,0.2,0.1,0.2c0-0.1-0.1-0.2-0.2-0.2v-0.2v0.1c0-0.1,0,0-0.1,0.1v-0.1
			l-0.2-0.1h-0.2h0.1h-0.1c0-0.1-0.1-0.1-0.2-0.1v0.1c0-0.1,0-0.2-0.2-0.2h-0.1v0.1h-0.1v0.1l-0.2,0.2c-0.1-0.2-0.3-0.2-0.4-0.1
			v-0.1l-0.2-0.1h-0.1v-0.1v0.1v-0.1l-0.3-0.1h-0.2h0.1l-0.2-0.1v0.2l-0.1,0.1v-0.1h-0.2v0.1h-0.1v0.2h0.1v0.1h-0.1
			c0,0.1,0,0.1,0.1,0.1l0.1,0.1h-0.1h0.1c0.1,0.1-0.1,0.2,0.1,0.3l-0.2,0.2l-0.1-0.1h-0.1V256l-0.1,0.1l-0.1,0.1v9.8
			c0,2.3,1.9,4.2,4.2,4.2h8.5c8.8,0,11.9-4.1,13-8c0.4-1.6,0.6-3.2,0.6-4.3v0.2v-2.4c0-0.4-0.3-0.7-0.7-0.7h-7.8
			c-0.4,0-0.7,0.3-0.7,0.7v0.3c0,3.6-0.5,5.2-4.3,5.2c-4,0-4.3-2.5-4.3-6.5v-7.6c0-4,0.3-6.5,4.2-6.5h0.1c3.9,0,4.3,1.6,4.3,5.4v0.4
			c0.1,0.3,0.4,0.6,0.7,0.6h7.8c0.3,0,0.6-0.2,0.7-0.5v-2.1c0-1-0.1-3.1-0.5-4.7c-1-3.8-3.9-7.9-12.3-8.1h-2.4
			C-125,231.2-128.1,233.5-129.8,236.3"/>
	</defs>
	<clipPath id="SVGID_2_">
		<use xlink:href="#SVGID_1_"  style="overflow:visible;"/>
	</clipPath>
	<path class="st1" d="M-159,231.2h55.9V270H-159V231.2z"/>
</g>
<g>
	<path class="st0" d="M-103.1,269.6l0.3-0.3c0.3,0.2,0.5,0.3,0.8,0.3c0.3,0,0.5-0.1,0.5-0.3v0c0-0.2-0.1-0.3-0.6-0.4
		c-0.6-0.1-0.9-0.3-0.9-0.8v0c0-0.5,0.4-0.8,0.9-0.8c0.4,0,0.7,0.1,1,0.3l-0.3,0.4c-0.2-0.2-0.5-0.3-0.7-0.3c-0.3,0-0.4,0.1-0.4,0.3
		v0c0,0.2,0.1,0.3,0.6,0.4c0.6,0.1,0.9,0.3,0.9,0.8v0c0,0.5-0.4,0.8-1,0.8C-102.4,270-102.8,269.9-103.1,269.6z"/>
	<path class="st0" d="M-100.5,267.3h0.5l0.8,1.3l0.8-1.3h0.5v2.7h-0.5V268l-0.8,1.3h0l-0.8-1.2v1.9h-0.5V267.3z"/>
</g>
</svg>
