<?xml version="1.0" encoding="utf-8"?>
<!-- Generator: Adobe Illustrator 19.0.0, SVG Export Plug-In . SVG Version: 6.00 Build 0)  -->
<!DOCTYPE svg PUBLIC "-//W3C//DTD SVG 1.1//EN" "http://www.w3.org/Graphics/SVG/1.1/DTD/svg11.dtd">
<svg version="1.1" id="Layer_1" xmlns="http://www.w3.org/2000/svg" xmlns:xlink="http://www.w3.org/1999/xlink" x="0px" y="0px"
	 viewBox="-176 231.2 146.9 38.8" style="enable-background:new -176 231.2 146.9 38.8;" xml:space="preserve">
<style type="text/css">
	.st0{fill:#FFFFFF;}
	.st1{clip-path:url(#SVGID_2_);fill:#FFFFFF;}
</style>
<path class="st0" d="M-36.7,253.4c-0.1,2.1,1.3,3.4,3,3.4c1.3,0,2.8-0.7,4-2.5l-0.2-0.2c-1,1-2.2,1.5-3,1.5c-1.3,0-2.2-0.8-2-2.5
	c2.1-0.1,5.7-0.5,5.9-3c0.1-1.3-1.2-2.1-2.6-2.1C-33.9,248-36.5,250.1-36.7,253.4L-36.7,253.4z M-31.8,249.1c0.5,0,1.1,0.3,1.1,1
	c-0.1,1.2-1.7,2-4.1,2.1C-34.4,250.7-33.4,249.1-31.8,249.1z M-40.2,249c1.1,0,1.7,0.6,1.7,1.8h0.2c0.3-0.5,0.7-1.5,0.8-2.1
	c-0.6-0.4-1.6-0.7-2.5-0.7c-2.8,0-5.2,2.8-5.4,5.4c-0.2,2.2,1.3,3.4,3,3.4c1.4,0,2.8-0.7,4-2.5l-0.2-0.2c-1,1-2.2,1.6-3,1.6
	c-1.3,0-2.2-0.7-2-2.5C-43.5,251.3-42.1,249-40.2,249z M-46.5,250.1h0.2c0.3-0.6,0.7-1.4,0.8-2c-0.4-0.1-0.7-0.2-1.2-0.2
	c-0.9,0-2.1,0.5-3.2,2H-50l0.2-0.8c0.3-1.1,0.2-1.2-0.2-1.2l-1.9,0.2l-0.1,0.2l0.5,0.5c0.1,0.1,0.2,0.3,0.1,0.6l-1.4,6.2
	c-0.1,0.2-0.2,0.4-0.4,0.6l-0.4,0.3c-0.1,0.1-0.1,0.2,0,0.2h2.9l0.1-0.2l-0.5-0.5c-0.1-0.2-0.2-0.3-0.2-0.6l0.3-1.4
	c0.7-2.9,2.1-4.7,3.3-4.7C-47.1,249.3-46.6,249.5-46.5,250.1z M-61.2,253.4c-0.1,2.1,1.3,3.4,3,3.4c1.3,0,2.8-0.7,4-2.5l-0.2-0.2
	c-1,1-2.2,1.5-3,1.5c-1.3,0-2.2-0.8-2-2.5c2.1-0.1,5.7-0.5,5.9-3c0.1-1.3-1.2-2.1-2.6-2.1C-58.4,248-61,250.1-61.2,253.4z
	 M-56.3,249.1c0.5,0,1.1,0.3,1.1,1c-0.1,1.2-1.7,2-4.1,2.1C-58.9,250.7-57.8,249.1-56.3,249.1z M-74.1,256.6c0.1,0,0.2-0.1,0.2-0.2
	l0.8-3.5c0.5-2,1.8-3.6,2.8-3.6c0.8,0,1,0.5,0.7,1.6l-1.2,5.5c0,0.1,0,0.1,0.1,0.1h1.3c0.1,0,0.2-0.1,0.2-0.2l0.8-3.5
	c0.4-2,1.8-3.6,2.8-3.6c0.8,0,1,0.5,0.7,1.6l-0.8,3.6c-0.3,1.3,0,2.1,1.1,2.1c0.9,0,1.5-0.8,2.2-2l-0.3-0.2
	c-0.6,0.7-0.9,1.2-1.2,1.2c-0.4,0-0.3-0.5-0.2-0.7l0.8-3.5c0.6-2.5-0.3-3.5-1.6-3.5c-1,0-2,0.6-2.9,2l-0.2,0.4
	c0.2-1.3-0.3-2.2-1.7-2.2c-1,0-2,0.6-2.9,2l0.2-0.8c0.3-1.1,0.2-1.2-0.2-1.2l-1.9,0.2l-0.1,0.2l0.5,0.5c0.1,0.1,0.2,0.3,0.1,0.6
	l-1.4,5.9c-0.1,0.3-0.1,0.6-0.3,0.7l-0.5,0.4v0.2h2.1V256.6z M-88.1,256.6c0.1,0,0.2-0.1,0.2-0.2l0.8-3.5c0.5-2,1.8-3.6,2.8-3.6
	c0.8,0,1,0.5,0.7,1.6l-1.2,5.5c0,0.1,0,0.1,0.1,0.1h1.3c0.1,0,0.2-0.1,0.2-0.2l0.8-3.5c0.4-2,1.8-3.6,2.8-3.6c0.8,0,1,0.5,0.7,1.6
	l-0.8,3.6c-0.3,1.3,0,2.1,1.1,2.1c0.9,0,1.5-0.8,2.2-2l-0.3-0.2c-0.6,0.7-0.9,1.2-1.2,1.2c-0.4,0-0.3-0.5-0.2-0.7l0.8-3.5
	c0.6-2.5-0.3-3.5-1.6-3.5c-1,0-2,0.6-2.9,2l-0.2,0.4c0.2-1.3-0.3-2.2-1.7-2.2c-1,0-2,0.6-2.9,2l0.2-0.8c0.3-1.1,0.2-1.2-0.2-1.2
	l-1.8,0.2l-0.1,0.2l0.5,0.5c0.1,0.1,0.2,0.3,0.1,0.6l-1.4,5.9c-0.1,0.3-0.1,0.6-0.3,0.7l-0.5,0.4v0.2h2V256.6z M-93.7,248
	c-2.6,0-4.8,2.8-4.9,5.4c-0.1,1.9,0.9,3.4,3.1,3.4c2.6,0,4.8-2.8,4.9-5.4C-90.4,249.6-91.5,248-93.7,248z M-95.5,255.8
	c-1.1,0-1.6-1-1.4-2.4c0.1-1.6,1.4-4.3,3.2-4.3c1.1,0,1.6,1,1.4,2.4C-92.4,253-93.6,255.8-95.5,255.8z M-104.7,256.8
	c1.3,0,2.4-0.3,3.1-0.8c0.4-0.6,1.2-2.4,1.4-3.1h-0.3c-1,1.8-2.5,2.6-4,2.6c-2.8,0-3.9-2.1-3.2-5.1c0.6-2.5,2.6-4.7,5-4.7
	c2.1,0,2.8,1.2,2.4,2.5l0.1,0.1c0.6-0.5,1.3-1.6,1.6-2.5c-0.8-0.7-2.3-1.2-4.1-1.2c-3.2,0-6.3,2.5-7,6.2
	C-110.4,254.1-108.7,256.8-104.7,256.8z"/>
<g>
	<defs>
		<path id="SVGID_1_" d="M-150.7,257.5l0.1-0.1L-150.7,257.5 M-150.9,257.2v-0.1V257.2 M-150,257.1v0.4h0.1
			C-150,257.3-149.9,257.2-150,257.1 M-152.1,256.6c0.1,0.1-0.1,0.2,0,0.2V256.6 M-150.7,256.4l0.1,0.1L-150.7,256.4L-150.7,256.4
			 M-149.2,256.4v0.1h0.1l0.1-0.1H-149.2 M-150.1,256.2l0.1,0.1L-150.1,256.2 M-150.3,256.2c-0.1,0.1,0,0.1,0,0.1V256.2
			 M-149.4,256.2v-0.1V256.2 M-150,256l0.1,0.1C-149.8,256.1-149.8,256-150,256C-149.8,256.1-149.9,256-150,256
			C-149.9,256.1-149.9,256-150,256 M-150.5,256C-150.4,256-150.4,256-150.5,256 M-149.6,255.9l-0.1,0.1h0.1V255.9 M-147.8,255.8v0.1
			V255.8c0,0.1-0.1,0.2-0.1,0.2h0.1c0,0,0-0.1,0,0V255.8 M-150.4,255.9l0.1-0.1L-150.4,255.9 M-150.3,255.6c0.1,0,0,0.1,0,0.1V255.6
			L-150.3,255.6 M-151.5,255.7h-0.1v-0.1c0,0.1-0.2,0.4-0.3,0.3C-151.9,256.2-151.5,255.7-151.5,255.7l0.1-0.1L-151.5,255.7
			 M-149.1,255.5l-0.1,0.1c0,0.2,0.1,0.1,0.2,0L-149.1,255.5 M-148.6,255.5h0.1v-0.1L-148.6,255.5l0.1-0.1L-148.6,255.5
			 M-141.8,255.5l-0.1,0.1l0.1,0.1V255.5L-141.8,255.5c0,0.2,0,0.3,0.1,0.2h-0.1V255.5l0.1,0.2l0.1-0.1v0.1c0-0.1,0.1-0.3-0.1-0.3
			c0.1,0,0,0.1,0,0c0,0.1-0.1,0,0,0L-141.8,255.5 M-152.4,255.3C-152.5,255.2-152.4,255.4-152.4,255.3 M-148.2,255.2
			C-148.1,255.3-148.2,255.2-148.2,255.2v-0.1V255.2 M-147.9,255L-147.9,255h0.1H-147.9 M-144.5,255l0.1,0.1c0.1,0,0.1,0,0.1-0.1
			h0.1v-0.1L-144.5,255 M-140,255L-140,255L-140,255L-140,255 M-146.2,255.2l0.2-0.1h-0.2V255V255.2 M-144.5,255.1v-0.2
			C-144.5,254.9-144.6,255.1-144.5,255.1 M-148.1,255.1v0.2c0-0.1,0.1-0.1,0.1-0.2l-0.1,0.1v-0.3V255.1v-0.2V255.1v-0.2V255.1
			 M-151.2,254.9v0.2V254.9 M-144.4,254.8v0.1V254.8l0.1,0.1L-144.4,254.8 M-142.1,254.8c0,0.1,0.1,0.3,0.1,0.3h0.2L-142.1,254.8
			L-142.1,254.8L-142.1,254.8 M-141.9,254.7C-142.1,254.8-141.9,254.7-141.9,254.7 M-151,254.7L-151,254.7c-0.1,0.1-0.2,0.3-0.2,0.3
			l0.1-0.1C-151.1,254.8-151,254.8-151,254.7h0.3H-151 M-141.8,254.7l0.1,0.2v0.1L-141.8,254.7l0.1,0.1
			C-141.7,254.6-141.7,254.7-141.8,254.7l0.1-0.1L-141.8,254.7 M-142.2,254.6v0.3l0.1,0.1L-142.2,254.6 M-142,254.5l0.1,0.1v-0.1
			C-141.9,254.5-141.9,254.6-142,254.5 M-145.7,254.5C-145.8,254.6-145.7,254.6-145.7,254.5L-145.7,254.5l0.1,0.1L-145.7,254.5
			 M-144.5,254.8l0.1-0.1l-0.2-0.1C-144.6,254.7-144.6,254.8-144.5,254.8 M-142.3,254.6l-0.1-0.2L-142.3,254.6 M-143.5,254.5h0.1
			H-143.5 M-147.7,254.4l0.2,0.1v-0.2l-0.2-0.1V254.4 M-146.2,254.2v0.2V254.2 M-151.8,254.2v0.2V254.2v0.2V254.2 M-147.4,254.2
			h-0.1C-147.3,254.4-147.4,254.3-147.4,254.2 M-152.4,254.2C-152.4,254.1-152.3,254.2-152.4,254.2 M-151.7,254.1
			C-151.7,254.1-151.9,254.2-151.7,254.1 M-153,254.1c0,0.1-0.2,0.1-0.1,0.1l0.1,0.1V254.1l0.1,0.1h-0.1h0.1L-153,254.1 M-142.5,254
			l0.1,0.1v0.1c0.1,0-0.1,0,0,0.1h0.1c0,0.2,0,0.1,0.1,0.1l0.1,0.1v-0.2v0.1l-0.3-0.2L-142.5,254L-142.5,254 M-151.5,254.1V254
			C-151.7,254-151.6,254.1-151.5,254.1 M-146.1,254.1C-146.2,254.1-146.1,254.1-146.1,254.1C-146.2,254.1-146.5,254.2-146.1,254.1
			l0.1-0.1v-0.2L-146.1,254.1 M-150.4,254h0.1H-150.4 M-143,253.7v0.1V253.7L-143,253.7 M-150.8,253.8l-0.2,0.2h0.1l0.1,0.2h0.1
			l0.1-0.1C-150.7,254.2-150.7,253.9-150.8,253.8l0.1,0.1C-150.6,253.8-150.7,253.7-150.8,253.8 M-150.2,253.8v0.1V253.8l0.2-0.2
			h-0.3L-150.2,253.8 M-144,253.8l0.1,0.1v0.3v-0.1h0.1c0.1-0.1,0.2,0,0.2,0l0.1-0.1c-0.1,0,0,0,0,0L-144,253.8c0-0.2,0-0.3-0.1-0.3
			C-144.1,253.6-144.1,253.7-144,253.8 M-149,253.4c0,0.1,0,0.2-0.1,0.2c0,0.1,0.1,0.3,0.1,0.3h-0.1c0,0.1,0.1,0.1,0,0.2
			c-0.1,0.1,0.1,0.1,0.2,0.2c0,0.1,0.4,0.3,0.5,0.1v-0.2c0,0.1,0.1-0.1,0.1-0.1c0,0.1,0.1-0.1,0.1-0.1v-0.1l-0.1,0.1
			c-0.1-0.1,0.1-0.2,0-0.2v-0.1c0,0.1,0.2-0.1,0.2-0.1l-0.1-0.1l0.1,0.1h-0.2l-0.3,0.4c0-0.2-0.1-0.3-0.2-0.4h0.1l-0.1-0.1h0.1
			l-0.1-0.1H-149 M-148.7,253.3v0.2h0.1v0.1c0-0.1,0.1-0.1,0.1-0.2L-148.7,253.3 M-143.8,253.2l0.1,0.1l0.1-0.1
			c-0.1,0.2,0.1,0.2,0.2,0.2v0.2v-0.1v0.1l0.1-0.1c0,0.1,0.1,0.1,0.1-0.1h-0.1l0.1-0.2h-0.1l-0.1-0.1c-0.1,0.1-0.1,0.1-0.1,0
			l-0.1,0.1c-0.1,0-0.2,0-0.2-0.1V253.2 M-144.7,253.1l0.1,0.1C-144.6,253-144.7,253.1-144.7,253.1 M-140.4,253
			C-140.4,253-140.5,253.1-140.4,253 M-143.9,253.1c0,0-0.2,0.1-0.1,0.1L-143.9,253.1v0.2C-143.9,253.6-143.6,253.3-143.9,253.1
			 M-145.2,253c0,0.2,0.1,0.1,0.1,0.2l0.3-0.2c-0.1,0-0.2-0.1-0.3-0.1L-145.2,253 M-140.3,253.1L-140.3,253.1
			C-140.3,253-140.4,253.1-140.3,253.1 M-152.8,252.7C-152.7,252.7-152.7,252.7-152.8,252.7 M-152.6,252.7L-152.6,252.7
			L-152.6,252.7 M-149.1,252.6l-0.1,0.1L-149.1,252.6L-149.1,252.6 M-146.3,252.5L-146.3,252.5L-146.3,252.5 M-152.7,252.4l0.2,0.1
			l-0.1,0.1l0.1,0.1l0.1-0.1v-0.1l-0.2-0.2L-152.7,252.4 M-148.7,252.2h0.1H-148.7l0.2,0.1l-0.1-0.1H-148.7 M-149.4,252.2l0.1,0.1
			v-0.1H-149.4 M-149,252.3C-149.1,252.3-149.1,252.4-149,252.3v0.2l0.1,0.1h0.1l0.1-0.1c0,0-0.1,0.2,0,0v0.1h0.2
			c0-0.2-0.2-0.1-0.2-0.2c0.1-0.1-0.1-0.1-0.2-0.1H-149l0.2-0.1C-148.8,252.1-149.2,252.2-149,252.3 M-145.6,252.2v0.1V252.2
			 M-145.7,252.2c0-0.1,0.1-0.2,0-0.1V252.2V252h-0.1C-145.8,252.2-145.7,252.2-145.7,252.2 M-148.4,252.1h-0.1H-148.4
			C-148.4,252-148.5,252-148.4,252.1 M-145.2,252c0,0-0.1,0.2-0.1,0.3L-145.2,252L-145.2,252 M-147.5,252c0,0.1-0.2,0.1-0.2,0.2
			l0.1,0.1v0.1l-0.2,0.2l0.3,0.1l0.1-0.1l0.1,0.1h0.2l0.1,0.1c0-0.1,0-0.3-0.1-0.3v0.1v-0.4v0.1c0,0-0.1-0.1,0-0.1h-0.3
			C-147.3,252.2-147.4,252-147.5,252C-147.6,252.1-147.4,252-147.5,252 M-146,252C-146.1,252.1-146,252-146,252 M-147.4,252l0.1,0.1
			C-147.2,252-147.3,252-147.4,252 M-148,251.9v0.1V251.9v0.3h0.1c0-0.1,0-0.1,0,0l-0.1-0.1C-147.9,252.1-148,252-148,251.9
			 M-149.4,251.9c-0.2,0.1,0,0.2,0,0.2V251.9 M-146.3,251.9c0,0.1,0,0.3,0.1,0.1v0.1L-146.3,251.9 M-146.1,251.8c0,0,0,0.3,0.1,0.2
			c0.1,0.1,0.1,0.2,0.2,0.2l-0.1-0.1l0.1-0.1v-0.1c0,0-0.1,0.1,0,0h-0.1c0.1,0,0,0,0,0S-145.9,251.8-146.1,251.8 M-148.3,251.7h0.1
			H-148.3 M-145.7,251.6L-145.7,251.6L-145.7,251.6 M-149.1,251.6C-149.1,251.7-149.1,251.6-149.1,251.6 M-145.1,251.7
			c0,0.1,0.2,0.3,0.2,0.4v0.1V252v0.1v-0.5C-145,251.8-145,251.7-145.1,251.7l0.1-0.2L-145.1,251.7 M-152,251.6h0.1H-152
			 M-146.3,251.6l0.2,0.1l0.1-0.1v-0.1h-0.1l-0.1-0.1L-146.3,251.6 M-144.8,251.5h0.3c0-0.1-0.1-0.1-0.2-0.1L-144.8,251.5
			 M-144.5,251.4l0.1,0.1L-144.5,251.4 M-145.9,251.4L-145.9,251.4L-145.9,251.4 M-145.1,251.3l0.1,0.1L-145.1,251.3 M-146.1,251.4
			v-0.1C-146.2,251.4-146.2,251.4-146.1,251.4 M-145.2,251.4l0.1-0.1L-145.2,251.4 M-145.6,251.2L-145.6,251.2
			c-0.1,0.2-0.2,0.2-0.2,0.3c0,0,0.2,0,0,0.1l0.2-0.1V251.2 M-148.6,251.2c0-0.1-0.1,0-0.1,0.1L-148.6,251.2c0.1,0.1,0.1,0.2,0.1,0
			H-148.6 M-145.5,251.1C-145.5,251.1-145.6,251.3-145.5,251.1 M-145.9,251.1l0.1,0.1L-145.9,251.1L-145.9,251.1 M-144.6,251.1
			c0.1,0.1,0.1,0,0.1,0.1v-0.1H-144.6 M-144.7,250.8L-144.7,250.8L-144.7,250.8L-144.7,250.8 M-146.1,250.7
			C-146.2,250.7-146.2,250.7-146.1,250.7C-146.3,250.9-146.1,250.7-146.1,250.7 M-146,250.8C-146,250.8-146.1,250.8-146,250.8
			 M-143.2,250.7v0.2V250.7 M-150.1,250.6C-150.1,250.5-150,250.5-150.1,250.6L-150.1,250.6 M-145.5,250.5l0.2,0.1v-0.1H-145.5v-0.1
			V250.5 M-149.7,250.5C-149.7,250.6-149.7,250.6-149.7,250.5l0.1-0.2L-149.7,250.5 M-143,250.4v0.2h-0.1v-0.1c0,0,0.2,0.1,0.2,0
			v-0.1c0.1-0.1,0-0.2-0.1-0.2V250.4 M-144,251.6C-144,251.7-144,251.6-144,251.6 M-143.9,251.2l0.1,0.1
			C-143.9,251.4-143.9,251.3-143.9,251.2v0.1V251.2C-143.8,251.2-143.8,251.2-143.9,251.2 M-144.9,250.4l-0.1-0.1l0.3,0.3
			c0-0.2,0.3,0.2,0.3,0.2l0.1-0.2h0.1v0.1l-0.1,0.1v0.1v-0.1v0.1c0-0.1,0.1,0.1,0.1,0.1h-0.1c0,0.1,0.2,0.2,0.1,0.3h-0.1l-0.1,0.1
			c-0.1,0.3-0.1,0.1-0.2,0.1v-0.1h-0.1v0.4c0,0,0.2,0,0.1-0.1l0.1-0.1c0,0.1,0.1,0.1,0.1,0l0.1,0.2v0.1l0.3,0.1c0,0,0.4-0.4,0.2-0.5
			v-0.1h-0.1c0,0-0.1,0.1-0.1,0c0.1,0,0.1-0.2,0.1-0.2v-0.1h-0.1c0.2,0-0.1-0.3-0.2-0.2c0,0,0-0.4-0.2-0.3l-0.2-0.1l-0.1-0.2
			c-0.1,0,0.1,0.2,0,0.2C-144.7,250.4-144.8,250.4-144.9,250.4l0,0.1h0.1h-0.1v0.1l-0.1-0.2C-145,250.5-145,250.4-144.9,250.4h-0.2
			C-144.8,250.2-144.9,250.3-144.9,250.4 M-145.8,250.3h0.1H-145.8 M-143.3,250.3L-143.3,250.3L-143.3,250.3 M-145.7,250.2v0.1
			C-145.6,250.2-145.7,250.2-145.7,250.2 M-143.6,250.2v0.2h0.1c0,0.1,0,0.2,0.1,0c0,0.1,0,0.1,0.1,0.1h-0.1c0.1,0,0.3-0.1,0.3-0.2
			c0-0.1-0.2,0-0.3,0v-0.1h-0.1c0-0.2-0.1-0.1-0.1-0.1V250.2l0.1-0.1L-143.6,250.2 M-150.5,250.2v-0.1V250.2 M-143.3,250L-143.3,250
			C-143.3,250.1-143.2,250-143.3,250 M-149.7,250L-149.7,250L-149.7,250 M-143.5,250C-143.5,250-143.4,250.1-143.5,250 M-148.6,250
			l0.1-0.1L-148.6,250 M-148.7,250.6C-148.6,250.7-148.7,250.6-148.7,250.6 M-148.5,250.2h-0.2c-0.1-0.2-0.1,0.2-0.1,0.2l-0.1,0.1
			h-0.1l0.1,0.1h-0.2v0.1h-0.1c0,0,0,0.3,0.1,0.1v0.1c-0.1-0.1-0.2,0.1-0.2,0.2v0.1l-0.2-0.1v0.1h-0.1v-0.1c-0.1,0-0.1,0.2-0.2,0.1
			v0.2h0.1v0.1h0.1v0.2l0.2,0.1h-0.1l0.2-0.3v-0.1c0,0.1,0.1,0,0.1-0.1l0.3-0.1c-0.1-0.1,0-0.1,0-0.3c0.2,0,0.1,0.1,0.1,0.1
			c0.1,0,0,0,0.1-0.1h0.1v-0.1h0.2c0.1-0.3-0.1-0.4,0.1-0.4c0-0.1,0-0.2,0.1-0.1v0.1c0.2,0,0-0.2,0-0.2h0.2l0.1-0.1
			c-0.1,0-0.1-0.1-0.1-0.2C-148.3,249.9-148.5,250.2-148.5,250.2 M-150,249.9c0,0,0.1,0.1,0,0.2V250v0.2c0.1,0.2,0.2,0,0.1-0.2
			C-149.9,250-149.9,249.8-150,249.9 M-148.4,249.8C-148.4,249.9-148.4,249.9-148.4,249.8L-148.4,249.8L-148.4,249.8 M-142.9,249.7
			l0.1,0.2v-0.1h0.1v-0.1H-142.9 M-150.2,249.6c-0.2,0.1,0.1,0.4,0.1,0.3l-0.1-0.1h0.1L-150.2,249.6 M-150.2,249.5
			C-150.2,249.6-150.1,249.5-150.2,249.5 M-148.5,249.3l-0.1,0.1L-148.5,249.3C-148.6,249.3-148.6,249.4-148.5,249.3l-0.1,0.2v0.1
			h-0.1c0,0.1-0.1,0.2-0.1,0.1c-0.1,0-0.3,0.2-0.2,0.3c0.2,0,0.2-0.1,0.3-0.3l-0.1,0.1l0.1-0.1l0.2-0.1l-0.1-0.1v-0.1l0.2-0.2
			C-148.4,249.3-148.5,249.3-148.5,249.3 M-148.9,249.3c0.1,0.1,0,0.1,0,0.2h0.2c0.2-0.1,0-0.2,0.1-0.3L-148.9,249.3 M-149.5,249.1
			l-0.1,0.1L-149.5,249.1L-149.5,249.1C-149.3,249.2-149.6,249.2-149.5,249.1h0.1H-149.5 M-146.8,249.1l-0.2,0.2h0.1
			C-146.8,249.3-146.8,249.2-146.8,249.1 M-148.3,249c0,0.1,0.1,0.1,0.1-0.1L-148.3,249 M-144.6,248.9L-144.6,248.9L-144.6,248.9
			 M-143.3,248.8l0.1-0.1l-0.1-0.1V248.8 M-143.7,248.7l0.1,0.1L-143.7,248.7 M-146.9,248.7l0.1,0.1L-146.9,248.7 M-146.1,248.7v0.1
			l-0.1,0.1v0.1h0.1v-0.1C-145.9,248.8-146,248.7-146.1,248.7 M-143.9,248.8v-0.2V248.8 M-146.9,248.7
			C-147,248.6-147,248.7-146.9,248.7 M-142.1,248.7C-142.1,248.7-142,248.7-142.1,248.7h0.2l-0.1,0.2l0.1,0.1
			c-0.1,0-0.1-0.1-0.2-0.1v0.1c0.1,0,0.1,0.1,0.2,0.1l0.3-0.1c0-0.1,0-0.1-0.1,0v-0.2l-0.1-0.1l-0.2-0.1L-142.1,248.7 M-142.4,248.6
			c0.1,0.1,0,0.2,0.1,0.2L-142.4,248.6 M-143.5,248.6c0,0,0,0.1,0.1,0.1L-143.5,248.6 M-142.1,248.5
			C-142.2,248.6-142.1,248.7-142.1,248.5 M-142.9,248.7C-142.9,248.8-143,248.7-142.9,248.7l-0.1,0.2v0.1h0.2L-142.9,248.7
			c0.1,0.2,0.2,0.2,0.2,0.3l0.1-0.1c-0.1,0,0.1,0.1,0.2,0.1h0.2v0.1c0-0.2-0.1-0.1-0.1-0.1v-0.1l-0.1,0.1l-0.1-0.2h-0.1
			c0-0.1,0-0.1,0.1-0.1h-0.1c-0.1,0-0.1,0-0.2-0.1L-142.9,248.7 M-146.7,248.6L-146.7,248.6L-146.7,248.6 M-144.9,248.5
			L-144.9,248.5L-144.9,248.5 M-145.1,248.5L-145.1,248.5L-145.1,248.5 M-143.1,248.5v0.3l0.1-0.1c0,0.1,0.1-0.1,0.1-0.1
			L-143.1,248.5 M-147.5,248.3v0.2h-0.2v-0.1l-0.1,0.2h-0.1c0,0.1,0.2,0.3,0.3,0.2c0.1,0.2,0.5-0.1,0.3-0.1v-0.1h-0.1
			c0.1,0,0-0.1,0-0.1L-147.5,248.3 M-143.9,248.3v0.1l0.1,0.1c0,0,0.2,0,0-0.1L-143.9,248.3 M-145.4,248.5L-145.4,248.5
			L-145.4,248.5h-0.2v0.1h-0.1v0.1h0.2l0.1-0.3C-145.4,248.4-145.5,248.3-145.4,248.5 M-144,248.4C-143.8,248.4-144,248.4-144,248.4
			 M-146.7,248.3v0.1V248.3 M-148.9,248.4c0.1,0.1,0.1,0,0.1-0.1L-148.9,248.4 M-143.9,248.3C-144,248.3-143.9,248.3-143.9,248.3
			 M-141.2,248.2L-141.2,248.2L-141.2,248.2C-141.2,248.3-141.1,248.1-141.2,248.2 M-144,248c0.1,0.1,0.2,0.3,0.3,0.1h-0.1L-144,248
			 M-145.6,248l0.1,0.1v-0.2L-145.6,248 M-145.8,248l0.1-0.1L-145.8,248 M-144.5,248l0.2,0.1v0.1h-0.1c-0.3-0.6,0,0,0,0.1h-0.1
			l0.1,0.1v-0.1l0.1-0.1v0.2l0.1-0.1l0.2,0.1h-0.1c0.1-0.2-0.2-0.2-0.2-0.2c0-0.2,0.1-0.4-0.1-0.4v-0.1l-0.2-0.1
			C-144.5,247.8-144.5,247.9-144.5,248 M-144.7,247.7l0.1-0.1L-144.7,247.7 M-144.6,247.6C-144.6,247.7-144.5,247.7-144.6,247.6
			 M-144.7,247.6v0.1V247.6 M-147,247.5L-147,247.5L-147,247.5 M-144.7,247.5C-144.6,247.4-144.6,247.4-144.7,247.5v-0.1
			C-144.7,247.4-144.8,247.5-144.7,247.5 M-145.9,247.5v0.3l0.1-0.1v0.1l0.2-0.1l0.2-0.1c0-0.2-0.1-0.2-0.1-0.2h-0.1
			c-0.1,0,0,0,0-0.1C-145.8,247.2-145.9,247.4-145.9,247.5 M-141.6,247.2L-141.6,247.2L-141.6,247.2L-141.6,247.2 M-148.4,247.1
			C-148.5,247.2-148.4,247.3-148.4,247.1 M-148.4,247v0.2C-148.3,247.2-148.2,247-148.4,247 M-146.8,247.1V247V247.1 M-145.4,247.1
			v0.1V247.1v0.2c0,0.1,0.1,0.1,0.2,0.1h0.1v-0.3l-0.1-0.1C-145.3,247-145.4,247.1-145.4,247.1 M-145.5,246.9
			C-145.5,246.9-145.5,247.1-145.5,246.9 M-148.7,247.1v0.1c0.1-0.1,0.1,0,0.1,0.1L-148.7,247.1c-0.1-0.1,0-0.1,0-0.2h-0.1
			C-148.7,246.9-148.7,247-148.7,247.1 M-145.3,246.9v-0.1V246.9 M-148.2,246.8l0.1,0.1h0.1C-148.1,246.7-148.1,246.7-148.2,246.8
			 M-150.9,246.8C-150.9,246.8-150.9,247-150.9,246.8l0.1-0.1L-150.9,246.8 M-150.8,246.9l0.1-0.2L-150.8,246.9 M-146.3,246.7
			L-146.3,246.7L-146.3,246.7l0.1,0.2l0.1-0.1c0,0,0.1,0.3,0.2,0.1c-0.1-0.1-0.1-0.2-0.2-0.1v-0.1H-146.3 M-148.5,246.5v0.3
			c0.1,0.1,0,0.2,0.1,0v0.1c0.2,0-0.1-0.3,0-0.3v0.1l0.1-0.1l-0.1,0.1c0-0.1,0.1-0.1,0.1-0.1C-148.5,246.5-148.5,246.7-148.5,246.5
			 M-143.9,246.5h0.1l-0.1-0.2V246.5 M-142.7,246.4v0.1V246.4 M-141.7,246.4v-0.2V246.4 M-148.4,246.3c0.1,0-0.1,0.2,0,0.2l0.1-0.1
			v0.1C-148.3,246.3-148.4,246.3-148.4,246.3 M-151.1,246l0.1-0.1C-151.1,245.9-151.1,245.9-151.1,246 M-142.8,246h-0.1H-142.8
			L-142.8,246L-142.8,246L-142.8,246l0.1,0.2h-0.2c0.1,0.1,0.2,0.2,0.3,0.2l0.1,0.1h0.2l0.1-0.1v-0.2h-0.5L-142.8,246
			c-0.1,0.1,0.1,0,0.1-0.1C-142.6,245.8-142.8,245.9-142.8,246 M-147.5,246l0.1,0.1L-147.5,246 M-147.7,245.8l-0.1,0.1h-0.2l0.1-0.1
			l-0.1,0.2h-0.1c0.1,0,0-0.1,0.1-0.1c0-0.1-0.1-0.1-0.1-0.1v0.3l-0.2,0.1v0.1h-0.1c0,0.2,0.1,0.2,0.2,0.2h0.1v-0.1h0.2v0.2
			c0.1,0.2,0,0.2-0.1,0.2v0.1l0.1,0.1l-0.2,0.2h0.2c0.1,0.1,0.1,0.1,0.3,0c0.1,0,0.4-0.3,0.4-0.1l0.1-0.1l0.2,0.1v-0.3
			c0.2,0.3,0.2-0.4,0.2-0.4c0-0.1-0.2-0.1-0.2-0.1h-0.2c0.1-0.1,0-0.1,0-0.2c0,0-0.3,0.1-0.2,0h0.1l-0.1-0.1
			c-0.1-0.1-0.1-0.1-0.2-0.3h0.1v-0.1L-147.7,245.8 M-147,245.6v0.2h0.1L-147,245.6 M-143.1,246.3
			C-143.4,246.2-143.1,246.2-143.1,246.3L-143.1,246.3 M-143.2,245.7h-0.3v0.2h-0.1v-0.1l-0.1-0.2h-0.1c0.1,0.1,0,0.2,0,0.3h0.1
			c0,0.1,0.1,0,0.2,0h-0.1c0,0.1,0.1,0,0.1,0.1h-0.1l0.1,0.1h-0.1l-0.1-0.1v-0.1l-0.1,0.1l0.2,0.2v-0.1v0.1h0.2c0,0.2,0.1,0,0.2,0
			c0,0.1,0.1,0.2,0,0.3h0.3c0.1,0.2,0.3,0,0.3,0v0.1v-0.1c-0.1,0.1-0.2-0.1-0.3-0.2l-0.1-0.1V246l-0.1,0.1V246l0.1,0.1v-0.2v0.1
			h-0.1v-0.2L-143.2,245.7l0.1,0.1c0-0.1,0.1-0.2,0-0.3L-143.2,245.7 M-148,245.7v-0.1V245.7 M-148,245.6l0.1,0.2L-148,245.6h0.2
			v0.1l0.1-0.1H-148 M-144,245.5c-0.1-0.1-0.1,0-0.1-0.1h-0.1l-0.2,0.2v0.1l0.1,0.1v-0.1v0.1l0.1-0.1l-0.1,0.1
			c0.1,0,0.1-0.1,0.1-0.2v-0.1C-143.9,245.7-143.9,245.6-144,245.5v-0.2C-144,245.4-143.9,245.5-144,245.5 M-147.5,245.4l0.1,0.1
			h0.1v-0.1l0.1,0.1v0.1h-0.1v0.1c0.1-0.2,0.3-0.1,0.3,0.1v-0.2c0,0.1,0,0,0,0v-0.1h-0.2v-0.1c0,0.1,0.1,0,0.1,0H-147.5
			 M-148.1,245.4l0.1-0.1L-148.1,245.4 M-141.4,245.4c-0.2,0.1,0.2,0.2,0.3,0.2L-141.4,245.4h0.2H-141.4c0.1,0.1-0.1-0.2,0-0.2h-0.2
			C-141.6,245.4-141.5,245.4-141.4,245.4 M-148.7,245.2C-148.7,245.4-148.6,245.2-148.7,245.2 M-148.5,245.3h-0.1v0.1
			c-0.1-0.1-0.2,0-0.2-0.1h-0.1v0.2l-0.1,0.1c-0.1,0.3,0.2,0.1,0.4,0.2v-0.1l0.1-0.2l0.1-0.1L-148.5,245.3l0.1,0.1L-148.5,245.3
			c0.1,0,0.2,0.1,0.2-0.1h-0.1c0,0-0.1,0-0.1-0.1V245.3 M-144.2,245.2h-0.1H-144.2 M-143.7,245.1c0,0.3,0.3,0.1,0.3,0.1h-0.1
			L-143.7,245.1 M-142.9,245.1l-0.2,0.2v0.2h-0.1c0.1,0,0,0,0,0l0.2,0.4c0-0.1,0-0.3,0.1-0.2v0.1c0.1,0,0.2-0.1,0.2-0.2v0.1l0.1-0.1
			v-0.5h-0.1c0,0.1,0.1,0.2,0.1,0.3c0,0-0.1-0.3-0.2-0.2L-142.9,245.1v0.1V245.1v0.1C-142.9,245.1-142.8,245.1-142.9,245.1
			C-142.8,245-142.9,245.1-142.9,245.1 M-143.1,245c0,0,0.1,0.1,0.1-0.1L-143.1,245 M-146.3,244.8c-0.1,0.2-0.1,0.2,0,0.2
			c0,0-0.1,0.1,0,0.2C-146.3,245-146.2,244.9-146.3,244.8 M-147.1,244.8l-0.1,0.1L-147.1,244.8c-0.2,0-0.1,0.2-0.1,0.1l-0.1,0.1h0.4
			v0.1v-0.2C-146.8,244.9-147,244.9-147.1,244.8C-146.9,244.8-147.1,244.8-147.1,244.8 M-140.8,244.8
			C-140.8,245-140.7,244.8-140.8,244.8L-140.8,244.8L-140.8,244.8 M-147.2,244.5L-147.2,244.5L-147.2,244.5 M-146.8,244.4l0.1,0.1
			h-0.1c-0.1,0.1,0.1,0.1,0.1,0v0.1c0.1,0,0.1,0,0.1-0.1h-0.1L-146.8,244.4h0.1H-146.8h0.1H-146.8l0.1-0.1h-0.1V244.4 M-145.2,244.4
			c0.1-0.1-0.2-0.1-0.2,0l-0.1-0.1v0.1l-0.1-0.1v0.1c0,0,0.2,0.3,0.3,0.2c0-0.2,0.3-0.1,0.3-0.1l0.1,0.1l0.1,0.1v0.1l-0.2-0.1
			l-0.1,0.1l0.2,0.2c0,0.1,0.1,0.1,0,0.1v0.1h-0.1c0,0.1,0.1,0.1,0.1-0.1c0.1,0,0.1-0.3,0.2-0.4v0.1c0,0.1,0,0.1-0.1,0.2l0.1-0.1
			h0.1v-0.1h-0.1c0.1,0-0.3-0.4-0.2-0.5l-0.1,0.1v-0.2L-145.2,244.4 M-147,244.3L-147,244.3l0.1,0.2h0.1h-0.1
			C-146.8,244.4-147,244.2-147,244.3 M-145.8,244.5h-0.2v-0.2c0,0,0-0.1-0.1,0l-0.2,0.2v0.1v-0.1c0,0.1,0.1,0.2,0.2,0
			c0,0.1,0,0.2,0.1,0.1c-0.1,0.1,0.1,0.2,0.1,0.2v0.1v-0.1l0.2,0.1C-145.7,244.8-145.8,244.5-145.8,244.5h0.1H-145.8
			c0.1,0,0-0.1,0.1-0.2l-0.1-0.1V244.5 M-147.6,244.1L-147.6,244.1c-0.1,0.1,0,0.1,0.1,0.2v0.1c0.1-0.1,0.1-0.1,0.1-0.2
			c0-0.1-0.1-0.1-0.1-0.1H-147.6 M-146.9,243.9v0.1V243.9 M-147.7,243.7h0.1H-147.7 M-145.6,243.7l-0.1,0.1h0.1
			C-145.7,243.7-145.5,243.7-145.6,243.7L-145.6,243.7 M-145.8,243.6L-145.8,243.6l-0.2,0.1v0.2c0.1,0,0.2,0.2,0.2,0V243.6l0.1,0.2
			v-0.1L-145.8,243.6 M-144.5,242.9h0.2c0-0.1-0.1,0-0.1,0H-144.5L-144.5,242.9L-144.5,242.9 M-146.8,242.9h0.1
			c0.1,0,0.1-0.2,0.1-0.2h-0.1C-146.8,242.7-146.8,242.8-146.8,242.9 M-144.7,242.8v0.2V242.8L-144.7,242.8L-144.7,242.8
			c0,0,0.1-0.1,0-0.1V242.8 M-146.9,242.6C-146.8,242.6-146.8,242.7-146.9,242.6 M-145.6,242.5
			C-145.7,242.6-145.6,242.5-145.6,242.5 M-146.8,242.6L-146.8,242.6v-0.1C-146.8,242.4-146.9,242.6-146.8,242.6 M-146,242.4v0.1
			V242.4v0.1c0-0.1-0.1,0.1-0.2,0.2h0.1h-0.1h0.1v-0.1v0.1h0.1h-0.1h0.1v-0.1l0.2-0.1v-0.1H-146 M-145.5,242.3c0-0.1-0.1,0-0.1,0.1
			L-145.5,242.3c0.1,0.1,0,0.3,0.1,0.2c0,0.1,0.1,0.2,0.1,0.1c0.1,0,0.1,0,0.2-0.1v0.1h0.1l0.1-0.1h-0.2c0,0,0-0.1-0.1-0.2l0.1,0.1
			h-0.2v-0.1v0.1L-145.5,242.3C-145.5,242.4-145.5,242.4-145.5,242.3 M-143.9,242.2C-143.9,242.3-143.9,242.2-143.9,242.2
			 M-145.6,242.2v-0.1V242.2 M-147.7,242l-0.1,0.2L-147.7,242v0.2V242 M-143.8,242C-143.5,242.1-143.7,242-143.8,242v-0.1V242
			 M-146.4,241.9l-0.1,0.1L-146.4,241.9L-146.4,241.9l-0.2,0.2l0.1-0.1L-146.4,241.9v0.1l0.2-0.1
			C-146.2,241.9-146.4,242-146.4,241.9 M-146.3,241.8l0.1,0.1v0.1l0.1-0.1c-0.1,0,0,0-0.1,0.1C-146.2,241.8-146.1,241.8-146.3,241.8
			 M-144.2,241.8L-144.2,241.8L-144.2,241.8 M-146.1,241.7v0.1V241.7 M-145.8,241.7c0,0.1,0.1,0,0.2,0H-145.8 M-146.7,240.2
			c-0.3,0.2-0.1,0.3-0.1,0.2v-0.1L-146.7,240.2v0.1V240.2 M-144,240.2v0.2c0.1-0.1,0.1-0.2,0.1-0.3L-144,240.2 M-147.4,240l-0.1,0.1
			c0,0.1,0.1,0.1,0.1,0.1V240 M-147,240v-0.1V240 M-147.7,239.9L-147.7,239.9L-147.7,239.9 M-146.8,239.7v0.2c0,0.1,0.1,0,0.1,0
			L-146.8,239.7h0.1c-0.1,0.1,0.1,0,0.1,0C-146.7,239.7-146.7,239.6-146.8,239.7 M-148.2,239.9L-148.2,239.9L-148.2,239.9
			 M-147.5,239.7c0.1,0.1,0,0.1,0,0.1v0.1h0.1l-0.1,0.1c0.3-0.1,0-0.1,0.1-0.2l-0.1,0.1V239.7 M-148.8,239.6
			C-148.7,239.6-148.8,239.6-148.8,239.6 M-145.6,239.5c-0.1,0.1,0,0.1-0.1,0.1c0,0,0.1,0.2,0.1,0.1l-0.1-0.1L-145.6,239.5
			 M-146.8,239.4v0.1V239.4v0.2C-146.9,239.5-146.8,239.4-146.8,239.4l-0.1,0.2l0.1-0.1V239.4 M-148.6,239.4L-148.6,239.4l-0.1,0.2
			c0,0-0.1,0.1,0,0.1v0.1v-0.1l0.1,0.2c0.1-0.2,0,0.2,0.1,0.2l0.1-0.1v0.1V240h-0.1l0.1-0.1v-0.1v0.1l-0.1-0.1
			c-0.1-0.1,0.1-0.1,0.1-0.2L-148.6,239.4 M-147.7,239.3C-147.6,239.3-147.7,239.4-147.7,239.3 M-148.8,239
			C-149,239-148.7,239.1-148.8,239 M-145.8,239C-145.8,239.1-145.7,239.2-145.8,239C-145.8,239-145.8,239.1-145.8,239 M-147.7,238.7
			l0.1,0.2l0.1-0.1c0.1,0.1,0.2,0,0.2,0.2h-0.1v0.1h-0.1c0.1,0.1,0.1,0.2,0,0.2v0.1l0.3-0.1l-0.2-0.1c0.1,0,0.1-0.2,0-0.3l-0.1-0.1
			v-0.1v0.1v-0.1H-147.7 M-147.5,238.6C-147.5,238.5-147.7,238.6-147.5,238.6 M-147.7,238.4v0.1V238.4 M-147.3,238.2
			C-147.3,238.4-147.2,238.2-147.3,238.2 M-142.3,256.6L-142.3,256.6L-142.3,256.6 M-140.2,253.6
			C-140.2,253.5-140.2,253.5-140.2,253.6 M-146.8,236.3v-3.5c0-0.4-0.3-0.7-0.7-0.7h-8.2c-0.4,0-0.7,0.3-0.7,0.7v18.4
			c0,0.5-0.4,0.6-0.6,0.2l-7.2-17.4l-0.3-0.7c-0.5-1.1-0.5-1.2-1.9-1.2h-8.9c-0.4,0-0.7,0.3-0.7,0.7v36.4c0,0.4,0.3,0.7,0.7,0.7h7.8
			c0.4,0,0.7-0.3,0.7-0.7v-18.4c0-0.5,0.4-0.6,0.6-0.2l7.2,17.4l0.3,0.7c0.2,0.7,0.9,1.2,1.6,1.2h5.5c2.3,0,4.2-1.9,4.2-4.2v-9.5
			c-0.1,0-0.2-0.1-0.3-0.1l-0.1-0.1l0.1,0.2h-0.2v-0.1v0.1l0.1-0.1h-0.2c0,0.2,0,0.3,0.1,0.2h0.1l0.1,0.1h-0.1l0.1,0.1
			c0,0-0.2,0-0.2-0.1v0.2v-0.1l-0.1,0.1l-0.1,0.1c-0.1,0.2,0,0.2,0,0.2h-0.3c-0.2,0-0.3,0.1-0.5,0.1l0.1-0.1l-0.1,0.1l-0.2-0.1h0.1
			c-0.1-0.1,0-0.3-0.2-0.3v0.2l-0.1-0.2l-0.1,0.1l-0.2,0.5v-0.1l0.1,0.1h-0.1l0.1,0.1l-0.1,0.4v-0.1c-0.2,0-0.2,0-0.2,0.2h-0.1v-0.1
			l-0.1,0.2h-0.1c0-0.1,0.1-0.3,0.1-0.4h-0.1l-0.2,0.2v-0.1l-0.1,0.3l-0.2,0.1v-0.1h-0.1c0,0.3,0.2,0.2,0,0.2l-0.1,0.1
			c-0.1,0.1-0.1,0.3-0.2,0.1c-0.1-0.2,0-0.3,0-0.3c0.1,0,0.1-0.3,0.2-0.4l-0.1,0.1v0.1v-0.1h-0.1c0,0-0.1-0.2-0.2-0.2
			c0-0.2-0.2-0.2-0.2-0.3l0.1-0.1l-0.1-0.2c0,0,0.1-0.1,0.2,0.1v-0.1c0.1-0.1,0.1-0.5,0.3-0.4c-0.2-0.2,0-0.4,0.1-0.5
			c0-0.1,0-0.5,0.2-0.3v-0.1h0.1v-0.1h0.1l-0.1-0.1l0.1-0.1h0.1h-0.3v-0.1v0.1v-0.2l0.3,0.1c0.1-0.1,0-0.2,0-0.2
			c0-0.1,0-0.2,0.1-0.3v0.1v-0.2v0.1l-0.1,0.1l-0.2,0.2v-0.1l-0.1,0.2h-0.1l-0.3,0.3v-0.1c-0.1,0.1-0.2,0.5-0.2,0.3l0.1,0.1
			c-0.1,0-0.2,0.1-0.1,0.2c-0.1-0.1,0,0.3-0.2,0.3c-0.1,0-0.1,0.2-0.2,0.3l-0.1-0.3h-0.1v0.1h-0.1c0,0.2-0.1,0.1-0.1,0.1h0.2v0.1
			l0.1-0.1v0.1h-0.1v0.1v-0.1v0.1h-0.2v-0.2h-0.1c0.1,0.1-0.1,0-0.1-0.1l-0.1-0.1l0.1-0.1h0.1v-0.2l0.1-0.2h0.1l0.1-0.1l-0.2,0.5
			l0.1-0.1l-0.1-0.3l-0.2,0.2c-0.2,0.2-0.4,0.3-0.3,0h0.1c0-0.1-0.2-0.4-0.1-0.4c-0.4-0.3,0-0.3,0.1-0.3c0,0,0.1-0.3,0.2-0.1
			c0.1-0.2,0.3-0.1,0.4,0h-0.1l0.1,0.2v-0.1l0.2-0.1h-0.1c0-0.1,0.1-0.1,0.1,0h0.1h-0.1c0,0,0.4-0.2,0.4-0.3l-0.1,0.1
			c0-0.1,0.1-0.1,0.1-0.1v-0.1h0.1v0.1c0.2-0.2,0.4,0,0.4-0.3h0.1v0.2l0.1-0.2c0.1,0.1,0.2-0.1,0.2-0.2c-0.2,0.1-0.5-0.1-0.6-0.1
			v-0.1h-0.2c0.1,0.1,0,0.1,0,0.2l0.1,0.1h-0.1l-0.2,0.1v-0.1h-0.1c0-0.1,0,0,0,0v-0.1c0,0-0.1,0,0,0.1h-0.1l0.2,0.1
			c0.1,0.1,0,0.3-0.1,0.1v-0.1l-0.1,0.1l0.1,0.2h-0.1l0.1-0.1l-0.1,0.1v0.2h-0.2c-0.1,0,0-0.3,0.1-0.3c0,0-0.1-0.3-0.1-0.1h0.1h-0.1
			v0.2v-0.1c0,0-0.2,0.1-0.1,0.1h-0.1v-0.2v0.1h-0.2c0,0.1-0.1,0-0.1,0.1v0.1l0.1,0.1c-0.1,0.1-0.1,0.2-0.2,0.3h-0.2l0.1-0.1h-0.4
			v-0.1v0.2v-0.1h0.1c0,0.1-0.2,0.2-0.2,0.2c0.1,0,0.1,0.1,0,0.2h-0.2v-0.3l0.1,0.1l-0.1-0.2h-0.1c0,0,0-0.2-0.1-0.1
			c0-0.1,0.1-0.1,0.1-0.1h0.1l-0.1-0.1h0.1c-0.1,0.1,0.1,0,0.1,0h-0.1c0.1-0.1,0-0.1,0-0.2c0,0.1,0.1,0.1,0.2,0.1v0.1v-0.1
			c0.1,0,0.2,0,0.2-0.1h0.1l-0.1-0.1l0.1-0.1h0.1h-0.1v-0.2v0.1c0,0.1-0.1,0.1-0.1,0.1h-0.1l0.1-0.1l-0.1,0.1h0.1v0.1
			c-0.1-0.1-0.2,0-0.2,0.1h-0.1c0-0.1-0.2-0.2,0-0.2c0-0.1-0.3-0.3-0.2-0.4c0-0.1-0.1-0.4-0.2-0.6h0.1c0-0.1,0.4-0.6,0.4-0.8h0.1
			c0,0,0-0.4,0.2-0.2h-0.1h0.1v-0.3l-0.1,0.1c0-0.1-0.2-0.2-0.2-0.4c0.2,0,0.3,0,0.4-0.1c0-0.2-0.1-0.1-0.1-0.2h0.1v-0.1
			c0.2,0.1,0.1,0,0.3,0.2c0.1,0.1,0.1,0,0.1-0.1h0.1v-0.4c0.2-0.1,0.2-0.3,0.2-0.5c-0.1-0.2,0.1-0.2,0.1-0.3c0,0,0.2,0.1,0.1-0.1
			v-0.1c-0.2,0.2,0.1-0.1,0-0.2h0.1c0,0,0.1,0.2,0.2,0.1c-0.1-0.1,0-0.1,0-0.2h0.1c-0.1,0.1,0.3,0.3,0.4,0.3v0.1h-0.2l0.1,0.1
			c0-0.1,0-0.1,0.1-0.1v-0.1h-0.1V250l0.1,0.1h0.1V250h0.1v0.1c0,0,0.1,0,0.1-0.1h-0.1c0.1,0,0.2,0.1,0.1-0.1h0.1
			c-0.1-0.1,0.1-0.1,0.2-0.1c0-0.1-0.2-0.2-0.2-0.1l0.1-0.1c0-0.1-0.1,0.1-0.1,0.1v-0.1h-0.1v0.2v-0.1v0.1h-0.2l-0.1,0.2
			c0,0.1-0.1-0.2-0.1-0.4c-0.1-0.2-0.1-0.5,0-0.3c0-0.1,0-0.2-0.1-0.2s-0.1,0-0.1-0.2h0.3h-0.1l0.3-0.3h0.1c0-0.2,0.3-0.1,0.3,0
			c0.1-0.1,0.5-0.1,0.6-0.1c0-0.1,0.1-0.3,0.1-0.2h0.1V248l0.3-0.2h-0.1h0.3l0.1-0.1h0.1v-0.1c0-0.1-0.2-0.1-0.3-0.1h0.1
			c0-0.2-0.3-0.3-0.2-0.2v-0.1v0.2c-0.1-0.1,0,0-0.1,0.1c-0.1,0-0.2-0.3-0.2-0.4c0.1,0,0.2-0.2,0.1-0.2v-0.1c0,0,0.3-0.4,0.4-0.6
			l0.1-0.1l0.1-0.1c-0.1-0.1,0,0-0.1-0.2h-0.1l0.1-0.1h-0.1c-0.1,0-0.2-0.1-0.3,0.1l0.1,0.1h-0.2v-0.1l-0.1,0.1v0.2
			c0-0.1-0.2,0-0.2,0.1s-0.3,0.1-0.3,0h0.2c-0.1,0,0.1-0.3,0-0.3v-0.1l-0.2,0.1c0.2,0,0,0.2-0.1,0.3h-0.2v0.2h-0.2
			c0,0,0-0.2-0.1-0.1v0.1c0-0.2-0.4,0.2-0.2,0.2c0.1,0.1-0.2,0.1-0.2,0.1v0.1l0.1-0.1v0.1v-0.1v0.1h-0.1l-0.1,0.1v0.2h-0.2
			c0.1,0,0.1-0.2,0.1-0.2h-0.1c0,0.3-0.2,0.2-0.2,0.1l-0.1,0.1h0.1l-0.1-0.1v0.2c0-0.1,0-0.2,0.1-0.2l-0.3,0.1l0.1,0.1h-0.2
			l-0.2-0.2l-0.1,0.1c-0.1-0.1,0.1-0.5,0.1-0.7v0.1c0-0.2,0-0.4,0.1-0.4l0.1-0.2c0.2,0,0.2,0.1,0.3,0.2c-0.1-0.1,0,0,0,0h0.2
			c0,0,0-0.1-0.1-0.1h-0.2l-0.1-0.1l0.1-0.1v-0.5c-0.1,0,0,0.1,0,0.1c-0.2-0.3-0.1-0.3,0-0.5h0.3v-0.4l0.1-0.1
			c0.1,0,0.1,0.1,0.1,0.2l0.2-0.1c0.1-0.1,0.2-0.1,0.2,0.1l0.1-0.2v0.1c0,0,0.1-0.2,0-0.2v0.1c0-0.2-0.2-0.3-0.1-0.5l0.2-0.3
			c0.1-0.1,0.2-0.1,0.4-0.3h-0.1h0.3l0.1-0.1c0,0.1,0.1,0.2,0.1,0.2v-0.1c0.1,0.1,0.1,0,0.1,0c0-0.1,0.4-0.2,0.4-0.2v-0.4v0.1
			l0.1-0.1l0.2-0.1c0-0.1,0.2-0.1,0.2-0.3l0.1,0.1l-0.1-0.2h0.1v0.1h0.1c0,0,0-0.1,0,0v0.1l0.1,0.1v-0.1c0-0.1-0.1-0.2,0-0.3
			c0,0-0.5,0.2-0.6,0.2l-0.1-0.1c0,0-0.5,0.3-0.6,0.1h0.1l-0.3-0.1v0.1v-0.5c0.1-0.1,0.3,0,0.3-0.2c0,0,0.3,0,0.3,0.2
			c0.3-0.5,0.3-0.4,0.3-0.6c0,0,0.2-0.1-0.1,0l-0.1,0.1V241l0.1,0.1l0.1-0.2v0.1v-0.1v0.1v-0.3l0.1,0.2l0.1-0.4h0.3l-0.1,0.1h0.2
			l-0.1-0.1l-0.1-0.1c0.1,0,0,0,0-0.1c0-0.1-0.1-0.1-0.1-0.1s-0.3-0.1-0.3-0.3c0.1,0.2,0.1-0.2,0.1-0.2c0,0.1-0.1,0.1-0.2,0h-0.1
			c0-0.1,0-0.2,0.1-0.3h-0.1c0-0.1,0-0.2-0.1-0.3c0.2,0,0-0.3-0.1-0.3c-0.1-0.3,0.2-0.2,0.3-0.4h-0.1c0-0.2,0.3-0.4,0.5-0.4l0.2,0.2
			h0.1c-0.2,0-0.2-0.4-0.1-0.5c0.2,0,0.5-0.3,0.7-0.3l0.1,0.1c0.1,0.1,0.2,0.2,0.2,0.1v0.1c0-0.1,0.4-0.1,0.3,0.2c0,0,0.1,0,0.1,0.1
			l0.1-0.1c0.1,0,0.5,0,0.5,0.1l0.1-0.2c0-0.1,0.1-0.2,0.1-0.2v0.1h0.1v-0.1v0.1h0.3c0.1,0,0.3,0,0.3-0.1c0,0.3,0.2,0.2,0.2,0.4
			v-0.1v0.1v-0.1l0.1,0.1c0,0-0.1,0.1,0,0.2c-0.1,0.1,0,0.2,0,0.3v-0.1l-0.1,0.2c-0.1-0.1-0.2,0-0.3,0c0,0.2,0.2,0.3-0.1,0.4h0.1
			h-0.1c0,0,0.6,0.5,0.2,0.5c0,0,0.3,0.2,0.3,0l0.3-0.3v0.1c0.1,0,0.1-0.3,0.1-0.3h0.1c0.1-0.1,0.2-0.1,0.2,0.1
			c0.1-0.1,0.1-0.1,0-0.2v-0.2l0.2-0.1v0.3c0,0-0.1,0.2,0,0.3c0,0,0.4-0.2,0.2-0.3h0.3c0.1,0.1,0.2,0.2,0.1,0.4c0,0-0.1,0.2-0.2,0.3
			h0.1c0,0-0.1,0,0,0.2l0.1-0.1v0.2c0,0.2,0.2,0,0.2,0.3c0-0.1,0.1,0.3,0.1,0.4l0.1-0.1c0.1,0.2,0,0.3-0.1,0.4
			c0.1,0.1,0.1,0.1,0.1,0.3v0.1l0.2,0.1c0.1,0,0,0.1,0.1,0.2c0,0.2-0.1,0.2-0.1,0.2l-0.3,0.6l-0.3-0.2v0.1h0.1v0.3
			c0,0.1,0.2,0,0.2-0.2l0.1,0.1c0-0.2,0.1-0.1,0.2-0.2c0.1,0.1,0.3,0,0.2,0c0.1-0.2,0.2-0.1,0.4-0.1v0.1l0.1-0.1h0.1
			c0,0.2,0.1,0.2,0.2,0c0.2,0,0,0.5,0.1,0.6c0,0.1,0,0,0,0v0.2h0.2l-0.1,0.2l-0.2,0.2l0.1,0.2c-0.1,0,0,0.1-0.1,0.2
			c-0.2-0.5-0.2-0.3-0.1-0.2v0.1c0-0.1,0.1-0.1-0.1-0.1l-0.1,0.1c-0.2,0,0,0.2,0,0.3c0.1-0.2,0.2-0.1,0.3-0.1h0.2c0,0.1,0.1,0,0.2,0
			h0.1v0.1c0.1-0.1,0.3,0,0.3-0.4c0.1,0,0.1,0,0.2-0.1v0.1h0.1v0.1h0.1v0.2c0,0,0,0.1-0.1,0.2c0,0.1-0.1,0.2-0.2,0.2
			c0.1,0.1,0,0,0,0.1l0.2,0.1c0.1,0.1,0.2,0.2,0.3-0.1l0.3-0.2l0.1,0.2l0.1-0.1v0.1v-0.1h0.1l-0.1,0.4l-0.1-0.1l-0.1,0.1h-0.1v0.1
			l-0.1,0.1h0.1c0,0.2,0.2,0.2,0.3,0.3c0,0.3-0.1,0.3-0.3,0.4h0.1c0-0.2-0.1,0-0.1,0c-0.1,0.1-0.2,0.3-0.4,0.3v0.2V246v0.4
			c0,0-0.1-0.2-0.1,0.1l-0.1-0.3v0.2c0-0.1-0.1-0.1-0.2-0.1c0.1,0.1,0,0.1,0.1,0.3h-0.2v-0.2v0.1v-0.2l-0.2,0.2l-0.1-0.2v0.2
			l0.1,0.1v-0.1l0.1,0.1l0.1-0.1v0.1h0.1c0,0,0.1,0.1,0,0h0.1v0.1l0.2-0.1v0.2c0.1-0.1,0.1,0,0.3,0.1l0.1-0.1c0,0.2,0,0.3-0.2,0.3
			c0.1,0.1-0.2,0.2-0.2,0.2c-0.1,0-0.1-0.1-0.1,0.1h-0.2v0.1h-0.1v0.1v-0.1c0,0,0.1,0.1,0.1,0c0.2,0.1-0.3,0.3,0.3,0.1l0.1,0.1
			l0.1,0.1l-0.1,0.4h0.1h-0.1v0.3c0.2-0.1,0.1,0.2,0,0.2v0.2c0.5,0.1-0.3,0.7-0.2,0.5v-0.3h-0.2c-0.3,0,0-0.1-0.1-0.2h-0.1v0.1h-0.1
			c0.1,0,0.1,0,0.1,0.1c-0.1,0-0.2,0-0.1,0.1h-0.1h0.1h-0.1c-0.1,0,0.1,0.2,0.2,0.1l0.1,0.2v0.1c0.1-0.2,0.1,0,0.2,0.1v-0.1
			c0,0-0.1,0.3-0.2,0.2l0.1,0.1c-0.1,0-0.2,0.1-0.1,0.1c0.1-0.1,0.1,0.1,0.1,0.2h-0.6V250h-0.1v-0.1l-0.1,0.1h0.1l-0.3,0.2v0.1h-0.1
			v0.1c0,0,0-0.2-0.1,0h-0.1v0.1h0.1v0.2h-0.1l-0.2,0.3h0.1h-0.2c0,0,0.1-0.1,0.1,0v0.1c0.1,0.1,0.1,0.2,0.2,0.1v0.1
			c0.1,0,0-0.2,0.1-0.1c0,0,0.1,0.3,0.1,0.1v0.1c0,0,0.4,0,0.3,0.2v0.1l0.1-0.1c0.1,0,0.4,0,0.5-0.1c0,0.1,0.1,0.1,0.2,0v0.2
			l0.1-0.2c0,0.2,0.1-0.1,0.2-0.1h0.1v0.4l0.1-0.1v0.2l-0.1,0.1h0.1v0.2l0.2,0.2c0.1-0.1-0.1-0.1,0.1-0.1c0,0.1,0.1,0,0.1-0.1v0.1
			h0.3c0.1,0-0.1,0.1,0,0v-0.1h0.1v0.1c0,0.1,0.2,0,0.1,0.1v-0.1l0.3,0.5v-0.1v0.2c-0.2,0.3-0.1,0.3-0.3,0.3h-0.1h0.1h-0.1
			c-0.1,0-0.1,0.1-0.3,0c-0.1,0-0.2,0.1-0.2,0.2v0.2c0,0-0.2,0.2-0.2,0.1v0.1l-0.1,0.1c0,0,0.2,0.1,0.2,0l0.1-0.1
			c0.1-0.1,0.1-0.2,0.2,0.1c0,0,0.1-0.2,0.1,0c0-0.1,0.1-0.1,0.1,0h0.1v-0.1v0.1v-0.1l0.1,0.1l0.2-0.1v0.1c0.1-0.2,0.4-0.4,0.5-0.4
			c0,0.2,0.3,0.1,0.2,0h0.2v0.5c-0.2,0-0.4,0-0.5,0.2h-0.2v0.2l-0.1,0.1v0.2h0.1v0.2l0.2,0.2v0.1v-0.1h-0.5l-0.3,0.3h-0.1l-0.1,0.1
			v-0.1h-0.2c-0.1,0.1-0.3,0.2-0.4,0.3l-0.1-0.2l-0.1-0.1l-0.1,0.1l-0.1,0.2v0.1l-0.1,0.1c0.1-0.1,0.1,0,0.1,0l-0.1,0.1v-0.1
			l-0.1-0.1v0.1l-0.1,0.1l-0.1-0.1h0.1h-0.1c0-0.1,0,0,0.1-0.1l-0.1-0.1c0,0.3-0.1,0.2,0.1,0.4h-0.2h0.1v0.1c-0.1,0,0,0.1,0,0.2
			v-0.1l-0.1,0.2c0.2,0.1,0.2,0.1,0.1,0.1l-0.2-0.1l-0.4-0.3c0.1-0.2,0-0.1,0-0.2c0-0.1-0.1-0.1,0.1-0.2v-0.1l-0.1,0.1v-0.1
			c-0.1,0-0.3-0.1-0.3-0.2h0.1v-0.1h0.1v-0.1l0.1,0.1l0.1,0.1v0.1c0.1-0.1,0-0.2,0-0.3h-0.1v-0.1v0.1l-0.1,0.1l0.1,0.1h-0.1v-0.1
			c0,0-0.1-0.1-0.1,0v-0.2l0.2-0.1h-0.1l0.1-0.1v-0.2c0.1-0.2-0.2-0.2-0.1-0.2h-0.1v-0.2c0.1,0,0.1-0.1,0-0.1v0.1
			c-0.1-0.2,0-0.1,0-0.4h-0.1l0.1,0.1c-0.1,0-0.5-0.2-0.4-0.4v0.1c0.1-0.1,0-0.1,0-0.1v-0.1l-0.2,0.2l0.1,0.3l-0.1,0.2h-0.1
			c0,0-0.5,0.3-0.4,0.1h-0.3c0-0.1-0.3-0.1-0.3,0v0.1h0.1l0.1,0.1l-0.1,0.1c0,0,0.1,0.1,0.1,0.2c0.2,0,0.3,0.1,0.6,0.2V255l0.1,0.1
			v0.1h0.3c-0.1,0.1,0.2,0.1,0.2,0.1l-0.1,0.2c0.1-0.1,0.3,0.2,0.1,0.2c0-0.1-0.1-0.2-0.2-0.2v-0.2l-0.1,0.1c0-0.1,0,0-0.1,0.1v-0.1
			l-0.2-0.1h-0.2h0.1h-0.1c0-0.1-0.1-0.1-0.2-0.1h0.1v0.1c0-0.1,0-0.2-0.2-0.2h-0.1v0.1h-0.1v0.1l-0.2,0.2c-0.1-0.2-0.3-0.2-0.4-0.1
			v-0.1l-0.2-0.1h-0.1v-0.1v0.1v-0.1l-0.3-0.1h-0.2h0.1l-0.2-0.1v0.2l-0.1,0.1v-0.1h-0.2v0.1h-0.1v0.2h0.1v0.1h-0.1
			c0,0.1,0,0.1,0.1,0.1l0.1,0.1h-0.1h0.2c0.1,0.1-0.1,0.2,0.1,0.3l-0.2,0.2l-0.1-0.1h-0.1V256l-0.1,0.1l-0.1,0.1v9.8
			c0,2.3,1.9,4.2,4.2,4.2h8.5c8.8,0,11.9-4.1,13-8c0.4-1.6,0.6-3.2,0.6-4.3v0.2v-2.4c0-0.4-0.3-0.7-0.7-0.7h-7.8
			c-0.4,0-0.7,0.3-0.7,0.7v0.3c0,3.6-0.5,5.2-4.3,5.2c-4,0-4.3-2.5-4.3-6.5v-7.6c0-4,0.3-6.5,4.2-6.5h0.1c3.9,0,4.3,1.6,4.3,5.4v0.4
			c0.1,0.3,0.4,0.6,0.7,0.6h7.7c0.3,0,0.6-0.2,0.7-0.5v-2.1c0-1-0.1-3.1-0.5-4.7c-1-3.8-3.9-7.9-12.3-8.1h-2.4
			C-142,231.2-145.1,233.5-146.8,236.3"/>
	</defs>
	<clipPath id="SVGID_2_">
		<use xlink:href="#SVGID_1_"  style="overflow:visible;"/>
	</clipPath>
	<path class="st1" d="M-176,231.2h55.9V270H-176V231.2z"/>
</g>
<g>
	<path class="st0" d="M-120.2,269.6l0.3-0.3c0.3,0.2,0.5,0.3,0.8,0.3c0.3,0,0.5-0.1,0.5-0.3v0c0-0.2-0.1-0.3-0.6-0.4
		c-0.6-0.1-0.9-0.3-0.9-0.8v0c0-0.5,0.4-0.8,0.9-0.8c0.4,0,0.7,0.1,1,0.3l-0.3,0.4c-0.2-0.2-0.5-0.3-0.7-0.3c-0.3,0-0.4,0.1-0.4,0.3
		v0c0,0.2,0.1,0.3,0.6,0.4c0.6,0.1,0.9,0.3,0.9,0.8v0c0,0.5-0.4,0.8-1,0.8C-119.5,270-119.8,269.9-120.2,269.6z"/>
	<path class="st0" d="M-117.5,267.3h0.5l0.8,1.3l0.8-1.3h0.5v2.7h-0.5V268l-0.8,1.3h0l-0.8-1.2v1.9h-0.5V267.3z"/>
</g>
</svg>
