<?xml version="1.0" encoding="utf-8"?>
<!-- Generator: Adobe Illustrator 19.0.0, SVG Export Plug-In . SVG Version: 6.00 Build 0)  -->
<!DOCTYPE svg PUBLIC "-//W3C//DTD SVG 1.1//EN" "http://www.w3.org/Graphics/SVG/1.1/DTD/svg11.dtd">
<svg version="1.1" id="Layer_1" xmlns="http://www.w3.org/2000/svg" xmlns:xlink="http://www.w3.org/1999/xlink" x="0px" y="0px"
	 viewBox="-188 231.2 122.6 38.8" style="enable-background:new -188 231.2 122.6 38.8;" xml:space="preserve">
<style type="text/css">
	.st0{fill:#FFFFFF;}
	.st1{clip-path:url(#SVGID_2_);fill:#FFFFFF;}
</style>
<path class="st0" d="M-71.5,248.9c-0.1-0.9-0.3-0.9-0.6-0.9l-1.8,0.2l-0.1,0.2l0.4,0.4c0.2,0.2,0.3,0.3,0.4,0.7
	c0.5,2.2,0.9,4.9,1.1,7.4l0.4-0.1c0.5-0.1,0.6-0.2,0.9-0.7c1.4-1.8,2.9-4.2,4.3-6.8c0.1-0.2,0.3-0.3,0.4-0.5l0.6-0.4
	c0.1-0.1,0.1-0.2,0-0.2H-68l-0.1,0.2l0.2,0.3c0.2,0.2,0.1,0.5-0.2,0.9c-0.8,1.7-1.9,3.5-2.9,4.9C-71,252.6-71.2,250.6-71.5,248.9z
	 M-78.9,248c-2.6,0-4.8,2.8-4.9,5.4c-0.1,1.9,0.9,3.4,3.1,3.4c2.6,0,4.8-2.8,4.9-5.4C-75.6,249.6-76.7,248-78.9,248z M-80.7,255.8
	c-1.1,0-1.6-1-1.4-2.4c0.1-1.6,1.4-4.3,3.2-4.3c1.1,0,1.6,1,1.4,2.4C-77.6,253-78.8,255.8-80.7,255.8z M-86.9,250.8
	c-0.7,3-2.2,4.6-3.4,4.6c-1.2,0-1.8-1.5-1.1-3.5c0.5-1.5,1.9-2.9,3.5-2.9c0.5,0,1,0.1,1.4,0.2C-86.5,249.2-86.9,250.8-86.9,250.8z
	 M-87.8,248c-3.1-0.1-4.8,2.2-5.4,4.1c-0.8,2.8,0.6,4.7,2.2,4.7c1.1,0,2.1-0.5,3.1-1.9l-0.2,0.9c-0.4,1.8-1.2,3.3-3.2,3.3
	c-0.6,0-1.8-0.3-1.6-1.1H-93c-0.4,0.6-0.7,1.3-0.7,1.8c0.6,0.3,1.5,0.5,2.4,0.5c2.7,0,4.4-2.2,5-4.7l1.1-5c0.1-0.4,0.2-0.9,0.7-1.6
	l0.1-0.1C-85.5,248.4-86.6,248-87.8,248z M-97.7,255.7c0,0.6,0.5,1.1,1,1.1s1-0.5,1-1.1s-0.5-1.1-1-1.1S-97.7,255.1-97.7,255.7z
	 M-103.1,256.8c1.3,0,2.4-0.3,3.1-0.8c0.4-0.6,1.2-2.4,1.4-3.1h-0.3c-1,1.8-2.5,2.6-4,2.6c-2.8,0-3.9-2.1-3.2-5.1
	c0.6-2.5,2.6-4.7,5-4.7c2.1,0,2.8,1.2,2.4,2.5l0.1,0.1c0.6-0.5,1.3-1.6,1.6-2.5c-0.8-0.7-2.3-1.2-4.1-1.2c-3.2,0-6.3,2.5-7,6.2
	C-108.7,254.1-107,256.8-103.1,256.8z M-112.5,253.7l-5.2-8.8l-0.1-0.1h-2c-0.2,0-0.2,0.1-0.1,0.3c0.2,0.3,0.7,1.1,0.9,1.4l-2.1,9
	c0,0.2-0.2,0.4-0.4,0.6l-0.7,0.5v0.2h2.9c0.1,0,0.1-0.1,0.1-0.2l-0.5-0.5c-0.1-0.1-0.2-0.3-0.1-0.6l1.7-7.6l5.1,8.8h1
	c0.1-0.4,0.7-3.3,1.4-6.3l1-4.3c0.1-0.2,0.2-0.4,0.4-0.6l0.7-0.5c0.1-0.1,0.1-0.2,0-0.2h-2.9c-0.1,0-0.1,0.1-0.1,0.2l0.5,0.5
	c0.1,0.1,0.2,0.3,0.1,0.6C-110.9,246.1-112.5,253.7-112.5,253.7z M-162.7,257.5l0.1-0.1L-162.7,257.5 M-162.9,257.2v-0.1V257.2
	 M-162,257.1v0.4h0.1C-162,257.3-161.9,257.2-162,257.1 M-164.1,256.6c0.1,0.1-0.1,0.2,0,0.2V256.6 M-162.7,256.4l0.1,0.1v-0.1
	H-162.7 M-161.2,256.4v0.1h0.1l0.1-0.1H-161.2 M-162.1,256.2L-162.1,256.2L-162.1,256.2 M-162.3,256.2
	C-162.4,256.3-162.3,256.3-162.3,256.2L-162.3,256.2 M-161.4,256.2v-0.1V256.2 M-162,256l0.1,0.1C-161.8,256.1-161.8,256-162,256
	C-161.8,256.1-161.9,256-162,256C-161.9,256.1-161.9,256-162,256 M-162.5,256C-162.4,256-162.4,256-162.5,256 M-161.6,255.9
	l-0.1,0.1h0.1V255.9 M-159.8,255.8v0.1V255.8c0,0.1-0.1,0.2-0.1,0.2h0.1c0,0,0-0.1,0,0V255.8 M-162.4,255.9l0.1-0.1L-162.4,255.9z
	 M-162.3,255.6c0.1,0,0,0.1,0,0.1l0.1-0.1H-162.3 M-163.5,255.7L-163.5,255.7l-0.1-0.1c0,0.1-0.2,0.4-0.3,0.3
	C-163.9,256.2-163.5,255.7-163.5,255.7l0.1-0.1L-163.5,255.7 M-161.1,255.5l-0.1,0.1C-161.2,255.8-161.1,255.7-161.1,255.5
	L-161.1,255.5 M-160.6,255.5L-160.6,255.5l0.1-0.1L-160.6,255.5l0.1-0.1L-160.6,255.5 M-153.8,255.5L-153.8,255.5v0.2V255.5
	L-153.8,255.5c0,0.2,0,0.3,0.1,0.2h-0.1V255.5l0.1,0.2l0.1-0.1v0.1c0-0.1,0.1-0.3-0.1-0.3c0.1,0,0,0.1,0,0c0,0.1-0.1,0,0,0
	L-153.8,255.5 M-164.4,255.3C-164.5,255.2-164.4,255.4-164.4,255.3 M-160.2,255.2C-160.1,255.3-160.2,255.2-160.2,255.2v-0.1V255.2
	 M-159.9,255L-159.9,255h0.1H-159.9 M-156.5,255L-156.5,255c0.2,0.1,0.2,0.1,0.2,0h0.1v-0.1L-156.5,255 M-152,255L-152,255L-152,255
	L-152,255 M-158.2,255.2l0.2-0.1h-0.2V255V255.2 M-156.5,255.1v-0.2C-156.5,254.9-156.6,255.1-156.5,255.1 M-160.1,255.1v0.2
	c0-0.1,0.1-0.1,0.1-0.2l-0.1,0.1v-0.3V255.1v-0.2V255.1v-0.2V255.1 M-163.2,254.9v0.2V254.9 M-156.4,254.8v0.1V254.8l0.1,0.1
	L-156.4,254.8 M-154.1,254.8c0,0.1,0.1,0.3,0.1,0.3h0.2L-154.1,254.8L-154.1,254.8L-154.1,254.8 M-153.9,254.7
	C-154.1,254.8-153.9,254.7-153.9,254.7 M-163,254.7h-0.1c0,0.1-0.1,0.3-0.1,0.3l0.1-0.1C-163.1,254.8-163,254.8-163,254.7h0.3H-163
	 M-153.8,254.7l0.1,0.2v0.1L-153.8,254.7l0.1,0.1C-153.7,254.6-153.7,254.7-153.8,254.7l0.1-0.1L-153.8,254.7 M-154.2,254.6v0.3
	l0.1,0.1L-154.2,254.6 M-154,254.5L-154,254.5L-154,254.5C-153.9,254.5-153.9,254.6-154,254.5 M-157.7,254.5
	C-157.8,254.6-157.7,254.6-157.7,254.5L-157.7,254.5L-157.7,254.5L-157.7,254.5 M-156.5,254.8L-156.5,254.8l-0.1-0.2
	C-156.6,254.7-156.6,254.8-156.5,254.8 M-154.3,254.6l-0.1-0.2L-154.3,254.6 M-155.5,254.5L-155.5,254.5L-155.5,254.5 M-159.7,254.4
	l0.2,0.1v-0.2l-0.2-0.1V254.4 M-158.2,254.2v0.2V254.2 M-163.8,254.2v0.2v-0.1v0.1V254.2 M-159.4,254.2L-159.4,254.2
	C-159.3,254.4-159.4,254.3-159.4,254.2 M-164.4,254.2C-164.4,254.1-164.3,254.2-164.4,254.2 M-163.7,254.1
	C-163.7,254.1-163.9,254.2-163.7,254.1 M-165,254.1c0,0.1-0.2,0.1-0.1,0.1l0.1,0.1V254.1L-165,254.1L-165,254.1l0.1,0.1L-165,254.1
	 M-154.5,254l0.1,0.1v0.1c0.1,0-0.1,0,0,0.1h0.1c0,0.2,0,0.1,0.1,0.1l0.1,0.1v-0.2v0.1l-0.3-0.2L-154.5,254L-154.5,254
	 M-163.5,254.1V254C-163.7,254-163.6,254.1-163.5,254.1 M-158.1,254.1C-158.2,254.1-158.1,254.1-158.1,254.1
	C-158.2,254.1-158.5,254.2-158.1,254.1l0.1-0.1v-0.2L-158.1,254.1 M-162.4,254h0.1H-162.4 M-155,253.7v0.1V253.7L-155,253.7
	 M-162.8,253.8l-0.2,0.2h0.1l0.1,0.2h0.1l0.1-0.1C-162.7,254.2-162.7,253.9-162.8,253.8l0.1,0.1
	C-162.6,253.8-162.7,253.7-162.8,253.8 M-162.2,253.8v0.1V253.8l0.2-0.2h-0.3L-162.2,253.8 M-156,253.8l0.1,0.1v0.3v-0.1h0.1
	c0.1-0.1,0.2,0,0.2,0l0.1-0.1c-0.1,0,0,0,0,0L-156,253.8c0-0.2,0-0.3-0.1-0.3C-156.1,253.6-156.1,253.7-156,253.8 M-161,253.4
	c0,0.1,0,0.2-0.1,0.2c0,0.1,0.1,0.3,0.1,0.3h-0.1c0,0.1,0.1,0.1,0,0.2c-0.1,0.1,0.1,0.1,0.2,0.2c0,0.1,0.4,0.3,0.5,0.1v-0.2
	c0,0.1,0.1-0.1,0.1-0.1c0,0.1,0.1-0.1,0.1-0.1v-0.1l-0.1,0.1c-0.1-0.1,0.1-0.2,0-0.2v-0.1c0,0.1,0.2-0.1,0.2-0.1l-0.1-0.1l0.1,0.1
	h-0.2l-0.3,0.4c0-0.2-0.1-0.3-0.2-0.4h0.1l-0.1-0.1h0.1l-0.1-0.1H-161 M-160.7,253.3v0.2h0.1v0.1c0-0.1,0.1-0.1,0.1-0.2
	L-160.7,253.3 M-155.8,253.2l0.1,0.1l0.1-0.1c-0.1,0.2,0.1,0.2,0.2,0.2v0.2v-0.1v0.1l0.1-0.1c0,0.1,0.1,0.1,0.1-0.1h-0.1l0.1-0.2
	h-0.1l-0.1-0.1c-0.1,0.1-0.1,0.1-0.1,0l-0.1,0.1c-0.1,0-0.2,0-0.2-0.1V253.2 M-156.7,253.1l0.1,0.1
	C-156.6,253-156.7,253.1-156.7,253.1 M-152.4,253C-152.4,253-152.5,253.1-152.4,253 M-155.9,253.1c0,0-0.2,0.1-0.1,0.1L-155.9,253.1
	v0.2C-155.9,253.6-155.6,253.3-155.9,253.1 M-157.2,253c0,0.2,0.1,0.1,0.1,0.2l0.3-0.2c-0.1,0-0.2-0.1-0.3-0.1L-157.2,253
	 M-152.3,253.1L-152.3,253.1C-152.3,253-152.4,253.1-152.3,253.1 M-164.8,252.7C-164.7,252.7-164.7,252.7-164.8,252.7 M-164.6,252.7
	L-164.6,252.7L-164.6,252.7 M-161.1,252.6l-0.1,0.1L-161.1,252.6L-161.1,252.6 M-158.3,252.5L-158.3,252.5L-158.3,252.5
	 M-164.7,252.4l0.2,0.1l-0.1,0.1l0.1,0.1l0.1-0.1v-0.1l-0.2-0.2L-164.7,252.4 M-160.7,252.2h0.1H-160.7l0.2,0.1l-0.1-0.1H-160.7
	 M-161.4,252.2l0.1,0.1v-0.1H-161.4 M-161,252.3C-161.1,252.3-161.1,252.4-161,252.3v0.2l0.1,0.1h0.1l0.1-0.1c0,0-0.1,0.2,0,0v0.1
	h0.2c0-0.2-0.2-0.1-0.2-0.2c0.1-0.1-0.1-0.1-0.2-0.1H-161l0.2-0.1C-160.8,252.1-161.2,252.2-161,252.3 M-157.6,252.2v0.1V252.2z
	 M-157.7,252.2c0-0.1,0.1-0.2,0-0.1V252.2V252h-0.1C-157.8,252.2-157.7,252.2-157.7,252.2 M-160.4,252.1h-0.1H-160.4
	C-160.4,252-160.5,252-160.4,252.1 M-157.2,252c0,0-0.1,0.2-0.1,0.3L-157.2,252L-157.2,252 M-159.5,252c0,0.1-0.2,0.1-0.2,0.2
	l0.1,0.1v0.1l-0.2,0.2l0.3,0.1l0.1-0.1l0.1,0.1h0.2l0.1,0.1c0-0.1,0-0.3-0.1-0.3v0.1v-0.4v0.1c0,0-0.1-0.1,0-0.1h-0.3
	C-159.3,252.2-159.4,252-159.5,252C-159.6,252.1-159.4,252-159.5,252 M-158,252C-158.1,252.1-158,252-158,252 M-159.4,252l0.1,0.1
	C-159.2,252-159.3,252-159.4,252 M-160,251.9v0.1V251.9v0.3h0.1c0-0.1,0-0.1,0,0l-0.1-0.1C-159.9,252.1-160,252-160,251.9
	 M-161.4,251.9c-0.2,0.1,0,0.2,0,0.2V251.9 M-158.3,251.9c0,0.1,0,0.3,0.1,0.1v0.1L-158.3,251.9 M-158.1,251.8c0,0,0,0.3,0.1,0.2
	c0.1,0.1,0.1,0.2,0.2,0.2l-0.1-0.1l0.1-0.1v-0.1c0,0-0.1,0.1,0,0h-0.1c0.1,0,0,0,0,0S-157.9,251.8-158.1,251.8 M-160.3,251.7h0.1
	H-160.3 M-157.7,251.6L-157.7,251.6L-157.7,251.6 M-161.1,251.6C-161.1,251.7-161.1,251.6-161.1,251.6 M-157.1,251.7
	c0,0.1,0.2,0.3,0.2,0.4v0.1V252v0.1v-0.5C-157,251.8-157,251.7-157.1,251.7l0.1-0.2L-157.1,251.7 M-164,251.6h0.1H-164
	 M-158.3,251.6l0.2,0.1l0.1-0.1v-0.1h-0.1l-0.1-0.1L-158.3,251.6 M-156.8,251.5h0.3c0-0.1-0.1-0.1-0.2-0.1L-156.8,251.5
	 M-156.5,251.4l0.1,0.1L-156.5,251.4 M-157.9,251.4L-157.9,251.4L-157.9,251.4 M-157.1,251.3l0.1,0.1L-157.1,251.3 M-158.1,251.4
	v-0.1C-158.2,251.4-158.2,251.4-158.1,251.4 M-157.2,251.4l0.1-0.1L-157.2,251.4 M-157.6,251.2L-157.6,251.2
	c-0.1,0.2-0.2,0.2-0.2,0.3c0,0,0.2,0,0,0.1l0.2-0.1V251.2 M-160.6,251.2c0-0.1-0.1,0-0.1,0.1L-160.6,251.2c0.1,0.1,0.1,0.2,0.1,0
	H-160.6 M-157.5,251.1C-157.5,251.1-157.6,251.3-157.5,251.1 M-157.9,251.1l0.1,0.1L-157.9,251.1L-157.9,251.1 M-156.6,251.1
	c0.1,0.1,0.1,0,0.1,0.1v-0.1H-156.6 M-156.7,250.8L-156.7,250.8L-156.7,250.8L-156.7,250.8 M-158.1,250.7
	C-158.2,250.7-158.2,250.7-158.1,250.7C-158.3,250.9-158.1,250.7-158.1,250.7 M-158,250.8C-158,250.8-158.1,250.8-158,250.8
	 M-155.2,250.7v0.2V250.7 M-162.1,250.6C-162.1,250.5-162,250.5-162.1,250.6L-162.1,250.6 M-157.5,250.5l0.2,0.1v-0.1H-157.5v-0.1
	V250.5 M-161.7,250.5C-161.7,250.6-161.7,250.6-161.7,250.5l0.1-0.2L-161.7,250.5 M-155,250.4v0.2h-0.1v-0.1c0,0,0.2,0.1,0.2,0v-0.1
	c0.1-0.1,0-0.2-0.1-0.2V250.4 M-156,251.6C-156,251.7-156,251.6-156,251.6 M-155.9,251.2l0.1,0.1
	C-155.9,251.4-155.9,251.3-155.9,251.2v0.1V251.2C-155.8,251.2-155.8,251.2-155.9,251.2 M-156.9,250.4l-0.1-0.1l0.3,0.3
	c0-0.2,0.3,0.2,0.3,0.2l0.1-0.2h0.1v0.1l-0.1,0.1v0.1v-0.1v0.1c0-0.1,0.1,0.1,0.1,0.1h-0.1c0,0.1,0.2,0.2,0.1,0.3h-0.1l-0.1,0.1
	c-0.1,0.3-0.1,0.1-0.2,0.1v-0.1h-0.1v0.4c0,0,0.2,0,0.1-0.1l0.1-0.1c0,0.1,0.1,0.1,0.1,0l0.1,0.2v0.1l0.3,0.1c0,0,0.4-0.4,0.2-0.5
	v-0.1h-0.1c0,0-0.1,0.1-0.1,0c0.1,0,0.1-0.2,0.1-0.2v-0.1h-0.1c0.2,0-0.1-0.3-0.2-0.2c0,0,0-0.4-0.2-0.3l-0.2-0.1l-0.1-0.2
	c-0.1,0,0.1,0.2,0,0.2C-156.7,250.4-156.8,250.4-156.9,250.4l0,0.1h0.1h-0.1v0.1l-0.1-0.2C-157,250.5-157,250.4-156.9,250.4h-0.2
	C-156.8,250.2-156.9,250.3-156.9,250.4 M-157.8,250.3h0.1H-157.8 M-155.3,250.3L-155.3,250.3L-155.3,250.3 M-157.7,250.2v0.1
	C-157.6,250.2-157.7,250.2-157.7,250.2 M-155.6,250.2v0.2h0.1c0,0.1,0,0.2,0.1,0c0,0.1,0,0.1,0.1,0.1h-0.1c0.1,0,0.3-0.1,0.3-0.2
	c0-0.1-0.2,0-0.3,0v-0.1h-0.1c0-0.2-0.1-0.1-0.1-0.1V250.2l0.1-0.1L-155.6,250.2 M-162.5,250.2v-0.1V250.2 M-155.3,250L-155.3,250
	C-155.3,250.1-155.2,250-155.3,250 M-161.7,250L-161.7,250L-161.7,250 M-155.5,250C-155.5,250-155.4,250.1-155.5,250 M-160.6,250
	l0.1-0.1L-160.6,250 M-160.7,250.6C-160.6,250.7-160.7,250.6-160.7,250.6 M-160.5,250.2h-0.2c-0.1-0.2-0.1,0.2-0.1,0.2l-0.1,0.1
	h-0.1l0.1,0.1h-0.2v0.1h-0.1c0,0,0,0.3,0.1,0.1v0.1c-0.1-0.1-0.2,0.1-0.2,0.2v0.1l-0.2-0.1v0.1h-0.1v-0.1c-0.1,0-0.1,0.2-0.2,0.1
	v0.2h0.1v0.1h0.1v0.2l0.2,0.1h-0.1l0.2-0.3v-0.1c0,0.1,0.1,0,0.1-0.1l0.3-0.1c-0.1-0.1,0-0.1,0-0.3c0.2,0,0.1,0.1,0.1,0.1
	c0.1,0,0,0,0.1-0.1h0.1v-0.1h0.2c0.1-0.3-0.1-0.4,0.1-0.4c0-0.1,0-0.2,0.1-0.1v0.1c0.2,0,0-0.2,0-0.2h0.2l0.1-0.1
	c-0.1,0-0.1-0.1-0.1-0.2C-160.3,249.9-160.5,250.2-160.5,250.2 M-162,249.9c0,0,0.1,0.1,0,0.2V250v0.2c0.1,0.2,0.2,0,0.1-0.2
	C-161.9,250-161.9,249.8-162,249.9 M-160.4,249.8C-160.4,249.9-160.4,249.9-160.4,249.8L-160.4,249.8L-160.4,249.8 M-154.9,249.7
	l0.1,0.2v-0.1h0.1v-0.1H-154.9 M-162.2,249.6c-0.2,0.1,0.1,0.4,0.1,0.3l-0.1-0.1h0.1L-162.2,249.6 M-162.2,249.5
	C-162.2,249.6-162.1,249.5-162.2,249.5 M-160.5,249.3l-0.1,0.1L-160.5,249.3C-160.6,249.3-160.6,249.4-160.5,249.3l-0.1,0.2v0.1
	h-0.1c0,0.1-0.1,0.2-0.1,0.1c-0.1,0-0.3,0.2-0.2,0.3c0.2,0,0.2-0.1,0.3-0.3l-0.1,0.1l0.1-0.1l0.2-0.1l-0.1-0.1v-0.1l0.2-0.2
	C-160.4,249.3-160.5,249.3-160.5,249.3 M-160.9,249.3c0.1,0.1,0,0.1,0,0.2h0.2c0.2-0.1,0-0.2,0.1-0.3L-160.9,249.3 M-161.5,249.1
	l-0.1,0.1L-161.5,249.1L-161.5,249.1C-161.3,249.2-161.6,249.2-161.5,249.1h0.1H-161.5 M-158.8,249.1l-0.2,0.2h0.1
	C-158.8,249.3-158.8,249.2-158.8,249.1 M-160.3,249c0,0.1,0.1,0.1,0.1-0.1L-160.3,249 M-156.6,248.9L-156.6,248.9L-156.6,248.9
	 M-155.3,248.8l0.1-0.1l-0.1-0.1V248.8 M-155.7,248.7l0.1,0.1L-155.7,248.7 M-158.9,248.7l0.1,0.1L-158.9,248.7 M-158.1,248.7v0.1
	l-0.1,0.1v0.1h0.1v-0.1C-157.9,248.8-158,248.7-158.1,248.7 M-155.9,248.8v-0.2V248.8 M-158.9,248.7
	C-159,248.6-159,248.7-158.9,248.7 M-154.1,248.7C-154.1,248.7-154,248.7-154.1,248.7h0.2l-0.1,0.2l0.1,0.1c-0.1,0-0.1-0.1-0.2-0.1
	v0.1c0.1,0,0.1,0.1,0.2,0.1l0.3-0.1c0-0.1,0-0.1-0.1,0v-0.2l-0.1-0.1l-0.2-0.1L-154.1,248.7 M-154.4,248.6c0.1,0.1,0,0.2,0.1,0.2
	L-154.4,248.6 M-155.5,248.6c0,0,0,0.1,0.1,0.1L-155.5,248.6 M-154.1,248.5C-154.2,248.6-154.1,248.7-154.1,248.5 M-154.9,248.7
	C-154.9,248.8-155,248.7-154.9,248.7l-0.1,0.2v0.1h0.2L-154.9,248.7c0.1,0.2,0.2,0.2,0.2,0.3l0.1-0.1c-0.1,0,0.1,0.1,0.2,0.1h0.2
	v0.1c0-0.2-0.1-0.1-0.1-0.1v-0.1l-0.1,0.1l-0.1-0.2h-0.1c0-0.1,0-0.1,0.1-0.1h-0.1c-0.1,0-0.2,0-0.2-0.1L-154.9,248.7 M-158.7,248.6
	L-158.7,248.6L-158.7,248.6 M-156.9,248.5L-156.9,248.5L-156.9,248.5 M-157.1,248.5L-157.1,248.5L-157.1,248.5 M-155.1,248.5v0.3
	l0.1-0.1c0,0.1,0.1-0.1,0.1-0.1L-155.1,248.5 M-159.5,248.3v0.2h-0.2v-0.1l-0.1,0.2h-0.1c0,0.1,0.2,0.3,0.3,0.2
	c0.1,0.2,0.5-0.1,0.3-0.1v-0.1h-0.1c0.1,0,0-0.1,0-0.1L-159.5,248.3 M-155.9,248.3v0.1l0.1,0.1c0,0,0.2,0,0-0.1L-155.9,248.3
	 M-157.4,248.5L-157.4,248.5L-157.4,248.5h-0.2v0.1h-0.1v0.1h0.2l0.1-0.3C-157.4,248.4-157.5,248.3-157.4,248.5 M-156,248.4
	C-155.8,248.4-156,248.4-156,248.4 M-158.7,248.3v0.1V248.3 M-160.9,248.4c0.1,0.1,0.1,0,0.1-0.1L-160.9,248.4 M-155.9,248.3
	C-156,248.3-155.9,248.3-155.9,248.3 M-153.2,248.2L-153.2,248.2L-153.2,248.2C-153.2,248.3-153.1,248.1-153.2,248.2 M-156,248
	c0.1,0.1,0.2,0.3,0.3,0.1h-0.1L-156,248 M-157.6,248l0.1,0.1v-0.2L-157.6,248 M-157.8,248l0.1-0.1L-157.8,248 M-156.5,248l0.2,0.1
	v0.1h-0.1c-0.3-0.6,0,0,0,0.1h-0.1l0.1,0.1v-0.1l0.1-0.1v0.2l0.1-0.1l0.2,0.1h-0.1c0.1-0.2-0.2-0.2-0.2-0.2c0-0.2,0.1-0.4-0.1-0.4
	v-0.1l-0.2-0.1C-156.5,247.8-156.5,247.9-156.5,248 M-156.7,247.7l0.1-0.1L-156.7,247.7 M-156.6,247.6
	C-156.6,247.7-156.5,247.7-156.6,247.6 M-156.7,247.6v0.1V247.6 M-159,247.5L-159,247.5L-159,247.5 M-156.7,247.5
	C-156.6,247.4-156.6,247.4-156.7,247.5v-0.1C-156.7,247.4-156.8,247.5-156.7,247.5 M-157.9,247.5v0.3l0.1-0.1v0.1l0.2-0.1l0.2-0.1
	c0-0.2-0.1-0.2-0.1-0.2h-0.1c-0.1,0,0,0,0-0.1C-157.8,247.2-157.9,247.4-157.9,247.5 M-153.6,247.2L-153.6,247.2L-153.6,247.2
	L-153.6,247.2 M-160.4,247.1C-160.5,247.2-160.4,247.3-160.4,247.1 M-160.4,247v0.2C-160.3,247.2-160.2,247-160.4,247 M-158.8,247.1
	V247V247.1 M-157.4,247.1v0.1V247.1v0.2c0,0.1,0.1,0.1,0.2,0.1h0.1v-0.3l-0.1-0.1C-157.3,247-157.4,247.1-157.4,247.1 M-157.5,246.9
	C-157.5,246.9-157.5,247.1-157.5,246.9 M-160.7,247.1v0.1c0.1-0.1,0.1,0,0.1,0.1L-160.7,247.1c-0.1-0.1,0-0.1,0-0.2h-0.1
	C-160.7,246.9-160.7,247-160.7,247.1 M-157.3,246.9v-0.1V246.9 M-160.2,246.8l0.1,0.1h0.1C-160.1,246.7-160.1,246.8-160.2,246.8
	 M-162.9,246.8C-162.9,246.8-162.9,247-162.9,246.8l0.1-0.1L-162.9,246.8 M-162.8,246.9l0.1-0.2L-162.8,246.9 M-158.3,246.7
	L-158.3,246.7L-158.3,246.7l0.1,0.2l0.1-0.1c0,0,0.1,0.3,0.2,0.1c-0.1-0.1-0.1-0.2-0.2-0.1v-0.1H-158.3 M-160.5,246.5v0.3
	c0.1,0.1,0,0.2,0.1,0v0.1c0.2,0-0.1-0.3,0-0.3v0.1l0.1-0.1l-0.1,0.1c0-0.1,0.1-0.1,0.1-0.1C-160.5,246.5-160.5,246.7-160.5,246.5
	 M-155.9,246.5h0.1l-0.1-0.2V246.5 M-154.7,246.4v0.1V246.4 M-153.7,246.4v-0.2V246.4 M-160.4,246.3c0.1,0-0.1,0.2,0,0.2l0.1-0.1
	v0.1C-160.3,246.3-160.4,246.3-160.4,246.3 M-163.1,246l0.1-0.1C-163.1,245.9-163.1,245.9-163.1,246 M-154.8,246h-0.1H-154.8
	L-154.8,246L-154.8,246L-154.8,246l0.1,0.2h-0.2c0.1,0.1,0.2,0.2,0.3,0.2l0.1,0.1h0.2l0.1-0.1v-0.2h-0.5L-154.8,246
	c-0.1,0.1,0.1,0,0.1-0.1C-154.6,245.8-154.8,245.9-154.8,246 M-159.5,246l0.1,0.1L-159.5,246 M-159.7,245.8l-0.1,0.1h-0.2l0.1-0.1
	l-0.1,0.2h-0.1c0.1,0,0-0.1,0.1-0.1c0-0.1-0.1-0.1-0.1-0.1v0.3l-0.2,0.1v0.1h-0.1c0,0.2,0.1,0.2,0.2,0.2h0.1v-0.1h0.2v0.2
	c0.1,0.2,0,0.2-0.1,0.2v0.1l0.1,0.1l-0.2,0.2h0.2c0.1,0.1,0.1,0.1,0.3,0c0.1,0,0.4-0.3,0.4-0.1l0.1-0.1l0.2,0.1v-0.3
	c0.2,0.3,0.2-0.4,0.2-0.4c0-0.1-0.2-0.1-0.2-0.1h-0.2c0.1-0.1,0-0.1,0-0.2c0,0-0.3,0.1-0.2,0h0.1l-0.1-0.1c-0.1-0.1-0.1-0.1-0.2-0.3
	h0.1v-0.1L-159.7,245.8 M-159,245.6v0.2h0.1L-159,245.6z M-155.1,246.3C-155.4,246.2-155.1,246.2-155.1,246.3L-155.1,246.3
	 M-155.2,245.7h-0.3v0.2h-0.1v-0.1l-0.1-0.2h-0.1c0.1,0.1,0,0.2,0,0.3h0.1c0,0.1,0.1,0,0.2,0h-0.1c0,0.1,0.1,0,0.1,0.1h-0.1l0.1,0.1
	h-0.1l-0.1-0.1v-0.1l-0.1,0.1l0.2,0.2v-0.1v0.1h0.2c0,0.2,0.1,0,0.2,0c0,0.1,0.1,0.2,0,0.3h0.3c0.1,0.2,0.3,0,0.3,0v0.1v-0.1
	c-0.1,0.1-0.2-0.1-0.3-0.2l-0.1-0.1V246l-0.1,0.1V246l0.1,0.1v-0.2v0.1h-0.1v-0.2L-155.2,245.7l0.1,0.1c0-0.1,0.1-0.2,0-0.3
	L-155.2,245.7 M-160,245.7v-0.1V245.7 M-160,245.6l0.1,0.2L-160,245.6h0.2v0.1l0.1-0.1H-160 M-156,245.5c-0.1-0.1-0.1,0-0.1-0.1
	h-0.1l-0.2,0.2v0.1l0.1,0.1v-0.1v0.1l0.1-0.1l-0.1,0.1c0.1,0,0.1-0.1,0.1-0.2v-0.1C-155.9,245.7-155.9,245.6-156,245.5v-0.2
	C-156,245.4-155.9,245.5-156,245.5 M-159.5,245.4l0.1,0.1h0.1v-0.1l0.1,0.1v0.1h-0.1v0.1c0.1-0.2,0.3-0.1,0.3,0.1v-0.2
	c0,0.1,0,0,0,0v-0.1h-0.2v-0.1c0,0.1,0.1,0,0.1,0H-159.5 M-160.1,245.4l0.1-0.1L-160.1,245.4 M-153.4,245.4
	c-0.2,0.1,0.2,0.2,0.3,0.2L-153.4,245.4h0.2H-153.4c0.1,0.1-0.1-0.2,0-0.2h-0.2C-153.6,245.4-153.5,245.4-153.4,245.4 M-160.7,245.2
	C-160.7,245.4-160.6,245.2-160.7,245.2 M-160.5,245.3h-0.1v0.1c-0.1-0.1-0.2,0-0.2-0.1h-0.1v0.2l-0.1,0.1c-0.1,0.3,0.2,0.1,0.4,0.2
	v-0.1l0.1-0.2l0.1-0.1L-160.5,245.3l0.1,0.1L-160.5,245.3c0.1,0,0.2,0.1,0.2-0.1h-0.1c0,0-0.1,0-0.1-0.1V245.3 M-156.2,245.2h-0.1
	H-156.2 M-155.7,245.1c0,0.3,0.3,0.1,0.3,0.1h-0.1L-155.7,245.1 M-154.9,245.1l-0.2,0.2v0.2h-0.1c0.1,0,0,0,0,0l0.2,0.4
	c0-0.1,0-0.3,0.1-0.2v0.1c0.1,0,0.2-0.1,0.2-0.2v0.1l0.1-0.1v-0.5h-0.1c0,0.1,0.1,0.2,0.1,0.3c0,0-0.1-0.3-0.2-0.2L-154.9,245.1v0.1
	V245.1v0.1C-154.9,245.1-154.8,245.1-154.9,245.1C-154.8,245-154.9,245.1-154.9,245.1 M-155.1,245c0,0,0.1,0.1,0.1-0.1L-155.1,245
	 M-158.3,244.8c-0.1,0.2-0.1,0.2,0,0.2c0,0-0.1,0.1,0,0.2C-158.3,245-158.2,244.9-158.3,244.8 M-159.1,244.8l-0.1,0.1L-159.1,244.8
	c-0.2,0-0.1,0.2-0.1,0.1l-0.1,0.1h0.4v0.1v-0.2C-158.8,244.9-159,244.9-159.1,244.8C-158.9,244.8-159.1,244.8-159.1,244.8
	 M-152.8,244.8C-152.8,245-152.7,244.8-152.8,244.8L-152.8,244.8L-152.8,244.8 M-159.2,244.5L-159.2,244.5L-159.2,244.5
	 M-158.8,244.4l0.1,0.1h-0.1c-0.1,0.1,0.1,0.1,0.1,0v0.1c0.1,0,0.1,0,0.1-0.1h-0.1L-158.8,244.4h0.1H-158.8h0.1H-158.8l0.1-0.1h-0.1
	V244.4 M-157.2,244.4c0.1-0.1-0.2-0.1-0.2,0l-0.1-0.1v0.1l-0.1-0.1v0.1c0,0,0.2,0.3,0.3,0.2c0-0.2,0.3-0.1,0.3-0.1l0.1,0.1l0.1,0.1
	v0.1l-0.2-0.1l-0.1,0.1l0.2,0.2c0,0.1,0.1,0.1,0,0.1v0.1h-0.1c0,0.1,0.1,0.1,0.1-0.1c0.1,0,0.1-0.3,0.2-0.4v0.1c0,0.1,0,0.1-0.1,0.2
	l0.1-0.1h0.1v-0.1h-0.1c0.1,0-0.3-0.4-0.2-0.5l-0.1,0.1v-0.2L-157.2,244.4 M-159,244.3L-159,244.3l0.1,0.2h0.1h-0.1
	C-158.8,244.4-159,244.2-159,244.3 M-157.8,244.5h-0.2v-0.2c0,0,0-0.1-0.1,0l-0.2,0.2v0.1v-0.1c0,0.1,0.1,0.2,0.2,0
	c0,0.1,0,0.2,0.1,0.1c-0.1,0.1,0.1,0.2,0.1,0.2v0.1v-0.1l0.2,0.1C-157.7,244.8-157.8,244.5-157.8,244.5h0.1H-157.8
	c0.1,0,0-0.1,0.1-0.2l-0.1-0.1V244.5 M-159.6,244.1L-159.6,244.1c-0.1,0.1,0,0.1,0.1,0.2v0.1c0.1-0.1,0.1-0.1,0.1-0.2
	c0-0.1-0.1-0.1-0.1-0.1H-159.6 M-158.9,243.9v0.1V243.9 M-159.7,243.7h0.1H-159.7 M-157.6,243.7l-0.1,0.1h0.1
	C-157.7,243.7-157.5,243.7-157.6,243.7L-157.6,243.7 M-157.8,243.6L-157.8,243.6l-0.2,0.1v0.2c0.1,0,0.2,0.2,0.2,0V243.6l0.1,0.2
	v-0.1L-157.8,243.6 M-156.5,242.9h0.2c0-0.1-0.1,0-0.1,0H-156.5L-156.5,242.9L-156.5,242.9 M-158.8,242.9h0.1c0.1,0,0.1-0.2,0.1-0.2
	h-0.1C-158.8,242.7-158.8,242.8-158.8,242.9 M-156.7,242.8v0.2V242.8L-156.7,242.8L-156.7,242.8c0,0,0.1-0.1,0-0.1V242.8
	 M-158.9,242.6C-158.8,242.6-158.8,242.7-158.9,242.6 M-157.6,242.5C-157.7,242.6-157.6,242.5-157.6,242.5 M-158.8,242.6
	L-158.8,242.6v-0.1C-158.8,242.4-158.9,242.6-158.8,242.6 M-158,242.4v0.1V242.4v0.1c0-0.1-0.1,0.1-0.2,0.2h0.1h-0.1h0.1v-0.1v0.1
	h0.1h-0.1h0.1v-0.1l0.2-0.1v-0.1H-158 M-157.5,242.3c0-0.1-0.1,0-0.1,0.1L-157.5,242.3c0.1,0.1,0,0.3,0.1,0.2c0,0.1,0.1,0.2,0.1,0.1
	c0.1,0,0.1,0,0.2-0.1v0.1h0.1l0.1-0.1h-0.2c0,0,0-0.1-0.1-0.2l0.1,0.1h-0.2v-0.1v0.1L-157.5,242.3
	C-157.5,242.4-157.5,242.4-157.5,242.3 M-155.9,242.2C-155.9,242.3-155.9,242.2-155.9,242.2 M-157.6,242.2v-0.1V242.2 M-159.7,242
	l-0.1,0.2L-159.7,242v0.2V242 M-155.8,242C-155.5,242.1-155.7,242-155.8,242v-0.1V242 M-158.4,241.9l-0.1,0.1L-158.4,241.9
	L-158.4,241.9l-0.2,0.2l0.1-0.1L-158.4,241.9v0.1l0.2-0.1C-158.2,241.9-158.4,242-158.4,241.9 M-158.3,241.8l0.1,0.1v0.1l0.1-0.1
	c-0.1,0,0,0-0.1,0.1C-158.2,241.8-158.1,241.8-158.3,241.8 M-156.2,241.8L-156.2,241.8L-156.2,241.8 M-158.1,241.7v0.1V241.7
	 M-157.8,241.7c0,0.1,0.1,0,0.2,0H-157.8 M-158.7,240.2c-0.3,0.2-0.1,0.3-0.1,0.2v-0.1L-158.7,240.2v0.1V240.2 M-156,240.2v0.2
	c0-0.1,0.1-0.2,0.1-0.3L-156,240.2 M-159.4,240l-0.1,0.1c0,0.1,0.1,0.1,0.1,0.1V240 M-159,240v-0.1V240 M-159.7,239.9L-159.7,239.9
	L-159.7,239.9 M-158.8,239.7v0.2c0,0.1,0.1,0,0.1,0L-158.8,239.7h0.1c-0.1,0.1,0.1,0,0.1,0C-158.7,239.7-158.7,239.6-158.8,239.7
	 M-160.2,239.9L-160.2,239.9L-160.2,239.9 M-159.5,239.7c0.1,0.1,0,0.1,0,0.1v0.1h0.1l-0.1,0.1c0.3-0.1,0-0.1,0.1-0.2l-0.1,0.1
	V239.7 M-160.8,239.6C-160.7,239.6-160.8,239.6-160.8,239.6 M-157.6,239.5c-0.1,0.1,0,0.1-0.1,0.1c0,0,0.1,0.2,0.1,0.1l-0.1-0.1
	L-157.6,239.5 M-158.8,239.4v0.1V239.4v0.2C-158.9,239.5-158.8,239.4-158.8,239.4l-0.1,0.2l0.1-0.1V239.4 M-160.6,239.4
	L-160.6,239.4l-0.1,0.2c0,0-0.1,0.1,0,0.1v0.1v-0.1l0.1,0.2c0.1-0.2,0,0.2,0.1,0.2l0.1-0.1v0.1V240h-0.1l0.1-0.1v-0.1v0.1l-0.1-0.1
	c-0.1-0.1,0.1-0.1,0.1-0.2L-160.6,239.4 M-159.7,239.3C-159.6,239.3-159.7,239.4-159.7,239.3 M-160.8,239
	C-161,239-160.7,239.1-160.8,239 M-157.8,239C-157.8,239.1-157.7,239.2-157.8,239C-157.8,239-157.8,239.1-157.8,239 M-159.7,238.7
	l0.1,0.2l0.1-0.1c0.1,0.1,0.2,0,0.2,0.2h-0.1v0.1h-0.1c0.1,0.1,0.1,0.2,0,0.2v0.1l0.3-0.1l-0.2-0.1c0.1,0,0.1-0.2,0-0.3l-0.1-0.1
	v-0.1v0.1v-0.1H-159.7 M-159.5,238.6C-159.5,238.5-159.7,238.6-159.5,238.6 M-159.7,238.4v0.1V238.4 M-159.3,238.2
	C-159.3,238.4-159.2,238.2-159.3,238.2 M-154.3,256.6L-154.3,256.6L-154.3,256.6 M-152.2,253.6
	C-152.2,253.5-152.2,253.5-152.2,253.6 M-158.8,236.3v-3.5c0-0.4-0.3-0.7-0.7-0.7h-8.2c-0.4,0-0.7,0.3-0.7,0.7v18.4
	c0,0.5-0.4,0.6-0.6,0.2l-7.2-17.4l-0.3-0.7c-0.5-1.1-0.5-1.2-1.9-1.2h-8.9c-0.4,0-0.7,0.3-0.7,0.7v36.4c0,0.4,0.3,0.7,0.7,0.7h7.8
	c0.4,0,0.7-0.3,0.7-0.7v-18.4c0-0.5,0.4-0.6,0.6-0.2l7.2,17.4l0.3,0.7c0.2,0.7,0.9,1.2,1.6,1.2h5.5c2.3,0,4.2-1.9,4.2-4.2v-9.5
	c-0.1,0-0.2-0.1-0.3-0.1l-0.1-0.1l0.1,0.2h-0.2v-0.1v0.1l0.1-0.1h-0.2c0,0.2,0,0.3,0.1,0.2h0.1l0.1,0.1h-0.1l0.1,0.1
	c0,0-0.2,0-0.2-0.1v0.2v-0.1l-0.1,0.1l-0.1,0.1c-0.1,0.2,0,0.2,0,0.2h-0.3c-0.2,0-0.3,0.1-0.5,0.1l0.1-0.1l-0.1,0.1l-0.2-0.1h0.1
	c-0.1-0.1,0-0.3-0.2-0.3v0.2l-0.1-0.2l-0.1,0.1l-0.2,0.5v-0.1l0.1,0.1h-0.1l0.1,0.1l-0.1,0.4v-0.1c-0.2,0-0.2,0-0.2,0.2h-0.1v-0.1
	l-0.1,0.2h-0.1c0-0.1,0.1-0.3,0.1-0.4h-0.1l-0.2,0.2v-0.1l-0.1,0.3l-0.2,0.1v-0.1h-0.1c0,0.3,0.2,0.2,0,0.2l-0.1,0.1
	c-0.1,0.1-0.1,0.3-0.2,0.1c-0.1-0.2,0-0.3,0-0.3c0.1,0,0.1-0.3,0.2-0.4l-0.1,0.1v0.1v-0.1h-0.1c0,0-0.1-0.2-0.2-0.2
	c0-0.2-0.2-0.2-0.2-0.3l0.1-0.1l-0.1-0.2c0,0,0.1-0.1,0.2,0.1v-0.1c0.1-0.1,0.1-0.5,0.3-0.4c-0.2-0.2,0-0.4,0.1-0.5
	c0-0.1,0-0.5,0.2-0.3v-0.1h0.1v-0.1h0.1l-0.1-0.1l0.1-0.1h0.1h-0.3v-0.1v0.1v-0.2l0.3,0.1c0.1-0.1,0-0.2,0-0.2c0-0.1,0-0.2,0.1-0.3
	v0.1v-0.2v0.1l-0.1,0.1l-0.2,0.2v-0.1l-0.1,0.2h-0.1l-0.3,0.3v-0.1c-0.1,0.1-0.2,0.5-0.2,0.3l0.1,0.1c-0.1,0-0.2,0.1-0.1,0.2
	c-0.1-0.1,0,0.3-0.2,0.3c-0.1,0-0.1,0.2-0.2,0.3l-0.1-0.3h-0.1v0.1h-0.1c0,0.2-0.1,0.1-0.1,0.1h0.2v0.1l0.1-0.1v0.1h-0.1v0.1v-0.1
	v0.1h-0.2v-0.2h-0.1c0.1,0.1-0.1,0-0.1-0.1l-0.1-0.1l0.1-0.1h0.1v-0.2l0.1-0.2h0.1l0.1-0.1l-0.2,0.5l0.1-0.1l-0.1-0.3l-0.2,0.2
	c-0.2,0.2-0.4,0.3-0.3,0h0.1c0-0.1-0.2-0.4-0.1-0.4c-0.4-0.3,0-0.3,0.1-0.3c0,0,0.1-0.3,0.2-0.1c0.1-0.2,0.3-0.1,0.4,0h-0.1l0.1,0.2
	v-0.1l0.2-0.1h-0.1c0-0.1,0.1-0.1,0.1,0h0.1h-0.1c0,0,0.4-0.2,0.4-0.3l-0.1,0.1c0-0.1,0.1-0.1,0.1-0.1v-0.1h0.1v0.1
	c0.2-0.2,0.4,0,0.4-0.3h0.1v0.2l0.1-0.2c0.1,0.1,0.2-0.1,0.2-0.2c-0.2,0.1-0.5-0.1-0.6-0.1v-0.1h-0.2c0.1,0.1,0,0.1,0,0.2l0.1,0.1
	h-0.1l-0.2,0.1v-0.1h-0.1c0-0.1,0,0,0,0v-0.1c0,0-0.1,0,0,0.1h-0.1l0.2,0.1c0.1,0.1,0,0.3-0.1,0.1v-0.1l-0.1,0.1l0.1,0.2h-0.1
	l0.1-0.1l-0.1,0.1v0.2h-0.2c-0.1,0,0-0.3,0.1-0.3c0,0-0.1-0.3-0.1-0.1h0.1h-0.1v0.2v-0.1c0,0-0.2,0.1-0.1,0.1h-0.1v-0.2v0.1h-0.2
	c0,0.1-0.1,0-0.1,0.1v0.1l0.1,0.1c-0.1,0.1-0.1,0.2-0.2,0.3h-0.2l0.1-0.1h-0.4v-0.1v0.2v-0.1h0.1c0,0.1-0.2,0.2-0.2,0.2
	c0.1,0,0.1,0.1,0,0.2h-0.2v-0.3l0.1,0.1l-0.1-0.2h-0.1c0,0,0-0.2-0.1-0.1c0-0.1,0.1-0.1,0.1-0.1h0.1l-0.1-0.1h0.1
	c-0.1,0.1,0.1,0,0.1,0h-0.1c0.1-0.1,0-0.1,0-0.2c0,0.1,0.1,0.1,0.2,0.1v0.1v-0.1c0.1,0,0.2,0,0.2-0.1h0.1l-0.1-0.1l0.1-0.1h0.1h-0.1
	v-0.2v0.1c0,0.1-0.1,0.1-0.1,0.1h-0.1l0.1-0.1l-0.1,0.1h0.1v0.1c-0.1-0.1-0.2,0-0.2,0.1h-0.1c0-0.1-0.2-0.2,0-0.2
	c0-0.1-0.3-0.3-0.2-0.4c0-0.1-0.1-0.4-0.2-0.6h0.1c0-0.1,0.4-0.6,0.4-0.8h0.1c0,0,0-0.4,0.2-0.2h-0.1h0.1v-0.3l-0.1,0.1
	c0-0.1-0.2-0.2-0.2-0.4c0.2,0,0.3,0,0.4-0.1c0-0.2-0.1-0.1-0.1-0.2h0.1v-0.1c0.2,0.1,0.1,0,0.3,0.2c0.1,0.1,0.1,0,0.1-0.1h0.1v-0.4
	c0.2-0.1,0.2-0.3,0.2-0.5c-0.1-0.2,0.1-0.2,0.1-0.3c0,0,0.2,0.1,0.1-0.1v-0.1c-0.2,0.2,0.1-0.1,0-0.2h0.1c0,0,0.1,0.2,0.2,0.1
	c-0.1-0.1,0-0.1,0-0.2h0.1c-0.1,0.1,0.3,0.3,0.4,0.3v0.1h-0.2l0.1,0.1c0-0.1,0-0.1,0.1-0.1v-0.1h-0.1V250l0.1,0.1h0.1V250h0.1v0.1
	c0,0,0.1,0,0.1-0.1h-0.1c0.1,0,0.2,0.1,0.1-0.1h0.1c-0.1-0.1,0.1-0.1,0.2-0.1c0-0.1-0.2-0.2-0.2-0.1l0.1-0.1c0-0.1-0.1,0.1-0.1,0.1
	v-0.1h-0.1v0.2v-0.1v0.1h-0.2l-0.1,0.2c0,0.1-0.1-0.2-0.1-0.4c-0.1-0.2-0.1-0.5,0-0.3c0-0.1,0-0.2-0.1-0.2s-0.1,0-0.1-0.2h0.3h-0.1
	l0.3-0.3h0.1c0-0.2,0.3-0.1,0.3,0c0.1-0.1,0.5-0.1,0.6-0.1c0-0.1,0.1-0.3,0.1-0.2h0.1V248l0.3-0.2h-0.1h0.3l0.1-0.1h0.1v-0.1
	c0-0.1-0.2-0.1-0.3-0.1h0.1c0-0.2-0.3-0.3-0.2-0.2v-0.1v0.2c-0.1-0.1,0,0-0.1,0.1c-0.1,0-0.2-0.3-0.2-0.4c0.1,0,0.2-0.2,0.1-0.2
	v-0.1c0,0,0.3-0.4,0.4-0.6l0.1-0.1l0.1-0.1c-0.1-0.1,0,0-0.1-0.2h-0.1l0.1-0.1h-0.1c-0.1,0-0.2-0.1-0.3,0.1l0.1,0.1h-0.2v-0.1
	l-0.1,0.1v0.2c0-0.1-0.2,0-0.2,0.1s-0.3,0.1-0.3,0h0.2c-0.1,0,0.1-0.3,0-0.3v-0.1l-0.2,0.1c0.2,0,0,0.2-0.1,0.3h-0.2v0.2h-0.2
	c0,0,0-0.2-0.1-0.1v0.1c0-0.2-0.4,0.2-0.2,0.2c0.1,0.1-0.2,0.1-0.2,0.1v0.1l0.1-0.1v0.1v-0.1v0.1h-0.1l-0.1,0.1v0.2h-0.2
	c0.1,0,0.1-0.2,0.1-0.2h-0.1c0,0.3-0.2,0.2-0.2,0.1l-0.1,0.1h0.1l-0.1-0.1v0.2c0-0.1,0-0.2,0.1-0.2l-0.3,0.1l0.1,0.1h-0.2l-0.2-0.2
	l-0.1,0.1c-0.1-0.1,0.1-0.5,0.1-0.7v0.1c0-0.2,0-0.4,0.1-0.4l0.1-0.2c0.2,0,0.2,0.1,0.3,0.2c-0.1-0.1,0,0,0,0h0.2c0,0,0-0.1-0.1-0.1
	h-0.2l-0.1-0.1l0.1-0.1v-0.5c-0.1,0,0,0.1,0,0.1c-0.2-0.3-0.1-0.3,0-0.5h0.3v-0.4l0.1-0.1c0.1,0,0.1,0.1,0.1,0.2l0.2-0.1
	c0.1-0.1,0.2-0.1,0.2,0.1l0.1-0.2v0.1c0,0,0.1-0.2,0-0.2v0.1c0-0.2-0.2-0.3-0.1-0.5l0.2-0.3c0.1-0.1,0.2-0.1,0.4-0.3h-0.1h0.3
	l0.1-0.1c0,0.1,0.1,0.2,0.1,0.2v-0.1c0.1,0.1,0.1,0,0.1,0c0-0.1,0.4-0.2,0.4-0.2v-0.4v0.1l0.1-0.1l0.2-0.1c0-0.1,0.2-0.1,0.2-0.3
	l0.1,0.1l-0.1-0.2h0.1v0.1h0.1c0,0,0-0.1,0,0v0.1l0.1,0.1v-0.1c0-0.1-0.1-0.2,0-0.3c0,0-0.5,0.2-0.6,0.2l-0.1-0.1
	c0,0-0.5,0.3-0.6,0.1h0.1l-0.3-0.1v0.1v-0.5c0.1-0.1,0.3,0,0.3-0.2c0,0,0.3,0,0.3,0.2c0.3-0.5,0.3-0.4,0.3-0.6c0,0,0.2-0.1-0.1,0
	l-0.1,0.1V241l0.1,0.1l0.1-0.2v0.1v-0.1v0.1v-0.3l0.1,0.2l0.1-0.4h0.3l-0.1,0.1h0.2l-0.1-0.1l-0.1-0.1c0.1,0,0,0,0-0.1
	c0-0.1-0.1-0.1-0.1-0.1s-0.3-0.1-0.3-0.3c0.1,0.2,0.1-0.2,0.1-0.2c0,0.1-0.1,0.1-0.2,0h-0.1c0-0.1,0-0.2,0.1-0.3h-0.1
	c0-0.1,0-0.2-0.1-0.3c0.2,0,0-0.3-0.1-0.3c-0.1-0.3,0.2-0.2,0.3-0.4h-0.1c0-0.2,0.3-0.4,0.5-0.4l0.2,0.2h0.1c-0.2,0-0.2-0.4-0.1-0.5
	c0.2,0,0.5-0.3,0.7-0.3l0.1,0.1c0.1,0.1,0.2,0.2,0.2,0.1v0.1c0-0.1,0.4-0.1,0.3,0.2c0,0,0.1,0,0.1,0.1l0.1-0.1c0.1,0,0.5,0,0.5,0.1
	l0.1-0.2c0-0.1,0.1-0.2,0.1-0.2v0.1h0.1v-0.1v0.1h0.3c0.1,0,0.3,0,0.3-0.1c0,0.3,0.2,0.2,0.2,0.4v-0.1v0.1v-0.1l0.1,0.1
	c0,0-0.1,0.1,0,0.2c-0.1,0.1,0,0.2,0,0.3v-0.1l-0.1,0.2c-0.1-0.1-0.2,0-0.3,0c0,0.2,0.2,0.3-0.1,0.4h0.1h-0.1c0,0,0.6,0.5,0.2,0.5
	c0,0,0.3,0.2,0.3,0l0.3-0.3v0.1c0.1,0,0.1-0.3,0.1-0.3h0.1c0.1-0.1,0.2-0.1,0.2,0.1c0.1-0.1,0.1-0.1,0-0.2v-0.2l0.2-0.1v0.3
	c0,0-0.1,0.2,0,0.3c0,0,0.4-0.2,0.2-0.3h0.3c0.1,0.1,0.2,0.2,0.1,0.4c0,0-0.1,0.2-0.2,0.3h0.1c0,0-0.1,0,0,0.2l0.1-0.1v0.2
	c0,0.2,0.2,0,0.2,0.3c0-0.1,0.1,0.3,0.1,0.4l0.1-0.1c0.1,0.2,0,0.3-0.1,0.4c0.1,0.1,0.1,0.1,0.1,0.3v0.1l0.2,0.1
	c0.1,0,0,0.1,0.1,0.2c0,0.2-0.1,0.2-0.1,0.2l-0.3,0.6l-0.3-0.2v0.1h0.1v0.3c0,0.1,0.2,0,0.2-0.2l0.1,0.1c0-0.2,0.1-0.1,0.2-0.2
	c0.1,0.1,0.3,0,0.2,0c0.1-0.2,0.2-0.1,0.4-0.1v0.1l0.1-0.1h0.1c0,0.2,0.1,0.2,0.2,0c0.2,0,0,0.5,0.1,0.6c0,0.1,0,0,0,0v0.2h0.2
	l-0.1,0.2l-0.2,0.2l0.1,0.2c-0.1,0,0,0.1-0.1,0.2c-0.2-0.5-0.2-0.3-0.1-0.2v0.1c0-0.1,0.1-0.1-0.1-0.1l-0.1,0.1c-0.2,0,0,0.2,0,0.3
	c0.1-0.2,0.2-0.1,0.3-0.1h0.2c0,0.1,0.1,0,0.2,0h0.1v0.1c0.1-0.1,0.3,0,0.3-0.4c0.1,0,0.1,0,0.2-0.1v0.1h0.1v0.1h0.1v0.2
	c0,0,0,0.1-0.1,0.2c0,0.1-0.1,0.2-0.2,0.2c0.1,0.1,0,0,0,0.1l0.2,0.1c0.1,0.1,0.2,0.2,0.3-0.1l0.3-0.2l0.1,0.2l0.1-0.1v0.1v-0.1h0.1
	l-0.1,0.4l-0.1-0.1l-0.1,0.1h-0.1v0.1l-0.1,0.1h0.1c0,0.2,0.2,0.2,0.3,0.3c0,0.3-0.1,0.3-0.3,0.4h0.1c0-0.2-0.1,0-0.1,0
	c-0.1,0.1-0.2,0.3-0.4,0.3v0.2V246v0.4c0,0-0.1-0.2-0.1,0.1l-0.1-0.3v0.2c0-0.1-0.1-0.1-0.2-0.1c0.1,0.1,0,0.1,0.1,0.3h-0.2v-0.2
	v0.1v-0.2l-0.2,0.2l-0.1-0.2v0.2l0.1,0.1v-0.1l0.1,0.1l0.1-0.1v0.1h0.1c0,0,0.1,0.1,0,0h0.1v0.1l0.2-0.1v0.2c0.1-0.1,0.1,0,0.3,0.1
	l0.1-0.1c0,0.2,0,0.3-0.2,0.3c0.1,0.1-0.2,0.2-0.2,0.2c-0.1,0-0.1-0.1-0.1,0.1h-0.2v0.1h-0.1v0.1v-0.1c0,0,0.1,0.1,0.1,0
	c0.2,0.1-0.3,0.3,0.3,0.1l0.1,0.1l0.1,0.1l-0.1,0.4h0.1h-0.1v0.3c0.2-0.1,0.1,0.2,0,0.2v0.2c0.5,0.1-0.3,0.7-0.2,0.5v-0.3h-0.2
	c-0.3,0,0-0.1-0.1-0.2h-0.1v0.1h-0.1c0.1,0,0.1,0,0.1,0.1c-0.1,0-0.2,0-0.1,0.1h-0.1h0.1h-0.1c-0.1,0,0.1,0.2,0.2,0.1l0.1,0.2v0.1
	c0.1-0.2,0.1,0,0.2,0.1v-0.1c0,0-0.1,0.3-0.2,0.2l0.1,0.1c-0.1,0-0.2,0.1-0.1,0.1c0.1-0.1,0.1,0.1,0.1,0.2h-0.6V250h-0.1v-0.1
	l-0.1,0.1h0.1l-0.3,0.2v0.1h-0.1v0.1c0,0,0-0.2-0.1,0h-0.1v0.1h0.1v0.2h-0.1l-0.2,0.3h0.1h-0.2c0,0,0.1-0.1,0.1,0v0.1
	c0.1,0.1,0.1,0.2,0.2,0.1v0.1c0.1,0,0-0.2,0.1-0.1c0,0,0.1,0.3,0.1,0.1v0.1c0,0,0.4,0,0.3,0.2v0.1l0.1-0.1c0.1,0,0.4,0,0.5-0.1
	c0,0.1,0.1,0.1,0.2,0v0.2l0.1-0.2c0,0.2,0.1-0.1,0.2-0.1h0.1v0.4l0.1-0.1v0.2l-0.1,0.1h0.1v0.2l0.2,0.2c0.1-0.1-0.1-0.1,0.1-0.1
	c0,0.1,0.1,0,0.1-0.1v0.1h0.3c0.1,0-0.1,0.1,0,0v-0.1h0.1v0.1c0,0.1,0.2,0,0.1,0.1v-0.1l0.3,0.5v-0.1v0.2c-0.2,0.3-0.1,0.3-0.3,0.3
	h-0.1h0.1h-0.1c-0.1,0-0.1,0.1-0.3,0c-0.1,0-0.2,0.1-0.2,0.2v0.2c0,0-0.2,0.2-0.2,0.1v0.1l-0.1,0.1c0,0,0.2,0.1,0.2,0l0.1-0.1
	c0.1-0.1,0.1-0.2,0.2,0.1c0,0,0.1-0.2,0.1,0c0-0.1,0.1-0.1,0.1,0h0.1v-0.1v0.1v-0.1l0.1,0.1l0.2-0.1v0.1c0.1-0.2,0.4-0.4,0.5-0.4
	c0,0.2,0.3,0.1,0.2,0h0.2v0.5c-0.2,0-0.4,0-0.5,0.2h-0.2v0.2l-0.1,0.1v0.2h0.1v0.2l0.2,0.2v0.1v-0.1h-0.5l-0.3,0.3h-0.1l-0.1,0.1
	v-0.1h-0.2c-0.1,0.1-0.3,0.2-0.4,0.3l-0.1-0.2l-0.1-0.1l-0.1,0.1l-0.1,0.2v0.1l-0.1,0.1c0.1-0.1,0.1,0,0.1,0l-0.1,0.1v-0.1l-0.1-0.1
	v0.1l-0.1,0.1l-0.1-0.1h0.1h-0.1c0-0.1,0,0,0.1-0.1l-0.1-0.1c0,0.3-0.1,0.2,0.1,0.4h-0.2h0.1v0.1c-0.1,0,0,0.1,0,0.2v-0.1l-0.1,0.2
	c0.2,0.1,0.2,0.1,0.1,0.1l-0.2-0.1l-0.4-0.3c0.1-0.2,0-0.1,0-0.2c0-0.1-0.1-0.1,0.1-0.2v-0.1l-0.1,0.1v-0.1c-0.1,0-0.3-0.1-0.3-0.2
	h0.1v-0.1h0.1v-0.1l0.1,0.1l0.1,0.1v0.1c0.1-0.1,0-0.2,0-0.3h-0.1v-0.1v0.1l-0.1,0.1l0.1,0.1h-0.1v-0.1c0,0-0.1-0.1-0.1,0v-0.2
	l0.2-0.1h-0.1l0.1-0.1v-0.2c0.1-0.2-0.2-0.2-0.1-0.2h-0.1v-0.2c0.1,0,0.1-0.1,0-0.1v0.1c-0.1-0.2,0-0.1,0-0.4h-0.1l0.1,0.1
	c-0.1,0-0.5-0.2-0.4-0.4v0.1c0.1-0.1,0-0.1,0-0.1v-0.1l-0.2,0.2l0.1,0.3l-0.1,0.2h-0.1c0,0-0.5,0.3-0.4,0.1h-0.3
	c0-0.1-0.3-0.1-0.3,0v0.1h0.1l0.1,0.1l-0.1,0.1c0,0,0.1,0.1,0.1,0.2c0.2,0,0.3,0.1,0.6,0.2V255l0.1,0.1v0.1h0.3
	c-0.1,0.1,0.2,0.1,0.2,0.1l-0.1,0.2c0.1-0.1,0.3,0.2,0.1,0.2c0-0.1-0.1-0.2-0.2-0.2v-0.2l-0.1,0.1c0-0.1,0,0-0.1,0.1v-0.1l-0.2-0.1
	h-0.2h0.1h-0.1c0-0.1-0.1-0.1-0.2-0.1h0.1v0.1c0-0.1,0-0.2-0.2-0.2h-0.1v0.1h-0.1v0.1l-0.2,0.2c-0.1-0.2-0.3-0.2-0.4-0.1v-0.1
	l-0.2-0.1h-0.1v-0.1v0.1v-0.1l-0.3-0.1h-0.2h0.1l-0.2-0.1v0.2l-0.1,0.1v-0.1h-0.2v0.1h-0.1v0.2h0.1v0.1h-0.1c0,0.1,0,0.1,0.1,0.1
	l0.1,0.1h-0.1h0.1c0.1,0.1-0.1,0.2,0.1,0.3l-0.2,0.2l-0.1-0.1h-0.1V256l-0.1,0.1l-0.1,0.1v9.8c0,2.3,1.9,4.2,4.2,4.2h8.5
	c8.8,0,11.9-4.1,13-8c0.4-1.6,0.6-3.2,0.6-4.3v0.2v-2.4c0-0.4-0.3-0.7-0.7-0.7h-7.8c-0.4,0-0.7,0.3-0.7,0.7v0.3
	c0,3.6-0.5,5.2-4.3,5.2c-4,0-4.3-2.5-4.3-6.5v-7.6c0-4,0.3-6.5,4.2-6.5h0.1c3.9,0,4.3,1.6,4.3,5.4v0.4c0.1,0.3,0.4,0.6,0.7,0.6h7.8
	c0.3,0,0.6-0.2,0.7-0.5v-2.1c0-1-0.1-3.1-0.5-4.7c-1-3.8-3.9-7.9-12.3-8.1h-2.4C-154,231.2-157.1,233.5-158.8,236.3"/>
<g>
	<defs>
		<path id="SVGID_1_" d="M-162.7,257.5l0.1-0.1L-162.7,257.5 M-162.9,257.2v-0.1V257.2 M-162,257.1v0.4h0.1
			C-162,257.3-161.9,257.2-162,257.1 M-164.1,256.6c0.1,0.1-0.1,0.2,0,0.2V256.6 M-162.7,256.4l0.1,0.1L-162.7,256.4L-162.7,256.4
			 M-161.2,256.4v0.1h0.1l0.1-0.1H-161.2 M-162.1,256.2l0.1,0.1L-162.1,256.2 M-162.3,256.2c-0.1,0.1,0,0.1,0,0.1V256.2
			 M-161.4,256.2v-0.1V256.2 M-162,256l0.1,0.1C-161.8,256.1-161.8,256-162,256C-161.8,256.1-161.9,256-162,256
			C-161.9,256.1-161.9,256-162,256 M-162.5,256C-162.4,256-162.4,256-162.5,256 M-161.6,255.9l-0.1,0.1h0.1V255.9 M-159.8,255.8v0.1
			V255.8c0,0.1-0.1,0.2-0.1,0.2h0.1c0,0,0-0.1,0,0V255.8 M-162.4,255.9l0.1-0.1L-162.4,255.9 M-162.3,255.6c0.1,0,0,0.1,0,0.1V255.6
			L-162.3,255.6 M-163.5,255.7h-0.1v-0.1c0,0.1-0.2,0.4-0.3,0.3C-163.9,256.2-163.5,255.7-163.5,255.7l0.1-0.1L-163.5,255.7
			 M-161.1,255.5l-0.1,0.1c0,0.2,0.1,0.1,0.2,0L-161.1,255.5 M-160.6,255.5h0.1v-0.1L-160.6,255.5l0.1-0.1L-160.6,255.5
			 M-153.8,255.5l-0.1,0.1l0.1,0.1V255.5L-153.8,255.5c0,0.2,0,0.3,0.1,0.2h-0.1V255.5l0.1,0.2l0.1-0.1v0.1c0-0.1,0.1-0.3-0.1-0.3
			c0.1,0,0,0.1,0,0c0,0.1-0.1,0,0,0L-153.8,255.5 M-164.4,255.3C-164.5,255.2-164.4,255.4-164.4,255.3 M-160.2,255.2
			C-160.1,255.3-160.2,255.2-160.2,255.2v-0.1V255.2 M-159.9,255L-159.9,255h0.1H-159.9 M-156.5,255l0.1,0.1c0.1,0,0.1,0,0.1-0.1
			h0.1v-0.1L-156.5,255 M-152,255L-152,255L-152,255L-152,255 M-158.2,255.2l0.2-0.1h-0.2V255V255.2 M-156.5,255.1v-0.2
			C-156.5,254.9-156.6,255.1-156.5,255.1 M-160.1,255.1v0.2c0-0.1,0.1-0.1,0.1-0.2l-0.1,0.1v-0.3V255.1v-0.2V255.1v-0.2V255.1
			 M-163.2,254.9v0.2V254.9 M-156.4,254.8v0.1V254.8l0.1,0.1L-156.4,254.8 M-154.1,254.8c0,0.1,0.1,0.3,0.1,0.3h0.2L-154.1,254.8
			L-154.1,254.8L-154.1,254.8 M-153.9,254.7C-154.1,254.8-153.9,254.7-153.9,254.7 M-163,254.7L-163,254.7c-0.1,0.1-0.2,0.3-0.2,0.3
			l0.1-0.1C-163.1,254.8-163,254.8-163,254.7h0.3H-163 M-153.8,254.7l0.1,0.2v0.1L-153.8,254.7l0.1,0.1
			C-153.7,254.6-153.7,254.7-153.8,254.7l0.1-0.1L-153.8,254.7 M-154.2,254.6v0.3l0.1,0.1L-154.2,254.6 M-154,254.5l0.1,0.1v-0.1
			C-153.9,254.5-153.9,254.6-154,254.5 M-157.7,254.5C-157.8,254.6-157.7,254.6-157.7,254.5L-157.7,254.5l0.1,0.1L-157.7,254.5
			 M-156.5,254.8l0.1-0.1l-0.2-0.1C-156.6,254.7-156.6,254.8-156.5,254.8 M-154.3,254.6l-0.1-0.2L-154.3,254.6 M-155.5,254.5h0.1
			H-155.5 M-159.7,254.4l0.2,0.1v-0.2l-0.2-0.1V254.4 M-158.2,254.2v0.2V254.2 M-163.8,254.2v0.2V254.2v0.2V254.2 M-159.4,254.2
			h-0.1C-159.3,254.4-159.4,254.3-159.4,254.2 M-164.4,254.2C-164.4,254.1-164.3,254.2-164.4,254.2 M-163.7,254.1
			C-163.7,254.1-163.9,254.2-163.7,254.1 M-165,254.1c0,0.1-0.2,0.1-0.1,0.1l0.1,0.1V254.1l0.1,0.1h-0.1h0.1L-165,254.1 M-154.5,254
			l0.1,0.1v0.1c0.1,0-0.1,0,0,0.1h0.1c0,0.2,0,0.1,0.1,0.1l0.1,0.1v-0.2v0.1l-0.3-0.2L-154.5,254L-154.5,254 M-163.5,254.1V254
			C-163.7,254-163.6,254.1-163.5,254.1 M-158.1,254.1C-158.2,254.1-158.1,254.1-158.1,254.1C-158.2,254.1-158.5,254.2-158.1,254.1
			l0.1-0.1v-0.2L-158.1,254.1 M-162.4,254h0.1H-162.4 M-155,253.7v0.1V253.7L-155,253.7 M-162.8,253.8l-0.2,0.2h0.1l0.1,0.2h0.1
			l0.1-0.1C-162.7,254.2-162.7,253.9-162.8,253.8l0.1,0.1C-162.6,253.8-162.7,253.7-162.8,253.8 M-162.2,253.8v0.1V253.8l0.2-0.2
			h-0.3L-162.2,253.8 M-156,253.8l0.1,0.1v0.3v-0.1h0.1c0.1-0.1,0.2,0,0.2,0l0.1-0.1c-0.1,0,0,0,0,0L-156,253.8c0-0.2,0-0.3-0.1-0.3
			C-156.1,253.6-156.1,253.7-156,253.8 M-161,253.4c0,0.1,0,0.2-0.1,0.2c0,0.1,0.1,0.3,0.1,0.3h-0.1c0,0.1,0.1,0.1,0,0.2
			c-0.1,0.1,0.1,0.1,0.2,0.2c0,0.1,0.4,0.3,0.5,0.1v-0.2c0,0.1,0.1-0.1,0.1-0.1c0,0.1,0.1-0.1,0.1-0.1v-0.1l-0.1,0.1
			c-0.1-0.1,0.1-0.2,0-0.2v-0.1c0,0.1,0.2-0.1,0.2-0.1l-0.1-0.1l0.1,0.1h-0.2l-0.3,0.4c0-0.2-0.1-0.3-0.2-0.4h0.1l-0.1-0.1h0.1
			l-0.1-0.1H-161 M-160.7,253.3v0.2h0.1v0.1c0-0.1,0.1-0.1,0.1-0.2L-160.7,253.3 M-155.8,253.2l0.1,0.1l0.1-0.1
			c-0.1,0.2,0.1,0.2,0.2,0.2v0.2v-0.1v0.1l0.1-0.1c0,0.1,0.1,0.1,0.1-0.1h-0.1l0.1-0.2h-0.1l-0.1-0.1c-0.1,0.1-0.1,0.1-0.1,0
			l-0.1,0.1c-0.1,0-0.2,0-0.2-0.1V253.2 M-156.7,253.1l0.1,0.1C-156.6,253-156.7,253.1-156.7,253.1 M-152.4,253
			C-152.4,253-152.5,253.1-152.4,253 M-155.9,253.1c0,0-0.2,0.1-0.1,0.1L-155.9,253.1v0.2C-155.9,253.6-155.6,253.3-155.9,253.1
			 M-157.2,253c0,0.2,0.1,0.1,0.1,0.2l0.3-0.2c-0.1,0-0.2-0.1-0.3-0.1L-157.2,253 M-152.3,253.1L-152.3,253.1
			C-152.3,253-152.4,253.1-152.3,253.1 M-164.8,252.7C-164.7,252.7-164.7,252.7-164.8,252.7 M-164.6,252.7L-164.6,252.7
			L-164.6,252.7 M-161.1,252.6l-0.1,0.1L-161.1,252.6L-161.1,252.6 M-158.3,252.5L-158.3,252.5L-158.3,252.5 M-164.7,252.4l0.2,0.1
			l-0.1,0.1l0.1,0.1l0.1-0.1v-0.1l-0.2-0.2L-164.7,252.4 M-160.7,252.2h0.1H-160.7l0.2,0.1l-0.1-0.1H-160.7 M-161.4,252.2l0.1,0.1
			v-0.1H-161.4 M-161,252.3C-161.1,252.3-161.1,252.4-161,252.3v0.2l0.1,0.1h0.1l0.1-0.1c0,0-0.1,0.2,0,0v0.1h0.2
			c0-0.2-0.2-0.1-0.2-0.2c0.1-0.1-0.1-0.1-0.2-0.1H-161l0.2-0.1C-160.8,252.1-161.2,252.2-161,252.3 M-157.6,252.2v0.1V252.2
			 M-157.7,252.2c0-0.1,0.1-0.2,0-0.1V252.2V252h-0.1C-157.8,252.2-157.7,252.2-157.7,252.2 M-160.4,252.1h-0.1H-160.4
			C-160.4,252-160.5,252-160.4,252.1 M-157.2,252c0,0-0.1,0.2-0.1,0.3L-157.2,252L-157.2,252 M-159.5,252c0,0.1-0.2,0.1-0.2,0.2
			l0.1,0.1v0.1l-0.2,0.2l0.3,0.1l0.1-0.1l0.1,0.1h0.2l0.1,0.1c0-0.1,0-0.3-0.1-0.3v0.1v-0.4v0.1c0,0-0.1-0.1,0-0.1h-0.3
			C-159.3,252.2-159.4,252-159.5,252C-159.6,252.1-159.4,252-159.5,252 M-158,252C-158.1,252.1-158,252-158,252 M-159.4,252l0.1,0.1
			C-159.2,252-159.3,252-159.4,252 M-160,251.9v0.1V251.9v0.3h0.1c0-0.1,0-0.1,0,0l-0.1-0.1C-159.9,252.1-160,252-160,251.9
			 M-161.4,251.9c-0.2,0.1,0,0.2,0,0.2V251.9 M-158.3,251.9c0,0.1,0,0.3,0.1,0.1v0.1L-158.3,251.9 M-158.1,251.8c0,0,0,0.3,0.1,0.2
			c0.1,0.1,0.1,0.2,0.2,0.2l-0.1-0.1l0.1-0.1v-0.1c0,0-0.1,0.1,0,0h-0.1c0.1,0,0,0,0,0S-157.9,251.8-158.1,251.8 M-160.3,251.7h0.1
			H-160.3 M-157.7,251.6L-157.7,251.6L-157.7,251.6 M-161.1,251.6C-161.1,251.7-161.1,251.6-161.1,251.6 M-157.1,251.7
			c0,0.1,0.2,0.3,0.2,0.4v0.1V252v0.1v-0.5C-157,251.8-157,251.7-157.1,251.7l0.1-0.2L-157.1,251.7 M-164,251.6h0.1H-164
			 M-158.3,251.6l0.2,0.1l0.1-0.1v-0.1h-0.1l-0.1-0.1L-158.3,251.6 M-156.8,251.5h0.3c0-0.1-0.1-0.1-0.2-0.1L-156.8,251.5
			 M-156.5,251.4l0.1,0.1L-156.5,251.4 M-157.9,251.4L-157.9,251.4L-157.9,251.4 M-157.1,251.3l0.1,0.1L-157.1,251.3 M-158.1,251.4
			v-0.1C-158.2,251.4-158.2,251.4-158.1,251.4 M-157.2,251.4l0.1-0.1L-157.2,251.4 M-157.6,251.2L-157.6,251.2
			c-0.1,0.2-0.2,0.2-0.2,0.3c0,0,0.2,0,0,0.1l0.2-0.1V251.2 M-160.6,251.2c0-0.1-0.1,0-0.1,0.1L-160.6,251.2c0.1,0.1,0.1,0.2,0.1,0
			H-160.6 M-157.5,251.1C-157.5,251.1-157.6,251.3-157.5,251.1 M-157.9,251.1l0.1,0.1L-157.9,251.1L-157.9,251.1 M-156.6,251.1
			c0.1,0.1,0.1,0,0.1,0.1v-0.1H-156.6 M-156.7,250.8L-156.7,250.8L-156.7,250.8L-156.7,250.8 M-158.1,250.7
			C-158.2,250.7-158.2,250.7-158.1,250.7C-158.3,250.9-158.1,250.7-158.1,250.7 M-158,250.8C-158,250.8-158.1,250.8-158,250.8
			 M-155.2,250.7v0.2V250.7 M-162.1,250.6C-162.1,250.5-162,250.5-162.1,250.6L-162.1,250.6 M-157.5,250.5l0.2,0.1v-0.1H-157.5v-0.1
			V250.5 M-161.7,250.5C-161.7,250.6-161.7,250.6-161.7,250.5l0.1-0.2L-161.7,250.5 M-155,250.4v0.2h-0.1v-0.1c0,0,0.2,0.1,0.2,0
			v-0.1c0.1-0.1,0-0.2-0.1-0.2V250.4 M-156,251.6C-156,251.7-156,251.6-156,251.6 M-155.9,251.2l0.1,0.1
			C-155.9,251.4-155.9,251.3-155.9,251.2v0.1V251.2C-155.8,251.2-155.8,251.2-155.9,251.2 M-156.9,250.4l-0.1-0.1l0.3,0.3
			c0-0.2,0.3,0.2,0.3,0.2l0.1-0.2h0.1v0.1l-0.1,0.1v0.1v-0.1v0.1c0-0.1,0.1,0.1,0.1,0.1h-0.1c0,0.1,0.2,0.2,0.1,0.3h-0.1l-0.1,0.1
			c-0.1,0.3-0.1,0.1-0.2,0.1v-0.1h-0.1v0.4c0,0,0.2,0,0.1-0.1l0.1-0.1c0,0.1,0.1,0.1,0.1,0l0.1,0.2v0.1l0.3,0.1c0,0,0.4-0.4,0.2-0.5
			v-0.1h-0.1c0,0-0.1,0.1-0.1,0c0.1,0,0.1-0.2,0.1-0.2v-0.1h-0.1c0.2,0-0.1-0.3-0.2-0.2c0,0,0-0.4-0.2-0.3l-0.2-0.1l-0.1-0.2
			c-0.1,0,0.1,0.2,0,0.2C-156.7,250.4-156.8,250.4-156.9,250.4l0,0.1h0.1h-0.1v0.1l-0.1-0.2C-157,250.5-157,250.4-156.9,250.4h-0.2
			C-156.8,250.2-156.9,250.3-156.9,250.4 M-157.8,250.3h0.1H-157.8 M-155.3,250.3L-155.3,250.3L-155.3,250.3 M-157.7,250.2v0.1
			C-157.6,250.2-157.7,250.2-157.7,250.2 M-155.6,250.2v0.2h0.1c0,0.1,0,0.2,0.1,0c0,0.1,0,0.1,0.1,0.1h-0.1c0.1,0,0.3-0.1,0.3-0.2
			c0-0.1-0.2,0-0.3,0v-0.1h-0.1c0-0.2-0.1-0.1-0.1-0.1V250.2l0.1-0.1L-155.6,250.2 M-162.5,250.2v-0.1V250.2 M-155.3,250L-155.3,250
			C-155.3,250.1-155.2,250-155.3,250 M-161.7,250L-161.7,250L-161.7,250 M-155.5,250C-155.5,250-155.4,250.1-155.5,250 M-160.6,250
			l0.1-0.1L-160.6,250 M-160.7,250.6C-160.6,250.7-160.7,250.6-160.7,250.6 M-160.5,250.2h-0.2c-0.1-0.2-0.1,0.2-0.1,0.2l-0.1,0.1
			h-0.1l0.1,0.1h-0.2v0.1h-0.1c0,0,0,0.3,0.1,0.1v0.1c-0.1-0.1-0.2,0.1-0.2,0.2v0.1l-0.2-0.1v0.1h-0.1v-0.1c-0.1,0-0.1,0.2-0.2,0.1
			v0.2h0.1v0.1h0.1v0.2l0.2,0.1h-0.1l0.2-0.3v-0.1c0,0.1,0.1,0,0.1-0.1l0.3-0.1c-0.1-0.1,0-0.1,0-0.3c0.2,0,0.1,0.1,0.1,0.1
			c0.1,0,0,0,0.1-0.1h0.1v-0.1h0.2c0.1-0.3-0.1-0.4,0.1-0.4c0-0.1,0-0.2,0.1-0.1v0.1c0.2,0,0-0.2,0-0.2h0.2l0.1-0.1
			c-0.1,0-0.1-0.1-0.1-0.2C-160.3,249.9-160.5,250.2-160.5,250.2 M-162,249.9c0,0,0.1,0.1,0,0.2V250v0.2c0.1,0.2,0.2,0,0.1-0.2
			C-161.9,250-161.9,249.8-162,249.9 M-160.4,249.8C-160.4,249.9-160.4,249.9-160.4,249.8L-160.4,249.8L-160.4,249.8 M-154.9,249.7
			l0.1,0.2v-0.1h0.1v-0.1H-154.9 M-162.2,249.6c-0.2,0.1,0.1,0.4,0.1,0.3l-0.1-0.1h0.1L-162.2,249.6 M-162.2,249.5
			C-162.2,249.6-162.1,249.5-162.2,249.5 M-160.5,249.3l-0.1,0.1L-160.5,249.3C-160.6,249.3-160.6,249.4-160.5,249.3l-0.1,0.2v0.1
			h-0.1c0,0.1-0.1,0.2-0.1,0.1c-0.1,0-0.3,0.2-0.2,0.3c0.2,0,0.2-0.1,0.3-0.3l-0.1,0.1l0.1-0.1l0.2-0.1l-0.1-0.1v-0.1l0.2-0.2
			C-160.4,249.3-160.5,249.3-160.5,249.3 M-160.9,249.3c0.1,0.1,0,0.1,0,0.2h0.2c0.2-0.1,0-0.2,0.1-0.3L-160.9,249.3 M-161.5,249.1
			l-0.1,0.1L-161.5,249.1L-161.5,249.1C-161.3,249.2-161.6,249.2-161.5,249.1h0.1H-161.5 M-158.8,249.1l-0.2,0.2h0.1
			C-158.8,249.3-158.8,249.2-158.8,249.1 M-160.3,249c0,0.1,0.1,0.1,0.1-0.1L-160.3,249 M-156.6,248.9L-156.6,248.9L-156.6,248.9
			 M-155.3,248.8l0.1-0.1l-0.1-0.1V248.8 M-155.7,248.7l0.1,0.1L-155.7,248.7 M-158.9,248.7l0.1,0.1L-158.9,248.7 M-158.1,248.7v0.1
			l-0.1,0.1v0.1h0.1v-0.1C-157.9,248.8-158,248.7-158.1,248.7 M-155.9,248.8v-0.2V248.8 M-158.9,248.7
			C-159,248.6-159,248.7-158.9,248.7 M-154.1,248.7C-154.1,248.7-154,248.7-154.1,248.7h0.2l-0.1,0.2l0.1,0.1
			c-0.1,0-0.1-0.1-0.2-0.1v0.1c0.1,0,0.1,0.1,0.2,0.1l0.3-0.1c0-0.1,0-0.1-0.1,0v-0.2l-0.1-0.1l-0.2-0.1L-154.1,248.7 M-154.4,248.6
			c0.1,0.1,0,0.2,0.1,0.2L-154.4,248.6 M-155.5,248.6c0,0,0,0.1,0.1,0.1L-155.5,248.6 M-154.1,248.5
			C-154.2,248.6-154.1,248.7-154.1,248.5 M-154.9,248.7C-154.9,248.8-155,248.7-154.9,248.7l-0.1,0.2v0.1h0.2L-154.9,248.7
			c0.1,0.2,0.2,0.2,0.2,0.3l0.1-0.1c-0.1,0,0.1,0.1,0.2,0.1h0.2v0.1c0-0.2-0.1-0.1-0.1-0.1v-0.1l-0.1,0.1l-0.1-0.2h-0.1
			c0-0.1,0-0.1,0.1-0.1h-0.1c-0.1,0-0.1,0-0.2-0.1L-154.9,248.7 M-158.7,248.6L-158.7,248.6L-158.7,248.6 M-156.9,248.5
			L-156.9,248.5L-156.9,248.5 M-157.1,248.5L-157.1,248.5L-157.1,248.5 M-155.1,248.5v0.3l0.1-0.1c0,0.1,0.1-0.1,0.1-0.1
			L-155.1,248.5 M-159.5,248.3v0.2h-0.2v-0.1l-0.1,0.2h-0.1c0,0.1,0.2,0.3,0.3,0.2c0.1,0.2,0.5-0.1,0.3-0.1v-0.1h-0.1
			c0.1,0,0-0.1,0-0.1L-159.5,248.3 M-155.9,248.3v0.1l0.1,0.1c0,0,0.2,0,0-0.1L-155.9,248.3 M-157.4,248.5L-157.4,248.5
			L-157.4,248.5h-0.2v0.1h-0.1v0.1h0.2l0.1-0.3C-157.4,248.4-157.5,248.3-157.4,248.5 M-156,248.4C-155.8,248.4-156,248.4-156,248.4
			 M-158.7,248.3v0.1V248.3 M-160.9,248.4c0.1,0.1,0.1,0,0.1-0.1L-160.9,248.4 M-155.9,248.3C-156,248.3-155.9,248.3-155.9,248.3
			 M-153.2,248.2L-153.2,248.2L-153.2,248.2C-153.2,248.3-153.1,248.1-153.2,248.2 M-156,248c0.1,0.1,0.2,0.3,0.3,0.1h-0.1L-156,248
			 M-157.6,248l0.1,0.1v-0.2L-157.6,248 M-157.8,248l0.1-0.1L-157.8,248 M-156.5,248l0.2,0.1v0.1h-0.1c-0.3-0.6,0,0,0,0.1h-0.1
			l0.1,0.1v-0.1l0.1-0.1v0.2l0.1-0.1l0.2,0.1h-0.1c0.1-0.2-0.2-0.2-0.2-0.2c0-0.2,0.1-0.4-0.1-0.4v-0.1l-0.2-0.1
			C-156.5,247.8-156.5,247.9-156.5,248 M-156.7,247.7l0.1-0.1L-156.7,247.7 M-156.6,247.6C-156.6,247.7-156.5,247.7-156.6,247.6
			 M-156.7,247.6v0.1V247.6 M-159,247.5L-159,247.5L-159,247.5 M-156.7,247.5C-156.6,247.4-156.6,247.4-156.7,247.5v-0.1
			C-156.7,247.4-156.8,247.5-156.7,247.5 M-157.9,247.5v0.3l0.1-0.1v0.1l0.2-0.1l0.2-0.1c0-0.2-0.1-0.2-0.1-0.2h-0.1
			c-0.1,0,0,0,0-0.1C-157.8,247.2-157.9,247.4-157.9,247.5 M-153.6,247.2L-153.6,247.2L-153.6,247.2L-153.6,247.2 M-160.4,247.1
			C-160.5,247.2-160.4,247.3-160.4,247.1 M-160.4,247v0.2C-160.3,247.2-160.2,247-160.4,247 M-158.8,247.1V247V247.1 M-157.4,247.1
			v0.1V247.1v0.2c0,0.1,0.1,0.1,0.2,0.1h0.1v-0.3l-0.1-0.1C-157.3,247-157.4,247.1-157.4,247.1 M-157.5,246.9
			C-157.5,246.9-157.5,247.1-157.5,246.9 M-160.7,247.1v0.1c0.1-0.1,0.1,0,0.1,0.1L-160.7,247.1c-0.1-0.1,0-0.1,0-0.2h-0.1
			C-160.7,246.9-160.7,247-160.7,247.1 M-157.3,246.9v-0.1V246.9 M-160.2,246.8l0.1,0.1h0.1C-160.1,246.7-160.1,246.7-160.2,246.8
			 M-162.9,246.8C-162.9,246.8-162.9,247-162.9,246.8l0.1-0.1L-162.9,246.8 M-162.8,246.9l0.1-0.2L-162.8,246.9 M-158.3,246.7
			L-158.3,246.7L-158.3,246.7l0.1,0.2l0.1-0.1c0,0,0.1,0.3,0.2,0.1c-0.1-0.1-0.1-0.2-0.2-0.1v-0.1H-158.3 M-160.5,246.5v0.3
			c0.1,0.1,0,0.2,0.1,0v0.1c0.2,0-0.1-0.3,0-0.3v0.1l0.1-0.1l-0.1,0.1c0-0.1,0.1-0.1,0.1-0.1C-160.5,246.5-160.5,246.7-160.5,246.5
			 M-155.9,246.5h0.1l-0.1-0.2V246.5 M-154.7,246.4v0.1V246.4 M-153.7,246.4v-0.2V246.4 M-160.4,246.3c0.1,0-0.1,0.2,0,0.2l0.1-0.1
			v0.1C-160.3,246.3-160.4,246.3-160.4,246.3 M-163.1,246l0.1-0.1C-163.1,245.9-163.1,245.9-163.1,246 M-154.8,246h-0.1H-154.8
			L-154.8,246L-154.8,246L-154.8,246l0.1,0.2h-0.2c0.1,0.1,0.2,0.2,0.3,0.2l0.1,0.1h0.2l0.1-0.1v-0.2h-0.5L-154.8,246
			c-0.1,0.1,0.1,0,0.1-0.1C-154.6,245.8-154.8,245.9-154.8,246 M-159.5,246l0.1,0.1L-159.5,246 M-159.7,245.8l-0.1,0.1h-0.2l0.1-0.1
			l-0.1,0.2h-0.1c0.1,0,0-0.1,0.1-0.1c0-0.1-0.1-0.1-0.1-0.1v0.3l-0.2,0.1v0.1h-0.1c0,0.2,0.1,0.2,0.2,0.2h0.1v-0.1h0.2v0.2
			c0.1,0.2,0,0.2-0.1,0.2v0.1l0.1,0.1l-0.2,0.2h0.2c0.1,0.1,0.1,0.1,0.3,0c0.1,0,0.4-0.3,0.4-0.1l0.1-0.1l0.2,0.1v-0.3
			c0.2,0.3,0.2-0.4,0.2-0.4c0-0.1-0.2-0.1-0.2-0.1h-0.2c0.1-0.1,0-0.1,0-0.2c0,0-0.3,0.1-0.2,0h0.1l-0.1-0.1
			c-0.1-0.1-0.1-0.1-0.2-0.3h0.1v-0.1L-159.7,245.8 M-159,245.6v0.2h0.1L-159,245.6 M-155.1,246.3
			C-155.4,246.2-155.1,246.2-155.1,246.3L-155.1,246.3 M-155.2,245.7h-0.3v0.2h-0.1v-0.1l-0.1-0.2h-0.1c0.1,0.1,0,0.2,0,0.3h0.1
			c0,0.1,0.1,0,0.2,0h-0.1c0,0.1,0.1,0,0.1,0.1h-0.1l0.1,0.1h-0.1l-0.1-0.1v-0.1l-0.1,0.1l0.2,0.2v-0.1v0.1h0.2c0,0.2,0.1,0,0.2,0
			c0,0.1,0.1,0.2,0,0.3h0.3c0.1,0.2,0.3,0,0.3,0v0.1v-0.1c-0.1,0.1-0.2-0.1-0.3-0.2l-0.1-0.1V246l-0.1,0.1V246l0.1,0.1v-0.2v0.1
			h-0.1v-0.2L-155.2,245.7l0.1,0.1c0-0.1,0.1-0.2,0-0.3L-155.2,245.7 M-160,245.7v-0.1V245.7 M-160,245.6l0.1,0.2L-160,245.6h0.2
			v0.1l0.1-0.1H-160 M-156,245.5c-0.1-0.1-0.1,0-0.1-0.1h-0.1l-0.2,0.2v0.1l0.1,0.1v-0.1v0.1l0.1-0.1l-0.1,0.1
			c0.1,0,0.1-0.1,0.1-0.2v-0.1C-155.9,245.7-155.9,245.6-156,245.5v-0.2C-156,245.4-155.9,245.5-156,245.5 M-159.5,245.4l0.1,0.1
			h0.1v-0.1l0.1,0.1v0.1h-0.1v0.1c0.1-0.2,0.3-0.1,0.3,0.1v-0.2c0,0.1,0,0,0,0v-0.1h-0.2v-0.1c0,0.1,0.1,0,0.1,0H-159.5
			 M-160.1,245.4l0.1-0.1L-160.1,245.4 M-153.4,245.4c-0.2,0.1,0.2,0.2,0.3,0.2L-153.4,245.4h0.2H-153.4c0.1,0.1-0.1-0.2,0-0.2h-0.2
			C-153.6,245.4-153.5,245.4-153.4,245.4 M-160.7,245.2C-160.7,245.4-160.6,245.2-160.7,245.2 M-160.5,245.3h-0.1v0.1
			c-0.1-0.1-0.2,0-0.2-0.1h-0.1v0.2l-0.1,0.1c-0.1,0.3,0.2,0.1,0.4,0.2v-0.1l0.1-0.2l0.1-0.1L-160.5,245.3l0.1,0.1L-160.5,245.3
			c0.1,0,0.2,0.1,0.2-0.1h-0.1c0,0-0.1,0-0.1-0.1V245.3 M-156.2,245.2h-0.1H-156.2 M-155.7,245.1c0,0.3,0.3,0.1,0.3,0.1h-0.1
			L-155.7,245.1 M-154.9,245.1l-0.2,0.2v0.2h-0.1c0.1,0,0,0,0,0l0.2,0.4c0-0.1,0-0.3,0.1-0.2v0.1c0.1,0,0.2-0.1,0.2-0.2v0.1l0.1-0.1
			v-0.5h-0.1c0,0.1,0.1,0.2,0.1,0.3c0,0-0.1-0.3-0.2-0.2L-154.9,245.1v0.1V245.1v0.1C-154.9,245.1-154.8,245.1-154.9,245.1
			C-154.8,245-154.9,245.1-154.9,245.1 M-155.1,245c0,0,0.1,0.1,0.1-0.1L-155.1,245 M-158.3,244.8c-0.1,0.2-0.1,0.2,0,0.2
			c0,0-0.1,0.1,0,0.2C-158.3,245-158.2,244.9-158.3,244.8 M-159.1,244.8l-0.1,0.1L-159.1,244.8c-0.2,0-0.1,0.2-0.1,0.1l-0.1,0.1h0.4
			v0.1v-0.2C-158.8,244.9-159,244.9-159.1,244.8C-158.9,244.8-159.1,244.8-159.1,244.8 M-152.8,244.8
			C-152.8,245-152.7,244.8-152.8,244.8L-152.8,244.8L-152.8,244.8 M-159.2,244.5L-159.2,244.5L-159.2,244.5 M-158.8,244.4l0.1,0.1
			h-0.1c-0.1,0.1,0.1,0.1,0.1,0v0.1c0.1,0,0.1,0,0.1-0.1h-0.1L-158.8,244.4h0.1H-158.8h0.1H-158.8l0.1-0.1h-0.1V244.4 M-157.2,244.4
			c0.1-0.1-0.2-0.1-0.2,0l-0.1-0.1v0.1l-0.1-0.1v0.1c0,0,0.2,0.3,0.3,0.2c0-0.2,0.3-0.1,0.3-0.1l0.1,0.1l0.1,0.1v0.1l-0.2-0.1
			l-0.1,0.1l0.2,0.2c0,0.1,0.1,0.1,0,0.1v0.1h-0.1c0,0.1,0.1,0.1,0.1-0.1c0.1,0,0.1-0.3,0.2-0.4v0.1c0,0.1,0,0.1-0.1,0.2l0.1-0.1
			h0.1v-0.1h-0.1c0.1,0-0.3-0.4-0.2-0.5l-0.1,0.1v-0.2L-157.2,244.4 M-159,244.3L-159,244.3l0.1,0.2h0.1h-0.1
			C-158.8,244.4-159,244.2-159,244.3 M-157.8,244.5h-0.2v-0.2c0,0,0-0.1-0.1,0l-0.2,0.2v0.1v-0.1c0,0.1,0.1,0.2,0.2,0
			c0,0.1,0,0.2,0.1,0.1c-0.1,0.1,0.1,0.2,0.1,0.2v0.1v-0.1l0.2,0.1C-157.7,244.8-157.8,244.5-157.8,244.5h0.1H-157.8
			c0.1,0,0-0.1,0.1-0.2l-0.1-0.1V244.5 M-159.6,244.1L-159.6,244.1c-0.1,0.1,0,0.1,0.1,0.2v0.1c0.1-0.1,0.1-0.1,0.1-0.2
			c0-0.1-0.1-0.1-0.1-0.1H-159.6 M-158.9,243.9v0.1V243.9 M-159.7,243.7h0.1H-159.7 M-157.6,243.7l-0.1,0.1h0.1
			C-157.7,243.7-157.5,243.7-157.6,243.7L-157.6,243.7 M-157.8,243.6L-157.8,243.6l-0.2,0.1v0.2c0.1,0,0.2,0.2,0.2,0V243.6l0.1,0.2
			v-0.1L-157.8,243.6 M-156.5,242.9h0.2c0-0.1-0.1,0-0.1,0H-156.5L-156.5,242.9L-156.5,242.9 M-158.8,242.9h0.1
			c0.1,0,0.1-0.2,0.1-0.2h-0.1C-158.8,242.7-158.8,242.8-158.8,242.9 M-156.7,242.8v0.2V242.8L-156.7,242.8L-156.7,242.8
			c0,0,0.1-0.1,0-0.1V242.8 M-158.9,242.6C-158.8,242.6-158.8,242.7-158.9,242.6 M-157.6,242.5
			C-157.7,242.6-157.6,242.5-157.6,242.5 M-158.8,242.6L-158.8,242.6v-0.1C-158.8,242.4-158.9,242.6-158.8,242.6 M-158,242.4v0.1
			V242.4v0.1c0-0.1-0.1,0.1-0.2,0.2h0.1h-0.1h0.1v-0.1v0.1h0.1h-0.1h0.1v-0.1l0.2-0.1v-0.1H-158 M-157.5,242.3c0-0.1-0.1,0-0.1,0.1
			L-157.5,242.3c0.1,0.1,0,0.3,0.1,0.2c0,0.1,0.1,0.2,0.1,0.1c0.1,0,0.1,0,0.2-0.1v0.1h0.1l0.1-0.1h-0.2c0,0,0-0.1-0.1-0.2l0.1,0.1
			h-0.2v-0.1v0.1L-157.5,242.3C-157.5,242.4-157.5,242.4-157.5,242.3 M-155.9,242.2C-155.9,242.3-155.9,242.2-155.9,242.2
			 M-157.6,242.2v-0.1V242.2 M-159.7,242l-0.1,0.2L-159.7,242v0.2V242 M-155.8,242C-155.5,242.1-155.7,242-155.8,242v-0.1V242
			 M-158.4,241.9l-0.1,0.1L-158.4,241.9L-158.4,241.9l-0.2,0.2l0.1-0.1L-158.4,241.9v0.1l0.2-0.1
			C-158.2,241.9-158.4,242-158.4,241.9 M-158.3,241.8l0.1,0.1v0.1l0.1-0.1c-0.1,0,0,0-0.1,0.1C-158.2,241.8-158.1,241.8-158.3,241.8
			 M-156.2,241.8L-156.2,241.8L-156.2,241.8 M-158.1,241.7v0.1V241.7 M-157.8,241.7c0,0.1,0.1,0,0.1,0H-157.8 M-158.7,240.2
			c-0.3,0.2-0.1,0.3-0.1,0.2v-0.1L-158.7,240.2v0.1V240.2 M-156,240.2v0.2c0.1-0.1,0.1-0.2,0.1-0.3L-156,240.2 M-159.4,240l-0.1,0.1
			c0,0.1,0.1,0.1,0.1,0.1V240 M-159,240v-0.1V240 M-159.7,239.9L-159.7,239.9L-159.7,239.9 M-158.8,239.7v0.2c0,0.1,0.1,0,0.1,0
			L-158.8,239.7h0.1c-0.1,0.1,0.1,0,0.1,0C-158.7,239.7-158.7,239.6-158.8,239.7 M-160.2,239.9L-160.2,239.9L-160.2,239.9
			 M-159.5,239.7c0.1,0.1,0,0.1,0,0.1v0.1h0.1l-0.1,0.1c0.3-0.1,0-0.1,0.1-0.2l-0.1,0.1V239.7 M-160.8,239.6
			C-160.7,239.6-160.8,239.6-160.8,239.6 M-157.6,239.5c-0.1,0.1,0,0.1-0.1,0.1c0,0,0.1,0.2,0.1,0.1l-0.1-0.1L-157.6,239.5
			 M-158.8,239.4v0.1V239.4v0.2C-158.9,239.5-158.8,239.4-158.8,239.4l-0.1,0.2l0.1-0.1V239.4 M-160.6,239.4L-160.6,239.4l-0.1,0.2
			c0,0-0.1,0.1,0,0.1v0.1v-0.1l0.1,0.2c0.1-0.2,0,0.2,0.1,0.2l0.1-0.1v0.1V240h-0.1l0.1-0.1v-0.1v0.1l-0.1-0.1
			c-0.1-0.1,0.1-0.1,0.1-0.2L-160.6,239.4 M-159.7,239.3C-159.6,239.3-159.7,239.4-159.7,239.3 M-160.8,239
			C-161,239-160.7,239.1-160.8,239 M-157.8,239C-157.8,239.1-157.7,239.2-157.8,239C-157.8,239-157.8,239.1-157.8,239 M-159.7,238.7
			l0.1,0.2l0.1-0.1c0.1,0.1,0.2,0,0.2,0.2h-0.1v0.1h-0.1c0.1,0.1,0.1,0.2,0,0.2v0.1l0.3-0.1l-0.2-0.1c0.1,0,0.1-0.2,0-0.3l-0.1-0.1
			v-0.1v0.1v-0.1H-159.7 M-159.5,238.6C-159.5,238.5-159.7,238.6-159.5,238.6 M-159.7,238.4v0.1V238.4 M-159.3,238.2
			C-159.3,238.4-159.2,238.2-159.3,238.2 M-154.3,256.6L-154.3,256.6L-154.3,256.6 M-152.2,253.6
			C-152.2,253.5-152.2,253.5-152.2,253.6 M-158.8,236.3v-3.5c0-0.4-0.3-0.7-0.7-0.7h-8.2c-0.4,0-0.7,0.3-0.7,0.7v18.4
			c0,0.5-0.4,0.6-0.6,0.2l-7.2-17.4l-0.3-0.7c-0.5-1.1-0.5-1.2-1.9-1.2h-8.9c-0.4,0-0.7,0.3-0.7,0.7v36.4c0,0.4,0.3,0.7,0.7,0.7h7.8
			c0.4,0,0.7-0.3,0.7-0.7v-18.4c0-0.5,0.4-0.6,0.6-0.2l7.2,17.4l0.3,0.7c0.2,0.7,0.9,1.2,1.6,1.2h5.5c2.3,0,4.2-1.9,4.2-4.2v-9.5
			c-0.1,0-0.2-0.1-0.3-0.1l-0.1-0.1l0.1,0.2h-0.2v-0.1v0.1l0.1-0.1h-0.2c0,0.2,0,0.3,0.1,0.2h0.1l0.1,0.1h-0.1l0.1,0.1
			c0,0-0.2,0-0.2-0.1v0.2v-0.1l-0.1,0.1l-0.1,0.1c-0.1,0.2,0,0.2,0,0.2h-0.3c-0.2,0-0.3,0.1-0.5,0.1l0.1-0.1l-0.1,0.1l-0.2-0.1h0.1
			c-0.1-0.1,0-0.3-0.2-0.3v0.2l-0.1-0.2l-0.1,0.1l-0.2,0.5v-0.1l0.1,0.1h-0.1l0.1,0.1l-0.1,0.4v-0.1c-0.2,0-0.2,0-0.2,0.2h-0.1v-0.1
			l-0.1,0.2h-0.1c0-0.1,0.1-0.3,0.1-0.4h-0.1l-0.2,0.2v-0.1l-0.1,0.3l-0.2,0.1v-0.1h-0.1c0,0.3,0.2,0.2,0,0.2l-0.1,0.1
			c-0.1,0.1-0.1,0.3-0.2,0.1c-0.1-0.2,0-0.3,0-0.3c0.1,0,0.1-0.3,0.2-0.4l-0.1,0.1v0.1v-0.1h-0.1c0,0-0.1-0.2-0.2-0.2
			c0-0.2-0.1-0.2-0.2-0.3l0.1-0.1l-0.1-0.2c0,0,0.1-0.1,0.2,0.1v-0.1c0.1-0.1,0.1-0.5,0.3-0.4c-0.2-0.2,0-0.4,0.1-0.5
			c0-0.1,0-0.5,0.2-0.3v-0.1h0.1v-0.1h0.1l-0.1-0.1l0.1-0.1h0.1h-0.3v-0.1v0.1v-0.2l0.3,0.1c0.1-0.1,0-0.2,0-0.2
			c0-0.1,0-0.2,0.1-0.3v0.1v-0.2v0.1l-0.1,0.1l-0.2,0.2v-0.1l-0.1,0.2h-0.1l-0.3,0.3v-0.1c-0.1,0.1-0.2,0.5-0.2,0.3l0.1,0.1
			c-0.1,0-0.2,0.1-0.1,0.2c-0.1-0.1,0,0.3-0.2,0.3c-0.1,0-0.1,0.2-0.2,0.3l-0.1-0.3h-0.1v0.1h-0.1c0,0.2-0.1,0.1-0.1,0.1h0.2v0.1
			l0.1-0.1v0.1h-0.1v0.1v-0.1v0.1h-0.2v-0.2h-0.1c0.1,0.1-0.1,0-0.1-0.1l-0.1-0.1l0.1-0.1h0.1v-0.2l0.1-0.2h0.1l0.1-0.1l-0.2,0.5
			l0.1-0.1l-0.1-0.3l-0.2,0.2c-0.2,0.2-0.4,0.3-0.3,0h0.1c0-0.1-0.2-0.4-0.1-0.4c-0.4-0.3,0-0.3,0.1-0.3c0,0,0.1-0.3,0.2-0.1
			c0.1-0.2,0.3-0.1,0.4,0h-0.1l0.1,0.2v-0.1l0.2-0.1h-0.1c0-0.1,0.1-0.1,0.1,0h0.1h-0.1c0,0,0.4-0.2,0.4-0.3l-0.1,0.1
			c0-0.1,0.1-0.1,0.1-0.1v-0.1h0.1v0.1c0.2-0.2,0.4,0,0.4-0.3h0.1v0.2l0.1-0.2c0.1,0.1,0.2-0.1,0.2-0.2c-0.2,0.1-0.5-0.1-0.6-0.1
			v-0.1h-0.2c0.1,0.1,0,0.1,0,0.2l0.1,0.1h-0.1l-0.2,0.1v-0.1h-0.1c0-0.1,0,0,0,0v-0.1c0,0-0.1,0,0,0.1h-0.1l0.2,0.1
			c0.1,0.1,0,0.3-0.1,0.1v-0.1l-0.1,0.1l0.1,0.2h-0.1l0.1-0.1l-0.1,0.1v0.2h-0.2c-0.1,0,0-0.3,0.1-0.3c0,0-0.1-0.3-0.1-0.1h0.1h-0.1
			v0.2v-0.1c0,0-0.2,0.1-0.1,0.1h-0.1v-0.2v0.1h-0.2c0,0.1-0.1,0-0.1,0.1v0.1l0.1,0.1c-0.1,0.1-0.1,0.2-0.2,0.3h-0.2l0.1-0.1h-0.4
			v-0.1v0.2v-0.1h0.1c0,0.1-0.2,0.2-0.2,0.2c0.1,0,0.1,0.1,0,0.2h-0.2v-0.3l0.1,0.1l-0.1-0.2h-0.1c0,0,0-0.2-0.1-0.1
			c0-0.1,0.1-0.1,0.1-0.1h0.1l-0.1-0.1h0.1c-0.1,0.1,0.1,0,0.1,0h-0.1c0.1-0.1,0-0.1,0-0.2c0,0.1,0.1,0.1,0.2,0.1v0.1v-0.1
			c0.1,0,0.2,0,0.2-0.1h0.1l-0.1-0.1l0.1-0.1h0.1h-0.1v-0.2v0.1c0,0.1-0.1,0.1-0.1,0.1h-0.1l0.1-0.1l-0.1,0.1h0.1v0.1
			c-0.1-0.1-0.2,0-0.2,0.1h-0.1c0-0.1-0.2-0.2,0-0.2c0-0.1-0.3-0.3-0.2-0.4c0-0.1-0.1-0.4-0.2-0.6h0.1c0-0.1,0.4-0.6,0.4-0.8h0.1
			c0,0,0-0.4,0.2-0.2h-0.1h0.1v-0.3l-0.1,0.1c0-0.1-0.2-0.2-0.2-0.4c0.2,0,0.3,0,0.4-0.1c0-0.2-0.1-0.1-0.1-0.2h0.1v-0.1
			c0.2,0.1,0.1,0,0.3,0.2c0.1,0.1,0.1,0,0.1-0.1h0.1v-0.4c0.2-0.1,0.2-0.3,0.2-0.5c-0.1-0.2,0.1-0.2,0.1-0.3c0,0,0.2,0.1,0.1-0.1
			v-0.1c-0.2,0.2,0.1-0.1,0-0.2h0.1c0,0,0.1,0.2,0.2,0.1c-0.1-0.1,0-0.1,0-0.2h0.1c-0.1,0.1,0.3,0.3,0.4,0.3v0.1h-0.2l0.1,0.1
			c0-0.1,0-0.1,0.1-0.1v-0.1h-0.1V250l0.1,0.1h0.1V250h0.1v0.1c0,0,0.1,0,0.1-0.1h-0.1c0.1,0,0.2,0.1,0.1-0.1h0.1
			c-0.1-0.1,0.1-0.1,0.2-0.1c0-0.1-0.2-0.2-0.2-0.1l0.1-0.1c0-0.1-0.1,0.1-0.1,0.1v-0.1h-0.1v0.2v-0.1v0.1h-0.2l-0.1,0.2
			c0,0.1-0.1-0.2-0.1-0.4c-0.1-0.2-0.1-0.5,0-0.3c0-0.1,0-0.2-0.1-0.2s-0.1,0-0.1-0.2h0.3h-0.1l0.3-0.3h0.1c0-0.2,0.3-0.1,0.3,0
			c0.1-0.1,0.5-0.1,0.6-0.1c0-0.1,0.1-0.3,0.1-0.2h0.1V248l0.3-0.2h-0.1h0.3l0.1-0.1h0.1v-0.1c0-0.1-0.2-0.1-0.3-0.1h0.1
			c0-0.2-0.3-0.3-0.2-0.2v-0.1v0.2c-0.1-0.1,0,0-0.1,0.1c-0.1,0-0.2-0.3-0.2-0.4c0.1,0,0.2-0.2,0.1-0.2v-0.1c0,0,0.3-0.4,0.4-0.6
			l0.1-0.1l0.1-0.1c-0.1-0.1,0,0-0.1-0.2h-0.1l0.1-0.1h-0.1c-0.1,0-0.2-0.1-0.3,0.1l0.1,0.1h-0.2v-0.1l-0.1,0.1v0.2
			c0-0.1-0.2,0-0.2,0.1s-0.3,0.1-0.3,0h0.2c-0.1,0,0.1-0.3,0-0.3v-0.1l-0.2,0.1c0.2,0,0,0.2-0.1,0.3h-0.2v0.2h-0.2
			c0,0,0-0.2-0.1-0.1v0.1c0-0.2-0.4,0.2-0.2,0.2c0.1,0.1-0.2,0.1-0.2,0.1v0.1l0.1-0.1v0.1v-0.1v0.1h-0.1l-0.1,0.1v0.2h-0.2
			c0.1,0,0.1-0.2,0.1-0.2h-0.1c0,0.3-0.2,0.2-0.2,0.1l-0.1,0.1h0.1l-0.1-0.1v0.2c0-0.1,0-0.2,0.1-0.2l-0.3,0.1l0.1,0.1h-0.2
			l-0.2-0.2l-0.1,0.1c-0.1-0.1,0.1-0.5,0.1-0.7v0.1c0-0.2,0-0.4,0.1-0.4l0.1-0.2c0.2,0,0.2,0.1,0.3,0.2c-0.1-0.1,0,0,0,0h0.2
			c0,0,0-0.1-0.1-0.1h-0.2l-0.1-0.1l0.1-0.1v-0.5c-0.1,0,0,0.1,0,0.1c-0.2-0.3-0.1-0.3,0-0.5h0.3v-0.4l0.1-0.1
			c0.1,0,0.1,0.1,0.1,0.2l0.2-0.1c0.1-0.1,0.2-0.1,0.2,0.1l0.1-0.2v0.1c0,0,0.1-0.2,0-0.2v0.1c0-0.2-0.2-0.3-0.1-0.5l0.2-0.3
			c0.1-0.1,0.2-0.1,0.4-0.3h-0.1h0.3l0.1-0.1c0,0.1,0.1,0.2,0.1,0.2v-0.1c0.1,0.1,0.1,0,0.1,0c0-0.1,0.4-0.2,0.4-0.2v-0.4v0.1
			l0.1-0.1l0.2-0.1c0-0.1,0.2-0.1,0.2-0.3l0.1,0.1l-0.1-0.2h0.1v0.1h0.1c0,0,0-0.1,0,0v0.1l0.1,0.1v-0.1c0-0.1-0.1-0.2,0-0.3
			c0,0-0.5,0.2-0.6,0.2l-0.1-0.1c0,0-0.5,0.3-0.6,0.1h0.1l-0.3-0.1v0.1v-0.5c0.1-0.1,0.3,0,0.3-0.2c0,0,0.3,0,0.3,0.2
			c0.3-0.5,0.3-0.4,0.3-0.6c0,0,0.2-0.1-0.1,0l-0.1,0.1V241l0.1,0.1l0.1-0.2v0.1v-0.1v0.1v-0.3l0.1,0.2l0.1-0.4h0.3l-0.1,0.1h0.2
			l-0.1-0.1l-0.1-0.1c0.1,0,0,0,0-0.1c0-0.1-0.1-0.1-0.1-0.1s-0.3-0.1-0.3-0.3c0.1,0.2,0.1-0.2,0.1-0.2c0,0.1-0.1,0.1-0.2,0h-0.1
			c0-0.1,0-0.2,0.1-0.3h-0.1c0-0.1,0-0.2-0.1-0.3c0.2,0,0-0.3-0.1-0.3c-0.1-0.3,0.2-0.2,0.3-0.4h-0.1c0-0.2,0.3-0.4,0.5-0.4l0.2,0.2
			h0.1c-0.2,0-0.2-0.4-0.1-0.5c0.2,0,0.5-0.3,0.7-0.3l0.1,0.1c0.1,0.1,0.2,0.2,0.2,0.1v0.1c0-0.1,0.4-0.1,0.3,0.2c0,0,0.1,0,0.1,0.1
			l0.1-0.1c0.1,0,0.5,0,0.5,0.1l0.1-0.2c0-0.1,0.1-0.2,0.1-0.2v0.1h0.1v-0.1v0.1h0.3c0.1,0,0.3,0,0.3-0.1c0,0.3,0.2,0.2,0.2,0.4
			v-0.1v0.1v-0.1l0.1,0.1c0,0-0.1,0.1,0,0.2c-0.1,0.1,0,0.2,0,0.3v-0.1l-0.1,0.2c-0.1-0.1-0.2,0-0.3,0c0,0.2,0.2,0.3-0.1,0.4h0.1
			h-0.1c0,0,0.6,0.5,0.2,0.5c0,0,0.3,0.2,0.3,0l0.3-0.3v0.1c0.1,0,0.1-0.3,0.1-0.3h0.1c0.1-0.1,0.2-0.1,0.2,0.1
			c0.1-0.1,0.1-0.1,0-0.2v-0.2l0.2-0.1v0.3c0,0-0.1,0.2,0,0.3c0,0,0.4-0.2,0.2-0.3h0.3c0.1,0.1,0.2,0.2,0.1,0.4c0,0-0.1,0.2-0.2,0.3
			h0.1c0,0-0.1,0,0,0.2l0.1-0.1v0.2c0,0.2,0.2,0,0.2,0.3c0-0.1,0.1,0.3,0.1,0.4l0.1-0.1c0.1,0.2,0,0.3-0.1,0.4
			c0.1,0.1,0.1,0.1,0.1,0.3v0.1l0.2,0.1c0.1,0,0,0.1,0.1,0.2c0,0.2-0.1,0.2-0.1,0.2l-0.3,0.6l-0.3-0.2v0.1h0.1v0.3
			c0,0.1,0.2,0,0.2-0.2l0.1,0.1c0-0.2,0.1-0.1,0.2-0.2c0.1,0.1,0.3,0,0.2,0c0.1-0.2,0.2-0.1,0.4-0.1v0.1l0.1-0.1h0.1
			c0,0.2,0.1,0.2,0.2,0c0.2,0,0,0.5,0.1,0.6c0,0.1,0,0,0,0v0.2h0.2l-0.1,0.2l-0.2,0.2l0.1,0.2c-0.1,0,0,0.1-0.1,0.2
			c-0.2-0.5-0.2-0.3-0.1-0.2v0.1c0-0.1,0.1-0.1-0.1-0.1l-0.1,0.1c-0.2,0,0,0.2,0,0.3c0.1-0.2,0.2-0.1,0.3-0.1h0.2c0,0.1,0.1,0,0.2,0
			h0.1v0.1c0.1-0.1,0.3,0,0.3-0.4c0.1,0,0.1,0,0.2-0.1v0.1h0.1v0.1h0.1v0.2c0,0,0,0.1-0.1,0.2c0,0.1-0.1,0.2-0.2,0.2
			c0.1,0.1,0,0,0,0.1l0.2,0.1c0.1,0.1,0.2,0.2,0.3-0.1l0.3-0.2l0.1,0.2l0.1-0.1v0.1v-0.1h0.1l-0.1,0.4l-0.1-0.1l-0.1,0.1h-0.1v0.1
			l-0.1,0.1h0.1c0,0.2,0.2,0.2,0.3,0.3c0,0.3-0.1,0.3-0.3,0.4h0.1c0-0.2-0.1,0-0.1,0c-0.1,0.1-0.2,0.3-0.4,0.3v0.2V246v0.4
			c0,0-0.1-0.2-0.1,0.1l-0.1-0.3v0.2c0-0.1-0.1-0.1-0.2-0.1c0.1,0.1,0,0.1,0.1,0.3h-0.2v-0.2v0.1v-0.2l-0.2,0.2l-0.1-0.2v0.2
			l0.1,0.1v-0.1l0.1,0.1l0.1-0.1v0.1h0.1c0,0,0.1,0.1,0,0h0.1v0.1l0.2-0.1v0.2c0.1-0.1,0.1,0,0.3,0.1l0.1-0.1c0,0.2,0,0.3-0.2,0.3
			c0.1,0.1-0.2,0.2-0.2,0.2c-0.1,0-0.1-0.1-0.1,0.1h-0.2v0.1h-0.1v0.1v-0.1c0,0,0.1,0.1,0.1,0c0.2,0.1-0.3,0.3,0.3,0.1l0.1,0.1
			l0.1,0.1l-0.1,0.4h0.1h-0.1v0.3c0.2-0.1,0.1,0.2,0,0.2v0.2c0.5,0.1-0.3,0.7-0.2,0.5v-0.3h-0.2c-0.3,0,0-0.1-0.1-0.2h-0.1v0.1h-0.1
			c0.1,0,0.1,0,0.1,0.1c-0.1,0-0.2,0-0.1,0.1h-0.1h0.1h-0.1c-0.1,0,0.1,0.2,0.2,0.1l0.1,0.2v0.1c0.1-0.2,0.1,0,0.2,0.1v-0.1
			c0,0-0.1,0.3-0.2,0.2l0.1,0.1c-0.1,0-0.2,0.1-0.1,0.1c0.1-0.1,0.1,0.1,0.1,0.2h-0.6V250h-0.1v-0.1l-0.1,0.1h0.1l-0.3,0.2v0.1h-0.1
			v0.1c0,0,0-0.2-0.1,0h-0.1v0.1h0.1v0.2h-0.1l-0.2,0.3h0.1h-0.2c0,0,0.1-0.1,0.1,0v0.1c0.1,0.1,0.1,0.2,0.2,0.1v0.1
			c0.1,0,0-0.2,0.1-0.1c0,0,0.1,0.3,0.1,0.1v0.1c0,0,0.4,0,0.3,0.2v0.1l0.1-0.1c0.1,0,0.4,0,0.5-0.1c0,0.1,0.1,0.1,0.2,0v0.2
			l0.1-0.2c0,0.2,0.1-0.1,0.2-0.1h0.1v0.4l0.1-0.1v0.2l-0.1,0.1h0.1v0.2l0.2,0.2c0.1-0.1-0.1-0.1,0.1-0.1c0,0.1,0.1,0,0.1-0.1v0.1
			h0.3c0.1,0-0.1,0.1,0,0v-0.1h0.1v0.1c0,0.1,0.2,0,0.1,0.1v-0.1l0.3,0.5v-0.1v0.2c-0.2,0.3-0.1,0.3-0.3,0.3h-0.1h0.1h-0.1
			c-0.1,0-0.1,0.1-0.3,0c-0.1,0-0.2,0.1-0.2,0.2v0.2c0,0-0.2,0.2-0.2,0.1v0.1l-0.1,0.1c0,0,0.2,0.1,0.2,0l0.1-0.1
			c0.1-0.1,0.1-0.2,0.2,0.1c0,0,0.1-0.2,0.1,0c0-0.1,0.1-0.1,0.1,0h0.1v-0.1v0.1v-0.1l0.1,0.1l0.2-0.1v0.1c0.1-0.2,0.4-0.4,0.5-0.4
			c0,0.2,0.3,0.1,0.2,0h0.2v0.5c-0.2,0-0.4,0-0.5,0.2h-0.2v0.2l-0.1,0.1v0.2h0.1v0.2l0.2,0.2v0.1v-0.1h-0.5l-0.3,0.3h-0.1l-0.1,0.1
			v-0.1h-0.2c-0.1,0.1-0.3,0.2-0.4,0.3l-0.1-0.2l-0.1-0.1l-0.1,0.1l-0.1,0.2v0.1l-0.1,0.1c0.1-0.1,0.1,0,0.1,0l-0.1,0.1v-0.1
			l-0.1-0.1v0.1l-0.1,0.1l-0.1-0.1h0.1h-0.1c0-0.1,0,0,0.1-0.1l-0.1-0.1c0,0.3-0.1,0.2,0.1,0.4h-0.2h0.1v0.1c-0.1,0,0,0.1,0,0.2
			v-0.1l-0.1,0.2c0.2,0.1,0.2,0.1,0.1,0.1l-0.2-0.1l-0.4-0.3c0.1-0.2,0-0.1,0-0.2c0-0.1-0.1-0.1,0.1-0.2v-0.1l-0.1,0.1v-0.1
			c-0.1,0-0.3-0.1-0.3-0.2h0.1v-0.1h0.1v-0.1l0.1,0.1l0.1,0.1v0.1c0.1-0.1,0-0.2,0-0.3h-0.1v-0.1v0.1l-0.1,0.1l0.1,0.1h-0.1v-0.1
			c0,0-0.1-0.1-0.1,0v-0.2l0.2-0.1h-0.1l0.1-0.1v-0.2c0.1-0.2-0.2-0.2-0.1-0.2h-0.1v-0.2c0.1,0,0.1-0.1,0-0.1v0.1
			c-0.1-0.2,0-0.1,0-0.4h-0.1l0.1,0.1c-0.1,0-0.5-0.2-0.4-0.4v0.1c0.1-0.1,0-0.1,0-0.1v-0.1l-0.2,0.2l0.1,0.3l-0.1,0.2h-0.1
			c0,0-0.5,0.3-0.4,0.1h-0.3c0-0.1-0.3-0.1-0.3,0v0.1h0.1l0.1,0.1l-0.1,0.1c0,0,0.1,0.1,0.1,0.2c0.2,0,0.3,0.1,0.6,0.2V255l0.1,0.1
			v0.1h0.3c-0.1,0.1,0.2,0.1,0.2,0.1l-0.1,0.2c0.1-0.1,0.3,0.2,0.1,0.2c0-0.1-0.1-0.2-0.2-0.2v-0.2l-0.1,0.1c0-0.1,0,0-0.1,0.1v-0.1
			l-0.2-0.1h-0.2h0.1h-0.1c0-0.1-0.1-0.1-0.2-0.1h0.1v0.1c0-0.1,0-0.2-0.2-0.2h-0.1v0.1h-0.1v0.1l-0.2,0.2c-0.1-0.2-0.3-0.2-0.4-0.1
			v-0.1l-0.2-0.1h-0.1v-0.1v0.1v-0.1l-0.3-0.1h-0.2h0.1l-0.2-0.1v0.2l-0.1,0.1v-0.1h-0.2v0.1h-0.1v0.2h0.1v0.1h-0.1
			c0,0.1,0,0.1,0.1,0.1l0.1,0.1h-0.1h0.1c0.1,0.1-0.1,0.2,0.1,0.3l-0.2,0.2l-0.1-0.1h-0.1V256l-0.1,0.1l-0.1,0.1v9.8
			c0,2.3,1.9,4.2,4.2,4.2h8.5c8.8,0,11.9-4.1,13-8c0.4-1.6,0.6-3.2,0.6-4.3v0.2v-2.4c0-0.4-0.3-0.7-0.7-0.7h-7.8
			c-0.4,0-0.7,0.3-0.7,0.7v0.3c0,3.6-0.5,5.2-4.3,5.2c-4,0-4.3-2.5-4.3-6.5v-7.6c0-4,0.3-6.5,4.2-6.5h0.1c3.9,0,4.3,1.6,4.3,5.4v0.4
			c0.1,0.3,0.4,0.6,0.7,0.6h7.8c0.3,0,0.6-0.2,0.7-0.5v-2.1c0-1-0.1-3.1-0.5-4.7c-1-3.8-3.9-7.9-12.3-8.1h-2.4
			C-154,231.2-157.1,233.5-158.8,236.3"/>
	</defs>
	<clipPath id="SVGID_2_">
		<use xlink:href="#SVGID_1_"  style="overflow:visible;"/>
	</clipPath>
	<path class="st1" d="M-188,231.2h55.9V270H-188V231.2z"/>
</g>
<g>
	<path class="st0" d="M-132.1,269.6l0.3-0.3c0.3,0.2,0.5,0.3,0.8,0.3c0.3,0,0.5-0.1,0.5-0.3v0c0-0.2-0.1-0.3-0.6-0.4
		c-0.6-0.1-0.9-0.3-0.9-0.8v0c0-0.5,0.4-0.8,0.9-0.8c0.4,0,0.7,0.1,1,0.3l-0.3,0.4c-0.2-0.2-0.5-0.3-0.7-0.3c-0.3,0-0.4,0.1-0.4,0.3
		v0c0,0.2,0.1,0.3,0.6,0.4c0.6,0.1,0.9,0.3,0.9,0.8v0c0,0.5-0.4,0.8-1,0.8C-131.4,270-131.8,269.9-132.1,269.6z"/>
	<path class="st0" d="M-129.5,267.3h0.5l0.8,1.3l0.8-1.3h0.5v2.7h-0.5V268l-0.8,1.3h0l-0.8-1.2v1.9h-0.5V267.3z"/>
</g>
</svg>
