<?xml version="1.0" encoding="utf-8"?>
<!-- Generator: Adobe Illustrator 19.1.0, SVG Export Plug-In . SVG Version: 6.00 Build 0)  -->
<!DOCTYPE svg PUBLIC "-//W3C//DTD SVG 1.1//EN" "http://www.w3.org/Graphics/SVG/1.1/DTD/svg11.dtd">
<svg version="1.1" id="Layer_1" xmlns="http://www.w3.org/2000/svg" xmlns:xlink="http://www.w3.org/1999/xlink" x="0px" y="0px"
	 viewBox="-296 462.4 168.7 39" style="enable-background:new -296 462.4 168.7 39;" xml:space="preserve">
<style type="text/css">
	.st0{fill:#FFFFFF;}
	.st1{clip-path:url(#SVGID_2_);fill:#FFFFFF;}
</style>
<path class="st0" d="M-177.8,471.3h2.3l0.3-1h-2.4l0.5-2.3l-1.8,0.6l-0.3,1.7h-1.3l-0.3,1h1.3l-1.2,5.2c-0.3,1.5,0,2.4,1.2,2.4
	c1,0,1.7-0.9,2.5-2.3l-0.2-0.2c-0.8,1.1-1.2,1.6-1.6,1.6c-0.5,0-0.4-0.7-0.3-1C-179.1,477-177.8,471.3-177.8,471.3z M-189.8,475.5
	c-0.1,2.1,1.3,3.4,3,3.4c1.3,0,2.8-0.7,4-2.5l-0.2-0.2c-1,1-2.2,1.5-3,1.5c-1.3,0-2.2-0.8-2-2.5c2.1-0.1,5.7-0.5,5.9-3
	c0.1-1.3-1.2-2.1-2.6-2.1C-187,470.1-189.5,472.2-189.8,475.5L-189.8,475.5z M-184.9,471.2c0.5,0,1.1,0.3,1.1,1
	c-0.1,1.2-1.7,2-4.1,2.1C-187.5,472.8-186.4,471.2-184.9,471.2z M-192.8,472.9c-0.7,3-2.2,4.6-3.4,4.6c-1.2,0-1.8-1.5-1.1-3.5
	c0.5-1.5,1.9-2.9,3.5-2.9c0.5,0,1,0.1,1.4,0.2L-192.8,472.9z M-193.7,470.1c-3.1-0.1-4.8,2.2-5.4,4.1c-0.8,2.8,0.6,4.7,2.2,4.7
	c1.1,0,2.1-0.5,3.1-1.9l-0.2,0.9c-0.4,1.8-1.2,3.3-3.2,3.3c-0.6,0-1.8-0.3-1.6-1.1l-0.2-0.1c-0.4,0.6-0.7,1.3-0.7,1.8
	c0.6,0.3,1.5,0.5,2.4,0.5c2.7,0,4.4-2.2,5-4.7l1.1-5c0.1-0.4,0.2-0.9,0.7-1.6l0.1-0.1C-191.5,470.5-192.5,470.1-193.7,470.1
	L-193.7,470.1z M-204,470.1c-3.1-0.1-4.8,2.2-5.4,4.1c-0.8,2.8,0.6,4.7,2.2,4.7c1.1,0,2.2-0.5,3.3-2.2h0.1c-0.3,1.1-0.2,2.1,1,2.1
	c0.8,0,1.4-0.8,2.1-2l-0.3-0.2c-0.6,0.7-0.9,1.2-1.2,1.2c-0.4,0-0.3-0.5-0.2-0.7l1.7-7.3c0.1-0.5,0.6-2.5,1.2-3.6v-0.1l-2.8,0.3
	l-0.1,0.2l0.5,0.5c0.1,0.1,0.2,0.3,0.1,0.6l-0.6,2.7C-203,470.2-203.4,470.1-204,470.1z M-203,472.9c-0.7,3-2.2,4.6-3.4,4.6
	s-1.8-1.5-1.1-3.5c0.5-1.5,1.9-2.9,3.5-2.9c0.5,0,1,0.1,1.4,0.2L-203,472.9z M-213.3,473c-0.7,3-2.2,4.6-3.4,4.6
	c-1.2,0-1.1-0.9-0.7-2.4l0.9-3.8c0.3-1.1,0.2-1.2-0.2-1.2l-2.1,0.2l-0.1,0.2l0.5,0.5c0.1,0.1,0.2,0.3,0.1,0.6l-0.9,3.7
	c-0.6,2.5,0.2,3.7,1.8,3.7c1,0,2.2-0.6,3.3-2.2h0.1c-0.3,1.1-0.2,2.1,1,2.1c0.8,0,1.4-0.8,2.1-2l-0.3-0.2c-0.6,0.7-0.9,1.2-1.2,1.2
	c-0.4,0-0.3-0.5-0.2-0.7l1.6-7c0-0.1,0-0.1-0.1-0.1l-1.4,0.1c-0.1,0-0.2,0.1-0.2,0.2L-213.3,473L-213.3,473z M-226,471.7l0.8-3.7
	h0.6c1,0,2.1,0.4,1.9,1.8c-0.1,1-0.8,1.8-2.1,1.8L-226,471.7L-226,471.7z M-225.5,472.8c1.7,0,2.7,0.8,2.5,2.7
	c-0.1,1-0.8,2.2-2.6,2.2h-1.8l1.1-4.9H-225.5z M-222.9,472.4c1.2-0.7,2-1.5,2.1-2.7c0.2-1.4-0.8-2.8-3.5-2.8h-2.7l-0.2,0.3
	c0.3,0.6,0.1,1.8-0.5,4l-1.5,6.6c-0.1,0.2-0.2,0.4-0.4,0.6l-0.4,0.3c-0.1,0.1-0.1,0.2,0,0.2h4c2,0,4.4-0.7,4.7-3.4
	C-221,473.9-221.7,472.9-222.9,472.4z M-129.9,490h2.3l0.3-1h-2.4l0.5-2.3l-1.8,0.6l-0.4,1.7h-1.1l-0.3,1h1.3l-1.2,5.2
	c-0.3,1.5,0,2.4,1.2,2.4c1,0,1.7-0.9,2.5-2.3l-0.3-0.2c-0.8,1.1-1.2,1.6-1.6,1.6c-0.5,0-0.4-0.7-0.3-1L-129.9,490L-129.9,490z
	 M-141.3,494.8c0.7-3,2.2-4.6,3.4-4.6c1.2,0,1.1,0.9,0.7,2.4l-0.6,2.8c-0.3,1.3,0,2.1,1.1,2.1c0.9,0,1.5-0.8,2.2-2l-0.3-0.2
	c-0.6,0.7-0.9,1.2-1.2,1.2c-0.4,0-0.3-0.5-0.2-0.7l0.8-3.3c0.6-2.5-0.2-3.7-1.8-3.7c-0.9,0-2.2,0.5-3.2,2h-0.1l0.2-0.8
	c0.3-1.1,0.2-1.2-0.2-1.2l-1.9,0.2l-0.1,0.2l0.5,0.5c0.1,0.1,0.2,0.3,0.1,0.6l-1.4,5.9c-0.1,0.3-0.1,0.6-0.3,0.7l-0.5,0.4v0.2h2
	c0.1,0,0.2-0.1,0.2-0.2L-141.3,494.8z M-151.8,494.3c-0.1,2.1,1.3,3.4,3,3.4c1.3,0,2.8-0.7,4-2.5l-0.2-0.2c-1,1-2.2,1.5-3,1.5
	c-1.3,0-2.2-0.8-2-2.5c2.1-0.1,5.7-0.5,5.9-3c0.1-1.3-1.2-2.1-2.6-2.1C-149,488.9-151.6,491-151.8,494.3L-151.8,494.3z M-146.9,490
	c0.5,0,1.1,0.3,1.1,1c-0.1,1.2-1.7,2-4.1,2.1C-149.5,491.6-148.4,490-146.9,490z M-164.7,497.5c0.1,0,0.2-0.1,0.2-0.2l0.8-3.5
	c0.5-2,1.8-3.6,2.8-3.6c0.8,0,1,0.5,0.7,1.6l-1.3,5.6c0,0.1,0,0.1,0.1,0.1h1.3c0.1,0,0.2-0.1,0.2-0.2l0.8-3.5c0.4-2,1.8-3.6,2.8-3.6
	c0.8,0,1,0.5,0.7,1.6l-0.8,3.6c-0.3,1.3,0,2.1,1.1,2.1c0.9,0,1.5-0.8,2.2-2l-0.3-0.2c-0.6,0.7-0.9,1.2-1.2,1.2
	c-0.4,0-0.3-0.5-0.2-0.7l0.8-3.5c0.6-2.5-0.3-3.5-1.6-3.5c-1,0-2,0.6-2.9,2l-0.1,0.2c0.2-1.3-0.3-2.2-1.7-2.2c-1,0-2,0.6-2.9,2
	l0.2-0.8c0.3-1.1,0.2-1.2-0.2-1.2l-1.9,0.2l-0.1,0.2l0.5,0.5c0.1,0.1,0.2,0.3,0.1,0.6l-1.4,5.9c-0.1,0.3-0.1,0.6-0.3,0.7l-0.5,0.4
	v0.2L-164.7,497.5L-164.7,497.5z M-174.4,494.3c-0.1,2.1,1.3,3.4,3,3.4c1.3,0,2.8-0.7,4-2.5l-0.2-0.2c-1,1-2.2,1.5-3,1.5
	c-1.3,0-2.2-0.8-2-2.5c2.1-0.1,5.7-0.5,5.9-3c0.1-1.3-1.2-2.1-2.6-2.1C-171.6,488.9-174.2,491-174.4,494.3L-174.4,494.3z
	 M-169.5,490c0.5,0,1.1,0.3,1.1,1c-0.1,1.2-1.7,2-4.1,2.1C-172.1,491.6-171.1,490-169.5,490z M-177.5,491.7c-0.7,3-2.2,4.6-3.4,4.6
	c-1.2,0-1.8-1.5-1.1-3.5c0.5-1.5,1.9-2.9,3.5-2.9c0.5,0,1,0.1,1.4,0.2L-177.5,491.7z M-178.4,488.9c-3.1-0.1-4.8,2.2-5.4,4.1
	c-0.8,2.8,0.6,4.7,2.2,4.7c1.1,0,2.1-0.5,3.1-1.9l-0.2,0.9c-0.4,1.8-1.2,3.3-3.2,3.3c-0.6,0-1.8-0.3-1.6-1.1l-0.2-0.1
	c-0.4,0.6-0.7,1.3-0.7,1.8c0.6,0.3,1.5,0.5,2.4,0.5c2.7,0,4.4-2.2,5-4.7l1.1-5c0.1-0.4,0.2-0.9,0.7-1.6l0.1-0.1
	C-176.2,489.2-177.2,488.9-178.4,488.9L-178.4,488.9z M-187.7,491.7c-0.7,3-2.2,4.6-3.4,4.6c-1.2,0-1.8-1.5-1.1-3.5
	c0.5-1.5,1.9-2.9,3.5-2.9c0.5,0,1,0.1,1.4,0.2L-187.7,491.7z M-186,491.4c0.1-0.4,0.2-0.9,0.7-1.6l0.1-0.1c-1.2-0.6-2.6-0.9-3.3-0.9
	c-3.1,0-4.8,2.2-5.4,4.1c-0.8,2.8,0.6,4.7,2.2,4.7c1.1,0,2.2-0.5,3.3-2.2h0.1c-0.3,1.1-0.2,2.1,1,2.1c0.8,0,1.4-0.8,2.1-2l-0.3-0.2
	c-0.6,0.7-0.9,1.2-1.2,1.2c-0.4,0-0.3-0.5-0.2-0.7L-186,491.4L-186,491.4z M-202.3,494.8c0.7-3,2.2-4.6,3.4-4.6
	c1.2,0,1.1,0.9,0.7,2.4l-0.6,2.8c-0.3,1.3,0,2.1,1.1,2.1c0.9,0,1.5-0.8,2.2-2l-0.3-0.2c-0.6,0.7-0.9,1.2-1.2,1.2
	c-0.4,0-0.3-0.5-0.2-0.7l0.8-3.3c0.6-2.5-0.2-3.7-1.8-3.7c-0.9,0-2.2,0.5-3.2,2h-0.1l0.2-0.8c0.3-1.1,0.2-1.2-0.2-1.2l-1.9,0.2
	l-0.1,0.2l0.5,0.5c0.1,0.1,0.2,0.3,0.1,0.6l-1.4,5.9c-0.1,0.3-0.1,0.6-0.3,0.7l-0.5,0.4v0.2h2c0.1,0,0.2-0.1,0.2-0.2
	C-202.9,497.3-202.3,494.8-202.3,494.8z M-207.9,491.7c-0.7,3-2.2,4.6-3.4,4.6s-1.8-1.5-1.1-3.5c0.5-1.5,1.9-2.9,3.5-2.9
	c0.5,0,1,0.1,1.4,0.2C-207.5,490.1-207.9,491.7-207.9,491.7z M-206.2,491.4c0.1-0.4,0.2-0.9,0.7-1.6l0.1-0.1
	c-1.2-0.6-2.6-0.9-3.3-0.9c-3.1,0-4.8,2.2-5.4,4.1c-0.8,2.8,0.6,4.7,2.2,4.7c1.1,0,2.2-0.5,3.3-2.2h0.1c-0.3,1.1-0.2,2.1,1,2.1
	c0.8,0,1.4-0.8,2.1-2l-0.3-0.2c-0.6,0.7-0.9,1.2-1.2,1.2c-0.4,0-0.3-0.5-0.2-0.7C-207.1,495.8-206.2,491.4-206.2,491.4z
	 M-219.2,496.3c0,0.2-0.2,0.4-0.4,0.6l-0.7,0.5c-0.1,0.1-0.1,0.2,0,0.2h3.3c0.1,0,0.1-0.1,0.1-0.2l-0.5-0.5
	c-0.1-0.1-0.2-0.3-0.1-0.6l1.5-6.6c0.5-2.2,0.9-3.1,1.5-3.6v-0.3h-2.3l-6,8.8l-2-8.8h-2.2l-0.2,0.3c0.3,0.6,0.3,1.4-0.2,3.6
	l-1.5,6.6c0,0.2-0.2,0.4-0.4,0.6l-0.7,0.5c-0.1,0.1-0.1,0.2,0,0.2h2.9c0.1,0,0.1-0.1,0.1-0.2l-0.5-0.5c-0.2-0.1-0.2-0.3-0.2-0.6
	l1.7-7.5l2,8.7l0.3-0.1c0.2-0.1,0.3-0.2,0.4-0.4l5.8-8.4L-219.2,496.3L-219.2,496.3z M-143.8,470.1c-3.1-0.1-4.8,2.2-5.4,4.1
	c-0.8,2.8,0.6,4.7,2.2,4.7c1.1,0,2.2-0.5,3.3-2.2h0.1c-0.3,1.1-0.2,2.1,1,2.1c0.8,0,1.4-0.8,2.1-2l-0.3-0.2
	c-0.6,0.7-0.9,1.2-1.2,1.2c-0.4,0-0.3-0.5-0.2-0.7l1.7-7.3c0.1-0.5,0.6-2.5,1.2-3.6v-0.1l-2.8,0.3l-0.1,0.2l0.5,0.5
	c0.1,0.1,0.2,0.3,0.1,0.6l-0.6,2.7C-142.8,470.1-143.3,470.1-143.8,470.1z M-142.9,472.9c-0.7,3-2.2,4.6-3.4,4.6
	c-1.2,0-1.8-1.5-1.1-3.5c0.5-1.5,1.9-2.9,3.5-2.9c0.5,0,1,0.1,1.4,0.2C-142.5,471.3-142.9,472.9-142.9,472.9z M-157.5,476
	c0.7-3,2.2-4.6,3.4-4.6s1.1,0.9,0.7,2.4l-0.6,2.8c-0.3,1.3,0,2.1,1.1,2.1c0.9,0,1.5-0.8,2.2-2l-0.3-0.2c-0.6,0.7-0.9,1.2-1.2,1.2
	c-0.4,0-0.3-0.5-0.2-0.7l0.8-3.3c0.6-2.5-0.2-3.7-1.8-3.7c-0.9,0-2.2,0.5-3.2,2h-0.1l0.2-0.8c0.3-1.1,0.2-1.2-0.2-1.2l-1.9,0.2
	l-0.1,0.2l0.5,0.5c0.1,0.1,0.2,0.3,0.1,0.6l-1.4,5.9c-0.1,0.3-0.1,0.6-0.3,0.7l-0.5,0.4v0.2h2c0.1,0,0.2-0.1,0.2-0.2L-157.5,476z
	 M-163,472.9c-0.7,3-2.2,4.6-3.4,4.6c-1.2,0-1.8-1.5-1.1-3.5c0.5-1.5,1.9-2.9,3.5-2.9c0.5,0,1,0.1,1.4,0.2
	C-162.6,471.3-163,472.9-163,472.9z M-161.4,472.6c0.1-0.4,0.2-0.9,0.7-1.6l0.1-0.1c-1.2-0.6-2.6-0.9-3.3-0.9
	c-3.1,0-4.8,2.2-5.4,4.1c-0.8,2.8,0.6,4.7,2.2,4.7c1.1,0,2.2-0.5,3.3-2.2h0.1c-0.3,1.1-0.2,2.1,1,2.1c0.8,0,1.4-0.8,2.1-2l-0.3-0.2
	c-0.6,0.7-0.9,1.2-1.2,1.2c-0.4,0-0.3-0.5-0.2-0.7C-162.3,477-161.4,472.6-161.4,472.6z M-270.7,488.7l0.1-0.1L-270.7,488.7
	 M-270.9,488.4L-270.9,488.4L-270.9,488.4 M-270,488.3v0.4h0.1C-270,488.5-269.9,488.4-270,488.3 M-272.1,487.8
	c0.1,0.1-0.1,0.2,0,0.2V487.8 M-270.7,487.6l0.1,0.1v-0.1H-270.7 M-269.2,487.6L-269.2,487.6l0.1,0.1l0.1-0.1H-269.2 M-270.1,487.4
	L-270.1,487.4L-270.1,487.4 M-270.3,487.4C-270.4,487.5-270.3,487.5-270.3,487.4L-270.3,487.4 M-269.4,487.4L-269.4,487.4
	L-269.4,487.4 M-270,487.2l0.1,0.1C-269.8,487.3-269.8,487.2-270,487.2C-269.8,487.3-269.9,487.2-270,487.2
	C-269.9,487.3-269.9,487.2-270,487.2 M-270.5,487.2C-270.4,487.2-270.4,487.2-270.5,487.2 M-269.6,487.1l-0.1,0.1L-269.6,487.1
	L-269.6,487.1 M-267.8,487v0.1V487c0,0.1-0.1,0.2-0.1,0.2h0.1c0,0,0-0.1,0,0V487 M-270.4,487.1l0.1-0.1L-270.4,487.1z M-270.3,486.8
	C-270.2,486.8-270.3,486.9-270.3,486.8L-270.3,486.8L-270.3,486.8 M-271.5,486.9L-271.5,486.9l-0.1-0.1c0,0.1-0.2,0.4-0.3,0.3
	C-271.9,487.4-271.5,486.9-271.5,486.9l0.1-0.1L-271.5,486.9 M-269.1,486.7L-269.1,486.7C-269.2,487-269.1,486.9-269.1,486.7
	L-269.1,486.7 M-268.6,486.7L-268.6,486.7l0.1-0.1L-268.6,486.7l0.1-0.1L-268.6,486.7 M-261.8,486.7L-261.8,486.7v0.2V486.7
	L-261.8,486.7c0,0.2,0,0.3,0.1,0.2h-0.1V486.7l0.1,0.2l0.1-0.1v0.1C-261.6,486.8-261.5,486.6-261.8,486.7
	C-261.6,486.6-261.7,486.7-261.8,486.7C-261.7,486.7-261.8,486.6-261.8,486.7L-261.8,486.7 M-272.4,486.5
	C-272.5,486.4-272.4,486.6-272.4,486.5 M-268.2,486.4C-268.1,486.5-268.2,486.4-268.2,486.4v-0.1V486.4 M-267.9,486.2L-267.9,486.2
	L-267.9,486.2L-267.9,486.2 M-264.5,486.2L-264.5,486.2c0.2,0.1,0.2,0.1,0.2,0h0.1v-0.1L-264.5,486.2 M-260,486.2L-260,486.2
	L-260,486.2L-260,486.2 M-266.2,486.4l0.2-0.1h-0.2v-0.1V486.4 M-264.5,486.3v-0.2C-264.5,486.1-264.6,486.3-264.5,486.3
	 M-268.1,486.3v0.2C-268.1,486.4-268,486.4-268.1,486.3L-268.1,486.3v-0.2V486.3v-0.2V486.3v-0.2V486.3 M-271.2,486.1v0.2V486.1
	 M-264.4,486v0.1V486l0.1,0.1L-264.4,486 M-262.1,486c0,0.1,0.1,0.3,0.1,0.3h0.2L-262.1,486L-262.1,486L-262.1,486 M-261.9,485.9
	C-262.1,486-261.9,485.9-261.9,485.9 M-271,485.9h-0.1c0,0.1-0.1,0.3-0.1,0.3l0.1-0.1C-271.1,486-271,486-271,485.9h0.3H-271
	 M-261.8,485.9l0.1,0.2v0.1L-261.8,485.9L-261.8,485.9C-261.7,485.8-261.7,485.9-261.8,485.9l0.1-0.1L-261.8,485.9 M-262.2,485.8
	v0.3l0.1,0.1L-262.2,485.8 M-262,485.7L-262,485.7L-262,485.7C-261.9,485.7-261.9,485.8-262,485.7 M-265.7,485.7
	C-265.8,485.8-265.7,485.8-265.7,485.7L-265.7,485.7L-265.7,485.7L-265.7,485.7 M-264.5,486L-264.5,486l-0.1-0.2
	C-264.6,485.9-264.6,486-264.5,486 M-262.3,485.8l-0.1-0.2L-262.3,485.8 M-263.5,485.7L-263.5,485.7L-263.5,485.7 M-267.7,485.6
	l0.2,0.1v-0.2l-0.2-0.1V485.6 M-266.2,485.4v0.2V485.4 M-271.8,485.4v0.2V485.4v0.2V485.4 M-267.4,485.4L-267.4,485.4
	C-267.3,485.6-267.4,485.5-267.4,485.4 M-272.4,485.4C-272.4,485.3-272.3,485.4-272.4,485.4 M-271.7,485.3
	C-271.7,485.3-271.9,485.4-271.7,485.3 M-273,485.3c0,0.1-0.2,0.1-0.1,0.1l0.1,0.1V485.3L-273,485.3L-273,485.3l0.1,0.1L-273,485.3
	 M-262.5,485.2l0.1,0.1v0.1c0.1,0-0.1,0,0,0.1h0.1c0,0.2,0,0.1,0.1,0.1l0.1,0.1v-0.2v0.1l-0.3-0.2L-262.5,485.2L-262.5,485.2
	 M-271.5,485.3v-0.1C-271.7,485.2-271.6,485.3-271.5,485.3 M-266.1,485.3C-266.2,485.3-266.1,485.3-266.1,485.3
	C-266.2,485.3-266.5,485.3-266.1,485.3l0.1-0.1V485L-266.1,485.3 M-270.4,485.2h0.1H-270.4 M-263,484.9v0.1V484.9L-263,484.9
	 M-270.8,485l-0.2,0.2h0.1l0.1,0.2h0.1l0.1-0.1C-270.7,485.4-270.7,485.1-270.8,485l0.1,0.1C-270.6,485-270.7,484.9-270.8,485
	 M-270.2,485v0.1V485l0.2-0.2h-0.3L-270.2,485 M-264,485l0.1,0.1v0.3v-0.1h0.1c0.1-0.1,0.2,0,0.2,0l0.1-0.1c-0.1,0,0,0,0,0L-264,485
	c0-0.2,0-0.3-0.1-0.3C-264.1,484.8-264.1,484.9-264,485 M-269,484.6c0,0.1,0,0.2-0.1,0.2c0,0.1,0.1,0.3,0.1,0.3h-0.1
	c0,0.1,0.1,0.1,0,0.2s0.1,0.1,0.2,0.2c0,0.1,0.4,0.3,0.5,0.1v-0.2c0,0.1,0.1-0.1,0.1-0.1c0,0.1,0.1-0.1,0.1-0.1v-0.1l-0.1,0.1
	c-0.1-0.1,0.1-0.2,0-0.2v-0.1c0,0.1,0.2-0.1,0.2-0.1l-0.1-0.1l0.1,0.1h-0.2l-0.3,0.4c0-0.2-0.1-0.3-0.2-0.4h0.1l-0.1-0.1h0.1
	l-0.1-0.1L-269,484.6 M-268.7,484.5v0.2h0.1v0.1c0-0.1,0.1-0.1,0.1-0.2L-268.7,484.5 M-263.8,484.4l0.1,0.1l0.1-0.1
	c-0.1,0.2,0.1,0.2,0.2,0.2v0.2v-0.1v0.1l0.1-0.1c0,0.1,0.1,0.1,0.1-0.1h-0.1l0.1-0.2h-0.1l-0.1-0.1c-0.1,0.1-0.1,0.1-0.1,0l-0.1,0.1
	c-0.1,0-0.2,0-0.2-0.1V484.4 M-264.7,484.3l0.1,0.1C-264.6,484.2-264.7,484.3-264.7,484.3 M-260.4,484.2
	C-260.4,484.2-260.5,484.3-260.4,484.2 M-263.9,484.3c0,0-0.2,0.1-0.1,0.1L-263.9,484.3v0.2C-263.9,484.8-263.6,484.5-263.9,484.3
	 M-265.2,484.2c0,0.2,0.1,0.1,0.1,0.2l0.3-0.2c-0.1,0-0.2-0.1-0.3-0.1L-265.2,484.2 M-260.3,484.3L-260.3,484.3
	C-260.3,484.2-260.4,484.3-260.3,484.3 M-272.8,483.9C-272.7,483.9-272.7,483.9-272.8,483.9 M-272.6,483.9L-272.6,483.9
	L-272.6,483.9 M-269.1,483.8l-0.1,0.1L-269.1,483.8L-269.1,483.8 M-266.3,483.7L-266.3,483.7L-266.3,483.7 M-272.7,483.6l0.2,0.1
	l-0.1,0.1l0.1,0.1l0.1-0.1v-0.1l-0.2-0.2L-272.7,483.6 M-268.7,483.4h0.1H-268.7l0.2,0.1l-0.1-0.1H-268.7 M-269.4,483.4
	L-269.4,483.4L-269.4,483.4L-269.4,483.4 M-269,483.5C-269.1,483.5-269.1,483.6-269,483.5v0.2l0.1,0.1h0.1l0.1-0.1c0,0-0.1,0.2,0,0
	v0.1h0.2c0-0.2-0.2-0.1-0.2-0.2c0.1-0.1-0.1-0.1-0.2-0.1H-269l0.2-0.1C-268.8,483.3-269.2,483.4-269,483.5 M-265.6,483.4v0.1V483.4z
	 M-265.7,483.4c0-0.1,0.1-0.2,0-0.1V483.4v-0.2h-0.1C-265.8,483.4-265.7,483.4-265.7,483.4 M-268.4,483.3L-268.4,483.3L-268.4,483.3
	C-268.4,483.2-268.5,483.2-268.4,483.3 M-265.2,483.2c0,0-0.1,0.2-0.1,0.3L-265.2,483.2L-265.2,483.2 M-267.5,483.2
	c0,0.1-0.2,0.1-0.2,0.2l0.1,0.1v0.1l-0.2,0.2l0.3,0.1l0.1-0.1l0.1,0.1h0.2l0.1,0.1c0-0.1,0-0.3-0.1-0.3v0.1v-0.4v0.1
	c0,0-0.1-0.1,0-0.1h-0.3C-267.3,483.4-267.4,483.2-267.5,483.2C-267.6,483.3-267.4,483.2-267.5,483.2 M-266,483.2
	C-266.1,483.3-266,483.2-266,483.2 M-267.4,483.2l0.1,0.1C-267.2,483.2-267.3,483.2-267.4,483.2 M-268,483.1L-268,483.1L-268,483.1
	v0.3h0.1c0-0.1,0-0.1,0,0l-0.1-0.1C-267.9,483.3-268,483.2-268,483.1 M-269.4,483.1c-0.2,0.1,0,0.2,0,0.2V483.1 M-266.3,483.1
	C-266.3,483.2-266.3,483.4-266.3,483.1l0.1,0.2L-266.3,483.1 M-266.1,483c0,0,0,0.3,0.1,0.2c0.1,0.1,0.1,0.2,0.2,0.2l-0.1-0.1
	l0.1-0.1v-0.1c0,0-0.1,0.1,0,0h-0.1c0.1,0,0,0,0,0S-265.9,483-266.1,483 M-268.3,482.9L-268.3,482.9L-268.3,482.9 M-265.7,482.8
	L-265.7,482.8L-265.7,482.8 M-269.1,482.8C-269.1,482.9-269.1,482.8-269.1,482.8 M-265.1,482.9c0,0.1,0.2,0.3,0.2,0.4v0.1v-0.2v0.1
	v-0.5C-265,483-265,482.9-265.1,482.9l0.1-0.2L-265.1,482.9 M-272,482.8h0.1H-272 M-266.3,482.8l0.2,0.1l0.1-0.1v-0.1h-0.1l-0.1-0.1
	L-266.3,482.8 M-264.8,482.7h0.3C-264.5,482.6-264.6,482.6-264.8,482.7L-264.8,482.7 M-264.5,482.6l0.1,0.1L-264.5,482.6
	 M-265.9,482.6L-265.9,482.6L-265.9,482.6 M-265.1,482.5l0.1,0.1L-265.1,482.5 M-266.1,482.6v-0.1
	C-266.2,482.6-266.2,482.6-266.1,482.6 M-265.2,482.6l0.1-0.1L-265.2,482.6 M-265.6,482.4L-265.6,482.4c-0.1,0.2-0.2,0.2-0.2,0.3
	c0,0,0.2,0,0,0.1l0.2-0.1V482.4 M-268.6,482.4c0-0.1-0.1,0-0.1,0.1L-268.6,482.4c0.1,0.1,0.1,0.2,0.1,0H-268.6 M-265.5,482.3
	C-265.5,482.3-265.6,482.5-265.5,482.3 M-265.9,482.3l0.1,0.1L-265.9,482.3L-265.9,482.3 M-264.6,482.3c0.1,0.1,0.1,0,0.1,0.1v-0.1
	H-264.6 M-264.7,482L-264.7,482L-264.7,482L-264.7,482 M-266.1,481.9C-266.2,481.9-266.2,481.9-266.1,481.9
	C-266.3,482.1-266.1,481.9-266.1,481.9 M-266,482C-266,482-266.1,482-266,482 M-263.2,481.9v0.2V481.9 M-270.1,481.8
	C-270.1,481.7-270,481.7-270.1,481.8L-270.1,481.8 M-265.5,481.7l0.2,0.1v-0.1H-265.5L-265.5,481.7L-265.5,481.7 M-269.7,481.7
	C-269.7,481.8-269.7,481.8-269.7,481.7l0.1-0.2L-269.7,481.7 M-263,481.6v0.2h-0.1v-0.1c0,0,0.2,0.1,0.2,0v-0.1
	c0.1-0.1,0-0.2-0.1-0.2V481.6 M-264,482.8C-264,482.9-264,482.8-264,482.8 M-263.9,482.4l0.1,0.1
	C-263.9,482.6-263.9,482.5-263.9,482.4v0.1V482.4C-263.8,482.4-263.8,482.4-263.9,482.4 M-264.9,481.6l-0.1-0.1l0.3,0.3
	c0-0.2,0.3,0.2,0.3,0.2l0.1-0.2h0.1v0.1l-0.1,0.1v0.1V482v0.1c0-0.1,0.1,0.1,0.1,0.1h-0.1c0,0.1,0.2,0.2,0.1,0.3h-0.1l-0.1,0.1
	c-0.1,0.3-0.1,0.1-0.2,0.1v-0.1h-0.1v0.4c0,0,0.2,0,0.1-0.1l0.1-0.1c0,0.1,0.1,0.1,0.1,0l0.1,0.2v0.1l0.3,0.1c0,0,0.4-0.4,0.2-0.5
	v-0.1h-0.1c0,0-0.1,0.1-0.1,0c0.1,0,0.1-0.2,0.1-0.2v-0.1h-0.1c0.2,0-0.1-0.3-0.2-0.2c0,0,0-0.4-0.2-0.3l-0.2-0.1l-0.1-0.2
	c-0.1,0,0.1,0.2,0,0.2C-264.7,481.6-264.8,481.6-264.9,481.6L-264.9,481.6l0.1,0.1L-264.9,481.6v0.2l-0.1-0.2
	C-265,481.7-265,481.6-264.9,481.6h-0.2C-264.8,481.4-264.9,481.5-264.9,481.6 M-265.8,481.5L-265.8,481.5L-265.8,481.5
	 M-263.3,481.5L-263.3,481.5L-263.3,481.5 M-265.7,481.4v0.1C-265.6,481.4-265.7,481.4-265.7,481.4 M-263.6,481.4v0.2h0.1
	c0,0.1,0,0.2,0.1,0c0,0.1,0,0.1,0.1,0.1h-0.1c0.1,0,0.3-0.1,0.3-0.2s-0.2,0-0.3,0v-0.1h-0.1c0-0.2-0.1-0.1-0.1-0.1V481.4l0.1-0.1
	L-263.6,481.4 M-270.5,481.4v-0.1V481.4 M-263.3,481.2L-263.3,481.2C-263.3,481.3-263.2,481.2-263.3,481.2 M-269.7,481.2
	L-269.7,481.2L-269.7,481.2 M-263.5,481.2C-263.5,481.2-263.4,481.3-263.5,481.2 M-268.6,481.2l0.1-0.1L-268.6,481.2 M-268.7,481.8
	C-268.6,481.9-268.7,481.8-268.7,481.8 M-268.5,481.4h-0.2c-0.1-0.2-0.1,0.2-0.1,0.2l-0.1,0.1h-0.1l0.1,0.1h-0.2v0.1h-0.1
	c0,0,0,0.3,0.1,0.1v0.1c-0.1-0.1-0.2,0.1-0.2,0.2v0.1l-0.2-0.1v0.1h-0.1v-0.1c-0.1,0-0.1,0.2-0.2,0.1v0.2h0.1v0.1h0.1v0.2l0.2,0.1
	h-0.1l0.2-0.3v-0.1c0,0.1,0.1,0,0.1-0.1l0.3-0.1c-0.1-0.1,0-0.1,0-0.3c0.2,0,0.1,0.1,0.1,0.1c0.1,0,0,0,0.1-0.1h0.1V482h0.2
	c0.1-0.3-0.1-0.4,0.1-0.4c0-0.1,0-0.2,0.1-0.1v0.1c0.2,0,0-0.2,0-0.2h0.2l0.1-0.1c-0.1,0-0.1-0.1-0.1-0.2
	C-268.3,481.1-268.5,481.4-268.5,481.4 M-270,481.1c0,0,0.1,0.1,0,0.2V481.1v0.3c0.1,0.2,0.2,0,0.1-0.2
	C-269.9,481.2-269.9,481-270,481.1 M-268.4,481C-268.4,481.1-268.4,481.1-268.4,481L-268.4,481L-268.4,481 M-262.9,480.9l0.1,0.2
	V481h0.1v-0.1H-262.9 M-270.2,480.8c-0.2,0.1,0.1,0.4,0.1,0.3l-0.1-0.1h0.1L-270.2,480.8 M-270.2,480.7
	C-270.2,480.8-270.1,480.7-270.2,480.7 M-268.5,480.5L-268.5,480.5L-268.5,480.5C-268.6,480.5-268.6,480.6-268.5,480.5l-0.1,0.2v0.1
	h-0.1c0,0.1-0.1,0.2-0.1,0.1c-0.1,0-0.3,0.2-0.2,0.3c0.2,0,0.2-0.1,0.3-0.3l-0.1,0.1l0.1-0.1l0.2-0.1l-0.1-0.1v-0.1l0.2-0.2
	C-268.4,480.5-268.5,480.5-268.5,480.5 M-268.9,480.5c0.1,0.1,0,0.1,0,0.2h0.2c0.2-0.1,0-0.2,0.1-0.3L-268.9,480.5 M-269.5,480.3
	L-269.5,480.3L-269.5,480.3L-269.5,480.3C-269.3,480.4-269.6,480.4-269.5,480.3L-269.5,480.3L-269.5,480.3 M-266.8,480.3l-0.2,0.2
	h0.1C-266.8,480.5-266.8,480.4-266.8,480.3 M-268.3,480.2C-268.3,480.3-268.2,480.3-268.3,480.2L-268.3,480.2 M-264.6,480.1
	L-264.6,480.1L-264.6,480.1 M-263.3,480l0.1-0.1l-0.1-0.1V480 M-263.7,479.9l0.1,0.1L-263.7,479.9 M-266.9,479.9l0.1,0.1
	L-266.9,479.9 M-266.1,479.9v0.1l-0.1,0.1v0.1h0.1v-0.1C-265.9,480-266,479.9-266.1,479.9 M-263.9,480v-0.2V480 M-266.9,479.9
	C-267,479.8-267,479.9-266.9,479.9 M-262.1,479.9C-262.1,479.9-262,479.9-262.1,479.9h0.2l-0.1,0.2l0.1,0.1c-0.1,0-0.1-0.1-0.2-0.1
	v0.1c0.1,0,0.1,0.1,0.2,0.1l0.3-0.1c0-0.1,0-0.1-0.1,0V480l-0.1-0.1l-0.2-0.1L-262.1,479.9 M-262.4,479.8c0.1,0.1,0,0.2,0.1,0.2
	L-262.4,479.8 M-263.5,479.8c0,0,0,0.1,0.1,0.1L-263.5,479.8 M-262.1,479.7C-262.2,479.8-262.1,479.9-262.1,479.7 M-262.9,479.9
	C-262.9,480-263,479.9-262.9,479.9l-0.1,0.2v0.1h0.2L-262.9,479.9c0.1,0.2,0.2,0.2,0.2,0.3l0.1-0.1c-0.1,0,0.1,0.1,0.2,0.1h0.2v0.1
	c0-0.2-0.1-0.1-0.1-0.1v-0.1l-0.1,0.1l-0.1-0.2h-0.1c0-0.1,0-0.1,0.1-0.1h-0.1c-0.1,0-0.2,0-0.2-0.1L-262.9,479.9 M-266.7,479.8
	L-266.7,479.8L-266.7,479.8 M-264.9,479.7L-264.9,479.7L-264.9,479.7 M-265.1,479.7L-265.1,479.7L-265.1,479.7 M-263.1,479.7v0.3
	l0.1-0.1c0,0.1,0.1-0.1,0.1-0.1L-263.1,479.7 M-267.5,479.5v0.2h-0.2v-0.1l-0.1,0.2h-0.1c0,0.1,0.2,0.3,0.3,0.2
	c0.1,0.2,0.5-0.1,0.3-0.1v-0.1h-0.1c0.1,0,0-0.1,0-0.1L-267.5,479.5 M-263.9,479.5v0.1l0.1,0.1c0,0,0.2,0,0-0.1L-263.9,479.5
	 M-265.4,479.7L-265.4,479.7L-265.4,479.7h-0.2v0.1h-0.1v0.1h0.2L-265.4,479.7C-265.4,479.6-265.5,479.5-265.4,479.7 M-264,479.6
	C-263.8,479.6-264,479.6-264,479.6 M-266.7,479.5v0.1V479.5 M-268.9,479.6c0.1,0.1,0.1,0,0.1-0.1L-268.9,479.6 M-263.9,479.5
	C-264,479.5-263.9,479.5-263.9,479.5 M-261.2,479.4L-261.2,479.4L-261.2,479.4C-261.2,479.5-261.1,479.3-261.2,479.4 M-264,479.2
	c0.1,0.1,0.2,0.3,0.3,0.1h-0.1L-264,479.2 M-265.6,479.2l0.1,0.1v-0.2L-265.6,479.2 M-265.8,479.2L-265.8,479.2L-265.8,479.2
	 M-264.5,479.2l0.2,0.1v0.1h-0.1c-0.3-0.6,0,0,0,0.1h-0.1l0.1,0.1v-0.1l0.1-0.1v0.2l0.1-0.1l0.2,0.1h-0.1c0.1-0.2-0.2-0.2-0.2-0.2
	c0-0.2,0.1-0.4-0.1-0.4v-0.1l-0.2-0.1C-264.5,479-264.5,479.1-264.5,479.2 M-264.7,478.9l0.1-0.1L-264.7,478.9 M-264.6,478.8
	C-264.6,478.9-264.5,478.9-264.6,478.8 M-264.7,478.8L-264.7,478.8L-264.7,478.8 M-267,478.7L-267,478.7L-267,478.7 M-264.7,478.7
	C-264.6,478.6-264.6,478.6-264.7,478.7L-264.7,478.7C-264.7,478.6-264.8,478.7-264.7,478.7 M-265.9,478.7v0.3l0.1-0.1v0.1l0.2-0.1
	l0.2-0.1c0-0.2-0.1-0.2-0.1-0.2h-0.1c-0.1,0,0,0,0-0.1C-265.8,478.4-265.9,478.6-265.9,478.7 M-261.6,478.4L-261.6,478.4
	L-261.6,478.4L-261.6,478.4 M-268.4,478.3C-268.5,478.4-268.4,478.5-268.4,478.3 M-268.4,478.2v0.2
	C-268.3,478.4-268.2,478.2-268.4,478.2 M-266.8,478.3v-0.1V478.3 M-265.4,478.3L-265.4,478.3L-265.4,478.3v0.2
	c0,0.1,0.1,0.1,0.2,0.1h0.1v-0.3l-0.1-0.1C-265.3,478.2-265.4,478.3-265.4,478.3 M-265.5,478.1
	C-265.5,478.1-265.5,478.3-265.5,478.1 M-268.7,478.3L-268.7,478.3c0.1,0,0.1,0.1,0.1,0.2L-268.7,478.3c-0.1-0.1,0-0.1,0-0.2h-0.1
	C-268.7,478.1-268.7,478.2-268.7,478.3 M-265.3,478.1V478V478.1 M-268.2,478l0.1,0.1h0.1C-268.1,477.9-268.1,478-268.2,478
	 M-270.9,478C-270.9,478-270.9,478.2-270.9,478l0.1-0.1L-270.9,478 M-270.8,478.1l0.1-0.2L-270.8,478.1 M-266.3,477.9L-266.3,477.9
	L-266.3,477.9l0.1,0.2l0.1-0.1c0,0,0.1,0.3,0.2,0.1c-0.1-0.1-0.1-0.2-0.2-0.1v-0.1H-266.3 M-268.5,477.7v0.3c0.1,0.1,0,0.2,0.1,0
	v0.1C-268.2,478.1-268.5,477.8-268.5,477.7l0.1,0.2l0.1-0.1l-0.1,0.1c0-0.1,0.1-0.1,0.1-0.1C-268.5,477.7-268.5,477.9-268.5,477.7
	 M-263.9,477.7L-263.9,477.7v-0.2V477.7 M-262.7,477.6L-262.7,477.6L-262.7,477.6 M-261.7,477.6v-0.2V477.6 M-268.4,477.5
	c0.1,0-0.1,0.2,0,0.2V477.5l0.1,0.2C-268.3,477.5-268.4,477.5-268.4,477.5 M-271.1,477.2l0.1-0.1
	C-271.1,477.1-271.1,477.1-271.1,477.2 M-262.8,477.2L-262.8,477.2L-262.8,477.2L-262.8,477.2L-262.8,477.2L-262.8,477.2l0.1,0.2
	h-0.2c0.1,0.1,0.2,0.2,0.3,0.2l0.1,0.1h0.2l0.1-0.1v-0.2h-0.5L-262.8,477.2C-262.9,477.3-262.7,477.2-262.8,477.2
	C-262.6,477-262.8,477-262.8,477.2 M-267.5,477.2L-267.5,477.2L-267.5,477.2 M-267.7,477l-0.1,0.1h-0.2l0.1-0.1l-0.1,0.2h-0.1
	c0.1,0,0-0.1,0.1-0.1c0-0.1-0.1-0.1-0.1-0.1v0.3l-0.2,0.1v0.1h-0.1c0,0.2,0.1,0.2,0.2,0.2h0.1v-0.1h0.2v0.2c0.1,0.2,0,0.2-0.1,0.2
	v0.1l0.1,0.1l-0.2,0.2h0.2c0.1,0.1,0.1,0.1,0.3,0c0.1,0,0.4-0.3,0.4-0.1l0.1-0.1l0.2,0.1V478c0.2,0.3,0.2-0.4,0.2-0.4
	c0-0.1-0.2-0.1-0.2-0.1h-0.2c0.1-0.1,0-0.1,0-0.2c0,0-0.3,0.1-0.2,0h0.1l-0.1-0.1c-0.1-0.1-0.1-0.1-0.2-0.3h0.1v-0.1L-267.7,477
	 M-267,476.8v0.2h0.1L-267,476.8z M-263.1,477.5C-263.4,477.4-263.1,477.4-263.1,477.5L-263.1,477.5 M-263.2,476.9h-0.3v0.2h-0.1
	V477l-0.1-0.2h-0.1c0.1,0.1,0,0.2,0,0.3h0.1c0,0.1,0.1,0,0.2,0h-0.1c0,0.1,0.1,0,0.1,0.1h-0.1l0.1,0.1h-0.1l-0.1-0.1v-0.1l-0.1,0.1
	l0.2,0.2v-0.1v0.1h0.2c0,0.2,0.1,0,0.2,0c0,0.1,0.1,0.2,0,0.3h0.3c0.1,0.2,0.3,0,0.3,0v0.1v-0.1c-0.1,0.1-0.2-0.1-0.3-0.2l-0.1-0.1
	v-0.2l-0.1,0.1v-0.1l0.1,0.1v-0.2v0.1h-0.1V477L-263.2,476.9l0.1,0.1c0-0.1,0.1-0.2,0-0.3L-263.2,476.9 M-268,476.9v-0.1V476.9
	 M-268,476.8l0.1,0.2L-268,476.8h0.2v0.1l0.1-0.1H-268 M-264,476.7c-0.1-0.1-0.1,0-0.1-0.1h-0.1l-0.2,0.2v0.1l0.1,0.1v-0.1v0.1
	l0.1-0.1l-0.1,0.1c0.1,0,0.1-0.1,0.1-0.2v-0.1C-263.9,476.9-263.9,476.8-264,476.7v-0.2C-264,476.6-263.9,476.7-264,476.7
	 M-267.5,476.6l0.1,0.1h0.1v-0.1l0.1,0.1v0.1h-0.1v0.1c0.1-0.2,0.3-0.1,0.3,0.1v-0.2c0,0.1,0,0,0,0v-0.1h-0.2v-0.1
	c0,0.1,0.1,0,0.1,0H-267.5 M-268.1,476.6L-268.1,476.6L-268.1,476.6 M-261.4,476.6c-0.2,0.1,0.2,0.2,0.3,0.2L-261.4,476.6h0.2
	H-261.4c0.1,0.1-0.1-0.2,0-0.2h-0.2C-261.6,476.6-261.5,476.6-261.4,476.6 M-268.7,476.4C-268.7,476.6-268.6,476.4-268.7,476.4
	 M-268.5,476.5L-268.5,476.5L-268.5,476.5c-0.2,0-0.3,0.1-0.3,0h-0.1v0.2l-0.1,0.1c-0.1,0.3,0.2,0.1,0.4,0.2v-0.1l0.1-0.2V476.5
	L-268.5,476.5L-268.5,476.5L-268.5,476.5c0.1,0,0.2,0.1,0.2-0.1h-0.1c0,0-0.1,0-0.1-0.1V476.5 M-264.2,476.4L-264.2,476.4
	L-264.2,476.4 M-263.7,476.3c0,0.3,0.3,0.1,0.3,0.1h-0.1L-263.7,476.3 M-262.9,476.3l-0.2,0.2v0.2h-0.1c0.1,0,0,0,0,0l0.2,0.4
	c0-0.1,0-0.3,0.1-0.2v0.1c0.1,0,0.2-0.1,0.2-0.2v0.1l0.1-0.1v-0.5h-0.1c0,0.1,0.1,0.2,0.1,0.3c0,0-0.1-0.3-0.2-0.2L-262.9,476.3
	L-262.9,476.3L-262.9,476.3L-262.9,476.3C-262.9,476.3-262.8,476.3-262.9,476.3C-262.8,476.2-262.9,476.3-262.9,476.3 M-263.1,476.2
	c0,0,0.1,0.1,0.1-0.1L-263.1,476.2 M-266.3,476c-0.1,0.2-0.1,0.2,0,0.2c0,0-0.1,0.1,0,0.2C-266.3,476.2-266.2,476.1-266.3,476
	 M-267.1,476l-0.1,0.1L-267.1,476c-0.2,0-0.1,0.2-0.1,0.1l-0.1,0.1h0.4v0.1v-0.2C-266.8,476.1-267,476.1-267.1,476
	C-266.9,476-267.1,476-267.1,476 M-260.8,476C-260.8,476.2-260.7,476-260.8,476L-260.8,476L-260.8,476 M-267.2,475.7L-267.2,475.7
	L-267.2,475.7 M-266.8,475.6L-266.8,475.6L-266.8,475.6C-266.9,475.8-266.7,475.8-266.8,475.6l0.1,0.2c0.1,0,0.1,0,0.1-0.1
	L-266.8,475.6L-266.8,475.6L-266.8,475.6L-266.8,475.6L-266.8,475.6L-266.8,475.6l0.1-0.1h-0.1V475.6 M-265.2,475.6
	c0.1-0.1-0.2-0.1-0.2,0l-0.1-0.1v0.1l-0.1-0.1v0.1c0,0,0.2,0.3,0.3,0.2c0-0.2,0.3-0.1,0.3-0.1l0.1,0.1l0.1,0.1v0.1l-0.2-0.1
	l-0.1,0.1l0.2,0.2c0,0.1,0.1,0.1,0,0.1v0.1h-0.1c0,0.1,0.1,0.1,0.1-0.1c0.1,0,0.1-0.3,0.2-0.4v0.1c0,0.1,0,0.1-0.1,0.2l0.1-0.1h0.1
	V476h-0.1c0.1,0-0.3-0.4-0.2-0.5l-0.1,0.1v-0.2L-265.2,475.6 M-267,475.5L-267,475.5l0.1,0.2h0.1h-0.1
	C-266.8,475.6-267,475.4-267,475.5 M-265.8,475.7h-0.2v-0.2c0,0,0-0.1-0.1,0l-0.2,0.2v0.1v-0.1c0,0.1,0.1,0.2,0.2,0
	c0,0.1,0,0.2,0.1,0.1c-0.1,0.1,0.1,0.2,0.1,0.2v0.1V476l0.2,0.1C-265.7,476-265.8,475.7-265.8,475.7L-265.8,475.7L-265.8,475.7
	c0.1,0,0-0.1,0.1-0.2l-0.1-0.1V475.7 M-267.6,475.3L-267.6,475.3c-0.1,0.1,0,0.1,0.1,0.2v0.1c0.1-0.1,0.1-0.1,0.1-0.2
	C-267.4,475.3-267.5,475.3-267.6,475.3L-267.6,475.3 M-266.9,475.1L-266.9,475.1L-266.9,475.1 M-267.7,474.9L-267.7,474.9
	L-267.7,474.9 M-265.6,474.9l-0.1,0.1h0.1C-265.7,474.9-265.5,474.9-265.6,474.9L-265.6,474.9 M-265.8,474.8L-265.8,474.8l-0.2,0.1
	v0.2c0.1,0,0.2,0.2,0.2,0V474.8l0.1,0.2L-265.8,474.8L-265.8,474.8 M-264.5,474.1h0.2C-264.3,474-264.4,474.1-264.5,474.1
	L-264.5,474.1L-264.5,474.1L-264.5,474.1 M-266.8,474.1L-266.8,474.1c0.2,0,0.2-0.2,0.2-0.2h-0.1
	C-266.8,473.9-266.8,474-266.8,474.1 M-264.7,474v0.2V474L-264.7,474L-264.7,474c0,0,0.1-0.1,0-0.1V474 M-266.9,473.8
	C-266.8,473.8-266.8,473.9-266.9,473.8 M-265.6,473.7C-265.7,473.8-265.6,473.7-265.6,473.7 M-266.8,473.8L-266.8,473.8v-0.1
	C-266.8,473.6-266.9,473.8-266.8,473.8 M-266,473.6L-266,473.6L-266,473.6L-266,473.6c0,0-0.1,0.2-0.2,0.3h0.1h-0.1h0.1v-0.1v0.1
	h0.1h-0.1h0.1v-0.1l0.2-0.1v-0.1L-266,473.6 M-265.5,473.5C-265.5,473.4-265.6,473.5-265.5,473.5L-265.5,473.5
	c0.1,0.1,0,0.3,0.1,0.2c0,0.1,0.1,0.2,0.1,0.1c0.1,0,0.1,0,0.2-0.1v0.1h0.1l0.1-0.1h-0.2c0,0,0-0.1-0.1-0.2l0.1,0.1h-0.2v-0.1v0.1
	L-265.5,473.5C-265.5,473.6-265.5,473.6-265.5,473.5 M-263.9,473.4C-263.9,473.5-263.9,473.4-263.9,473.4 M-265.6,473.4v-0.1V473.4
	 M-267.7,473.2l-0.1,0.2L-267.7,473.2v0.2V473.2 M-263.8,473.2C-263.5,473.3-263.7,473.2-263.8,473.2L-263.8,473.2L-263.8,473.2
	 M-266.4,473.1l-0.1,0.1L-266.4,473.1L-266.4,473.1l-0.2,0.2l0.1-0.1L-266.4,473.1L-266.4,473.1h0.2
	C-266.2,473.1-266.4,473.2-266.4,473.1 M-266.3,473L-266.3,473l0.1,0.2l0.1-0.1c-0.1,0,0,0-0.1,0.1C-266.2,473-266.1,473-266.3,473
	 M-264.2,473L-264.2,473L-264.2,473 M-266.1,472.9v0.1V472.9 M-265.8,472.9c0,0.1,0.1,0,0.2,0H-265.8 M-266.7,471.4
	c-0.3,0.2-0.1,0.3-0.1,0.2L-266.7,471.4L-266.7,471.4v0.1V471.4 M-264,471.4v0.2c0-0.1,0.1-0.2,0.1-0.3L-264,471.4 M-267.4,471.2
	L-267.4,471.2c-0.1,0.2,0,0.2,0,0.2V471.2 M-267,471.2L-267,471.2L-267,471.2 M-267.7,471.1L-267.7,471.1L-267.7,471.1
	 M-266.8,470.9v0.2c0,0.1,0.1,0,0.1,0L-266.8,470.9L-266.8,470.9c0,0.1,0.2,0,0.2,0C-266.7,470.9-266.7,470.8-266.8,470.9
	 M-268.2,471.1L-268.2,471.1L-268.2,471.1 M-267.5,470.9c0.1,0.1,0,0.1,0,0.1v0.1h0.1l-0.1,0.1c0.3-0.1,0-0.1,0.1-0.2l-0.1,0.1
	V470.9 M-268.8,470.8C-268.7,470.8-268.8,470.8-268.8,470.8 M-265.6,470.7c-0.1,0.1,0,0.1-0.1,0.1c0,0,0.1,0.2,0.1,0.1l-0.1-0.1
	L-265.6,470.7 M-266.8,470.6L-266.8,470.6L-266.8,470.6v0.2C-266.9,470.7-266.8,470.6-266.8,470.6l-0.1,0.2L-266.8,470.6
	L-266.8,470.6 M-268.6,470.6L-268.6,470.6l-0.1,0.2c0,0-0.1,0.1,0,0.1v0.1v-0.1l0.1,0.2c0.1-0.2,0,0.2,0.1,0.2l0.1-0.1v0.1v-0.1
	h-0.1l0.1-0.1V471v0.1l-0.1-0.1c-0.1-0.1,0.1-0.1,0.1-0.2L-268.6,470.6 M-267.7,470.5C-267.6,470.5-267.7,470.6-267.7,470.5
	 M-268.8,470.2C-269,470.2-268.7,470.3-268.8,470.2 M-265.8,470.2C-265.8,470.3-265.7,470.4-265.8,470.2
	C-265.8,470.2-265.8,470.3-265.8,470.2 M-267.7,469.9l0.1,0.2l0.1-0.1c0.1,0.1,0.2,0,0.2,0.2h-0.1v0.1h-0.1c0.1,0.1,0.1,0.2,0,0.2
	v0.1l0.3-0.1l-0.2-0.1c0.1,0,0.1-0.2,0-0.3l-0.1-0.1v-0.1v0.1v-0.1L-267.7,469.9 M-267.5,469.8
	C-267.5,469.7-267.7,469.8-267.5,469.8 M-267.7,469.6L-267.7,469.6L-267.7,469.6 M-267.3,469.4
	C-267.3,469.6-267.2,469.4-267.3,469.4 M-262.3,487.8L-262.3,487.8L-262.3,487.8 M-260.2,484.8
	C-260.2,484.7-260.2,484.7-260.2,484.8 M-266.8,467.5V464c0-0.4-0.3-0.7-0.7-0.7h-8.2c-0.4,0-0.7,0.3-0.7,0.7v18.4
	c0,0.5-0.4,0.6-0.6,0.2l-7.2-17.4l-0.3-0.7c-0.5-1.1-0.5-1.2-1.9-1.2h-8.9c-0.4,0-0.7,0.3-0.7,0.7v36.4c0,0.4,0.3,0.7,0.7,0.7h7.8
	c0.4,0,0.7-0.3,0.7-0.7V482c0-0.5,0.4-0.6,0.6-0.2l7.2,17.4l0.3,0.7c0.2,0.7,0.9,1.2,1.6,1.2h5.5c2.3,0,4.2-1.9,4.2-4.2v-9.5
	c-0.1,0-0.2-0.1-0.3-0.1l-0.1-0.1l0.1,0.2h-0.2v-0.1v0.1l0.1-0.1h-0.2c0,0.2,0,0.3,0.1,0.2h0.1l0.1,0.1h-0.1l0.1,0.1
	c0,0-0.2,0-0.2-0.1v0.2v-0.1l-0.1,0.1l-0.1,0.1c-0.1,0.2,0,0.2,0,0.2h-0.3c-0.2,0-0.3,0.1-0.5,0.1l0.1-0.1l-0.1,0.1l-0.2-0.1h0.1
	c-0.1-0.1,0-0.3-0.2-0.3v0.2l-0.1-0.2l-0.1,0.1l-0.2,0.5v-0.1l0.1,0.1h-0.1l0.1,0.1l-0.1,0.4v-0.1c-0.2,0-0.2,0-0.2,0.2h-0.1v-0.1
	l-0.1,0.2h-0.1c0-0.1,0.1-0.3,0.1-0.4h-0.1l-0.2,0.2v-0.1l-0.1,0.3l-0.2,0.1v-0.1h-0.1c0,0.3,0.2,0.2,0,0.2l-0.1,0.1
	c-0.1,0.1-0.1,0.3-0.2,0.1c-0.1-0.2,0-0.3,0-0.3c0.1,0,0.1-0.3,0.2-0.4l-0.1,0.1v0.1v-0.1h-0.1c0,0-0.1-0.2-0.2-0.2
	c0-0.2-0.2-0.2-0.2-0.3l0.1-0.1l-0.1-0.2c0,0,0.1-0.1,0.2,0.1v-0.1c0.1-0.1,0.1-0.5,0.3-0.4c-0.2-0.2,0-0.4,0.1-0.5
	c0-0.1,0-0.5,0.2-0.3v-0.1h0.1v-0.1h0.1l-0.1-0.1l0.1-0.1h0.1h-0.3v-0.1v0.1v-0.2l0.3,0.1c0.1-0.1,0-0.2,0-0.2c0-0.1,0-0.2,0.1-0.3
	v0.1v-0.2v0.1l-0.1,0.1l-0.2,0.2v-0.1l-0.1,0.2h-0.1l-0.3,0.3v-0.1c-0.1,0.1-0.2,0.5-0.2,0.3l0.1,0.1c-0.1,0-0.2,0.1-0.1,0.2
	c-0.1-0.1,0,0.3-0.2,0.3c-0.1,0-0.1,0.2-0.2,0.3l-0.1-0.3h-0.1v0.1h-0.1c0,0.2-0.1,0.1-0.1,0.1h0.2v0.1l0.1-0.1v0.1h-0.1v0.1v-0.1
	v0.1h-0.2v-0.2h-0.1c0.1,0.1-0.1,0-0.1-0.1l-0.1-0.1l0.1-0.1h0.1v-0.2l0.1-0.2h0.1l0.1-0.1l-0.2,0.5l0.1-0.1l-0.1-0.3l-0.2,0.2
	c-0.2,0.2-0.4,0.3-0.3,0h0.1c0-0.1-0.2-0.4-0.1-0.4c-0.4-0.3,0-0.3,0.1-0.3c0,0,0.1-0.3,0.2-0.1c0.1-0.2,0.3-0.1,0.4,0h-0.1l0.1,0.2
	v-0.1l0.2-0.1h-0.1c0-0.1,0.1-0.1,0.1,0h0.1h-0.1c0,0,0.4-0.2,0.4-0.3l-0.1,0.1c0-0.1,0.1-0.1,0.1-0.1v-0.1h0.1v0.1
	c0.2-0.2,0.4,0,0.4-0.3h0.1v0.2l0.1-0.2c0.1,0.1,0.2-0.1,0.2-0.2c-0.2,0.1-0.5-0.1-0.6-0.1v-0.1h-0.2c0.1,0.1,0,0.1,0,0.2l0.1,0.1
	h-0.1l-0.2,0.1v-0.1h-0.1c0-0.1,0,0,0,0v-0.1c0,0-0.1,0,0,0.1h-0.1l0.2,0.1c0.1,0.1,0,0.3-0.1,0.1v-0.1l-0.1,0.1l0.1,0.2h-0.1
	l0.1-0.1l-0.1,0.1v0.2h-0.2c-0.1,0,0-0.3,0.1-0.3c0,0-0.1-0.3-0.1-0.1h0.1h-0.1v0.2v-0.1c0,0-0.2,0.1-0.1,0.1h-0.1v-0.2v0.1h-0.2
	c0,0.1-0.1,0-0.1,0.1v0.1l0.1,0.1c-0.1,0.1-0.1,0.2-0.2,0.3h-0.2l0.1-0.1h-0.4v-0.1v0.2v-0.1h0.1c0,0.1-0.2,0.2-0.2,0.2
	c0.1,0,0.1,0.1,0,0.2h-0.2v-0.3l0.1,0.1l-0.1-0.2h-0.1c0,0,0-0.2-0.1-0.1c0-0.1,0.1-0.1,0.1-0.1h0.1l-0.1-0.1h0.1
	c-0.1,0.1,0.1,0,0.1,0h-0.1c0.1-0.1,0-0.1,0-0.2c0,0.1,0.1,0.1,0.2,0.1v0.1V486c0.1,0,0.2,0,0.2-0.1h0.1l-0.1-0.1l0.1-0.1h0.1h-0.1
	v-0.2v0.1c0,0.1-0.1,0.1-0.1,0.1h-0.1l0.1-0.1l-0.1,0.1h0.1v0.1c-0.1-0.1-0.2,0-0.2,0.1h-0.1c0-0.1-0.2-0.2,0-0.2
	c0-0.1-0.3-0.3-0.2-0.4c0-0.1-0.1-0.4-0.2-0.6h0.1c0-0.1,0.4-0.6,0.4-0.8h0.1c0,0,0-0.4,0.2-0.2h-0.1h0.1v-0.3l-0.1,0.1
	c0-0.1-0.2-0.2-0.2-0.4c0.2,0,0.3,0,0.4-0.1c0-0.2-0.1-0.1-0.1-0.2h0.1v-0.1c0.2,0.1,0.1,0,0.3,0.2c0.1,0.1,0.1,0,0.1-0.1h0.1v-0.4
	c0.2-0.1,0.2-0.3,0.2-0.5c-0.1-0.2,0.1-0.2,0.1-0.3c0,0,0.2,0.1,0.1-0.1v-0.1c-0.2,0.2,0.1-0.1,0-0.2h0.1c0,0,0.1,0.2,0.2,0.1
	c-0.1-0.1,0-0.1,0-0.2h0.1c-0.1,0.1,0.3,0.3,0.4,0.3v0.1h-0.2l0.1,0.1c0-0.1,0-0.1,0.1-0.1v-0.1h-0.1v-0.2l0.1,0.1h0.1v-0.1h0.1v0.1
	c0,0,0.1,0,0.1-0.1h-0.1c0.1,0,0.2,0.1,0.1-0.1h0.1c-0.1-0.1,0.1-0.1,0.2-0.1c0-0.1-0.2-0.2-0.2-0.1l0.1-0.1c0-0.1-0.1,0.1-0.1,0.1
	v-0.1h-0.1v0.2v-0.1v0.1h-0.2l-0.1,0.2c0,0.1-0.1-0.2-0.1-0.4c-0.1-0.2-0.1-0.5,0-0.3c0-0.1,0-0.2-0.1-0.2s-0.1,0-0.1-0.2h0.3h-0.1
	l0.3-0.3h0.1c0-0.2,0.3-0.1,0.3,0c0.1-0.1,0.5-0.1,0.6-0.1c0-0.1,0.1-0.3,0.1-0.2h0.1v-0.3l0.3-0.2h-0.1h0.3l0.1-0.1h0.1v-0.1
	c0-0.1-0.2-0.1-0.3-0.1h0.1c0-0.2-0.3-0.3-0.2-0.2v-0.1v0.2c-0.1-0.1,0,0-0.1,0.1c-0.1,0-0.2-0.3-0.2-0.4c0.1,0,0.2-0.2,0.1-0.2V478
	c0,0,0.3-0.4,0.4-0.6l0.1-0.1l0.1-0.1c-0.1-0.1,0,0-0.1-0.2h-0.1l0.1-0.1h-0.1c-0.1,0-0.2-0.1-0.3,0.1l0.1,0.1h-0.2V477l-0.1,0.1
	v0.2c0-0.1-0.2,0-0.2,0.1c0,0.1-0.3,0.1-0.3,0h0.2c-0.1,0,0.1-0.3,0-0.3V477l-0.2,0.1c0.2,0,0,0.2-0.1,0.3h-0.2v0.2h-0.2
	c0,0,0-0.2-0.1-0.1v0.1c0-0.2-0.4,0.2-0.2,0.2c0.1,0.1-0.2,0.1-0.2,0.1v0.1l0.1-0.1v0.1v-0.1v0.1h-0.1l-0.1,0.1v0.2h-0.2
	c0.1,0,0.1-0.2,0.1-0.2h-0.1c0,0.3-0.2,0.2-0.2,0.1l-0.1,0.1h0.1l-0.1-0.1v0.2c0-0.1,0-0.2,0.1-0.2l-0.3,0.1l0.1,0.1h-0.2l-0.2-0.2
	l-0.1,0.1c-0.1-0.1,0.1-0.5,0.1-0.7v0.1c0-0.2,0-0.4,0.1-0.4l0.1-0.2c0.2,0,0.2,0.1,0.3,0.2c-0.1-0.1,0,0,0,0h0.2c0,0,0-0.1-0.1-0.1
	h-0.2l-0.1-0.1l0.1-0.1v-0.5c-0.1,0,0,0.1,0,0.1c-0.2-0.3-0.1-0.3,0-0.5h0.3v-0.4l0.1-0.1c0.1,0,0.1,0.1,0.1,0.2l0.2-0.1
	c0.1-0.1,0.2-0.1,0.2,0.1l0.1-0.2v0.1c0,0,0.1-0.2,0-0.2v0.1c0-0.2-0.2-0.3-0.1-0.5l0.2-0.3c0.1-0.1,0.2-0.1,0.4-0.3h-0.1h0.3
	l0.1-0.1c0,0.1,0.1,0.2,0.1,0.2v-0.1c0.1,0.1,0.1,0,0.1,0c0-0.1,0.4-0.2,0.4-0.2v-0.4v0.1l0.1-0.1l0.2-0.1c0-0.1,0.2-0.1,0.2-0.3
	l0.1,0.1l-0.1-0.2h0.1v0.1h0.1c0,0,0-0.1,0,0v0.1l0.1,0.1v-0.1c0-0.1-0.1-0.2,0-0.3c0,0-0.5,0.2-0.6,0.2l-0.1-0.1
	c0,0-0.5,0.3-0.6,0.1h0.1l-0.3-0.1v0.1V473c0.1-0.1,0.3,0,0.3-0.2c0,0,0.3,0,0.3,0.2c0.3-0.5,0.3-0.4,0.3-0.6c0,0,0.2-0.1-0.1,0
	l-0.1,0.1v-0.3l0.1,0.1l0.1-0.2v0.1v-0.1v0.1v-0.3l0.1,0.2l0.1-0.4h0.3l-0.1,0.1h0.2l-0.1-0.1l-0.1-0.1c0.1,0,0,0,0-0.1
	s-0.1-0.1-0.1-0.1s-0.3-0.1-0.3-0.3c0.1,0.2,0.1-0.2,0.1-0.2c0,0.1-0.1,0.1-0.2,0h-0.1c0-0.1,0-0.2,0.1-0.3h-0.1
	c0-0.1,0-0.2-0.1-0.3c0.2,0,0-0.3-0.1-0.3c-0.1-0.3,0.2-0.2,0.3-0.4h-0.1c0-0.2,0.3-0.4,0.5-0.4l0.2,0.2h0.1c-0.2,0-0.2-0.4-0.1-0.5
	c0.2,0,0.5-0.3,0.7-0.3l0.1,0.1c0.1,0.1,0.2,0.2,0.2,0.1v0.1c0-0.1,0.4-0.1,0.3,0.2c0,0,0.1,0,0.1,0.1l0.1-0.1c0.1,0,0.5,0,0.5,0.1
	l0.1-0.2c0-0.1,0.1-0.2,0.1-0.2v0.1h0.1v-0.1v0.1h0.3c0.1,0,0.3,0,0.3-0.1c0,0.3,0.2,0.2,0.2,0.4v-0.1v0.1v-0.1l0.1,0.1
	c0,0-0.1,0.1,0,0.2c-0.1,0.1,0,0.2,0,0.3v-0.1l-0.1,0.2c-0.1-0.1-0.2,0-0.3,0c0,0.2,0.2,0.3-0.1,0.4h0.1h-0.1c0,0,0.6,0.5,0.2,0.5
	c0,0,0.3,0.2,0.3,0l0.3-0.3v0.1c0.1,0,0.1-0.3,0.1-0.3h0.1c0.1-0.1,0.2-0.1,0.2,0.1c0.1-0.1,0.1-0.1,0-0.2v-0.2l0.2-0.1v0.3
	c0,0-0.1,0.2,0,0.3c0,0,0.4-0.2,0.2-0.3h0.3c0.1,0.1,0.2,0.2,0.1,0.4c0,0-0.1,0.2-0.2,0.3h0.1c0,0-0.1,0,0,0.2l0.1-0.1v0.2
	c0,0.2,0.2,0,0.2,0.3c0-0.1,0.1,0.3,0.1,0.4l0.1-0.1c0.1,0.2,0,0.3-0.1,0.4c0.1,0.1,0.1,0.1,0.1,0.3v0.1l0.2,0.1
	c0.1,0,0,0.1,0.1,0.2c0,0.2-0.1,0.2-0.1,0.2l-0.3,0.6l-0.3-0.2v0.1h0.1v0.3c0,0.1,0.2,0,0.2-0.2l0.1,0.1c0-0.2,0.1-0.1,0.2-0.2
	c0.1,0.1,0.3,0,0.2,0c0.1-0.2,0.2-0.1,0.4-0.1v0.1l0.1-0.1h0.1c0,0.2,0.1,0.2,0.2,0c0.2,0,0,0.5,0.1,0.6c0,0.1,0,0,0,0v0.2h0.2
	l-0.1,0.2l-0.2,0.2l0.1,0.2c-0.1,0,0,0.1-0.1,0.2c-0.2-0.5-0.2-0.3-0.1-0.2v0.1c0-0.1,0.1-0.1-0.1-0.1l-0.1,0.1c-0.2,0,0,0.2,0,0.3
	c0.1-0.2,0.2-0.1,0.3-0.1h0.2c0,0.1,0.1,0,0.2,0h0.1v0.1c0.1-0.1,0.3,0,0.3-0.4c0.1,0,0.1,0,0.2-0.1v0.1h0.1v0.1h0.1v0.2
	c0,0,0,0.1-0.1,0.2c0,0.1-0.1,0.2-0.2,0.2c0.1,0.1,0,0,0,0.1l0.2,0.1c0.1,0.1,0.2,0.2,0.3-0.1l0.3-0.2l0.1,0.2l0.1-0.1v0.1v-0.1h0.1
	l-0.1,0.4l-0.1-0.1l-0.1,0.1h-0.1v0.1l-0.1,0.1h0.1c0,0.2,0.2,0.2,0.3,0.3c0,0.3-0.1,0.3-0.3,0.4h0.1c0-0.2-0.1,0-0.1,0
	c-0.1,0.1-0.2,0.3-0.4,0.3v0.2v-0.1v0.4c0,0-0.1-0.2-0.1,0.1l-0.1-0.3v0.2c0-0.1-0.1-0.1-0.2-0.1c0.1,0.1,0,0.1,0.1,0.3h-0.2v-0.2
	v0.1v-0.2l-0.2,0.2l-0.1-0.2v0.2l0.1,0.1v-0.1l0.1,0.1l0.1-0.1v0.1h0.1c0,0,0.1,0.1,0,0h0.1v0.1l0.2-0.1v0.2c0.1-0.1,0.1,0,0.3,0.1
	l0.1-0.1c0,0.2,0,0.3-0.2,0.3c0.1,0.1-0.2,0.2-0.2,0.2c-0.1,0-0.1-0.1-0.1,0.1h-0.2v0.1h-0.1v0.1v-0.1c0,0,0.1,0.1,0.1,0
	c0.2,0.1-0.3,0.3,0.3,0.1l0.1,0.1l0.1,0.1l-0.1,0.4h0.1h-0.1v0.3c0.2-0.1,0.1,0.2,0,0.2v0.2c0.5,0.1-0.3,0.7-0.2,0.5v-0.3h-0.2
	c-0.3,0,0-0.1-0.1-0.2h-0.1v0.1h-0.1c0.1,0,0.1,0,0.1,0.1c-0.1,0-0.2,0-0.1,0.1h-0.1h0.1h-0.1c-0.1,0,0.1,0.2,0.2,0.1l0.1,0.2v0.1
	c0.1-0.2,0.1,0,0.2,0.1v-0.1c0,0-0.1,0.3-0.2,0.2l0.1,0.1c-0.1,0-0.2,0.1-0.1,0.1c0.1-0.1,0.1,0.1,0.1,0.2h-0.6v-0.2h-0.1v-0.1
	l-0.1,0.1h0.1l-0.3,0.2v0.1h-0.1v0.1c0,0,0-0.2-0.1,0h-0.1v0.1h0.1v0.2h-0.1l-0.2,0.3h0.1h-0.2c0,0,0.1-0.1,0.1,0v0.1
	c0.1,0.1,0.1,0.2,0.2,0.1v0.1c0.1,0,0-0.2,0.1-0.1c0,0,0.1,0.3,0.1,0.1v0.1c0,0,0.4,0,0.3,0.2v0.1l0.1-0.1c0.1,0,0.4,0,0.5-0.1
	c0,0.1,0.1,0.1,0.2,0v0.2l0.1-0.2c0,0.2,0.1-0.1,0.2-0.1h0.1v0.4l0.1-0.1v0.2l-0.1,0.1h0.1v0.2l0.2,0.2c0.1-0.1-0.1-0.1,0.1-0.1
	c0,0.1,0.1,0,0.1-0.1v0.1h0.3c0.1,0-0.1,0.1,0,0v-0.1h0.1v0.1c0,0.1,0.2,0,0.1,0.1v-0.1l0.3,0.5v-0.1v0.2c-0.2,0.3-0.1,0.3-0.3,0.3
	h-0.1h0.1h-0.1c-0.1,0-0.1,0.1-0.3,0c-0.1,0-0.2,0.1-0.2,0.2v0.2c0,0-0.2,0.2-0.2,0.1v0.1l-0.1,0.1c0,0,0.2,0.1,0.2,0l0.1-0.1
	c0.1-0.1,0.1-0.2,0.2,0.1c0,0,0.1-0.2,0.1,0c0-0.1,0.1-0.1,0.1,0h0.1V485v0.1V485l0.1,0.1l0.2-0.1v0.1c0.1-0.2,0.4-0.4,0.5-0.4
	c0,0.2,0.3,0.1,0.2,0h0.2v0.5c-0.2,0-0.4,0-0.5,0.2h-0.2v0.2l-0.1,0.1v0.2h0.1v0.2l0.2,0.2v0.1v-0.1h-0.5l-0.3,0.3h-0.1l-0.1,0.1
	v-0.1h-0.2c-0.1,0.1-0.3,0.2-0.4,0.3l-0.1-0.2l-0.1-0.1l-0.1,0.1l-0.1,0.2v0.1l-0.1,0.1c0.1-0.1,0.1,0,0.1,0l-0.1,0.1v-0.1l-0.1-0.1
	v0.1l-0.1,0.1l-0.1-0.1h0.1h-0.1c0-0.1,0,0,0.1-0.1l-0.1-0.1c0,0.3-0.1,0.2,0.1,0.4h-0.2h0.1v0.1c-0.1,0,0,0.1,0,0.2v-0.1l-0.1,0.2
	c0.2,0.1,0.2,0.1,0.1,0.1l-0.2-0.1l-0.4-0.3c0.1-0.2,0-0.1,0-0.2c0-0.1-0.1-0.1,0.1-0.2v-0.1l-0.1,0.1v-0.1c-0.1,0-0.3-0.1-0.3-0.2
	h0.1v-0.1h0.1v-0.1l0.1,0.1l0.1,0.1v0.1c0.1-0.1,0-0.2,0-0.3h-0.1v-0.1v0.1l-0.1,0.1l0.1,0.1h-0.1v-0.1c0,0-0.1-0.1-0.1,0v-0.2
	l0.2-0.1h-0.1l0.1-0.1V486c0.1-0.2-0.2-0.2-0.1-0.2h-0.1v-0.2c0.1,0,0.1-0.1,0-0.1v0.1c-0.1-0.2,0-0.1,0-0.4h-0.1l0.1,0.1
	c-0.1,0-0.5-0.2-0.4-0.4v0.1c0.1-0.1,0-0.1,0-0.1v-0.1l-0.2,0.2l0.1,0.3l-0.1,0.2h-0.1c0,0-0.5,0.3-0.4,0.1h-0.3
	c0-0.1-0.3-0.1-0.3,0v0.1h0.1l0.1,0.1l-0.1,0.1c0,0,0.1,0.1,0.1,0.2c0.2,0,0.3,0.1,0.6,0.2v-0.1l0.1,0.1v0.1h0.3
	c-0.1,0.1,0.2,0.1,0.2,0.1l-0.1,0.2c0.1-0.1,0.3,0.2,0.1,0.2c0-0.1-0.1-0.2-0.2-0.2v-0.2l-0.1,0.1c0-0.1,0,0-0.1,0.1v-0.1l-0.2-0.1
	h-0.2h0.1h-0.1c0-0.1-0.1-0.1-0.2-0.1h0.1v0.1c0-0.1,0-0.2-0.2-0.2h-0.1v0.1h-0.1v0.1l-0.2,0.2c-0.1-0.2-0.3-0.2-0.4-0.1v-0.1
	l-0.2-0.1h-0.1v-0.1v0.1v-0.1l-0.3-0.1h-0.2h0.1l-0.2-0.1v0.2l-0.1,0.1v-0.1h-0.2v0.1h-0.1v0.2h0.1v0.1h-0.1c0,0.1,0,0.1,0.1,0.1
	l0.1,0.1h-0.1h0.1c0.1,0.1-0.1,0.2,0.1,0.3l-0.2,0.2l-0.1-0.1h-0.1v-0.1l-0.1,0.1l-0.1,0.1v9.8c0,2.3,1.9,4.2,4.2,4.2h8.5
	c8.8,0,11.9-4.1,13-8c0.4-1.6,0.6-3.2,0.6-4.3v0.2v-2.4c0-0.4-0.3-0.7-0.7-0.7h-7.8c-0.4,0-0.7,0.3-0.7,0.7v0.3
	c0,3.6-0.5,5.2-4.3,5.2c-4,0-4.3-2.5-4.3-6.5v-7.6c0-4,0.3-6.5,4.2-6.5h0.1c3.9,0,4.3,1.6,4.3,5.4v0.4c0.1,0.3,0.4,0.6,0.7,0.6h7.8
	c0.3,0,0.6-0.2,0.7-0.5v-2.1c0-1-0.1-3.1-0.5-4.7c-1-3.8-3.9-7.9-12.3-8.1h-2.4C-262,462.4-265.1,464.7-266.8,467.5"/>
<g>
	<g>
		<defs>
			<path id="SVGID_1_" d="M-270.7,488.7l0.1-0.1L-270.7,488.7 M-270.9,488.4L-270.9,488.4L-270.9,488.4 M-270,488.3v0.4h0.1
				C-270,488.5-269.9,488.4-270,488.3 M-272.1,487.8c0.1,0.1-0.1,0.2,0,0.2V487.8 M-270.7,487.6l0.1,0.1L-270.7,487.6L-270.7,487.6
				 M-269.2,487.6L-269.2,487.6l0.1,0.1l0.1-0.1H-269.2 M-270.1,487.4l0.1,0.1L-270.1,487.4 M-270.3,487.4c-0.1,0.1,0,0.1,0,0.1
				V487.4 M-269.4,487.4L-269.4,487.4L-269.4,487.4 M-270,487.2l0.1,0.1C-269.8,487.3-269.8,487.2-270,487.2
				C-269.8,487.3-269.9,487.2-270,487.2C-269.9,487.3-269.9,487.2-270,487.2 M-270.5,487.2C-270.4,487.2-270.4,487.2-270.5,487.2
				 M-269.6,487.1l-0.1,0.1L-269.6,487.1L-269.6,487.1 M-267.8,487v0.1V487c0,0.1-0.1,0.2-0.1,0.2h0.1c0,0,0-0.1,0,0V487
				 M-270.4,487.1l0.1-0.1L-270.4,487.1 M-270.3,486.8C-270.2,486.8-270.3,486.9-270.3,486.8L-270.3,486.8L-270.3,486.8
				 M-271.5,486.9L-271.5,486.9l-0.1-0.1c0,0.1-0.2,0.4-0.3,0.3C-271.9,487.4-271.5,486.9-271.5,486.9l0.1-0.1L-271.5,486.9
				 M-269.1,486.7L-269.1,486.7C-269.2,487-269.1,486.9-269.1,486.7L-269.1,486.7 M-268.6,486.7L-268.6,486.7l0.1-0.1L-268.6,486.7
				l0.1-0.1L-268.6,486.7 M-261.8,486.7l-0.1,0.1l0.1,0.1V486.7L-261.8,486.7c0,0.2,0,0.3,0.1,0.2h-0.1V486.7l0.1,0.2l0.1-0.1v0.1
				C-261.6,486.8-261.5,486.6-261.8,486.7C-261.6,486.6-261.7,486.7-261.8,486.7C-261.7,486.7-261.8,486.6-261.8,486.7L-261.8,486.7
				 M-272.4,486.5C-272.5,486.4-272.4,486.6-272.4,486.5 M-268.2,486.4C-268.1,486.5-268.2,486.4-268.2,486.4v-0.1V486.4
				 M-267.9,486.2L-267.9,486.2L-267.9,486.2L-267.9,486.2 M-264.5,486.2L-264.5,486.2c0.2,0.1,0.2,0.1,0.2,0h0.1v-0.1L-264.5,486.2
				 M-260,486.2L-260,486.2L-260,486.2L-260,486.2 M-266.2,486.4l0.2-0.1h-0.2v-0.1V486.4 M-264.5,486.3v-0.2
				C-264.5,486.1-264.6,486.3-264.5,486.3 M-268.1,486.3v0.2C-268.1,486.4-268,486.4-268.1,486.3L-268.1,486.3v-0.2V486.3v-0.2
				V486.3v-0.2V486.3 M-271.2,486.1v0.2V486.1 M-264.4,486v0.1V486l0.1,0.1L-264.4,486 M-262.1,486c0,0.1,0.1,0.3,0.1,0.3h0.2
				L-262.1,486L-262.1,486L-262.1,486 M-261.9,485.9C-262.1,486-261.9,485.9-261.9,485.9 M-271,485.9L-271,485.9
				c-0.1,0.1-0.2,0.3-0.2,0.3l0.1-0.1C-271.1,486-271,486-271,485.9h0.3H-271 M-261.8,485.9l0.1,0.2v0.1L-261.8,485.9L-261.8,485.9
				C-261.7,485.8-261.7,485.9-261.8,485.9l0.1-0.1L-261.8,485.9 M-262.2,485.8v0.3l0.1,0.1L-262.2,485.8 M-262,485.7l0.1,0.1v-0.1
				C-261.9,485.7-261.9,485.8-262,485.7 M-265.7,485.7C-265.8,485.8-265.7,485.8-265.7,485.7L-265.7,485.7L-265.7,485.7
				L-265.7,485.7 M-264.5,486l0.1-0.1l-0.2-0.1C-264.6,485.9-264.6,486-264.5,486 M-262.3,485.8l-0.1-0.2L-262.3,485.8
				 M-263.5,485.7h0.1H-263.5 M-267.7,485.6l0.2,0.1v-0.2l-0.2-0.1V485.6 M-266.2,485.4v0.2V485.4 M-271.8,485.4v0.2V485.4v0.2
				V485.4 M-267.4,485.4h-0.1C-267.3,485.6-267.4,485.5-267.4,485.4 M-272.4,485.4C-272.4,485.3-272.3,485.4-272.4,485.4
				 M-271.7,485.3C-271.7,485.3-271.9,485.4-271.7,485.3 M-273,485.3c0,0.1-0.2,0.1-0.1,0.1l0.1,0.1V485.3l0.1,0.1L-273,485.3
				l0.1,0.1L-273,485.3 M-262.5,485.2l0.1,0.1v0.1c0.1,0-0.1,0,0,0.1h0.1c0,0.2,0,0.1,0.1,0.1l0.1,0.1v-0.2v0.1l-0.3-0.2
				L-262.5,485.2L-262.5,485.2 M-271.5,485.3v-0.1C-271.7,485.2-271.6,485.3-271.5,485.3 M-266.1,485.3
				C-266.2,485.3-266.1,485.3-266.1,485.3C-266.2,485.3-266.5,485.4-266.1,485.3l0.1-0.1V485L-266.1,485.3 M-270.4,485.2h0.1H-270.4
				 M-263,484.9v0.1V484.9L-263,484.9 M-270.8,485l-0.2,0.2h0.1l0.1,0.2h0.1l0.1-0.1C-270.7,485.4-270.7,485.1-270.8,485l0.1,0.1
				C-270.6,485-270.7,484.9-270.8,485 M-270.2,485v0.1V485l0.2-0.2h-0.3L-270.2,485 M-264,485l0.1,0.1v0.3v-0.1h0.1
				c0.1-0.1,0.2,0,0.2,0l0.1-0.1c-0.1,0,0,0,0,0L-264,485c0-0.2,0-0.3-0.1-0.3C-264.1,484.8-264.1,484.9-264,485 M-269,484.6
				c0,0.1,0,0.2-0.1,0.2c0,0.1,0.1,0.3,0.1,0.3h-0.1c0,0.1,0.1,0.1,0,0.2s0.1,0.1,0.2,0.2c0,0.1,0.4,0.3,0.5,0.1v-0.2
				c0,0.1,0.1-0.1,0.1-0.1c0,0.1,0.1-0.1,0.1-0.1v-0.1l-0.1,0.1c-0.1-0.1,0.1-0.2,0-0.2v-0.1c0,0.1,0.2-0.1,0.2-0.1l-0.1-0.1
				l0.1,0.1h-0.2l-0.3,0.4c0-0.2-0.1-0.3-0.2-0.4h0.1l-0.1-0.1h0.1l-0.1-0.1L-269,484.6 M-268.7,484.5v0.2h0.1v0.1
				c0-0.1,0.1-0.1,0.1-0.2L-268.7,484.5 M-263.8,484.4l0.1,0.1l0.1-0.1c-0.1,0.2,0.1,0.2,0.2,0.2v0.2v-0.1v0.1l0.1-0.1
				c0,0.1,0.1,0.1,0.1-0.1h-0.1l0.1-0.2h-0.1l-0.1-0.1c-0.1,0.1-0.1,0.1-0.1,0l-0.1,0.1c-0.1,0-0.2,0-0.2-0.1V484.4 M-264.7,484.3
				l0.1,0.1C-264.6,484.2-264.7,484.3-264.7,484.3 M-260.4,484.2C-260.4,484.2-260.5,484.3-260.4,484.2 M-263.9,484.3
				c0,0-0.2,0.1-0.1,0.1L-263.9,484.3v0.2C-263.9,484.8-263.6,484.5-263.9,484.3 M-265.2,484.2c0,0.2,0.1,0.1,0.1,0.2l0.3-0.2
				c-0.1,0-0.2-0.1-0.3-0.1L-265.2,484.2 M-260.3,484.3L-260.3,484.3C-260.3,484.2-260.4,484.3-260.3,484.3 M-272.8,483.9
				C-272.7,483.9-272.7,483.9-272.8,483.9 M-272.6,483.9L-272.6,483.9L-272.6,483.9 M-269.1,483.8l-0.1,0.1L-269.1,483.8
				L-269.1,483.8 M-266.3,483.7L-266.3,483.7L-266.3,483.7 M-272.7,483.6l0.2,0.1l-0.1,0.1l0.1,0.1l0.1-0.1v-0.1l-0.2-0.2
				L-272.7,483.6 M-268.7,483.4h0.1H-268.7l0.2,0.1l-0.1-0.1H-268.7 M-269.4,483.4L-269.4,483.4L-269.4,483.4L-269.4,483.4
				 M-269,483.5C-269.1,483.5-269.1,483.6-269,483.5v0.2l0.1,0.1h0.1l0.1-0.1c0,0-0.1,0.2,0,0v0.1h0.2c0-0.2-0.2-0.1-0.2-0.2
				c0.1-0.1-0.1-0.1-0.2-0.1H-269l0.2-0.1C-268.8,483.3-269.2,483.4-269,483.5 M-265.6,483.4v0.1V483.4 M-265.7,483.4
				c0-0.1,0.1-0.2,0-0.1V483.4v-0.2h-0.1C-265.8,483.4-265.7,483.4-265.7,483.4 M-268.4,483.3L-268.4,483.3L-268.4,483.3
				C-268.4,483.2-268.5,483.2-268.4,483.3 M-265.2,483.2c0,0-0.1,0.2-0.1,0.3L-265.2,483.2L-265.2,483.2 M-267.5,483.2
				c0,0.1-0.2,0.1-0.2,0.2l0.1,0.1v0.1l-0.2,0.2l0.3,0.1l0.1-0.1l0.1,0.1h0.2l0.1,0.1c0-0.1,0-0.3-0.1-0.3v0.1v-0.4v0.1
				c0,0-0.1-0.1,0-0.1h-0.3C-267.3,483.4-267.4,483.2-267.5,483.2C-267.6,483.3-267.4,483.2-267.5,483.2 M-266,483.2
				C-266.1,483.3-266,483.2-266,483.2 M-267.4,483.2l0.1,0.1C-267.2,483.2-267.3,483.2-267.4,483.2 M-268,483.1L-268,483.1
				L-268,483.1v0.3h0.1c0-0.1,0-0.1,0,0l-0.1-0.1C-267.9,483.3-268,483.2-268,483.1 M-269.4,483.1c-0.2,0.1,0,0.2,0,0.2V483.1
				 M-266.3,483.1C-266.3,483.2-266.3,483.4-266.3,483.1l0.1,0.2L-266.3,483.1 M-266.1,483c0,0,0,0.3,0.1,0.2
				c0.1,0.1,0.1,0.2,0.2,0.2l-0.1-0.1l0.1-0.1v-0.1c0,0-0.1,0.1,0,0h-0.1c0.1,0,0,0,0,0S-265.9,483-266.1,483 M-268.3,482.9
				L-268.3,482.9L-268.3,482.9 M-265.7,482.8L-265.7,482.8L-265.7,482.8 M-269.1,482.8C-269.1,482.9-269.1,482.8-269.1,482.8
				 M-265.1,482.9c0,0.1,0.2,0.3,0.2,0.4v0.1v-0.2v0.1v-0.5C-265,483-265,482.9-265.1,482.9l0.1-0.2L-265.1,482.9 M-272,482.8h0.1
				H-272 M-266.3,482.8l0.2,0.1l0.1-0.1v-0.1h-0.1l-0.1-0.1L-266.3,482.8 M-264.8,482.7h0.3C-264.5,482.6-264.6,482.6-264.8,482.7
				L-264.8,482.7 M-264.5,482.6l0.1,0.1L-264.5,482.6 M-265.9,482.6L-265.9,482.6L-265.9,482.6 M-265.1,482.5l0.1,0.1L-265.1,482.5
				 M-266.1,482.6v-0.1C-266.2,482.6-266.2,482.6-266.1,482.6 M-265.2,482.6l0.1-0.1L-265.2,482.6 M-265.6,482.4L-265.6,482.4
				c-0.1,0.2-0.2,0.2-0.2,0.3c0,0,0.2,0,0,0.1l0.2-0.1V482.4 M-268.6,482.4c0-0.1-0.1,0-0.1,0.1L-268.6,482.4c0.1,0.1,0.1,0.2,0.1,0
				H-268.6 M-265.5,482.3C-265.5,482.3-265.6,482.5-265.5,482.3 M-265.9,482.3l0.1,0.1L-265.9,482.3L-265.9,482.3 M-264.6,482.3
				c0.1,0.1,0.1,0,0.1,0.1v-0.1H-264.6 M-264.7,482L-264.7,482L-264.7,482L-264.7,482 M-266.1,481.9
				C-266.2,481.9-266.2,481.9-266.1,481.9C-266.3,482.1-266.1,481.9-266.1,481.9 M-266,482C-266,482-266.1,482-266,482
				 M-263.2,481.9v0.2V481.9 M-270.1,481.8C-270.1,481.7-270,481.7-270.1,481.8L-270.1,481.8 M-265.5,481.7l0.2,0.1v-0.1H-265.5
				L-265.5,481.7L-265.5,481.7 M-269.7,481.7C-269.7,481.8-269.7,481.8-269.7,481.7l0.1-0.2L-269.7,481.7 M-263,481.6v0.2h-0.1v-0.1
				c0,0,0.2,0.1,0.2,0v-0.1c0.1-0.1,0-0.2-0.1-0.2V481.6 M-264,482.8C-264,482.9-264,482.8-264,482.8 M-263.9,482.4l0.1,0.1
				C-263.9,482.6-263.9,482.5-263.9,482.4v0.1V482.4C-263.8,482.4-263.8,482.4-263.9,482.4 M-264.9,481.6l-0.1-0.1l0.3,0.3
				c0-0.2,0.3,0.2,0.3,0.2l0.1-0.2h0.1v0.1l-0.1,0.1v0.1V482v0.1c0-0.1,0.1,0.1,0.1,0.1h-0.1c0,0.1,0.2,0.2,0.1,0.3h-0.1l-0.1,0.1
				c-0.1,0.3-0.1,0.1-0.2,0.1v-0.1h-0.1v0.4c0,0,0.2,0,0.1-0.1l0.1-0.1c0,0.1,0.1,0.1,0.1,0l0.1,0.2v0.1l0.3,0.1
				c0,0,0.4-0.4,0.2-0.5v-0.1h-0.1c0,0-0.1,0.1-0.1,0c0.1,0,0.1-0.2,0.1-0.2v-0.1h-0.1c0.2,0-0.1-0.3-0.2-0.2c0,0,0-0.4-0.2-0.3
				l-0.2-0.1l-0.1-0.2c-0.1,0,0.1,0.2,0,0.2C-264.7,481.6-264.8,481.6-264.9,481.6L-264.9,481.6l0.1,0.1L-264.9,481.6v0.2l-0.1-0.2
				C-265,481.7-265,481.6-264.9,481.6h-0.2C-264.8,481.4-264.9,481.5-264.9,481.6 M-265.8,481.5L-265.8,481.5L-265.8,481.5
				 M-263.3,481.5L-263.3,481.5L-263.3,481.5 M-265.7,481.4v0.1C-265.6,481.4-265.7,481.4-265.7,481.4 M-263.6,481.4v0.2h0.1
				c0,0.1,0,0.2,0.1,0c0,0.1,0,0.1,0.1,0.1h-0.1c0.1,0,0.3-0.1,0.3-0.2s-0.2,0-0.3,0v-0.1h-0.1c0-0.2-0.1-0.1-0.1-0.1V481.4l0.1-0.1
				L-263.6,481.4 M-270.5,481.4v-0.1V481.4 M-263.3,481.2L-263.3,481.2C-263.3,481.3-263.2,481.2-263.3,481.2 M-269.7,481.2
				L-269.7,481.2L-269.7,481.2 M-263.5,481.2C-263.5,481.2-263.4,481.3-263.5,481.2 M-268.6,481.2l0.1-0.1L-268.6,481.2
				 M-268.7,481.8C-268.6,481.9-268.7,481.8-268.7,481.8 M-268.5,481.4h-0.2c-0.1-0.2-0.1,0.2-0.1,0.2l-0.1,0.1h-0.1l0.1,0.1h-0.2
				v0.1h-0.1c0,0,0,0.3,0.1,0.1v0.1c-0.1-0.1-0.2,0.1-0.2,0.2v0.1l-0.2-0.1v0.1h-0.1v-0.1c-0.1,0-0.1,0.2-0.2,0.1v0.2h0.1v0.1h0.1
				v0.2l0.2,0.1h-0.1l0.2-0.3v-0.1c0,0.1,0.1,0,0.1-0.1l0.3-0.1c-0.1-0.1,0-0.1,0-0.3c0.2,0,0.1,0.1,0.1,0.1c0.1,0,0,0,0.1-0.1h0.1
				V482h0.2c0.1-0.3-0.1-0.4,0.1-0.4c0-0.1,0-0.2,0.1-0.1v0.1c0.2,0,0-0.2,0-0.2h0.2l0.1-0.1c-0.1,0-0.1-0.1-0.1-0.2
				C-268.3,481.1-268.5,481.4-268.5,481.4 M-270,481.1c0,0,0.1,0.1,0,0.2V481.1v0.3c0.1,0.2,0.2,0,0.1-0.2
				C-269.9,481.2-269.9,481-270,481.1 M-268.4,481C-268.4,481.1-268.4,481.1-268.4,481L-268.4,481L-268.4,481 M-262.9,480.9l0.1,0.2
				V481h0.1v-0.1H-262.9 M-270.2,480.8c-0.2,0.1,0.1,0.4,0.1,0.3l-0.1-0.1h0.1L-270.2,480.8 M-270.2,480.7
				C-270.2,480.8-270.1,480.7-270.2,480.7 M-268.5,480.5L-268.5,480.5L-268.5,480.5C-268.6,480.5-268.6,480.6-268.5,480.5l-0.1,0.2
				v0.1h-0.1c0,0.1-0.1,0.2-0.1,0.1c-0.1,0-0.3,0.2-0.2,0.3c0.2,0,0.2-0.1,0.3-0.3l-0.1,0.1l0.1-0.1l0.2-0.1l-0.1-0.1v-0.1l0.2-0.2
				C-268.4,480.5-268.5,480.5-268.5,480.5 M-268.9,480.5c0.1,0.1,0,0.1,0,0.2h0.2c0.2-0.1,0-0.2,0.1-0.3L-268.9,480.5 M-269.5,480.3
				L-269.5,480.3L-269.5,480.3L-269.5,480.3C-269.3,480.4-269.6,480.4-269.5,480.3L-269.5,480.3L-269.5,480.3 M-266.8,480.3
				l-0.2,0.2h0.1C-266.8,480.5-266.8,480.4-266.8,480.3 M-268.3,480.2C-268.3,480.3-268.2,480.3-268.3,480.2L-268.3,480.2
				 M-264.6,480.1L-264.6,480.1L-264.6,480.1 M-263.3,480l0.1-0.1l-0.1-0.1V480 M-263.7,479.9l0.1,0.1L-263.7,479.9 M-266.9,479.9
				l0.1,0.1L-266.9,479.9 M-266.1,479.9v0.1l-0.1,0.1v0.1h0.1v-0.1C-265.9,480-266,479.9-266.1,479.9 M-263.9,480v-0.2V480
				 M-266.9,479.9C-267,479.8-267,479.9-266.9,479.9 M-262.1,479.9C-262.1,479.9-262,479.9-262.1,479.9h0.2l-0.1,0.2l0.1,0.1
				c-0.1,0-0.1-0.1-0.2-0.1v0.1c0.1,0,0.1,0.1,0.2,0.1l0.3-0.1c0-0.1,0-0.1-0.1,0V480l-0.1-0.1l-0.2-0.1L-262.1,479.9 M-262.4,479.8
				c0.1,0.1,0,0.2,0.1,0.2L-262.4,479.8 M-263.5,479.8c0,0,0,0.1,0.1,0.1L-263.5,479.8 M-262.1,479.7
				C-262.2,479.8-262.1,479.9-262.1,479.7 M-262.9,479.9C-262.9,480-263,479.9-262.9,479.9l-0.1,0.2v0.1h0.2L-262.9,479.9
				c0.1,0.2,0.2,0.2,0.2,0.3l0.1-0.1c-0.1,0,0.1,0.1,0.2,0.1h0.2v0.1c0-0.2-0.1-0.1-0.1-0.1v-0.1l-0.1,0.1l-0.1-0.2h-0.1
				c0-0.1,0-0.1,0.1-0.1h-0.1c-0.1,0-0.1,0-0.2-0.1L-262.9,479.9 M-266.7,479.8L-266.7,479.8L-266.7,479.8 M-264.9,479.7
				L-264.9,479.7L-264.9,479.7 M-265.1,479.7L-265.1,479.7L-265.1,479.7 M-263.1,479.7v0.3l0.1-0.1c0,0.1,0.1-0.1,0.1-0.1
				L-263.1,479.7 M-267.5,479.5v0.2h-0.2v-0.1l-0.1,0.2h-0.1c0,0.1,0.2,0.3,0.3,0.2c0.1,0.2,0.5-0.1,0.3-0.1v-0.1h-0.1
				c0.1,0,0-0.1,0-0.1L-267.5,479.5 M-263.9,479.5v0.1l0.1,0.1c0,0,0.2,0,0-0.1L-263.9,479.5 M-265.4,479.7L-265.4,479.7
				L-265.4,479.7h-0.2v0.1h-0.1v0.1h0.2L-265.4,479.7C-265.4,479.6-265.5,479.5-265.4,479.7 M-264,479.6
				C-263.8,479.6-264,479.6-264,479.6 M-266.7,479.5v0.1V479.5 M-268.9,479.6c0.1,0.1,0.1,0,0.1-0.1L-268.9,479.6 M-263.9,479.5
				C-264,479.5-263.9,479.5-263.9,479.5 M-261.2,479.4L-261.2,479.4L-261.2,479.4C-261.2,479.5-261.1,479.3-261.2,479.4 M-264,479.2
				c0.1,0.1,0.2,0.3,0.3,0.1h-0.1L-264,479.2 M-265.6,479.2l0.1,0.1v-0.2L-265.6,479.2 M-265.8,479.2L-265.8,479.2L-265.8,479.2
				 M-264.5,479.2l0.2,0.1v0.1h-0.1c-0.3-0.6,0,0,0,0.1h-0.1l0.1,0.1v-0.1l0.1-0.1v0.2l0.1-0.1l0.2,0.1h-0.1
				c0.1-0.2-0.2-0.2-0.2-0.2c0-0.2,0.1-0.4-0.1-0.4v-0.1l-0.2-0.1C-264.5,479-264.5,479.1-264.5,479.2 M-264.7,478.9l0.1-0.1
				L-264.7,478.9 M-264.6,478.8C-264.6,478.9-264.5,478.9-264.6,478.8 M-264.7,478.8L-264.7,478.8L-264.7,478.8 M-267,478.7
				L-267,478.7L-267,478.7 M-264.7,478.7C-264.6,478.6-264.6,478.6-264.7,478.7L-264.7,478.7C-264.7,478.6-264.8,478.7-264.7,478.7
				 M-265.9,478.7v0.3l0.1-0.1v0.1l0.2-0.1l0.2-0.1c0-0.2-0.1-0.2-0.1-0.2h-0.1c-0.1,0,0,0,0-0.1
				C-265.8,478.4-265.9,478.6-265.9,478.7 M-261.6,478.4L-261.6,478.4L-261.6,478.4L-261.6,478.4 M-268.4,478.3
				C-268.5,478.4-268.4,478.5-268.4,478.3 M-268.4,478.2v0.2C-268.3,478.4-268.2,478.2-268.4,478.2 M-266.8,478.3v-0.1V478.3
				 M-265.4,478.3L-265.4,478.3L-265.4,478.3v0.2c0,0.1,0.1,0.1,0.2,0.1h0.1v-0.3l-0.1-0.1C-265.3,478.2-265.4,478.3-265.4,478.3
				 M-265.5,478.1C-265.5,478.1-265.5,478.3-265.5,478.1 M-268.7,478.3L-268.7,478.3c0.1,0,0.1,0.1,0.1,0.2L-268.7,478.3
				c-0.1-0.1,0-0.1,0-0.2h-0.1C-268.7,478.1-268.7,478.2-268.7,478.3 M-265.3,478.1V478V478.1 M-268.2,478l0.1,0.1h0.1
				C-268.1,477.9-268.1,478-268.2,478 M-270.9,478C-270.9,478-270.9,478.2-270.9,478l0.1-0.1L-270.9,478 M-270.8,478.1l0.1-0.2
				L-270.8,478.1 M-266.3,477.9L-266.3,477.9L-266.3,477.9l0.1,0.2l0.1-0.1c0,0,0.1,0.3,0.2,0.1c-0.1-0.1-0.1-0.2-0.2-0.1v-0.1
				H-266.3 M-268.5,477.7v0.3c0.1,0.1,0,0.2,0.1,0v0.1C-268.2,478.1-268.5,477.8-268.5,477.7l0.1,0.2l0.1-0.1l-0.1,0.1
				c0-0.1,0.1-0.1,0.1-0.1C-268.5,477.7-268.5,477.9-268.5,477.7 M-263.9,477.7L-263.9,477.7v-0.2V477.7 M-262.7,477.6L-262.7,477.6
				L-262.7,477.6 M-261.7,477.6v-0.2V477.6 M-268.4,477.5c0.1,0-0.1,0.2,0,0.2V477.5l0.1,0.2C-268.3,477.5-268.4,477.5-268.4,477.5
				 M-271.1,477.2l0.1-0.1C-271.1,477.1-271.1,477.1-271.1,477.2 M-262.8,477.2L-262.8,477.2L-262.8,477.2L-262.8,477.2
				L-262.8,477.2L-262.8,477.2l0.1,0.2h-0.2c0.1,0.1,0.2,0.2,0.3,0.2l0.1,0.1h0.2l0.1-0.1v-0.2h-0.5L-262.8,477.2
				C-262.9,477.3-262.7,477.2-262.8,477.2C-262.6,477-262.8,477-262.8,477.2 M-267.5,477.2L-267.5,477.2L-267.5,477.2 M-267.7,477
				l-0.1,0.1h-0.2l0.1-0.1l-0.1,0.2h-0.1c0.1,0,0-0.1,0.1-0.1c0-0.1-0.1-0.1-0.1-0.1v0.3l-0.2,0.1v0.1h-0.1c0,0.2,0.1,0.2,0.2,0.2
				h0.1v-0.1h0.2v0.2c0.1,0.2,0,0.2-0.1,0.2v0.1l0.1,0.1l-0.2,0.2h0.2c0.1,0.1,0.1,0.1,0.3,0c0.1,0,0.4-0.3,0.4-0.1l0.1-0.1l0.2,0.1
				V478c0.2,0.3,0.2-0.4,0.2-0.4c0-0.1-0.2-0.1-0.2-0.1h-0.2c0.1-0.1,0-0.1,0-0.2c0,0-0.3,0.1-0.2,0h0.1l-0.1-0.1
				c-0.1-0.1-0.1-0.1-0.2-0.3h0.1v-0.1L-267.7,477 M-267,476.8v0.2h0.1L-267,476.8 M-263.1,477.5
				C-263.4,477.4-263.1,477.4-263.1,477.5L-263.1,477.5 M-263.2,476.9h-0.3v0.2h-0.1V477l-0.1-0.2h-0.1c0.1,0.1,0,0.2,0,0.3h0.1
				c0,0.1,0.1,0,0.2,0h-0.1c0,0.1,0.1,0,0.1,0.1h-0.1l0.1,0.1h-0.1l-0.1-0.1v-0.1l-0.1,0.1l0.2,0.2v-0.1v0.1h0.2c0,0.2,0.1,0,0.2,0
				c0,0.1,0.1,0.2,0,0.3h0.3c0.1,0.2,0.3,0,0.3,0v0.1v-0.1c-0.1,0.1-0.2-0.1-0.3-0.2l-0.1-0.1v-0.2l-0.1,0.1v-0.1l0.1,0.1v-0.2v0.1
				h-0.1V477L-263.2,476.9l0.1,0.1c0-0.1,0.1-0.2,0-0.3L-263.2,476.9 M-268,476.9v-0.1V476.9 M-268,476.8l0.1,0.2L-268,476.8h0.2
				v0.1l0.1-0.1H-268 M-264,476.7c-0.1-0.1-0.1,0-0.1-0.1h-0.1l-0.2,0.2v0.1l0.1,0.1v-0.1v0.1l0.1-0.1l-0.1,0.1
				c0.1,0,0.1-0.1,0.1-0.2v-0.1C-263.9,476.9-263.9,476.8-264,476.7v-0.2C-264,476.6-263.9,476.7-264,476.7 M-267.5,476.6l0.1,0.1
				h0.1v-0.1l0.1,0.1v0.1h-0.1v0.1c0.1-0.2,0.3-0.1,0.3,0.1v-0.2c0,0.1,0,0,0,0v-0.1h-0.2v-0.1c0,0.1,0.1,0,0.1,0H-267.5
				 M-268.1,476.6L-268.1,476.6L-268.1,476.6 M-261.4,476.6c-0.2,0.1,0.2,0.2,0.3,0.2L-261.4,476.6h0.2H-261.4
				c0.1,0.1-0.1-0.2,0-0.2h-0.2C-261.6,476.6-261.5,476.6-261.4,476.6 M-268.7,476.4C-268.7,476.6-268.6,476.4-268.7,476.4
				 M-268.5,476.5L-268.5,476.5L-268.5,476.5c-0.2,0-0.3,0.1-0.3,0h-0.1v0.2l-0.1,0.1c-0.1,0.3,0.2,0.1,0.4,0.2v-0.1l0.1-0.2V476.5
				L-268.5,476.5L-268.5,476.5L-268.5,476.5c0.1,0,0.2,0.1,0.2-0.1h-0.1c0,0-0.1,0-0.1-0.1V476.5 M-264.2,476.4L-264.2,476.4
				L-264.2,476.4 M-263.7,476.3c0,0.3,0.3,0.1,0.3,0.1h-0.1L-263.7,476.3 M-262.9,476.3l-0.2,0.2v0.2h-0.1c0.1,0,0,0,0,0l0.2,0.4
				c0-0.1,0-0.3,0.1-0.2v0.1c0.1,0,0.2-0.1,0.2-0.2v0.1l0.1-0.1v-0.5h-0.1c0,0.1,0.1,0.2,0.1,0.3c0,0-0.1-0.3-0.2-0.2L-262.9,476.3
				L-262.9,476.3L-262.9,476.3L-262.9,476.3C-262.9,476.3-262.8,476.3-262.9,476.3C-262.8,476.2-262.9,476.3-262.9,476.3
				 M-263.1,476.2c0,0,0.1,0.1,0.1-0.1L-263.1,476.2 M-266.3,476c-0.1,0.2-0.1,0.2,0,0.2c0,0-0.1,0.1,0,0.2
				C-266.3,476.2-266.2,476.1-266.3,476 M-267.1,476l-0.1,0.1L-267.1,476c-0.2,0-0.1,0.2-0.1,0.1l-0.1,0.1h0.4v0.1v-0.2
				C-266.8,476.1-267,476.1-267.1,476C-266.9,476-267.1,476-267.1,476 M-260.8,476C-260.8,476.2-260.7,476-260.8,476L-260.8,476
				L-260.8,476 M-267.2,475.7L-267.2,475.7L-267.2,475.7 M-266.8,475.6L-266.8,475.6L-266.8,475.6
				C-266.9,475.8-266.7,475.8-266.8,475.6l0.1,0.2c0.1,0,0.1,0,0.1-0.1L-266.8,475.6L-266.8,475.6L-266.8,475.6L-266.8,475.6
				L-266.8,475.6L-266.8,475.6l0.1-0.1h-0.1V475.6 M-265.2,475.6c0.1-0.1-0.2-0.1-0.2,0l-0.1-0.1v0.1l-0.1-0.1v0.1
				c0,0,0.2,0.3,0.3,0.2c0-0.2,0.3-0.1,0.3-0.1l0.1,0.1l0.1,0.1v0.1l-0.2-0.1l-0.1,0.1l0.2,0.2c0,0.1,0.1,0.1,0,0.1v0.1h-0.1
				c0,0.1,0.1,0.1,0.1-0.1c0.1,0,0.1-0.3,0.2-0.4v0.1c0,0.1,0,0.1-0.1,0.2l0.1-0.1h0.1V476h-0.1c0.1,0-0.3-0.4-0.2-0.5l-0.1,0.1
				v-0.2L-265.2,475.6 M-267,475.5L-267,475.5l0.1,0.2h0.1h-0.1C-266.8,475.6-267,475.4-267,475.5 M-265.8,475.7h-0.2v-0.2
				c0,0,0-0.1-0.1,0l-0.2,0.2v0.1v-0.1c0,0.1,0.1,0.2,0.2,0c0,0.1,0,0.2,0.1,0.1c-0.1,0.1,0.1,0.2,0.1,0.2v0.1V476l0.2,0.1
				C-265.7,476-265.8,475.7-265.8,475.7L-265.8,475.7L-265.8,475.7c0.1,0,0-0.1,0.1-0.2l-0.1-0.1V475.7 M-267.6,475.3L-267.6,475.3
				c-0.1,0.1,0,0.1,0.1,0.2v0.1c0.1-0.1,0.1-0.1,0.1-0.2C-267.4,475.3-267.5,475.3-267.6,475.3L-267.6,475.3 M-266.9,475.1
				L-266.9,475.1L-266.9,475.1 M-267.7,474.9L-267.7,474.9L-267.7,474.9 M-265.6,474.9l-0.1,0.1h0.1
				C-265.7,474.9-265.5,474.9-265.6,474.9L-265.6,474.9 M-265.8,474.8L-265.8,474.8l-0.2,0.1v0.2c0.1,0,0.2,0.2,0.2,0V474.8l0.1,0.2
				L-265.8,474.8L-265.8,474.8 M-264.5,474.1h0.2C-264.3,474-264.4,474.1-264.5,474.1L-264.5,474.1L-264.5,474.1L-264.5,474.1
				 M-266.8,474.1L-266.8,474.1c0.2,0,0.2-0.2,0.2-0.2h-0.1C-266.8,473.9-266.8,474-266.8,474.1 M-264.7,474v0.2V474L-264.7,474
				L-264.7,474c0,0,0.1-0.1,0-0.1V474 M-266.9,473.8C-266.8,473.8-266.8,473.9-266.9,473.8 M-265.6,473.7
				C-265.7,473.8-265.6,473.7-265.6,473.7 M-266.8,473.8L-266.8,473.8v-0.1C-266.8,473.6-266.9,473.8-266.8,473.8 M-266,473.6
				L-266,473.6L-266,473.6L-266,473.6c0,0-0.1,0.2-0.2,0.3h0.1h-0.1h0.1v-0.1v0.1h0.1h-0.1h0.1v-0.1l0.2-0.1v-0.1L-266,473.6
				 M-265.5,473.5C-265.5,473.4-265.6,473.5-265.5,473.5L-265.5,473.5c0.1,0.1,0,0.3,0.1,0.2c0,0.1,0.1,0.2,0.1,0.1
				c0.1,0,0.1,0,0.2-0.1v0.1h0.1l0.1-0.1h-0.2c0,0,0-0.1-0.1-0.2l0.1,0.1h-0.2v-0.1v0.1L-265.5,473.5
				C-265.5,473.6-265.5,473.6-265.5,473.5 M-263.9,473.4C-263.9,473.5-263.9,473.4-263.9,473.4 M-265.6,473.4v-0.1V473.4
				 M-267.7,473.2l-0.1,0.2L-267.7,473.2v0.2V473.2 M-263.8,473.2C-263.5,473.3-263.7,473.2-263.8,473.2L-263.8,473.2L-263.8,473.2
				 M-266.4,473.1l-0.1,0.1L-266.4,473.1L-266.4,473.1l-0.2,0.2l0.1-0.1L-266.4,473.1L-266.4,473.1h0.2
				C-266.2,473.1-266.4,473.2-266.4,473.1 M-266.3,473L-266.3,473l0.1,0.2l0.1-0.1c-0.1,0,0,0-0.1,0.1
				C-266.2,473-266.1,473-266.3,473 M-264.2,473L-264.2,473L-264.2,473 M-266.1,472.9v0.1V472.9 M-265.8,472.9
				C-265.8,473-265.7,472.9-265.8,472.9L-265.8,472.9 M-266.7,471.4c-0.3,0.2-0.1,0.3-0.1,0.2L-266.7,471.4L-266.7,471.4v0.1V471.4
				 M-264,471.4v0.2c0.1-0.1,0.1-0.2,0.1-0.3L-264,471.4 M-267.4,471.2L-267.4,471.2c-0.1,0.2,0,0.2,0,0.2V471.2 M-267,471.2
				L-267,471.2L-267,471.2 M-267.7,471.1L-267.7,471.1L-267.7,471.1 M-266.8,470.9v0.2c0,0.1,0.1,0,0.1,0L-266.8,470.9L-266.8,470.9
				c0,0.1,0.2,0,0.2,0C-266.7,470.9-266.7,470.8-266.8,470.9 M-268.2,471.1L-268.2,471.1L-268.2,471.1 M-267.5,470.9
				c0.1,0.1,0,0.1,0,0.1v0.1h0.1l-0.1,0.1c0.3-0.1,0-0.1,0.1-0.2l-0.1,0.1V470.9 M-268.8,470.8
				C-268.7,470.8-268.8,470.8-268.8,470.8 M-265.6,470.7c-0.1,0.1,0,0.1-0.1,0.1c0,0,0.1,0.2,0.1,0.1l-0.1-0.1L-265.6,470.7
				 M-266.8,470.6L-266.8,470.6L-266.8,470.6v0.2C-266.9,470.7-266.8,470.7-266.8,470.6l-0.1,0.2L-266.8,470.6L-266.8,470.6
				 M-268.6,470.6L-268.6,470.6l-0.1,0.2c0,0-0.1,0.1,0,0.1v0.1v-0.1l0.1,0.2c0.1-0.2,0,0.2,0.1,0.2l0.1-0.1v0.1v-0.1h-0.1l0.1-0.1
				V471v0.1l-0.1-0.1c-0.1-0.1,0.1-0.1,0.1-0.2L-268.6,470.6 M-267.7,470.5C-267.6,470.5-267.7,470.6-267.7,470.5 M-268.8,470.2
				C-269,470.2-268.7,470.3-268.8,470.2 M-265.8,470.2C-265.8,470.3-265.7,470.4-265.8,470.2C-265.8,470.2-265.8,470.3-265.8,470.2
				 M-267.7,469.9l0.1,0.2l0.1-0.1c0.1,0.1,0.2,0,0.2,0.2h-0.1v0.1h-0.1c0.1,0.1,0.1,0.2,0,0.2v0.1l0.3-0.1l-0.2-0.1
				c0.1,0,0.1-0.2,0-0.3l-0.1-0.1v-0.1v0.1v-0.1L-267.7,469.9 M-267.5,469.8C-267.5,469.7-267.7,469.8-267.5,469.8 M-267.7,469.6
				L-267.7,469.6L-267.7,469.6 M-267.3,469.4C-267.3,469.6-267.2,469.4-267.3,469.4 M-262.3,487.8L-262.3,487.8L-262.3,487.8
				 M-260.2,484.8C-260.2,484.7-260.2,484.7-260.2,484.8 M-266.8,467.5V464c0-0.4-0.3-0.7-0.7-0.7h-8.2c-0.4,0-0.7,0.3-0.7,0.7v18.4
				c0,0.5-0.4,0.6-0.6,0.2l-7.2-17.4l-0.3-0.7c-0.5-1.1-0.5-1.2-1.9-1.2h-8.9c-0.4,0-0.7,0.3-0.7,0.7v36.4c0,0.4,0.3,0.7,0.7,0.7
				h7.8c0.4,0,0.7-0.3,0.7-0.7V482c0-0.5,0.4-0.6,0.6-0.2l7.2,17.4l0.3,0.7c0.2,0.7,0.9,1.2,1.6,1.2h5.5c2.3,0,4.2-1.9,4.2-4.2v-9.5
				c-0.1,0-0.2-0.1-0.3-0.1l-0.1-0.1l0.1,0.2h-0.2v-0.1v0.1l0.1-0.1h-0.2c0,0.2,0,0.3,0.1,0.2h0.1l0.1,0.1h-0.1l0.1,0.1
				c0,0-0.2,0-0.2-0.1v0.2v-0.1l-0.1,0.1l-0.1,0.1c-0.1,0.2,0,0.2,0,0.2h-0.3c-0.2,0-0.3,0.1-0.5,0.1l0.1-0.1l-0.1,0.1l-0.2-0.1h0.1
				c-0.1-0.1,0-0.3-0.2-0.3v0.2l-0.1-0.2l-0.1,0.1l-0.2,0.5v-0.1l0.1,0.1h-0.1l0.1,0.1l-0.1,0.4v-0.1c-0.2,0-0.2,0-0.2,0.2h-0.1
				v-0.1l-0.1,0.2h-0.1c0-0.1,0.1-0.3,0.1-0.4h-0.1l-0.2,0.2v-0.1l-0.1,0.3l-0.2,0.1v-0.1h-0.1c0,0.3,0.2,0.2,0,0.2l-0.1,0.1
				c-0.1,0.1-0.1,0.3-0.2,0.1c-0.1-0.2,0-0.3,0-0.3c0.1,0,0.1-0.3,0.2-0.4l-0.1,0.1v0.1v-0.1h-0.1c0,0-0.1-0.2-0.2-0.2
				c0-0.2-0.1-0.2-0.2-0.3l0.1-0.1l-0.1-0.2c0,0,0.1-0.1,0.2,0.1v-0.1c0.1-0.1,0.1-0.5,0.3-0.4c-0.2-0.2,0-0.4,0.1-0.5
				c0-0.1,0-0.5,0.2-0.3v-0.1h0.1v-0.1h0.1l-0.1-0.1l0.1-0.1h0.1h-0.3v-0.1v0.1v-0.2l0.3,0.1c0.1-0.1,0-0.2,0-0.2
				c0-0.1,0-0.2,0.1-0.3v0.1v-0.2v0.1l-0.1,0.1l-0.2,0.2v-0.1l-0.1,0.2h-0.1l-0.3,0.3v-0.1c-0.1,0.1-0.2,0.5-0.2,0.3l0.1,0.1
				c-0.1,0-0.2,0.1-0.1,0.2c-0.1-0.1,0,0.3-0.2,0.3c-0.1,0-0.1,0.2-0.2,0.3l-0.1-0.3h-0.1v0.1h-0.1c0,0.2-0.1,0.1-0.1,0.1h0.2v0.1
				l0.1-0.1v0.1h-0.1v0.1v-0.1v0.1h-0.2v-0.2h-0.1c0.1,0.1-0.1,0-0.1-0.1l-0.1-0.1l0.1-0.1h0.1v-0.2l0.1-0.2h0.1l0.1-0.1l-0.2,0.5
				l0.1-0.1l-0.1-0.3l-0.2,0.2c-0.2,0.2-0.4,0.3-0.3,0h0.1c0-0.1-0.2-0.4-0.1-0.4c-0.4-0.3,0-0.3,0.1-0.3c0,0,0.1-0.3,0.2-0.1
				c0.1-0.2,0.3-0.1,0.4,0h-0.1l0.1,0.2v-0.1l0.2-0.1h-0.1c0-0.1,0.1-0.1,0.1,0h0.1h-0.1c0,0,0.4-0.2,0.4-0.3l-0.1,0.1
				c0-0.1,0.1-0.1,0.1-0.1v-0.1h0.1v0.1c0.2-0.2,0.4,0,0.4-0.3h0.1v0.2l0.1-0.2c0.1,0.1,0.2-0.1,0.2-0.2c-0.2,0.1-0.5-0.1-0.6-0.1
				v-0.1h-0.2c0.1,0.1,0,0.1,0,0.2l0.1,0.1h-0.1l-0.2,0.1v-0.1h-0.1c0-0.1,0,0,0,0v-0.1c0,0-0.1,0,0,0.1h-0.1l0.2,0.1
				c0.1,0.1,0,0.3-0.1,0.1v-0.1l-0.1,0.1l0.1,0.2h-0.1l0.1-0.1l-0.1,0.1v0.2h-0.2c-0.1,0,0-0.3,0.1-0.3c0,0-0.1-0.3-0.1-0.1h0.1
				h-0.1v0.2v-0.1c0,0-0.2,0.1-0.1,0.1h-0.1v-0.2v0.1h-0.2c0,0.1-0.1,0-0.1,0.1v0.1l0.1,0.1c-0.1,0.1-0.1,0.2-0.2,0.3h-0.2l0.1-0.1
				h-0.4v-0.1v0.2v-0.1h0.1c0,0.1-0.2,0.2-0.2,0.2c0.1,0,0.1,0.1,0,0.2h-0.2v-0.3l0.1,0.1l-0.1-0.2h-0.1c0,0,0-0.2-0.1-0.1
				c0-0.1,0.1-0.1,0.1-0.1h0.1l-0.1-0.1h0.1c-0.1,0.1,0.1,0,0.1,0h-0.1c0.1-0.1,0-0.1,0-0.2c0,0.1,0.1,0.1,0.2,0.1v0.1V486
				c0.1,0,0.2,0,0.2-0.1h0.1l-0.1-0.1l0.1-0.1h0.1h-0.1v-0.2v0.1c0,0.1-0.1,0.1-0.1,0.1h-0.1l0.1-0.1l-0.1,0.1h0.1v0.1
				c-0.1-0.1-0.2,0-0.2,0.1h-0.1c0-0.1-0.2-0.2,0-0.2c0-0.1-0.3-0.3-0.2-0.4c0-0.1-0.1-0.4-0.2-0.6h0.1c0-0.1,0.4-0.6,0.4-0.8h0.1
				c0,0,0-0.4,0.2-0.2h-0.1h0.1v-0.3l-0.1,0.1c0-0.1-0.2-0.2-0.2-0.4c0.2,0,0.3,0,0.4-0.1c0-0.2-0.1-0.1-0.1-0.2h0.1v-0.1
				c0.2,0.1,0.1,0,0.3,0.2c0.1,0.1,0.1,0,0.1-0.1h0.1v-0.4c0.2-0.1,0.2-0.3,0.2-0.5c-0.1-0.2,0.1-0.2,0.1-0.3c0,0,0.2,0.1,0.1-0.1
				v-0.1c-0.2,0.2,0.1-0.1,0-0.2h0.1c0,0,0.1,0.2,0.2,0.1c-0.1-0.1,0-0.1,0-0.2h0.1c-0.1,0.1,0.3,0.3,0.4,0.3v0.1h-0.2l0.1,0.1
				c0-0.1,0-0.1,0.1-0.1v-0.1h-0.1v-0.2l0.1,0.1h0.1v-0.1h0.1v0.1c0,0,0.1,0,0.1-0.1h-0.1c0.1,0,0.2,0.1,0.1-0.1h0.1
				c-0.1-0.1,0.1-0.1,0.2-0.1c0-0.1-0.2-0.2-0.2-0.1l0.1-0.1c0-0.1-0.1,0.1-0.1,0.1v-0.1h-0.1v0.2v-0.1v0.1h-0.2l-0.1,0.2
				c0,0.1-0.1-0.2-0.1-0.4c-0.1-0.2-0.1-0.5,0-0.3c0-0.1,0-0.2-0.1-0.2s-0.1,0-0.1-0.2h0.3h-0.1l0.3-0.3h0.1c0-0.2,0.3-0.1,0.3,0
				c0.1-0.1,0.5-0.1,0.6-0.1c0-0.1,0.1-0.3,0.1-0.2h0.1v-0.3l0.3-0.2h-0.1h0.3l0.1-0.1h0.1v-0.1c0-0.1-0.2-0.1-0.3-0.1h0.1
				c0-0.2-0.3-0.3-0.2-0.2v-0.1v0.2c-0.1-0.1,0,0-0.1,0.1c-0.1,0-0.2-0.3-0.2-0.4c0.1,0,0.2-0.2,0.1-0.2V478c0,0,0.3-0.4,0.4-0.6
				l0.1-0.1l0.1-0.1c-0.1-0.1,0,0-0.1-0.2h-0.1l0.1-0.1h-0.1c-0.1,0-0.2-0.1-0.3,0.1l0.1,0.1h-0.2V477l-0.1,0.1v0.2
				c0-0.1-0.2,0-0.2,0.1c0,0.1-0.3,0.1-0.3,0h0.2c-0.1,0,0.1-0.3,0-0.3V477l-0.2,0.1c0.2,0,0,0.2-0.1,0.3h-0.2v0.2h-0.2
				c0,0,0-0.2-0.1-0.1v0.1c0-0.2-0.4,0.2-0.2,0.2c0.1,0.1-0.2,0.1-0.2,0.1v0.1l0.1-0.1v0.1v-0.1v0.1h-0.1l-0.1,0.1v0.2h-0.2
				c0.1,0,0.1-0.2,0.1-0.2h-0.1c0,0.3-0.2,0.2-0.2,0.1l-0.1,0.1h0.1l-0.1-0.1v0.2c0-0.1,0-0.2,0.1-0.2l-0.3,0.1l0.1,0.1h-0.2
				l-0.2-0.2l-0.1,0.1c-0.1-0.1,0.1-0.5,0.1-0.7v0.1c0-0.2,0-0.4,0.1-0.4l0.1-0.2c0.2,0,0.2,0.1,0.3,0.2c-0.1-0.1,0,0,0,0h0.2
				c0,0,0-0.1-0.1-0.1h-0.2l-0.1-0.1l0.1-0.1v-0.5c-0.1,0,0,0.1,0,0.1c-0.2-0.3-0.1-0.3,0-0.5h0.3v-0.4l0.1-0.1
				c0.1,0,0.1,0.1,0.1,0.2l0.2-0.1c0.1-0.1,0.2-0.1,0.2,0.1l0.1-0.2v0.1c0,0,0.1-0.2,0-0.2v0.1c0-0.2-0.2-0.3-0.1-0.5l0.2-0.3
				c0.1-0.1,0.2-0.1,0.4-0.3h-0.1h0.3l0.1-0.1c0,0.1,0.1,0.2,0.1,0.2v-0.1c0.1,0.1,0.1,0,0.1,0c0-0.1,0.4-0.2,0.4-0.2v-0.4v0.1
				l0.1-0.1l0.2-0.1c0-0.1,0.2-0.1,0.2-0.3l0.1,0.1l-0.1-0.2h0.1v0.1h0.1c0,0,0-0.1,0,0v0.1l0.1,0.1v-0.1c0-0.1-0.1-0.2,0-0.3
				c0,0-0.5,0.2-0.6,0.2l-0.1-0.1c0,0-0.5,0.3-0.6,0.1h0.1l-0.3-0.1v0.1V473c0.1-0.1,0.3,0,0.3-0.2c0,0,0.3,0,0.3,0.2
				c0.3-0.5,0.3-0.4,0.3-0.6c0,0,0.2-0.1-0.1,0l-0.1,0.1v-0.3l0.1,0.1l0.1-0.2v0.1v-0.1v0.1v-0.3l0.1,0.2l0.1-0.4h0.3l-0.1,0.1h0.2
				l-0.1-0.1l-0.1-0.1c0.1,0,0,0,0-0.1s-0.1-0.1-0.1-0.1s-0.3-0.1-0.3-0.3c0.1,0.2,0.1-0.2,0.1-0.2c0,0.1-0.1,0.1-0.2,0h-0.1
				c0-0.1,0-0.2,0.1-0.3h-0.1c0-0.1,0-0.2-0.1-0.3c0.2,0,0-0.3-0.1-0.3c-0.1-0.3,0.2-0.2,0.3-0.4h-0.1c0-0.2,0.3-0.4,0.5-0.4
				l0.2,0.2h0.1c-0.2,0-0.2-0.4-0.1-0.5c0.2,0,0.5-0.3,0.7-0.3l0.1,0.1c0.1,0.1,0.2,0.2,0.2,0.1v0.1c0-0.1,0.4-0.1,0.3,0.2
				c0,0,0.1,0,0.1,0.1l0.1-0.1c0.1,0,0.5,0,0.5,0.1l0.1-0.2c0-0.1,0.1-0.2,0.1-0.2v0.1h0.1v-0.1v0.1h0.3c0.1,0,0.3,0,0.3-0.1
				c0,0.3,0.2,0.2,0.2,0.4v-0.1v0.1v-0.1l0.1,0.1c0,0-0.1,0.1,0,0.2c-0.1,0.1,0,0.2,0,0.3v-0.1l-0.1,0.2c-0.1-0.1-0.2,0-0.3,0
				c0,0.2,0.2,0.3-0.1,0.4h0.1h-0.1c0,0,0.6,0.5,0.2,0.5c0,0,0.3,0.2,0.3,0l0.3-0.3v0.1c0.1,0,0.1-0.3,0.1-0.3h0.1
				c0.1-0.1,0.2-0.1,0.2,0.1c0.1-0.1,0.1-0.1,0-0.2v-0.2l0.2-0.1v0.3c0,0-0.1,0.2,0,0.3c0,0,0.4-0.2,0.2-0.3h0.3
				c0.1,0.1,0.2,0.2,0.1,0.4c0,0-0.1,0.2-0.2,0.3h0.1c0,0-0.1,0,0,0.2l0.1-0.1v0.2c0,0.2,0.2,0,0.2,0.3c0-0.1,0.1,0.3,0.1,0.4
				l0.1-0.1c0.1,0.2,0,0.3-0.1,0.4c0.1,0.1,0.1,0.1,0.1,0.3v0.1l0.2,0.1c0.1,0,0,0.1,0.1,0.2c0,0.2-0.1,0.2-0.1,0.2l-0.3,0.6
				l-0.3-0.2v0.1h0.1v0.3c0,0.1,0.2,0,0.2-0.2l0.1,0.1c0-0.2,0.1-0.1,0.2-0.2c0.1,0.1,0.3,0,0.2,0c0.1-0.2,0.2-0.1,0.4-0.1v0.1
				l0.1-0.1h0.1c0,0.2,0.1,0.2,0.2,0c0.2,0,0,0.5,0.1,0.6c0,0.1,0,0,0,0v0.2h0.2l-0.1,0.2l-0.2,0.2l0.1,0.2c-0.1,0,0,0.1-0.1,0.2
				c-0.2-0.5-0.2-0.3-0.1-0.2v0.1c0-0.1,0.1-0.1-0.1-0.1l-0.1,0.1c-0.2,0,0,0.2,0,0.3c0.1-0.2,0.2-0.1,0.3-0.1h0.2
				c0,0.1,0.1,0,0.2,0h0.1v0.1c0.1-0.1,0.3,0,0.3-0.4c0.1,0,0.1,0,0.2-0.1v0.1h0.1v0.1h0.1v0.2c0,0,0,0.1-0.1,0.2
				c0,0.1-0.1,0.2-0.2,0.2c0.1,0.1,0,0,0,0.1l0.2,0.1c0.1,0.1,0.2,0.2,0.3-0.1l0.3-0.2l0.1,0.2l0.1-0.1v0.1v-0.1h0.1l-0.1,0.4
				l-0.1-0.1l-0.1,0.1h-0.1v0.1l-0.1,0.1h0.1c0,0.2,0.2,0.2,0.3,0.3c0,0.3-0.1,0.3-0.3,0.4h0.1c0-0.2-0.1,0-0.1,0
				c-0.1,0.1-0.2,0.3-0.4,0.3v0.2v-0.1v0.4c0,0-0.1-0.2-0.1,0.1l-0.1-0.3v0.2c0-0.1-0.1-0.1-0.2-0.1c0.1,0.1,0,0.1,0.1,0.3h-0.2
				v-0.2v0.1v-0.2l-0.2,0.2l-0.1-0.2v0.2l0.1,0.1v-0.1l0.1,0.1l0.1-0.1v0.1h0.1c0,0,0.1,0.1,0,0h0.1v0.1l0.2-0.1v0.2
				c0.1-0.1,0.1,0,0.3,0.1l0.1-0.1c0,0.2,0,0.3-0.2,0.3c0.1,0.1-0.2,0.2-0.2,0.2c-0.1,0-0.1-0.1-0.1,0.1h-0.2v0.1h-0.1v0.1v-0.1
				c0,0,0.1,0.1,0.1,0c0.2,0.1-0.3,0.3,0.3,0.1l0.1,0.1l0.1,0.1l-0.1,0.4h0.1h-0.1v0.3c0.2-0.1,0.1,0.2,0,0.2v0.2
				c0.5,0.1-0.3,0.7-0.2,0.5v-0.3h-0.2c-0.3,0,0-0.1-0.1-0.2h-0.1v0.1h-0.1c0.1,0,0.1,0,0.1,0.1c-0.1,0-0.2,0-0.1,0.1h-0.1h0.1h-0.1
				c-0.1,0,0.1,0.2,0.2,0.1l0.1,0.2v0.1c0.1-0.2,0.1,0,0.2,0.1v-0.1c0,0-0.1,0.3-0.2,0.2l0.1,0.1c-0.1,0-0.2,0.1-0.1,0.1
				c0.1-0.1,0.1,0.1,0.1,0.2h-0.6v-0.2h-0.1v-0.1l-0.1,0.1h0.1l-0.3,0.2v0.1h-0.1v0.1c0,0,0-0.2-0.1,0h-0.1v0.1h0.1v0.2h-0.1
				l-0.2,0.3h0.1h-0.2c0,0,0.1-0.1,0.1,0v0.1c0.1,0.1,0.1,0.2,0.2,0.1v0.1c0.1,0,0-0.2,0.1-0.1c0,0,0.1,0.3,0.1,0.1v0.1
				c0,0,0.4,0,0.3,0.2v0.1l0.1-0.1c0.1,0,0.4,0,0.5-0.1c0,0.1,0.1,0.1,0.2,0v0.2l0.1-0.2c0,0.2,0.1-0.1,0.2-0.1h0.1v0.4l0.1-0.1v0.2
				l-0.1,0.1h0.1v0.2l0.2,0.2c0.1-0.1-0.1-0.1,0.1-0.1c0,0.1,0.1,0,0.1-0.1v0.1h0.3c0.1,0-0.1,0.1,0,0v-0.1h0.1v0.1
				c0,0.1,0.2,0,0.1,0.1v-0.1l0.3,0.5v-0.1v0.2c-0.2,0.3-0.1,0.3-0.3,0.3h-0.1h0.1h-0.1c-0.1,0-0.1,0.1-0.3,0
				c-0.1,0-0.2,0.1-0.2,0.2v0.2c0,0-0.2,0.2-0.2,0.1v0.1l-0.1,0.1c0,0,0.2,0.1,0.2,0l0.1-0.1c0.1-0.1,0.1-0.2,0.2,0.1
				c0,0,0.1-0.2,0.1,0c0-0.1,0.1-0.1,0.1,0h0.1V485v0.1V485l0.1,0.1l0.2-0.1v0.1c0.1-0.2,0.4-0.4,0.5-0.4c0,0.2,0.3,0.1,0.2,0h0.2
				v0.5c-0.2,0-0.4,0-0.5,0.2h-0.2v0.2l-0.1,0.1v0.2h0.1v0.2l0.2,0.2v0.1v-0.1h-0.5l-0.3,0.3h-0.1l-0.1,0.1v-0.1h-0.2
				c-0.1,0.1-0.3,0.2-0.4,0.3l-0.1-0.2l-0.1-0.1l-0.1,0.1l-0.1,0.2v0.1l-0.1,0.1c0.1-0.1,0.1,0,0.1,0l-0.1,0.1v-0.1l-0.1-0.1v0.1
				l-0.1,0.1l-0.1-0.1h0.1h-0.1c0-0.1,0,0,0.1-0.1l-0.1-0.1c0,0.3-0.1,0.2,0.1,0.4h-0.2h0.1v0.1c-0.1,0,0,0.1,0,0.2v-0.1l-0.1,0.2
				c0.2,0.1,0.2,0.1,0.1,0.1l-0.2-0.1l-0.4-0.3c0.1-0.2,0-0.1,0-0.2c0-0.1-0.1-0.1,0.1-0.2v-0.1l-0.1,0.1v-0.1
				c-0.1,0-0.3-0.1-0.3-0.2h0.1v-0.1h0.1v-0.1l0.1,0.1l0.1,0.1v0.1c0.1-0.1,0-0.2,0-0.3h-0.1v-0.1v0.1l-0.1,0.1l0.1,0.1h-0.1v-0.1
				c0,0-0.1-0.1-0.1,0v-0.2l0.2-0.1h-0.1l0.1-0.1V486c0.1-0.2-0.2-0.2-0.1-0.2h-0.1v-0.2c0.1,0,0.1-0.1,0-0.1v0.1
				c-0.1-0.2,0-0.1,0-0.4h-0.1l0.1,0.1c-0.1,0-0.5-0.2-0.4-0.4v0.1c0.1-0.1,0-0.1,0-0.1v-0.1l-0.2,0.2l0.1,0.3l-0.1,0.2h-0.1
				c0,0-0.5,0.3-0.4,0.1h-0.3c0-0.1-0.3-0.1-0.3,0v0.1h0.1l0.1,0.1l-0.1,0.1c0,0,0.1,0.1,0.1,0.2c0.2,0,0.3,0.1,0.6,0.2v-0.1
				l0.1,0.1v0.1h0.3c-0.1,0.1,0.2,0.1,0.2,0.1l-0.1,0.2c0.1-0.1,0.3,0.2,0.1,0.2c0-0.1-0.1-0.2-0.2-0.2v-0.2l-0.1,0.1
				c0-0.1,0,0-0.1,0.1v-0.1l-0.2-0.1h-0.2h0.1h-0.1c0-0.1-0.1-0.1-0.2-0.1h0.1v0.1c0-0.1,0-0.2-0.2-0.2h-0.1v0.1h-0.1v0.1l-0.2,0.2
				c-0.1-0.2-0.3-0.2-0.4-0.1v-0.1l-0.2-0.1h-0.1v-0.1v0.1v-0.1l-0.3-0.1h-0.2h0.1l-0.2-0.1v0.2l-0.1,0.1v-0.1h-0.2v0.1h-0.1v0.2
				h0.1v0.1h-0.1c0,0.1,0,0.1,0.1,0.1l0.1,0.1h-0.1h0.1c0.1,0.1-0.1,0.2,0.1,0.3l-0.2,0.2l-0.1-0.1h-0.1v-0.1l-0.1,0.1l-0.1,0.1v9.8
				c0,2.3,1.9,4.2,4.2,4.2h8.5c8.8,0,11.9-4.1,13-8c0.4-1.6,0.6-3.2,0.6-4.3v0.2v-2.4c0-0.4-0.3-0.7-0.7-0.7h-7.8
				c-0.4,0-0.7,0.3-0.7,0.7v0.3c0,3.6-0.5,5.2-4.3,5.2c-4,0-4.3-2.5-4.3-6.5v-7.6c0-4,0.3-6.5,4.2-6.5h0.1c3.9,0,4.3,1.6,4.3,5.4
				v0.4c0.1,0.3,0.4,0.6,0.7,0.6h7.8c0.3,0,0.6-0.2,0.7-0.5v-2.1c0-1-0.1-3.1-0.5-4.7c-1-3.8-3.9-7.9-12.3-8.1h-2.4
				C-262,462.4-265.1,464.7-266.8,467.5"/>
		</defs>
		<clipPath id="SVGID_2_">
			<use xlink:href="#SVGID_1_"  style="overflow:visible;"/>
		</clipPath>
		<path class="st1" d="M-296,462.4h55.9v38.8H-296V462.4z"/>
	</g>
</g>
<g>
	<path class="st0" d="M-240.1,500.8l0.3-0.3c0.3,0.2,0.5,0.3,0.8,0.3c0.3,0,0.5-0.1,0.5-0.3l0,0c0-0.2-0.1-0.3-0.6-0.4
		c-0.6-0.1-0.9-0.3-0.9-0.8l0,0c0-0.5,0.4-0.8,0.9-0.8c0.4,0,0.7,0.1,1,0.3l-0.3,0.4c-0.2-0.2-0.5-0.3-0.7-0.3
		c-0.3,0-0.4,0.1-0.4,0.3l0,0c0,0.2,0.1,0.3,0.6,0.4c0.6,0.1,0.9,0.3,0.9,0.8l0,0c0,0.5-0.4,0.8-1,0.8
		C-239.4,501.2-239.8,501.1-240.1,500.8z"/>
	<path class="st0" d="M-237.5,498.5h0.5l0.8,1.3l0.8-1.3h0.5v2.7h-0.5v-2l-0.8,1.3l0,0l-0.8-1.2v1.9h-0.5V498.5z"/>
</g>
</svg>
