<?xml version="1.0" encoding="utf-8"?>
<!-- Generator: Adobe Illustrator 19.0.1, SVG Export Plug-In . SVG Version: 6.00 Build 0)  -->
<!DOCTYPE svg PUBLIC "-//W3C//DTD SVG 1.1//EN" "http://www.w3.org/Graphics/SVG/1.1/DTD/svg11.dtd">
<svg version="1.1" id="Layer_1" xmlns="http://www.w3.org/2000/svg" xmlns:xlink="http://www.w3.org/1999/xlink" x="0px" y="0px"
	 viewBox="-123 231 251.6 39" style="enable-background:new -123 231 251.6 39;" xml:space="preserve">
<style type="text/css">
	.st0{fill:#FFFFFF;}
	.st1{clip-path:url(#SVGID_2_);fill:#FFFFFF;}
</style>
<g>
	<path class="st0" d="M122.5,247.8c-0.2-0.9-0.3-0.9-0.6-0.9l-1.8,0.2l-0.1,0.2l0.4,0.4c0.2,0.2,0.3,0.3,0.4,0.7
		c0.4,2,0.8,4.5,1.1,6.8l-0.9,1.4c-0.7,1.2-1.8,1.7-2.7,1.8l-0.1,0.2c0.3,0.4,1.3,0.6,1.9,0.6c0.6-0.3,1.1-1,1.8-2l5.6-8.9
		c0.1-0.2,0.2-0.3,0.4-0.5l0.6-0.4c0.1-0.1,0.1-0.2-0.1-0.2H126l-0.1,0.2l0.2,0.4c0.1,0.2,0,0.5-0.2,0.9l-3,4.8
		C123,251.4,122.8,249.4,122.5,247.8z M116.5,249.6c-0.7,3-2.2,4.6-3.4,4.6s-1.8-1.5-1.1-3.5c0.5-1.5,1.9-2.9,3.5-2.9
		c0.5,0,1,0.1,1.4,0.2L116.5,249.6z M115.6,246.9c-3.1-0.1-4.8,2.2-5.4,4.1c-0.8,2.8,0.6,4.7,2.2,4.7c1.1,0,2.1-0.5,3.1-1.9
		l-0.2,0.9c-0.4,1.8-1.2,3.3-3.2,3.3c-0.6,0-1.8-0.3-1.6-1.1l-0.2-0.1c-0.4,0.6-0.7,1.3-0.7,1.8c0.6,0.3,1.5,0.5,2.4,0.5
		c2.7,0,4.4-2.2,5-4.7l1.1-5c0.1-0.4,0.2-0.9,0.7-1.6l0.1-0.1C117.8,247.3,116.8,246.9,115.6,246.9L115.6,246.9z M105.5,246.9
		c-2.6,0-4.8,2.8-4.9,5.4c-0.1,1.9,0.9,3.4,3.1,3.4c2.6,0,4.8-2.8,4.9-5.4C108.7,248.5,107.7,246.9,105.5,246.9z M103.7,254.6
		c-1.1,0-1.6-1-1.4-2.4c0.1-1.6,1.4-4.3,3.2-4.3c1.1,0,1.6,1,1.4,2.4C106.8,251.9,105.5,254.6,103.7,254.6z M96,253.6
		c-0.3,1.3,0,2.1,1,2.1c0.9,0,1.5-0.8,2.1-2l-0.3-0.2c-0.6,0.7-0.9,1.2-1.2,1.2c-0.4,0-0.3-0.5-0.2-0.7l1.7-7.3
		c0.1-0.5,0.6-2.5,1.2-3.6V243l-2.7,0.2l-0.1,0.2l0.5,0.5c0.1,0.1,0.2,0.3,0.1,0.6L96,253.6z M91.5,246.9c-2.6,0-4.8,2.8-4.9,5.4
		c-0.1,1.9,0.9,3.4,3.1,3.4c2.6,0,4.8-2.8,4.9-5.4C94.8,248.5,93.7,246.9,91.5,246.9z M89.7,254.6c-1.1,0-1.6-1-1.4-2.4
		c0.1-1.6,1.4-4.3,3.2-4.3c1.1,0,1.6,1,1.4,2.4C92.8,251.9,91.6,254.6,89.7,254.6z M78.5,252.9c0.7-3,2.2-4.6,3.4-4.6
		s1.1,0.9,0.7,2.4l-0.6,2.7c-0.3,1.3,0,2.1,1.1,2.1c0.9,0,1.5-0.8,2.2-2l-0.3-0.1c-0.6,0.7-0.9,1.2-1.2,1.2c-0.4,0-0.3-0.5-0.2-0.7
		l0.8-3.3c0.6-2.5-0.2-3.7-1.8-3.7c-0.9,0-2.2,0.5-3.2,2h-0.1l0.2-0.8c0.3-1.1,0.2-1.2-0.2-1.2l-1.9,0.2l-0.1,0.2l0.5,0.5
		c0.1,0.1,0.2,0.3,0.1,0.6l-1.4,5.9c-0.1,0.3-0.1,0.6-0.3,0.7l-0.5,0.4v0.2h2c0.1,0,0.2-0.1,0.2-0.2
		C77.9,255.4,78.5,252.9,78.5,252.9z M68.6,252.9c0.7-3,2.2-4.6,3.4-4.6s1.1,0.9,0.7,2.4l-0.6,2.8c-0.3,1.3,0,2.1,1.1,2.1
		c0.9,0,1.5-0.8,2.2-2l-0.3-0.2c-0.6,0.7-0.9,1.2-1.2,1.2c-0.4,0-0.3-0.5-0.2-0.7l0.8-3.5c0.6-2.5-0.4-3.5-1.8-3.5
		c-0.9,0-2.2,0.5-3.2,2l0.5-2.3c0.1-0.5,0.6-2.5,1.2-3.6v-0.1l-2.9,0.3c-0.1,0-0.2,0.1-0.1,0.2l0.5,0.5c0.1,0.2,0.2,0.3,0.1,0.6
		l-2.2,9.9c-0.1,0.3-0.1,0.6-0.3,0.7l-0.5,0.4l0.1,0.2h1.9c0.1,0,0.2-0.1,0.2-0.2C68,255.5,68.6,252.9,68.6,252.9z M63.3,247.9
		c1.1,0,1.7,0.6,1.7,1.8h0.2c0.3-0.5,0.7-1.5,0.8-2.1c-0.6-0.4-1.6-0.7-2.5-0.7c-2.8,0-5.2,2.8-5.4,5.4c-0.2,2.2,1.3,3.4,3,3.4
		c1.4,0,2.8-0.7,4-2.5l-0.2-0.2c-1,1-2.2,1.6-3,1.6c-1.3,0-2.2-0.7-2-2.5C60,250.2,61.4,247.9,63.3,247.9z M49.5,252.3
		c-0.1,2.1,1.3,3.4,3,3.4c1.3,0,2.8-0.7,4-2.5l-0.2-0.2c-1,1-2.2,1.5-3,1.5c-1.3,0-2.2-0.8-2-2.5c2.1-0.1,5.7-0.5,5.9-3
		c0.1-1.3-1.2-2.1-2.6-2.1C52.3,246.9,49.7,249,49.5,252.3L49.5,252.3z M54.4,248c0.5,0,1.1,0.3,1.1,1c-0.1,1.2-1.7,2-4.1,2.1
		C51.8,249.6,52.8,248,54.4,248z M44.1,255.5l0.1-0.2l-0.5-0.5c-0.2-0.1-0.2-0.3-0.2-0.6l2.2-9.4h1.4c1,0,1.8,0.6,1.7,1.4H49
		c0.2-0.3,0.8-2.1,0.3-2.7c0,0-1.6,0.1-2.6,0.1h-3.4c-0.7,0-2.5-0.1-2.5-0.1c-0.7,0.6-0.9,2.4-0.9,2.7h0.2c0.3-0.8,1.4-1.4,2.3-1.4
		h1.4c0,0.3-0.1,0.8-0.2,1.3l-1.9,8.1c0,0.2-0.2,0.4-0.3,0.6l-0.7,0.5c-0.1,0.1-0.1,0.2,0,0.2L44.1,255.5L44.1,255.5z M26.8,252.9
		c0.7-3,2.2-4.6,3.4-4.6s1.1,0.9,0.7,2.4l-0.6,2.8c-0.3,1.3,0,2.1,1.1,2.1c0.9,0,1.5-0.8,2.2-2l-0.3-0.2c-0.6,0.7-0.9,1.2-1.2,1.2
		c-0.4,0-0.3-0.5-0.2-0.7l0.8-3.3c0.6-2.5-0.2-3.7-1.8-3.7c-0.9,0-2.2,0.5-3.2,2h-0.1l0.2-0.8c0.3-1.1,0.2-1.2-0.2-1.2l-1.9,0.2
		l-0.1,0.2l0.5,0.5c0.1,0.1,0.2,0.3,0.1,0.6l-1.4,5.9c-0.1,0.3-0.1,0.6-0.3,0.7l-0.5,0.4v0.2h2c0.1,0,0.2-0.1,0.2-0.2L26.8,252.9z
		 M20.5,246.9c-2.6,0-4.8,2.8-4.9,5.4c-0.1,1.9,0.9,3.4,3.1,3.4c2.6,0,4.8-2.8,4.9-5.4C23.8,248.5,22.7,246.9,20.5,246.9z
		 M18.7,254.6c-1.1,0-1.6-1-1.4-2.4c0.1-1.6,1.4-4.3,3.2-4.3c1.1,0,1.6,1,1.4,2.4C21.8,251.9,20.6,254.6,18.7,254.6z M11.1,253.6
		c-0.3,1.3,0,2.1,1,2.1c0.9,0,1.5-0.8,2.1-2l-0.3-0.2c-0.6,0.7-0.9,1.2-1.2,1.2c-0.4,0-0.3-0.5-0.2-0.7l0.8-3.2
		c0.1-0.5,0.6-2.5,1.2-3.6V247l-2.8,0.3c-0.1,0-0.2,0.1-0.1,0.2l0.5,0.5c0.1,0.1,0.2,0.3,0.1,0.6L11.1,253.6z M12.9,244.9
		c0,0.6,0.4,1.1,0.9,1.1s1-0.5,1.1-1.1c0-0.6-0.4-1.1-0.9-1.1S12.9,244.3,12.9,244.9z M8.5,248.1h2.3l0.3-1H8.7l0.5-2.3l-1.8,0.6
		L7,247.1H5.7l-0.3,1h1.3l-1.2,5.2c-0.3,1.5,0,2.4,1.2,2.4c1,0,1.7-0.9,2.5-2.3l-0.3-0.2c-0.8,1.1-1.2,1.6-1.6,1.6
		c-0.5,0-0.4-0.7-0.3-1L8.5,248.1z M1.4,249.6c-0.7,3-2.2,4.6-3.4,4.6s-1.8-1.5-1.1-3.5c0.5-1.5,1.9-2.9,3.5-2.9
		c0.5,0,1,0.1,1.4,0.2L1.4,249.6z M3.1,249.5c0.1-0.4,0.2-0.9,0.7-1.6l0.1-0.1c-1.2-0.6-2.6-0.9-3.3-0.9c-3.1,0-4.8,2.2-5.4,4.1
		c-0.8,2.8,0.6,4.7,2.2,4.7c1.1,0,2.2-0.5,3.3-2.2h0.1c-0.3,1.1-0.2,2.1,1,2.1c0.8,0,1.4-0.8,2.1-2l-0.3-0.2
		c-0.6,0.7-0.9,1.2-1.2,1.2c-0.4,0-0.3-0.5-0.2-0.7C2.2,253.9,3.1,249.5,3.1,249.5z M-18,255.5c0.1,0,0.2-0.1,0.2-0.2l0.8-3.5
		c0.5-2,1.8-3.6,2.8-3.6c0.8,0,1,0.5,0.7,1.6l-1.2,5.5c0,0.1,0,0.1,0.1,0.1h1.3c0.1,0,0.2-0.1,0.2-0.2l0.8-3.5
		c0.4-2,1.8-3.6,2.8-3.6c0.8,0,1,0.5,0.7,1.6l-0.8,3.6c-0.3,1.3,0,2.1,1.1,2.1c0.9,0,1.5-0.8,2.2-2l-0.3-0.2
		c-0.6,0.7-0.9,1.2-1.2,1.2c-0.4,0-0.3-0.5-0.2-0.7l0.8-3.5c0.6-2.5-0.3-3.5-1.6-3.5c-1,0-2,0.6-2.9,2l-0.1,0.2
		c0.2-1.3-0.3-2.2-1.7-2.2c-1,0-2,0.6-2.9,2l0.2-0.8c0.3-1.1,0.2-1.2-0.2-1.2l-1.9,0.2l-0.1,0.2l0.5,0.5c0.1,0.1,0.2,0.3,0.1,0.6
		l-1.4,5.9c-0.1,0.3-0.1,0.6-0.3,0.7l-0.5,0.4v0.2L-18,255.5C-18,255.4-18,255.5-18,255.5z M-20.2,249h0.2c0.3-0.6,0.7-1.4,0.8-2
		c-0.4-0.1-0.7-0.2-1.2-0.2c-0.9,0-2.1,0.5-3.2,2h-0.1l0.2-0.8c0.3-1.1,0.2-1.2-0.2-1.2l-1.9,0.2l-0.1,0.2l0.5,0.5
		c0.1,0.1,0.2,0.3,0.1,0.6l-1.4,6.2c-0.1,0.2-0.2,0.4-0.4,0.6l-0.4,0.3c-0.1,0.1-0.1,0.2,0,0.2h2.9l0.1-0.2l-0.5-0.5
		c-0.1-0.2-0.2-0.3-0.2-0.6l0.3-1.4c0.7-2.9,2.1-4.7,3.3-4.7C-20.8,248.2-20.3,248.4-20.2,249z M-30.7,246.9c-2.6,0-4.8,2.8-4.9,5.4
		c-0.1,1.9,0.9,3.4,3.1,3.4c2.6,0,4.8-2.8,4.9-5.4C-27.5,248.5-28.5,246.9-30.7,246.9z M-32.6,254.6c-1.1,0-1.6-1-1.4-2.4
		c0.1-1.6,1.4-4.3,3.2-4.3c1.1,0,1.6,1,1.4,2.4C-29.5,251.9-30.7,254.6-32.6,254.6z M-41.8,256.3c-0.3,1.4-1,1.9-2.1,1.9l-0.1,0.2
		c0.4,0.3,1.1,0.5,1.8,0.6c0.8-0.1,1.5-0.7,1.9-2.4l1.9-8.4h2.3l0.3-1h-2.4l0.2-1c0.4-1.8,1.2-2.3,2-2.3c0.6,0,1.2,0.4,1.2,1.1
		l0.2,0.1c0.4-0.5,0.6-1.2,0.7-1.7c-0.7-0.3-1.3-0.4-2-0.4c-1.8,0-3.2,1.2-3.6,3.3l-0.2,0.9H-41l-0.3,1h1.3
		C-40,248.2-41.8,256.3-41.8,256.3z M-49.8,252.9c0.7-3,2.2-4.6,3.4-4.6c1.2,0,1.1,0.9,0.7,2.4l-0.6,2.8c-0.3,1.3,0,2.1,1.1,2.1
		c0.9,0,1.5-0.8,2.2-2l-0.3-0.2c-0.6,0.7-0.9,1.2-1.2,1.2c-0.4,0-0.3-0.5-0.2-0.7l0.8-3.3c0.6-2.5-0.2-3.7-1.8-3.7
		c-0.9,0-2.2,0.5-3.2,2H-49l0.2-0.8c0.3-1.1,0.2-1.2-0.2-1.2l-1.9,0.2l-0.1,0.2l0.5,0.5c0.1,0.1,0.2,0.3,0.1,0.6l-1.3,5.8
		c-0.1,0.3-0.1,0.6-0.3,0.7l-0.5,0.4v0.2h2c0.1,0,0.2-0.1,0.2-0.2C-50.3,255.3-49.8,252.9-49.8,252.9z M-52.3,245
		c0.1-0.2,0.2-0.4,0.4-0.6l0.7-0.5c0.1-0.1,0.1-0.2,0-0.2h-3.4c-0.1,0-0.1,0.1-0.1,0.2l0.5,0.5c0.2,0.1,0.3,0.3,0.2,0.6l-2.1,9.3
		c0,0.2-0.2,0.4-0.4,0.6l-0.7,0.5c-0.1,0.1-0.1,0.2,0,0.2h3.4c0.1,0,0.1-0.1,0.1-0.2l-0.5-0.5c-0.2-0.1-0.2-0.3-0.1-0.6L-52.3,245z
		 M-97.7,257.1l0.1-0.1L-97.7,257.1 M-97.9,256.8L-97.9,256.8L-97.9,256.8 M-97,256.7v0.4h0.1C-97,256.9-96.9,256.8-97,256.7
		 M-99.1,256.2c0.1,0.1-0.1,0.2,0,0.2V256.2 M-97.7,256l0.1,0.1L-97.7,256L-97.7,256 M-96.2,256L-96.2,256l0.1,0.1l0.1-0.1H-96.2
		 M-97.1,255.8l0.1,0.1L-97.1,255.8 M-97.3,255.8C-97.4,255.9-97.3,255.9-97.3,255.8L-97.3,255.8 M-96.4,255.8L-96.4,255.8
		L-96.4,255.8 M-97,255.6l0.1,0.1C-96.8,255.7-96.8,255.6-97,255.6C-96.8,255.7-96.9,255.6-97,255.6
		C-96.9,255.7-96.9,255.6-97,255.6 M-97.5,255.6C-97.4,255.6-97.4,255.6-97.5,255.6 M-96.6,255.5l-0.1,0.1L-96.6,255.5L-96.6,255.5
		 M-94.8,255.4L-94.8,255.4L-94.8,255.4c0,0.1-0.1,0.2-0.1,0.2h0.1c0,0,0-0.1,0,0V255.4 M-97.4,255.5l0.1-0.1L-97.4,255.5z
		 M-97.3,255.2C-97.2,255.2-97.3,255.3-97.3,255.2L-97.3,255.2L-97.3,255.2 M-98.5,255.3L-98.5,255.3l-0.1-0.1
		c0,0.1-0.2,0.4-0.3,0.3C-98.9,255.8-98.5,255.3-98.5,255.3l0.1-0.1L-98.5,255.3 M-96.1,255.1L-96.1,255.1
		C-96.2,255.4-96.1,255.3-96.1,255.1L-96.1,255.1 M-95.6,255.1L-95.6,255.1l0.1-0.1L-95.6,255.1l0.1-0.1L-95.6,255.1 M-88.8,255.1
		l-0.1,0.1l0.1,0.1V255.1L-88.8,255.1c0,0.2,0,0.3,0.1,0.2h-0.1V255.1l0.1,0.2l0.1-0.1v0.1C-88.6,255.2-88.5,255-88.8,255.1
		C-88.6,255-88.7,255.1-88.8,255.1C-88.7,255.1-88.8,255-88.8,255.1L-88.8,255.1 M-99.4,254.9C-99.5,254.8-99.4,255-99.4,254.9
		 M-95.2,254.8C-95.1,254.9-95.2,254.8-95.2,254.8L-95.2,254.8L-95.2,254.8 M-94.9,254.6L-94.9,254.6L-94.9,254.6L-94.9,254.6
		 M-91.5,254.6L-91.5,254.6c0.2,0.1,0.2,0.1,0.2,0h0.1v-0.1L-91.5,254.6 M-87,254.6L-87,254.6L-87,254.6L-87,254.6 M-93.2,254.8
		l0.2-0.1L-93.2,254.8v-0.2V254.8 M-91.5,254.7v-0.2C-91.5,254.5-91.6,254.7-91.5,254.7 M-95.1,254.7v0.2
		C-95.1,254.8-95,254.8-95.1,254.7L-95.1,254.7v-0.2V254.7v-0.2V254.7v-0.2V254.7 M-98.2,254.5v0.2V254.5 M-91.4,254.4L-91.4,254.4
		L-91.4,254.4l0.1,0.1L-91.4,254.4 M-89.1,254.4c0,0.1,0.1,0.3,0.1,0.3h0.2L-89.1,254.4L-89.1,254.4L-89.1,254.4 M-88.9,254.3
		C-89.1,254.4-88.9,254.3-88.9,254.3 M-98,254.3L-98,254.3c-0.1,0.1-0.2,0.3-0.2,0.3l0.1-0.1C-98.1,254.4-98,254.4-98,254.3h0.3H-98
		 M-88.8,254.3l0.1,0.2v0.1L-88.8,254.3L-88.8,254.3C-88.7,254.2-88.7,254.3-88.8,254.3l0.1-0.1L-88.8,254.3 M-89.2,254.2v0.3
		l0.1,0.1L-89.2,254.2 M-89,254.1l0.1,0.1v-0.1C-88.9,254.1-88.9,254.2-89,254.1 M-92.7,254.1C-92.8,254.2-92.7,254.2-92.7,254.1
		L-92.7,254.1L-92.7,254.1L-92.7,254.1 M-91.5,254.4l0.1-0.1l-0.2-0.1C-91.6,254.3-91.6,254.4-91.5,254.4 M-89.3,254.2l-0.1-0.2
		L-89.3,254.2 M-90.5,254.1h0.1H-90.5 M-94.7,254l0.2,0.1v-0.2l-0.2-0.1V254 M-93.2,253.8v0.2V253.8 M-98.8,253.8v0.2V253.8v0.2
		V253.8 M-94.4,253.8h-0.1C-94.3,254-94.4,253.9-94.4,253.8 M-99.4,253.8C-99.4,253.7-99.3,253.8-99.4,253.8 M-98.7,253.7
		C-98.7,253.7-98.9,253.8-98.7,253.7 M-100,253.7C-100,253.8-100.2,253.8-100,253.7v0.2V253.7l0.1,0.1L-100,253.7l0.1,0.1
		L-100,253.7 M-89.5,253.6l0.1,0.1v0.1c0.1,0-0.1,0,0,0.1h0.1c0,0.2,0,0.1,0.1,0.1l0.1,0.1v-0.2v0.1l-0.3-0.2L-89.5,253.6
		L-89.5,253.6 M-98.5,253.7L-98.5,253.7C-98.7,253.6-98.6,253.7-98.5,253.7 M-93.1,253.7C-93.2,253.7-93.1,253.7-93.1,253.7
		C-93.2,253.7-93.5,253.7-93.1,253.7l0.1-0.1v-0.2L-93.1,253.7 M-97.4,253.6L-97.4,253.6L-97.4,253.6 M-90,253.3L-90,253.3
		L-90,253.3L-90,253.3 M-97.8,253.4l-0.2,0.2h0.1l0.1,0.2h0.1l0.1-0.1C-97.7,253.8-97.7,253.5-97.8,253.4L-97.8,253.4
		C-97.6,253.4-97.7,253.3-97.8,253.4 M-97.2,253.4L-97.2,253.4L-97.2,253.4l0.2-0.2h-0.3L-97.2,253.4 M-91,253.4l0.1,0.1v0.3v-0.1
		h0.1c0.1-0.1,0.2,0,0.2,0l0.1-0.1c-0.1,0,0,0,0,0L-91,253.4c0-0.2,0-0.3-0.1-0.3C-91.1,253.2-91.1,253.3-91,253.4 M-96,253
		c0,0.1,0,0.2-0.1,0.2c0,0.1,0.1,0.3,0.1,0.3h-0.1c0,0.1,0.1,0.1,0,0.2s0.1,0.1,0.2,0.2c0,0.1,0.4,0.3,0.5,0.1v-0.2
		c0,0.1,0.1-0.1,0.1-0.1c0,0.1,0.1-0.1,0.1-0.1v-0.1l-0.1,0.1c-0.1-0.1,0.1-0.2,0-0.2v-0.1c0,0.1,0.2-0.1,0.2-0.1l-0.1-0.1l0.1,0.1
		h-0.2l-0.3,0.4c0-0.2-0.1-0.3-0.2-0.4h0.1l-0.1-0.1h0.1l-0.1-0.1L-96,253 M-95.7,252.9v0.2h0.1v0.1c0-0.1,0.1-0.1,0.1-0.2
		L-95.7,252.9 M-90.8,252.8L-90.8,252.8h0.2c-0.1,0.2,0.1,0.2,0.2,0.2v0.2v-0.1v0.1l0.1-0.1c0,0.1,0.1,0.1,0.1-0.1h-0.1l0.1-0.2
		h-0.1l-0.1-0.1c-0.1,0.1-0.1,0.1-0.1,0l-0.1,0.1C-90.7,252.8-90.8,252.8-90.8,252.8L-90.8,252.8 M-91.7,252.7l0.1,0.1
		C-91.6,252.6-91.7,252.7-91.7,252.7 M-87.4,252.6C-87.4,252.6-87.5,252.7-87.4,252.6 M-90.9,252.7c0,0-0.2,0.1-0.1,0.1L-90.9,252.7
		v0.2C-90.9,253.2-90.6,252.9-90.9,252.7 M-92.2,252.6c0,0.2,0.1,0.1,0.1,0.2l0.3-0.2c-0.1,0-0.2-0.1-0.3-0.1L-92.2,252.6
		 M-87.3,252.7L-87.3,252.7C-87.3,252.6-87.4,252.7-87.3,252.7 M-99.8,252.3C-99.7,252.3-99.7,252.3-99.8,252.3 M-99.6,252.3
		L-99.6,252.3L-99.6,252.3 M-96.1,252.2l-0.1,0.1L-96.1,252.2L-96.1,252.2 M-93.3,252.1L-93.3,252.1L-93.3,252.1 M-99.7,252l0.2,0.1
		l-0.1,0.1l0.1,0.1l0.1-0.1v-0.1l-0.2-0.2L-99.7,252 M-95.7,251.8L-95.7,251.8L-95.7,251.8l0.2,0.1L-95.7,251.8L-95.7,251.8
		 M-96.4,251.8L-96.4,251.8L-96.4,251.8L-96.4,251.8 M-96,251.9C-96.1,251.9-96.1,252-96,251.9v0.2l0.1,0.1h0.1l0.1-0.1
		c0,0-0.1,0.2,0,0v0.1h0.2c0-0.2-0.2-0.1-0.2-0.2c0.1-0.1-0.1-0.1-0.2-0.1H-96l0.2-0.1C-95.8,251.7-96.2,251.8-96,251.9
		 M-92.6,251.8L-92.6,251.8L-92.6,251.8z M-92.7,251.8C-92.7,251.7-92.6,251.6-92.7,251.8L-92.7,251.8v-0.2h-0.1
		C-92.8,251.8-92.7,251.8-92.7,251.8 M-95.4,251.7L-95.4,251.7L-95.4,251.7C-95.4,251.6-95.5,251.6-95.4,251.7 M-92.2,251.6
		c0,0-0.1,0.2-0.1,0.3L-92.2,251.6L-92.2,251.6 M-94.5,251.6c0,0.1-0.2,0.1-0.2,0.2l0.1,0.1v0.1l-0.2,0.2l0.3,0.1l0.1-0.1l0.1,0.1
		h0.2l0.1,0.1c0-0.1,0-0.3-0.1-0.3v0.1v-0.4v0.1c0,0-0.1-0.1,0-0.1h-0.3C-94.3,251.8-94.4,251.6-94.5,251.6
		C-94.6,251.7-94.4,251.6-94.5,251.6 M-93,251.6C-93.1,251.7-93,251.6-93,251.6 M-94.4,251.6l0.1,0.1
		C-94.2,251.6-94.3,251.6-94.4,251.6 M-95,251.5L-95,251.5L-95,251.5v0.3h0.1c0-0.1,0-0.1,0,0l-0.1-0.1
		C-94.9,251.7-95,251.6-95,251.5 M-96.4,251.5c-0.2,0.1,0,0.2,0,0.2V251.5 M-93.3,251.5C-93.3,251.6-93.3,251.8-93.3,251.5l0.1,0.2
		L-93.3,251.5 M-93.1,251.4c0,0,0,0.3,0.1,0.2c0.1,0.1,0.1,0.2,0.2,0.2l-0.1-0.1l0.1-0.1v-0.1c0,0-0.1,0.1,0,0h-0.1c0.1,0,0,0,0,0
		S-92.9,251.4-93.1,251.4 M-95.3,251.3L-95.3,251.3L-95.3,251.3 M-92.7,251.2L-92.7,251.2L-92.7,251.2 M-96.1,251.2
		C-96.1,251.3-96.1,251.2-96.1,251.2 M-92.1,251.3c0,0.1,0.2,0.3,0.2,0.4v0.1v-0.2v0.1v-0.5C-92,251.4-92,251.3-92.1,251.3l0.1-0.2
		L-92.1,251.3 M-99,251.2h0.1H-99 M-93.3,251.2l0.2,0.1l0.1-0.1v-0.1h-0.1l-0.1-0.1L-93.3,251.2 M-91.8,251.1h0.3
		C-91.5,251-91.6,251-91.8,251.1L-91.8,251.1 M-91.5,251l0.1,0.1L-91.5,251 M-92.9,251L-92.9,251L-92.9,251 M-92.1,250.9l0.1,0.1
		L-92.1,250.9 M-93.1,251L-93.1,251C-93.2,251-93.2,251-93.1,251 M-92.2,251l0.1-0.1L-92.2,251 M-92.6,250.8L-92.6,250.8
		c-0.1,0.2-0.2,0.2-0.2,0.3c0,0,0.2,0,0,0.1l0.2-0.1V250.8 M-95.6,250.8C-95.6,250.7-95.7,250.8-95.6,250.8L-95.6,250.8
		c0.1,0.1,0.1,0.2,0.1,0H-95.6 M-92.5,250.7C-92.5,250.7-92.6,250.9-92.5,250.7 M-92.9,250.7l0.1,0.1L-92.9,250.7L-92.9,250.7
		 M-91.6,250.7c0.1,0.1,0.1,0,0.1,0.1v-0.1H-91.6 M-91.7,250.4L-91.7,250.4L-91.7,250.4L-91.7,250.4 M-93.1,250.3
		C-93.2,250.3-93.2,250.3-93.1,250.3C-93.3,250.5-93.1,250.3-93.1,250.3 M-93,250.4C-93,250.4-93.1,250.4-93,250.4 M-90.2,250.3v0.2
		V250.3 M-97.1,250.2C-97.1,250.1-97,250.1-97.1,250.2L-97.1,250.2 M-92.5,250.1l0.2,0.1v-0.1H-92.5L-92.5,250.1L-92.5,250.1
		 M-96.7,250.1C-96.7,250.2-96.7,250.2-96.7,250.1l0.1-0.2L-96.7,250.1 M-90,250v0.2h-0.1v-0.1C-90.1,250.1-89.9,250.2-90,250
		L-90,250c0.2-0.1,0.1-0.2,0-0.2V250 M-91,251.2C-91,251.3-91,251.2-91,251.2 M-90.9,250.8L-90.9,250.8
		C-90.9,251-90.9,250.9-90.9,250.8L-90.9,250.8L-90.9,250.8C-90.8,250.8-90.8,250.8-90.9,250.8 M-91.9,250l-0.1-0.1l0.3,0.3
		c0-0.2,0.3,0.2,0.3,0.2l0.1-0.2h0.1v0.1l-0.1,0.1v0.1v-0.1v0.1c0-0.1,0.1,0.1,0.1,0.1h-0.1c0,0.1,0.2,0.2,0.1,0.3h-0.1l-0.1,0.1
		c-0.1,0.3-0.1,0.1-0.2,0.1V251h-0.1v0.4c0,0,0.2,0,0.1-0.1l0.1-0.1c0,0.1,0.1,0.1,0.1,0l0.1,0.2v0.1l0.3,0.1c0,0,0.4-0.4,0.2-0.5
		V251h-0.1c0,0-0.1,0.1-0.1,0c0.1,0,0.1-0.2,0.1-0.2v-0.1H-91c0.2,0-0.1-0.3-0.2-0.2c0,0,0-0.4-0.2-0.3l-0.2-0.1l-0.1-0.2
		c-0.1,0,0.1,0.2,0,0.2C-91.7,250-91.8,250-91.9,250L-91.9,250l0.1,0.1L-91.9,250v0.2L-92,250C-92,250.1-92,250-91.9,250h-0.2
		C-91.8,249.8-91.9,249.9-91.9,250 M-92.8,249.9L-92.8,249.9L-92.8,249.9 M-90.3,249.9L-90.3,249.9L-90.3,249.9 M-92.7,249.8
		L-92.7,249.8C-92.6,249.8-92.7,249.8-92.7,249.8 M-90.6,249.8v0.2h0.1c0,0.1,0,0.2,0.1,0c0,0.1,0,0.1,0.1,0.1h-0.1
		c0.1,0,0.3-0.1,0.3-0.2c0-0.1-0.2,0-0.3,0v-0.1h-0.1C-90.5,249.6-90.6,249.7-90.6,249.8L-90.6,249.8l0.1-0.1L-90.6,249.8
		 M-97.5,249.8L-97.5,249.8L-97.5,249.8 M-90.3,249.6L-90.3,249.6C-90.3,249.7-90.2,249.6-90.3,249.6 M-96.7,249.6L-96.7,249.6
		L-96.7,249.6 M-90.5,249.6C-90.5,249.6-90.4,249.7-90.5,249.6 M-95.6,249.6l0.1-0.1L-95.6,249.6 M-95.7,250.2
		C-95.6,250.3-95.7,250.2-95.7,250.2 M-95.5,249.8h-0.2c-0.1-0.2-0.1,0.2-0.1,0.2l-0.1,0.1H-96l0.1,0.1h-0.2v0.1h-0.1
		c0,0,0,0.3,0.1,0.1v0.1c-0.1-0.1-0.2,0.1-0.2,0.2v0.1l-0.2-0.1v0.1h-0.1v-0.1c-0.1,0-0.1,0.2-0.2,0.1v0.2h0.1v0.1h0.1v0.2l0.2,0.1
		h-0.1l0.2-0.3V251c0,0.1,0.1,0,0.1-0.1l0.3-0.1c-0.1-0.1,0-0.1,0-0.3c0.2,0,0.1,0.1,0.1,0.1c0.1,0,0,0,0.1-0.1h0.1v-0.1h0.2
		c0.1-0.3-0.1-0.4,0.1-0.4c0-0.1,0-0.2,0.1-0.1v0.1c0.2,0,0-0.2,0-0.2h0.2l0.1-0.1c-0.1,0-0.1-0.1-0.1-0.2
		C-95.3,249.5-95.5,249.8-95.5,249.8 M-97,249.5c0,0,0.1,0.1,0,0.2V249.5v0.3c0.1,0.2,0.2,0,0.1-0.2
		C-96.9,249.6-96.9,249.4-97,249.5 M-95.4,249.4C-95.4,249.5-95.4,249.5-95.4,249.4L-95.4,249.4L-95.4,249.4 M-89.9,249.3l0.1,0.2
		L-89.9,249.3l0.2,0.1v-0.1H-89.9 M-97.2,249.2c-0.2,0.1,0.1,0.4,0.1,0.3l-0.1-0.1h0.1L-97.2,249.2 M-97.2,249.1
		C-97.2,249.2-97.1,249.1-97.2,249.1 M-95.5,248.9L-95.5,248.9L-95.5,248.9C-95.6,248.9-95.6,249-95.5,248.9l-0.1,0.2v0.1h-0.1
		c0,0.1-0.1,0.2-0.1,0.1c-0.1,0-0.3,0.2-0.2,0.3c0.2,0,0.2-0.1,0.3-0.3l-0.1,0.1l0.1-0.1l0.2-0.1l-0.1-0.1V249L-95.5,248.9
		C-95.4,248.9-95.5,248.9-95.5,248.9 M-95.9,248.9c0.1,0.1,0,0.1,0,0.2h0.2c0.2-0.1,0-0.2,0.1-0.3L-95.9,248.9 M-96.5,248.7
		L-96.5,248.7L-96.5,248.7L-96.5,248.7C-96.3,248.8-96.6,248.8-96.5,248.7L-96.5,248.7L-96.5,248.7 M-93.8,248.7l-0.2,0.2h0.1
		C-93.8,248.9-93.8,248.8-93.8,248.7 M-95.3,248.6C-95.3,248.7-95.2,248.7-95.3,248.6L-95.3,248.6 M-91.6,248.5L-91.6,248.5
		L-91.6,248.5 M-90.3,248.4L-90.3,248.4v-0.2V248.4 M-90.7,248.3L-90.7,248.3L-90.7,248.3 M-93.9,248.3L-93.9,248.3L-93.9,248.3
		 M-93.1,248.3L-93.1,248.3l-0.1,0.2v0.1h0.1v-0.1C-92.9,248.4-93,248.3-93.1,248.3 M-90.9,248.4v-0.2V248.4 M-93.9,248.3
		C-94,248.2-94,248.3-93.9,248.3 M-89.1,248.3C-89.1,248.3-89,248.3-89.1,248.3h0.2l-0.1,0.2l0.1,0.1c-0.1,0-0.1-0.1-0.2-0.1v0.1
		c0.1,0,0.1,0.1,0.2,0.1l0.3-0.1c0-0.1,0-0.1-0.1,0v-0.2l-0.1-0.1H-89.1L-89.1,248.3 M-89.4,248.2c0.1,0.1,0,0.2,0.1,0.2
		L-89.4,248.2 M-90.5,248.2c0,0,0,0.1,0.1,0.1L-90.5,248.2 M-89.1,248.1C-89.2,248.2-89.1,248.3-89.1,248.1 M-89.9,248.3
		C-89.9,248.4-90,248.3-89.9,248.3l-0.1,0.2v0.1h0.2L-89.9,248.3c0.1,0.2,0.2,0.2,0.2,0.3l0.1-0.1c-0.1,0,0.1,0.1,0.2,0.1h0.2v0.1
		c0-0.2-0.1-0.1-0.1-0.1v-0.1l-0.1,0.1l-0.1-0.2h-0.1c0-0.1,0-0.1,0.1-0.1h-0.1c-0.1,0-0.2,0-0.2-0.1L-89.9,248.3 M-93.7,248.2
		L-93.7,248.2L-93.7,248.2 M-91.9,248.1L-91.9,248.1L-91.9,248.1 M-92.1,248.1L-92.1,248.1L-92.1,248.1 M-90.1,248.1v0.3l0.1-0.1
		c0,0.1,0.1-0.1,0.1-0.1L-90.1,248.1 M-94.5,247.9v0.2h-0.2V248l-0.1,0.2h-0.1c0,0.1,0.2,0.3,0.3,0.2c0.1,0.2,0.5-0.1,0.3-0.1v-0.1
		h-0.1c0.1,0,0-0.1,0-0.1L-94.5,247.9 M-90.9,247.9L-90.9,247.9l0.1,0.2c0,0,0.2,0,0-0.1L-90.9,247.9 M-92.4,248.1L-92.4,248.1
		L-92.4,248.1h-0.2v0.1h-0.1v0.1h0.2L-92.4,248.1C-92.4,248-92.5,247.9-92.4,248.1 M-91,248C-90.8,248-91,248-91,248 M-93.7,247.9
		L-93.7,247.9L-93.7,247.9 M-95.9,248c0.1,0.1,0.1,0,0.1-0.1L-95.9,248 M-90.9,247.9C-91,247.9-90.9,247.9-90.9,247.9 M-88.2,247.8
		L-88.2,247.8L-88.2,247.8C-88.2,247.9-88.1,247.7-88.2,247.8 M-91,247.6c0.1,0.1,0.2,0.3,0.3,0.1h-0.1L-91,247.6 M-92.6,247.6
		l0.1,0.1v-0.2L-92.6,247.6 M-92.8,247.6L-92.8,247.6L-92.8,247.6 M-91.5,247.6l0.2,0.1v0.1h-0.1c-0.3-0.6,0,0,0,0.1h-0.1l0.1,0.1
		v-0.1l0.1-0.1v0.2l0.1-0.1l0.2,0.1h-0.1c0.1-0.2-0.2-0.2-0.2-0.2c0-0.2,0.1-0.4-0.1-0.4v-0.1l-0.2-0.1
		C-91.5,247.4-91.5,247.5-91.5,247.6 M-91.7,247.3l0.1-0.1L-91.7,247.3 M-91.6,247.2C-91.6,247.3-91.5,247.3-91.6,247.2
		 M-91.7,247.2L-91.7,247.2L-91.7,247.2 M-94,247.1L-94,247.1L-94,247.1 M-91.7,247.1C-91.6,247-91.6,247-91.7,247.1L-91.7,247.1
		C-91.7,247-91.8,247.1-91.7,247.1 M-92.9,247.1v0.3l0.1-0.1v0.1l0.2-0.1l0.2-0.1c0-0.2-0.1-0.2-0.1-0.2h-0.1c-0.1,0,0,0,0-0.1
		C-92.8,246.8-92.9,247-92.9,247.1 M-88.6,246.8L-88.6,246.8L-88.6,246.8L-88.6,246.8 M-95.4,246.7
		C-95.5,246.8-95.4,246.9-95.4,246.7 M-95.4,246.6v0.2C-95.3,246.8-95.2,246.6-95.4,246.6 M-93.8,246.7L-93.8,246.7L-93.8,246.7
		 M-92.4,246.7L-92.4,246.7L-92.4,246.7v0.2c0,0.1,0.1,0.1,0.2,0.1h0.1v-0.3l-0.1-0.1C-92.3,246.6-92.4,246.7-92.4,246.7
		 M-92.5,246.5C-92.5,246.5-92.5,246.7-92.5,246.5 M-95.7,246.7L-95.7,246.7c0.1,0,0.1,0.1,0.1,0.2L-95.7,246.7
		c-0.1-0.1,0-0.1,0-0.2h-0.1C-95.7,246.5-95.7,246.6-95.7,246.7 M-92.3,246.5L-92.3,246.5L-92.3,246.5 M-95.2,246.4l0.1,0.1h0.1
		C-95.1,246.3-95.1,246.4-95.2,246.4 M-97.9,246.4C-97.9,246.4-97.9,246.6-97.9,246.4L-97.9,246.4L-97.9,246.4 M-97.8,246.5l0.1-0.2
		L-97.8,246.5 M-93.3,246.3L-93.3,246.3L-93.3,246.3l0.1,0.2l0.1-0.1c0,0,0.1,0.3,0.2,0.1c-0.1-0.1-0.1-0.2-0.2-0.1v-0.1
		L-93.3,246.3 M-95.5,246.1v0.3c0.1,0.1,0,0.2,0.1,0v0.1C-95.2,246.5-95.5,246.2-95.5,246.1l0.1,0.2l0.1-0.1l-0.1,0.1
		c0-0.1,0.1-0.1,0.1-0.1C-95.5,246.1-95.5,246.3-95.5,246.1 M-90.9,246.1L-90.9,246.1v-0.2V246.1 M-89.7,246L-89.7,246L-89.7,246
		 M-88.7,246v-0.2V246 M-95.4,245.9c0.1,0-0.1,0.2,0,0.2V245.9l0.1,0.2C-95.3,245.9-95.4,245.9-95.4,245.9 M-98.1,245.6l0.1-0.1
		C-98.1,245.5-98.1,245.5-98.1,245.6 M-89.8,245.6L-89.8,245.6L-89.8,245.6L-89.8,245.6L-89.8,245.6L-89.8,245.6l0.1,0.2h-0.2
		c0.1,0.1,0.2,0.2,0.3,0.2l0.1,0.1h0.2l0.1-0.1v-0.2h-0.5L-89.8,245.6C-89.9,245.7-89.7,245.6-89.8,245.6
		C-89.6,245.4-89.8,245.4-89.8,245.6 M-94.5,245.6L-94.5,245.6L-94.5,245.6 M-94.7,245.4L-94.7,245.4l-0.3,0.1l0.1-0.1l-0.1,0.2
		h-0.1c0.1,0,0-0.1,0.1-0.1c0-0.1-0.1-0.1-0.1-0.1v0.3l-0.2,0.1v0.1h-0.1c0,0.2,0.1,0.2,0.2,0.2h0.1V246h0.2v0.2
		c0.1,0.2,0,0.2-0.1,0.2v0.1l0.1,0.1l-0.2,0.2h0.2c0.1,0.1,0.1,0.1,0.3,0c0.1,0,0.4-0.3,0.4-0.1l0.1-0.1l0.2,0.1v-0.3
		c0.2,0.3,0.2-0.4,0.2-0.4c0-0.1-0.2-0.1-0.2-0.1h-0.2c0.1-0.1,0-0.1,0-0.2c0,0-0.3,0.1-0.2,0h0.1l-0.1-0.1
		c-0.1-0.1-0.1-0.1-0.2-0.3h0.1v-0.1L-94.7,245.4 M-94,245.2v0.2h0.1L-94,245.2z M-90.1,245.9C-90.4,245.8-90.1,245.8-90.1,245.9
		L-90.1,245.9 M-90.2,245.3h-0.3v0.2h-0.1v-0.1l-0.1-0.2h-0.1c0.1,0.1,0,0.2,0,0.3h0.1c0,0.1,0.1,0,0.2,0h-0.1c0,0.1,0.1,0,0.1,0.1
		h-0.1l0.1,0.1h-0.1l-0.1-0.1v-0.1l-0.1,0.1l0.2,0.2v-0.1v0.1h0.2c0,0.2,0.1,0,0.2,0c0,0.1,0.1,0.2,0,0.3h0.3c0.1,0.2,0.3,0,0.3,0
		v0.1v-0.1c-0.1,0.1-0.2-0.1-0.3-0.2l-0.1-0.1v-0.2l-0.1,0.1v-0.1l0.1,0.1v-0.2v0.1h-0.1v-0.2L-90.2,245.3L-90.2,245.3
		c0.1,0,0.2-0.1,0.1-0.2L-90.2,245.3 M-95,245.3L-95,245.3L-95,245.3 M-95,245.2l0.1,0.2L-95,245.2h0.2v0.1l0.1-0.1H-95 M-91,245.1
		c-0.1-0.1-0.1,0-0.1-0.1h-0.1l-0.2,0.2v0.1l0.1,0.1v-0.1v0.1l0.1-0.1l-0.1,0.1c0.1,0,0.1-0.1,0.1-0.2v-0.1
		C-90.9,245.3-90.9,245.2-91,245.1v-0.2C-91,245-90.9,245.1-91,245.1 M-94.5,245l0.1,0.1h0.1V245l0.1,0.1v0.1h-0.1v0.1
		c0.1-0.2,0.3-0.1,0.3,0.1v-0.2c0,0.1,0,0,0,0v-0.1h-0.2V245c0,0.1,0.1,0,0.1,0L-94.5,245 M-95.1,245L-95.1,245L-95.1,245
		 M-88.4,245c-0.2,0.1,0.2,0.2,0.3,0.2L-88.4,245h0.2H-88.4c0.1,0.1-0.1-0.2,0-0.2h-0.2C-88.6,245-88.5,245-88.4,245 M-95.7,244.8
		C-95.7,245-95.6,244.8-95.7,244.8 M-95.5,244.9L-95.5,244.9L-95.5,244.9c-0.2,0-0.3,0.1-0.3,0h-0.1v0.2l-0.1,0.1
		c-0.1,0.3,0.2,0.1,0.4,0.2v-0.1l0.1-0.2V244.9L-95.5,244.9L-95.5,244.9L-95.5,244.9c0.1,0,0.2,0.1,0.2-0.1h-0.1c0,0-0.1,0-0.1-0.1
		V244.9 M-91.2,244.8L-91.2,244.8L-91.2,244.8 M-90.7,244.7c0,0.3,0.3,0.1,0.3,0.1h-0.1L-90.7,244.7 M-89.9,244.7l-0.2,0.2v0.2h-0.1
		c0.1,0,0,0,0,0l0.2,0.4c0-0.1,0-0.3,0.1-0.2v0.1c0.1,0,0.2-0.1,0.2-0.2v0.1l0.1-0.1v-0.5h-0.1c0,0.1,0.1,0.2,0.1,0.3
		c0,0-0.1-0.3-0.2-0.2L-89.9,244.7L-89.9,244.7L-89.9,244.7L-89.9,244.7C-89.9,244.7-89.8,244.7-89.9,244.7
		C-89.8,244.6-89.9,244.7-89.9,244.7 M-90.1,244.6c0,0,0.1,0.1,0.1-0.1L-90.1,244.6 M-93.3,244.4c-0.1,0.2-0.1,0.2,0,0.2
		c0,0-0.1,0.1,0,0.2C-93.3,244.6-93.2,244.5-93.3,244.4 M-94.1,244.4l-0.1,0.1L-94.1,244.4c-0.2,0-0.1,0.2-0.1,0.1l-0.1,0.1h0.4v0.1
		v-0.2C-93.8,244.5-94,244.5-94.1,244.4C-93.9,244.4-94.1,244.4-94.1,244.4 M-87.8,244.4C-87.8,244.6-87.7,244.4-87.8,244.4
		L-87.8,244.4L-87.8,244.4 M-94.2,244.1L-94.2,244.1L-94.2,244.1 M-93.8,244L-93.8,244L-93.8,244C-93.9,244.2-93.7,244.2-93.8,244
		l0.1,0.2c0.1,0,0.1,0,0.1-0.1L-93.8,244L-93.8,244L-93.8,244L-93.8,244L-93.8,244L-93.8,244L-93.8,244L-93.8,244L-93.8,244
		 M-92.2,244c0.1-0.1-0.2-0.1-0.2,0l-0.1-0.1v0.1l-0.1-0.1v0.1c0,0,0.2,0.3,0.3,0.2c0-0.2,0.3-0.1,0.3-0.1l0.1,0.1l0.1,0.1v0.1
		l-0.2-0.1l-0.1,0.1l0.2,0.2c0,0.1,0.1,0.1,0,0.1v0.1H-92c0,0.1,0.1,0.1,0.1-0.1c0.1,0,0.1-0.3,0.2-0.4v0.1c0,0.1,0,0.1-0.1,0.2
		l0.1-0.1h0.1v-0.1h-0.1c0.1,0-0.3-0.4-0.2-0.5L-92,244v-0.2L-92.2,244 M-94,243.9L-94,243.9l0.1,0.2h0.1h-0.1
		C-93.8,244-94,243.8-94,243.9 M-92.8,244.1H-93v-0.2c0,0,0-0.1-0.1,0l-0.2,0.2v0.1v-0.1c0,0.1,0.1,0.2,0.2,0c0,0.1,0,0.2,0.1,0.1
		c-0.1,0.1,0.1,0.2,0.1,0.2v0.1v-0.1l0.2,0.1C-92.7,244.4-92.8,244.1-92.8,244.1L-92.8,244.1L-92.8,244.1c0.1,0,0-0.1,0.1-0.2
		l-0.1-0.1V244.1 M-94.6,243.7L-94.6,243.7c-0.1,0.1,0,0.1,0.1,0.2v0.1c0.1-0.1,0.1-0.1,0.1-0.2S-94.5,243.7-94.6,243.7L-94.6,243.7
		 M-93.9,243.5L-93.9,243.5L-93.9,243.5 M-94.7,243.3L-94.7,243.3L-94.7,243.3 M-92.6,243.3L-92.6,243.3L-92.6,243.3
		C-92.7,243.3-92.5,243.3-92.6,243.3L-92.6,243.3 M-92.8,243.2L-92.8,243.2l-0.2,0.1v0.2c0.1,0,0.2,0.2,0.2,0V243.2l0.1,0.2
		L-92.8,243.2L-92.8,243.2 M-91.5,242.5h0.2C-91.3,242.4-91.4,242.5-91.5,242.5L-91.5,242.5L-91.5,242.5L-91.5,242.5 M-93.8,242.5
		L-93.8,242.5c0.2,0,0.2-0.2,0.2-0.2h-0.1C-93.8,242.3-93.8,242.4-93.8,242.5 M-91.7,242.4v0.2V242.4L-91.7,242.4L-91.7,242.4
		C-91.7,242.4-91.6,242.3-91.7,242.4L-91.7,242.4 M-93.9,242.2C-93.8,242.2-93.8,242.3-93.9,242.2 M-92.6,242.1
		C-92.7,242.2-92.6,242.1-92.6,242.1 M-93.8,242.2L-93.8,242.2L-93.8,242.2C-93.8,242-93.9,242.2-93.8,242.2 M-93,242L-93,242
		L-93,242L-93,242c0,0-0.1,0.2-0.2,0.3h0.1h-0.1h0.1v-0.1v0.1h0.1h-0.1h0.1v-0.1l0.2-0.1V242L-93,242 M-92.5,241.9
		C-92.5,241.8-92.6,241.9-92.5,241.9L-92.5,241.9c0.1,0.1,0,0.3,0.1,0.2c0,0.1,0.1,0.2,0.1,0.1c0.1,0,0.1,0,0.2-0.1v0.1h0.1l0.1-0.1
		h-0.2c0,0,0-0.1-0.1-0.2l0.1,0.1h-0.2v-0.1v0.1L-92.5,241.9C-92.5,242-92.5,242-92.5,241.9 M-90.9,241.8
		C-90.9,241.9-90.9,241.8-90.9,241.8 M-92.6,241.8L-92.6,241.8L-92.6,241.8 M-94.7,241.6l-0.1,0.2L-94.7,241.6v0.2V241.6
		 M-90.8,241.6C-90.5,241.7-90.7,241.6-90.8,241.6L-90.8,241.6L-90.8,241.6 M-93.4,241.5l-0.1,0.1L-93.4,241.5L-93.4,241.5l-0.2,0.2
		l0.1-0.1L-93.4,241.5L-93.4,241.5h0.2C-93.2,241.5-93.4,241.6-93.4,241.5 M-93.3,241.4L-93.3,241.4l0.1,0.2l0.1-0.1
		c-0.1,0,0,0-0.1,0.1C-93.2,241.4-93.1,241.4-93.3,241.4 M-91.2,241.4L-91.2,241.4L-91.2,241.4 M-93.1,241.3L-93.1,241.3
		L-93.1,241.3 M-92.8,241.3c0,0.1,0.1,0,0.2,0H-92.8 M-93.7,239.8c-0.3,0.2-0.1,0.3-0.1,0.2L-93.7,239.8L-93.7,239.8L-93.7,239.8
		L-93.7,239.8 M-91,239.8v0.2c0-0.1,0.1-0.2,0.1-0.3L-91,239.8 M-94.4,239.6L-94.4,239.6c-0.1,0.2,0,0.2,0,0.2V239.6 M-94,239.6
		L-94,239.6L-94,239.6 M-94.7,239.5L-94.7,239.5L-94.7,239.5 M-93.8,239.3v0.2c0,0.1,0.1,0,0.1,0L-93.8,239.3L-93.8,239.3
		c0,0.1,0.2,0,0.2,0C-93.7,239.3-93.7,239.2-93.8,239.3 M-95.2,239.5L-95.2,239.5L-95.2,239.5 M-94.5,239.3
		C-94.4,239.4-94.5,239.4-94.5,239.3v0.2h0.1l-0.1,0.1c0.3-0.1,0-0.1,0.1-0.2l-0.1,0.1V239.3 M-95.8,239.2
		C-95.7,239.2-95.8,239.2-95.8,239.2 M-92.6,239.1c-0.1,0.1,0,0.1-0.1,0.1c0,0,0.1,0.2,0.1,0.1l-0.1-0.1L-92.6,239.1 M-93.8,239
		L-93.8,239L-93.8,239v0.2C-93.9,239.1-93.8,239-93.8,239l-0.1,0.2L-93.8,239L-93.8,239 M-95.6,239L-95.6,239l-0.1,0.2
		c0,0-0.1,0.1,0,0.1v0.1v-0.1l0.1,0.2c0.1-0.2,0,0.2,0.1,0.2l0.1-0.1v0.1v-0.1h-0.1l0.1-0.1v-0.1v0.1l-0.1-0.1
		c-0.1-0.1,0.1-0.1,0.1-0.2L-95.6,239 M-94.7,238.9C-94.6,238.9-94.7,239-94.7,238.9 M-95.8,238.6C-96,238.6-95.7,238.7-95.8,238.6
		 M-92.8,238.6C-92.8,238.7-92.7,238.8-92.8,238.6C-92.8,238.6-92.8,238.7-92.8,238.6 M-94.7,238.3l0.1,0.2l0.1-0.1
		c0.1,0.1,0.2,0,0.2,0.2h-0.1v0.1h-0.1c0.1,0.1,0.1,0.2,0,0.2v0.1l0.3-0.1l-0.2-0.1c0.1,0,0.1-0.2,0-0.3l-0.1-0.1v-0.1v0.1v-0.1
		L-94.7,238.3 M-94.5,238.2C-94.5,238.1-94.7,238.2-94.5,238.2 M-94.7,238L-94.7,238L-94.7,238 M-94.3,237.8
		C-94.3,238-94.2,237.8-94.3,237.8 M-89.3,256.2L-89.3,256.2L-89.3,256.2 M-87.2,253.2C-87.2,253.1-87.2,253.1-87.2,253.2
		 M-93.8,235.9v-3.5c0-0.4-0.3-0.7-0.7-0.7h-8.2c-0.4,0-0.7,0.3-0.7,0.7v18.4c0,0.5-0.4,0.6-0.6,0.2l-7.2-17.4l-0.3-0.7
		c-0.5-1.1-0.5-1.2-1.9-1.2h-8.9c-0.4,0-0.7,0.3-0.7,0.7v36.4c0,0.4,0.3,0.7,0.7,0.7h7.8c0.4,0,0.7-0.3,0.7-0.7v-18.4
		c0-0.5,0.4-0.6,0.6-0.2l7.2,17.4l0.3,0.7c0.2,0.7,0.9,1.2,1.6,1.2h5.5c2.3,0,4.2-1.9,4.2-4.2v-9.5c-0.1,0-0.2-0.1-0.3-0.1l-0.1-0.1
		l0.1,0.2h-0.2v-0.1v0.1l0.1-0.1H-95c0,0.2,0,0.3,0.1,0.2h0.1l0.1,0.1h-0.1l0.1,0.1c0,0-0.2,0-0.2-0.1v0.2v-0.1l-0.1,0.1l-0.1,0.1
		c-0.1,0.2,0,0.2,0,0.2h-0.3c-0.2,0-0.3,0.1-0.5,0.1l0.1-0.1l-0.1,0.1l-0.2-0.1h0.1c-0.1-0.1,0-0.3-0.2-0.3v0.2l-0.1-0.2l-0.1,0.1
		l-0.2,0.5v-0.1l0.1,0.1h-0.1l0.1,0.1l-0.1,0.4v-0.1c-0.2,0-0.2,0-0.2,0.2h-0.1v-0.1l-0.1,0.2h-0.1c0-0.1,0.1-0.3,0.1-0.4h-0.1
		l-0.2,0.2v-0.1l-0.1,0.3l-0.2,0.1v-0.1h-0.1c0,0.3,0.2,0.2,0,0.2l-0.1,0.1c-0.1,0.1-0.1,0.3-0.2,0.1s0-0.3,0-0.3
		c0.1,0,0.1-0.3,0.2-0.4l-0.1,0.1v0.1v-0.1H-98c0,0-0.1-0.2-0.2-0.2c0-0.2-0.2-0.2-0.2-0.3l0.1-0.1l-0.1-0.2c0,0,0.1-0.1,0.2,0.1
		v-0.1c0.1-0.1,0.1-0.5,0.3-0.4c-0.2-0.2,0-0.4,0.1-0.5c0-0.1,0-0.5,0.2-0.3v-0.1h0.1v-0.1h0.1l-0.1-0.1l0.1-0.1h0.1h-0.3v-0.1v0.1
		v-0.2l0.3,0.1c0.1-0.1,0-0.2,0-0.2c0-0.1,0-0.2,0.1-0.3v0.1v-0.2v0.1l-0.1,0.1l-0.2,0.2v-0.1l-0.1,0.2h-0.1L-98,255v-0.1
		c-0.1,0.1-0.2,0.5-0.2,0.3l0.1,0.1c-0.1,0-0.2,0.1-0.1,0.2c-0.1-0.1,0,0.3-0.2,0.3c-0.1,0-0.1,0.2-0.2,0.3l-0.1-0.3h-0.1v0.1h-0.1
		c0,0.2-0.1,0.1-0.1,0.1h0.2v0.1l0.1-0.1v0.1h-0.1v0.1v-0.1v0.1H-99V256h-0.1c0.1,0.1-0.1,0-0.1-0.1l-0.1-0.1l0.1-0.1h0.1v-0.2
		l0.1-0.2h0.1l0.1-0.1l-0.2,0.5l0.1-0.1l-0.1-0.3l-0.2,0.2c-0.2,0.2-0.4,0.3-0.3,0h0.1c0-0.1-0.2-0.4-0.1-0.4
		c-0.4-0.3,0-0.3,0.1-0.3c0,0,0.1-0.3,0.2-0.1c0.1-0.2,0.3-0.1,0.4,0h-0.1l0.1,0.2v-0.1l0.2-0.1h-0.1c0-0.1,0.1-0.1,0.1,0h0.1h-0.1
		c0,0,0.4-0.2,0.4-0.3l-0.1,0.1c0-0.1,0.1-0.1,0.1-0.1v-0.1h0.1v0.1c0.2-0.2,0.4,0,0.4-0.3h0.1v0.2l0.1-0.2c0.1,0.1,0.2-0.1,0.2-0.2
		c-0.2,0.1-0.5-0.1-0.6-0.1v-0.1h-0.2c0.1,0.1,0,0.1,0,0.2l0.1,0.1h-0.1l-0.2,0.1V254h-0.1c0-0.1,0,0,0,0v-0.1c0,0-0.1,0,0,0.1h-0.1
		l0.2,0.1c0.1,0.1,0,0.3-0.1,0.1v-0.1l-0.1,0.1l0.1,0.2h-0.1l0.1-0.1l-0.1,0.1v0.2h-0.2c-0.1,0,0-0.3,0.1-0.3c0,0-0.1-0.3-0.1-0.1
		h0.1h-0.1v0.2v-0.1c0,0-0.2,0.1-0.1,0.1h-0.1v-0.2v0.1h-0.2c0,0.1-0.1,0-0.1,0.1v0.1l0.1,0.1c-0.1,0.1-0.1,0.2-0.2,0.3h-0.2
		l0.1-0.1h-0.4v-0.1v0.2v-0.1h0.1c0,0.1-0.2,0.2-0.2,0.2c0.1,0,0.1,0.1,0,0.2h-0.2v-0.3l0.1,0.1l-0.1-0.2h-0.1c0,0,0-0.2-0.1-0.1
		c0-0.1,0.1-0.1,0.1-0.1h0.1l-0.1-0.1h0.1c-0.1,0.1,0.1,0,0.1,0h-0.1c0.1-0.1,0-0.1,0-0.2c0,0.1,0.1,0.1,0.2,0.1v0.1v-0.1
		c0.1,0,0.2,0,0.2-0.1h0.1l-0.1-0.1l0.1-0.1h0.1h-0.1v-0.2v0.1c0,0.1-0.1,0.1-0.1,0.1h-0.1l0.1-0.1l-0.1,0.1h0.1v0.1
		c-0.1-0.1-0.2,0-0.2,0.1h-0.1c0-0.1-0.2-0.2,0-0.2c0-0.1-0.3-0.3-0.2-0.4c0-0.1-0.1-0.4-0.2-0.6h0.1c0-0.1,0.4-0.6,0.4-0.8h0.1
		c0,0,0-0.4,0.2-0.2h-0.1h0.1v-0.3l-0.1,0.1c0-0.1-0.2-0.2-0.2-0.4c0.2,0,0.3,0,0.4-0.1c0-0.2-0.1-0.1-0.1-0.2h0.1v-0.1
		c0.2,0.1,0.1,0,0.3,0.2c0.1,0.1,0.1,0,0.1-0.1h0.1v-0.4c0.2-0.1,0.2-0.3,0.2-0.5c-0.1-0.2,0.1-0.2,0.1-0.3c0,0,0.2,0.1,0.1-0.1
		v-0.1c-0.2,0.2,0.1-0.1,0-0.2h0.1c0,0,0.1,0.2,0.2,0.1c-0.1-0.1,0-0.1,0-0.2h0.1c-0.1,0.1,0.3,0.3,0.4,0.3v0.1H-98l0.1,0.1
		c0-0.1,0-0.1,0.1-0.1v-0.1h-0.1v-0.2l0.1,0.1h0.1v-0.1h0.1v0.1c0,0,0.1,0,0.1-0.1h-0.1c0.1,0,0.2,0.1,0.1-0.1h0.1
		c-0.1-0.1,0.1-0.1,0.2-0.1c0-0.1-0.2-0.2-0.2-0.1l0.1-0.1c0-0.1-0.1,0.1-0.1,0.1v-0.1h-0.1v0.2v-0.1v0.1h-0.2l-0.1,0.2
		c0,0.1-0.1-0.2-0.1-0.4c-0.1-0.2-0.1-0.5,0-0.3c0-0.1,0-0.2-0.1-0.2s-0.1,0-0.1-0.2h0.3h-0.1l0.3-0.3h0.1c0-0.2,0.3-0.1,0.3,0
		c0.1-0.1,0.5-0.1,0.6-0.1c0-0.1,0.1-0.3,0.1-0.2h0.1v-0.3l0.3-0.2h-0.1h0.3l0.1-0.1h0.1v-0.1c0-0.1-0.2-0.1-0.3-0.1h0.1
		c0-0.2-0.3-0.3-0.2-0.2v-0.1v0.2c-0.1-0.1,0,0-0.1,0.1c-0.1,0-0.2-0.3-0.2-0.4c0.1,0,0.2-0.2,0.1-0.2v-0.1c0,0,0.3-0.4,0.4-0.6
		l0.1-0.1l0.1-0.1c-0.1-0.1,0,0-0.1-0.2h-0.1l0.1-0.1h-0.1c-0.1,0-0.2-0.1-0.3,0.1l0.1,0.1h-0.2v-0.1l-0.1,0.1v0.2
		c0-0.1-0.2,0-0.2,0.1s-0.3,0.1-0.3,0h0.2c-0.1,0,0.1-0.3,0-0.3v-0.1l-0.2,0.1c0.2,0,0,0.2-0.1,0.3h-0.2v0.2h-0.2c0,0,0-0.2-0.1-0.1
		v0.1c0-0.2-0.4,0.2-0.2,0.2c0.1,0.1-0.2,0.1-0.2,0.1v0.1l0.1-0.1v0.1v-0.1v0.1h-0.1l-0.1,0.1v0.2h-0.2c0.1,0,0.1-0.2,0.1-0.2h-0.1
		c0,0.3-0.2,0.2-0.2,0.1l-0.1,0.1h0.1l-0.1-0.1v0.2c0-0.1,0-0.2,0.1-0.2l-0.3,0.1l0.1,0.1h-0.2l-0.2-0.2l-0.1,0.1
		c-0.1-0.1,0.1-0.5,0.1-0.7v0.1c0-0.2,0-0.4,0.1-0.4l0.1-0.2c0.2,0,0.2,0.1,0.3,0.2c-0.1-0.1,0,0,0,0h0.2c0,0,0-0.1-0.1-0.1h-0.2
		l-0.1-0.1l0.1-0.1v-0.5c-0.1,0,0,0.1,0,0.1c-0.2-0.3-0.1-0.3,0-0.5h0.3v-0.4l0.1-0.1c0.1,0,0.1,0.1,0.1,0.2l0.2-0.1
		c0.1-0.1,0.2-0.1,0.2,0.1l0.1-0.2v0.1c0,0,0.1-0.2,0-0.2v0.1c0-0.2-0.2-0.3-0.1-0.5l0.2-0.3c0.1-0.1,0.2-0.1,0.4-0.3h-0.1h0.3
		l0.1-0.1c0,0.1,0.1,0.2,0.1,0.2v-0.1c0.1,0.1,0.1,0,0.1,0c0-0.1,0.4-0.2,0.4-0.2v-0.4v0.1l0.1-0.1l0.2-0.1c0-0.1,0.2-0.1,0.2-0.3
		l0.1,0.1l-0.1-0.2h0.1v0.1h0.1c0,0,0-0.1,0,0v0.1l0.1,0.1V242c0-0.1-0.1-0.2,0-0.3c0,0-0.5,0.2-0.6,0.2l-0.1-0.1
		c0,0-0.5,0.3-0.6,0.1h0.1l-0.3-0.1v0.1v-0.5c0.1-0.1,0.3,0,0.3-0.2c0,0,0.3,0,0.3,0.2c0.3-0.5,0.3-0.4,0.3-0.6c0,0,0.2-0.1-0.1,0
		l-0.1,0.1v-0.3l0.1,0.1l0.1-0.2v0.1v-0.1v0.1v-0.3l0.1,0.2l0.1-0.4h0.3l-0.1,0.1h0.2l-0.1-0.1l-0.1-0.1c0.1,0,0,0,0-0.1
		s-0.1-0.1-0.1-0.1s-0.3-0.1-0.3-0.3c0.1,0.2,0.1-0.2,0.1-0.2c0,0.1-0.1,0.1-0.2,0h-0.1c0-0.1,0-0.2,0.1-0.3h-0.1
		c0-0.1,0-0.2-0.1-0.3c0.2,0,0-0.3-0.1-0.3c-0.1-0.3,0.2-0.2,0.3-0.4h-0.1c0-0.2,0.3-0.4,0.5-0.4l0.2,0.2h0.1
		c-0.2,0-0.2-0.4-0.1-0.5c0.2,0,0.5-0.3,0.7-0.3l0.1,0.1c0.1,0.1,0.2,0.2,0.2,0.1v0.1c0-0.1,0.4-0.1,0.3,0.2c0,0,0.1,0,0.1,0.1
		l0.1-0.1c0.1,0,0.5,0,0.5,0.1l0.1-0.2c0-0.1,0.1-0.2,0.1-0.2v0.1h0.1v-0.1v0.1h0.3c0.1,0,0.3,0,0.3-0.1c0,0.3,0.2,0.2,0.2,0.4v-0.1
		v0.1v-0.1l0.1,0.1c0,0-0.1,0.1,0,0.2c-0.1,0.1,0,0.2,0,0.3V238l-0.1,0.2c-0.1-0.1-0.2,0-0.3,0c0,0.2,0.2,0.3-0.1,0.4h0.1h-0.1
		c0,0,0.6,0.5,0.2,0.5c0,0,0.3,0.2,0.3,0l0.3-0.3v0.1c0.1,0,0.1-0.3,0.1-0.3h0.1c0.1-0.1,0.2-0.1,0.2,0.1c0.1-0.1,0.1-0.1,0-0.2
		v-0.2l0.2-0.1v0.3c0,0-0.1,0.2,0,0.3c0,0,0.4-0.2,0.2-0.3h0.3c0.1,0.1,0.2,0.2,0.1,0.4c0,0-0.1,0.2-0.2,0.3h0.1c0,0-0.1,0,0,0.2
		l0.1-0.1v0.2c0,0.2,0.2,0,0.2,0.3c0-0.1,0.1,0.3,0.1,0.4l0.1-0.1c0.1,0.2,0,0.3-0.1,0.4c0.1,0.1,0.1,0.1,0.1,0.3v0.1l0.2,0.1
		c0.1,0,0,0.1,0.1,0.2c0,0.2-0.1,0.2-0.1,0.2l-0.3,0.6l-0.3-0.2v0.1h0.1v0.3c0,0.1,0.2,0,0.2-0.2l0.1,0.1c0-0.2,0.1-0.1,0.2-0.2
		c0.1,0.1,0.3,0,0.2,0c0.1-0.2,0.2-0.1,0.4-0.1v0.1l0.1-0.1h0.1c0,0.2,0.1,0.2,0.2,0c0.2,0,0,0.5,0.1,0.6c0,0.1,0,0,0,0v0.2h0.2
		l-0.1,0.2l-0.2,0.2l0.1,0.2c-0.1,0,0,0.1-0.1,0.2c-0.2-0.5-0.2-0.3-0.1-0.2v0.1c0-0.1,0.1-0.1-0.1-0.1l-0.1,0.1c-0.2,0,0,0.2,0,0.3
		c0.1-0.2,0.2-0.1,0.3-0.1h0.2c0,0.1,0.1,0,0.2,0h0.1v0.1c0.1-0.1,0.3,0,0.3-0.4c0.1,0,0.1,0,0.2-0.1v0.1h0.1v0.1h0.1v0.2
		c0,0,0,0.1-0.1,0.2c0,0.1-0.1,0.2-0.2,0.2c0.1,0.1,0,0,0,0.1l0.2,0.1c0.1,0.1,0.2,0.2,0.3-0.1l0.3-0.2l0.1,0.2l0.1-0.1v0.1v-0.1
		h0.1l-0.1,0.4l-0.1-0.1l-0.1,0.1h-0.1v0.1l-0.1,0.1h0.1c0,0.2,0.2,0.2,0.3,0.3c0,0.3-0.1,0.3-0.3,0.4h0.1c0-0.2-0.1,0-0.1,0
		c-0.1,0.1-0.2,0.3-0.4,0.3v0.2v-0.1v0.4c0,0-0.1-0.2-0.1,0.1l-0.1-0.3v0.2c0-0.1-0.1-0.1-0.2-0.1c0.1,0.1,0,0.1,0.1,0.3h-0.2V246
		v0.1v-0.2l-0.2,0.2l-0.1-0.2v0.2l0.1,0.1v-0.1l0.1,0.1l0.1-0.1v0.1h0.1c0,0,0.1,0.1,0,0h0.1v0.1l0.2-0.1v0.2c0.1-0.1,0.1,0,0.3,0.1
		l0.1-0.1c0,0.2,0,0.3-0.2,0.3c0.1,0.1-0.2,0.2-0.2,0.2c-0.1,0-0.1-0.1-0.1,0.1h-0.2v0.1h-0.1v0.1v-0.1c0,0,0.1,0.1,0.1,0
		c0.2,0.1-0.3,0.3,0.3,0.1l0.1,0.1l0.1,0.1l-0.1,0.4h0.1H-88v0.3c0.2-0.1,0.1,0.2,0,0.2v0.2c0.5,0.1-0.3,0.7-0.2,0.5v-0.3h-0.2
		c-0.3,0,0-0.1-0.1-0.2h-0.1v0.1h-0.1c0.1,0,0.1,0,0.1,0.1c-0.1,0-0.2,0-0.1,0.1h-0.1h0.1h-0.1c-0.1,0,0.1,0.2,0.2,0.1l0.1,0.2v0.1
		c0.1-0.2,0.1,0,0.2,0.1v-0.1c0,0-0.1,0.3-0.2,0.2l0.1,0.1c-0.1,0-0.2,0.1-0.1,0.1c0.1-0.1,0.1,0.1,0.1,0.2H-89v-0.2h-0.1v-0.1
		l-0.1,0.1h0.1l-0.3,0.2v0.1h-0.1v0.1c0,0,0-0.2-0.1,0h-0.1v0.1h0.1v0.2h-0.1l-0.2,0.3h0.1H-90c0,0,0.1-0.1,0.1,0v0.1
		c0.1,0.1,0.1,0.2,0.2,0.1v0.1c0.1,0,0-0.2,0.1-0.1c0,0,0.1,0.3,0.1,0.1v0.1c0,0,0.4,0,0.3,0.2v0.1l0.1-0.1c0.1,0,0.4,0,0.5-0.1
		c0,0.1,0.1,0.1,0.2,0v0.2l0.1-0.2c0,0.2,0.1-0.1,0.2-0.1h0.1v0.4l0.1-0.1v0.2l-0.1,0.1h0.1v0.2l0.2,0.2c0.1-0.1-0.1-0.1,0.1-0.1
		c0,0.1,0.1,0,0.1-0.1v0.1h0.3c0.1,0-0.1,0.1,0,0v-0.1h0.1v0.1c0,0.1,0.2,0,0.1,0.1v-0.1l0.3,0.5v-0.1v0.2c-0.2,0.3-0.1,0.3-0.3,0.3
		h-0.1h0.1h-0.1c-0.1,0-0.1,0.1-0.3,0c-0.1,0-0.2,0.1-0.2,0.2v0.2c0,0-0.2,0.2-0.2,0.1v0.1l-0.1,0.1c0,0,0.2,0.1,0.2,0l0.1-0.1
		c0.1-0.1,0.1-0.2,0.2,0.1c0,0,0.1-0.2,0.1,0c0-0.1,0.1-0.1,0.1,0h0.1v-0.1v0.1v-0.1l0.1,0.1l0.2-0.1v0.1c0.1-0.2,0.4-0.4,0.5-0.4
		c0,0.2,0.3,0.1,0.2,0h0.2v0.5c-0.2,0-0.4,0-0.5,0.2h-0.2v0.2l-0.1,0.1v0.2h0.1v0.2l0.2,0.2v0.1v-0.1h-0.5l-0.3,0.3h-0.1l-0.1,0.1
		V255h-0.2c-0.1,0.1-0.3,0.2-0.4,0.3l-0.1-0.2l-0.1-0.1l-0.1,0.1l-0.1,0.2v0.1l-0.1,0.1c0.1-0.1,0.1,0,0.1,0l-0.1,0.1v-0.1l-0.1-0.1
		v0.1l-0.1,0.1l-0.1-0.1h0.1h-0.1c0-0.1,0,0,0.1-0.1l-0.1-0.1c0,0.3-0.1,0.2,0.1,0.4h-0.2h0.1v0.1c-0.1,0,0,0.1,0,0.2v-0.1l-0.1,0.2
		c0.2,0.1,0.2,0.1,0.1,0.1l-0.2-0.1l-0.4-0.3c0.1-0.2,0-0.1,0-0.2c0-0.1-0.1-0.1,0.1-0.2v-0.1l-0.1,0.1v-0.1c-0.1,0-0.3-0.1-0.3-0.2
		h0.1V255h0.1v-0.1l0.1,0.1l0.1,0.1v0.1c0.1-0.1,0-0.2,0-0.3h-0.1v-0.1v0.1l-0.1,0.1l0.1,0.1h-0.1V255c0,0-0.1-0.1-0.1,0v-0.2
		l0.2-0.1h-0.1l0.1-0.1v-0.2c0.1-0.2-0.2-0.2-0.1-0.2h-0.1V254c0.1,0,0.1-0.1,0-0.1v0.1c-0.1-0.2,0-0.1,0-0.4h-0.1l0.1,0.1
		c-0.1,0-0.5-0.2-0.4-0.4v0.1c0.1-0.1,0-0.1,0-0.1v-0.1l-0.2,0.2l0.1,0.3l-0.1,0.2h-0.1c0,0-0.5,0.3-0.4,0.1H-91
		c0-0.1-0.3-0.1-0.3,0v0.1h0.1l0.1,0.1l-0.1,0.1c0,0,0.1,0.1,0.1,0.2c0.2,0,0.3,0.1,0.6,0.2v-0.1l0.1,0.1v0.1h0.3
		c-0.1,0.1,0.2,0.1,0.2,0.1l-0.1,0.2c0.1-0.1,0.3,0.2,0.1,0.2c0-0.1-0.1-0.2-0.2-0.2v-0.2l-0.1,0.1c0-0.1,0,0-0.1,0.1V255l-0.2-0.1
		h-0.2h0.1h-0.1c0-0.1-0.1-0.1-0.2-0.1h0.1v0.1c0-0.1,0-0.2-0.2-0.2h-0.1v0.1h-0.1v0.1l-0.2,0.2c-0.1-0.2-0.3-0.2-0.4-0.1v-0.1
		l-0.2-0.1h-0.1v-0.1v0.1v-0.1l-0.3-0.1h-0.2h0.1l-0.2-0.1v0.2l-0.1,0.1v-0.1H-93v0.1h-0.1v0.2h0.1v0.1h-0.1c0,0.1,0,0.1,0.1,0.1
		l0.1,0.1H-93h0.1c0.1,0.1-0.1,0.2,0.1,0.3l-0.2,0.2l-0.1-0.1h-0.1v-0.1l-0.1,0.1l-0.1,0.1v9.8c0,2.3,1.9,4.2,4.2,4.2h8.5
		c8.8,0,11.9-4.1,13-8c0.4-1.6,0.6-3.2,0.6-4.3v0.2v-2.4c0-0.4-0.3-0.7-0.7-0.7h-7.8c-0.4,0-0.7,0.3-0.7,0.7v0.3
		c0,3.6-0.5,5.2-4.3,5.2c-4,0-4.3-2.5-4.3-6.5v-7.6c0-4,0.3-6.5,4.2-6.5h0.1c3.9,0,4.3,1.6,4.3,5.4v0.4c0.1,0.3,0.4,0.6,0.7,0.6h7.8
		c0.3,0,0.6-0.2,0.7-0.5V244c0-1-0.1-3.1-0.5-4.7c-1-3.8-3.9-7.9-12.3-8.1h-2.4C-89,230.8-92.1,233.1-93.8,235.9"/>
	<g>
		<g>
			<g>
				<g>
					<defs>
						<path id="SVGID_1_" d="M-97.7,257.1l0.1-0.1L-97.7,257.1 M-97.9,256.8L-97.9,256.8L-97.9,256.8 M-97,256.7v0.4h0.1
							C-97,256.9-96.9,256.8-97,256.7 M-99.1,256.2c0.1,0.1-0.1,0.2,0,0.2V256.2 M-97.7,256l0.1,0.1L-97.7,256L-97.7,256 M-96.2,256
							L-96.2,256l0.1,0.1l0.1-0.1H-96.2 M-97.1,255.8l0.1,0.1L-97.1,255.8 M-97.3,255.8C-97.4,255.9-97.3,255.9-97.3,255.8
							L-97.3,255.8 M-96.4,255.8L-96.4,255.8L-96.4,255.8 M-97,255.6l0.1,0.1C-96.8,255.7-96.8,255.6-97,255.6
							C-96.8,255.7-96.9,255.6-97,255.6C-96.9,255.7-96.9,255.6-97,255.6 M-97.5,255.6C-97.4,255.6-97.4,255.6-97.5,255.6
							 M-96.6,255.5l-0.1,0.1L-96.6,255.5L-96.6,255.5 M-94.8,255.4L-94.8,255.4L-94.8,255.4c0,0.1-0.1,0.2-0.1,0.2h0.1
							c0,0,0-0.1,0,0V255.4 M-97.4,255.5l0.1-0.1L-97.4,255.5 M-97.3,255.2C-97.2,255.2-97.3,255.3-97.3,255.2L-97.3,255.2
							L-97.3,255.2 M-98.5,255.3L-98.5,255.3l-0.1-0.1c0,0.1-0.2,0.4-0.3,0.3C-98.9,255.8-98.5,255.3-98.5,255.3l0.1-0.1
							L-98.5,255.3 M-96.1,255.1L-96.1,255.1C-96.2,255.4-96.1,255.3-96.1,255.1L-96.1,255.1 M-95.6,255.1L-95.6,255.1l0.1-0.1
							L-95.6,255.1l0.1-0.1L-95.6,255.1 M-88.8,255.1l-0.1,0.1l0.1,0.1V255.1L-88.8,255.1c0,0.2,0,0.3,0.1,0.2h-0.1V255.1l0.1,0.2
							l0.1-0.1v0.1C-88.6,255.2-88.5,255-88.8,255.1C-88.6,255-88.7,255.1-88.8,255.1C-88.7,255.1-88.8,255-88.8,255.1L-88.8,255.1
							 M-99.4,254.9C-99.5,254.8-99.4,255-99.4,254.9 M-95.2,254.8C-95.1,254.9-95.2,254.8-95.2,254.8L-95.2,254.8L-95.2,254.8
							 M-94.9,254.6L-94.9,254.6L-94.9,254.6L-94.9,254.6 M-91.5,254.6L-91.5,254.6c0.2,0.1,0.2,0.1,0.2,0h0.1v-0.1L-91.5,254.6
							 M-87,254.6L-87,254.6L-87,254.6L-87,254.6 M-93.2,254.8l0.2-0.1L-93.2,254.8v-0.2V254.8 M-91.5,254.7v-0.2
							C-91.5,254.5-91.6,254.7-91.5,254.7 M-95.1,254.7v0.2C-95.1,254.8-95,254.8-95.1,254.7L-95.1,254.7v-0.2V254.7v-0.2V254.7
							v-0.2V254.7 M-98.2,254.5v0.2V254.5 M-91.4,254.4L-91.4,254.4L-91.4,254.4l0.1,0.1L-91.4,254.4 M-89.1,254.4
							c0,0.1,0.1,0.3,0.1,0.3h0.2L-89.1,254.4L-89.1,254.4L-89.1,254.4 M-88.9,254.3C-89.1,254.4-88.9,254.3-88.9,254.3 M-98,254.3
							L-98,254.3c-0.1,0.1-0.2,0.3-0.2,0.3l0.1-0.1C-98.1,254.4-98,254.4-98,254.3h0.3H-98 M-88.8,254.3l0.1,0.2v0.1L-88.8,254.3
							L-88.8,254.3C-88.7,254.2-88.7,254.3-88.8,254.3l0.1-0.1L-88.8,254.3 M-89.2,254.2v0.3l0.1,0.1L-89.2,254.2 M-89,254.1
							l0.1,0.1v-0.1C-88.9,254.1-88.9,254.2-89,254.1 M-92.7,254.1C-92.8,254.2-92.7,254.2-92.7,254.1L-92.7,254.1L-92.7,254.1
							L-92.7,254.1 M-91.5,254.4l0.1-0.1l-0.2-0.1C-91.6,254.3-91.6,254.4-91.5,254.4 M-89.3,254.2l-0.1-0.2L-89.3,254.2
							 M-90.5,254.1h0.1H-90.5 M-94.7,254l0.2,0.1v-0.2l-0.2-0.1V254 M-93.2,253.8v0.2V253.8 M-98.8,253.8v0.2V253.8v0.2V253.8
							 M-94.4,253.8h-0.1C-94.3,254-94.4,253.9-94.4,253.8 M-99.4,253.8C-99.4,253.7-99.3,253.8-99.4,253.8 M-98.7,253.7
							C-98.7,253.7-98.9,253.8-98.7,253.7 M-100,253.7c0,0.1-0.2,0.1-0.1,0.1l0.1,0.1V253.7l0.1,0.1L-100,253.7l0.1,0.1L-100,253.7
							 M-89.5,253.6l0.1,0.1v0.1c0.1,0-0.1,0,0,0.1h0.1c0,0.2,0,0.1,0.1,0.1l0.1,0.1v-0.2v0.1l-0.3-0.2L-89.5,253.6L-89.5,253.6
							 M-98.5,253.7L-98.5,253.7C-98.7,253.6-98.6,253.7-98.5,253.7 M-93.1,253.7C-93.2,253.7-93.1,253.7-93.1,253.7
							C-93.2,253.7-93.5,253.8-93.1,253.7l0.1-0.1v-0.2L-93.1,253.7 M-97.4,253.6L-97.4,253.6L-97.4,253.6 M-90,253.3L-90,253.3
							L-90,253.3L-90,253.3 M-97.8,253.4l-0.2,0.2h0.1l0.1,0.2h0.1l0.1-0.1C-97.7,253.8-97.7,253.5-97.8,253.4L-97.8,253.4
							C-97.6,253.4-97.7,253.3-97.8,253.4 M-97.2,253.4L-97.2,253.4L-97.2,253.4l0.2-0.2h-0.3L-97.2,253.4 M-91,253.4l0.1,0.1v0.3
							v-0.1h0.1c0.1-0.1,0.2,0,0.2,0l0.1-0.1c-0.1,0,0,0,0,0L-91,253.4c0-0.2,0-0.3-0.1-0.3C-91.1,253.2-91.1,253.3-91,253.4
							 M-96,253c0,0.1,0,0.2-0.1,0.2c0,0.1,0.1,0.3,0.1,0.3h-0.1c0,0.1,0.1,0.1,0,0.2s0.1,0.1,0.2,0.2c0,0.1,0.4,0.3,0.5,0.1v-0.2
							c0,0.1,0.1-0.1,0.1-0.1c0,0.1,0.1-0.1,0.1-0.1v-0.1l-0.1,0.1c-0.1-0.1,0.1-0.2,0-0.2v-0.1c0,0.1,0.2-0.1,0.2-0.1l-0.1-0.1
							l0.1,0.1h-0.2l-0.3,0.4c0-0.2-0.1-0.3-0.2-0.4h0.1l-0.1-0.1h0.1l-0.1-0.1L-96,253 M-95.7,252.9v0.2h0.1v0.1
							c0-0.1,0.1-0.1,0.1-0.2L-95.7,252.9 M-90.8,252.8L-90.8,252.8h0.2c-0.1,0.2,0.1,0.2,0.2,0.2v0.2v-0.1v0.1l0.1-0.1
							c0,0.1,0.1,0.1,0.1-0.1h-0.1l0.1-0.2h-0.1l-0.1-0.1c-0.1,0.1-0.1,0.1-0.1,0l-0.1,0.1C-90.7,252.8-90.8,252.8-90.8,252.8
							L-90.8,252.8 M-91.7,252.7l0.1,0.1C-91.6,252.6-91.7,252.7-91.7,252.7 M-87.4,252.6C-87.4,252.6-87.5,252.7-87.4,252.6
							 M-90.9,252.7c0,0-0.2,0.1-0.1,0.1L-90.9,252.7v0.2C-90.9,253.2-90.6,252.9-90.9,252.7 M-92.2,252.6c0,0.2,0.1,0.1,0.1,0.2
							l0.3-0.2c-0.1,0-0.2-0.1-0.3-0.1L-92.2,252.6 M-87.3,252.7L-87.3,252.7C-87.3,252.6-87.4,252.7-87.3,252.7 M-99.8,252.3
							C-99.7,252.3-99.7,252.3-99.8,252.3 M-99.6,252.3L-99.6,252.3L-99.6,252.3 M-96.1,252.2l-0.1,0.1L-96.1,252.2L-96.1,252.2
							 M-93.3,252.1L-93.3,252.1L-93.3,252.1 M-99.7,252l0.2,0.1l-0.1,0.1l0.1,0.1l0.1-0.1v-0.1l-0.2-0.2L-99.7,252 M-95.7,251.8
							L-95.7,251.8L-95.7,251.8l0.2,0.1L-95.7,251.8L-95.7,251.8 M-96.4,251.8L-96.4,251.8L-96.4,251.8L-96.4,251.8 M-96,251.9
							C-96.1,251.9-96.1,252-96,251.9v0.2l0.1,0.1h0.1l0.1-0.1c0,0-0.1,0.2,0,0v0.1h0.2c0-0.2-0.2-0.1-0.2-0.2
							c0.1-0.1-0.1-0.1-0.2-0.1H-96l0.2-0.1C-95.8,251.7-96.2,251.8-96,251.9 M-92.6,251.8L-92.6,251.8L-92.6,251.8 M-92.7,251.8
							C-92.7,251.7-92.6,251.6-92.7,251.8L-92.7,251.8v-0.2h-0.1C-92.8,251.8-92.7,251.8-92.7,251.8 M-95.4,251.7L-95.4,251.7
							L-95.4,251.7C-95.4,251.6-95.5,251.6-95.4,251.7 M-92.2,251.6c0,0-0.1,0.2-0.1,0.3L-92.2,251.6L-92.2,251.6 M-94.5,251.6
							c0,0.1-0.2,0.1-0.2,0.2l0.1,0.1v0.1l-0.2,0.2l0.3,0.1l0.1-0.1l0.1,0.1h0.2l0.1,0.1c0-0.1,0-0.3-0.1-0.3v0.1v-0.4v0.1
							c0,0-0.1-0.1,0-0.1h-0.3C-94.3,251.8-94.4,251.6-94.5,251.6C-94.6,251.7-94.4,251.6-94.5,251.6 M-93,251.6
							C-93.1,251.7-93,251.6-93,251.6 M-94.4,251.6l0.1,0.1C-94.2,251.6-94.3,251.6-94.4,251.6 M-95,251.5L-95,251.5L-95,251.5v0.3
							h0.1c0-0.1,0-0.1,0,0l-0.1-0.1C-94.9,251.7-95,251.6-95,251.5 M-96.4,251.5c-0.2,0.1,0,0.2,0,0.2V251.5 M-93.3,251.5
							C-93.3,251.6-93.3,251.8-93.3,251.5l0.1,0.2L-93.3,251.5 M-93.1,251.4c0,0,0,0.3,0.1,0.2c0.1,0.1,0.1,0.2,0.2,0.2l-0.1-0.1
							l0.1-0.1v-0.1c0,0-0.1,0.1,0,0h-0.1c0.1,0,0,0,0,0S-92.9,251.4-93.1,251.4 M-95.3,251.3L-95.3,251.3L-95.3,251.3 M-92.7,251.2
							L-92.7,251.2L-92.7,251.2 M-96.1,251.2C-96.1,251.3-96.1,251.2-96.1,251.2 M-92.1,251.3c0,0.1,0.2,0.3,0.2,0.4v0.1v-0.2v0.1
							v-0.5C-92,251.4-92,251.3-92.1,251.3l0.1-0.2L-92.1,251.3 M-99,251.2h0.1H-99 M-93.3,251.2l0.2,0.1l0.1-0.1v-0.1h-0.1
							l-0.1-0.1L-93.3,251.2 M-91.8,251.1h0.3C-91.5,251-91.6,251-91.8,251.1L-91.8,251.1 M-91.5,251l0.1,0.1L-91.5,251 M-92.9,251
							L-92.9,251L-92.9,251 M-92.1,250.9l0.1,0.1L-92.1,250.9 M-93.1,251L-93.1,251C-93.2,251-93.2,251-93.1,251 M-92.2,251l0.1-0.1
							L-92.2,251 M-92.6,250.8L-92.6,250.8c-0.1,0.2-0.2,0.2-0.2,0.3c0,0,0.2,0,0,0.1l0.2-0.1V250.8 M-95.6,250.8
							C-95.6,250.7-95.7,250.8-95.6,250.8L-95.6,250.8c0.1,0.1,0.1,0.2,0.1,0H-95.6 M-92.5,250.7C-92.5,250.7-92.6,250.9-92.5,250.7
							 M-92.9,250.7l0.1,0.1L-92.9,250.7L-92.9,250.7 M-91.6,250.7c0.1,0.1,0.1,0,0.1,0.1v-0.1H-91.6 M-91.7,250.4L-91.7,250.4
							L-91.7,250.4L-91.7,250.4 M-93.1,250.3C-93.2,250.3-93.2,250.3-93.1,250.3C-93.3,250.5-93.1,250.3-93.1,250.3 M-93,250.4
							C-93,250.4-93.1,250.4-93,250.4 M-90.2,250.3v0.2V250.3 M-97.1,250.2C-97.1,250.1-97,250.1-97.1,250.2L-97.1,250.2
							 M-92.5,250.1l0.2,0.1v-0.1H-92.5L-92.5,250.1L-92.5,250.1 M-96.7,250.1C-96.7,250.2-96.7,250.2-96.7,250.1l0.1-0.2
							L-96.7,250.1 M-90,250v0.2h-0.1v-0.1C-90.1,250.1-89.9,250.2-90,250L-90,250c0.2-0.1,0.1-0.2,0-0.2V250 M-91,251.2
							C-91,251.3-91,251.2-91,251.2 M-90.9,250.8L-90.9,250.8C-90.9,251-90.9,250.9-90.9,250.8L-90.9,250.8L-90.9,250.8
							C-90.8,250.8-90.8,250.8-90.9,250.8 M-91.9,250l-0.1-0.1l0.3,0.3c0-0.2,0.3,0.2,0.3,0.2l0.1-0.2h0.1v0.1l-0.1,0.1v0.1v-0.1
							v0.1c0-0.1,0.1,0.1,0.1,0.1h-0.1c0,0.1,0.2,0.2,0.1,0.3h-0.1l-0.1,0.1c-0.1,0.3-0.1,0.1-0.2,0.1V251h-0.1v0.4
							c0,0,0.2,0,0.1-0.1l0.1-0.1c0,0.1,0.1,0.1,0.1,0l0.1,0.2v0.1l0.3,0.1c0,0,0.4-0.4,0.2-0.5V251h-0.1c0,0-0.1,0.1-0.1,0
							c0.1,0,0.1-0.2,0.1-0.2v-0.1H-91c0.2,0-0.1-0.3-0.2-0.2c0,0,0-0.4-0.2-0.3l-0.2-0.1l-0.1-0.2c-0.1,0,0.1,0.2,0,0.2
							C-91.7,250-91.8,250-91.9,250L-91.9,250l0.1,0.1L-91.9,250v0.2L-92,250C-92,250.1-92,250-91.9,250h-0.2
							C-91.8,249.8-91.9,249.9-91.9,250 M-92.8,249.9L-92.8,249.9L-92.8,249.9 M-90.3,249.9L-90.3,249.9L-90.3,249.9 M-92.7,249.8
							L-92.7,249.8C-92.6,249.8-92.7,249.8-92.7,249.8 M-90.6,249.8v0.2h0.1c0,0.1,0,0.2,0.1,0c0,0.1,0,0.1,0.1,0.1h-0.1
							c0.1,0,0.3-0.1,0.3-0.2c0-0.1-0.2,0-0.3,0v-0.1h-0.1C-90.5,249.6-90.6,249.7-90.6,249.8L-90.6,249.8l0.1-0.1L-90.6,249.8
							 M-97.5,249.8L-97.5,249.8L-97.5,249.8 M-90.3,249.6L-90.3,249.6C-90.3,249.7-90.2,249.6-90.3,249.6 M-96.7,249.6L-96.7,249.6
							L-96.7,249.6 M-90.5,249.6C-90.5,249.6-90.4,249.7-90.5,249.6 M-95.6,249.6l0.1-0.1L-95.6,249.6 M-95.7,250.2
							C-95.6,250.3-95.7,250.2-95.7,250.2 M-95.5,249.8h-0.2c-0.1-0.2-0.1,0.2-0.1,0.2l-0.1,0.1H-96l0.1,0.1h-0.2v0.1h-0.1
							c0,0,0,0.3,0.1,0.1v0.1c-0.1-0.1-0.2,0.1-0.2,0.2v0.1l-0.2-0.1v0.1h-0.1v-0.1c-0.1,0-0.1,0.2-0.2,0.1v0.2h0.1v0.1h0.1v0.2
							l0.2,0.1h-0.1l0.2-0.3V251c0,0.1,0.1,0,0.1-0.1l0.3-0.1c-0.1-0.1,0-0.1,0-0.3c0.2,0,0.1,0.1,0.1,0.1c0.1,0,0,0,0.1-0.1h0.1
							v-0.1h0.2c0.1-0.3-0.1-0.4,0.1-0.4c0-0.1,0-0.2,0.1-0.1v0.1c0.2,0,0-0.2,0-0.2h0.2l0.1-0.1c-0.1,0-0.1-0.1-0.1-0.2
							C-95.3,249.5-95.5,249.8-95.5,249.8 M-97,249.5c0,0,0.1,0.1,0,0.2V249.5v0.3c0.1,0.2,0.2,0,0.1-0.2
							C-96.9,249.6-96.9,249.4-97,249.5 M-95.4,249.4C-95.4,249.5-95.4,249.5-95.4,249.4L-95.4,249.4L-95.4,249.4 M-89.9,249.3
							l0.1,0.2L-89.9,249.3l0.2,0.1v-0.1H-89.9 M-97.2,249.2c-0.2,0.1,0.1,0.4,0.1,0.3l-0.1-0.1h0.1L-97.2,249.2 M-97.2,249.1
							C-97.2,249.2-97.1,249.1-97.2,249.1 M-95.5,248.9L-95.5,248.9L-95.5,248.9C-95.6,248.9-95.6,249-95.5,248.9l-0.1,0.2v0.1h-0.1
							c0,0.1-0.1,0.2-0.1,0.1c-0.1,0-0.3,0.2-0.2,0.3c0.2,0,0.2-0.1,0.3-0.3l-0.1,0.1l0.1-0.1l0.2-0.1l-0.1-0.1V249L-95.5,248.9
							C-95.4,248.9-95.5,248.9-95.5,248.9 M-95.9,248.9c0.1,0.1,0,0.1,0,0.2h0.2c0.2-0.1,0-0.2,0.1-0.3L-95.9,248.9 M-96.5,248.7
							L-96.5,248.7L-96.5,248.7L-96.5,248.7C-96.3,248.8-96.6,248.8-96.5,248.7L-96.5,248.7L-96.5,248.7 M-93.8,248.7l-0.2,0.2h0.1
							C-93.8,248.9-93.8,248.8-93.8,248.7 M-95.3,248.6C-95.3,248.7-95.2,248.7-95.3,248.6L-95.3,248.6 M-91.6,248.5L-91.6,248.5
							L-91.6,248.5 M-90.3,248.4L-90.3,248.4v-0.2V248.4 M-90.7,248.3L-90.7,248.3L-90.7,248.3 M-93.9,248.3L-93.9,248.3
							L-93.9,248.3 M-93.1,248.3L-93.1,248.3l-0.1,0.2v0.1h0.1v-0.1C-92.9,248.4-93,248.3-93.1,248.3 M-90.9,248.4v-0.2V248.4
							 M-93.9,248.3C-94,248.2-94,248.3-93.9,248.3 M-89.1,248.3C-89.1,248.3-89,248.3-89.1,248.3h0.2l-0.1,0.2l0.1,0.1
							c-0.1,0-0.1-0.1-0.2-0.1v0.1c0.1,0,0.1,0.1,0.2,0.1l0.3-0.1c0-0.1,0-0.1-0.1,0v-0.2l-0.1-0.1H-89.1L-89.1,248.3 M-89.4,248.2
							c0.1,0.1,0,0.2,0.1,0.2L-89.4,248.2 M-90.5,248.2c0,0,0,0.1,0.1,0.1L-90.5,248.2 M-89.1,248.1
							C-89.2,248.2-89.1,248.3-89.1,248.1 M-89.9,248.3C-89.9,248.4-90,248.3-89.9,248.3l-0.1,0.2v0.1h0.2L-89.9,248.3
							c0.1,0.2,0.2,0.2,0.2,0.3l0.1-0.1c-0.1,0,0.1,0.1,0.2,0.1h0.2v0.1c0-0.2-0.1-0.1-0.1-0.1v-0.1l-0.1,0.1l-0.1-0.2h-0.1
							c0-0.1,0-0.1,0.1-0.1h-0.1c-0.1,0-0.1,0-0.2-0.1L-89.9,248.3 M-93.7,248.2L-93.7,248.2L-93.7,248.2 M-91.9,248.1L-91.9,248.1
							L-91.9,248.1 M-92.1,248.1L-92.1,248.1L-92.1,248.1 M-90.1,248.1v0.3l0.1-0.1c0,0.1,0.1-0.1,0.1-0.1L-90.1,248.1 M-94.5,247.9
							v0.2h-0.2V248l-0.1,0.2h-0.1c0,0.1,0.2,0.3,0.3,0.2c0.1,0.2,0.5-0.1,0.3-0.1v-0.1h-0.1c0.1,0,0-0.1,0-0.1L-94.5,247.9
							 M-90.9,247.9L-90.9,247.9l0.1,0.2c0,0,0.2,0,0-0.1L-90.9,247.9 M-92.4,248.1L-92.4,248.1L-92.4,248.1h-0.2v0.1h-0.1v0.1h0.2
							L-92.4,248.1C-92.4,248-92.5,247.9-92.4,248.1 M-91,248C-90.8,248-91,248-91,248 M-93.7,247.9L-93.7,247.9L-93.7,247.9
							 M-95.9,248c0.1,0.1,0.1,0,0.1-0.1L-95.9,248 M-90.9,247.9C-91,247.9-90.9,247.9-90.9,247.9 M-88.2,247.8L-88.2,247.8
							L-88.2,247.8C-88.2,247.9-88.1,247.7-88.2,247.8 M-91,247.6c0.1,0.1,0.2,0.3,0.3,0.1h-0.1L-91,247.6 M-92.6,247.6l0.1,0.1
							v-0.2L-92.6,247.6 M-92.8,247.6L-92.8,247.6L-92.8,247.6 M-91.5,247.6l0.2,0.1v0.1h-0.1c-0.3-0.6,0,0,0,0.1h-0.1l0.1,0.1v-0.1
							l0.1-0.1v0.2l0.1-0.1l0.2,0.1h-0.1c0.1-0.2-0.2-0.2-0.2-0.2c0-0.2,0.1-0.4-0.1-0.4v-0.1l-0.2-0.1
							C-91.5,247.4-91.5,247.5-91.5,247.6 M-91.7,247.3l0.1-0.1L-91.7,247.3 M-91.6,247.2C-91.6,247.3-91.5,247.3-91.6,247.2
							 M-91.7,247.2L-91.7,247.2L-91.7,247.2 M-94,247.1L-94,247.1L-94,247.1 M-91.7,247.1C-91.6,247-91.6,247-91.7,247.1
							L-91.7,247.1C-91.7,247-91.8,247.1-91.7,247.1 M-92.9,247.1v0.3l0.1-0.1v0.1l0.2-0.1l0.2-0.1c0-0.2-0.1-0.2-0.1-0.2h-0.1
							c-0.1,0,0,0,0-0.1C-92.8,246.8-92.9,247-92.9,247.1 M-88.6,246.8L-88.6,246.8L-88.6,246.8L-88.6,246.8 M-95.4,246.7
							C-95.5,246.8-95.4,246.9-95.4,246.7 M-95.4,246.6v0.2C-95.3,246.8-95.2,246.6-95.4,246.6 M-93.8,246.7L-93.8,246.7
							L-93.8,246.7 M-92.4,246.7L-92.4,246.7L-92.4,246.7v0.2c0,0.1,0.1,0.1,0.2,0.1h0.1v-0.3l-0.1-0.1
							C-92.3,246.6-92.4,246.7-92.4,246.7 M-92.5,246.5C-92.5,246.5-92.5,246.7-92.5,246.5 M-95.7,246.7L-95.7,246.7
							c0.1,0,0.1,0.1,0.1,0.2L-95.7,246.7c-0.1-0.1,0-0.1,0-0.2h-0.1C-95.7,246.5-95.7,246.6-95.7,246.7 M-92.3,246.5L-92.3,246.5
							L-92.3,246.5 M-95.2,246.4l0.1,0.1h0.1C-95.1,246.3-95.1,246.4-95.2,246.4 M-97.9,246.4C-97.9,246.4-97.9,246.6-97.9,246.4
							L-97.9,246.4L-97.9,246.4 M-97.8,246.5l0.1-0.2L-97.8,246.5 M-93.3,246.3L-93.3,246.3L-93.3,246.3l0.1,0.2l0.1-0.1
							c0,0,0.1,0.3,0.2,0.1c-0.1-0.1-0.1-0.2-0.2-0.1v-0.1L-93.3,246.3 M-95.5,246.1v0.3c0.1,0.1,0,0.2,0.1,0v0.1
							C-95.2,246.5-95.5,246.2-95.5,246.1l0.1,0.2l0.1-0.1l-0.1,0.1c0-0.1,0.1-0.1,0.1-0.1C-95.5,246.1-95.5,246.3-95.5,246.1
							 M-90.9,246.1L-90.9,246.1v-0.2V246.1 M-89.7,246L-89.7,246L-89.7,246 M-88.7,246v-0.2V246 M-95.4,245.9c0.1,0-0.1,0.2,0,0.2
							V245.9l0.1,0.2C-95.3,245.9-95.4,245.9-95.4,245.9 M-98.1,245.6l0.1-0.1C-98.1,245.5-98.1,245.5-98.1,245.6 M-89.8,245.6
							L-89.8,245.6L-89.8,245.6L-89.8,245.6L-89.8,245.6L-89.8,245.6l0.1,0.2h-0.2c0.1,0.1,0.2,0.2,0.3,0.2l0.1,0.1h0.2l0.1-0.1
							v-0.2h-0.5L-89.8,245.6C-89.9,245.7-89.7,245.6-89.8,245.6C-89.6,245.4-89.8,245.4-89.8,245.6 M-94.5,245.6L-94.5,245.6
							L-94.5,245.6 M-94.7,245.4L-94.7,245.4l-0.3,0.1l0.1-0.1l-0.1,0.2h-0.1c0.1,0,0-0.1,0.1-0.1c0-0.1-0.1-0.1-0.1-0.1v0.3
							l-0.2,0.1v0.1h-0.1c0,0.2,0.1,0.2,0.2,0.2h0.1V246h0.2v0.2c0.1,0.2,0,0.2-0.1,0.2v0.1l0.1,0.1l-0.2,0.2h0.2
							c0.1,0.1,0.1,0.1,0.3,0c0.1,0,0.4-0.3,0.4-0.1l0.1-0.1l0.2,0.1v-0.3c0.2,0.3,0.2-0.4,0.2-0.4c0-0.1-0.2-0.1-0.2-0.1h-0.2
							c0.1-0.1,0-0.1,0-0.2c0,0-0.3,0.1-0.2,0h0.1l-0.1-0.1c-0.1-0.1-0.1-0.1-0.2-0.3h0.1v-0.1L-94.7,245.4 M-94,245.2v0.2h0.1
							L-94,245.2 M-90.1,245.9C-90.4,245.8-90.1,245.8-90.1,245.9L-90.1,245.9 M-90.2,245.3h-0.3v0.2h-0.1v-0.1l-0.1-0.2h-0.1
							c0.1,0.1,0,0.2,0,0.3h0.1c0,0.1,0.1,0,0.2,0h-0.1c0,0.1,0.1,0,0.1,0.1h-0.1l0.1,0.1h-0.1l-0.1-0.1v-0.1l-0.1,0.1l0.2,0.2v-0.1
							v0.1h0.2c0,0.2,0.1,0,0.2,0c0,0.1,0.1,0.2,0,0.3h0.3c0.1,0.2,0.3,0,0.3,0v0.1v-0.1c-0.1,0.1-0.2-0.1-0.3-0.2l-0.1-0.1v-0.2
							l-0.1,0.1v-0.1l0.1,0.1v-0.2v0.1h-0.1v-0.2L-90.2,245.3L-90.2,245.3c0.1,0,0.2-0.1,0.1-0.2L-90.2,245.3 M-95,245.3L-95,245.3
							L-95,245.3 M-95,245.2l0.1,0.2L-95,245.2h0.2v0.1l0.1-0.1H-95 M-91,245.1c-0.1-0.1-0.1,0-0.1-0.1h-0.1l-0.2,0.2v0.1l0.1,0.1
							v-0.1v0.1l0.1-0.1l-0.1,0.1c0.1,0,0.1-0.1,0.1-0.2v-0.1C-90.9,245.3-90.9,245.2-91,245.1v-0.2C-91,245-90.9,245.1-91,245.1
							 M-94.5,245l0.1,0.1h0.1V245l0.1,0.1v0.1h-0.1v0.1c0.1-0.2,0.3-0.1,0.3,0.1v-0.2c0,0.1,0,0,0,0v-0.1h-0.2V245
							c0,0.1,0.1,0,0.1,0L-94.5,245 M-95.1,245L-95.1,245L-95.1,245 M-88.4,245c-0.2,0.1,0.2,0.2,0.3,0.2L-88.4,245h0.2H-88.4
							c0.1,0.1-0.1-0.2,0-0.2h-0.2C-88.6,245-88.5,245-88.4,245 M-95.7,244.8C-95.7,245-95.6,244.8-95.7,244.8 M-95.5,244.9
							L-95.5,244.9L-95.5,244.9c-0.2,0-0.3,0.1-0.3,0h-0.1v0.2l-0.1,0.1c-0.1,0.3,0.2,0.1,0.4,0.2v-0.1l0.1-0.2V244.9L-95.5,244.9
							L-95.5,244.9L-95.5,244.9c0.1,0,0.2,0.1,0.2-0.1h-0.1c0,0-0.1,0-0.1-0.1V244.9 M-91.2,244.8L-91.2,244.8L-91.2,244.8
							 M-90.7,244.7c0,0.3,0.3,0.1,0.3,0.1h-0.1L-90.7,244.7 M-89.9,244.7l-0.2,0.2v0.2h-0.1c0.1,0,0,0,0,0l0.2,0.4
							c0-0.1,0-0.3,0.1-0.2v0.1c0.1,0,0.2-0.1,0.2-0.2v0.1l0.1-0.1v-0.5h-0.1c0,0.1,0.1,0.2,0.1,0.3c0,0-0.1-0.3-0.2-0.2
							L-89.9,244.7L-89.9,244.7L-89.9,244.7L-89.9,244.7C-89.9,244.7-89.8,244.7-89.9,244.7C-89.8,244.6-89.9,244.7-89.9,244.7
							 M-90.1,244.6c0,0,0.1,0.1,0.1-0.1L-90.1,244.6 M-93.3,244.4c-0.1,0.2-0.1,0.2,0,0.2c0,0-0.1,0.1,0,0.2
							C-93.3,244.6-93.2,244.5-93.3,244.4 M-94.1,244.4l-0.1,0.1L-94.1,244.4c-0.2,0-0.1,0.2-0.1,0.1l-0.1,0.1h0.4v0.1v-0.2
							C-93.8,244.5-94,244.5-94.1,244.4C-93.9,244.4-94.1,244.4-94.1,244.4 M-87.8,244.4C-87.8,244.6-87.7,244.4-87.8,244.4
							L-87.8,244.4L-87.8,244.4 M-94.2,244.1L-94.2,244.1L-94.2,244.1 M-93.8,244L-93.8,244L-93.8,244
							C-93.9,244.2-93.7,244.2-93.8,244l0.1,0.2c0.1,0,0.1,0,0.1-0.1L-93.8,244L-93.8,244L-93.8,244L-93.8,244L-93.8,244L-93.8,244
							L-93.8,244L-93.8,244L-93.8,244 M-92.2,244c0.1-0.1-0.2-0.1-0.2,0l-0.1-0.1v0.1l-0.1-0.1v0.1c0,0,0.2,0.3,0.3,0.2
							c0-0.2,0.3-0.1,0.3-0.1l0.1,0.1l0.1,0.1v0.1l-0.2-0.1l-0.1,0.1l0.2,0.2c0,0.1,0.1,0.1,0,0.1v0.1H-92c0,0.1,0.1,0.1,0.1-0.1
							c0.1,0,0.1-0.3,0.2-0.4v0.1c0,0.1,0,0.1-0.1,0.2l0.1-0.1h0.1v-0.1h-0.1c0.1,0-0.3-0.4-0.2-0.5L-92,244v-0.2L-92.2,244
							 M-94,243.9L-94,243.9l0.1,0.2h0.1h-0.1C-93.8,244-94,243.8-94,243.9 M-92.8,244.1H-93v-0.2c0,0,0-0.1-0.1,0l-0.2,0.2v0.1
							v-0.1c0,0.1,0.1,0.2,0.2,0c0,0.1,0,0.2,0.1,0.1c-0.1,0.1,0.1,0.2,0.1,0.2v0.1v-0.1l0.2,0.1C-92.7,244.4-92.8,244.1-92.8,244.1
							L-92.8,244.1L-92.8,244.1c0.1,0,0-0.1,0.1-0.2l-0.1-0.1V244.1 M-94.6,243.7L-94.6,243.7c-0.1,0.1,0,0.1,0.1,0.2v0.1
							c0.1-0.1,0.1-0.1,0.1-0.2S-94.5,243.7-94.6,243.7L-94.6,243.7 M-93.9,243.5L-93.9,243.5L-93.9,243.5 M-94.7,243.3L-94.7,243.3
							L-94.7,243.3 M-92.6,243.3L-92.6,243.3L-92.6,243.3C-92.7,243.3-92.5,243.3-92.6,243.3L-92.6,243.3 M-92.8,243.2L-92.8,243.2
							l-0.2,0.1v0.2c0.1,0,0.2,0.2,0.2,0V243.2l0.1,0.2L-92.8,243.2L-92.8,243.2 M-91.5,242.5h0.2
							C-91.3,242.4-91.4,242.5-91.5,242.5L-91.5,242.5L-91.5,242.5L-91.5,242.5 M-93.8,242.5L-93.8,242.5c0.2,0,0.2-0.2,0.2-0.2
							h-0.1C-93.8,242.3-93.8,242.4-93.8,242.5 M-91.7,242.4v0.2V242.4L-91.7,242.4L-91.7,242.4C-91.7,242.4-91.6,242.3-91.7,242.4
							L-91.7,242.4 M-93.9,242.2C-93.8,242.2-93.8,242.3-93.9,242.2 M-92.6,242.1C-92.7,242.2-92.6,242.1-92.6,242.1 M-93.8,242.2
							L-93.8,242.2L-93.8,242.2C-93.8,242-93.9,242.2-93.8,242.2 M-93,242L-93,242L-93,242L-93,242c0,0-0.1,0.2-0.2,0.3h0.1h-0.1
							h0.1v-0.1v0.1h0.1h-0.1h0.1v-0.1l0.2-0.1V242L-93,242 M-92.5,241.9C-92.5,241.8-92.6,241.9-92.5,241.9L-92.5,241.9
							c0.1,0.1,0,0.3,0.1,0.2c0,0.1,0.1,0.2,0.1,0.1c0.1,0,0.1,0,0.2-0.1v0.1h0.1l0.1-0.1h-0.2c0,0,0-0.1-0.1-0.2l0.1,0.1h-0.2v-0.1
							v0.1L-92.5,241.9C-92.5,242-92.5,242-92.5,241.9 M-90.9,241.8C-90.9,241.9-90.9,241.8-90.9,241.8 M-92.6,241.8L-92.6,241.8
							L-92.6,241.8 M-94.7,241.6l-0.1,0.2L-94.7,241.6v0.2V241.6 M-90.8,241.6C-90.5,241.7-90.7,241.6-90.8,241.6L-90.8,241.6
							L-90.8,241.6 M-93.4,241.5l-0.1,0.1L-93.4,241.5L-93.4,241.5l-0.2,0.2l0.1-0.1L-93.4,241.5L-93.4,241.5h0.2
							C-93.2,241.5-93.4,241.6-93.4,241.5 M-93.3,241.4L-93.3,241.4l0.1,0.2l0.1-0.1c-0.1,0,0,0-0.1,0.1
							C-93.2,241.4-93.1,241.4-93.3,241.4 M-91.2,241.4L-91.2,241.4L-91.2,241.4 M-93.1,241.3L-93.1,241.3L-93.1,241.3 M-92.8,241.3
							c0,0.1,0.1,0,0.2,0H-92.8 M-93.7,239.8c-0.3,0.2-0.1,0.3-0.1,0.2L-93.7,239.8L-93.7,239.8L-93.7,239.8L-93.7,239.8 M-91,239.8
							v0.2c0.1-0.1,0.1-0.2,0.1-0.3L-91,239.8 M-94.4,239.6L-94.4,239.6c-0.1,0.2,0,0.2,0,0.2V239.6 M-94,239.6L-94,239.6L-94,239.6
							 M-94.7,239.5L-94.7,239.5L-94.7,239.5 M-93.8,239.3v0.2c0,0.1,0.1,0,0.1,0L-93.8,239.3L-93.8,239.3c0,0.1,0.2,0,0.2,0
							C-93.7,239.3-93.7,239.2-93.8,239.3 M-95.2,239.5L-95.2,239.5L-95.2,239.5 M-94.5,239.3C-94.4,239.4-94.5,239.4-94.5,239.3
							v0.2h0.1l-0.1,0.1c0.3-0.1,0-0.1,0.1-0.2l-0.1,0.1V239.3 M-95.8,239.2C-95.7,239.2-95.8,239.2-95.8,239.2 M-92.6,239.1
							c-0.1,0.1,0,0.1-0.1,0.1c0,0,0.1,0.2,0.1,0.1l-0.1-0.1L-92.6,239.1 M-93.8,239v0.2C-93.9,239.1-93.8,239.1-93.8,239l-0.1,0.2
							L-93.8,239L-93.8,239 M-95.6,239L-95.6,239l-0.1,0.2c0,0-0.1,0.1,0,0.1v0.1v-0.1l0.1,0.2c0.1-0.2,0,0.2,0.1,0.2l0.1-0.1v0.1
							v-0.1h-0.1l0.1-0.1v-0.1v0.1l-0.1-0.1c-0.1-0.1,0.1-0.1,0.1-0.2L-95.6,239 M-94.7,238.9C-94.6,238.9-94.7,239-94.7,238.9
							 M-95.8,238.6C-96,238.6-95.7,238.7-95.8,238.6 M-92.8,238.6C-92.8,238.7-92.7,238.8-92.8,238.6
							C-92.8,238.6-92.8,238.7-92.8,238.6 M-94.7,238.3l0.1,0.2l0.1-0.1c0.1,0.1,0.2,0,0.2,0.2h-0.1v0.1h-0.1c0.1,0.1,0.1,0.2,0,0.2
							v0.1l0.3-0.1l-0.2-0.1c0.1,0,0.1-0.2,0-0.3l-0.1-0.1v-0.1v0.1v-0.1L-94.7,238.3 M-94.5,238.2
							C-94.5,238.1-94.7,238.2-94.5,238.2 M-94.7,238L-94.7,238L-94.7,238 M-94.3,237.8C-94.3,238-94.2,237.8-94.3,237.8
							 M-89.3,256.2L-89.3,256.2L-89.3,256.2 M-87.2,253.2C-87.2,253.1-87.2,253.1-87.2,253.2 M-93.8,235.9v-3.5
							c0-0.4-0.3-0.7-0.7-0.7h-8.2c-0.4,0-0.7,0.3-0.7,0.7v18.4c0,0.5-0.4,0.6-0.6,0.2l-7.2-17.4l-0.3-0.7c-0.5-1.1-0.5-1.2-1.9-1.2
							h-8.9c-0.4,0-0.7,0.3-0.7,0.7v36.4c0,0.4,0.3,0.7,0.7,0.7h7.8c0.4,0,0.7-0.3,0.7-0.7v-18.4c0-0.5,0.4-0.6,0.6-0.2l7.2,17.4
							l0.3,0.7c0.2,0.7,0.9,1.2,1.6,1.2h5.5c2.3,0,4.2-1.9,4.2-4.2v-9.5c-0.1,0-0.3-0.1-0.3-0.1l-0.1-0.1l0.1,0.2h-0.2v-0.1v0.1
							l0.1-0.1H-95c0,0.2,0,0.3,0.1,0.2h0.1l0.1,0.1h-0.1l0.1,0.1c0,0-0.2,0-0.2-0.1v0.2v-0.1l-0.1,0.1l-0.1,0.1
							c-0.1,0.2,0,0.2,0,0.2h-0.3c-0.2,0-0.3,0.1-0.5,0.1l0.1-0.1l-0.1,0.1l-0.2-0.1h0.1c-0.1-0.1,0-0.3-0.2-0.3v0.2l-0.1-0.2
							l-0.1,0.1l-0.2,0.5v-0.1l0.1,0.1h-0.1l0.1,0.1l-0.1,0.4v-0.1c-0.2,0-0.2,0-0.2,0.2h-0.1v-0.1l-0.1,0.2h-0.1
							c0-0.1,0.1-0.3,0.1-0.4h-0.1l-0.2,0.2v-0.1l-0.1,0.3l-0.2,0.1v-0.1h-0.1c0,0.3,0.2,0.2,0,0.2l-0.1,0.1
							c-0.1,0.1-0.1,0.3-0.2,0.1s0-0.3,0-0.3c0.1,0,0.1-0.3,0.2-0.4l-0.1,0.1v0.1v-0.1H-98c0,0-0.1-0.2-0.2-0.2
							c0-0.2-0.2-0.2-0.2-0.3l0.1-0.1l-0.1-0.2c0,0,0.1-0.1,0.2,0.1v-0.1c0.1-0.1,0.1-0.5,0.3-0.4c-0.2-0.2,0-0.4,0.1-0.5
							c0-0.1,0-0.5,0.2-0.3v-0.1h0.1v-0.1h0.1l-0.1-0.1l0.1-0.1h0.1h-0.3v-0.1v0.1v-0.2l0.3,0.1c0.1-0.1,0-0.2,0-0.2
							c0-0.1,0-0.2,0.1-0.3v0.1v-0.2v0.1l-0.1,0.1l-0.2,0.2v-0.1l-0.1,0.2h-0.1L-98,255v-0.1c-0.1,0.1-0.2,0.5-0.2,0.3l0.1,0.1
							c-0.1,0-0.2,0.1-0.1,0.2c-0.1-0.1,0,0.3-0.2,0.3c-0.1,0-0.1,0.2-0.2,0.3l-0.1-0.3h-0.1v0.1h-0.1c0,0.2-0.1,0.1-0.1,0.1h0.2
							v0.1l0.1-0.1v0.1h-0.1v0.1v-0.1v0.1H-99V256h-0.1c0.1,0.1-0.1,0-0.1-0.1l-0.1-0.1l0.1-0.1h0.1v-0.2l0.1-0.2h0.1l0.1-0.1
							l-0.2,0.5l0.1-0.1l-0.1-0.3l-0.2,0.2c-0.2,0.2-0.4,0.3-0.3,0h0.1c0-0.1-0.2-0.4-0.1-0.4c-0.4-0.3,0-0.3,0.1-0.3
							c0,0,0.1-0.3,0.2-0.1c0.1-0.2,0.3-0.1,0.4,0h-0.1l0.1,0.2v-0.1l0.2-0.1h-0.1c0-0.1,0.1-0.1,0.1,0h0.1h-0.1
							c0,0,0.4-0.2,0.4-0.3l-0.1,0.1c0-0.1,0.1-0.1,0.1-0.1v-0.1h0.1v0.1c0.2-0.2,0.4,0,0.4-0.3h0.1v0.2l0.1-0.2
							c0.1,0.1,0.2-0.1,0.2-0.2c-0.2,0.1-0.5-0.1-0.6-0.1v-0.1h-0.2c0.1,0.1,0,0.1,0,0.2l0.1,0.1h-0.1l-0.2,0.1V254h-0.1
							c0-0.1,0,0,0,0v-0.1c0,0-0.1,0,0,0.1h-0.1l0.2,0.1c0.1,0.1,0,0.3-0.1,0.1v-0.1l-0.1,0.1l0.1,0.2h-0.1l0.1-0.1l-0.1,0.1v0.2
							h-0.2c-0.1,0,0-0.3,0.1-0.3c0,0-0.1-0.3-0.1-0.1h0.1h-0.1v0.2v-0.1c0,0-0.2,0.1-0.1,0.1h-0.1v-0.2v0.1h-0.2
							c0,0.1-0.1,0-0.1,0.1v0.1l0.1,0.1c-0.1,0.1-0.1,0.2-0.2,0.3h-0.2l0.1-0.1h-0.4v-0.1v0.2v-0.1h0.1c0,0.1-0.2,0.2-0.2,0.2
							c0.1,0,0.1,0.1,0,0.2h-0.2v-0.3l0.1,0.1l-0.1-0.2h-0.1c0,0,0-0.2-0.1-0.1c0-0.1,0.1-0.1,0.1-0.1h0.1l-0.1-0.1h0.1
							c-0.1,0.1,0.1,0,0.1,0h-0.1c0.1-0.1,0-0.1,0-0.2c0,0.1,0.1,0.1,0.2,0.1v0.1v-0.1c0.1,0,0.2,0,0.2-0.1h0.1l-0.1-0.1l0.1-0.1
							h0.1h-0.1v-0.2v0.1c0,0.1-0.1,0.1-0.1,0.1h-0.1l0.1-0.1l-0.1,0.1h0.1v0.1c-0.1-0.1-0.2,0-0.2,0.1h-0.1c0-0.1-0.2-0.2,0-0.2
							c0-0.1-0.3-0.3-0.2-0.4c0-0.1-0.1-0.4-0.2-0.6h0.1c0-0.1,0.4-0.6,0.4-0.8h0.1c0,0,0-0.4,0.2-0.2h-0.1h0.1v-0.3l-0.1,0.1
							c0-0.1-0.2-0.2-0.2-0.4c0.2,0,0.3,0,0.4-0.1c0-0.2-0.1-0.1-0.1-0.2h0.1v-0.1c0.2,0.1,0.1,0,0.3,0.2c0.1,0.1,0.1,0,0.1-0.1h0.1
							v-0.4c0.2-0.1,0.2-0.3,0.2-0.5c-0.1-0.2,0.1-0.2,0.1-0.3c0,0,0.2,0.1,0.1-0.1v-0.1c-0.2,0.2,0.1-0.1,0-0.2h0.1
							c0,0,0.1,0.2,0.2,0.1c-0.1-0.1,0-0.1,0-0.2h0.1c-0.1,0.1,0.3,0.3,0.4,0.3v0.1H-98l0.1,0.1c0-0.1,0-0.1,0.1-0.1v-0.1h-0.1v-0.2
							l0.1,0.1h0.1v-0.1h0.1v0.1c0,0,0.1,0,0.1-0.1h-0.1c0.1,0,0.2,0.1,0.1-0.1h0.1c-0.1-0.1,0.1-0.1,0.2-0.1c0-0.1-0.2-0.2-0.2-0.1
							l0.1-0.1c0-0.1-0.1,0.1-0.1,0.1v-0.1h-0.1v0.2v-0.1v0.1h-0.2l-0.1,0.2c0,0.1-0.1-0.2-0.1-0.4c-0.1-0.2-0.1-0.5,0-0.3
							c0-0.1,0-0.2-0.1-0.2s-0.1,0-0.1-0.2h0.3h-0.1l0.3-0.3h0.1c0-0.2,0.3-0.1,0.3,0c0.1-0.1,0.5-0.1,0.6-0.1
							c0-0.1,0.1-0.3,0.1-0.2h0.1v-0.3l0.3-0.2h-0.1h0.3l0.1-0.1h0.1v-0.1c0-0.1-0.2-0.1-0.3-0.1h0.1c0-0.2-0.3-0.3-0.2-0.2v-0.1
							v0.2c-0.1-0.1,0,0-0.1,0.1c-0.1,0-0.2-0.3-0.2-0.4c0.1,0,0.2-0.2,0.1-0.2v-0.1c0,0,0.3-0.4,0.4-0.6l0.1-0.1l0.1-0.1
							c-0.1-0.1,0,0-0.1-0.2h-0.1l0.1-0.1h-0.1c-0.1,0-0.2-0.1-0.3,0.1l0.1,0.1h-0.2v-0.1l-0.1,0.1v0.2c0-0.1-0.2,0-0.2,0.1
							s-0.3,0.1-0.3,0h0.2c-0.1,0,0.1-0.3,0-0.3v-0.1l-0.2,0.1c0.2,0,0,0.2-0.1,0.3h-0.2v0.2h-0.2c0,0,0-0.2-0.1-0.1v0.1
							c0-0.2-0.4,0.2-0.2,0.2c0.1,0.1-0.2,0.1-0.2,0.1v0.1l0.1-0.1v0.1v-0.1v0.1h-0.1l-0.1,0.1v0.2h-0.2c0.1,0,0.1-0.2,0.1-0.2h-0.1
							c0,0.3-0.2,0.2-0.2,0.1l-0.1,0.1h0.1l-0.1-0.1v0.2c0-0.1,0-0.2,0.1-0.2l-0.3,0.1l0.1,0.1h-0.2l-0.2-0.2l-0.1,0.1
							c-0.1-0.1,0.1-0.5,0.1-0.7v0.1c0-0.2,0-0.4,0.1-0.4l0.1-0.2c0.2,0,0.2,0.1,0.3,0.2c-0.1-0.1,0,0,0,0h0.2c0,0,0-0.1-0.1-0.1
							h-0.2l-0.1-0.1l0.1-0.1v-0.5c-0.1,0,0,0.1,0,0.1c-0.2-0.3-0.1-0.3,0-0.5h0.3v-0.4l0.1-0.1c0.1,0,0.1,0.1,0.1,0.2l0.2-0.1
							c0.1-0.1,0.2-0.1,0.2,0.1l0.1-0.2v0.1c0,0,0.1-0.2,0-0.2v0.1c0-0.2-0.2-0.3-0.1-0.5l0.2-0.3c0.1-0.1,0.2-0.1,0.4-0.3h-0.1h0.3
							l0.1-0.1c0,0.1,0.1,0.2,0.1,0.2v-0.1c0.1,0.1,0.1,0,0.1,0c0-0.1,0.4-0.2,0.4-0.2v-0.4v0.1l0.1-0.1l0.2-0.1
							c0-0.1,0.2-0.1,0.2-0.3l0.1,0.1l-0.1-0.2h0.1v0.1h0.1c0,0,0-0.1,0,0v0.1l0.1,0.1V242c0-0.1-0.1-0.2,0-0.3c0,0-0.5,0.2-0.6,0.2
							l-0.1-0.1c0,0-0.5,0.3-0.6,0.1h0.1l-0.3-0.1v0.1v-0.5c0.1-0.1,0.3,0,0.3-0.2c0,0,0.3,0,0.3,0.2c0.3-0.5,0.3-0.4,0.3-0.6
							c0,0,0.2-0.1-0.1,0l-0.1,0.1v-0.3l0.1,0.1l0.1-0.2v0.1v-0.1v0.1v-0.3l0.1,0.2l0.1-0.4h0.3l-0.1,0.1h0.2l-0.1-0.1l-0.1-0.1
							c0.1,0,0,0,0-0.1s-0.1-0.1-0.1-0.1s-0.3-0.1-0.3-0.3c0.1,0.2,0.1-0.2,0.1-0.2c0,0.1-0.1,0.1-0.2,0h-0.1c0-0.1,0-0.2,0.1-0.3
							h-0.1c0-0.1,0-0.2-0.1-0.3c0.2,0,0-0.3-0.1-0.3c-0.1-0.3,0.2-0.2,0.3-0.4h-0.1c0-0.2,0.3-0.4,0.5-0.4l0.2,0.2h0.1
							c-0.2,0-0.2-0.4-0.1-0.5c0.2,0,0.5-0.3,0.7-0.3l0.1,0.1c0.1,0.1,0.2,0.2,0.2,0.1v0.1c0-0.1,0.4-0.1,0.3,0.2c0,0,0.1,0,0.1,0.1
							l0.1-0.1c0.1,0,0.5,0,0.5,0.1l0.1-0.2c0-0.1,0.1-0.2,0.1-0.2v0.1h0.1v-0.1v0.1h0.3c0.1,0,0.3,0,0.3-0.1c0,0.3,0.2,0.2,0.2,0.4
							v-0.1v0.1v-0.1l0.1,0.1c0,0-0.1,0.1,0,0.2c-0.1,0.1,0,0.2,0,0.3V238l-0.1,0.2c-0.1-0.1-0.2,0-0.3,0c0,0.2,0.2,0.3-0.1,0.4h0.1
							h-0.1c0,0,0.6,0.5,0.2,0.5c0,0,0.3,0.2,0.3,0l0.3-0.3v0.1c0.1,0,0.1-0.3,0.1-0.3h0.1c0.1-0.1,0.2-0.1,0.2,0.1
							c0.1-0.1,0.1-0.1,0-0.2v-0.2l0.2-0.1v0.3c0,0-0.1,0.2,0,0.3c0,0,0.4-0.2,0.2-0.3h0.3c0.1,0.1,0.2,0.2,0.1,0.4
							c0,0-0.1,0.2-0.2,0.3h0.1c0,0-0.1,0,0,0.2l0.1-0.1v0.2c0,0.2,0.2,0,0.2,0.3c0-0.1,0.1,0.3,0.1,0.4l0.1-0.1
							c0.1,0.2,0,0.3-0.1,0.4c0.1,0.1,0.1,0.1,0.1,0.3v0.1l0.2,0.1c0.1,0,0,0.1,0.1,0.2c0,0.2-0.1,0.2-0.1,0.2l-0.3,0.6l-0.3-0.2
							v0.1h0.1v0.3c0,0.1,0.2,0,0.2-0.2l0.1,0.1c0-0.2,0.1-0.1,0.2-0.2c0.1,0.1,0.3,0,0.2,0c0.1-0.2,0.2-0.1,0.4-0.1v0.1l0.1-0.1
							h0.1c0,0.2,0.1,0.2,0.2,0c0.2,0,0,0.5,0.1,0.6c0,0.1,0,0,0,0v0.2h0.2l-0.1,0.2l-0.2,0.2l0.1,0.2c-0.1,0,0,0.1-0.1,0.2
							c-0.2-0.5-0.2-0.3-0.1-0.2v0.1c0-0.1,0.1-0.1-0.1-0.1l-0.1,0.1c-0.2,0,0,0.2,0,0.3c0.1-0.2,0.2-0.1,0.3-0.1h0.2
							c0,0.1,0.1,0,0.2,0h0.1v0.1c0.1-0.1,0.3,0,0.3-0.4c0.1,0,0.1,0,0.2-0.1v0.1h0.1v0.1h0.1v0.2c0,0,0,0.1-0.1,0.2
							c0,0.1-0.1,0.2-0.2,0.2c0.1,0.1,0,0,0,0.1l0.2,0.1c0.1,0.1,0.2,0.2,0.3-0.1l0.3-0.2l0.1,0.2l0.1-0.1v0.1v-0.1h0.1l-0.1,0.4
							l-0.1-0.1l-0.1,0.1h-0.1v0.1l-0.1,0.1h0.1c0,0.2,0.2,0.2,0.3,0.3c0,0.3-0.1,0.3-0.3,0.4h0.1c0-0.2-0.1,0-0.1,0
							c-0.1,0.1-0.2,0.3-0.4,0.3v0.2v-0.1v0.4c0,0-0.1-0.2-0.1,0.1l-0.1-0.3v0.2c0-0.1-0.1-0.1-0.2-0.1c0.1,0.1,0,0.1,0.1,0.3h-0.2
							V246v0.1v-0.2l-0.2,0.2l-0.1-0.2v0.2l0.1,0.1v-0.1l0.1,0.1l0.1-0.1v0.1h0.1c0,0,0.1,0.1,0,0h0.1v0.1l0.2-0.1v0.2
							c0.1-0.1,0.1,0,0.3,0.1l0.1-0.1c0,0.2,0,0.3-0.2,0.3c0.1,0.1-0.2,0.2-0.2,0.2c-0.1,0-0.1-0.1-0.1,0.1h-0.2v0.1h-0.1v0.1v-0.1
							c0,0,0.1,0.1,0.1,0c0.2,0.1-0.3,0.3,0.3,0.1l0.1,0.1l0.1,0.1l-0.1,0.4h0.1H-88v0.3c0.2-0.1,0.1,0.2,0,0.2v0.2
							c0.5,0.1-0.3,0.7-0.2,0.5v-0.3h-0.2c-0.3,0,0-0.1-0.1-0.2h-0.1v0.1h-0.1c0.1,0,0.1,0,0.1,0.1c-0.1,0-0.2,0-0.1,0.1h-0.1h0.1
							h-0.1c-0.1,0,0.1,0.2,0.2,0.1l0.1,0.2v0.1c0.1-0.2,0.1,0,0.2,0.1v-0.1c0,0-0.1,0.3-0.2,0.2l0.1,0.1c-0.1,0-0.2,0.1-0.1,0.1
							c0.1-0.1,0.1,0.1,0.1,0.2H-89v-0.2h-0.1v-0.1l-0.1,0.1h0.1l-0.3,0.2v0.1h-0.1v0.1c0,0,0-0.2-0.1,0h-0.1v0.1h0.1v0.2h-0.1
							l-0.2,0.3h0.1H-90c0,0,0.1-0.1,0.1,0v0.1c0.1,0.1,0.1,0.2,0.2,0.1v0.1c0.1,0,0-0.2,0.1-0.1c0,0,0.1,0.3,0.1,0.1v0.1
							c0,0,0.4,0,0.3,0.2v0.1l0.1-0.1c0.1,0,0.4,0,0.5-0.1c0,0.1,0.1,0.1,0.2,0v0.2l0.1-0.2c0,0.2,0.1-0.1,0.2-0.1h0.1v0.4l0.1-0.1
							v0.2l-0.1,0.1h0.1v0.2l0.2,0.2c0.1-0.1-0.1-0.1,0.1-0.1c0,0.1,0.1,0,0.1-0.1v0.1h0.3c0.1,0-0.1,0.1,0,0v-0.1h0.1v0.1
							c0,0.1,0.2,0,0.1,0.1v-0.1l0.3,0.5v-0.1v0.2c-0.2,0.3-0.1,0.3-0.3,0.3h-0.1h0.1h-0.1c-0.1,0-0.1,0.1-0.3,0
							c-0.1,0-0.2,0.1-0.2,0.2v0.2c0,0-0.2,0.2-0.2,0.1v0.1l-0.1,0.1c0,0,0.2,0.1,0.2,0l0.1-0.1c0.1-0.1,0.1-0.2,0.2,0.1
							c0,0,0.1-0.2,0.1,0c0-0.1,0.1-0.1,0.1,0h0.1v-0.1v0.1v-0.1l0.1,0.1l0.2-0.1v0.1c0.1-0.2,0.4-0.4,0.5-0.4c0,0.2,0.3,0.1,0.2,0
							h0.2v0.5c-0.2,0-0.4,0-0.5,0.2h-0.2v0.2l-0.1,0.1v0.2h0.1v0.2l0.2,0.2v0.1v-0.1h-0.5l-0.3,0.3h-0.1l-0.1,0.1V255h-0.2
							c-0.1,0.1-0.3,0.2-0.4,0.3l-0.1-0.2l-0.1-0.1l-0.1,0.1l-0.1,0.2v0.1l-0.1,0.1c0.1-0.1,0.1,0,0.1,0l-0.1,0.1v-0.1l-0.1-0.1v0.1
							l-0.1,0.1l-0.1-0.1h0.1h-0.1c0-0.1,0,0,0.1-0.1l-0.1-0.1c0,0.3-0.1,0.2,0.1,0.4h-0.2h0.1v0.1c-0.1,0,0,0.1,0,0.2v-0.1
							l-0.1,0.2c0.2,0.1,0.2,0.1,0.1,0.1l-0.2-0.1l-0.4-0.3c0.1-0.2,0-0.1,0-0.2c0-0.1-0.1-0.1,0.1-0.2v-0.1l-0.1,0.1v-0.1
							c-0.1,0-0.3-0.1-0.3-0.2h0.1V255h0.1v-0.1l0.1,0.1l0.1,0.1v0.1c0.1-0.1,0-0.2,0-0.3h-0.1v-0.1v0.1l-0.1,0.1l0.1,0.1h-0.1V255
							c0,0-0.1-0.1-0.1,0v-0.2l0.2-0.1h-0.1l0.1-0.1v-0.2c0.1-0.2-0.2-0.2-0.1-0.2h-0.1V254c0.1,0,0.1-0.1,0-0.1v0.1
							c-0.1-0.2,0-0.1,0-0.4h-0.1l0.1,0.1c-0.1,0-0.5-0.2-0.4-0.4v0.1c0.1-0.1,0-0.1,0-0.1v-0.1l-0.2,0.2l0.1,0.3l-0.1,0.2h-0.1
							c0,0-0.5,0.3-0.4,0.1H-91c0-0.1-0.3-0.1-0.3,0v0.1h0.1l0.1,0.1l-0.1,0.1c0,0,0.1,0.1,0.1,0.2c0.2,0,0.3,0.1,0.6,0.2v-0.1
							l0.1,0.1v0.1h0.3c-0.1,0.1,0.2,0.1,0.2,0.1l-0.1,0.2c0.1-0.1,0.3,0.2,0.1,0.2c0-0.1-0.1-0.2-0.2-0.2v-0.2l-0.1,0.1
							c0-0.1,0,0-0.1,0.1V255l-0.2-0.1h-0.2h0.1h-0.1c0-0.1-0.1-0.1-0.2-0.1h0.1v0.1c0-0.1,0-0.2-0.2-0.2h-0.1v0.1h-0.1v0.1
							l-0.2,0.2c-0.1-0.2-0.3-0.2-0.4-0.1v-0.1l-0.2-0.1h-0.1v-0.1v0.1v-0.1l-0.3-0.1h-0.2h0.1l-0.2-0.1v0.2l-0.1,0.1v-0.1H-93v0.1
							h-0.1v0.2h0.1v0.1h-0.1c0,0.1,0,0.1,0.1,0.1l0.1,0.1H-93h0.1c0.1,0.1-0.1,0.2,0.1,0.3l-0.2,0.2l-0.1-0.1h-0.1v-0.1l-0.1,0.1
							l-0.1,0.1v9.8c0,2.3,1.9,4.2,4.2,4.2h8.5c8.8,0,11.9-4.1,13-8c0.4-1.6,0.6-3.2,0.6-4.3v0.2v-2.4c0-0.4-0.3-0.7-0.7-0.7h-7.8
							c-0.4,0-0.7,0.3-0.7,0.7v0.3c0,3.6-0.5,5.2-4.3,5.2c-4,0-4.3-2.5-4.3-6.5v-7.6c0-4,0.3-6.5,4.2-6.5h0.1c3.9,0,4.3,1.6,4.3,5.4
							v0.4c0.1,0.3,0.4,0.6,0.7,0.6h7.8c0.3,0,0.6-0.2,0.7-0.5V244c0-1-0.1-3.1-0.5-4.7c-1-3.8-3.9-7.9-12.3-8.1h-2.4
							C-89,230.8-92.1,233.1-93.8,235.9"/>
					</defs>
					<clipPath id="SVGID_2_">
						<use xlink:href="#SVGID_1_"  style="overflow:visible;"/>
					</clipPath>
					<path class="st1" d="M-123,230.8h55.9v38.8H-123V230.8z"/>
				</g>
			</g>
		</g>
	</g>
	<g>
		<path class="st0" d="M-67.1,269.2l0.3-0.3c0.3,0.2,0.5,0.3,0.8,0.3s0.5-0.1,0.5-0.3l0,0c0-0.2-0.1-0.3-0.6-0.4
			c-0.6-0.1-0.9-0.3-0.9-0.8l0,0c0-0.5,0.4-0.8,0.9-0.8c0.4,0,0.7,0.1,1,0.3l-0.3,0.4c-0.2-0.2-0.5-0.3-0.7-0.3
			c-0.3,0-0.4,0.1-0.4,0.3l0,0c0,0.2,0.1,0.3,0.6,0.4c0.6,0.1,0.9,0.3,0.9,0.8l0,0c0,0.5-0.4,0.8-1,0.8
			C-66.4,269.6-66.8,269.5-67.1,269.2z"/>
		<path class="st0" d="M-64.5,266.9h0.5l0.8,1.3l0.8-1.3h0.5v2.7h-0.5v-2l-0.8,1.3l0,0l-0.8-1.2v1.9h-0.5V266.9z"/>
	</g>
</g>
</svg>
