<?xml version="1.0" encoding="utf-8"?>
<!-- Generator: Adobe Illustrator 19.0.0, SVG Export Plug-In . SVG Version: 6.00 Build 0)  -->
<!DOCTYPE svg PUBLIC "-//W3C//DTD SVG 1.1//EN" "http://www.w3.org/Graphics/SVG/1.1/DTD/svg11.dtd">
<svg version="1.1" id="Layer_1" xmlns="http://www.w3.org/2000/svg" xmlns:xlink="http://www.w3.org/1999/xlink" x="0px" y="0px"
	 viewBox="-184 231.2 130.7 38.8" style="enable-background:new -184 231.2 130.7 38.8;" xml:space="preserve">
<style type="text/css">
	.st0{fill:#FFFFFF;}
	.st1{clip-path:url(#SVGID_2_);fill:#FFFFFF;}
</style>
<path class="st0" d="M-112.1,245.8c1.1,0,2.3,0.5,1.9,2.8c-0.3,1.5-1.4,2.5-2.6,2.5c-0.5,0-1-0.1-1.3-0.2c0.5-2,1-4.4,1.2-5
	C-112.9,245.8-112.4,245.8-112.1,245.8z M-111.8,244.7c-0.6,0,0.1,0-3,0.1l-0.2,0.3c0.3,0.6,0.1,1.8-0.5,4l-1.5,6.3
	c-0.1,0.2-0.2,0.4-0.4,0.6l-0.7,0.5c-0.1,0.1-0.1,0.2,0,0.2h3.4c0.1,0,0.1-0.1,0.1-0.2l-0.4-0.5c-0.1-0.2-0.2-0.3-0.1-0.6l0.8-3.6
	c0.5,0.1,0.8,0.2,1.2,0.2c0.3,1.3,0.7,3,1.5,4.2c1,1.4,3.1,0.7,3.8,0.4v-0.1c-0.9-0.2-1.6-0.5-2-1c-1.3-1.3-1.7-3-1.8-3.8
	c1.6-0.5,2.8-1.8,3.1-3.5C-108.1,245.7-110,244.7-111.8,244.7z M-60.9,253.4c-0.1,2.1,1.3,3.4,3,3.4c1.3,0,2.8-0.7,4-2.5l-0.2-0.2
	c-1,1-2.2,1.5-3,1.5c-1.3,0-2.2-0.8-2-2.5c2.1-0.1,5.7-0.5,5.9-3c0.1-1.3-1.2-2.1-2.6-2.1C-58.1,248-60.7,250.1-60.9,253.4z
	 M-56,249.1c0.5,0,1.1,0.3,1.1,1c-0.1,1.2-1.7,2-4.1,2.1C-58.6,250.7-57.6,249.1-56,249.1z M-64.6,250.9c-0.7,3-2.2,4.6-3.4,4.6
	c-1.2,0-1.1-0.9-0.7-2.4l0.9-3.8c0.3-1.1,0.2-1.2-0.2-1.2l-2.1,0.2l-0.1,0.2l0.5,0.5c0.1,0.1,0.2,0.3,0.1,0.6l-0.9,3.7
	c-0.6,2.5,0.2,3.7,1.8,3.7c1,0,2.2-0.6,3.3-2.2h0.1c-0.3,1.1-0.2,2.1,1,2.1c0.8,0,1.4-0.8,2.1-2l-0.3-0.2c-0.6,0.7-0.9,1.2-1.2,1.2
	c-0.4,0-0.3-0.5-0.2-0.7l1.6-7c0-0.1,0-0.1-0.1-0.1l-1.4,0.1c-0.1,0-0.2,0.1-0.2,0.2L-64.6,250.9L-64.6,250.9z M-78.8,254
	c0.7-3,2.2-4.6,3.4-4.6c1.2,0,1.1,0.9,0.7,2.4l-0.6,2.8c-0.3,1.3,0,2.1,1.1,2.1c0.9,0,1.5-0.8,2.2-2l-0.3-0.2
	c-0.6,0.7-0.9,1.2-1.2,1.2c-0.4,0-0.3-0.5-0.2-0.7l0.8-3.3c0.6-2.5-0.2-3.7-1.8-3.7c-0.9,0-2.2,0.5-3.2,2H-78l0.2-0.8
	c0.3-1.1,0.2-1.2-0.2-1.2l-1.9,0.2l-0.1,0.2l0.5,0.5c0.1,0.1,0.2,0.3,0.1,0.6l-1.4,5.9c-0.1,0.3-0.1,0.6-0.3,0.7l-0.5,0.4v0.2h2
	c0.1,0,0.2-0.1,0.2-0.2C-79.4,256.5-78.8,254-78.8,254z M-89.3,253.4c-0.1,2.1,1.3,3.4,3,3.4c1.3,0,2.8-0.7,4-2.5l-0.2-0.2
	c-1,1-2.2,1.5-3,1.5c-1.3,0-2.2-0.8-2-2.5c2.1-0.1,5.7-0.5,5.9-3c0.1-1.3-1.2-2.1-2.6-2.1C-86.5,248-89.1,250.1-89.3,253.4z
	 M-84.4,249.1c0.5,0,1.1,0.3,1.1,1c-0.1,1.2-1.7,2-4.1,2.1C-87,250.7-85.9,249.1-84.4,249.1z M-95.3,248.9c-0.1-0.9-0.3-0.9-0.6-0.9
	l-1.7,0.2l-0.1,0.2l0.4,0.4c0.2,0.2,0.3,0.3,0.4,0.7c0.5,2.2,0.9,4.9,1.1,7.4l0.4-0.1c0.5-0.1,0.6-0.2,0.9-0.7
	c1.4-1.8,2.9-4.2,4.3-6.8c0.1-0.2,0.3-0.3,0.4-0.5l0.6-0.4c0.1-0.1,0.1-0.2,0-0.2h-2.5l-0.1,0.2l0.2,0.3c0.2,0.2,0.1,0.5-0.2,0.9
	c-0.8,1.7-1.9,3.5-2.9,4.9C-94.8,252.6-95,250.6-95.3,248.9L-95.3,248.9z M-106.8,253.4c-0.1,2.1,1.3,3.4,3,3.4c1.3,0,2.8-0.7,4-2.5
	l-0.2-0.2c-1,1-2.2,1.5-3,1.5c-1.3,0-2.2-0.8-2-2.5c2.1-0.1,5.7-0.5,5.9-3c0.1-1.3-1.2-2.1-2.6-2.1
	C-104,248-106.6,250.1-106.8,253.4z M-101.9,249.1c0.5,0,1.1,0.3,1.1,1c-0.1,1.2-1.7,2-4.1,2.1
	C-104.5,250.7-103.5,249.1-101.9,249.1z M-158.7,257.5l0.1-0.1L-158.7,257.5 M-158.9,257.2v-0.1V257.2 M-158,257.1v0.4h0.1
	C-158,257.3-157.9,257.2-158,257.1 M-160.1,256.6c0.1,0.1-0.1,0.2,0,0.2V256.6 M-158.7,256.4l0.1,0.1v-0.1H-158.7 M-157.2,256.4v0.1
	h0.1l0.1-0.1H-157.2 M-158.1,256.2L-158.1,256.2L-158.1,256.2 M-158.3,256.2C-158.4,256.3-158.3,256.3-158.3,256.2L-158.3,256.2
	 M-157.4,256.2v-0.1V256.2 M-158,256l0.1,0.1C-157.8,256.1-157.8,256-158,256C-157.8,256.1-157.9,256-158,256
	C-157.9,256.1-157.9,256-158,256 M-158.5,256C-158.4,256-158.4,256-158.5,256 M-157.6,255.9l-0.1,0.1h0.1V255.9 M-155.8,255.8v0.1
	V255.8c0,0.1-0.1,0.2-0.1,0.2h0.1c0,0,0-0.1,0,0V255.8 M-158.4,255.9l0.1-0.1L-158.4,255.9z M-158.3,255.6c0.1,0,0,0.1,0,0.1
	l0.1-0.1H-158.3 M-159.5,255.7h-0.1v-0.1c0,0.1-0.2,0.4-0.3,0.3C-159.9,256.2-159.5,255.7-159.5,255.7l0.1-0.1L-159.5,255.7
	 M-157.1,255.5L-157.1,255.5c-0.1,0.3,0,0.2,0.1,0.1L-157.1,255.5 M-156.6,255.5h0.1v-0.1L-156.6,255.5l0.1-0.1L-156.6,255.5
	 M-149.8,255.5L-149.8,255.5v0.2V255.5L-149.8,255.5c0,0.2,0,0.3,0.1,0.2h-0.1V255.5l0.1,0.2l0.1-0.1v0.1c0-0.1,0.1-0.3-0.1-0.3
	c0.1,0,0,0.1,0,0c0,0.1-0.1,0,0,0L-149.8,255.5 M-160.4,255.3C-160.5,255.2-160.4,255.4-160.4,255.3 M-156.2,255.2
	C-156.1,255.3-156.2,255.2-156.2,255.2v-0.1V255.2 M-155.9,255L-155.9,255L-155.9,255L-155.9,255 M-152.5,255l0.1,0.1
	c0.1,0,0.1,0,0.1-0.1h0.1v-0.1L-152.5,255 M-148,255L-148,255l0.1,0.1L-148,255 M-154.2,255.2l0.2-0.1h-0.2V255V255.2 M-152.5,255.1
	v-0.2C-152.5,254.9-152.6,255.1-152.5,255.1 M-156.1,255.1v0.2c0-0.1,0.1-0.1,0.1-0.2l-0.1,0.1v-0.3V255.1v-0.2V255.1v-0.2V255.1
	 M-159.2,254.9v0.2V254.9 M-152.4,254.8v0.1V254.8l0.1,0.1L-152.4,254.8 M-150.1,254.8c0,0.1,0.1,0.3,0.1,0.3h0.2L-150.1,254.8
	L-150.1,254.8L-150.1,254.8 M-149.9,254.7C-150.1,254.8-149.9,254.7-149.9,254.7 M-159,254.7h-0.1c0,0.1-0.1,0.3-0.1,0.3l0.1-0.1
	C-159.1,254.8-159,254.8-159,254.7h0.3H-159 M-149.8,254.7l0.1,0.2v0.1L-149.8,254.7L-149.8,254.7
	C-149.7,254.6-149.7,254.7-149.8,254.7l0.1-0.1L-149.8,254.7 M-150.2,254.6v0.3l0.1,0.1L-150.2,254.6 M-150,254.5L-150,254.5
	L-150,254.5C-149.9,254.5-149.9,254.6-150,254.5 M-153.7,254.5C-153.8,254.6-153.7,254.6-153.7,254.5L-153.7,254.5l0.1,0.1
	L-153.7,254.5 M-152.5,254.8L-152.5,254.8l-0.1-0.2C-152.6,254.7-152.6,254.8-152.5,254.8 M-150.3,254.6l-0.1-0.2L-150.3,254.6
	 M-151.5,254.5L-151.5,254.5L-151.5,254.5 M-155.7,254.4l0.2,0.1v-0.2l-0.2-0.1V254.4 M-154.2,254.2v0.2V254.2 M-159.8,254.2v0.2
	v-0.1v0.1V254.2 M-155.4,254.2L-155.4,254.2C-155.3,254.4-155.4,254.3-155.4,254.2 M-160.4,254.2
	C-160.4,254.1-160.3,254.2-160.4,254.2 M-159.7,254.1C-159.7,254.1-159.9,254.2-159.7,254.1 M-161,254.1c0,0.1-0.2,0.1-0.1,0.1
	l0.1,0.1V254.1L-161,254.1L-161,254.1l0.1,0.1L-161,254.1 M-150.5,254l0.1,0.1v0.1c0.1,0-0.1,0,0,0.1h0.1c0,0.2,0,0.1,0.1,0.1
	l0.1,0.1v-0.2v0.1l-0.3-0.2L-150.5,254L-150.5,254 M-159.5,254.1V254C-159.7,254-159.6,254.1-159.5,254.1 M-154.1,254.1
	C-154.2,254.1-154.1,254.1-154.1,254.1C-154.2,254.1-154.5,254.1-154.1,254.1l0.1-0.1v-0.2L-154.1,254.1 M-158.4,254h0.1H-158.4
	 M-151,253.7v0.1V253.7L-151,253.7 M-158.8,253.8l-0.2,0.2h0.1l0.1,0.2h0.1l0.1-0.1C-158.7,254.2-158.7,253.9-158.8,253.8l0.1,0.1
	C-158.6,253.8-158.7,253.7-158.8,253.8 M-158.2,253.8v0.1V253.8l0.2-0.2h-0.3L-158.2,253.8 M-152,253.8l0.1,0.1v0.3v-0.1h0.1
	c0.1-0.1,0.2,0,0.2,0l0.1-0.1c-0.1,0,0,0,0,0L-152,253.8c0-0.2,0-0.3-0.1-0.3C-152.1,253.6-152.1,253.7-152,253.8 M-157,253.4
	c0,0.1,0,0.2-0.1,0.2c0,0.1,0.1,0.3,0.1,0.3h-0.1c0,0.1,0.1,0.1,0,0.2c-0.1,0.1,0.1,0.1,0.2,0.2c0,0.1,0.4,0.3,0.5,0.1v-0.2
	c0,0.1,0.1-0.1,0.1-0.1c0,0.1,0.1-0.1,0.1-0.1v-0.1l-0.1,0.1c-0.1-0.1,0.1-0.2,0-0.2v-0.1c0,0.1,0.2-0.1,0.2-0.1l-0.1-0.1l0.1,0.1
	h-0.2l-0.3,0.4c0-0.2-0.1-0.3-0.2-0.4h0.1l-0.1-0.1h0.1l-0.1-0.1H-157 M-156.7,253.3v0.2h0.1v0.1c0-0.1,0.1-0.1,0.1-0.2
	L-156.7,253.3 M-151.8,253.2l0.1,0.1l0.1-0.1c-0.1,0.2,0.1,0.2,0.2,0.2v0.2v-0.1v0.1l0.1-0.1c0,0.1,0.1,0.1,0.1-0.1h-0.1l0.1-0.2
	h-0.1l-0.1-0.1c-0.1,0.1-0.1,0.1-0.1,0l-0.1,0.1c-0.1,0-0.2,0-0.2-0.1V253.2 M-152.7,253.1l0.1,0.1
	C-152.6,253-152.7,253.1-152.7,253.1 M-148.4,253C-148.4,253-148.5,253.1-148.4,253 M-151.9,253.1c0,0-0.2,0.1-0.1,0.1L-151.9,253.1
	v0.2C-151.9,253.6-151.6,253.3-151.9,253.1 M-153.2,253c0,0.2,0.1,0.1,0.1,0.2l0.3-0.2c-0.1,0-0.2-0.1-0.3-0.1L-153.2,253
	 M-148.3,253.1L-148.3,253.1C-148.3,253-148.4,253.1-148.3,253.1 M-160.8,252.7C-160.7,252.7-160.7,252.7-160.8,252.7 M-160.6,252.7
	L-160.6,252.7L-160.6,252.7 M-157.1,252.6l-0.1,0.1L-157.1,252.6L-157.1,252.6 M-154.3,252.5L-154.3,252.5L-154.3,252.5
	 M-160.7,252.4l0.2,0.1l-0.1,0.1l0.1,0.1l0.1-0.1v-0.1l-0.2-0.2L-160.7,252.4 M-156.7,252.2h0.1H-156.7l0.2,0.1l-0.1-0.1H-156.7
	 M-157.4,252.2l0.1,0.1v-0.1H-157.4 M-157,252.3C-157.1,252.3-157.1,252.4-157,252.3v0.2l0.1,0.1h0.1l0.1-0.1c0,0-0.1,0.2,0,0v0.1
	h0.2c0-0.2-0.2-0.1-0.2-0.2c0.1-0.1-0.1-0.1-0.2-0.1H-157l0.2-0.1C-156.8,252.1-157.2,252.2-157,252.3 M-153.6,252.2v0.1V252.2z
	 M-153.7,252.2c0-0.1,0.1-0.2,0-0.1V252.2V252h-0.1C-153.8,252.2-153.7,252.2-153.7,252.2 M-156.4,252.1h-0.1H-156.4
	C-156.4,252-156.5,252-156.4,252.1 M-153.2,252c0,0-0.1,0.2-0.1,0.3L-153.2,252L-153.2,252 M-155.5,252c0,0.1-0.2,0.1-0.2,0.2
	l0.1,0.1v0.1l-0.2,0.2l0.3,0.1l0.1-0.1l0.1,0.1h0.2l0.1,0.1c0-0.1,0-0.3-0.1-0.3v0.1v-0.4v0.1c0,0-0.1-0.1,0-0.1h-0.3
	C-155.3,252.2-155.4,252-155.5,252C-155.6,252.1-155.4,252-155.5,252 M-154,252C-154.1,252.1-154,252-154,252 M-155.4,252l0.1,0.1
	C-155.2,252-155.3,252-155.4,252 M-156,251.9v0.1V251.9v0.3h0.1c0-0.1,0-0.1,0,0l-0.1-0.1C-155.9,252.1-156,252-156,251.9
	 M-157.4,251.9c-0.2,0.1,0,0.2,0,0.2V251.9 M-154.3,251.9c0,0.1,0,0.3,0.1,0.1v0.1L-154.3,251.9 M-154.1,251.8c0,0,0,0.3,0.1,0.2
	c0.1,0.1,0.1,0.2,0.2,0.2l-0.1-0.1l0.1-0.1v-0.1c0,0-0.1,0.1,0,0h-0.1c0.1,0,0,0,0,0S-153.9,251.8-154.1,251.8 M-156.3,251.7h0.1
	H-156.3 M-153.7,251.6L-153.7,251.6L-153.7,251.6 M-157.1,251.6C-157.1,251.7-157.1,251.6-157.1,251.6 M-153.1,251.7
	c0,0.1,0.2,0.3,0.2,0.4v0.1V252v0.1v-0.5C-153,251.8-153,251.7-153.1,251.7l0.1-0.2L-153.1,251.7 M-160,251.6h0.1H-160
	 M-154.3,251.6l0.2,0.1l0.1-0.1v-0.1h-0.1l-0.1-0.1L-154.3,251.6 M-152.8,251.5h0.3c0-0.1-0.1-0.1-0.2-0.1L-152.8,251.5
	 M-152.5,251.4l0.1,0.1L-152.5,251.4 M-153.9,251.4L-153.9,251.4L-153.9,251.4 M-153.1,251.3l0.1,0.1L-153.1,251.3 M-154.1,251.4
	v-0.1C-154.2,251.4-154.2,251.4-154.1,251.4 M-153.2,251.4l0.1-0.1L-153.2,251.4 M-153.6,251.2L-153.6,251.2
	c-0.1,0.2-0.2,0.2-0.2,0.3c0,0,0.2,0,0,0.1l0.2-0.1V251.2 M-156.6,251.2c0-0.1-0.1,0-0.1,0.1L-156.6,251.2c0.1,0.1,0.1,0.2,0.1,0
	H-156.6 M-153.5,251.1C-153.5,251.1-153.6,251.3-153.5,251.1 M-153.9,251.1l0.1,0.1L-153.9,251.1L-153.9,251.1 M-152.6,251.1
	c0.1,0.1,0.1,0,0.1,0.1v-0.1H-152.6 M-152.7,250.8L-152.7,250.8L-152.7,250.8L-152.7,250.8 M-154.1,250.7
	C-154.2,250.7-154.2,250.7-154.1,250.7C-154.3,250.9-154.1,250.7-154.1,250.7 M-154,250.8C-154,250.8-154.1,250.8-154,250.8
	 M-151.2,250.7v0.2V250.7 M-158.1,250.6C-158.1,250.5-158,250.5-158.1,250.6L-158.1,250.6 M-153.5,250.5l0.2,0.1v-0.1H-153.5v-0.1
	V250.5 M-157.7,250.5C-157.7,250.6-157.7,250.6-157.7,250.5l0.1-0.2L-157.7,250.5 M-151,250.4v0.2h-0.1v-0.1c0,0,0.2,0.1,0.2,0v-0.1
	c0.1-0.1,0-0.2-0.1-0.2V250.4 M-152,251.6C-152,251.7-152,251.6-152,251.6 M-151.9,251.2l0.1,0.1
	C-151.9,251.4-151.9,251.3-151.9,251.2v0.1V251.2C-151.8,251.2-151.8,251.2-151.9,251.2 M-152.9,250.4l-0.1-0.1l0.3,0.3
	c0-0.2,0.3,0.2,0.3,0.2l0.1-0.2h0.1v0.1l-0.1,0.1v0.1v-0.1v0.1c0-0.1,0.1,0.1,0.1,0.1h-0.1c0,0.1,0.2,0.2,0.1,0.3h-0.1l-0.1,0.1
	c-0.1,0.3-0.1,0.1-0.2,0.1v-0.1h-0.1v0.4c0,0,0.2,0,0.1-0.1l0.1-0.1c0,0.1,0.1,0.1,0.1,0l0.1,0.2v0.1l0.3,0.1c0,0,0.4-0.4,0.2-0.5
	v-0.1h-0.1c0,0-0.1,0.1-0.1,0c0.1,0,0.1-0.2,0.1-0.2v-0.1h-0.1c0.2,0-0.1-0.3-0.2-0.2c0,0,0-0.4-0.2-0.3l-0.2-0.1l-0.1-0.2
	c-0.1,0,0.1,0.2,0,0.2C-152.7,250.4-152.8,250.4-152.9,250.4l0,0.1h0.1h-0.1v0.1l-0.1-0.2C-153,250.5-153,250.4-152.9,250.4h-0.2
	C-152.8,250.2-152.9,250.3-152.9,250.4 M-153.8,250.3h0.1H-153.8 M-151.3,250.3L-151.3,250.3L-151.3,250.3 M-153.7,250.2v0.1
	C-153.6,250.2-153.7,250.2-153.7,250.2 M-151.6,250.2v0.2h0.1c0,0.1,0,0.2,0.1,0c0,0.1,0,0.1,0.1,0.1h-0.1c0.1,0,0.3-0.1,0.3-0.2
	c0-0.1-0.2,0-0.3,0v-0.1h-0.1c0-0.2-0.1-0.1-0.1-0.1V250.2l0.1-0.1L-151.6,250.2 M-158.5,250.2v-0.1V250.2 M-151.3,250L-151.3,250
	C-151.3,250.1-151.2,250-151.3,250 M-157.7,250L-157.7,250L-157.7,250 M-151.5,250C-151.5,250-151.4,250.1-151.5,250 M-156.6,250
	l0.1-0.1L-156.6,250 M-156.7,250.6C-156.6,250.7-156.7,250.6-156.7,250.6 M-156.5,250.2h-0.2c-0.1-0.2-0.1,0.2-0.1,0.2l-0.1,0.1
	h-0.1l0.1,0.1h-0.2v0.1h-0.1c0,0,0,0.3,0.1,0.1v0.1c-0.1-0.1-0.2,0.1-0.2,0.2v0.1l-0.2-0.1v0.1h-0.1v-0.1c-0.1,0-0.1,0.2-0.2,0.1
	v0.2h0.1v0.1h0.1v0.2l0.2,0.1h-0.1l0.2-0.3v-0.1c0,0.1,0.1,0,0.1-0.1l0.3-0.1c-0.1-0.1,0-0.1,0-0.3c0.2,0,0.1,0.1,0.1,0.1
	c0.1,0,0,0,0.1-0.1h0.1v-0.1h0.2c0.1-0.3-0.1-0.4,0.1-0.4c0-0.1,0-0.2,0.1-0.1v0.1c0.2,0,0-0.2,0-0.2h0.2l0.1-0.1
	c-0.1,0-0.1-0.1-0.1-0.2C-156.3,249.9-156.5,250.2-156.5,250.2 M-158,249.9c0,0,0.1,0.1,0,0.2V250v0.2c0.1,0.2,0.2,0,0.1-0.2
	C-157.9,250-157.9,249.8-158,249.9 M-156.4,249.8C-156.4,249.9-156.4,249.9-156.4,249.8L-156.4,249.8L-156.4,249.8 M-150.9,249.7
	l0.1,0.2v-0.1h0.1v-0.1H-150.9 M-158.2,249.6c-0.2,0.1,0.1,0.4,0.1,0.3l-0.1-0.1h0.1L-158.2,249.6 M-158.2,249.5
	C-158.2,249.6-158.1,249.5-158.2,249.5 M-156.5,249.3l-0.1,0.1L-156.5,249.3C-156.6,249.3-156.6,249.4-156.5,249.3l-0.1,0.2v0.1
	h-0.1c0,0.1-0.1,0.2-0.1,0.1c-0.1,0-0.3,0.2-0.2,0.3c0.2,0,0.2-0.1,0.3-0.3l-0.1,0.1l0.1-0.1l0.2-0.1l-0.1-0.1v-0.1l0.2-0.2
	C-156.4,249.3-156.5,249.3-156.5,249.3 M-156.9,249.3c0.1,0.1,0,0.1,0,0.2h0.2c0.2-0.1,0-0.2,0.1-0.3L-156.9,249.3 M-157.5,249.1
	l-0.1,0.1L-157.5,249.1L-157.5,249.1C-157.3,249.2-157.6,249.2-157.5,249.1h0.1H-157.5 M-154.8,249.1l-0.2,0.2h0.1
	C-154.8,249.3-154.8,249.2-154.8,249.1 M-156.3,249c0,0.1,0.1,0.1,0.1-0.1L-156.3,249 M-152.6,248.9L-152.6,248.9L-152.6,248.9
	 M-151.3,248.8l0.1-0.1l-0.1-0.1V248.8 M-151.7,248.7l0.1,0.1L-151.7,248.7 M-154.9,248.7l0.1,0.1L-154.9,248.7 M-154.1,248.7v0.1
	l-0.1,0.1v0.1h0.1v-0.1C-153.9,248.8-154,248.7-154.1,248.7 M-151.9,248.8v-0.2V248.8 M-154.9,248.7
	C-155,248.6-155,248.7-154.9,248.7 M-150.1,248.7C-150.1,248.7-150,248.7-150.1,248.7h0.2l-0.1,0.2l0.1,0.1c-0.1,0-0.1-0.1-0.2-0.1
	v0.1c0.1,0,0.1,0.1,0.2,0.1l0.3-0.1c0-0.1,0-0.1-0.1,0v-0.2l-0.1-0.1l-0.2-0.1L-150.1,248.7 M-150.4,248.6c0.1,0.1,0,0.2,0.1,0.2
	L-150.4,248.6 M-151.5,248.6c0,0,0,0.1,0.1,0.1L-151.5,248.6 M-150.1,248.5C-150.2,248.6-150.1,248.7-150.1,248.5 M-150.9,248.7
	C-150.9,248.8-151,248.7-150.9,248.7l-0.1,0.2v0.1h0.2L-150.9,248.7c0.1,0.2,0.2,0.2,0.2,0.3l0.1-0.1c-0.1,0,0.1,0.1,0.2,0.1h0.2
	v0.1c0-0.2-0.1-0.1-0.1-0.1v-0.1l-0.1,0.1l-0.1-0.2h-0.1c0-0.1,0-0.1,0.1-0.1h-0.1c-0.1,0-0.2,0-0.2-0.1L-150.9,248.7 M-154.7,248.6
	L-154.7,248.6L-154.7,248.6 M-152.9,248.5L-152.9,248.5L-152.9,248.5 M-153.1,248.5L-153.1,248.5L-153.1,248.5 M-151.1,248.5v0.3
	l0.1-0.1c0,0.1,0.1-0.1,0.1-0.1L-151.1,248.5 M-155.5,248.3v0.2h-0.2v-0.1l-0.1,0.2h-0.1c0,0.1,0.2,0.3,0.3,0.2
	c0.1,0.2,0.5-0.1,0.3-0.1v-0.1h-0.1c0.1,0,0-0.1,0-0.1L-155.5,248.3 M-151.9,248.3v0.1l0.1,0.1c0,0,0.2,0,0-0.1L-151.9,248.3
	 M-153.4,248.5L-153.4,248.5L-153.4,248.5h-0.2v0.1h-0.1v0.1h0.2l0.1-0.3C-153.4,248.4-153.5,248.3-153.4,248.5 M-152,248.4
	C-151.8,248.4-152,248.4-152,248.4 M-154.7,248.3v0.1V248.3 M-156.9,248.4c0.1,0.1,0.1,0,0.1-0.1L-156.9,248.4 M-151.9,248.3
	C-152,248.3-151.9,248.3-151.9,248.3 M-149.2,248.2L-149.2,248.2L-149.2,248.2C-149.2,248.3-149.1,248.1-149.2,248.2 M-152,248
	c0.1,0.1,0.2,0.3,0.3,0.1h-0.1L-152,248 M-153.6,248l0.1,0.1v-0.2L-153.6,248 M-153.8,248l0.1-0.1L-153.8,248 M-152.5,248l0.2,0.1
	v0.1h-0.1c-0.3-0.6,0,0,0,0.1h-0.1l0.1,0.1v-0.1l0.1-0.1v0.2l0.1-0.1l0.2,0.1h-0.1c0.1-0.2-0.2-0.2-0.2-0.2c0-0.2,0.1-0.4-0.1-0.4
	v-0.1l-0.2-0.1C-152.5,247.8-152.5,247.9-152.5,248 M-152.7,247.7l0.1-0.1L-152.7,247.7 M-152.6,247.6
	C-152.6,247.7-152.5,247.7-152.6,247.6 M-152.7,247.6v0.1V247.6 M-155,247.5L-155,247.5L-155,247.5 M-152.7,247.5
	C-152.6,247.4-152.6,247.4-152.7,247.5v-0.1C-152.7,247.4-152.8,247.5-152.7,247.5 M-153.9,247.5v0.3l0.1-0.1v0.1l0.2-0.1l0.2-0.1
	c0-0.2-0.1-0.2-0.1-0.2h-0.1c-0.1,0,0,0,0-0.1C-153.8,247.2-153.9,247.4-153.9,247.5 M-149.6,247.2L-149.6,247.2L-149.6,247.2
	L-149.6,247.2 M-156.4,247.1C-156.5,247.2-156.4,247.3-156.4,247.1 M-156.4,247v0.2C-156.3,247.2-156.2,247-156.4,247 M-154.8,247.1
	V247V247.1 M-153.4,247.1v0.1V247.1v0.2c0,0.1,0.1,0.1,0.2,0.1h0.1v-0.3l-0.1-0.1C-153.3,247-153.4,247.1-153.4,247.1 M-153.5,246.9
	C-153.5,246.9-153.5,247.1-153.5,246.9 M-156.7,247.1v0.1c0.1-0.1,0.1,0,0.1,0.1L-156.7,247.1c-0.1-0.1,0-0.1,0-0.2h-0.1
	C-156.7,246.9-156.7,247-156.7,247.1 M-153.3,246.9v-0.1V246.9 M-156.2,246.8l0.1,0.1h0.1C-156.1,246.7-156.1,246.8-156.2,246.8
	 M-158.9,246.8C-158.9,246.8-158.9,247-158.9,246.8l0.1-0.1L-158.9,246.8 M-158.8,246.9l0.1-0.2L-158.8,246.9 M-154.3,246.7
	L-154.3,246.7L-154.3,246.7l0.1,0.2l0.1-0.1c0,0,0.1,0.3,0.2,0.1c-0.1-0.1-0.1-0.2-0.2-0.1v-0.1H-154.3 M-156.5,246.5v0.3
	c0.1,0.1,0,0.2,0.1,0v0.1c0.2,0-0.1-0.3,0-0.3v0.1l0.1-0.1l-0.1,0.1c0-0.1,0.1-0.1,0.1-0.1C-156.5,246.5-156.5,246.7-156.5,246.5
	 M-151.9,246.5h0.1l-0.1-0.2V246.5 M-150.7,246.4v0.1V246.4 M-149.7,246.4v-0.2V246.4 M-156.4,246.3c0.1,0-0.1,0.2,0,0.2l0.1-0.1
	v0.1C-156.3,246.3-156.4,246.3-156.4,246.3 M-159.1,246l0.1-0.1C-159.1,245.9-159.1,245.9-159.1,246 M-150.8,246h-0.1H-150.8
	L-150.8,246L-150.8,246L-150.8,246l0.1,0.2h-0.2c0.1,0.1,0.2,0.2,0.3,0.2l0.1,0.1h0.2l0.1-0.1v-0.2h-0.5L-150.8,246
	c-0.1,0.1,0.1,0,0.1-0.1C-150.6,245.8-150.8,245.8-150.8,246 M-155.5,246l0.1,0.1L-155.5,246 M-155.7,245.8l-0.1,0.1h-0.2l0.1-0.1
	l-0.1,0.2h-0.1c0.1,0,0-0.1,0.1-0.1c0-0.1-0.1-0.1-0.1-0.1v0.3l-0.2,0.1v0.1h-0.1c0,0.2,0.1,0.2,0.2,0.2h0.1v-0.1h0.2v0.2
	c0.1,0.2,0,0.2-0.1,0.2v0.1l0.1,0.1l-0.2,0.2h0.2c0.1,0.1,0.1,0.1,0.3,0c0.1,0,0.4-0.3,0.4-0.1l0.1-0.1l0.2,0.1v-0.3
	c0.2,0.3,0.2-0.4,0.2-0.4c0-0.1-0.2-0.1-0.2-0.1h-0.2c0.1-0.1,0-0.1,0-0.2c0,0-0.3,0.1-0.2,0h0.1l-0.1-0.1c-0.1-0.1-0.1-0.1-0.2-0.3
	h0.1v-0.1L-155.7,245.8 M-155,245.6v0.2h0.1L-155,245.6z M-151.1,246.3C-151.4,246.2-151.1,246.2-151.1,246.3L-151.1,246.3
	 M-151.2,245.7h-0.3v0.2h-0.1v-0.1l-0.1-0.2h-0.1c0.1,0.1,0,0.2,0,0.3h0.1c0,0.1,0.1,0,0.2,0h-0.1c0,0.1,0.1,0,0.1,0.1h-0.1l0.1,0.1
	h-0.1l-0.1-0.1v-0.1l-0.1,0.1l0.2,0.2v-0.1v0.1h0.2c0,0.2,0.1,0,0.2,0c0,0.1,0.1,0.2,0,0.3h0.3c0.1,0.2,0.3,0,0.3,0v0.1v-0.1
	c-0.1,0.1-0.2-0.1-0.3-0.2l-0.1-0.1V246l-0.1,0.1V246l0.1,0.1v-0.2v0.1h-0.1v-0.2L-151.2,245.7l0.1,0.1c0-0.1,0.1-0.2,0-0.3
	L-151.2,245.7 M-156,245.7v-0.1V245.7 M-156,245.6l0.1,0.2L-156,245.6h0.2v0.1l0.1-0.1H-156 M-152,245.5c-0.1-0.1-0.1,0-0.1-0.1
	h-0.1l-0.2,0.2v0.1l0.1,0.1v-0.1v0.1l0.1-0.1l-0.1,0.1c0.1,0,0.1-0.1,0.1-0.2v-0.1C-151.9,245.7-151.9,245.6-152,245.5v-0.2
	C-152,245.4-151.9,245.5-152,245.5 M-155.5,245.4l0.1,0.1h0.1v-0.1l0.1,0.1v0.1h-0.1v0.1c0.1-0.2,0.3-0.1,0.3,0.1v-0.2
	c0,0.1,0,0,0,0v-0.1h-0.2v-0.1c0,0.1,0.1,0,0.1,0H-155.5 M-156.1,245.4l0.1-0.1L-156.1,245.4 M-149.4,245.4
	c-0.2,0.1,0.2,0.2,0.3,0.2L-149.4,245.4h0.2H-149.4c0.1,0.1-0.1-0.2,0-0.2h-0.2C-149.6,245.4-149.5,245.4-149.4,245.4 M-156.7,245.2
	C-156.7,245.4-156.6,245.2-156.7,245.2 M-156.5,245.3h-0.1v0.1c-0.1-0.1-0.2,0-0.2-0.1h-0.1v0.2l-0.1,0.1c-0.1,0.3,0.2,0.1,0.4,0.2
	v-0.1l0.1-0.2l0.1-0.1L-156.5,245.3l0.1,0.1L-156.5,245.3c0.1,0,0.2,0.1,0.2-0.1h-0.1c0,0-0.1,0-0.1-0.1V245.3 M-152.2,245.2h-0.1
	H-152.2 M-151.7,245.1c0,0.3,0.3,0.1,0.3,0.1h-0.1L-151.7,245.1 M-150.9,245.1l-0.2,0.2v0.2h-0.1c0.1,0,0,0,0,0l0.2,0.4
	c0-0.1,0-0.3,0.1-0.2v0.1c0.1,0,0.2-0.1,0.2-0.2v0.1l0.1-0.1v-0.5h-0.1c0,0.1,0.1,0.2,0.1,0.3c0,0-0.1-0.3-0.2-0.2L-150.9,245.1v0.1
	V245.1v0.1C-150.9,245.1-150.8,245.1-150.9,245.1C-150.8,245-150.9,245.1-150.9,245.1 M-151.1,245c0,0,0.1,0.1,0.1-0.1L-151.1,245
	 M-154.3,244.8c-0.1,0.2-0.1,0.2,0,0.2c0,0-0.1,0.1,0,0.2C-154.3,245-154.2,244.9-154.3,244.8 M-155.1,244.8l-0.1,0.1L-155.1,244.8
	c-0.2,0-0.1,0.2-0.1,0.1l-0.1,0.1h0.4v0.1v-0.2C-154.8,244.9-155,244.9-155.1,244.8C-154.9,244.8-155.1,244.8-155.1,244.8
	 M-148.8,244.8C-148.8,245-148.7,244.8-148.8,244.8L-148.8,244.8L-148.8,244.8 M-155.2,244.5L-155.2,244.5L-155.2,244.5
	 M-154.8,244.4l0.1,0.1h-0.1c-0.1,0.1,0.1,0.1,0.1,0v0.1c0.1,0,0.1,0,0.1-0.1h-0.1L-154.8,244.4h0.1H-154.8h0.1H-154.8l0.1-0.1h-0.1
	V244.4 M-153.2,244.4c0.1-0.1-0.2-0.1-0.2,0l-0.1-0.1v0.1l-0.1-0.1v0.1c0,0,0.2,0.3,0.3,0.2c0-0.2,0.3-0.1,0.3-0.1l0.1,0.1l0.1,0.1
	v0.1l-0.2-0.1l-0.1,0.1l0.2,0.2c0,0.1,0.1,0.1,0,0.1v0.1h-0.1c0,0.1,0.1,0.1,0.1-0.1c0.1,0,0.1-0.3,0.2-0.4v0.1c0,0.1,0,0.1-0.1,0.2
	l0.1-0.1h0.1v-0.1h-0.1c0.1,0-0.3-0.4-0.2-0.5l-0.1,0.1v-0.2L-153.2,244.4 M-155,244.3L-155,244.3l0.1,0.2h0.1h-0.1
	C-154.8,244.4-155,244.2-155,244.3 M-153.8,244.5h-0.2v-0.2c0,0,0-0.1-0.1,0l-0.2,0.2v0.1v-0.1c0,0.1,0.1,0.2,0.2,0
	c0,0.1,0,0.2,0.1,0.1c-0.1,0.1,0.1,0.2,0.1,0.2v0.1v-0.1l0.2,0.1C-153.7,244.8-153.8,244.5-153.8,244.5h0.1H-153.8
	c0.1,0,0-0.1,0.1-0.2l-0.1-0.1V244.5 M-155.6,244.1L-155.6,244.1c-0.1,0.1,0,0.1,0.1,0.2v0.1c0.1-0.1,0.1-0.1,0.1-0.2
	c0-0.1-0.1-0.1-0.1-0.1H-155.6 M-154.9,243.9v0.1V243.9 M-155.7,243.7h0.1H-155.7 M-153.6,243.7l-0.1,0.1h0.1
	C-153.7,243.7-153.5,243.7-153.6,243.7L-153.6,243.7 M-153.8,243.6L-153.8,243.6l-0.2,0.1v0.2c0.1,0,0.2,0.2,0.2,0V243.6l0.1,0.2
	v-0.1L-153.8,243.6 M-152.5,242.9h0.2c0-0.1-0.1,0-0.1,0H-152.5L-152.5,242.9L-152.5,242.9 M-154.8,242.9h0.1c0.1,0,0.1-0.2,0.1-0.2
	h-0.1C-154.8,242.7-154.8,242.8-154.8,242.9 M-152.7,242.8v0.2V242.8L-152.7,242.8L-152.7,242.8c0,0,0.1-0.1,0-0.1V242.8
	 M-154.9,242.6C-154.8,242.6-154.8,242.7-154.9,242.6 M-153.6,242.5C-153.7,242.6-153.6,242.5-153.6,242.5 M-154.8,242.6
	L-154.8,242.6v-0.1C-154.8,242.4-154.9,242.6-154.8,242.6 M-154,242.4v0.1V242.4v0.1c0-0.1-0.1,0.1-0.2,0.2h0.1h-0.1h0.1v-0.1v0.1
	h0.1h-0.1h0.1v-0.1l0.2-0.1v-0.1H-154 M-153.5,242.3c0-0.1-0.1,0-0.1,0.1L-153.5,242.3c0.1,0.1,0,0.3,0.1,0.2c0,0.1,0.1,0.2,0.1,0.1
	c0.1,0,0.1,0,0.2-0.1v0.1h0.1l0.1-0.1h-0.2c0,0,0-0.1-0.1-0.2l0.1,0.1h-0.2v-0.1v0.1L-153.5,242.3
	C-153.5,242.4-153.5,242.4-153.5,242.3 M-151.9,242.2C-151.9,242.3-151.9,242.2-151.9,242.2 M-153.6,242.2v-0.1V242.2 M-155.7,242
	l-0.1,0.2L-155.7,242v0.2V242 M-151.8,242C-151.5,242.1-151.7,242-151.8,242v-0.1V242 M-154.4,241.9l-0.1,0.1L-154.4,241.9
	L-154.4,241.9l-0.2,0.2l0.1-0.1L-154.4,241.9v0.1l0.2-0.1C-154.2,241.9-154.4,242-154.4,241.9 M-154.3,241.8l0.1,0.1v0.1l0.1-0.1
	c-0.1,0,0,0-0.1,0.1C-154.2,241.8-154.1,241.8-154.3,241.8 M-152.2,241.8L-152.2,241.8L-152.2,241.8 M-154.1,241.7v0.1V241.7
	 M-153.8,241.7c0,0.1,0.1,0,0.2,0H-153.8 M-154.7,240.2c-0.3,0.2-0.1,0.3-0.1,0.2v-0.1L-154.7,240.2v0.1V240.2 M-152,240.2v0.2
	c0.1-0.1,0.1-0.2,0.1-0.3L-152,240.2 M-155.4,240l-0.1,0.1c0,0.1,0.1,0.1,0.1,0.1V240 M-155,240v-0.1V240 M-155.7,239.9
	L-155.7,239.9L-155.7,239.9 M-154.8,239.7v0.2c0,0.1,0.1,0,0.1,0L-154.8,239.7h0.1c-0.1,0.1,0.1,0,0.1,0
	C-154.7,239.7-154.7,239.6-154.8,239.7 M-156.2,239.9L-156.2,239.9L-156.2,239.9 M-155.5,239.7c0.1,0.1,0,0.1,0,0.1v0.1h0.1
	l-0.1,0.1c0.3-0.1,0-0.1,0.1-0.2l-0.1,0.1V239.7 M-156.8,239.6C-156.7,239.6-156.8,239.6-156.8,239.6 M-153.6,239.5
	c-0.1,0.1,0,0.1-0.1,0.1c0,0,0.1,0.2,0.1,0.1l-0.1-0.1L-153.6,239.5 M-154.8,239.4v0.1V239.4v0.2
	C-154.9,239.5-154.8,239.4-154.8,239.4l-0.1,0.2l0.1-0.1V239.4 M-156.6,239.4L-156.6,239.4l-0.1,0.2c0,0-0.1,0.1,0,0.1v0.1v-0.1
	l0.1,0.2c0.1-0.2,0,0.2,0.1,0.2l0.1-0.1v0.1V240h-0.1l0.1-0.1v-0.1v0.1l-0.1-0.1c-0.1-0.1,0.1-0.1,0.1-0.2L-156.6,239.4
	 M-155.7,239.3C-155.6,239.3-155.7,239.4-155.7,239.3 M-156.8,239C-157,239-156.7,239.1-156.8,239 M-153.8,239
	C-153.8,239.1-153.7,239.2-153.8,239C-153.8,239-153.8,239.1-153.8,239 M-155.7,238.7l0.1,0.2l0.1-0.1c0.1,0.1,0.2,0,0.2,0.2h-0.1
	v0.1h-0.1c0.1,0.1,0.1,0.2,0,0.2v0.1l0.3-0.1l-0.2-0.1c0.1,0,0.1-0.2,0-0.3l-0.1-0.1v-0.1v0.1v-0.1H-155.7 M-155.5,238.6
	C-155.5,238.5-155.7,238.6-155.5,238.6 M-155.7,238.4v0.1V238.4 M-155.3,238.2C-155.3,238.4-155.2,238.2-155.3,238.2 M-150.3,256.6
	L-150.3,256.6L-150.3,256.6 M-148.2,253.6C-148.2,253.5-148.2,253.5-148.2,253.6 M-154.8,236.3v-3.5c0-0.4-0.3-0.7-0.7-0.7h-8.2
	c-0.4,0-0.7,0.3-0.7,0.7v18.4c0,0.5-0.4,0.6-0.6,0.2l-7.2-17.4l-0.3-0.7c-0.5-1.1-0.5-1.2-1.9-1.2h-8.9c-0.4,0-0.7,0.3-0.7,0.7v36.4
	c0,0.4,0.3,0.7,0.7,0.7h7.8c0.4,0,0.7-0.3,0.7-0.7v-18.4c0-0.5,0.4-0.6,0.6-0.2l7.2,17.4l0.3,0.7c0.2,0.7,0.9,1.2,1.6,1.2h5.5
	c2.3,0,4.2-1.9,4.2-4.2v-9.5c-0.1,0-0.2-0.1-0.3-0.1l-0.1-0.1l0.1,0.2h-0.2v-0.1v0.1l0.1-0.1h-0.2c0,0.2,0,0.3,0.1,0.2h0.1l0.1,0.1
	h-0.1l0.1,0.1c0,0-0.2,0-0.2-0.1v0.2v-0.1l-0.1,0.1l-0.1,0.1c-0.1,0.2,0,0.2,0,0.2h-0.3c-0.2,0-0.3,0.1-0.5,0.1l0.1-0.1l-0.1,0.1
	l-0.2-0.1h0.1c-0.1-0.1,0-0.3-0.2-0.3v0.2l-0.1-0.2l-0.1,0.1l-0.2,0.5v-0.1l0.1,0.1h-0.1l0.1,0.1l-0.1,0.4v-0.1
	c-0.2,0-0.2,0-0.2,0.2h-0.1v-0.1l-0.1,0.2h-0.1c0-0.1,0.1-0.3,0.1-0.4h-0.1l-0.2,0.2v-0.1l-0.1,0.3l-0.2,0.1v-0.1h-0.1
	c0,0.3,0.2,0.2,0,0.2l-0.1,0.1c-0.1,0.1-0.1,0.3-0.2,0.1c-0.1-0.2,0-0.3,0-0.3c0.1,0,0.1-0.3,0.2-0.4l-0.1,0.1v0.1v-0.1h-0.1
	c0,0-0.1-0.2-0.2-0.2c0-0.2-0.2-0.2-0.2-0.3l0.1-0.1l-0.1-0.2c0,0,0.1-0.1,0.2,0.1v-0.1c0.1-0.1,0.1-0.5,0.3-0.4
	c-0.2-0.2,0-0.4,0.1-0.5c0-0.1,0-0.5,0.2-0.3v-0.1h0.1v-0.1h0.1l-0.1-0.1l0.1-0.1h0.1h-0.3v-0.1v0.1v-0.2l0.3,0.1
	c0.1-0.1,0-0.2,0-0.2c0-0.1,0-0.2,0.1-0.3v0.1v-0.2v0.1l-0.1,0.1l-0.2,0.2v-0.1l-0.1,0.2h-0.1l-0.3,0.3v-0.1
	c-0.1,0.1-0.2,0.5-0.2,0.3l0.1,0.1c-0.1,0-0.2,0.1-0.1,0.2c-0.1-0.1,0,0.3-0.2,0.3c-0.1,0-0.1,0.2-0.2,0.3l-0.1-0.3h-0.1v0.1h-0.1
	c0,0.2-0.1,0.1-0.1,0.1h0.2v0.1l0.1-0.1v0.1h-0.1v0.1v-0.1v0.1h-0.2v-0.2h-0.1c0.1,0.1-0.1,0-0.1-0.1l-0.1-0.1l0.1-0.1h0.1v-0.2
	l0.1-0.2h0.1l0.1-0.1l-0.2,0.5l0.1-0.1l-0.1-0.3l-0.2,0.2c-0.2,0.2-0.4,0.3-0.3,0h0.1c0-0.1-0.2-0.4-0.1-0.4c-0.4-0.3,0-0.3,0.1-0.3
	c0,0,0.1-0.3,0.2-0.1c0.1-0.2,0.3-0.1,0.4,0h-0.1l0.1,0.2v-0.1l0.2-0.1h-0.1c0-0.1,0.1-0.1,0.1,0h0.1h-0.1c0,0,0.4-0.2,0.4-0.3
	l-0.1,0.1c0-0.1,0.1-0.1,0.1-0.1v-0.1h0.1v0.1c0.2-0.2,0.4,0,0.4-0.3h0.1v0.2l0.1-0.2c0.1,0.1,0.2-0.1,0.2-0.2
	c-0.2,0.1-0.5-0.1-0.6-0.1v-0.1h-0.2c0.1,0.1,0,0.1,0,0.2l0.1,0.1h-0.1l-0.2,0.1v-0.1h-0.1c0-0.1,0,0,0,0v-0.1c0,0-0.1,0,0,0.1h-0.1
	l0.2,0.1c0.1,0.1,0,0.3-0.1,0.1v-0.1l-0.1,0.1l0.1,0.2h-0.1l0.1-0.1l-0.1,0.1v0.2h-0.2c-0.1,0,0-0.3,0.1-0.3c0,0-0.1-0.3-0.1-0.1
	h0.1h-0.1v0.2v-0.1c0,0-0.2,0.1-0.1,0.1h-0.1v-0.2v0.1h-0.2c0,0.1-0.1,0-0.1,0.1v0.1l0.1,0.1c-0.1,0.1-0.1,0.2-0.2,0.3h-0.2l0.1-0.1
	h-0.4v-0.1v0.2v-0.1h0.1c0,0.1-0.2,0.2-0.2,0.2c0.1,0,0.1,0.1,0,0.2h-0.2v-0.3l0.1,0.1l-0.1-0.2h-0.1c0,0,0-0.2-0.1-0.1
	c0-0.1,0.1-0.1,0.1-0.1h0.1l-0.1-0.1h0.1c-0.1,0.1,0.1,0,0.1,0h-0.1c0.1-0.1,0-0.1,0-0.2c0,0.1,0.1,0.1,0.2,0.1v0.1v-0.1
	c0.1,0,0.2,0,0.2-0.1h0.1l-0.1-0.1l0.1-0.1h0.1h-0.1v-0.2v0.1c0,0.1-0.1,0.1-0.1,0.1h-0.1l0.1-0.1l-0.1,0.1h0.1v0.1
	c-0.1-0.1-0.2,0-0.2,0.1h-0.1c0-0.1-0.2-0.2,0-0.2c0-0.1-0.3-0.3-0.2-0.4c0-0.1-0.1-0.4-0.2-0.6h0.1c0-0.1,0.4-0.6,0.4-0.8h0.1
	c0,0,0-0.4,0.2-0.2h-0.1h0.1v-0.3l-0.1,0.1c0-0.1-0.2-0.2-0.2-0.4c0.2,0,0.3,0,0.4-0.1c0-0.2-0.1-0.1-0.1-0.2h0.1v-0.1
	c0.2,0.1,0.1,0,0.3,0.2c0.1,0.1,0.1,0,0.1-0.1h0.1v-0.4c0.2-0.1,0.2-0.3,0.2-0.5c-0.1-0.2,0.1-0.2,0.1-0.3c0,0,0.2,0.1,0.1-0.1v-0.1
	c-0.2,0.2,0.1-0.1,0-0.2h0.1c0,0,0.1,0.2,0.2,0.1c-0.1-0.1,0-0.1,0-0.2h0.1c-0.1,0.1,0.3,0.3,0.4,0.3v0.1h-0.2l0.1,0.1
	c0-0.1,0-0.1,0.1-0.1v-0.1h-0.1V250l0.1,0.1h0.1V250h0.1v0.1c0,0,0.1,0,0.1-0.1h-0.1c0.1,0,0.2,0.1,0.1-0.1h0.1
	c-0.1-0.1,0.1-0.1,0.2-0.1c0-0.1-0.2-0.2-0.2-0.1l0.1-0.1c0-0.1-0.1,0.1-0.1,0.1v-0.1h-0.1v0.2v-0.1v0.1h-0.2l-0.1,0.2
	c0,0.1-0.1-0.2-0.1-0.4c-0.1-0.2-0.1-0.5,0-0.3c0-0.1,0-0.2-0.1-0.2s-0.1,0-0.1-0.2h0.3h-0.1l0.3-0.3h0.1c0-0.2,0.3-0.1,0.3,0
	c0.1-0.1,0.5-0.1,0.6-0.1c0-0.1,0.1-0.3,0.1-0.2h0.1V248l0.3-0.2h-0.1h0.3l0.1-0.1h0.1v-0.1c0-0.1-0.2-0.1-0.3-0.1h0.1
	c0-0.2-0.3-0.3-0.2-0.2v-0.1v0.2c-0.1-0.1,0,0-0.1,0.1c-0.1,0-0.2-0.3-0.2-0.4c0.1,0,0.2-0.2,0.1-0.2v-0.1c0,0,0.3-0.4,0.4-0.6
	l0.1-0.1l0.1-0.1c-0.1-0.1,0,0-0.1-0.2h-0.1l0.1-0.1h-0.1c-0.1,0-0.2-0.1-0.3,0.1l0.1,0.1h-0.2v-0.1l-0.1,0.1v0.2
	c0-0.1-0.2,0-0.2,0.1s-0.3,0.1-0.3,0h0.2c-0.1,0,0.1-0.3,0-0.3v-0.1l-0.2,0.1c0.2,0,0,0.2-0.1,0.3h-0.2v0.2h-0.2c0,0,0-0.2-0.1-0.1
	v0.1c0-0.2-0.4,0.2-0.2,0.2c0.1,0.1-0.2,0.1-0.2,0.1v0.1l0.1-0.1v0.1v-0.1v0.1h-0.1l-0.1,0.1v0.2h-0.2c0.1,0,0.1-0.2,0.1-0.2h-0.1
	c0,0.3-0.2,0.2-0.2,0.1l-0.1,0.1h0.1l-0.1-0.1v0.2c0-0.1,0-0.2,0.1-0.2l-0.3,0.1l0.1,0.1h-0.2l-0.2-0.2l-0.1,0.1
	c-0.1-0.1,0.1-0.5,0.1-0.7v0.1c0-0.2,0-0.4,0.1-0.4l0.1-0.2c0.2,0,0.2,0.1,0.3,0.2c-0.1-0.1,0,0,0,0h0.2c0,0,0-0.1-0.1-0.1h-0.2
	l-0.1-0.1l0.1-0.1v-0.5c-0.1,0,0,0.1,0,0.1c-0.2-0.3-0.1-0.3,0-0.5h0.3v-0.4l0.1-0.1c0.1,0,0.1,0.1,0.1,0.2l0.2-0.1
	c0.1-0.1,0.2-0.1,0.2,0.1l0.1-0.2v0.1c0,0,0.1-0.2,0-0.2v0.1c0-0.2-0.2-0.3-0.1-0.5l0.2-0.3c0.1-0.1,0.2-0.1,0.4-0.3h-0.1h0.3
	l0.1-0.1c0,0.1,0.1,0.2,0.1,0.2v-0.1c0.1,0.1,0.1,0,0.1,0c0-0.1,0.4-0.2,0.4-0.2v-0.4v0.1l0.1-0.1l0.2-0.1c0-0.1,0.2-0.1,0.2-0.3
	l0.1,0.1l-0.1-0.2h0.1v0.1h0.1c0,0,0-0.1,0,0v0.1l0.1,0.1v-0.1c0-0.1-0.1-0.2,0-0.3c0,0-0.5,0.2-0.6,0.2l-0.1-0.1
	c0,0-0.5,0.3-0.6,0.1h0.1l-0.3-0.1v0.1v-0.5c0.1-0.1,0.3,0,0.3-0.2c0,0,0.3,0,0.3,0.2c0.3-0.5,0.3-0.4,0.3-0.6c0,0,0.2-0.1-0.1,0
	l-0.1,0.1V241l0.1,0.1l0.1-0.2v0.1v-0.1v0.1v-0.3l0.1,0.2l0.1-0.4h0.3l-0.1,0.1h0.2l-0.1-0.1l-0.1-0.1c0.1,0,0,0,0-0.1
	c0-0.1-0.1-0.1-0.1-0.1s-0.3-0.1-0.3-0.3c0.1,0.2,0.1-0.2,0.1-0.2c0,0.1-0.1,0.1-0.2,0h-0.1c0-0.1,0-0.2,0.1-0.3h-0.1
	c0-0.1,0-0.2-0.1-0.3c0.2,0,0-0.3-0.1-0.3c-0.1-0.3,0.2-0.2,0.3-0.4h-0.1c0-0.2,0.3-0.4,0.5-0.4l0.2,0.2h0.1c-0.2,0-0.2-0.4-0.1-0.5
	c0.2,0,0.5-0.3,0.7-0.3l0.1,0.1c0.1,0.1,0.2,0.2,0.2,0.1v0.1c0-0.1,0.4-0.1,0.3,0.2c0,0,0.1,0,0.1,0.1l0.1-0.1c0.1,0,0.5,0,0.5,0.1
	l0.1-0.2c0-0.1,0.1-0.2,0.1-0.2v0.1h0.1v-0.1v0.1h0.3c0.1,0,0.3,0,0.3-0.1c0,0.3,0.2,0.2,0.2,0.4v-0.1v0.1v-0.1l0.1,0.1
	c0,0-0.1,0.1,0,0.2c-0.1,0.1,0,0.2,0,0.3v-0.1l-0.1,0.2c-0.1-0.1-0.2,0-0.3,0c0,0.2,0.2,0.3-0.1,0.4h0.1h-0.1c0,0,0.6,0.5,0.2,0.5
	c0,0,0.3,0.2,0.3,0l0.3-0.3v0.1c0.1,0,0.1-0.3,0.1-0.3h0.1c0.1-0.1,0.2-0.1,0.2,0.1c0.1-0.1,0.1-0.1,0-0.2v-0.2l0.2-0.1v0.3
	c0,0-0.1,0.2,0,0.3c0,0,0.4-0.2,0.2-0.3h0.3c0.1,0.1,0.2,0.2,0.1,0.4c0,0-0.1,0.2-0.2,0.3h0.1c0,0-0.1,0,0,0.2l0.1-0.1v0.2
	c0,0.2,0.2,0,0.2,0.3c0-0.1,0.1,0.3,0.1,0.4l0.1-0.1c0.1,0.2,0,0.3-0.1,0.4c0.1,0.1,0.1,0.1,0.1,0.3v0.1l0.2,0.1
	c0.1,0,0,0.1,0.1,0.2c0,0.2-0.1,0.2-0.1,0.2l-0.3,0.6l-0.3-0.2v0.1h0.1v0.3c0,0.1,0.2,0,0.2-0.2l0.1,0.1c0-0.2,0.1-0.1,0.2-0.2
	c0.1,0.1,0.3,0,0.2,0c0.1-0.2,0.2-0.1,0.4-0.1v0.1l0.1-0.1h0.1c0,0.2,0.1,0.2,0.2,0c0.2,0,0,0.5,0.1,0.6c0,0.1,0,0,0,0v0.2h0.2
	l-0.1,0.2l-0.2,0.2l0.1,0.2c-0.1,0,0,0.1-0.1,0.2c-0.2-0.5-0.2-0.3-0.1-0.2v0.1c0-0.1,0.1-0.1-0.1-0.1l-0.1,0.1c-0.2,0,0,0.2,0,0.3
	c0.1-0.2,0.2-0.1,0.3-0.1h0.2c0,0.1,0.1,0,0.2,0h0.1v0.1c0.1-0.1,0.3,0,0.3-0.4c0.1,0,0.1,0,0.2-0.1v0.1h0.1v0.1h0.1v0.2
	c0,0,0,0.1-0.1,0.2c0,0.1-0.1,0.2-0.2,0.2c0.1,0.1,0,0,0,0.1l0.2,0.1c0.1,0.1,0.2,0.2,0.3-0.1l0.3-0.2l0.1,0.2l0.1-0.1v0.1v-0.1h0.1
	l-0.1,0.4l-0.1-0.1l-0.1,0.1h-0.1v0.1l-0.1,0.1h0.1c0,0.2,0.2,0.2,0.3,0.3c0,0.3-0.1,0.3-0.3,0.4h0.1c0-0.2-0.1,0-0.1,0
	c-0.1,0.1-0.2,0.3-0.4,0.3v0.2V246v0.4c0,0-0.1-0.2-0.1,0.1l-0.1-0.3v0.2c0-0.1-0.1-0.1-0.2-0.1c0.1,0.1,0,0.1,0.1,0.3h-0.2v-0.2
	v0.1v-0.2l-0.2,0.2l-0.1-0.2v0.2l0.1,0.1v-0.1l0.1,0.1l0.1-0.1v0.1h0.1c0,0,0.1,0.1,0,0h0.1v0.1l0.2-0.1v0.2c0.1-0.1,0.1,0,0.3,0.1
	l0.1-0.1c0,0.2,0,0.3-0.2,0.3c0.1,0.1-0.2,0.2-0.2,0.2c-0.1,0-0.1-0.1-0.1,0.1h-0.2v0.1h-0.1v0.1v-0.1c0,0,0.1,0.1,0.1,0
	c0.2,0.1-0.3,0.3,0.3,0.1l0.1,0.1l0.1,0.1l-0.1,0.4h0.1h-0.1v0.3c0.2-0.1,0.1,0.2,0,0.2v0.2c0.5,0.1-0.3,0.7-0.2,0.5v-0.3h-0.2
	c-0.3,0,0-0.1-0.1-0.2h-0.1v0.1h-0.1c0.1,0,0.1,0,0.1,0.1c-0.1,0-0.2,0-0.1,0.1h-0.1h0.1h-0.1c-0.1,0,0.1,0.2,0.2,0.1l0.1,0.2v0.1
	c0.1-0.2,0.1,0,0.2,0.1v-0.1c0,0-0.1,0.3-0.2,0.2l0.1,0.1c-0.1,0-0.2,0.1-0.1,0.1c0.1-0.1,0.1,0.1,0.1,0.2h-0.6V250h-0.1v-0.1
	l-0.1,0.1h0.1l-0.3,0.2v0.1h-0.1v0.1c0,0,0-0.2-0.1,0h-0.1v0.1h0.1v0.2h-0.1l-0.2,0.3h0.1h-0.2c0,0,0.1-0.1,0.1,0v0.1
	c0.1,0.1,0.1,0.2,0.2,0.1v0.1c0.1,0,0-0.2,0.1-0.1c0,0,0.1,0.3,0.1,0.1v0.1c0,0,0.4,0,0.3,0.2v0.1l0.1-0.1c0.1,0,0.4,0,0.5-0.1
	c0,0.1,0.1,0.1,0.2,0v0.2l0.1-0.2c0,0.2,0.1-0.1,0.2-0.1h0.1v0.4l0.1-0.1v0.2l-0.1,0.1h0.1v0.2l0.2,0.2c0.1-0.1-0.1-0.1,0.1-0.1
	c0,0.1,0.1,0,0.1-0.1v0.1h0.3c0.1,0-0.1,0.1,0,0v-0.1h0.1v0.1c0,0.1,0.2,0,0.1,0.1v-0.1l0.3,0.5v-0.1v0.2c-0.2,0.3-0.1,0.3-0.3,0.3
	h-0.1h0.1h-0.1c-0.1,0-0.1,0.1-0.3,0c-0.1,0-0.2,0.1-0.2,0.2v0.2c0,0-0.2,0.2-0.2,0.1v0.1l-0.1,0.1c0,0,0.2,0.1,0.2,0l0.1-0.1
	c0.1-0.1,0.1-0.2,0.2,0.1c0,0,0.1-0.2,0.1,0c0-0.1,0.1-0.1,0.1,0h0.1v-0.1v0.1v-0.1l0.1,0.1l0.2-0.1v0.1c0.1-0.2,0.4-0.4,0.5-0.4
	c0,0.2,0.3,0.1,0.2,0h0.2v0.5c-0.2,0-0.4,0-0.5,0.2h-0.2v0.2l-0.1,0.1v0.2h0.1v0.2l0.2,0.2v0.1v-0.1h-0.5l-0.3,0.3h-0.1l-0.1,0.1
	v-0.1h-0.2c-0.1,0.1-0.3,0.2-0.4,0.3l-0.1-0.2l-0.1-0.1l-0.1,0.1l-0.1,0.2v0.1l-0.1,0.1c0.1-0.1,0.1,0,0.1,0l-0.1,0.1v-0.1l-0.1-0.1
	v0.1l-0.1,0.1l-0.1-0.1h0.1h-0.1c0-0.1,0,0,0.1-0.1l-0.1-0.1c0,0.3-0.1,0.2,0.1,0.4h-0.2h0.1v0.1c-0.1,0,0,0.1,0,0.2v-0.1l-0.1,0.2
	c0.2,0.1,0.2,0.1,0.1,0.1l-0.2-0.1l-0.4-0.3c0.1-0.2,0-0.1,0-0.2c0-0.1-0.1-0.1,0.1-0.2v-0.1l-0.1,0.1v-0.1c-0.1,0-0.3-0.1-0.3-0.2
	h0.1v-0.1h0.1v-0.1l0.1,0.1l0.1,0.1v0.1c0.1-0.1,0-0.2,0-0.3h-0.1v-0.1v0.1l-0.1,0.1l0.1,0.1h-0.1v-0.1c0,0-0.1-0.1-0.1,0v-0.2
	l0.2-0.1h-0.1l0.1-0.1v-0.2c0.1-0.2-0.2-0.2-0.1-0.2h-0.1v-0.2c0.1,0,0.1-0.1,0-0.1v0.1c-0.1-0.2,0-0.1,0-0.4h-0.1l0.1,0.1
	c-0.1,0-0.5-0.2-0.4-0.4v0.1c0.1-0.1,0-0.1,0-0.1v-0.1l-0.2,0.2l0.1,0.3l-0.1,0.2h-0.1c0,0-0.5,0.3-0.4,0.1h-0.3
	c0-0.1-0.3-0.1-0.3,0v0.1h0.1l0.1,0.1l-0.1,0.1c0,0,0.1,0.1,0.1,0.2c0.2,0,0.3,0.1,0.6,0.2V255l0.1,0.1v0.1h0.3
	c-0.1,0.1,0.2,0.1,0.2,0.1l-0.1,0.2c0.1-0.1,0.3,0.2,0.1,0.2c0-0.1-0.1-0.2-0.2-0.2v-0.2l-0.1,0.1c0-0.1,0,0-0.1,0.1v-0.1l-0.2-0.1
	h-0.2h0.1h-0.1c0-0.1-0.1-0.1-0.2-0.1h0.1v0.1c0-0.1,0-0.2-0.2-0.2h-0.1v0.1h-0.1v0.1l-0.2,0.2c-0.1-0.2-0.3-0.2-0.4-0.1v-0.1
	l-0.2-0.1h-0.1v-0.1v0.1v-0.1l-0.3-0.1h-0.2h0.1l-0.2-0.1v0.2l-0.1,0.1v-0.1h-0.2v0.1h-0.1v0.2h0.1v0.1h-0.1c0,0.1,0,0.1,0.1,0.1
	l0.1,0.1h-0.1h0.1c0.1,0.1-0.1,0.2,0.1,0.3l-0.2,0.2l-0.1-0.1h-0.1V256l-0.1,0.1l-0.1,0.1v9.8c0,2.3,1.9,4.2,4.2,4.2h8.5
	c8.8,0,11.9-4.1,13-8c0.4-1.6,0.6-3.2,0.6-4.3v0.2v-2.4c0-0.4-0.3-0.7-0.7-0.7h-7.8c-0.4,0-0.7,0.3-0.7,0.7v0.3
	c0,3.6-0.5,5.2-4.3,5.2c-4,0-4.3-2.5-4.3-6.5v-7.6c0-4,0.3-6.5,4.2-6.5h0.1c3.9,0,4.3,1.6,4.3,5.4v0.4c0.1,0.3,0.4,0.6,0.7,0.6h7.8
	c0.3,0,0.6-0.2,0.7-0.5v-2.1c0-1-0.1-3.1-0.5-4.7c-1-3.8-3.9-7.9-12.3-8.1h-2.4C-150,231.2-153.1,233.5-154.8,236.3"/>
<g>
	<defs>
		<path id="SVGID_1_" d="M-158.7,257.5l0.1-0.1L-158.7,257.5 M-158.9,257.2v-0.1V257.2 M-158,257.1v0.4h0.1
			C-158,257.3-157.9,257.2-158,257.1 M-160.1,256.6c0.1,0.1-0.1,0.2,0,0.2V256.6 M-158.7,256.4l0.1,0.1L-158.7,256.4L-158.7,256.4
			 M-157.2,256.4v0.1h0.1l0.1-0.1H-157.2 M-158.1,256.2l0.1,0.1L-158.1,256.2 M-158.3,256.2c-0.1,0.1,0,0.1,0,0.1V256.2
			 M-157.4,256.2v-0.1V256.2 M-158,256l0.1,0.1C-157.8,256.1-157.8,256-158,256C-157.8,256.1-157.9,256-158,256
			C-157.9,256.1-157.9,256-158,256 M-158.5,256C-158.4,256-158.4,256-158.5,256 M-157.6,255.9l-0.1,0.1h0.1V255.9 M-155.8,255.8v0.1
			V255.8c0,0.1-0.1,0.2-0.1,0.2h0.1c0,0,0-0.1,0,0V255.8 M-158.4,255.9l0.1-0.1L-158.4,255.9 M-158.3,255.6c0.1,0,0,0.1,0,0.1V255.6
			L-158.3,255.6 M-159.5,255.7h-0.1v-0.1c0,0.1-0.2,0.4-0.3,0.3C-159.9,256.2-159.5,255.7-159.5,255.7l0.1-0.1L-159.5,255.7
			 M-157.1,255.5l-0.1,0.1c0,0.2,0.1,0.1,0.2,0L-157.1,255.5 M-156.6,255.5h0.1v-0.1L-156.6,255.5l0.1-0.1L-156.6,255.5
			 M-149.8,255.5l-0.1,0.1l0.1,0.1V255.5L-149.8,255.5c0,0.2,0,0.3,0.1,0.2h-0.1V255.5l0.1,0.2l0.1-0.1v0.1c0-0.1,0.1-0.3-0.1-0.3
			c0.1,0,0,0.1,0,0c0,0.1-0.1,0,0,0L-149.8,255.5 M-160.4,255.3C-160.5,255.2-160.4,255.4-160.4,255.3 M-156.2,255.2
			C-156.1,255.3-156.2,255.2-156.2,255.2v-0.1V255.2 M-155.9,255L-155.9,255h0.1H-155.9 M-152.5,255l0.1,0.1c0.1,0,0.1,0,0.1-0.1
			h0.1v-0.1L-152.5,255 M-148,255L-148,255L-148,255L-148,255 M-154.2,255.2l0.2-0.1h-0.2V255V255.2 M-152.5,255.1v-0.2
			C-152.5,254.9-152.6,255.1-152.5,255.1 M-156.1,255.1v0.2c0-0.1,0.1-0.1,0.1-0.2l-0.1,0.1v-0.3V255.1v-0.2V255.1v-0.2V255.1
			 M-159.2,254.9v0.2V254.9 M-152.4,254.8v0.1V254.8l0.1,0.1L-152.4,254.8 M-150.1,254.8c0,0.1,0.1,0.3,0.1,0.3h0.2L-150.1,254.8
			L-150.1,254.8L-150.1,254.8 M-149.9,254.7C-150.1,254.8-149.9,254.7-149.9,254.7 M-159,254.7L-159,254.7c-0.1,0.1-0.2,0.3-0.2,0.3
			l0.1-0.1C-159.1,254.8-159,254.8-159,254.7h0.3H-159 M-149.8,254.7l0.1,0.2v0.1L-149.8,254.7l0.1,0.1
			C-149.7,254.6-149.7,254.7-149.8,254.7l0.1-0.1L-149.8,254.7 M-150.2,254.6v0.3l0.1,0.1L-150.2,254.6 M-150,254.5l0.1,0.1v-0.1
			C-149.9,254.5-149.9,254.6-150,254.5 M-153.7,254.5C-153.8,254.6-153.7,254.6-153.7,254.5L-153.7,254.5l0.1,0.1L-153.7,254.5
			 M-152.5,254.8l0.1-0.1l-0.2-0.1C-152.6,254.7-152.6,254.8-152.5,254.8 M-150.3,254.6l-0.1-0.2L-150.3,254.6 M-151.5,254.5h0.1
			H-151.5 M-155.7,254.4l0.2,0.1v-0.2l-0.2-0.1V254.4 M-154.2,254.2v0.2V254.2 M-159.8,254.2v0.2V254.2v0.2V254.2 M-155.4,254.2
			h-0.1C-155.3,254.4-155.4,254.3-155.4,254.2 M-160.4,254.2C-160.4,254.1-160.3,254.2-160.4,254.2 M-159.7,254.1
			C-159.7,254.1-159.9,254.2-159.7,254.1 M-161,254.1c0,0.1-0.2,0.1-0.1,0.1l0.1,0.1V254.1l0.1,0.1h-0.1h0.1L-161,254.1 M-150.5,254
			l0.1,0.1v0.1c0.1,0-0.1,0,0,0.1h0.1c0,0.2,0,0.1,0.1,0.1l0.1,0.1v-0.2v0.1l-0.3-0.2L-150.5,254L-150.5,254 M-159.5,254.1V254
			C-159.7,254-159.6,254.1-159.5,254.1 M-154.1,254.1C-154.2,254.1-154.1,254.1-154.1,254.1C-154.2,254.1-154.5,254.2-154.1,254.1
			l0.1-0.1v-0.2L-154.1,254.1 M-158.4,254h0.1H-158.4 M-151,253.7v0.1V253.7L-151,253.7 M-158.8,253.8l-0.2,0.2h0.1l0.1,0.2h0.1
			l0.1-0.1C-158.7,254.2-158.7,253.9-158.8,253.8l0.1,0.1C-158.6,253.8-158.7,253.7-158.8,253.8 M-158.2,253.8v0.1V253.8l0.2-0.2
			h-0.3L-158.2,253.8 M-152,253.8l0.1,0.1v0.3v-0.1h0.1c0.1-0.1,0.2,0,0.2,0l0.1-0.1c-0.1,0,0,0,0,0L-152,253.8c0-0.2,0-0.3-0.1-0.3
			C-152.1,253.6-152.1,253.7-152,253.8 M-157,253.4c0,0.1,0,0.2-0.1,0.2c0,0.1,0.1,0.3,0.1,0.3h-0.1c0,0.1,0.1,0.1,0,0.2
			c-0.1,0.1,0.1,0.1,0.2,0.2c0,0.1,0.4,0.3,0.5,0.1v-0.2c0,0.1,0.1-0.1,0.1-0.1c0,0.1,0.1-0.1,0.1-0.1v-0.1l-0.1,0.1
			c-0.1-0.1,0.1-0.2,0-0.2v-0.1c0,0.1,0.2-0.1,0.2-0.1l-0.1-0.1l0.1,0.1h-0.2l-0.3,0.4c0-0.2-0.1-0.3-0.2-0.4h0.1l-0.1-0.1h0.1
			l-0.1-0.1H-157 M-156.7,253.3v0.2h0.1v0.1c0-0.1,0.1-0.1,0.1-0.2L-156.7,253.3 M-151.8,253.2l0.1,0.1l0.1-0.1
			c-0.1,0.2,0.1,0.2,0.2,0.2v0.2v-0.1v0.1l0.1-0.1c0,0.1,0.1,0.1,0.1-0.1h-0.1l0.1-0.2h-0.1l-0.1-0.1c-0.1,0.1-0.1,0.1-0.1,0
			l-0.1,0.1c-0.1,0-0.2,0-0.2-0.1V253.2 M-152.7,253.1l0.1,0.1C-152.6,253-152.7,253.1-152.7,253.1 M-148.4,253
			C-148.4,253-148.5,253.1-148.4,253 M-151.9,253.1c0,0-0.2,0.1-0.1,0.1L-151.9,253.1v0.2C-151.9,253.6-151.6,253.3-151.9,253.1
			 M-153.2,253c0,0.2,0.1,0.1,0.1,0.2l0.3-0.2c-0.1,0-0.2-0.1-0.3-0.1L-153.2,253 M-148.3,253.1L-148.3,253.1
			C-148.3,253-148.4,253.1-148.3,253.1 M-160.8,252.7C-160.7,252.7-160.7,252.7-160.8,252.7 M-160.6,252.7L-160.6,252.7
			L-160.6,252.7 M-157.1,252.6l-0.1,0.1L-157.1,252.6L-157.1,252.6 M-154.3,252.5L-154.3,252.5L-154.3,252.5 M-160.7,252.4l0.2,0.1
			l-0.1,0.1l0.1,0.1l0.1-0.1v-0.1l-0.2-0.2L-160.7,252.4 M-156.7,252.2h0.1H-156.7l0.2,0.1l-0.1-0.1H-156.7 M-157.4,252.2l0.1,0.1
			v-0.1H-157.4 M-157,252.3C-157.1,252.3-157.1,252.4-157,252.3v0.2l0.1,0.1h0.1l0.1-0.1c0,0-0.1,0.2,0,0v0.1h0.2
			c0-0.2-0.2-0.1-0.2-0.2c0.1-0.1-0.1-0.1-0.2-0.1H-157l0.2-0.1C-156.8,252.1-157.2,252.2-157,252.3 M-153.6,252.2v0.1V252.2
			 M-153.7,252.2c0-0.1,0.1-0.2,0-0.1V252.2V252h-0.1C-153.8,252.2-153.7,252.2-153.7,252.2 M-156.4,252.1h-0.1H-156.4
			C-156.4,252-156.5,252-156.4,252.1 M-153.2,252c0,0-0.1,0.2-0.1,0.3L-153.2,252L-153.2,252 M-155.5,252c0,0.1-0.2,0.1-0.2,0.2
			l0.1,0.1v0.1l-0.2,0.2l0.3,0.1l0.1-0.1l0.1,0.1h0.2l0.1,0.1c0-0.1,0-0.3-0.1-0.3v0.1v-0.4v0.1c0,0-0.1-0.1,0-0.1h-0.3
			C-155.3,252.2-155.4,252-155.5,252C-155.6,252.1-155.4,252-155.5,252 M-154,252C-154.1,252.1-154,252-154,252 M-155.4,252l0.1,0.1
			C-155.2,252-155.3,252-155.4,252 M-156,251.9v0.1V251.9v0.3h0.1c0-0.1,0-0.1,0,0l-0.1-0.1C-155.9,252.1-156,252-156,251.9
			 M-157.4,251.9c-0.2,0.1,0,0.2,0,0.2V251.9 M-154.3,251.9c0,0.1,0,0.3,0.1,0.1v0.1L-154.3,251.9 M-154.1,251.8c0,0,0,0.3,0.1,0.2
			c0.1,0.1,0.1,0.2,0.2,0.2l-0.1-0.1l0.1-0.1v-0.1c0,0-0.1,0.1,0,0h-0.1c0.1,0,0,0,0,0S-153.9,251.8-154.1,251.8 M-156.3,251.7h0.1
			H-156.3 M-153.7,251.6L-153.7,251.6L-153.7,251.6 M-157.1,251.6C-157.1,251.7-157.1,251.6-157.1,251.6 M-153.1,251.7
			c0,0.1,0.2,0.3,0.2,0.4v0.1V252v0.1v-0.5C-153,251.8-153,251.7-153.1,251.7l0.1-0.2L-153.1,251.7 M-160,251.6h0.1H-160
			 M-154.3,251.6l0.2,0.1l0.1-0.1v-0.1h-0.1l-0.1-0.1L-154.3,251.6 M-152.8,251.5h0.3c0-0.1-0.1-0.1-0.2-0.1L-152.8,251.5
			 M-152.5,251.4l0.1,0.1L-152.5,251.4 M-153.9,251.4L-153.9,251.4L-153.9,251.4 M-153.1,251.3l0.1,0.1L-153.1,251.3 M-154.1,251.4
			v-0.1C-154.2,251.4-154.2,251.4-154.1,251.4 M-153.2,251.4l0.1-0.1L-153.2,251.4 M-153.6,251.2L-153.6,251.2
			c-0.1,0.2-0.2,0.2-0.2,0.3c0,0,0.2,0,0,0.1l0.2-0.1V251.2 M-156.6,251.2c0-0.1-0.1,0-0.1,0.1L-156.6,251.2c0.1,0.1,0.1,0.2,0.1,0
			H-156.6 M-153.5,251.1C-153.5,251.1-153.6,251.3-153.5,251.1 M-153.9,251.1l0.1,0.1L-153.9,251.1L-153.9,251.1 M-152.6,251.1
			c0.1,0.1,0.1,0,0.1,0.1v-0.1H-152.6 M-152.7,250.8L-152.7,250.8L-152.7,250.8L-152.7,250.8 M-154.1,250.7
			C-154.2,250.7-154.2,250.7-154.1,250.7C-154.3,250.9-154.1,250.7-154.1,250.7 M-154,250.8C-154,250.8-154.1,250.8-154,250.8
			 M-151.2,250.7v0.2V250.7 M-158.1,250.6C-158.1,250.5-158,250.5-158.1,250.6L-158.1,250.6 M-153.5,250.5l0.2,0.1v-0.1H-153.5v-0.1
			V250.5 M-157.7,250.5C-157.7,250.6-157.7,250.6-157.7,250.5l0.1-0.2L-157.7,250.5 M-151,250.4v0.2h-0.1v-0.1c0,0,0.2,0.1,0.2,0
			v-0.1c0.1-0.1,0-0.2-0.1-0.2V250.4 M-152,251.6C-152,251.7-152,251.6-152,251.6 M-151.9,251.2l0.1,0.1
			C-151.9,251.4-151.9,251.3-151.9,251.2v0.1V251.2C-151.8,251.2-151.8,251.2-151.9,251.2 M-152.9,250.4l-0.1-0.1l0.3,0.3
			c0-0.2,0.3,0.2,0.3,0.2l0.1-0.2h0.1v0.1l-0.1,0.1v0.1v-0.1v0.1c0-0.1,0.1,0.1,0.1,0.1h-0.1c0,0.1,0.2,0.2,0.1,0.3h-0.1l-0.1,0.1
			c-0.1,0.3-0.1,0.1-0.2,0.1v-0.1h-0.1v0.4c0,0,0.2,0,0.1-0.1l0.1-0.1c0,0.1,0.1,0.1,0.1,0l0.1,0.2v0.1l0.3,0.1c0,0,0.4-0.4,0.2-0.5
			v-0.1h-0.1c0,0-0.1,0.1-0.1,0c0.1,0,0.1-0.2,0.1-0.2v-0.1h-0.1c0.2,0-0.1-0.3-0.2-0.2c0,0,0-0.4-0.2-0.3l-0.2-0.1l-0.1-0.2
			c-0.1,0,0.1,0.2,0,0.2C-152.7,250.4-152.8,250.4-152.9,250.4l0,0.1h0.1h-0.1v0.1l-0.1-0.2C-153,250.5-153,250.4-152.9,250.4h-0.2
			C-152.8,250.2-152.9,250.3-152.9,250.4 M-153.8,250.3h0.1H-153.8 M-151.3,250.3L-151.3,250.3L-151.3,250.3 M-153.7,250.2v0.1
			C-153.6,250.2-153.7,250.2-153.7,250.2 M-151.6,250.2v0.2h0.1c0,0.1,0,0.2,0.1,0c0,0.1,0,0.1,0.1,0.1h-0.1c0.1,0,0.3-0.1,0.3-0.2
			c0-0.1-0.2,0-0.3,0v-0.1h-0.1c0-0.2-0.1-0.1-0.1-0.1V250.2l0.1-0.1L-151.6,250.2 M-158.5,250.2v-0.1V250.2 M-151.3,250L-151.3,250
			C-151.3,250.1-151.2,250-151.3,250 M-157.7,250L-157.7,250L-157.7,250 M-151.5,250C-151.5,250-151.4,250.1-151.5,250 M-156.6,250
			l0.1-0.1L-156.6,250 M-156.7,250.6C-156.6,250.7-156.7,250.6-156.7,250.6 M-156.5,250.2h-0.2c-0.1-0.2-0.1,0.2-0.1,0.2l-0.1,0.1
			h-0.1l0.1,0.1h-0.2v0.1h-0.1c0,0,0,0.3,0.1,0.1v0.1c-0.1-0.1-0.2,0.1-0.2,0.2v0.1l-0.2-0.1v0.1h-0.1v-0.1c-0.1,0-0.1,0.2-0.2,0.1
			v0.2h0.1v0.1h0.1v0.2l0.2,0.1h-0.1l0.2-0.3v-0.1c0,0.1,0.1,0,0.1-0.1l0.3-0.1c-0.1-0.1,0-0.1,0-0.3c0.2,0,0.1,0.1,0.1,0.1
			c0.1,0,0,0,0.1-0.1h0.1v-0.1h0.2c0.1-0.3-0.1-0.4,0.1-0.4c0-0.1,0-0.2,0.1-0.1v0.1c0.2,0,0-0.2,0-0.2h0.2l0.1-0.1
			c-0.1,0-0.1-0.1-0.1-0.2C-156.3,249.9-156.5,250.2-156.5,250.2 M-158,249.9c0,0,0.1,0.1,0,0.2V250v0.2c0.1,0.2,0.2,0,0.1-0.2
			C-157.9,250-157.9,249.8-158,249.9 M-156.4,249.8C-156.4,249.9-156.4,249.9-156.4,249.8L-156.4,249.8L-156.4,249.8 M-150.9,249.7
			l0.1,0.2v-0.1h0.1v-0.1H-150.9 M-158.2,249.6c-0.2,0.1,0.1,0.4,0.1,0.3l-0.1-0.1h0.1L-158.2,249.6 M-158.2,249.5
			C-158.2,249.6-158.1,249.5-158.2,249.5 M-156.5,249.3l-0.1,0.1L-156.5,249.3C-156.6,249.3-156.6,249.4-156.5,249.3l-0.1,0.2v0.1
			h-0.1c0,0.1-0.1,0.2-0.1,0.1c-0.1,0-0.3,0.2-0.2,0.3c0.2,0,0.2-0.1,0.3-0.3l-0.1,0.1l0.1-0.1l0.2-0.1l-0.1-0.1v-0.1l0.2-0.2
			C-156.4,249.3-156.5,249.3-156.5,249.3 M-156.9,249.3c0.1,0.1,0,0.1,0,0.2h0.2c0.2-0.1,0-0.2,0.1-0.3L-156.9,249.3 M-157.5,249.1
			l-0.1,0.1L-157.5,249.1L-157.5,249.1C-157.3,249.2-157.6,249.2-157.5,249.1h0.1H-157.5 M-154.8,249.1l-0.2,0.2h0.1
			C-154.8,249.3-154.8,249.2-154.8,249.1 M-156.3,249c0,0.1,0.1,0.1,0.1-0.1L-156.3,249 M-152.6,248.9L-152.6,248.9L-152.6,248.9
			 M-151.3,248.8l0.1-0.1l-0.1-0.1V248.8 M-151.7,248.7l0.1,0.1L-151.7,248.7 M-154.9,248.7l0.1,0.1L-154.9,248.7 M-154.1,248.7v0.1
			l-0.1,0.1v0.1h0.1v-0.1C-153.9,248.8-154,248.7-154.1,248.7 M-151.9,248.8v-0.2V248.8 M-154.9,248.7
			C-155,248.6-155,248.7-154.9,248.7 M-150.1,248.7C-150.1,248.7-150,248.7-150.1,248.7h0.2l-0.1,0.2l0.1,0.1
			c-0.1,0-0.1-0.1-0.2-0.1v0.1c0.1,0,0.1,0.1,0.2,0.1l0.3-0.1c0-0.1,0-0.1-0.1,0v-0.2l-0.1-0.1l-0.2-0.1L-150.1,248.7 M-150.4,248.6
			c0.1,0.1,0,0.2,0.1,0.2L-150.4,248.6 M-151.5,248.6c0,0,0,0.1,0.1,0.1L-151.5,248.6 M-150.1,248.5
			C-150.2,248.6-150.1,248.7-150.1,248.5 M-150.9,248.7C-150.9,248.8-151,248.7-150.9,248.7l-0.1,0.2v0.1h0.2L-150.9,248.7
			c0.1,0.2,0.2,0.2,0.2,0.3l0.1-0.1c-0.1,0,0.1,0.1,0.2,0.1h0.2v0.1c0-0.2-0.1-0.1-0.1-0.1v-0.1l-0.1,0.1l-0.1-0.2h-0.1
			c0-0.1,0-0.1,0.1-0.1h-0.1c-0.1,0-0.1,0-0.2-0.1L-150.9,248.7 M-154.7,248.6L-154.7,248.6L-154.7,248.6 M-152.9,248.5
			L-152.9,248.5L-152.9,248.5 M-153.1,248.5L-153.1,248.5L-153.1,248.5 M-151.1,248.5v0.3l0.1-0.1c0,0.1,0.1-0.1,0.1-0.1
			L-151.1,248.5 M-155.5,248.3v0.2h-0.2v-0.1l-0.1,0.2h-0.1c0,0.1,0.2,0.3,0.3,0.2c0.1,0.2,0.5-0.1,0.3-0.1v-0.1h-0.1
			c0.1,0,0-0.1,0-0.1L-155.5,248.3 M-151.9,248.3v0.1l0.1,0.1c0,0,0.2,0,0-0.1L-151.9,248.3 M-153.4,248.5L-153.4,248.5
			L-153.4,248.5h-0.2v0.1h-0.1v0.1h0.2l0.1-0.3C-153.4,248.4-153.5,248.3-153.4,248.5 M-152,248.4C-151.8,248.4-152,248.4-152,248.4
			 M-154.7,248.3v0.1V248.3 M-156.9,248.4c0.1,0.1,0.1,0,0.1-0.1L-156.9,248.4 M-151.9,248.3C-152,248.3-151.9,248.3-151.9,248.3
			 M-149.2,248.2L-149.2,248.2L-149.2,248.2C-149.2,248.3-149.1,248.1-149.2,248.2 M-152,248c0.1,0.1,0.2,0.3,0.3,0.1h-0.1L-152,248
			 M-153.6,248l0.1,0.1v-0.2L-153.6,248 M-153.8,248l0.1-0.1L-153.8,248 M-152.5,248l0.2,0.1v0.1h-0.1c-0.3-0.6,0,0,0,0.1h-0.1
			l0.1,0.1v-0.1l0.1-0.1v0.2l0.1-0.1l0.2,0.1h-0.1c0.1-0.2-0.2-0.2-0.2-0.2c0-0.2,0.1-0.4-0.1-0.4v-0.1l-0.2-0.1
			C-152.5,247.8-152.5,247.9-152.5,248 M-152.7,247.7l0.1-0.1L-152.7,247.7 M-152.6,247.6C-152.6,247.7-152.5,247.7-152.6,247.6
			 M-152.7,247.6v0.1V247.6 M-155,247.5L-155,247.5L-155,247.5 M-152.7,247.5C-152.6,247.4-152.6,247.4-152.7,247.5v-0.1
			C-152.7,247.4-152.8,247.5-152.7,247.5 M-153.9,247.5v0.3l0.1-0.1v0.1l0.2-0.1l0.2-0.1c0-0.2-0.1-0.2-0.1-0.2h-0.1
			c-0.1,0,0,0,0-0.1C-153.8,247.2-153.9,247.4-153.9,247.5 M-149.6,247.2L-149.6,247.2L-149.6,247.2L-149.6,247.2 M-156.4,247.1
			C-156.5,247.2-156.4,247.3-156.4,247.1 M-156.4,247v0.2C-156.3,247.2-156.2,247-156.4,247 M-154.8,247.1V247V247.1 M-153.4,247.1
			v0.1V247.1v0.2c0,0.1,0.1,0.1,0.2,0.1h0.1v-0.3l-0.1-0.1C-153.3,247-153.4,247.1-153.4,247.1 M-153.5,246.9
			C-153.5,246.9-153.5,247.1-153.5,246.9 M-156.7,247.1v0.1c0.1-0.1,0.1,0,0.1,0.1L-156.7,247.1c-0.1-0.1,0-0.1,0-0.2h-0.1
			C-156.7,246.9-156.7,247-156.7,247.1 M-153.3,246.9v-0.1V246.9 M-156.2,246.8l0.1,0.1h0.1C-156.1,246.7-156.1,246.8-156.2,246.8
			 M-158.9,246.8C-158.9,246.8-158.9,247-158.9,246.8l0.1-0.1L-158.9,246.8 M-158.8,246.9l0.1-0.2L-158.8,246.9 M-154.3,246.7
			L-154.3,246.7L-154.3,246.7l0.1,0.2l0.1-0.1c0,0,0.1,0.3,0.2,0.1c-0.1-0.1-0.1-0.2-0.2-0.1v-0.1H-154.3 M-156.5,246.5v0.3
			c0.1,0.1,0,0.2,0.1,0v0.1c0.2,0-0.1-0.3,0-0.3v0.1l0.1-0.1l-0.1,0.1c0-0.1,0.1-0.1,0.1-0.1C-156.5,246.5-156.5,246.7-156.5,246.5
			 M-151.9,246.5h0.1l-0.1-0.2V246.5 M-150.7,246.4v0.1V246.4 M-149.7,246.4v-0.2V246.4 M-156.4,246.3c0.1,0-0.1,0.2,0,0.2l0.1-0.1
			v0.1C-156.3,246.3-156.4,246.3-156.4,246.3 M-159.1,246l0.1-0.1C-159.1,245.9-159.1,245.9-159.1,246 M-150.8,246h-0.1H-150.8
			L-150.8,246L-150.8,246L-150.8,246l0.1,0.2h-0.2c0.1,0.1,0.2,0.2,0.3,0.2l0.1,0.1h0.2l0.1-0.1v-0.2h-0.5L-150.8,246
			c-0.1,0.1,0.1,0,0.1-0.1C-150.6,245.8-150.8,245.8-150.8,246 M-155.5,246l0.1,0.1L-155.5,246 M-155.7,245.8l-0.1,0.1h-0.2l0.1-0.1
			l-0.1,0.2h-0.1c0.1,0,0-0.1,0.1-0.1c0-0.1-0.1-0.1-0.1-0.1v0.3l-0.2,0.1v0.1h-0.1c0,0.2,0.1,0.2,0.2,0.2h0.1v-0.1h0.2v0.2
			c0.1,0.2,0,0.2-0.1,0.2v0.1l0.1,0.1l-0.2,0.2h0.2c0.1,0.1,0.1,0.1,0.3,0c0.1,0,0.4-0.3,0.4-0.1l0.1-0.1l0.2,0.1v-0.3
			c0.2,0.3,0.2-0.4,0.2-0.4c0-0.1-0.2-0.1-0.2-0.1h-0.2c0.1-0.1,0-0.1,0-0.2c0,0-0.3,0.1-0.2,0h0.1l-0.1-0.1
			c-0.1-0.1-0.1-0.1-0.2-0.3h0.1v-0.1L-155.7,245.8 M-155,245.6v0.2h0.1L-155,245.6 M-151.1,246.3
			C-151.4,246.2-151.1,246.2-151.1,246.3L-151.1,246.3 M-151.2,245.7h-0.3v0.2h-0.1v-0.1l-0.1-0.2h-0.1c0.1,0.1,0,0.2,0,0.3h0.1
			c0,0.1,0.1,0,0.2,0h-0.1c0,0.1,0.1,0,0.1,0.1h-0.1l0.1,0.1h-0.1l-0.1-0.1v-0.1l-0.1,0.1l0.2,0.2v-0.1v0.1h0.2c0,0.2,0.1,0,0.2,0
			c0,0.1,0.1,0.2,0,0.3h0.3c0.1,0.2,0.3,0,0.3,0v0.1v-0.1c-0.1,0.1-0.2-0.1-0.3-0.2l-0.1-0.1V246l-0.1,0.1V246l0.1,0.1v-0.2v0.1
			h-0.1v-0.2L-151.2,245.7l0.1,0.1c0-0.1,0.1-0.2,0-0.3L-151.2,245.7 M-156,245.7v-0.1V245.7 M-156,245.6l0.1,0.2L-156,245.6h0.2
			v0.1l0.1-0.1H-156 M-152,245.5c-0.1-0.1-0.1,0-0.1-0.1h-0.1l-0.2,0.2v0.1l0.1,0.1v-0.1v0.1l0.1-0.1l-0.1,0.1
			c0.1,0,0.1-0.1,0.1-0.2v-0.1C-151.9,245.7-151.9,245.6-152,245.5v-0.2C-152,245.4-151.9,245.5-152,245.5 M-155.5,245.4l0.1,0.1
			h0.1v-0.1l0.1,0.1v0.1h-0.1v0.1c0.1-0.2,0.3-0.1,0.3,0.1v-0.2c0,0.1,0,0,0,0v-0.1h-0.2v-0.1c0,0.1,0.1,0,0.1,0H-155.5
			 M-156.1,245.4l0.1-0.1L-156.1,245.4 M-149.4,245.4c-0.2,0.1,0.2,0.2,0.3,0.2L-149.4,245.4h0.2H-149.4c0.1,0.1-0.1-0.2,0-0.2h-0.2
			C-149.6,245.4-149.5,245.4-149.4,245.4 M-156.7,245.2C-156.7,245.4-156.6,245.2-156.7,245.2 M-156.5,245.3h-0.1v0.1
			c-0.1-0.1-0.2,0-0.2-0.1h-0.1v0.2l-0.1,0.1c-0.1,0.3,0.2,0.1,0.4,0.2v-0.1l0.1-0.2l0.1-0.1L-156.5,245.3l0.1,0.1L-156.5,245.3
			c0.1,0,0.2,0.1,0.2-0.1h-0.1c0,0-0.1,0-0.1-0.1V245.3 M-152.2,245.2h-0.1H-152.2 M-151.7,245.1c0,0.3,0.3,0.1,0.3,0.1h-0.1
			L-151.7,245.1 M-150.9,245.1l-0.2,0.2v0.2h-0.1c0.1,0,0,0,0,0l0.2,0.4c0-0.1,0-0.3,0.1-0.2v0.1c0.1,0,0.2-0.1,0.2-0.2v0.1l0.1-0.1
			v-0.5h-0.1c0,0.1,0.1,0.2,0.1,0.3c0,0-0.1-0.3-0.2-0.2L-150.9,245.1v0.1V245.1v0.1C-150.9,245.1-150.8,245.1-150.9,245.1
			C-150.8,245-150.9,245.1-150.9,245.1 M-151.1,245c0,0,0.1,0.1,0.1-0.1L-151.1,245 M-154.3,244.8c-0.1,0.2-0.1,0.2,0,0.2
			c0,0-0.1,0.1,0,0.2C-154.3,245-154.2,244.9-154.3,244.8 M-155.1,244.8l-0.1,0.1L-155.1,244.8c-0.2,0-0.1,0.2-0.1,0.1l-0.1,0.1h0.4
			v0.1v-0.2C-154.8,244.9-155,244.9-155.1,244.8C-154.9,244.8-155.1,244.8-155.1,244.8 M-148.8,244.8
			C-148.8,245-148.7,244.8-148.8,244.8L-148.8,244.8L-148.8,244.8 M-155.2,244.5L-155.2,244.5L-155.2,244.5 M-154.8,244.4l0.1,0.1
			h-0.1c-0.1,0.1,0.1,0.1,0.1,0v0.1c0.1,0,0.1,0,0.1-0.1h-0.1L-154.8,244.4h0.1H-154.8h0.1H-154.8l0.1-0.1h-0.1V244.4 M-153.2,244.4
			c0.1-0.1-0.2-0.1-0.2,0l-0.1-0.1v0.1l-0.1-0.1v0.1c0,0,0.2,0.3,0.3,0.2c0-0.2,0.3-0.1,0.3-0.1l0.1,0.1l0.1,0.1v0.1l-0.2-0.1
			l-0.1,0.1l0.1,0.2c0,0.1,0.1,0.1,0,0.1v0.1c0,0.1,0.1,0.1,0.1-0.1c0.1,0,0.1-0.3,0.2-0.4v0.1c0,0.1,0,0.1-0.1,0.2l0.1-0.1h0.1
			v-0.1h-0.1c0.1,0-0.3-0.4-0.2-0.5l-0.1,0.1v-0.2L-153.2,244.4 M-155,244.3L-155,244.3l0.1,0.2h0.1h-0.1
			C-154.8,244.4-155,244.2-155,244.3 M-153.8,244.5h-0.2v-0.2c0,0,0-0.1-0.1,0l-0.2,0.2v0.1v-0.1c0,0.1,0.1,0.2,0.2,0
			c0,0.1,0,0.2,0.1,0.1c-0.1,0.1,0.1,0.2,0.1,0.2v0.1v-0.1l0.2,0.1C-153.7,244.8-153.8,244.5-153.8,244.5h0.1H-153.8
			c0.1,0,0-0.1,0.1-0.2l-0.1-0.1V244.5 M-155.6,244.1L-155.6,244.1c-0.1,0.1,0,0.1,0.1,0.2v0.1c0.1-0.1,0.1-0.1,0.1-0.2
			c0-0.1-0.1-0.1-0.1-0.1H-155.6 M-154.9,243.9v0.1V243.9 M-155.7,243.7h0.1H-155.7 M-153.6,243.7l-0.1,0.1h0.1
			C-153.7,243.7-153.5,243.7-153.6,243.7L-153.6,243.7 M-153.8,243.6L-153.8,243.6l-0.2,0.1v0.2c0.1,0,0.2,0.2,0.2,0V243.6l0.1,0.2
			v-0.1L-153.8,243.6 M-152.5,242.9h0.2c0-0.1-0.1,0-0.1,0H-152.5L-152.5,242.9L-152.5,242.9 M-154.8,242.9h0.1
			c0.1,0,0.1-0.2,0.1-0.2h-0.1C-154.8,242.7-154.8,242.8-154.8,242.9 M-152.7,242.8v0.2V242.8L-152.7,242.8L-152.7,242.8
			c0,0,0.1-0.1,0-0.1V242.8 M-154.9,242.6C-154.8,242.6-154.8,242.7-154.9,242.6 M-153.6,242.5
			C-153.7,242.6-153.6,242.5-153.6,242.5 M-154.8,242.6L-154.8,242.6v-0.1C-154.8,242.4-154.9,242.6-154.8,242.6 M-154,242.4v0.1
			V242.4v0.1c0-0.1-0.1,0.1-0.2,0.2h0.1h-0.1h0.1v-0.1v0.1h0.1h-0.1h0.1v-0.1l0.2-0.1v-0.1H-154 M-153.5,242.3c0-0.1-0.1,0-0.1,0.1
			L-153.5,242.3c0.1,0.1,0,0.3,0.1,0.2c0,0.1,0.1,0.2,0.1,0.1c0.1,0,0.1,0,0.2-0.1v0.1h0.1l0.1-0.1h-0.2c0,0,0-0.1-0.1-0.2l0.1,0.1
			h-0.2v-0.1v0.1L-153.5,242.3C-153.5,242.4-153.5,242.4-153.5,242.3 M-151.9,242.2C-151.9,242.3-151.9,242.2-151.9,242.2
			 M-153.6,242.2v-0.1V242.2 M-155.7,242l-0.1,0.2L-155.7,242v0.2V242 M-151.8,242C-151.5,242.1-151.7,242-151.8,242v-0.1V242
			 M-154.4,241.9l-0.1,0.1L-154.4,241.9L-154.4,241.9l-0.2,0.2l0.1-0.1L-154.4,241.9v0.1l0.2-0.1
			C-154.2,241.9-154.4,242-154.4,241.9 M-154.3,241.8l0.1,0.1v0.1l0.1-0.1c-0.1,0,0,0-0.1,0.1C-154.2,241.8-154.1,241.8-154.3,241.8
			 M-152.2,241.8L-152.2,241.8L-152.2,241.8 M-154.1,241.7v0.1V241.7 M-153.8,241.7c0,0.1,0.1,0,0.2,0H-153.8 M-154.7,240.2
			c-0.3,0.2-0.1,0.3-0.1,0.2v-0.1L-154.7,240.2v0.1V240.2 M-152,240.2v0.2c0-0.1,0.1-0.2,0.1-0.3L-152,240.2 M-155.4,240l-0.1,0.1
			c0,0.1,0.1,0.1,0.1,0.1V240 M-155,240v-0.1V240 M-155.7,239.9L-155.7,239.9L-155.7,239.9 M-154.8,239.7v0.2c0,0.1,0.1,0,0.1,0
			L-154.8,239.7h0.1c-0.1,0.1,0.1,0,0.1,0C-154.7,239.7-154.7,239.6-154.8,239.7 M-156.2,239.9L-156.2,239.9L-156.2,239.9
			 M-155.5,239.7c0.1,0.1,0,0.1,0,0.1v0.1h0.1l-0.1,0.1c0.3-0.1,0-0.1,0.1-0.2l-0.1,0.1V239.7 M-156.8,239.6
			C-156.7,239.6-156.8,239.6-156.8,239.6 M-153.6,239.5c-0.1,0.1,0,0.1-0.1,0.1c0,0,0.1,0.2,0.1,0.1l-0.1-0.1L-153.6,239.5
			 M-154.8,239.4v0.2C-154.9,239.5-154.8,239.5-154.8,239.4l-0.1,0.2l0.1-0.1V239.4 M-156.6,239.4L-156.6,239.4l-0.1,0.2
			c0,0-0.1,0.1,0,0.1v0.1v-0.1l0.1,0.2c0.1-0.2,0,0.2,0.1,0.2l0.1-0.1v0.1V240h-0.1l0.1-0.1v-0.1v0.1l-0.1-0.1
			c-0.1-0.1,0.1-0.1,0.1-0.2L-156.6,239.4 M-155.7,239.3C-155.6,239.3-155.7,239.4-155.7,239.3 M-156.8,239
			C-157,239-156.7,239.1-156.8,239 M-153.8,239C-153.8,239.1-153.7,239.2-153.8,239C-153.8,239-153.8,239.1-153.8,239 M-155.7,238.7
			l0.1,0.2l0.1-0.1c0.1,0.1,0.2,0,0.2,0.2h-0.1v0.1h-0.1c0.1,0.1,0.1,0.2,0,0.2v0.1l0.3-0.1l-0.2-0.1c0.1,0,0.1-0.2,0-0.3l-0.1-0.1
			v-0.1v0.1v-0.1H-155.7 M-155.5,238.6C-155.5,238.5-155.7,238.6-155.5,238.6 M-155.7,238.4v0.1V238.4 M-155.3,238.2
			C-155.3,238.4-155.2,238.2-155.3,238.2 M-150.3,256.6L-150.3,256.6L-150.3,256.6 M-148.2,253.6
			C-148.2,253.5-148.2,253.5-148.2,253.6 M-154.8,236.3v-3.5c0-0.4-0.3-0.7-0.7-0.7h-8.2c-0.4,0-0.7,0.3-0.7,0.7v18.4
			c0,0.5-0.4,0.6-0.6,0.2l-7.2-17.4l-0.3-0.7c-0.5-1.1-0.5-1.2-1.9-1.2h-8.9c-0.4,0-0.7,0.3-0.7,0.7v36.4c0,0.4,0.3,0.7,0.7,0.7h7.8
			c0.4,0,0.7-0.3,0.7-0.7v-18.4c0-0.5,0.4-0.6,0.6-0.2l7.2,17.4l0.3,0.7c0.2,0.7,0.9,1.2,1.6,1.2h5.5c2.3,0,4.2-1.9,4.2-4.2v-9.5
			c-0.1,0-0.3-0.1-0.3-0.1l-0.1-0.1l0.1,0.2h-0.2v-0.1v0.1l0.1-0.1h-0.2c0,0.2,0,0.3,0.1,0.2h0.1l0.1,0.1h-0.1l0.1,0.1
			c0,0-0.2,0-0.2-0.1v0.2v-0.1l-0.1,0.1l-0.1,0.1c-0.1,0.2,0,0.2,0,0.2h-0.3c-0.2,0-0.3,0.1-0.5,0.1l0.1-0.1l-0.1,0.1l-0.2-0.1h0.1
			c-0.1-0.1,0-0.3-0.2-0.3v0.2l-0.1-0.2l-0.1,0.1l-0.2,0.5v-0.1l0.1,0.1h-0.1l0.1,0.1l-0.1,0.4v-0.1c-0.2,0-0.2,0-0.2,0.2h-0.1v-0.1
			l-0.1,0.2h-0.1c0-0.1,0.1-0.3,0.1-0.4h-0.1l-0.2,0.2v-0.1l-0.1,0.3l-0.2,0.1v-0.1h-0.1c0,0.3,0.2,0.2,0,0.2l-0.1,0.1
			c-0.1,0.1-0.1,0.3-0.2,0.1c-0.1-0.2,0-0.3,0-0.3c0.1,0,0.1-0.3,0.2-0.4l-0.1,0.1v0.1v-0.1h-0.1c0,0-0.1-0.2-0.2-0.2
			c0-0.2-0.2-0.2-0.2-0.3l0.1-0.1l-0.1-0.2c0,0,0.1-0.1,0.2,0.1v-0.1c0.1-0.1,0.1-0.5,0.3-0.4c-0.2-0.2,0-0.4,0.1-0.5
			c0-0.1,0-0.5,0.2-0.3v-0.1h0.1v-0.1h0.1l-0.1-0.1l0.1-0.1h0.1h-0.3v-0.1v0.1v-0.2l0.3,0.1c0.1-0.1,0-0.2,0-0.2
			c0-0.1,0-0.2,0.1-0.3v0.1v-0.2v0.1l-0.1,0.1l-0.2,0.2v-0.1l-0.1,0.2h-0.1l-0.3,0.3v-0.1c-0.1,0.1-0.2,0.5-0.2,0.3l0.1,0.1
			c-0.1,0-0.2,0.1-0.1,0.2c-0.1-0.1,0,0.3-0.2,0.3c-0.1,0-0.1,0.2-0.2,0.3l-0.1-0.3h-0.1v0.1h-0.1c0,0.2-0.1,0.1-0.1,0.1h0.2v0.1
			l0.1-0.1v0.1h-0.1v0.1v-0.1v0.1h-0.2v-0.2h-0.1c0.1,0.1-0.1,0-0.1-0.1l-0.1-0.1l0.1-0.1h0.1v-0.2l0.1-0.2h0.1l0.1-0.1l-0.2,0.5
			l0.1-0.1l-0.1-0.3l-0.2,0.2c-0.2,0.2-0.4,0.3-0.3,0h0.1c0-0.1-0.2-0.4-0.1-0.4c-0.4-0.3,0-0.3,0.1-0.3c0,0,0.1-0.3,0.2-0.1
			c0.1-0.2,0.3-0.1,0.4,0h-0.1l0.1,0.2v-0.1l0.2-0.1h-0.1c0-0.1,0.1-0.1,0.1,0h0.1h-0.1c0,0,0.4-0.2,0.4-0.3l-0.1,0.1
			c0-0.1,0.1-0.1,0.1-0.1v-0.1h0.1v0.1c0.2-0.2,0.4,0,0.4-0.3h0.1v0.2l0.1-0.2c0.1,0.1,0.2-0.1,0.2-0.2c-0.2,0.1-0.5-0.1-0.6-0.1
			v-0.1h-0.2c0.1,0.1,0,0.1,0,0.2l0.1,0.1h-0.1l-0.2,0.1v-0.1h-0.1c0-0.1,0,0,0,0v-0.1c0,0-0.1,0,0,0.1h-0.1l0.2,0.1
			c0.1,0.1,0,0.3-0.1,0.1v-0.1l-0.1,0.1l0.1,0.2h-0.1l0.1-0.1l-0.1,0.1v0.2h-0.2c-0.1,0,0-0.3,0.1-0.3c0,0-0.1-0.3-0.1-0.1h0.1h-0.1
			v0.2v-0.1c0,0-0.2,0.1-0.1,0.1h-0.1v-0.2v0.1h-0.2c0,0.1-0.1,0-0.1,0.1v0.1l0.1,0.1c-0.1,0.1-0.1,0.2-0.2,0.3h-0.2l0.1-0.1h-0.4
			v-0.1v0.2v-0.1h0.1c0,0.1-0.2,0.2-0.2,0.2c0.1,0,0.1,0.1,0,0.2h-0.2v-0.3l0.1,0.1l-0.1-0.2h-0.1c0,0,0-0.2-0.1-0.1
			c0-0.1,0.1-0.1,0.1-0.1h0.1l-0.1-0.1h0.1c-0.1,0.1,0.1,0,0.1,0h-0.1c0.1-0.1,0-0.1,0-0.2c0,0.1,0.1,0.1,0.2,0.1v0.1v-0.1
			c0.1,0,0.2,0,0.2-0.1h0.1l-0.1-0.1l0.1-0.1h0.1h-0.1v-0.2v0.1c0,0.1-0.1,0.1-0.1,0.1h-0.1l0.1-0.1l-0.1,0.1h0.1v0.1
			c-0.1-0.1-0.2,0-0.2,0.1h-0.1c0-0.1-0.2-0.2,0-0.2c0-0.1-0.3-0.3-0.2-0.4c0-0.1-0.1-0.4-0.2-0.6h0.1c0-0.1,0.4-0.6,0.4-0.8h0.1
			c0,0,0-0.4,0.2-0.2h-0.1h0.1v-0.3l-0.1,0.1c0-0.1-0.2-0.2-0.2-0.4c0.2,0,0.3,0,0.4-0.1c0-0.2-0.1-0.1-0.1-0.2h0.1v-0.1
			c0.2,0.1,0.1,0,0.3,0.2c0.1,0.1,0.1,0,0.1-0.1h0.1v-0.4c0.2-0.1,0.2-0.3,0.2-0.5c-0.1-0.2,0.1-0.2,0.1-0.3c0,0,0.2,0.1,0.1-0.1
			v-0.1c-0.2,0.2,0.1-0.1,0-0.2h0.1c0,0,0.1,0.2,0.2,0.1c-0.1-0.1,0-0.1,0-0.2h0.1c-0.1,0.1,0.3,0.3,0.4,0.3v0.1h-0.2l0.1,0.1
			c0-0.1,0-0.1,0.1-0.1v-0.1h-0.1V250l0.1,0.1h0.1V250h0.1v0.1c0,0,0.1,0,0.1-0.1h-0.1c0.1,0,0.2,0.1,0.1-0.1h0.1
			c-0.1-0.1,0.1-0.1,0.2-0.1c0-0.1-0.2-0.2-0.2-0.1l0.1-0.1c0-0.1-0.1,0.1-0.1,0.1v-0.1h-0.1v0.2v-0.1v0.1h-0.2l-0.1,0.2
			c0,0.1-0.1-0.2-0.1-0.4c-0.1-0.2-0.1-0.5,0-0.3c0-0.1,0-0.2-0.1-0.2s-0.1,0-0.1-0.2h0.3h-0.1l0.3-0.3h0.1c0-0.2,0.3-0.1,0.3,0
			c0.1-0.1,0.5-0.1,0.6-0.1c0-0.1,0.1-0.3,0.1-0.2h0.1V248l0.3-0.2h-0.1h0.3l0.1-0.1h0.1v-0.1c0-0.1-0.2-0.1-0.3-0.1h0.1
			c0-0.2-0.3-0.3-0.2-0.2v-0.1v0.2c-0.1-0.1,0,0-0.1,0.1c-0.1,0-0.2-0.3-0.2-0.4c0.1,0,0.2-0.2,0.1-0.2v-0.1c0,0,0.3-0.4,0.4-0.6
			l0.1-0.1l0.1-0.1c-0.1-0.1,0,0-0.1-0.2h-0.1l0.1-0.1h-0.1c-0.1,0-0.2-0.1-0.3,0.1l0.1,0.1h-0.2v-0.1l-0.1,0.1v0.2
			c0-0.1-0.2,0-0.2,0.1s-0.3,0.1-0.3,0h0.2c-0.1,0,0.1-0.3,0-0.3v-0.1l-0.2,0.1c0.2,0,0,0.2-0.1,0.3h-0.2v0.2h-0.2
			c0,0,0-0.2-0.1-0.1v0.1c0-0.2-0.4,0.2-0.2,0.2c0.1,0.1-0.2,0.1-0.2,0.1v0.1l0.1-0.1v0.1v-0.1v0.1h-0.1l-0.1,0.1v0.2h-0.2
			c0.1,0,0.1-0.2,0.1-0.2h-0.1c0,0.3-0.2,0.2-0.2,0.1l-0.1,0.1h0.1l-0.1-0.1v0.2c0-0.1,0-0.2,0.1-0.2l-0.3,0.1l0.1,0.1h-0.2
			l-0.2-0.2l-0.1,0.1c-0.1-0.1,0.1-0.5,0.1-0.7v0.1c0-0.2,0-0.4,0.1-0.4l0.1-0.2c0.2,0,0.2,0.1,0.3,0.2c-0.1-0.1,0,0,0,0h0.2
			c0,0,0-0.1-0.1-0.1h-0.2l-0.1-0.1l0.1-0.1v-0.5c-0.1,0,0,0.1,0,0.1c-0.2-0.3-0.1-0.3,0-0.5h0.3v-0.4l0.1-0.1
			c0.1,0,0.1,0.1,0.1,0.2l0.2-0.1c0.1-0.1,0.2-0.1,0.2,0.1l0.1-0.2v0.1c0,0,0.1-0.2,0-0.2v0.1c0-0.2-0.2-0.3-0.1-0.5l0.2-0.3
			c0.1-0.1,0.2-0.1,0.4-0.3h-0.1h0.3l0.1-0.1c0,0.1,0.1,0.2,0.1,0.2v-0.1c0.1,0.1,0.1,0,0.1,0c0-0.1,0.4-0.2,0.4-0.2v-0.4v0.1
			l0.1-0.1l0.2-0.1c0-0.1,0.2-0.1,0.2-0.3l0.1,0.1l-0.1-0.2h0.1v0.1h0.1c0,0,0-0.1,0,0v0.1l0.1,0.1v-0.1c0-0.1-0.1-0.2,0-0.3
			c0,0-0.5,0.2-0.6,0.2l-0.1-0.1c0,0-0.5,0.3-0.6,0.1h0.1l-0.3-0.1v0.1v-0.5c0.1-0.1,0.3,0,0.3-0.2c0,0,0.3,0,0.3,0.2
			c0.3-0.5,0.3-0.4,0.3-0.6c0,0,0.2-0.1-0.1,0l-0.1,0.1V241l0.1,0.1l0.1-0.2v0.1v-0.1v0.1v-0.3l0.1,0.2l0.1-0.4h0.3l-0.1,0.1h0.2
			l-0.1-0.1l-0.1-0.1c0.1,0,0,0,0-0.1c0-0.1-0.1-0.1-0.1-0.1s-0.3-0.1-0.3-0.3c0.1,0.2,0.1-0.2,0.1-0.2c0,0.1-0.1,0.1-0.2,0h-0.1
			c0-0.1,0-0.2,0.1-0.3h-0.1c0-0.1,0-0.2-0.1-0.3c0.2,0,0-0.3-0.1-0.3c-0.1-0.3,0.2-0.2,0.3-0.4h-0.1c0-0.2,0.3-0.4,0.5-0.4l0.2,0.2
			h0.1c-0.2,0-0.2-0.4-0.1-0.5c0.2,0,0.5-0.3,0.7-0.3l0.1,0.1c0.1,0.1,0.2,0.2,0.2,0.1v0.1c0-0.1,0.4-0.1,0.3,0.2c0,0,0.1,0,0.1,0.1
			l0.1-0.1c0.1,0,0.5,0,0.5,0.1l0.1-0.2c0-0.1,0.1-0.2,0.1-0.2v0.1h0.1v-0.1v0.1h0.3c0.1,0,0.3,0,0.3-0.1c0,0.3,0.2,0.2,0.2,0.4
			v-0.1v0.1v-0.1l0.1,0.1c0,0-0.1,0.1,0,0.2c-0.1,0.1,0,0.2,0,0.3v-0.1l-0.1,0.2c-0.1-0.1-0.2,0-0.3,0c0,0.2,0.2,0.3-0.1,0.4h0.1
			h-0.1c0,0,0.6,0.5,0.2,0.5c0,0,0.3,0.2,0.3,0l0.3-0.3v0.1c0.1,0,0.1-0.3,0.1-0.3h0.1c0.1-0.1,0.2-0.1,0.2,0.1
			c0.1-0.1,0.1-0.1,0-0.2v-0.2l0.2-0.1v0.3c0,0-0.1,0.2,0,0.3c0,0,0.4-0.2,0.2-0.3h0.3c0.1,0.1,0.2,0.2,0.1,0.4c0,0-0.1,0.2-0.2,0.3
			h0.1c0,0-0.1,0,0,0.2l0.1-0.1v0.2c0,0.2,0.2,0,0.2,0.3c0-0.1,0.1,0.3,0.1,0.4l0.1-0.1c0.1,0.2,0,0.3-0.1,0.4
			c0.1,0.1,0.1,0.1,0.1,0.3v0.1l0.2,0.1c0.1,0,0,0.1,0.1,0.2c0,0.2-0.1,0.2-0.1,0.2l-0.3,0.6l-0.3-0.2v0.1h0.1v0.3
			c0,0.1,0.2,0,0.2-0.2l0.1,0.1c0-0.2,0.1-0.1,0.2-0.2c0.1,0.1,0.3,0,0.2,0c0.1-0.2,0.2-0.1,0.4-0.1v0.1l0.1-0.1h0.1
			c0,0.2,0.1,0.2,0.2,0c0.2,0,0,0.5,0.1,0.6c0,0.1,0,0,0,0v0.2h0.2l-0.1,0.2l-0.2,0.2l0.1,0.2c-0.1,0,0,0.1-0.1,0.2
			c-0.2-0.5-0.2-0.3-0.1-0.2v0.1c0-0.1,0.1-0.1-0.1-0.1l-0.1,0.1c-0.2,0,0,0.2,0,0.3c0.1-0.2,0.2-0.1,0.3-0.1h0.2c0,0.1,0.1,0,0.2,0
			h0.1v0.1c0.1-0.1,0.3,0,0.3-0.4c0.1,0,0.1,0,0.2-0.1v0.1h0.1v0.1h0.1v0.2c0,0,0,0.1-0.1,0.2c0,0.1-0.1,0.2-0.2,0.2
			c0.1,0.1,0,0,0,0.1l0.2,0.1c0.1,0.1,0.2,0.2,0.3-0.1l0.3-0.2l0.1,0.2l0.1-0.1v0.1v-0.1h0.1l-0.1,0.4l-0.1-0.1l-0.1,0.1h-0.1v0.1
			l-0.1,0.1h0.1c0,0.2,0.2,0.2,0.3,0.3c0,0.3-0.1,0.3-0.3,0.4h0.1c0-0.2-0.1,0-0.1,0c-0.1,0.1-0.2,0.3-0.4,0.3v0.2V246v0.4
			c0,0-0.1-0.2-0.1,0.1l-0.1-0.3v0.2c0-0.1-0.1-0.1-0.2-0.1c0.1,0.1,0,0.1,0.1,0.3h-0.2v-0.2v0.1v-0.2l-0.2,0.2l-0.1-0.2v0.2
			l0.1,0.1v-0.1l0.1,0.1l0.1-0.1v0.1h0.1c0,0,0.1,0.1,0,0h0.1v0.1l0.2-0.1v0.2c0.1-0.1,0.1,0,0.3,0.1l0.1-0.1c0,0.2,0,0.3-0.2,0.3
			c0.1,0.1-0.2,0.2-0.2,0.2c-0.1,0-0.1-0.1-0.1,0.1h-0.2v0.1h-0.1v0.1v-0.1c0,0,0.1,0.1,0.1,0c0.2,0.1-0.3,0.3,0.3,0.1l0.1,0.1
			l0.1,0.1l-0.1,0.4h0.1h-0.1v0.3c0.2-0.1,0.1,0.2,0,0.2v0.2c0.5,0.1-0.3,0.7-0.2,0.5v-0.3h-0.2c-0.3,0,0-0.1-0.1-0.2h-0.1v0.1h-0.1
			c0.1,0,0.1,0,0.1,0.1c-0.1,0-0.2,0-0.1,0.1h-0.1h0.1h-0.1c-0.1,0,0.1,0.2,0.2,0.1l0.1,0.2v0.1c0.1-0.2,0.1,0,0.2,0.1v-0.1
			c0,0-0.1,0.3-0.2,0.2l0.1,0.1c-0.1,0-0.2,0.1-0.1,0.1c0.1-0.1,0.1,0.1,0.1,0.2h-0.6V250h-0.1v-0.1l-0.1,0.1h0.1l-0.3,0.2v0.1h-0.1
			v0.1c0,0,0-0.2-0.1,0h-0.1v0.1h0.1v0.2h-0.1l-0.2,0.3h0.1h-0.2c0,0,0.1-0.1,0.1,0v0.1c0.1,0.1,0.1,0.2,0.2,0.1v0.1
			c0.1,0,0-0.2,0.1-0.1c0,0,0.1,0.3,0.1,0.1v0.1c0,0,0.4,0,0.3,0.2v0.1l0.1-0.1c0.1,0,0.4,0,0.5-0.1c0,0.1,0.1,0.1,0.2,0v0.2
			l0.1-0.2c0,0.2,0.1-0.1,0.2-0.1h0.1v0.4l0.1-0.1v0.2l-0.1,0.1h0.1v0.2l0.2,0.2c0.1-0.1-0.1-0.1,0.1-0.1c0,0.1,0.1,0,0.1-0.1v0.1
			h0.3c0.1,0-0.1,0.1,0,0v-0.1h0.1v0.1c0,0.1,0.2,0,0.1,0.1v-0.1l0.3,0.5v-0.1v0.2c-0.2,0.3-0.1,0.3-0.3,0.3h-0.1h0.1h-0.1
			c-0.1,0-0.1,0.1-0.3,0c-0.1,0-0.2,0.1-0.2,0.2v0.2c0,0-0.2,0.2-0.2,0.1v0.1l-0.1,0.1c0,0,0.2,0.1,0.2,0l0.1-0.1
			c0.1-0.1,0.1-0.2,0.2,0.1c0,0,0.1-0.2,0.1,0c0-0.1,0.1-0.1,0.1,0h0.1v-0.1v0.1v-0.1l0.1,0.1l0.2-0.1v0.1c0.1-0.2,0.4-0.4,0.5-0.4
			c0,0.2,0.3,0.1,0.2,0h0.2v0.5c-0.2,0-0.4,0-0.5,0.2h-0.2v0.2l-0.1,0.1v0.2h0.1v0.2l0.2,0.2v0.1v-0.1h-0.5l-0.3,0.3h-0.1l-0.1,0.1
			v-0.1h-0.2c-0.1,0.1-0.3,0.2-0.4,0.3l-0.1-0.2l-0.1-0.1l-0.1,0.1l-0.1,0.2v0.1l-0.1,0.1c0.1-0.1,0.1,0,0.1,0l-0.1,0.1v-0.1
			l-0.1-0.1v0.1l-0.1,0.1l-0.1-0.1h0.1h-0.1c0-0.1,0,0,0.1-0.1l-0.1-0.1c0,0.3-0.1,0.2,0.1,0.4h-0.2h0.1v0.1c-0.1,0,0,0.1,0,0.2
			v-0.1l-0.1,0.2c0.2,0.1,0.2,0.1,0.1,0.1l-0.2-0.1l-0.4-0.3c0.1-0.2,0-0.1,0-0.2c0-0.1-0.1-0.1,0.1-0.2v-0.1l-0.1,0.1v-0.1
			c-0.1,0-0.3-0.1-0.3-0.2h0.1v-0.1h0.1v-0.1l0.1,0.1l0.1,0.1v0.1c0.1-0.1,0-0.2,0-0.3h-0.1v-0.1v0.1l-0.1,0.1l0.1,0.1h-0.1v-0.1
			c0,0-0.1-0.1-0.1,0v-0.2l0.2-0.1h-0.1l0.1-0.1v-0.2c0.1-0.2-0.2-0.2-0.1-0.2h-0.1v-0.2c0.1,0,0.1-0.1,0-0.1v0.1
			c-0.1-0.2,0-0.1,0-0.4h-0.1l0.1,0.1c-0.1,0-0.5-0.2-0.4-0.4v0.1c0.1-0.1,0-0.1,0-0.1v-0.1l-0.2,0.2l0.1,0.3l-0.1,0.2h-0.1
			c0,0-0.5,0.3-0.4,0.1h-0.3c0-0.1-0.3-0.1-0.3,0v0.1h0.1l0.1,0.1l-0.1,0.1c0,0,0.1,0.1,0.1,0.2c0.2,0,0.3,0.1,0.6,0.2V255l0.1,0.1
			v0.1h0.3c-0.1,0.1,0.2,0.1,0.2,0.1l-0.1,0.2c0.1-0.1,0.3,0.2,0.1,0.2c0-0.1-0.1-0.2-0.2-0.2v-0.2l-0.1,0.1c0-0.1,0,0-0.1,0.1v-0.1
			l-0.2-0.1h-0.2h0.1h-0.1c0-0.1-0.1-0.1-0.2-0.1h0.1v0.1c0-0.1,0-0.2-0.2-0.2h-0.1v0.1h-0.1v0.1l-0.2,0.2c-0.1-0.2-0.3-0.2-0.4-0.1
			v-0.1l-0.2-0.1h-0.1v-0.1v0.1v-0.1l-0.3-0.1h-0.2h0.1l-0.2-0.1v0.2l-0.1,0.1v-0.1h-0.2v0.1h-0.1v0.2h0.1v0.1h-0.1
			c0,0.1,0,0.1,0.1,0.1l0.1,0.1h-0.1h0.1c0.1,0.1-0.1,0.2,0.1,0.3l-0.2,0.2l-0.1-0.1h-0.1V256l-0.1,0.1l-0.1,0.1v9.8
			c0,2.3,1.9,4.2,4.2,4.2h8.5c8.8,0,11.9-4.1,13-8c0.4-1.6,0.6-3.2,0.6-4.3v0.2v-2.4c0-0.4-0.3-0.7-0.7-0.7h-7.8
			c-0.4,0-0.7,0.3-0.7,0.7v0.3c0,3.6-0.5,5.2-4.3,5.2c-4,0-4.3-2.5-4.3-6.5v-7.6c0-4,0.3-6.5,4.2-6.5h0.1c3.9,0,4.3,1.6,4.3,5.4v0.4
			c0.1,0.3,0.4,0.6,0.7,0.6h7.8c0.3,0,0.6-0.2,0.7-0.5v-2.1c0-1-0.1-3.1-0.5-4.7c-1-3.8-3.9-7.9-12.3-8.1h-2.4
			C-150,231.2-153.1,233.5-154.8,236.3"/>
	</defs>
	<clipPath id="SVGID_2_">
		<use xlink:href="#SVGID_1_"  style="overflow:visible;"/>
	</clipPath>
	<path class="st1" d="M-184,231.2h55.9V270H-184V231.2z"/>
</g>
<g>
	<path class="st0" d="M-128.1,269.6l0.3-0.3c0.3,0.2,0.5,0.3,0.8,0.3c0.3,0,0.5-0.1,0.5-0.3v0c0-0.2-0.1-0.3-0.6-0.4
		c-0.6-0.1-0.9-0.3-0.9-0.8v0c0-0.5,0.4-0.8,0.9-0.8c0.4,0,0.7,0.1,1,0.3l-0.3,0.4c-0.2-0.2-0.5-0.3-0.7-0.3c-0.3,0-0.4,0.1-0.4,0.3
		v0c0,0.2,0.1,0.3,0.6,0.4c0.6,0.1,0.9,0.3,0.9,0.8v0c0,0.5-0.4,0.8-1,0.8C-127.4,270-127.8,269.9-128.1,269.6z"/>
	<path class="st0" d="M-125.5,267.3h0.5l0.8,1.3l0.8-1.3h0.5v2.7h-0.5V268l-0.8,1.3h0l-0.8-1.2v1.9h-0.5V267.3z"/>
</g>
</svg>
