<?xml version="1.0" encoding="utf-8"?>
<!-- Generator: Adobe Illustrator 19.0.0, SVG Export Plug-In . SVG Version: 6.00 Build 0)  -->
<!DOCTYPE svg PUBLIC "-//W3C//DTD SVG 1.1//EN" "http://www.w3.org/Graphics/SVG/1.1/DTD/svg11.dtd">
<svg version="1.1" id="Layer_1" xmlns="http://www.w3.org/2000/svg" xmlns:xlink="http://www.w3.org/1999/xlink" x="0px" y="0px"
	 viewBox="-166 231.2 166.4 38.8" style="enable-background:new -166 231.2 166.4 38.8;" xml:space="preserve">
<style type="text/css">
	.st0{fill:#FFFFFF;}
	.st1{clip-path:url(#SVGID_2_);fill:#FFFFFF;}
</style>
<path class="st0" d="M-5.7,248.9C-5.9,248-6,248-6.3,248l-1.7,0.2l-0.1,0.2l0.4,0.4c0.2,0.2,0.3,0.3,0.4,0.7c0.4,2,0.8,4.5,1.1,6.8
	l-0.9,1.4c-0.7,1.2-1.8,1.7-2.7,1.8l-0.1,0.2c0.3,0.4,1.3,0.6,1.9,0.6c0.6-0.3,1.1-1,1.8-2l5.6-8.9c0.1-0.2,0.2-0.3,0.4-0.5l0.6-0.4
	c0.1-0.1,0.1-0.2-0.1-0.2H-2l-0.1,0.2l0.2,0.4c0.1,0.2,0,0.5-0.2,0.9l-3,4.8C-5.2,252.5-5.4,250.5-5.7,248.9L-5.7,248.9z
	 M-11.3,249.2H-9l0.3-1h-2.4l0.5-2.3l-1.8,0.6l-0.4,1.7h-1.3l-0.3,1h1.3l-1.2,5.2c-0.3,1.5,0,2.4,1.2,2.4c1,0,1.7-0.9,2.5-2.3
	l-0.3-0.2c-0.8,1.1-1.2,1.6-1.6,1.6c-0.5,0-0.4-0.7-0.3-1L-11.3,249.2z M-23.3,253.4c-0.1,2.1,1.3,3.4,3,3.4c1.3,0,2.8-0.7,4-2.5
	l-0.2-0.2c-1,1-2.2,1.5-3,1.5c-1.3,0-2.2-0.8-2-2.5c2.1-0.1,5.7-0.5,5.9-3c0.1-1.3-1.2-2.1-2.6-2.1C-20.5,248-23,250.1-23.3,253.4
	L-23.3,253.4z M-18.4,249.1c0.5,0,1.1,0.3,1.1,1c-0.1,1.2-1.7,2-4.1,2.1C-21,250.7-19.9,249.1-18.4,249.1z M-29.4,257.4
	c-0.3,1.4-1,1.9-2.1,1.9l-0.1,0.2c0.4,0.3,1.1,0.5,1.8,0.6c0.8-0.1,1.5-0.7,1.9-2.4l1.9-8.5h2.3l0.3-1h-2.4l0.2-1
	c0.4-1.8,1.2-2.3,2-2.3c0.6,0,1.2,0.4,1.2,1.1l0.2,0.1c0.4-0.5,0.6-1.2,0.7-1.7c-0.7-0.3-1.3-0.4-2-0.4c-1.8,0-3.2,1.2-3.6,3.3
	l-0.2,0.9h-1.2l-0.3,1h1.2L-29.4,257.4z M-33,250.8c-0.7,3-2.2,4.6-3.4,4.6s-1.8-1.5-1.1-3.5c0.5-1.5,1.9-2.9,3.5-2.9
	c0.5,0,1,0.1,1.4,0.2C-32.6,249.2-33,250.8-33,250.8z M-31.3,250.6c0.1-0.4,0.2-0.9,0.7-1.6l0.1-0.1c-1.2-0.6-2.6-0.9-3.3-0.9
	c-3.1,0-4.8,2.2-5.4,4.1c-0.8,2.8,0.6,4.7,2.2,4.7c1.1,0,2.2-0.5,3.3-2.2h0.1c-0.3,1.1-0.2,2.1,1,2.1c0.8,0,1.4-0.8,2.1-2l-0.3-0.2
	c-0.6,0.7-0.9,1.2-1.2,1.2c-0.4,0-0.3-0.5-0.2-0.7L-31.3,250.6L-31.3,250.6z M-43.4,245.6c1.5,0,2.2,0.9,2.2,2h0.2
	c0.4-0.6,0.8-1.7,0.9-2.3c-0.6-0.3-1.9-0.7-3-0.7c-2.4,0-3.9,1.2-4,2.7c-0.4,3.3,4.3,3.7,4,6.2c-0.2,1.3-1.3,2.2-2.7,2.2
	c-1.6,0-2.4-0.7-2.6-2.5h-0.3c-0.2,0.8-0.4,2.1-0.4,2.7c0.4,0.4,1.8,0.9,3.2,0.9c1.9,0,4.2-1,4.5-3.4c0.4-3.6-4.2-3.7-4-6.3
	C-45.3,246.2-44.3,245.6-43.4,245.6z M-56,249c1.1,0,1.7,0.6,1.7,1.8h0.2c0.3-0.5,0.7-1.5,0.8-2.1c-0.6-0.4-1.6-0.7-2.5-0.7
	c-2.8,0-5.2,2.8-5.4,5.4c-0.2,2.2,1.3,3.4,3,3.4c1.4,0,2.8-0.7,4-2.5l-0.2-0.2c-1,1-2.2,1.6-3,1.6c-1.3,0-2.2-0.7-2-2.5
	C-59.3,251.3-57.9,249-56,249z M-65.8,254.7c-0.3,1.3,0,2.1,1,2.1c0.9,0,1.5-0.8,2.1-2l-0.3-0.2c-0.6,0.7-0.9,1.2-1.2,1.2
	c-0.4,0-0.3-0.5-0.2-0.7l0.8-3.2c0.1-0.5,0.6-2.5,1.2-3.6v-0.1l-2.8,0.3c-0.1,0-0.2,0.1-0.1,0.2l0.5,0.5c0.1,0.1,0.2,0.3,0.1,0.6
	L-65.8,254.7z M-63.9,246c0,0.6,0.4,1.1,0.9,1.1s1-0.5,1.1-1.1c0-0.6-0.4-1.1-0.9-1.1S-63.9,245.4-63.9,246z M-70.2,254.7
	c-0.3,1.3,0,2.1,1,2.1c0.9,0,1.5-0.8,2.1-2l-0.3-0.2c-0.6,0.7-0.9,1.2-1.2,1.2c-0.4,0-0.3-0.5-0.2-0.7l1.7-7.3
	c0.1-0.5,0.6-2.5,1.2-3.6v-0.1l-2.8,0.3l-0.1,0.2l0.5,0.5c0.1,0.1,0.2,0.3,0.1,0.6C-68.2,245.7-70.2,254.7-70.2,254.7z M-78.1,254
	c0.7-3,2.2-4.6,3.4-4.6c1.2,0,1.8,1.5,1.1,3.5c-0.5,1.5-1.9,2.9-3.5,2.9c-0.5,0-1-0.1-1.4-0.2C-78.5,255.6-78.1,254-78.1,254z
	 M-79.8,254.2c-0.1,0.4-0.2,0.9-0.7,1.6v0.1c1.3,0.6,2.3,0.8,3.3,0.9c3.1,0.1,4.8-2.2,5.4-4.1c0.8-2.8-0.6-4.7-2.2-4.7
	c-1.1,0-2.2,0.5-3.2,2l0.5-2.3c0.1-0.5,0.6-2.5,1.2-3.6V244l-2.8,0.3c-0.1,0-0.2,0.1-0.1,0.2l0.5,0.5c0.1,0.1,0.2,0.3,0.1,0.6
	C-77.8,245.6-79.8,254.2-79.8,254.2z M-83.5,250.9c-0.7,3-2.2,4.6-3.4,4.6c-1.2,0-1.1-0.9-0.7-2.4l0.9-3.8c0.3-1.1,0.2-1.2-0.2-1.2
	l-2.1,0.1l-0.1,0.2l0.5,0.5c0.1,0.1,0.2,0.3,0.1,0.6l-0.9,3.7c-0.6,2.5,0.2,3.7,1.8,3.7c1,0,2.2-0.6,3.3-2.2h0.1
	c-0.3,1.1-0.2,2.1,1,2.1c0.8,0,1.4-0.8,2.1-2l-0.3-0.2c-0.6,0.7-0.9,1.2-1.2,1.2c-0.4,0-0.3-0.5-0.2-0.7l1.6-7c0-0.1,0-0.1-0.1-0.1
	l-1.4,0.1c-0.1,0-0.2,0.1-0.2,0.2C-82.9,248.3-83.5,250.9-83.5,250.9z M-94,245.8c1.1,0,2.3,0.5,1.9,2.8c-0.3,1.5-1.4,2.5-2.6,2.5
	c-0.5,0-1.1-0.1-1.4-0.2c0.5-2,1-4.4,1.2-5C-94.9,245.8-94.3,245.8-94,245.8z M-93.8,244.7c-0.6,0,0,0-3.1,0.1l-0.1,0.3
	c0.3,0.6,0.1,1.8-0.5,4l-1.5,6.3c-0.1,0.2-0.2,0.4-0.4,0.6l-0.6,0.5c-0.1,0.1-0.1,0.2,0,0.2h3.4c0.1,0,0.1-0.1,0.1-0.2L-97,256
	c-0.1-0.2-0.2-0.3-0.1-0.6l0.8-3.6c0.6,0.1,1,0.2,1.5,0.2c2.2,0,4.1-1.5,4.4-3.7C-90.1,245.7-92,244.7-93.8,244.7z M-140.7,257.5
	l0.1-0.1L-140.7,257.5 M-140.9,257.2v-0.1V257.2 M-140,257.1v0.4h0.1C-140,257.3-139.9,257.2-140,257.1 M-142.1,256.6
	c0.1,0.1-0.1,0.2,0,0.2V256.6 M-140.7,256.4l0.1,0.1L-140.7,256.4L-140.7,256.4 M-139.2,256.4v0.1h0.1l0.1-0.1H-139.2 M-140.1,256.2
	l0.1,0.1L-140.1,256.2 M-140.3,256.2c-0.1,0.1,0,0.1,0,0.1V256.2 M-139.4,256.2v-0.1V256.2 M-140,256l0.1,0.1
	C-139.8,256.1-139.8,256-140,256C-139.8,256.1-139.9,256-140,256C-139.9,256.1-139.9,256-140,256 M-140.5,256
	C-140.4,256-140.4,256-140.5,256 M-139.6,255.9l-0.1,0.1h0.1V255.9 M-137.8,255.8v0.1V255.8c0,0.1-0.1,0.2-0.1,0.2h0.1
	c0,0,0-0.1,0,0V255.8 M-140.4,255.9l0.1-0.1L-140.4,255.9z M-140.3,255.6c0.1,0,0,0.1,0,0.1V255.6L-140.3,255.6 M-141.5,255.7h-0.1
	v-0.1c0,0.1-0.2,0.4-0.3,0.3C-141.9,256.2-141.5,255.7-141.5,255.7l0.1-0.1L-141.5,255.7 M-139.1,255.5l-0.1,0.1
	c0,0.2,0.1,0.1,0.2,0L-139.1,255.5 M-138.6,255.5h0.1v-0.1L-138.6,255.5l0.1-0.1L-138.6,255.5 M-131.8,255.5l-0.1,0.1l0.1,0.1V255.5
	L-131.8,255.5c0,0.2,0,0.3,0.1,0.2h-0.1V255.5l0.1,0.2l0.1-0.1v0.1c0-0.1,0.1-0.3-0.1-0.3c0.1,0,0,0.1,0,0c0,0.1-0.1,0,0,0
	L-131.8,255.5 M-142.4,255.3C-142.5,255.2-142.4,255.4-142.4,255.3 M-138.2,255.2C-138.1,255.3-138.2,255.2-138.2,255.2v-0.1V255.2
	 M-137.9,255L-137.9,255h0.1H-137.9 M-134.5,255l0.1,0.1c0.1,0,0.1,0,0.1-0.1h0.1v-0.1L-134.5,255 M-130,255L-130,255L-130,255
	L-130,255 M-136.2,255.2l0.2-0.1h-0.2V255V255.2 M-134.5,255.1v-0.2C-134.5,254.9-134.6,255.1-134.5,255.1 M-138.1,255.1v0.2
	c0-0.1,0.1-0.1,0.1-0.2l-0.1,0.1v-0.3V255.1v-0.2V255.1v-0.2V255.1 M-141.2,254.9v0.2V254.9 M-134.4,254.8v0.1V254.8l0.1,0.1
	L-134.4,254.8 M-132.1,254.8c0,0.1,0.1,0.3,0.1,0.3h0.2L-132.1,254.8L-132.1,254.8L-132.1,254.8 M-131.9,254.7
	C-132.1,254.8-131.9,254.7-131.9,254.7 M-141,254.7L-141,254.7c-0.1,0.1-0.2,0.3-0.2,0.3l0.1-0.1C-141.1,254.8-141,254.8-141,254.7
	h0.3H-141 M-131.8,254.7l0.1,0.2v0.1L-131.8,254.7l0.1,0.1C-131.7,254.6-131.7,254.7-131.8,254.7l0.1-0.1L-131.8,254.7
	 M-132.2,254.6v0.3l0.1,0.1L-132.2,254.6 M-132,254.5l0.1,0.1v-0.1C-131.9,254.5-131.9,254.6-132,254.5 M-135.7,254.5
	C-135.8,254.6-135.7,254.6-135.7,254.5L-135.7,254.5l0.1,0.1L-135.7,254.5 M-134.5,254.8l0.1-0.1l-0.2-0.1
	C-134.6,254.7-134.6,254.8-134.5,254.8 M-132.3,254.6l-0.1-0.2L-132.3,254.6 M-133.5,254.5h0.1H-133.5 M-137.7,254.4l0.2,0.1v-0.2
	l-0.2-0.1V254.4 M-136.2,254.2v0.2V254.2 M-141.8,254.2v0.2v-0.1v0.1V254.2 M-137.4,254.2h-0.1
	C-137.3,254.4-137.4,254.3-137.4,254.2 M-142.4,254.2C-142.4,254.1-142.3,254.2-142.4,254.2 M-141.7,254.1
	C-141.7,254.1-141.9,254.2-141.7,254.1 M-143,254.1C-143,254.2-143.2,254.2-143,254.1v0.2V254.1l0.1,0.1L-143,254.1l0.1,0.1
	L-143,254.1 M-132.5,254l0.1,0.1v0.1c0.1,0-0.1,0,0,0.1h0.1c0,0.2,0,0.1,0.1,0.1l0.1,0.1v-0.2v0.1l-0.3-0.2L-132.5,254L-132.5,254
	 M-141.5,254.1V254C-141.7,254-141.6,254.1-141.5,254.1 M-136.1,254.1C-136.2,254.1-136.1,254.1-136.1,254.1
	C-136.2,254.1-136.5,254.1-136.1,254.1l0.1-0.1v-0.2L-136.1,254.1 M-140.4,254h0.1H-140.4 M-133,253.7v0.1V253.7L-133,253.7
	 M-140.8,253.8l-0.2,0.2h0.1l0.1,0.2h0.1l0.1-0.1C-140.7,254.2-140.7,253.9-140.8,253.8l0.1,0.1
	C-140.6,253.8-140.7,253.7-140.8,253.8 M-140.2,253.8v0.1V253.8l0.2-0.2h-0.3L-140.2,253.8 M-134,253.8l0.1,0.1v0.3v-0.1h0.1
	c0.1-0.1,0.2,0,0.2,0l0.1-0.1c-0.1,0,0,0,0,0L-134,253.8c0-0.2,0-0.3-0.1-0.3C-134.1,253.6-134.1,253.7-134,253.8 M-139,253.4
	c0,0.1,0,0.2-0.1,0.2c0,0.1,0.1,0.3,0.1,0.3h-0.1c0,0.1,0.1,0.1,0,0.2c-0.1,0.1,0.1,0.1,0.2,0.2c0,0.1,0.4,0.3,0.5,0.1v-0.2
	c0,0.1,0.1-0.1,0.1-0.1c0,0.1,0.1-0.1,0.1-0.1v-0.1l-0.1,0.1c-0.1-0.1,0.1-0.2,0-0.2v-0.1c0,0.1,0.2-0.1,0.2-0.1l-0.1-0.1l0.1,0.1
	h-0.2l-0.3,0.4c0-0.2-0.1-0.3-0.2-0.4h0.1l-0.1-0.1h0.1l-0.1-0.1H-139 M-138.7,253.3v0.2h0.1v0.1c0-0.1,0.1-0.1,0.1-0.2
	L-138.7,253.3 M-133.8,253.2l0.1,0.1l0.1-0.1c-0.1,0.2,0.1,0.2,0.2,0.2v0.2v-0.1v0.1l0.1-0.1c0,0.1,0.1,0.1,0.1-0.1h-0.1l0.1-0.2
	h-0.1l-0.1-0.1c-0.1,0.1-0.1,0.1-0.1,0l-0.1,0.1c-0.1,0-0.2,0-0.2-0.1V253.2 M-134.7,253.1l0.1,0.1
	C-134.6,253-134.7,253.1-134.7,253.1 M-130.4,253C-130.4,253-130.5,253.1-130.4,253 M-133.9,253.1c0,0-0.2,0.1-0.1,0.1L-133.9,253.1
	v0.2C-133.9,253.6-133.6,253.3-133.9,253.1 M-135.2,253c0,0.2,0.1,0.1,0.1,0.2l0.3-0.2c-0.1,0-0.2-0.1-0.3-0.1L-135.2,253
	 M-130.3,253.1L-130.3,253.1C-130.3,253-130.4,253.1-130.3,253.1 M-142.8,252.7C-142.7,252.7-142.7,252.7-142.8,252.7 M-142.6,252.7
	L-142.6,252.7L-142.6,252.7 M-139.1,252.6l-0.1,0.1L-139.1,252.6L-139.1,252.6 M-136.3,252.5L-136.3,252.5L-136.3,252.5
	 M-142.7,252.4l0.2,0.1l-0.1,0.1l0.1,0.1l0.1-0.1v-0.1l-0.2-0.2L-142.7,252.4 M-138.7,252.2h0.1H-138.7l0.2,0.1l-0.1-0.1H-138.7
	 M-139.4,252.2l0.1,0.1v-0.1H-139.4 M-139,252.3C-139.1,252.3-139.1,252.4-139,252.3v0.2l0.1,0.1h0.1l0.1-0.1c0,0-0.1,0.2,0,0v0.1
	h0.2c0-0.2-0.2-0.1-0.2-0.2c0.1-0.1-0.1-0.1-0.2-0.1H-139l0.2-0.1C-138.8,252.1-139.2,252.2-139,252.3 M-135.6,252.2v0.1V252.2z
	 M-135.7,252.2c0-0.1,0.1-0.2,0-0.1V252.2V252h-0.1C-135.8,252.2-135.7,252.2-135.7,252.2 M-138.4,252.1h-0.1H-138.4
	C-138.4,252-138.5,252-138.4,252.1 M-135.2,252c0,0-0.1,0.2-0.1,0.3L-135.2,252L-135.2,252 M-137.5,252c0,0.1-0.2,0.1-0.2,0.2
	l0.1,0.1v0.1l-0.2,0.2l0.3,0.1l0.1-0.1l0.1,0.1h0.2l0.1,0.1c0-0.1,0-0.3-0.1-0.3v0.1v-0.4v0.1c0,0-0.1-0.1,0-0.1h-0.3
	C-137.3,252.2-137.4,252-137.5,252C-137.6,252.1-137.4,252-137.5,252 M-136,252C-136.1,252.1-136,252-136,252 M-137.4,252l0.1,0.1
	C-137.2,252-137.3,252-137.4,252 M-138,251.9v0.1V251.9v0.3h0.1c0-0.1,0-0.1,0,0l-0.1-0.1C-137.9,252.1-138,252-138,251.9
	 M-139.4,251.9c-0.2,0.1,0,0.2,0,0.2V251.9 M-136.3,251.9c0,0.1,0,0.3,0.1,0.1v0.1L-136.3,251.9 M-136.1,251.8c0,0,0,0.3,0.1,0.2
	c0.1,0.1,0.1,0.2,0.2,0.2l-0.1-0.1l0.1-0.1v-0.1c0,0-0.1,0.1,0,0h-0.1c0.1,0,0,0,0,0S-135.9,251.8-136.1,251.8 M-138.3,251.7h0.1
	H-138.3 M-135.7,251.6L-135.7,251.6L-135.7,251.6 M-139.1,251.6C-139.1,251.7-139.1,251.6-139.1,251.6 M-135.1,251.7
	c0,0.1,0.2,0.3,0.2,0.4v0.1V252v0.1v-0.5C-135,251.8-135,251.7-135.1,251.7l0.1-0.2L-135.1,251.7 M-142,251.6h0.1H-142
	 M-136.3,251.6l0.2,0.1l0.1-0.1v-0.1h-0.1l-0.1-0.1L-136.3,251.6 M-134.8,251.5h0.3c0-0.1-0.1-0.1-0.2-0.1L-134.8,251.5
	 M-134.5,251.4l0.1,0.1L-134.5,251.4 M-135.9,251.4L-135.9,251.4L-135.9,251.4 M-135.1,251.3l0.1,0.1L-135.1,251.3 M-136.1,251.4
	v-0.1C-136.2,251.4-136.2,251.4-136.1,251.4 M-135.2,251.4l0.1-0.1L-135.2,251.4 M-135.6,251.2L-135.6,251.2
	c-0.1,0.2-0.2,0.2-0.2,0.3c0,0,0.2,0,0,0.1l0.2-0.1V251.2 M-138.6,251.2c0-0.1-0.1,0-0.1,0.1L-138.6,251.2c0.1,0.1,0.1,0.2,0.1,0
	H-138.6 M-135.5,251.1C-135.5,251.1-135.6,251.3-135.5,251.1 M-135.9,251.1l0.1,0.1L-135.9,251.1L-135.9,251.1 M-134.6,251.1
	c0.1,0.1,0.1,0,0.1,0.1v-0.1H-134.6 M-134.7,250.8L-134.7,250.8L-134.7,250.8L-134.7,250.8 M-136.1,250.7
	C-136.2,250.7-136.2,250.7-136.1,250.7C-136.3,250.9-136.1,250.7-136.1,250.7 M-136,250.8C-136,250.8-136.1,250.8-136,250.8
	 M-133.2,250.7v0.2V250.7 M-140.1,250.6C-140.1,250.5-140,250.5-140.1,250.6L-140.1,250.6 M-135.5,250.5l0.2,0.1v-0.1H-135.5v-0.1
	V250.5 M-139.7,250.5C-139.7,250.6-139.7,250.6-139.7,250.5l0.1-0.2L-139.7,250.5 M-133,250.4v0.2h-0.1v-0.1c0,0,0.2,0.1,0.2,0v-0.1
	c0.1-0.1,0-0.2-0.1-0.2V250.4 M-134,251.6C-134,251.7-134,251.6-134,251.6 M-133.9,251.2l0.1,0.1
	C-133.9,251.4-133.9,251.3-133.9,251.2v0.1V251.2C-133.8,251.2-133.8,251.2-133.9,251.2 M-134.9,250.4l-0.1-0.1l0.3,0.3
	c0-0.2,0.3,0.2,0.3,0.2l0.1-0.2h0.1v0.1l-0.1,0.1v0.1v-0.1v0.1c0-0.1,0.1,0.1,0.1,0.1h-0.1c0,0.1,0.2,0.2,0.1,0.3h-0.1l-0.1,0.1
	c-0.1,0.3-0.1,0.1-0.2,0.1v-0.1h-0.1v0.4c0,0,0.2,0,0.1-0.1l0.1-0.1c0,0.1,0.1,0.1,0.1,0l0.1,0.2v0.1l0.3,0.1c0,0,0.4-0.4,0.2-0.5
	v-0.1h-0.1c0,0-0.1,0.1-0.1,0c0.1,0,0.1-0.2,0.1-0.2v-0.1h-0.1c0.2,0-0.1-0.3-0.2-0.2c0,0,0-0.4-0.2-0.3l-0.2-0.1l-0.1-0.2
	c-0.1,0,0.1,0.2,0,0.2C-134.7,250.4-134.8,250.4-134.9,250.4l0,0.1h0.1h-0.1v0.1l-0.1-0.2C-135,250.5-135,250.4-134.9,250.4h-0.2
	C-134.8,250.2-134.9,250.3-134.9,250.4 M-135.8,250.3h0.1H-135.8 M-133.3,250.3L-133.3,250.3L-133.3,250.3 M-135.7,250.2v0.1
	C-135.6,250.2-135.7,250.2-135.7,250.2 M-133.6,250.2v0.2h0.1c0,0.1,0,0.2,0.1,0c0,0.1,0,0.1,0.1,0.1h-0.1c0.1,0,0.3-0.1,0.3-0.2
	c0-0.1-0.2,0-0.3,0v-0.1h-0.1c0-0.2-0.1-0.1-0.1-0.1V250.2l0.1-0.1L-133.6,250.2 M-140.5,250.2v-0.1V250.2 M-133.3,250L-133.3,250
	C-133.3,250.1-133.2,250-133.3,250 M-139.7,250L-139.7,250L-139.7,250 M-133.5,250C-133.5,250-133.4,250.1-133.5,250 M-138.6,250
	l0.1-0.1L-138.6,250 M-138.7,250.6C-138.6,250.7-138.7,250.6-138.7,250.6 M-138.5,250.2h-0.2c-0.1-0.2-0.1,0.2-0.1,0.2l-0.1,0.1
	h-0.1l0.1,0.1h-0.2v0.1h-0.1c0,0,0,0.3,0.1,0.1v0.1c-0.1-0.1-0.2,0.1-0.2,0.2v0.1l-0.2-0.1v0.1h-0.1v-0.1c-0.1,0-0.1,0.2-0.2,0.1
	v0.2h0.1v0.1h0.1v0.2l0.2,0.1h-0.1l0.2-0.3v-0.1c0,0.1,0.1,0,0.1-0.1l0.3-0.1c-0.1-0.1,0-0.1,0-0.3c0.2,0,0.1,0.1,0.1,0.1
	c0.1,0,0,0,0.1-0.1h0.1v-0.1h0.2c0.1-0.3-0.1-0.4,0.1-0.4c0-0.1,0-0.2,0.1-0.1v0.1c0.2,0,0-0.2,0-0.2h0.2l0.1-0.1
	c-0.1,0-0.1-0.1-0.1-0.2C-138.3,249.9-138.5,250.2-138.5,250.2 M-140,249.9c0,0,0.1,0.1,0,0.2V250v0.2c0.1,0.2,0.2,0,0.1-0.2
	C-139.9,250-139.9,249.8-140,249.9 M-138.4,249.8C-138.4,249.9-138.4,249.9-138.4,249.8L-138.4,249.8L-138.4,249.8 M-132.9,249.7
	l0.1,0.2v-0.1h0.1v-0.1H-132.9 M-140.2,249.6c-0.2,0.1,0.1,0.4,0.1,0.3l-0.1-0.1h0.1L-140.2,249.6 M-140.2,249.5
	C-140.2,249.6-140.1,249.5-140.2,249.5 M-138.5,249.3l-0.1,0.1L-138.5,249.3C-138.6,249.3-138.6,249.4-138.5,249.3l-0.1,0.2v0.1
	h-0.1c0,0.1-0.1,0.2-0.1,0.1c-0.1,0-0.3,0.2-0.2,0.3c0.2,0,0.2-0.1,0.3-0.3l-0.1,0.1l0.1-0.1l0.2-0.1l-0.1-0.1v-0.1l0.2-0.2
	C-138.4,249.3-138.5,249.3-138.5,249.3 M-138.9,249.3c0.1,0.1,0,0.1,0,0.2h0.2c0.2-0.1,0-0.2,0.1-0.3L-138.9,249.3 M-139.5,249.1
	l-0.1,0.1L-139.5,249.1L-139.5,249.1C-139.3,249.2-139.6,249.2-139.5,249.1h0.1H-139.5 M-136.8,249.1l-0.2,0.2h0.1
	C-136.8,249.3-136.8,249.2-136.8,249.1 M-138.3,249c0,0.1,0.1,0.1,0.1-0.1L-138.3,249 M-134.6,248.9L-134.6,248.9L-134.6,248.9
	 M-133.3,248.8l0.1-0.1l-0.1-0.1V248.8 M-133.7,248.7l0.1,0.1L-133.7,248.7 M-136.9,248.7l0.1,0.1L-136.9,248.7 M-136.1,248.7v0.1
	l-0.1,0.1v0.1h0.1v-0.1C-135.9,248.8-136,248.7-136.1,248.7 M-133.9,248.8v-0.2V248.8 M-136.9,248.7
	C-137,248.6-137,248.7-136.9,248.7 M-132.1,248.7C-132.1,248.7-132,248.7-132.1,248.7h0.2l-0.1,0.2l0.1,0.1c-0.1,0-0.1-0.1-0.2-0.1
	v0.1c0.1,0,0.1,0.1,0.2,0.1l0.3-0.1c0-0.1,0-0.1-0.1,0v-0.2l-0.1-0.1l-0.2-0.1L-132.1,248.7 M-132.4,248.6c0.1,0.1,0,0.2,0.1,0.2
	L-132.4,248.6 M-133.5,248.6c0,0,0,0.1,0.1,0.1L-133.5,248.6 M-132.1,248.5C-132.2,248.6-132.1,248.7-132.1,248.5 M-132.9,248.7
	C-132.9,248.8-133,248.7-132.9,248.7l-0.1,0.2v0.1h0.2L-132.9,248.7c0.1,0.2,0.2,0.2,0.2,0.3l0.1-0.1c-0.1,0,0.1,0.1,0.2,0.1h0.2
	v0.1c0-0.2-0.1-0.1-0.1-0.1v-0.1l-0.1,0.1l-0.1-0.2h-0.1c0-0.1,0-0.1,0.1-0.1h-0.1c-0.1,0-0.2,0-0.2-0.1L-132.9,248.7 M-136.7,248.6
	L-136.7,248.6L-136.7,248.6 M-134.9,248.5L-134.9,248.5L-134.9,248.5 M-135.1,248.5L-135.1,248.5L-135.1,248.5 M-133.1,248.5v0.3
	l0.1-0.1c0,0.1,0.1-0.1,0.1-0.1L-133.1,248.5 M-137.5,248.3v0.2h-0.2v-0.1l-0.1,0.2h-0.1c0,0.1,0.2,0.3,0.3,0.2
	c0.1,0.2,0.5-0.1,0.3-0.1v-0.1h-0.1c0.1,0,0-0.1,0-0.1L-137.5,248.3 M-133.9,248.3v0.1l0.1,0.1c0,0,0.2,0,0-0.1L-133.9,248.3
	 M-135.4,248.5L-135.4,248.5L-135.4,248.5h-0.2v0.1h-0.1v0.1h0.2l0.1-0.3C-135.4,248.4-135.5,248.3-135.4,248.5 M-134,248.4
	C-133.8,248.4-134,248.4-134,248.4 M-136.7,248.3v0.1V248.3 M-138.9,248.4c0.1,0.1,0.1,0,0.1-0.1L-138.9,248.4 M-133.9,248.3
	C-134,248.3-133.9,248.3-133.9,248.3 M-131.2,248.2L-131.2,248.2L-131.2,248.2C-131.2,248.3-131.1,248.1-131.2,248.2 M-134,248
	c0.1,0.1,0.2,0.3,0.3,0.1h-0.1L-134,248 M-135.6,248l0.1,0.1v-0.2L-135.6,248 M-135.8,248l0.1-0.1L-135.8,248 M-134.5,248l0.2,0.1
	v0.1h-0.1c-0.3-0.6,0,0,0,0.1h-0.1l0.1,0.1v-0.1l0.1-0.1v0.2l0.1-0.1l0.2,0.1h-0.1c0.1-0.2-0.2-0.2-0.2-0.2c0-0.2,0.1-0.4-0.1-0.4
	v-0.1l-0.2-0.1C-134.5,247.8-134.5,247.9-134.5,248 M-134.7,247.7l0.1-0.1L-134.7,247.7 M-134.6,247.6
	C-134.6,247.7-134.5,247.7-134.6,247.6 M-134.7,247.6v0.1V247.6 M-137,247.5L-137,247.5L-137,247.5 M-134.7,247.5
	C-134.6,247.4-134.6,247.4-134.7,247.5v-0.1C-134.7,247.4-134.8,247.5-134.7,247.5 M-135.9,247.5v0.3l0.1-0.1v0.1l0.2-0.1l0.2-0.1
	c0-0.2-0.1-0.2-0.1-0.2h-0.1c-0.1,0,0,0,0-0.1C-135.8,247.2-135.9,247.4-135.9,247.5 M-131.6,247.2L-131.6,247.2L-131.6,247.2
	L-131.6,247.2 M-138.4,247.1C-138.5,247.2-138.4,247.3-138.4,247.1 M-138.4,247v0.2C-138.3,247.2-138.2,247-138.4,247 M-136.8,247.1
	V247V247.1 M-135.4,247.1v0.1V247.1v0.2c0,0.1,0.1,0.1,0.2,0.1h0.1v-0.3l-0.1-0.1C-135.3,247-135.4,247.1-135.4,247.1 M-135.5,246.9
	C-135.5,246.9-135.5,247.1-135.5,246.9 M-138.7,247.1v0.1c0.1-0.1,0.1,0,0.1,0.1L-138.7,247.1c-0.1-0.1,0-0.1,0-0.2h-0.1
	C-138.7,246.9-138.7,247-138.7,247.1 M-135.3,246.9v-0.1V246.9 M-138.2,246.8l0.1,0.1h0.1C-138.1,246.7-138.1,246.8-138.2,246.8
	 M-140.9,246.8C-140.9,246.8-140.9,247-140.9,246.8l0.1-0.1L-140.9,246.8 M-140.8,246.9l0.1-0.2L-140.8,246.9 M-136.3,246.7
	L-136.3,246.7L-136.3,246.7l0.1,0.2l0.1-0.1c0,0,0.1,0.3,0.2,0.1c-0.1-0.1-0.1-0.2-0.2-0.1v-0.1H-136.3 M-138.5,246.5v0.3
	c0.1,0.1,0,0.2,0.1,0v0.1c0.2,0-0.1-0.3,0-0.3v0.1l0.1-0.1l-0.1,0.1c0-0.1,0.1-0.1,0.1-0.1C-138.5,246.5-138.5,246.7-138.5,246.5
	 M-133.9,246.5h0.1l-0.1-0.2V246.5 M-132.7,246.4v0.1V246.4 M-131.7,246.4v-0.2V246.4 M-138.4,246.3c0.1,0-0.1,0.2,0,0.2l0.1-0.1
	v0.1C-138.3,246.3-138.4,246.3-138.4,246.3 M-141.1,246l0.1-0.1C-141.1,245.9-141.1,245.9-141.1,246 M-132.8,246h-0.1H-132.8
	L-132.8,246L-132.8,246L-132.8,246l0.1,0.2h-0.2c0.1,0.1,0.2,0.2,0.3,0.2l0.1,0.1h0.2l0.1-0.1v-0.2h-0.5L-132.8,246
	c-0.1,0.1,0.1,0,0.1-0.1C-132.6,245.8-132.8,245.8-132.8,246 M-137.5,246l0.1,0.1L-137.5,246 M-137.7,245.8l-0.1,0.1h-0.2l0.1-0.1
	l-0.1,0.2h-0.1c0.1,0,0-0.1,0.1-0.1c0-0.1-0.1-0.1-0.1-0.1v0.3l-0.2,0.1v0.1h-0.1c0,0.2,0.1,0.2,0.2,0.2h0.1v-0.1h0.2v0.2
	c0.1,0.2,0,0.2-0.1,0.2v0.1l0.1,0.1l-0.2,0.2h0.2c0.1,0.1,0.1,0.1,0.3,0c0.1,0,0.4-0.3,0.4-0.1l0.1-0.1l0.2,0.1v-0.3
	c0.2,0.3,0.2-0.4,0.2-0.4c0-0.1-0.2-0.1-0.2-0.1h-0.2c0.1-0.1,0-0.1,0-0.2c0,0-0.3,0.1-0.2,0h0.1l-0.1-0.1c-0.1-0.1-0.1-0.1-0.2-0.3
	h0.1v-0.1L-137.7,245.8 M-137,245.6v0.2h0.1L-137,245.6z M-133.1,246.3C-133.4,246.2-133.1,246.2-133.1,246.3L-133.1,246.3
	 M-133.2,245.7h-0.3v0.2h-0.1v-0.1l-0.1-0.2h-0.1c0.1,0.1,0,0.2,0,0.3h0.1c0,0.1,0.1,0,0.2,0h-0.1c0,0.1,0.1,0,0.1,0.1h-0.1l0.1,0.1
	h-0.1l-0.1-0.1v-0.1l-0.1,0.1l0.2,0.2v-0.1v0.1h0.2c0,0.2,0.1,0,0.2,0c0,0.1,0.1,0.2,0,0.3h0.3c0.1,0.2,0.3,0,0.3,0v0.1v-0.1
	c-0.1,0.1-0.2-0.1-0.3-0.2l-0.1-0.1V246l-0.1,0.1V246l0.1,0.1v-0.2v0.1h-0.1v-0.2L-133.2,245.7l0.1,0.1c0-0.1,0.1-0.2,0-0.3
	L-133.2,245.7 M-138,245.7v-0.1V245.7 M-138,245.6l0.1,0.2L-138,245.6h0.2v0.1l0.1-0.1H-138 M-134,245.5c-0.1-0.1-0.1,0-0.1-0.1
	h-0.1l-0.2,0.2v0.1l0.1,0.1v-0.1v0.1l0.1-0.1l-0.1,0.1c0.1,0,0.1-0.1,0.1-0.2v-0.1C-133.9,245.7-133.9,245.6-134,245.5v-0.2
	C-134,245.4-133.9,245.5-134,245.5 M-137.5,245.4l0.1,0.1h0.1v-0.1l0.1,0.1v0.1h-0.1v0.1c0.1-0.2,0.3-0.1,0.3,0.1v-0.2
	c0,0.1,0,0,0,0v-0.1h-0.2v-0.1c0,0.1,0.1,0,0.1,0H-137.5 M-138.1,245.4l0.1-0.1L-138.1,245.4 M-131.4,245.4
	c-0.2,0.1,0.2,0.2,0.3,0.2L-131.4,245.4h0.2H-131.4c0.1,0.1-0.1-0.2,0-0.2h-0.2C-131.6,245.4-131.5,245.4-131.4,245.4 M-138.7,245.2
	C-138.7,245.4-138.6,245.2-138.7,245.2 M-138.5,245.3h-0.1v0.1c-0.1-0.1-0.2,0-0.2-0.1h-0.1v0.2l-0.1,0.1c-0.1,0.3,0.2,0.1,0.4,0.2
	v-0.1l0.1-0.2l0.1-0.1L-138.5,245.3l0.1,0.1L-138.5,245.3c0.1,0,0.2,0.1,0.2-0.1h-0.1c0,0-0.1,0-0.1-0.1V245.3 M-134.2,245.2h-0.1
	H-134.2 M-133.7,245.1c0,0.3,0.3,0.1,0.3,0.1h-0.1L-133.7,245.1 M-132.9,245.1l-0.2,0.2v0.2h-0.1c0.1,0,0,0,0,0l0.2,0.4
	c0-0.1,0-0.3,0.1-0.2v0.1c0.1,0,0.2-0.1,0.2-0.2v0.1l0.1-0.1v-0.5h-0.1c0,0.1,0.1,0.2,0.1,0.3c0,0-0.1-0.3-0.2-0.2L-132.9,245.1v0.1
	V245.1v0.1C-132.9,245.1-132.8,245.1-132.9,245.1C-132.8,245-132.9,245.1-132.9,245.1 M-133.1,245c0,0,0.1,0.1,0.1-0.1L-133.1,245
	 M-136.3,244.8c-0.1,0.2-0.1,0.2,0,0.2c0,0-0.1,0.1,0,0.2C-136.3,245-136.2,244.9-136.3,244.8 M-137.1,244.8l-0.1,0.1L-137.1,244.8
	c-0.2,0-0.1,0.2-0.1,0.1l-0.1,0.1h0.4v0.1v-0.2C-136.8,244.9-137,244.9-137.1,244.8C-136.9,244.8-137.1,244.8-137.1,244.8
	 M-130.8,244.8C-130.8,245-130.7,244.8-130.8,244.8L-130.8,244.8L-130.8,244.8 M-137.2,244.5L-137.2,244.5L-137.2,244.5
	 M-136.8,244.4l0.1,0.1h-0.1c-0.1,0.1,0.1,0.1,0.1,0v0.1c0.1,0,0.1,0,0.1-0.1h-0.1L-136.8,244.4h0.1H-136.8h0.1H-136.8l0.1-0.1h-0.1
	V244.4 M-135.2,244.4c0.1-0.1-0.2-0.1-0.2,0l-0.1-0.1v0.1l-0.1-0.1v0.1c0,0,0.2,0.3,0.3,0.2c0-0.2,0.3-0.1,0.3-0.1l0.1,0.1l0.1,0.1
	v0.1l-0.2-0.1l-0.1,0.1l0.2,0.2c0,0.1,0.1,0.1,0,0.1v0.1h-0.1c0,0.1,0.1,0.1,0.1-0.1c0.1,0,0.1-0.3,0.2-0.4v0.1c0,0.1,0,0.1-0.1,0.2
	l0.1-0.1h0.1v-0.1h-0.1c0.1,0-0.3-0.4-0.2-0.5l-0.1,0.1v-0.2L-135.2,244.4 M-137,244.3L-137,244.3l0.1,0.2h0.1h-0.1
	C-136.8,244.4-137,244.2-137,244.3 M-135.8,244.5h-0.2v-0.2c0,0,0-0.1-0.1,0l-0.2,0.2v0.1v-0.1c0,0.1,0.1,0.2,0.2,0
	c0,0.1,0,0.2,0.1,0.1c-0.1,0.1,0.1,0.2,0.1,0.2v0.1v-0.1l0.2,0.1C-135.7,244.8-135.8,244.5-135.8,244.5h0.1H-135.8
	c0.1,0,0-0.1,0.1-0.2l-0.1-0.1V244.5 M-137.6,244.1L-137.6,244.1c-0.1,0.1,0,0.1,0.1,0.2v0.1c0.1-0.1,0.1-0.1,0.1-0.2
	c0-0.1-0.1-0.1-0.1-0.1H-137.6 M-136.9,243.9v0.1V243.9 M-137.7,243.7h0.1H-137.7 M-135.6,243.7l-0.1,0.1h0.1
	C-135.7,243.7-135.5,243.7-135.6,243.7L-135.6,243.7 M-135.8,243.6L-135.8,243.6l-0.2,0.1v0.2c0.1,0,0.2,0.2,0.2,0V243.6l0.1,0.2
	v-0.1L-135.8,243.6 M-134.5,242.9h0.2c0-0.1-0.1,0-0.1,0H-134.5L-134.5,242.9L-134.5,242.9 M-136.8,242.9h0.1c0.1,0,0.1-0.2,0.1-0.2
	h-0.1C-136.8,242.7-136.8,242.8-136.8,242.9 M-134.7,242.8v0.2V242.8L-134.7,242.8L-134.7,242.8c0,0,0.1-0.1,0-0.1V242.8
	 M-136.9,242.6C-136.8,242.6-136.8,242.7-136.9,242.6 M-135.6,242.5C-135.7,242.6-135.6,242.5-135.6,242.5 M-136.8,242.6
	L-136.8,242.6v-0.1C-136.8,242.4-136.9,242.6-136.8,242.6 M-136,242.4v0.1V242.4v0.1c0-0.1-0.1,0.1-0.2,0.2h0.1h-0.1h0.1v-0.1v0.1
	h0.1h-0.1h0.1v-0.1l0.2-0.1v-0.1H-136 M-135.5,242.3c0-0.1-0.1,0-0.1,0.1L-135.5,242.3c0.1,0.1,0,0.3,0.1,0.2c0,0.1,0.1,0.2,0.1,0.1
	c0.1,0,0.1,0,0.2-0.1v0.1h0.1l0.1-0.1h-0.2c0,0,0-0.1-0.1-0.2l0.1,0.1h-0.2v-0.1v0.1L-135.5,242.3
	C-135.5,242.4-135.5,242.4-135.5,242.3 M-133.9,242.2C-133.9,242.3-133.9,242.2-133.9,242.2 M-135.6,242.2v-0.1V242.2 M-137.7,242
	l-0.1,0.2L-137.7,242v0.2V242 M-133.8,242C-133.5,242.1-133.7,242-133.8,242v-0.1V242 M-136.4,241.9l-0.1,0.1L-136.4,241.9
	L-136.4,241.9l-0.2,0.2l0.1-0.1L-136.4,241.9v0.1l0.2-0.1C-136.2,241.9-136.4,242-136.4,241.9 M-136.3,241.8l0.1,0.1v0.1l0.1-0.1
	c-0.1,0,0,0-0.1,0.1C-136.2,241.8-136.1,241.8-136.3,241.8 M-134.2,241.8L-134.2,241.8L-134.2,241.8 M-136.1,241.7v0.1V241.7
	 M-135.8,241.7c0,0.1,0.1,0,0.2,0H-135.8 M-136.7,240.2c-0.3,0.2-0.1,0.3-0.1,0.2v-0.1L-136.7,240.2v0.1V240.2 M-134,240.2v0.2
	c0-0.1,0.1-0.2,0.1-0.3L-134,240.2 M-137.4,240l-0.1,0.1c0,0.1,0.1,0.1,0.1,0.1V240 M-137,240v-0.1V240 M-137.7,239.9L-137.7,239.9
	L-137.7,239.9 M-136.8,239.7v0.2c0,0.1,0.1,0,0.1,0L-136.8,239.7h0.1c-0.1,0.1,0.1,0,0.1,0C-136.7,239.7-136.7,239.6-136.8,239.7
	 M-138.2,239.9L-138.2,239.9L-138.2,239.9 M-137.5,239.7c0.1,0.1,0,0.1,0,0.1v0.1h0.1l-0.1,0.1c0.3-0.1,0-0.1,0.1-0.2l-0.1,0.1
	V239.7 M-138.8,239.6C-138.7,239.6-138.8,239.6-138.8,239.6 M-135.6,239.5c-0.1,0.1,0,0.1-0.1,0.1c0,0,0.1,0.2,0.1,0.1l-0.1-0.1
	L-135.6,239.5 M-136.8,239.4v0.1V239.4v0.2C-136.9,239.5-136.8,239.4-136.8,239.4l-0.1,0.2l0.1-0.1V239.4 M-138.6,239.4
	L-138.6,239.4l-0.1,0.2c0,0-0.1,0.1,0,0.1v0.1v-0.1l0.1,0.2c0.1-0.2,0,0.2,0.1,0.2l0.1-0.1v0.1V240h-0.1l0.1-0.1v-0.1v0.1l-0.1-0.1
	c-0.1-0.1,0.1-0.1,0.1-0.2L-138.6,239.4 M-137.7,239.3C-137.6,239.3-137.7,239.4-137.7,239.3 M-138.8,239
	C-139,239-138.7,239.1-138.8,239 M-135.8,239C-135.8,239.1-135.7,239.2-135.8,239C-135.8,239-135.8,239.1-135.8,239 M-137.7,238.7
	l0.1,0.2l0.1-0.1c0.1,0.1,0.2,0,0.2,0.2h-0.1v0.1h-0.1c0.1,0.1,0.1,0.2,0,0.2v0.1l0.3-0.1l-0.2-0.1c0.1,0,0.1-0.2,0-0.3l-0.1-0.1
	v-0.1v0.1v-0.1H-137.7 M-137.5,238.6C-137.5,238.5-137.7,238.6-137.5,238.6 M-137.7,238.4v0.1V238.4 M-137.3,238.2
	C-137.3,238.4-137.2,238.2-137.3,238.2 M-132.3,256.6L-132.3,256.6L-132.3,256.6 M-130.2,253.6
	C-130.2,253.5-130.2,253.5-130.2,253.6 M-136.8,236.3v-3.5c0-0.4-0.3-0.7-0.7-0.7h-8.2c-0.4,0-0.7,0.3-0.7,0.7v18.4
	c0,0.5-0.4,0.6-0.6,0.2l-7.2-17.4l-0.3-0.7c-0.5-1.1-0.5-1.2-1.9-1.2h-8.9c-0.4,0-0.7,0.3-0.7,0.7v36.4c0,0.4,0.3,0.7,0.7,0.7h7.8
	c0.4,0,0.7-0.3,0.7-0.7v-18.4c0-0.5,0.4-0.6,0.6-0.2l7.2,17.4l0.3,0.7c0.2,0.7,0.9,1.2,1.6,1.2h5.5c2.3,0,4.2-1.9,4.2-4.2v-9.5
	c-0.1,0-0.2-0.1-0.3-0.1l-0.1-0.1l0.1,0.2h-0.2v-0.1v0.1l0.1-0.1h-0.2c0,0.2,0,0.3,0.1,0.2h0.1l0.1,0.1h-0.1l0.1,0.1
	c0,0-0.2,0-0.2-0.1v0.2v-0.1l-0.1,0.1l-0.1,0.1c-0.1,0.2,0,0.2,0,0.2h-0.3c-0.2,0-0.3,0.1-0.5,0.1l0.1-0.1l-0.1,0.1l-0.2-0.1h0.1
	c-0.1-0.1,0-0.3-0.2-0.3v0.2l-0.1-0.2l-0.1,0.1l-0.2,0.5v-0.1l0.1,0.1h-0.1l0.1,0.1l-0.1,0.4v-0.1c-0.2,0-0.2,0-0.2,0.2h-0.1v-0.1
	l-0.1,0.2h-0.1c0-0.1,0.1-0.3,0.1-0.4h-0.1l-0.2,0.2v-0.1l-0.1,0.3l-0.2,0.1v-0.1h-0.1c0,0.3,0.2,0.2,0,0.2l-0.1,0.1
	c-0.1,0.1-0.1,0.3-0.2,0.1c-0.1-0.2,0-0.3,0-0.3c0.1,0,0.1-0.3,0.2-0.4l-0.1,0.1v0.1v-0.1h-0.1c0,0-0.1-0.2-0.2-0.2
	c0-0.2-0.2-0.2-0.2-0.3l0.1-0.1l-0.1-0.2c0,0,0.1-0.1,0.2,0.1v-0.1c0.1-0.1,0.1-0.5,0.3-0.4c-0.2-0.2,0-0.4,0.1-0.5
	c0-0.1,0-0.5,0.2-0.3v-0.1h0.1v-0.1h0.1l-0.1-0.1l0.1-0.1h0.1h-0.3v-0.1v0.1v-0.2l0.3,0.1c0.1-0.1,0-0.2,0-0.2c0-0.1,0-0.2,0.1-0.3
	v0.1v-0.2v0.1l-0.1,0.1l-0.2,0.2v-0.1l-0.1,0.2h-0.1l-0.3,0.3v-0.1c-0.1,0.1-0.2,0.5-0.2,0.3l0.1,0.1c-0.1,0-0.2,0.1-0.1,0.2
	c-0.1-0.1,0,0.3-0.2,0.3c-0.1,0-0.1,0.2-0.2,0.3l-0.1-0.3h-0.1v0.1h-0.1c0,0.2-0.1,0.1-0.1,0.1h0.2v0.1l0.1-0.1v0.1h-0.1v0.1v-0.1
	v0.1h-0.2v-0.2h-0.1c0.1,0.1-0.1,0-0.1-0.1l-0.1-0.1l0.1-0.1h0.1v-0.2l0.1-0.2h0.1l0.1-0.1l-0.2,0.5l0.1-0.1l-0.1-0.3l-0.2,0.2
	c-0.2,0.2-0.4,0.3-0.3,0h0.1c0-0.1-0.2-0.4-0.1-0.4c-0.4-0.3,0-0.3,0.1-0.3c0,0,0.1-0.3,0.2-0.1c0.1-0.2,0.3-0.1,0.4,0h-0.1l0.1,0.2
	v-0.1l0.2-0.1h-0.1c0-0.1,0.1-0.1,0.1,0h0.1h-0.1c0,0,0.4-0.2,0.4-0.3l-0.1,0.1c0-0.1,0.1-0.1,0.1-0.1v-0.1h0.1v0.1
	c0.2-0.2,0.4,0,0.4-0.3h0.1v0.2l0.1-0.2c0.1,0.1,0.2-0.1,0.2-0.2c-0.2,0.1-0.5-0.1-0.6-0.1v-0.1h-0.2c0.1,0.1,0,0.1,0,0.2l0.1,0.1
	h-0.1l-0.2,0.1v-0.1h-0.1c0-0.1,0,0,0,0v-0.1c0,0-0.1,0,0,0.1h-0.1l0.2,0.1c0.1,0.1,0,0.3-0.1,0.1v-0.1l-0.1,0.1l0.1,0.2h-0.1
	l0.1-0.1l-0.1,0.1v0.2h-0.2c-0.1,0,0-0.3,0.1-0.3c0,0-0.1-0.3-0.1-0.1h0.1h-0.1v0.2v-0.1c0,0-0.2,0.1-0.1,0.1h-0.1v-0.2v0.1h-0.2
	c0,0.1-0.1,0-0.1,0.1v0.1l0.1,0.1c-0.1,0.1-0.1,0.2-0.2,0.3h-0.2l0.1-0.1h-0.4v-0.1v0.2v-0.1h0.1c0,0.1-0.2,0.2-0.2,0.2
	c0.1,0,0.1,0.1,0,0.2h-0.2v-0.3l0.1,0.1l-0.1-0.2h-0.1c0,0,0-0.2-0.1-0.1c0-0.1,0.1-0.1,0.1-0.1h0.1l-0.1-0.1h0.1
	c-0.1,0.1,0.1,0,0.1,0h-0.1c0.1-0.1,0-0.1,0-0.2c0,0.1,0.1,0.1,0.2,0.1v0.1v-0.1c0.1,0,0.2,0,0.2-0.1h0.1l-0.1-0.1l0.1-0.1h0.1h-0.1
	v-0.2v0.1c0,0.1-0.1,0.1-0.1,0.1h-0.1l0.1-0.1l-0.1,0.1h0.1v0.1c-0.1-0.1-0.2,0-0.2,0.1h-0.1c0-0.1-0.2-0.2,0-0.2
	c0-0.1-0.3-0.3-0.2-0.4c0-0.1-0.1-0.4-0.2-0.6h0.1c0-0.1,0.4-0.6,0.4-0.8h0.1c0,0,0-0.4,0.2-0.2h-0.1h0.1v-0.3l-0.1,0.1
	c0-0.1-0.2-0.2-0.2-0.4c0.2,0,0.3,0,0.4-0.1c0-0.2-0.1-0.1-0.1-0.2h0.1v-0.1c0.2,0.1,0.1,0,0.3,0.2c0.1,0.1,0.1,0,0.1-0.1h0.1v-0.4
	c0.2-0.1,0.2-0.3,0.2-0.5c-0.1-0.2,0.1-0.2,0.1-0.3c0,0,0.2,0.1,0.1-0.1v-0.1c-0.2,0.2,0.1-0.1,0-0.2h0.1c0,0,0.1,0.2,0.2,0.1
	c-0.1-0.1,0-0.1,0-0.2h0.1c-0.1,0.1,0.3,0.3,0.4,0.3v0.1h-0.2l0.1,0.1c0-0.1,0-0.1,0.1-0.1v-0.1h-0.1V250l0.1,0.1h0.1V250h0.1v0.1
	c0,0,0.1,0,0.1-0.1h-0.1c0.1,0,0.2,0.1,0.1-0.1h0.1c-0.1-0.1,0.1-0.1,0.2-0.1c0-0.1-0.2-0.2-0.2-0.1l0.1-0.1c0-0.1-0.1,0.1-0.1,0.1
	v-0.1h-0.1v0.2v-0.1v0.1h-0.2l-0.1,0.2c0,0.1-0.1-0.2-0.1-0.4c-0.1-0.2-0.1-0.5,0-0.3c0-0.1,0-0.2-0.1-0.2s-0.1,0-0.1-0.2h0.3h-0.1
	l0.3-0.3h0.1c0-0.2,0.3-0.1,0.3,0c0.1-0.1,0.5-0.1,0.6-0.1c0-0.1,0.1-0.3,0.1-0.2h0.1V248l0.3-0.2h-0.1h0.3l0.1-0.1h0.1v-0.1
	c0-0.1-0.2-0.1-0.3-0.1h0.1c0-0.2-0.3-0.3-0.2-0.2v-0.1v0.2c-0.1-0.1,0,0-0.1,0.1c-0.1,0-0.2-0.3-0.2-0.4c0.1,0,0.2-0.2,0.1-0.2
	v-0.1c0,0,0.3-0.4,0.4-0.6l0.1-0.1l0.1-0.1c-0.1-0.1,0,0-0.1-0.2h-0.1l0.1-0.1h-0.1c-0.1,0-0.2-0.1-0.3,0.1l0.1,0.1h-0.2v-0.1
	l-0.1,0.1v0.2c0-0.1-0.2,0-0.2,0.1s-0.3,0.1-0.3,0h0.2c-0.1,0,0.1-0.3,0-0.3v-0.1l-0.2,0.1c0.2,0,0,0.2-0.1,0.3h-0.2v0.2h-0.2
	c0,0,0-0.2-0.1-0.1v0.1c0-0.2-0.4,0.2-0.2,0.2c0.1,0.1-0.2,0.1-0.2,0.1v0.1l0.1-0.1v0.1v-0.1v0.1h-0.1l-0.1,0.1v0.2h-0.2
	c0.1,0,0.1-0.2,0.1-0.2h-0.1c0,0.3-0.2,0.2-0.2,0.1l-0.1,0.1h0.1l-0.1-0.1v0.2c0-0.1,0-0.2,0.1-0.2l-0.3,0.1l0.1,0.1h-0.2l-0.2-0.2
	l-0.1,0.1c-0.1-0.1,0.1-0.5,0.1-0.7v0.1c0-0.2,0-0.4,0.1-0.4l0.1-0.2c0.2,0,0.2,0.1,0.3,0.2c-0.1-0.1,0,0,0,0h0.2c0,0,0-0.1-0.1-0.1
	h-0.2l-0.1-0.1l0.1-0.1v-0.5c-0.1,0,0,0.1,0,0.1c-0.2-0.3-0.1-0.3,0-0.5h0.3v-0.4l0.1-0.1c0.1,0,0.1,0.1,0.1,0.2l0.2-0.1
	c0.1-0.1,0.2-0.1,0.2,0.1l0.1-0.2v0.1c0,0,0.1-0.2,0-0.2v0.1c0-0.2-0.2-0.3-0.1-0.5l0.2-0.3c0.1-0.1,0.2-0.1,0.4-0.3h-0.1h0.3
	l0.1-0.1c0,0.1,0.1,0.2,0.1,0.2v-0.1c0.1,0.1,0.1,0,0.1,0c0-0.1,0.4-0.2,0.4-0.2v-0.4v0.1l0.1-0.1l0.2-0.1c0-0.1,0.2-0.1,0.2-0.3
	l0.1,0.1l-0.1-0.2h0.1v0.1h0.1c0,0,0-0.1,0,0v0.1l0.1,0.1v-0.1c0-0.1-0.1-0.2,0-0.3c0,0-0.5,0.2-0.6,0.2l-0.1-0.1
	c0,0-0.5,0.3-0.6,0.1h0.1l-0.3-0.1v0.1v-0.5c0.1-0.1,0.3,0,0.3-0.2c0,0,0.3,0,0.3,0.2c0.3-0.5,0.3-0.4,0.3-0.6c0,0,0.2-0.1-0.1,0
	l-0.1,0.1V241l0.1,0.1l0.1-0.2v0.1v-0.1v0.1v-0.3l0.1,0.2l0.1-0.4h0.3l-0.1,0.1h0.2l-0.1-0.1l-0.1-0.1c0.1,0,0,0,0-0.1
	c0-0.1-0.1-0.1-0.1-0.1s-0.3-0.1-0.3-0.3c0.1,0.2,0.1-0.2,0.1-0.2c0,0.1-0.1,0.1-0.2,0h-0.1c0-0.1,0-0.2,0.1-0.3h-0.1
	c0-0.1,0-0.2-0.1-0.3c0.2,0,0-0.3-0.1-0.3c-0.1-0.3,0.2-0.2,0.3-0.4h-0.1c0-0.2,0.3-0.4,0.5-0.4l0.2,0.2h0.1c-0.2,0-0.2-0.4-0.1-0.5
	c0.2,0,0.5-0.3,0.7-0.3l0.1,0.1c0.1,0.1,0.2,0.2,0.2,0.1v0.1c0-0.1,0.4-0.1,0.3,0.2c0,0,0.1,0,0.1,0.1l0.1-0.1c0.1,0,0.5,0,0.5,0.1
	l0.1-0.2c0-0.1,0.1-0.2,0.1-0.2v0.1h0.1v-0.1v0.1h0.3c0.1,0,0.3,0,0.3-0.1c0,0.3,0.2,0.2,0.2,0.4v-0.1v0.1v-0.1l0.1,0.1
	c0,0-0.1,0.1,0,0.2c-0.1,0.1,0,0.2,0,0.3v-0.1l-0.1,0.2c-0.1-0.1-0.2,0-0.3,0c0,0.2,0.2,0.3-0.1,0.4h0.1h-0.1c0,0,0.6,0.5,0.2,0.5
	c0,0,0.3,0.2,0.3,0l0.3-0.3v0.1c0.1,0,0.1-0.3,0.1-0.3h0.1c0.1-0.1,0.2-0.1,0.2,0.1c0.1-0.1,0.1-0.1,0-0.2v-0.2l0.2-0.1v0.3
	c0,0-0.1,0.2,0,0.3c0,0,0.4-0.2,0.2-0.3h0.3c0.1,0.1,0.2,0.2,0.1,0.4c0,0-0.1,0.2-0.2,0.3h0.1c0,0-0.1,0,0,0.2l0.1-0.1v0.2
	c0,0.2,0.2,0,0.2,0.3c0-0.1,0.1,0.3,0.1,0.4l0.1-0.1c0.1,0.2,0,0.3-0.1,0.4c0.1,0.1,0.1,0.1,0.1,0.3v0.1l0.2,0.1
	c0.1,0,0,0.1,0.1,0.2c0,0.2-0.1,0.2-0.1,0.2l-0.3,0.6l-0.3-0.2v0.1h0.1v0.3c0,0.1,0.2,0,0.2-0.2l0.1,0.1c0-0.2,0.1-0.1,0.2-0.2
	c0.1,0.1,0.3,0,0.2,0c0.1-0.2,0.2-0.1,0.4-0.1v0.1l0.1-0.1h0.1c0,0.2,0.1,0.2,0.2,0c0.2,0,0,0.5,0.1,0.6c0,0.1,0,0,0,0v0.2h0.2
	l-0.1,0.2l-0.2,0.2l0.1,0.2c-0.1,0,0,0.1-0.1,0.2c-0.2-0.5-0.2-0.3-0.1-0.2v0.1c0-0.1,0.1-0.1-0.1-0.1l-0.1,0.1c-0.2,0,0,0.2,0,0.3
	c0.1-0.2,0.2-0.1,0.3-0.1h0.2c0,0.1,0.1,0,0.2,0h0.1v0.1c0.1-0.1,0.3,0,0.3-0.4c0.1,0,0.1,0,0.2-0.1v0.1h0.1v0.1h0.1v0.2
	c0,0,0,0.1-0.1,0.2c0,0.1-0.1,0.2-0.2,0.2c0.1,0.1,0,0,0,0.1l0.2,0.1c0.1,0.1,0.2,0.2,0.3-0.1l0.3-0.2l0.1,0.2l0.1-0.1v0.1v-0.1h0.1
	l-0.1,0.4l-0.1-0.1l-0.1,0.1h-0.1v0.1l-0.1,0.1h0.1c0,0.2,0.2,0.2,0.3,0.3c0,0.3-0.1,0.3-0.3,0.4h0.1c0-0.2-0.1,0-0.1,0
	c-0.1,0.1-0.2,0.3-0.4,0.3v0.2V246v0.4c0,0-0.1-0.2-0.1,0.1l-0.1-0.3v0.2c0-0.1-0.1-0.1-0.2-0.1c0.1,0.1,0,0.1,0.1,0.3h-0.2v-0.2
	v0.1v-0.2l-0.2,0.2l-0.1-0.2v0.2l0.1,0.1v-0.1l0.1,0.1l0.1-0.1v0.1h0.1c0,0,0.1,0.1,0,0h0.1v0.1l0.2-0.1v0.2c0.1-0.1,0.1,0,0.3,0.1
	l0.1-0.1c0,0.2,0,0.3-0.2,0.3c0.1,0.1-0.2,0.2-0.2,0.2c-0.1,0-0.1-0.1-0.1,0.1h-0.2v0.1h-0.1v0.1v-0.1c0,0,0.1,0.1,0.1,0
	c0.2,0.1-0.3,0.3,0.3,0.1l0.1,0.1l0.1,0.1l-0.1,0.4h0.1h-0.1v0.3c0.2-0.1,0.1,0.2,0,0.2v0.2c0.5,0.1-0.3,0.7-0.2,0.5v-0.3h-0.2
	c-0.3,0,0-0.1-0.1-0.2h-0.1v0.1h-0.1c0.1,0,0.1,0,0.1,0.1c-0.1,0-0.2,0-0.1,0.1h-0.1h0.1h-0.1c-0.1,0,0.1,0.2,0.2,0.1l0.1,0.2v0.1
	c0.1-0.2,0.1,0,0.2,0.1v-0.1c0,0-0.1,0.3-0.2,0.2l0.1,0.1c-0.1,0-0.2,0.1-0.1,0.1c0.1-0.1,0.1,0.1,0.1,0.2h-0.6V250h-0.1v-0.1
	l-0.1,0.1h0.1l-0.3,0.2v0.1h-0.1v0.1c0,0,0-0.2-0.1,0h-0.1v0.1h0.1v0.2h-0.1l-0.2,0.3h0.1h-0.2c0,0,0.1-0.1,0.1,0v0.1
	c0.1,0.1,0.1,0.2,0.2,0.1v0.1c0.1,0,0-0.2,0.1-0.1c0,0,0.1,0.3,0.1,0.1v0.1c0,0,0.4,0,0.3,0.2v0.1l0.1-0.1c0.1,0,0.4,0,0.5-0.1
	c0,0.1,0.1,0.1,0.2,0v0.2l0.1-0.2c0,0.2,0.1-0.1,0.2-0.1h0.1v0.4l0.1-0.1v0.2l-0.1,0.1h0.1v0.2l0.2,0.2c0.1-0.1-0.1-0.1,0.1-0.1
	c0,0.1,0.1,0,0.1-0.1v0.1h0.3c0.1,0-0.1,0.1,0,0v-0.1h0.1v0.1c0,0.1,0.2,0,0.1,0.1v-0.1l0.3,0.5v-0.1v0.2c-0.2,0.3-0.1,0.3-0.3,0.3
	h-0.1h0.1h-0.1c-0.1,0-0.1,0.1-0.3,0c-0.1,0-0.2,0.1-0.2,0.2v0.2c0,0-0.2,0.2-0.2,0.1v0.1l-0.1,0.1c0,0,0.2,0.1,0.2,0l0.1-0.1
	c0.1-0.1,0.1-0.2,0.2,0.1c0,0,0.1-0.2,0.1,0c0-0.1,0.1-0.1,0.1,0h0.1v-0.1v0.1v-0.1l0.1,0.1l0.2-0.1v0.1c0.1-0.2,0.4-0.4,0.5-0.4
	c0,0.2,0.3,0.1,0.2,0h0.2v0.5c-0.2,0-0.4,0-0.5,0.2h-0.2v0.2l-0.1,0.1v0.2h0.1v0.2l0.2,0.2v0.1v-0.1h-0.5l-0.3,0.3h-0.1l-0.1,0.1
	v-0.1h-0.2c-0.1,0.1-0.3,0.2-0.4,0.3l-0.1-0.2l-0.1-0.1l-0.1,0.1l-0.1,0.2v0.1l-0.1,0.1c0.1-0.1,0.1,0,0.1,0l-0.1,0.1v-0.1l-0.1-0.1
	v0.1l-0.1,0.1l-0.1-0.1h0.1h-0.1c0-0.1,0,0,0.1-0.1l-0.1-0.1c0,0.3-0.1,0.2,0.1,0.4h-0.2h0.1v0.1c-0.1,0,0,0.1,0,0.2v-0.1l-0.1,0.2
	c0.2,0.1,0.2,0.1,0.1,0.1l-0.2-0.1l-0.4-0.3c0.1-0.2,0-0.1,0-0.2c0-0.1-0.1-0.1,0.1-0.2v-0.1l-0.1,0.1v-0.1c-0.1,0-0.3-0.1-0.3-0.2
	h0.1v-0.1h0.1v-0.1l0.1,0.1l0.1,0.1v0.1c0.1-0.1,0-0.2,0-0.3h-0.1v-0.1v0.1l-0.1,0.1l0.1,0.1h-0.1v-0.1c0,0-0.1-0.1-0.1,0v-0.2
	l0.2-0.1h-0.1l0.1-0.1v-0.2c0.1-0.2-0.2-0.2-0.1-0.2h-0.1v-0.2c0.1,0,0.1-0.1,0-0.1v0.1c-0.1-0.2,0-0.1,0-0.4h-0.1l0.1,0.1
	c-0.1,0-0.5-0.2-0.4-0.4v0.1c0.1-0.1,0-0.1,0-0.1v-0.1l-0.2,0.2l0.1,0.3l-0.1,0.2h-0.1c0,0-0.5,0.3-0.4,0.1h-0.3
	c0-0.1-0.3-0.1-0.3,0v0.1h0.1l0.1,0.1l-0.1,0.1c0,0,0.1,0.1,0.1,0.2c0.2,0,0.3,0.1,0.6,0.2V255l0.1,0.1v0.1h0.3
	c-0.1,0.1,0.2,0.1,0.2,0.1l-0.1,0.2c0.1-0.1,0.3,0.2,0.1,0.2c0-0.1-0.1-0.2-0.2-0.2v-0.2l-0.1,0.1c0-0.1,0,0-0.1,0.1v-0.1l-0.2-0.1
	h-0.2h0.1h-0.1c0-0.1-0.1-0.1-0.2-0.1h0.1v0.1c0-0.1,0-0.2-0.2-0.2h-0.1v0.1h-0.1v0.1l-0.2,0.2c-0.1-0.2-0.3-0.2-0.4-0.1v-0.1
	l-0.2-0.1h-0.1v-0.1v0.1v-0.1l-0.3-0.1h-0.2h0.1l-0.2-0.1v0.2l-0.1,0.1v-0.1h-0.2v0.1h-0.1v0.2h0.1v0.1h-0.1c0,0.1,0,0.1,0.1,0.1
	l0.1,0.1h-0.1h0.1c0.1,0.1-0.1,0.2,0.1,0.3l-0.2,0.2l-0.1-0.1h-0.1V256l-0.1,0.1l-0.1,0.1v9.8c0,2.3,1.9,4.2,4.2,4.2h8.5
	c8.8,0,11.9-4.1,13-8c0.4-1.6,0.6-3.2,0.6-4.3v0.2v-2.4c0-0.4-0.3-0.7-0.7-0.7h-7.8c-0.4,0-0.7,0.3-0.7,0.7v0.3
	c0,3.6-0.5,5.2-4.3,5.2c-4,0-4.3-2.5-4.3-6.5v-7.6c0-4,0.3-6.5,4.2-6.5h0.1c3.9,0,4.3,1.6,4.3,5.4v0.4c0.1,0.3,0.4,0.6,0.7,0.6h7.8
	c0.3,0,0.6-0.2,0.7-0.5v-2.1c0-1-0.1-3.1-0.5-4.7c-1-3.8-3.9-7.9-12.3-8.1h-2.4C-132,231.2-135.1,233.5-136.8,236.3"/>
<g>
	<defs>
		<path id="SVGID_1_" d="M-140.7,257.5l0.1-0.1L-140.7,257.5 M-140.9,257.2v-0.1V257.2 M-140,257.1v0.4h0.1
			C-140,257.3-139.9,257.2-140,257.1 M-142.1,256.6c0.1,0.1-0.1,0.2,0,0.2V256.6 M-140.7,256.4l0.1,0.1L-140.7,256.4L-140.7,256.4
			 M-139.2,256.4v0.1h0.1l0.1-0.1H-139.2 M-140.1,256.2l0.1,0.1L-140.1,256.2 M-140.3,256.2c-0.1,0.1,0,0.1,0,0.1V256.2
			 M-139.4,256.2v-0.1V256.2 M-140,256l0.1,0.1C-139.8,256.1-139.8,256-140,256C-139.8,256.1-139.9,256-140,256
			C-139.9,256.1-139.9,256-140,256 M-140.5,256C-140.4,256-140.4,256-140.5,256 M-139.6,255.9l-0.1,0.1h0.1V255.9 M-137.8,255.8v0.1
			V255.8c0,0.1-0.1,0.2-0.1,0.2h0.1c0,0,0-0.1,0,0V255.8 M-140.4,255.9l0.1-0.1L-140.4,255.9 M-140.3,255.6c0.1,0,0,0.1,0,0.1V255.6
			L-140.3,255.6 M-141.5,255.7h-0.1v-0.1c0,0.1-0.2,0.4-0.3,0.3C-141.9,256.2-141.5,255.7-141.5,255.7l0.1-0.1L-141.5,255.7
			 M-139.1,255.5l-0.1,0.1c0,0.2,0.1,0.1,0.2,0L-139.1,255.5 M-138.6,255.5h0.1v-0.1L-138.6,255.5l0.1-0.1L-138.6,255.5
			 M-131.8,255.5l-0.1,0.1l0.1,0.1V255.5L-131.8,255.5c0,0.2,0,0.3,0.1,0.2h-0.1V255.5l0.1,0.2l0.1-0.1v0.1c0-0.1,0.1-0.3-0.1-0.3
			c0.1,0,0,0.1,0,0c0,0.1-0.1,0,0,0L-131.8,255.5 M-142.4,255.3C-142.5,255.2-142.4,255.4-142.4,255.3 M-138.2,255.2
			C-138.1,255.3-138.2,255.2-138.2,255.2v-0.1V255.2 M-137.9,255L-137.9,255h0.1H-137.9 M-134.5,255l0.1,0.1c0.1,0,0.1,0,0.1-0.1
			h0.1v-0.1L-134.5,255 M-130,255L-130,255L-130,255L-130,255 M-136.2,255.2l0.2-0.1h-0.2V255V255.2 M-134.5,255.1v-0.2
			C-134.5,254.9-134.6,255.1-134.5,255.1 M-138.1,255.1v0.2c0-0.1,0.1-0.1,0.1-0.2l-0.1,0.1v-0.3V255.1v-0.2V255.1v-0.2V255.1
			 M-141.2,254.9v0.2V254.9 M-134.4,254.8v0.1V254.8l0.1,0.1L-134.4,254.8 M-132.1,254.8c0,0.1,0.1,0.3,0.1,0.3h0.2L-132.1,254.8
			L-132.1,254.8L-132.1,254.8 M-131.9,254.7C-132.1,254.8-131.9,254.7-131.9,254.7 M-141,254.7L-141,254.7c-0.1,0.1-0.2,0.3-0.2,0.3
			l0.1-0.1C-141.1,254.8-141,254.8-141,254.7h0.3H-141 M-131.8,254.7l0.1,0.2v0.1L-131.8,254.7l0.1,0.1
			C-131.7,254.6-131.7,254.7-131.8,254.7l0.1-0.1L-131.8,254.7 M-132.2,254.6v0.3l0.1,0.1L-132.2,254.6 M-132,254.5l0.1,0.1v-0.1
			C-131.9,254.5-131.9,254.6-132,254.5 M-135.7,254.5C-135.8,254.6-135.7,254.6-135.7,254.5L-135.7,254.5l0.1,0.1L-135.7,254.5
			 M-134.5,254.8l0.1-0.1l-0.2-0.1C-134.6,254.7-134.6,254.8-134.5,254.8 M-132.3,254.6l-0.1-0.2L-132.3,254.6 M-133.5,254.5h0.1
			H-133.5 M-137.7,254.4l0.2,0.1v-0.2l-0.2-0.1V254.4 M-136.2,254.2v0.2V254.2 M-141.8,254.2v0.2V254.2v0.2V254.2 M-137.4,254.2
			h-0.1C-137.3,254.4-137.4,254.3-137.4,254.2 M-142.4,254.2C-142.4,254.1-142.3,254.2-142.4,254.2 M-141.7,254.1
			C-141.7,254.1-141.9,254.2-141.7,254.1 M-143,254.1c0,0.1-0.2,0.1-0.1,0.1l0.1,0.1V254.1l0.1,0.1h-0.1h0.1L-143,254.1 M-132.5,254
			l0.1,0.1v0.1c0.1,0-0.1,0,0,0.1h0.1c0,0.2,0,0.1,0.1,0.1l0.1,0.1v-0.2v0.1l-0.3-0.2L-132.5,254L-132.5,254 M-141.5,254.1V254
			C-141.7,254-141.6,254.1-141.5,254.1 M-136.1,254.1C-136.2,254.1-136.1,254.1-136.1,254.1C-136.2,254.1-136.5,254.2-136.1,254.1
			l0.1-0.1v-0.2L-136.1,254.1 M-140.4,254h0.1H-140.4 M-133,253.7v0.1V253.7L-133,253.7 M-140.8,253.8l-0.2,0.2h0.1l0.1,0.2h0.1
			l0.1-0.1C-140.7,254.2-140.7,253.9-140.8,253.8l0.1,0.1C-140.6,253.8-140.7,253.7-140.8,253.8 M-140.2,253.8v0.1V253.8l0.2-0.2
			h-0.3L-140.2,253.8 M-134,253.8l0.1,0.1v0.3v-0.1h0.1c0.1-0.1,0.2,0,0.2,0l0.1-0.1c-0.1,0,0,0,0,0L-134,253.8c0-0.2,0-0.3-0.1-0.3
			C-134.1,253.6-134.1,253.7-134,253.8 M-139,253.4c0,0.1,0,0.2-0.1,0.2c0,0.1,0.1,0.3,0.1,0.3h-0.1c0,0.1,0.1,0.1,0,0.2
			c-0.1,0.1,0.1,0.1,0.2,0.2c0,0.1,0.4,0.3,0.5,0.1v-0.2c0,0.1,0.1-0.1,0.1-0.1c0,0.1,0.1-0.1,0.1-0.1v-0.1l-0.1,0.1
			c-0.1-0.1,0.1-0.2,0-0.2v-0.1c0,0.1,0.2-0.1,0.2-0.1l-0.1-0.1l0.1,0.1h-0.2l-0.3,0.4c0-0.2-0.1-0.3-0.2-0.4h0.1l-0.1-0.1h0.1
			l-0.1-0.1H-139 M-138.7,253.3v0.2h0.1v0.1c0-0.1,0.1-0.1,0.1-0.2L-138.7,253.3 M-133.8,253.2l0.1,0.1l0.1-0.1
			c-0.1,0.2,0.1,0.2,0.2,0.2v0.2v-0.1v0.1l0.1-0.1c0,0.1,0.1,0.1,0.1-0.1h-0.1l0.1-0.2h-0.1l-0.1-0.1c-0.1,0.1-0.1,0.1-0.1,0
			l-0.1,0.1c-0.1,0-0.2,0-0.2-0.1V253.2 M-134.7,253.1l0.1,0.1C-134.6,253-134.7,253.1-134.7,253.1 M-130.4,253
			C-130.4,253-130.5,253.1-130.4,253 M-133.9,253.1c0,0-0.2,0.1-0.1,0.1L-133.9,253.1v0.2C-133.9,253.6-133.6,253.3-133.9,253.1
			 M-135.2,253c0,0.2,0.1,0.1,0.1,0.2l0.3-0.2c-0.1,0-0.2-0.1-0.3-0.1L-135.2,253 M-130.3,253.1L-130.3,253.1
			C-130.3,253-130.4,253.1-130.3,253.1 M-142.8,252.7C-142.7,252.7-142.7,252.7-142.8,252.7 M-142.6,252.7L-142.6,252.7
			L-142.6,252.7 M-139.1,252.6l-0.1,0.1L-139.1,252.6L-139.1,252.6 M-136.3,252.5L-136.3,252.5L-136.3,252.5 M-142.7,252.4l0.2,0.1
			l-0.1,0.1l0.1,0.1l0.1-0.1v-0.1l-0.2-0.2L-142.7,252.4 M-138.7,252.2h0.1H-138.7l0.2,0.1l-0.1-0.1H-138.7 M-139.4,252.2l0.1,0.1
			v-0.1H-139.4 M-139,252.3C-139.1,252.3-139.1,252.4-139,252.3v0.2l0.1,0.1h0.1l0.1-0.1c0,0-0.1,0.2,0,0v0.1h0.2
			c0-0.2-0.2-0.1-0.2-0.2c0.1-0.1-0.1-0.1-0.2-0.1H-139l0.2-0.1C-138.8,252.1-139.2,252.2-139,252.3 M-135.6,252.2v0.1V252.2
			 M-135.7,252.2c0-0.1,0.1-0.2,0-0.1V252.2V252h-0.1C-135.8,252.2-135.7,252.2-135.7,252.2 M-138.4,252.1h-0.1H-138.4
			C-138.4,252-138.5,252-138.4,252.1 M-135.2,252c0,0-0.1,0.2-0.1,0.3L-135.2,252L-135.2,252 M-137.5,252c0,0.1-0.2,0.1-0.2,0.2
			l0.1,0.1v0.1l-0.2,0.2l0.3,0.1l0.1-0.1l0.1,0.1h0.2l0.1,0.1c0-0.1,0-0.3-0.1-0.3v0.1v-0.4v0.1c0,0-0.1-0.1,0-0.1h-0.3
			C-137.3,252.2-137.4,252-137.5,252C-137.6,252.1-137.4,252-137.5,252 M-136,252C-136.1,252.1-136,252-136,252 M-137.4,252l0.1,0.1
			C-137.2,252-137.3,252-137.4,252 M-138,251.9v0.1V251.9v0.3h0.1c0-0.1,0-0.1,0,0l-0.1-0.1C-137.9,252.1-138,252-138,251.9
			 M-139.4,251.9c-0.2,0.1,0,0.2,0,0.2V251.9 M-136.3,251.9c0,0.1,0,0.3,0.1,0.1v0.1L-136.3,251.9 M-136.1,251.8c0,0,0,0.3,0.1,0.2
			c0.1,0.1,0.1,0.2,0.2,0.2l-0.1-0.1l0.1-0.1v-0.1c0,0-0.1,0.1,0,0h-0.1c0.1,0,0,0,0,0S-135.9,251.8-136.1,251.8 M-138.3,251.7h0.1
			H-138.3 M-135.7,251.6L-135.7,251.6L-135.7,251.6 M-139.1,251.6C-139.1,251.7-139.1,251.6-139.1,251.6 M-135.1,251.7
			c0,0.1,0.2,0.3,0.2,0.4v0.1V252v0.1v-0.5C-135,251.8-135,251.7-135.1,251.7l0.1-0.2L-135.1,251.7 M-142,251.6h0.1H-142
			 M-136.3,251.6l0.2,0.1l0.1-0.1v-0.1h-0.1l-0.1-0.1L-136.3,251.6 M-134.8,251.5h0.3c0-0.1-0.1-0.1-0.2-0.1L-134.8,251.5
			 M-134.5,251.4l0.1,0.1L-134.5,251.4 M-135.9,251.4L-135.9,251.4L-135.9,251.4 M-135.1,251.3l0.1,0.1L-135.1,251.3 M-136.1,251.4
			v-0.1C-136.2,251.4-136.2,251.4-136.1,251.4 M-135.2,251.4l0.1-0.1L-135.2,251.4 M-135.6,251.2L-135.6,251.2
			c-0.1,0.2-0.2,0.2-0.2,0.3c0,0,0.2,0,0,0.1l0.2-0.1V251.2 M-138.6,251.2c0-0.1-0.1,0-0.1,0.1L-138.6,251.2c0.1,0.1,0.1,0.2,0.1,0
			H-138.6 M-135.5,251.1C-135.5,251.1-135.6,251.3-135.5,251.1 M-135.9,251.1l0.1,0.1L-135.9,251.1L-135.9,251.1 M-134.6,251.1
			c0.1,0.1,0.1,0,0.1,0.1v-0.1H-134.6 M-134.7,250.8L-134.7,250.8L-134.7,250.8L-134.7,250.8 M-136.1,250.7
			C-136.2,250.7-136.2,250.7-136.1,250.7C-136.3,250.9-136.1,250.7-136.1,250.7 M-136,250.8C-136,250.8-136.1,250.8-136,250.8
			 M-133.2,250.7v0.2V250.7 M-140.1,250.6C-140.1,250.5-140,250.5-140.1,250.6L-140.1,250.6 M-135.5,250.5l0.2,0.1v-0.1H-135.5v-0.1
			V250.5 M-139.7,250.5C-139.7,250.6-139.7,250.6-139.7,250.5l0.1-0.2L-139.7,250.5 M-133,250.4v0.2h-0.1v-0.1c0,0,0.2,0.1,0.2,0
			v-0.1c0.1-0.1,0-0.2-0.1-0.2V250.4 M-134,251.6C-134,251.7-134,251.6-134,251.6 M-133.9,251.2l0.1,0.1
			C-133.9,251.4-133.9,251.3-133.9,251.2v0.1V251.2C-133.8,251.2-133.8,251.2-133.9,251.2 M-134.9,250.4l-0.1-0.1l0.3,0.3
			c0-0.2,0.3,0.2,0.3,0.2l0.1-0.2h0.1v0.1l-0.1,0.1v0.1v-0.1v0.1c0-0.1,0.1,0.1,0.1,0.1h-0.1c0,0.1,0.2,0.2,0.1,0.3h-0.1l-0.1,0.1
			c-0.1,0.3-0.1,0.1-0.2,0.1v-0.1h-0.1v0.4c0,0,0.2,0,0.1-0.1l0.1-0.1c0,0.1,0.1,0.1,0.1,0l0.1,0.2v0.1l0.3,0.1c0,0,0.4-0.4,0.2-0.5
			v-0.1h-0.1c0,0-0.1,0.1-0.1,0c0.1,0,0.1-0.2,0.1-0.2v-0.1h-0.1c0.2,0-0.1-0.3-0.2-0.2c0,0,0-0.4-0.2-0.3l-0.2-0.1l-0.1-0.2
			c-0.1,0,0.1,0.2,0,0.2C-134.7,250.4-134.8,250.4-134.9,250.4l0,0.1h0.1h-0.1v0.1l-0.1-0.2C-135,250.5-135,250.4-134.9,250.4h-0.2
			C-134.8,250.2-134.9,250.3-134.9,250.4 M-135.8,250.3h0.1H-135.8 M-133.3,250.3L-133.3,250.3L-133.3,250.3 M-135.7,250.2v0.1
			C-135.6,250.2-135.7,250.2-135.7,250.2 M-133.6,250.2v0.2h0.1c0,0.1,0,0.2,0.1,0c0,0.1,0,0.1,0.1,0.1h-0.1c0.1,0,0.3-0.1,0.3-0.2
			c0-0.1-0.2,0-0.3,0v-0.1h-0.1c0-0.2-0.1-0.1-0.1-0.1V250.2l0.1-0.1L-133.6,250.2 M-140.5,250.2v-0.1V250.2 M-133.3,250L-133.3,250
			C-133.3,250.1-133.2,250-133.3,250 M-139.7,250L-139.7,250L-139.7,250 M-133.5,250C-133.5,250-133.4,250.1-133.5,250 M-138.6,250
			l0.1-0.1L-138.6,250 M-138.7,250.6C-138.6,250.7-138.7,250.6-138.7,250.6 M-138.5,250.2h-0.2c-0.1-0.2-0.1,0.2-0.1,0.2l-0.1,0.1
			h-0.1l0.1,0.1h-0.2v0.1h-0.1c0,0,0,0.3,0.1,0.1v0.1c-0.1-0.1-0.2,0.1-0.2,0.2v0.1l-0.2-0.1v0.1h-0.1v-0.1c-0.1,0-0.1,0.2-0.2,0.1
			v0.2h0.1v0.1h0.1v0.2l0.2,0.1h-0.1l0.2-0.3v-0.1c0,0.1,0.1,0,0.1-0.1l0.3-0.1c-0.1-0.1,0-0.1,0-0.3c0.2,0,0.1,0.1,0.1,0.1
			c0.1,0,0,0,0.1-0.1h0.1v-0.1h0.2c0.1-0.3-0.1-0.4,0.1-0.4c0-0.1,0-0.2,0.1-0.1v0.1c0.2,0,0-0.2,0-0.2h0.2l0.1-0.1
			c-0.1,0-0.1-0.1-0.1-0.2C-138.3,249.9-138.5,250.2-138.5,250.2 M-140,249.9c0,0,0.1,0.1,0,0.2V250v0.2c0.1,0.2,0.2,0,0.1-0.2
			C-139.9,250-139.9,249.8-140,249.9 M-138.4,249.8C-138.4,249.9-138.4,249.9-138.4,249.8L-138.4,249.8L-138.4,249.8 M-132.9,249.7
			l0.1,0.2v-0.1h0.1v-0.1H-132.9 M-140.2,249.6c-0.2,0.1,0.1,0.4,0.1,0.3l-0.1-0.1h0.1L-140.2,249.6 M-140.2,249.5
			C-140.2,249.6-140.1,249.5-140.2,249.5 M-138.5,249.3l-0.1,0.1L-138.5,249.3C-138.6,249.3-138.6,249.4-138.5,249.3l-0.1,0.2v0.1
			h-0.1c0,0.1-0.1,0.2-0.1,0.1c-0.1,0-0.3,0.2-0.2,0.3c0.2,0,0.2-0.1,0.3-0.3l-0.1,0.1l0.1-0.1l0.2-0.1l-0.1-0.1v-0.1l0.2-0.2
			C-138.4,249.3-138.5,249.3-138.5,249.3 M-138.9,249.3c0.1,0.1,0,0.1,0,0.2h0.2c0.2-0.1,0-0.2,0.1-0.3L-138.9,249.3 M-139.5,249.1
			l-0.1,0.1L-139.5,249.1L-139.5,249.1C-139.3,249.2-139.6,249.2-139.5,249.1h0.1H-139.5 M-136.8,249.1l-0.2,0.2h0.1
			C-136.8,249.3-136.8,249.2-136.8,249.1 M-138.3,249c0,0.1,0.1,0.1,0.1-0.1L-138.3,249 M-134.6,248.9L-134.6,248.9L-134.6,248.9
			 M-133.3,248.8l0.1-0.1l-0.1-0.1V248.8 M-133.7,248.7l0.1,0.1L-133.7,248.7 M-136.9,248.7l0.1,0.1L-136.9,248.7 M-136.1,248.7v0.1
			l-0.1,0.1v0.1h0.1v-0.1C-135.9,248.8-136,248.7-136.1,248.7 M-133.9,248.8v-0.2V248.8 M-136.9,248.7
			C-137,248.6-137,248.7-136.9,248.7 M-132.1,248.7C-132.1,248.7-132,248.7-132.1,248.7h0.2l-0.1,0.2l0.1,0.1
			c-0.1,0-0.1-0.1-0.2-0.1v0.1c0.1,0,0.1,0.1,0.2,0.1l0.3-0.1c0-0.1,0-0.1-0.1,0v-0.2l-0.1-0.1l-0.2-0.1L-132.1,248.7 M-132.4,248.6
			c0.1,0.1,0,0.2,0.1,0.2L-132.4,248.6 M-133.5,248.6c0,0,0,0.1,0.1,0.1L-133.5,248.6 M-132.1,248.5
			C-132.2,248.6-132.1,248.7-132.1,248.5 M-132.9,248.7C-132.9,248.8-133,248.7-132.9,248.7l-0.1,0.2v0.1h0.2L-132.9,248.7
			c0.1,0.2,0.2,0.2,0.2,0.3l0.1-0.1c-0.1,0,0.1,0.1,0.2,0.1h0.2v0.1c0-0.2-0.1-0.1-0.1-0.1v-0.1l-0.1,0.1l-0.1-0.2h-0.1
			c0-0.1,0-0.1,0.1-0.1h-0.1c-0.1,0-0.1,0-0.2-0.1L-132.9,248.7 M-136.7,248.6L-136.7,248.6L-136.7,248.6 M-134.9,248.5
			L-134.9,248.5L-134.9,248.5 M-135.1,248.5L-135.1,248.5L-135.1,248.5 M-133.1,248.5v0.3l0.1-0.1c0,0.1,0.1-0.1,0.1-0.1
			L-133.1,248.5 M-137.5,248.3v0.2h-0.2v-0.1l-0.1,0.2h-0.1c0,0.1,0.2,0.3,0.3,0.2c0.1,0.2,0.5-0.1,0.3-0.1v-0.1h-0.1
			c0.1,0,0-0.1,0-0.1L-137.5,248.3 M-133.9,248.3v0.1l0.1,0.1c0,0,0.2,0,0-0.1L-133.9,248.3 M-135.4,248.5L-135.4,248.5
			L-135.4,248.5h-0.2v0.1h-0.1v0.1h0.2l0.1-0.3C-135.4,248.4-135.5,248.3-135.4,248.5 M-134,248.4C-133.8,248.4-134,248.4-134,248.4
			 M-136.7,248.3v0.1V248.3 M-138.9,248.4c0.1,0.1,0.1,0,0.1-0.1L-138.9,248.4 M-133.9,248.3C-134,248.3-133.9,248.3-133.9,248.3
			 M-131.2,248.2L-131.2,248.2L-131.2,248.2C-131.2,248.3-131.1,248.1-131.2,248.2 M-134,248c0.1,0.1,0.2,0.3,0.3,0.1h-0.1L-134,248
			 M-135.6,248l0.1,0.1v-0.2L-135.6,248 M-135.8,248l0.1-0.1L-135.8,248 M-134.5,248l0.2,0.1v0.1h-0.1c-0.3-0.6,0,0,0,0.1h-0.1
			l0.1,0.1v-0.1l0.1-0.1v0.2l0.1-0.1l0.2,0.1h-0.1c0.1-0.2-0.2-0.2-0.2-0.2c0-0.2,0.1-0.4-0.1-0.4v-0.1l-0.2-0.1
			C-134.5,247.8-134.5,247.9-134.5,248 M-134.7,247.7l0.1-0.1L-134.7,247.7 M-134.6,247.6C-134.6,247.7-134.5,247.7-134.6,247.6
			 M-134.7,247.6v0.1V247.6 M-137,247.5L-137,247.5L-137,247.5 M-134.7,247.5C-134.6,247.4-134.6,247.4-134.7,247.5v-0.1
			C-134.7,247.4-134.8,247.5-134.7,247.5 M-135.9,247.5v0.3l0.1-0.1v0.1l0.2-0.1l0.2-0.1c0-0.2-0.1-0.2-0.1-0.2h-0.1
			c-0.1,0,0,0,0-0.1C-135.8,247.2-135.9,247.4-135.9,247.5 M-131.6,247.2L-131.6,247.2L-131.6,247.2L-131.6,247.2 M-138.4,247.1
			C-138.5,247.2-138.4,247.3-138.4,247.1 M-138.4,247v0.2C-138.3,247.2-138.2,247-138.4,247 M-136.8,247.1V247V247.1 M-135.4,247.1
			v0.1V247.1v0.2c0,0.1,0.1,0.1,0.2,0.1h0.1v-0.3l-0.1-0.1C-135.3,247-135.4,247.1-135.4,247.1 M-135.5,246.9
			C-135.5,246.9-135.5,247.1-135.5,246.9 M-138.7,247.1v0.1c0.1-0.1,0.1,0,0.1,0.1L-138.7,247.1c-0.1-0.1,0-0.1,0-0.2h-0.1
			C-138.7,246.9-138.7,247-138.7,247.1 M-135.3,246.9v-0.1V246.9 M-138.2,246.8l0.1,0.1h0.1C-138.1,246.7-138.1,246.8-138.2,246.8
			 M-140.9,246.8C-140.9,246.8-140.9,247-140.9,246.8l0.1-0.1L-140.9,246.8 M-140.8,246.9l0.1-0.2L-140.8,246.9 M-136.3,246.7
			L-136.3,246.7L-136.3,246.7l0.1,0.2l0.1-0.1c0,0,0.1,0.3,0.2,0.1c-0.1-0.1-0.1-0.2-0.2-0.1v-0.1H-136.3 M-138.5,246.5v0.3
			c0.1,0.1,0,0.2,0.1,0v0.1c0.2,0-0.1-0.3,0-0.3v0.1l0.1-0.1l-0.1,0.1c0-0.1,0.1-0.1,0.1-0.1C-138.5,246.5-138.5,246.7-138.5,246.5
			 M-133.9,246.5h0.1l-0.1-0.2V246.5 M-132.7,246.4v0.1V246.4 M-131.7,246.4v-0.2V246.4 M-138.4,246.3c0.1,0-0.1,0.2,0,0.2l0.1-0.1
			v0.1C-138.3,246.3-138.4,246.3-138.4,246.3 M-141.1,246l0.1-0.1C-141.1,245.9-141.1,245.9-141.1,246 M-132.8,246h-0.1H-132.8
			L-132.8,246L-132.8,246L-132.8,246l0.1,0.2h-0.2c0.1,0.1,0.2,0.2,0.3,0.2l0.1,0.1h0.2l0.1-0.1v-0.2h-0.5L-132.8,246
			c-0.1,0.1,0.1,0,0.1-0.1C-132.6,245.8-132.8,245.8-132.8,246 M-137.5,246l0.1,0.1L-137.5,246 M-137.7,245.8l-0.1,0.1h-0.2l0.1-0.1
			l-0.1,0.2h-0.1c0.1,0,0-0.1,0.1-0.1c0-0.1-0.1-0.1-0.1-0.1v0.3l-0.2,0.1v0.1h-0.1c0,0.2,0.1,0.2,0.2,0.2h0.1v-0.1h0.2v0.2
			c0.1,0.2,0,0.2-0.1,0.2v0.1l0.1,0.1l-0.2,0.2h0.2c0.1,0.1,0.1,0.1,0.3,0c0.1,0,0.4-0.3,0.4-0.1l0.1-0.1l0.2,0.1v-0.3
			c0.2,0.3,0.2-0.4,0.2-0.4c0-0.1-0.2-0.1-0.2-0.1h-0.2c0.1-0.1,0-0.1,0-0.2c0,0-0.3,0.1-0.2,0h0.1l-0.1-0.1
			c-0.1-0.1-0.1-0.1-0.2-0.3h0.1v-0.1L-137.7,245.8 M-137,245.6v0.2h0.1L-137,245.6 M-133.1,246.3
			C-133.4,246.2-133.1,246.2-133.1,246.3L-133.1,246.3 M-133.2,245.7h-0.3v0.2h-0.1v-0.1l-0.1-0.2h-0.1c0.1,0.1,0,0.2,0,0.3h0.1
			c0,0.1,0.1,0,0.2,0h-0.1c0,0.1,0.1,0,0.1,0.1h-0.1l0.1,0.1h-0.1l-0.1-0.1v-0.1l-0.1,0.1l0.2,0.2v-0.1v0.1h0.2c0,0.2,0.1,0,0.2,0
			c0,0.1,0.1,0.2,0,0.3h0.3c0.1,0.2,0.3,0,0.3,0v0.1v-0.1c-0.1,0.1-0.2-0.1-0.3-0.2l-0.1-0.1V246l-0.1,0.1V246l0.1,0.1v-0.2v0.1
			h-0.1v-0.2L-133.2,245.7l0.1,0.1c0-0.1,0.1-0.2,0-0.3L-133.2,245.7 M-138,245.7v-0.1V245.7 M-138,245.6l0.1,0.2L-138,245.6h0.2
			v0.1l0.1-0.1H-138 M-134,245.5c-0.1-0.1-0.1,0-0.1-0.1h-0.1l-0.2,0.2v0.1l0.1,0.1v-0.1v0.1l0.1-0.1l-0.1,0.1
			c0.1,0,0.1-0.1,0.1-0.2v-0.1C-133.9,245.7-133.9,245.6-134,245.5v-0.2C-134,245.4-133.9,245.5-134,245.5 M-137.5,245.4l0.1,0.1
			h0.1v-0.1l0.1,0.1v0.1h-0.1v0.1c0.1-0.2,0.3-0.1,0.3,0.1v-0.2c0,0.1,0,0,0,0v-0.1h-0.2v-0.1c0,0.1,0.1,0,0.1,0H-137.5
			 M-138.1,245.4l0.1-0.1L-138.1,245.4 M-131.4,245.4c-0.2,0.1,0.2,0.2,0.3,0.2L-131.4,245.4h0.2H-131.4c0.1,0.1-0.1-0.2,0-0.2h-0.2
			C-131.6,245.4-131.5,245.4-131.4,245.4 M-138.7,245.2C-138.7,245.4-138.6,245.2-138.7,245.2 M-138.5,245.3h-0.1v0.1
			c-0.1-0.1-0.2,0-0.2-0.1h-0.1v0.2l-0.1,0.1c-0.1,0.3,0.2,0.1,0.4,0.2v-0.1l0.1-0.2l0.1-0.1L-138.5,245.3l0.1,0.1L-138.5,245.3
			c0.1,0,0.2,0.1,0.2-0.1h-0.1c0,0-0.1,0-0.1-0.1V245.3 M-134.2,245.2h-0.1H-134.2 M-133.7,245.1c0,0.3,0.3,0.1,0.3,0.1h-0.1
			L-133.7,245.1 M-132.9,245.1l-0.2,0.2v0.2h-0.1c0.1,0,0,0,0,0l0.2,0.4c0-0.1,0-0.3,0.1-0.2v0.1c0.1,0,0.2-0.1,0.2-0.2v0.1l0.1-0.1
			v-0.5h-0.1c0,0.1,0.1,0.2,0.1,0.3c0,0-0.1-0.3-0.2-0.2L-132.9,245.1v0.1V245.1v0.1C-132.9,245.1-132.8,245.1-132.9,245.1
			C-132.8,245-132.9,245.1-132.9,245.1 M-133.1,245c0,0,0.1,0.1,0.1-0.1L-133.1,245 M-136.3,244.8c-0.1,0.2-0.1,0.2,0,0.2
			c0,0-0.1,0.1,0,0.2C-136.3,245-136.2,244.9-136.3,244.8 M-137.1,244.8l-0.1,0.1L-137.1,244.8c-0.2,0-0.1,0.2-0.1,0.1l-0.1,0.1h0.4
			v0.1v-0.2C-136.8,244.9-137,244.9-137.1,244.8C-136.9,244.8-137.1,244.8-137.1,244.8 M-130.8,244.8
			C-130.8,245-130.7,244.8-130.8,244.8L-130.8,244.8L-130.8,244.8 M-137.2,244.5L-137.2,244.5L-137.2,244.5 M-136.8,244.4l0.1,0.1
			h-0.1c-0.1,0.1,0.1,0.1,0.1,0v0.1c0.1,0,0.1,0,0.1-0.1h-0.1L-136.8,244.4h0.1H-136.8h0.1H-136.8l0.1-0.1h-0.1V244.4 M-135.2,244.4
			c0.1-0.1-0.2-0.1-0.2,0l-0.1-0.1v0.1l-0.1-0.1v0.1c0,0,0.2,0.3,0.3,0.2c0-0.2,0.3-0.1,0.3-0.1l0.1,0.1l0.1,0.1v0.1l-0.2-0.1
			l-0.1,0.1l0.2,0.2c0,0.1,0.1,0.1,0,0.1v0.1h-0.1c0,0.1,0.1,0.1,0.1-0.1c0.1,0,0.1-0.3,0.2-0.4v0.1c0,0.1,0,0.1-0.1,0.2l0.1-0.1
			h0.1v-0.1h-0.1c0.1,0-0.3-0.4-0.2-0.5l-0.1,0.1v-0.2L-135.2,244.4 M-137,244.3L-137,244.3l0.1,0.2h0.1h-0.1
			C-136.8,244.4-137,244.2-137,244.3 M-135.8,244.5h-0.2v-0.2c0,0,0-0.1-0.1,0l-0.2,0.2v0.1v-0.1c0,0.1,0.1,0.2,0.2,0
			c0,0.1,0,0.2,0.1,0.1c-0.1,0.1,0.1,0.2,0.1,0.2v0.1v-0.1l0.2,0.1C-135.7,244.8-135.8,244.5-135.8,244.5h0.1H-135.8
			c0.1,0,0-0.1,0.1-0.2l-0.1-0.1V244.5 M-137.6,244.1L-137.6,244.1c-0.1,0.1,0,0.1,0.1,0.2v0.1c0.1-0.1,0.1-0.1,0.1-0.2
			c0-0.1-0.1-0.1-0.1-0.1H-137.6 M-136.9,243.9v0.1V243.9 M-137.7,243.7h0.1H-137.7 M-135.6,243.7l-0.1,0.1h0.1
			C-135.7,243.7-135.5,243.7-135.6,243.7L-135.6,243.7 M-135.8,243.6L-135.8,243.6l-0.2,0.1v0.2c0.1,0,0.2,0.2,0.2,0V243.6l0.1,0.2
			v-0.1L-135.8,243.6 M-134.5,242.9h0.2c0-0.1-0.1,0-0.1,0H-134.5L-134.5,242.9L-134.5,242.9 M-136.8,242.9h0.1
			c0.1,0,0.1-0.2,0.1-0.2h-0.1C-136.8,242.7-136.8,242.8-136.8,242.9 M-134.7,242.8v0.2V242.8L-134.7,242.8L-134.7,242.8
			c0,0,0.1-0.1,0-0.1V242.8 M-136.9,242.6C-136.8,242.6-136.8,242.7-136.9,242.6 M-135.6,242.5
			C-135.7,242.6-135.6,242.5-135.6,242.5 M-136.8,242.6L-136.8,242.6v-0.1C-136.8,242.4-136.9,242.6-136.8,242.6 M-136,242.4v0.1
			V242.4v0.1c0-0.1-0.1,0.1-0.2,0.2h0.1h-0.1h0.1v-0.1v0.1h0.1h-0.1h0.1v-0.1l0.2-0.1v-0.1H-136 M-135.5,242.3c0-0.1-0.1,0-0.1,0.1
			L-135.5,242.3c0.1,0.1,0,0.3,0.1,0.2c0,0.1,0.1,0.2,0.1,0.1c0.1,0,0.1,0,0.2-0.1v0.1h0.1l0.1-0.1h-0.2c0,0,0-0.1-0.1-0.2l0.1,0.1
			h-0.2v-0.1v0.1L-135.5,242.3C-135.5,242.4-135.5,242.4-135.5,242.3 M-133.9,242.2C-133.9,242.3-133.9,242.2-133.9,242.2
			 M-135.6,242.2v-0.1V242.2 M-137.7,242l-0.1,0.2L-137.7,242v0.2V242 M-133.8,242C-133.5,242.1-133.7,242-133.8,242v-0.1V242
			 M-136.4,241.9l-0.1,0.1L-136.4,241.9L-136.4,241.9l-0.2,0.2l0.1-0.1L-136.4,241.9v0.1l0.2-0.1
			C-136.2,241.9-136.4,242-136.4,241.9 M-136.3,241.8l0.1,0.1v0.1l0.1-0.1c-0.1,0,0,0-0.1,0.1C-136.2,241.8-136.1,241.8-136.3,241.8
			 M-134.2,241.8L-134.2,241.8L-134.2,241.8 M-136.1,241.7v0.1V241.7 M-135.8,241.7c0,0.1,0.1,0,0.2,0H-135.8 M-136.7,240.2
			c-0.3,0.2-0.1,0.3-0.1,0.2v-0.1L-136.7,240.2v0.1V240.2 M-134,240.2v0.2c0.1-0.1,0.1-0.2,0.1-0.3L-134,240.2 M-137.4,240l-0.1,0.1
			c0,0.1,0.1,0.1,0.1,0.1V240 M-137,240v-0.1V240 M-137.7,239.9L-137.7,239.9L-137.7,239.9 M-136.8,239.7v0.2c0,0.1,0.1,0,0.1,0
			L-136.8,239.7h0.1c-0.1,0.1,0.1,0,0.1,0C-136.7,239.7-136.7,239.6-136.8,239.7 M-138.2,239.9L-138.2,239.9L-138.2,239.9
			 M-137.5,239.7c0.1,0.1,0,0.1,0,0.1v0.1h0.1l-0.1,0.1c0.3-0.1,0-0.1,0.1-0.2l-0.1,0.1V239.7 M-138.8,239.6
			C-138.7,239.6-138.8,239.6-138.8,239.6 M-135.6,239.5c-0.1,0.1,0,0.1-0.1,0.1c0,0,0.1,0.2,0.1,0.1l-0.1-0.1L-135.6,239.5
			 M-136.8,239.4v0.2C-136.9,239.5-136.8,239.5-136.8,239.4l-0.1,0.2l0.1-0.1V239.4 M-138.6,239.4L-138.6,239.4l-0.1,0.2
			c0,0-0.1,0.1,0,0.1v0.1v-0.1l0.1,0.2c0.1-0.2,0,0.2,0.1,0.2l0.1-0.1v0.1V240h-0.1l0.1-0.1v-0.1v0.1l-0.1-0.1
			c-0.1-0.1,0.1-0.1,0.1-0.2L-138.6,239.4 M-137.7,239.3C-137.6,239.3-137.7,239.4-137.7,239.3 M-138.8,239
			C-139,239-138.7,239.1-138.8,239 M-135.8,239C-135.8,239.1-135.7,239.2-135.8,239C-135.8,239-135.8,239.1-135.8,239 M-137.7,238.7
			l0.1,0.2l0.1-0.1c0.1,0.1,0.2,0,0.2,0.2h-0.1v0.1h-0.1c0.1,0.1,0.1,0.2,0,0.2v0.1l0.3-0.1l-0.2-0.1c0.1,0,0.1-0.2,0-0.3l-0.1-0.1
			v-0.1v0.1v-0.1H-137.7 M-137.5,238.6C-137.5,238.5-137.7,238.6-137.5,238.6 M-137.7,238.4v0.1V238.4 M-137.3,238.2
			C-137.3,238.4-137.2,238.2-137.3,238.2 M-132.3,256.6L-132.3,256.6L-132.3,256.6 M-130.2,253.6
			C-130.2,253.5-130.2,253.5-130.2,253.6 M-136.8,236.3v-3.5c0-0.4-0.3-0.7-0.7-0.7h-8.2c-0.4,0-0.7,0.3-0.7,0.7v18.4
			c0,0.5-0.4,0.6-0.6,0.2l-7.2-17.4l-0.3-0.7c-0.5-1.1-0.5-1.2-1.9-1.2h-8.9c-0.4,0-0.7,0.3-0.7,0.7v36.4c0,0.4,0.3,0.7,0.7,0.7h7.8
			c0.4,0,0.7-0.3,0.7-0.7v-18.4c0-0.5,0.4-0.6,0.6-0.2l7.2,17.4l0.3,0.7c0.2,0.7,0.9,1.2,1.6,1.2h5.5c2.3,0,4.2-1.9,4.2-4.2v-9.5
			c-0.1,0-0.2-0.1-0.3-0.1l-0.1-0.1l0.1,0.2h-0.2v-0.1v0.1l0.1-0.1h-0.2c0,0.2,0,0.3,0.1,0.2h0.1l0.1,0.1h-0.1l0.1,0.1
			c0,0-0.2,0-0.2-0.1v0.2v-0.1l-0.1,0.1l-0.1,0.1c-0.1,0.2,0,0.2,0,0.2h-0.3c-0.2,0-0.3,0.1-0.5,0.1l0.1-0.1l-0.1,0.1l-0.2-0.1h0.1
			c-0.1-0.1,0-0.3-0.2-0.3v0.2l-0.1-0.2l-0.1,0.1l-0.2,0.5v-0.1l0.1,0.1h-0.1l0.1,0.1l-0.1,0.4v-0.1c-0.2,0-0.2,0-0.2,0.2h-0.1v-0.1
			l-0.1,0.2h-0.1c0-0.1,0.1-0.3,0.1-0.4h-0.1l-0.2,0.2v-0.1l-0.1,0.3l-0.2,0.1v-0.1h-0.1c0,0.3,0.2,0.2,0,0.2l-0.1,0.1
			c-0.1,0.1-0.1,0.3-0.2,0.1c-0.1-0.2,0-0.3,0-0.3c0.1,0,0.1-0.3,0.2-0.4l-0.1,0.1v0.1v-0.1h-0.1c0,0-0.1-0.2-0.2-0.2
			c0-0.2-0.2-0.2-0.2-0.3l0.1-0.1l-0.1-0.2c0,0,0.1-0.1,0.2,0.1v-0.1c0.1-0.1,0.1-0.5,0.3-0.4c-0.2-0.2,0-0.4,0.1-0.5
			c0-0.1,0-0.5,0.2-0.3v-0.1h0.1v-0.1h0.1l-0.1-0.1l0.1-0.1h0.1h-0.3v-0.1v0.1v-0.2l0.3,0.1c0.1-0.1,0-0.2,0-0.2
			c0-0.1,0-0.2,0.1-0.3v0.1v-0.2v0.1l-0.1,0.1l-0.2,0.2v-0.1l-0.1,0.2h-0.1l-0.3,0.3v-0.1c-0.1,0.1-0.2,0.5-0.2,0.3l0.1,0.1
			c-0.1,0-0.2,0.1-0.1,0.2c-0.1-0.1,0,0.3-0.2,0.3c-0.1,0-0.1,0.2-0.2,0.3l-0.1-0.3h-0.1v0.1h-0.1c0,0.2-0.1,0.1-0.1,0.1h0.2v0.1
			l0.1-0.1v0.1h-0.1v0.1v-0.1v0.1h-0.2v-0.2h-0.1c0.1,0.1-0.1,0-0.1-0.1l-0.1-0.1l0.1-0.1h0.1v-0.2l0.1-0.2h0.1l0.1-0.1l-0.2,0.5
			l0.1-0.1l-0.1-0.3l-0.2,0.2c-0.2,0.2-0.4,0.3-0.3,0h0.1c0-0.1-0.2-0.4-0.1-0.4c-0.4-0.3,0-0.3,0.1-0.3c0,0,0.1-0.3,0.2-0.1
			c0.1-0.2,0.3-0.1,0.4,0h-0.1l0.1,0.2v-0.1l0.2-0.1h-0.1c0-0.1,0.1-0.1,0.1,0h0.1h-0.1c0,0,0.4-0.2,0.4-0.3l-0.1,0.1
			c0-0.1,0.1-0.1,0.1-0.1v-0.1h0.1v0.1c0.2-0.2,0.4,0,0.4-0.3h0.1v0.2l0.1-0.2c0.1,0.1,0.2-0.1,0.2-0.2c-0.2,0.1-0.5-0.1-0.6-0.1
			v-0.1h-0.2c0.1,0.1,0,0.1,0,0.2l0.1,0.1h-0.1l-0.2,0.1v-0.1h-0.1c0-0.1,0,0,0,0v-0.1c0,0-0.1,0,0,0.1h-0.1l0.2,0.1
			c0.1,0.1,0,0.3-0.1,0.1v-0.1l-0.1,0.1l0.1,0.2h-0.1l0.1-0.1l-0.1,0.1v0.2h-0.2c-0.1,0,0-0.3,0.1-0.3c0,0-0.1-0.3-0.1-0.1h0.1h-0.1
			v0.2v-0.1c0,0-0.2,0.1-0.1,0.1h-0.1v-0.2v0.1h-0.2c0,0.1-0.1,0-0.1,0.1v0.1l0.1,0.1c-0.1,0.1-0.1,0.2-0.2,0.3h-0.2l0.1-0.1h-0.4
			v-0.1v0.2v-0.1h0.1c0,0.1-0.2,0.2-0.2,0.2c0.1,0,0.1,0.1,0,0.2h-0.2v-0.3l0.1,0.1l-0.1-0.2h-0.1c0,0,0-0.2-0.1-0.1
			c0-0.1,0.1-0.1,0.1-0.1h0.1l-0.1-0.1h0.1c-0.1,0.1,0.1,0,0.1,0h-0.1c0.1-0.1,0-0.1,0-0.2c0,0.1,0.1,0.1,0.2,0.1v0.1v-0.1
			c0.1,0,0.2,0,0.2-0.1h0.1l-0.1-0.1l0.1-0.1h0.1h-0.1v-0.2v0.1c0,0.1-0.1,0.1-0.1,0.1h-0.1l0.1-0.1l-0.1,0.1h0.1v0.1
			c-0.1-0.1-0.2,0-0.2,0.1h-0.1c0-0.1-0.2-0.2,0-0.2c0-0.1-0.3-0.3-0.2-0.4c0-0.1-0.1-0.4-0.2-0.6h0.1c0-0.1,0.4-0.6,0.4-0.8h0.1
			c0,0,0-0.4,0.2-0.2h-0.1h0.1v-0.3l-0.1,0.1c0-0.1-0.2-0.2-0.2-0.4c0.2,0,0.3,0,0.4-0.1c0-0.2-0.1-0.1-0.1-0.2h0.1v-0.1
			c0.2,0.1,0.1,0,0.3,0.2c0.1,0.1,0.1,0,0.1-0.1h0.1v-0.4c0.2-0.1,0.2-0.3,0.2-0.5c-0.1-0.2,0.1-0.2,0.1-0.3c0,0,0.2,0.1,0.1-0.1
			v-0.1c-0.2,0.2,0.1-0.1,0-0.2h0.1c0,0,0.1,0.2,0.2,0.1c-0.1-0.1,0-0.1,0-0.2h0.1c-0.1,0.1,0.3,0.3,0.4,0.3v0.1h-0.2l0.1,0.1
			c0-0.1,0-0.1,0.1-0.1v-0.1h-0.1V250l0.1,0.1h0.1V250h0.1v0.1c0,0,0.1,0,0.1-0.1h-0.1c0.1,0,0.2,0.1,0.1-0.1h0.1
			c-0.1-0.1,0.1-0.1,0.2-0.1c0-0.1-0.2-0.2-0.2-0.1l0.1-0.1c0-0.1-0.1,0.1-0.1,0.1v-0.1h-0.1v0.2v-0.1v0.1h-0.2l-0.1,0.2
			c0,0.1-0.1-0.2-0.1-0.4c-0.1-0.2-0.1-0.5,0-0.3c0-0.1,0-0.2-0.1-0.2s-0.1,0-0.1-0.2h0.3h-0.1l0.3-0.3h0.1c0-0.2,0.3-0.1,0.3,0
			c0.1-0.1,0.5-0.1,0.6-0.1c0-0.1,0.1-0.3,0.1-0.2h0.1V248l0.3-0.2h-0.1h0.3l0.1-0.1h0.1v-0.1c0-0.1-0.2-0.1-0.3-0.1h0.1
			c0-0.2-0.3-0.3-0.2-0.2v-0.1v0.2c-0.1-0.1,0,0-0.1,0.1c-0.1,0-0.2-0.3-0.2-0.4c0.1,0,0.2-0.2,0.1-0.2v-0.1c0,0,0.3-0.4,0.4-0.6
			l0.1-0.1l0.1-0.1c-0.1-0.1,0,0-0.1-0.2h-0.1l0.1-0.1h-0.1c-0.1,0-0.2-0.1-0.3,0.1l0.1,0.1h-0.2v-0.1l-0.1,0.1v0.2
			c0-0.1-0.2,0-0.2,0.1s-0.3,0.1-0.3,0h0.2c-0.1,0,0.1-0.3,0-0.3v-0.1l-0.2,0.1c0.2,0,0,0.2-0.1,0.3h-0.2v0.2h-0.2
			c0,0,0-0.2-0.1-0.1v0.1c0-0.2-0.4,0.2-0.2,0.2c0.1,0.1-0.2,0.1-0.2,0.1v0.1l0.1-0.1v0.1v-0.1v0.1h-0.1l-0.1,0.1v0.2h-0.2
			c0.1,0,0.1-0.2,0.1-0.2h-0.1c0,0.3-0.2,0.2-0.2,0.1l-0.1,0.1h0.1l-0.1-0.1v0.2c0-0.1,0-0.2,0.1-0.2l-0.3,0.1l0.1,0.1h-0.2
			l-0.2-0.2l-0.1,0.1c-0.1-0.1,0.1-0.5,0.1-0.7v0.1c0-0.2,0-0.4,0.1-0.4l0.1-0.2c0.2,0,0.2,0.1,0.3,0.2c-0.1-0.1,0,0,0,0h0.2
			c0,0,0-0.1-0.1-0.1h-0.2l-0.1-0.1l0.1-0.1v-0.5c-0.1,0,0,0.1,0,0.1c-0.2-0.3-0.1-0.3,0-0.5h0.3v-0.4l0.1-0.1
			c0.1,0,0.1,0.1,0.1,0.2l0.2-0.1c0.1-0.1,0.2-0.1,0.2,0.1l0.1-0.2v0.1c0,0,0.1-0.2,0-0.2v0.1c0-0.2-0.2-0.3-0.1-0.5l0.2-0.3
			c0.1-0.1,0.2-0.1,0.4-0.3h-0.1h0.3l0.1-0.1c0,0.1,0.1,0.2,0.1,0.2v-0.1c0.1,0.1,0.1,0,0.1,0c0-0.1,0.4-0.2,0.4-0.2v-0.4v0.1
			l0.1-0.1l0.2-0.1c0-0.1,0.2-0.1,0.2-0.3l0.1,0.1l-0.1-0.2h0.1v0.1h0.1c0,0,0-0.1,0,0v0.1l0.1,0.1v-0.1c0-0.1-0.1-0.2,0-0.3
			c0,0-0.5,0.2-0.6,0.2l-0.1-0.1c0,0-0.5,0.3-0.6,0.1h0.1l-0.3-0.1v0.1v-0.5c0.1-0.1,0.3,0,0.3-0.2c0,0,0.3,0,0.3,0.2
			c0.3-0.5,0.3-0.4,0.3-0.6c0,0,0.2-0.1-0.1,0l-0.1,0.1V241l0.1,0.1l0.1-0.2v0.1v-0.1v0.1v-0.3l0.1,0.2l0.1-0.4h0.3l-0.1,0.1h0.2
			l-0.1-0.1l-0.1-0.1c0.1,0,0,0,0-0.1c0-0.1-0.1-0.1-0.1-0.1s-0.3-0.1-0.3-0.3c0.1,0.2,0.1-0.2,0.1-0.2c0,0.1-0.1,0.1-0.2,0h-0.1
			c0-0.1,0-0.2,0.1-0.3h-0.1c0-0.1,0-0.2-0.1-0.3c0.2,0,0-0.3-0.1-0.3c-0.1-0.3,0.2-0.2,0.3-0.4h-0.1c0-0.2,0.3-0.4,0.5-0.4l0.2,0.2
			h0.1c-0.2,0-0.2-0.4-0.1-0.5c0.2,0,0.5-0.3,0.7-0.3l0.1,0.1c0.1,0.1,0.2,0.2,0.2,0.1v0.1c0-0.1,0.4-0.1,0.3,0.2c0,0,0.1,0,0.1,0.1
			l0.1-0.1c0.1,0,0.5,0,0.5,0.1l0.1-0.2c0-0.1,0.1-0.2,0.1-0.2v0.1h0.1v-0.1v0.1h0.3c0.1,0,0.3,0,0.3-0.1c0,0.3,0.2,0.2,0.2,0.4
			v-0.1v0.1v-0.1l0.1,0.1c0,0-0.1,0.1,0,0.2c-0.1,0.1,0,0.2,0,0.3v-0.1l-0.1,0.2c-0.1-0.1-0.2,0-0.3,0c0,0.2,0.2,0.3-0.1,0.4h0.1
			h-0.1c0,0,0.6,0.5,0.2,0.5c0,0,0.3,0.2,0.3,0l0.3-0.3v0.1c0.1,0,0.1-0.3,0.1-0.3h0.1c0.1-0.1,0.2-0.1,0.2,0.1
			c0.1-0.1,0.1-0.1,0-0.2v-0.2l0.2-0.1v0.3c0,0-0.1,0.2,0,0.3c0,0,0.4-0.2,0.2-0.3h0.3c0.1,0.1,0.2,0.2,0.1,0.4c0,0-0.1,0.2-0.2,0.3
			h0.1c0,0-0.1,0,0,0.2l0.1-0.1v0.2c0,0.2,0.2,0,0.2,0.3c0-0.1,0.1,0.3,0.1,0.4l0.1-0.1c0.1,0.2,0,0.3-0.1,0.4
			c0.1,0.1,0.1,0.1,0.1,0.3v0.1l0.2,0.1c0.1,0,0,0.1,0.1,0.2c0,0.2-0.1,0.2-0.1,0.2l-0.3,0.6l-0.3-0.2v0.1h0.1v0.3
			c0,0.1,0.2,0,0.2-0.2l0.1,0.1c0-0.2,0.1-0.1,0.2-0.2c0.1,0.1,0.3,0,0.2,0c0.1-0.2,0.2-0.1,0.4-0.1v0.1l0.1-0.1h0.1
			c0,0.2,0.1,0.2,0.2,0c0.2,0,0,0.5,0.1,0.6c0,0.1,0,0,0,0v0.2h0.2l-0.1,0.2l-0.2,0.2l0.1,0.2c-0.1,0,0,0.1-0.1,0.2
			c-0.2-0.5-0.2-0.3-0.1-0.2v0.1c0-0.1,0.1-0.1-0.1-0.1l-0.1,0.1c-0.2,0,0,0.2,0,0.3c0.1-0.2,0.2-0.1,0.3-0.1h0.2c0,0.1,0.1,0,0.2,0
			h0.1v0.1c0.1-0.1,0.3,0,0.3-0.4c0.1,0,0.1,0,0.2-0.1v0.1h0.1v0.1h0.1v0.2c0,0,0,0.1-0.1,0.2c0,0.1-0.1,0.2-0.2,0.2
			c0.1,0.1,0,0,0,0.1l0.2,0.1c0.1,0.1,0.2,0.2,0.3-0.1l0.3-0.2l0.1,0.2l0.1-0.1v0.1v-0.1h0.1l-0.1,0.4l-0.1-0.1l-0.1,0.1h-0.1v0.1
			l-0.1,0.1h0.1c0,0.2,0.2,0.2,0.3,0.3c0,0.3-0.1,0.3-0.3,0.4h0.1c0-0.2-0.1,0-0.1,0c-0.1,0.1-0.2,0.3-0.4,0.3v0.2V246v0.4
			c0,0-0.1-0.2-0.1,0.1l-0.1-0.3v0.2c0-0.1-0.1-0.1-0.2-0.1c0.1,0.1,0,0.1,0.1,0.3h-0.2v-0.2v0.1v-0.2l-0.2,0.2l-0.1-0.2v0.2
			l0.1,0.1v-0.1l0.1,0.1l0.1-0.1v0.1h0.1c0,0,0.1,0.1,0,0h0.1v0.1l0.2-0.1v0.2c0.1-0.1,0.1,0,0.3,0.1l0.1-0.1c0,0.2,0,0.3-0.2,0.3
			c0.1,0.1-0.2,0.2-0.2,0.2c-0.1,0-0.1-0.1-0.1,0.1h-0.2v0.1h-0.1v0.1v-0.1c0,0,0.1,0.1,0.1,0c0.2,0.1-0.3,0.3,0.3,0.1l0.1,0.1
			l0.1,0.1l-0.1,0.4h0.1h-0.1v0.3c0.2-0.1,0.1,0.2,0,0.2v0.2c0.5,0.1-0.3,0.7-0.2,0.5v-0.3h-0.2c-0.3,0,0-0.1-0.1-0.2h-0.1v0.1h-0.1
			c0.1,0,0.1,0,0.1,0.1c-0.1,0-0.2,0-0.1,0.1h-0.1h0.1h-0.1c-0.1,0,0.1,0.2,0.2,0.1l0.1,0.2v0.1c0.1-0.2,0.1,0,0.2,0.1v-0.1
			c0,0-0.1,0.3-0.2,0.2l0.1,0.1c-0.1,0-0.2,0.1-0.1,0.1c0.1-0.1,0.1,0.1,0.1,0.2h-0.6V250h-0.1v-0.1l-0.1,0.1h0.1l-0.3,0.2v0.1h-0.1
			v0.1c0,0,0-0.2-0.1,0h-0.1v0.1h0.1v0.2h-0.1l-0.2,0.3h0.1h-0.2c0,0,0.1-0.1,0.1,0v0.1c0.1,0.1,0.1,0.2,0.2,0.1v0.1
			c0.1,0,0-0.2,0.1-0.1c0,0,0.1,0.3,0.1,0.1v0.1c0,0,0.4,0,0.3,0.2v0.1l0.1-0.1c0.1,0,0.4,0,0.5-0.1c0,0.1,0.1,0.1,0.2,0v0.2
			l0.1-0.2c0,0.2,0.1-0.1,0.2-0.1h0.1v0.4l0.1-0.1v0.2l-0.1,0.1h0.1v0.2l0.2,0.2c0.1-0.1-0.1-0.1,0.1-0.1c0,0.1,0.1,0,0.1-0.1v0.1
			h0.3c0.1,0-0.1,0.1,0,0v-0.1h0.1v0.1c0,0.1,0.2,0,0.1,0.1v-0.1l0.3,0.5v-0.1v0.2c-0.2,0.3-0.1,0.3-0.3,0.3h-0.1h0.1h-0.1
			c-0.1,0-0.1,0.1-0.3,0c-0.1,0-0.2,0.1-0.2,0.2v0.2c0,0-0.2,0.2-0.2,0.1v0.1l-0.1,0.1c0,0,0.2,0.1,0.2,0l0.1-0.1
			c0.1-0.1,0.1-0.2,0.2,0.1c0,0,0.1-0.2,0.1,0c0-0.1,0.1-0.1,0.1,0h0.1v-0.1v0.1v-0.1l0.1,0.1l0.2-0.1v0.1c0.1-0.2,0.4-0.4,0.5-0.4
			c0,0.2,0.3,0.1,0.2,0h0.2v0.5c-0.2,0-0.4,0-0.5,0.2h-0.2v0.2l-0.1,0.1v0.2h0.1v0.2l0.2,0.2v0.1v-0.1h-0.5l-0.3,0.3h-0.1l-0.1,0.1
			v-0.1h-0.2c-0.1,0.1-0.3,0.2-0.4,0.3l-0.1-0.2l-0.1-0.1l-0.1,0.1l-0.1,0.2v0.1l-0.1,0.1c0.1-0.1,0.1,0,0.1,0l-0.1,0.1v-0.1
			l-0.1-0.1v0.1l-0.1,0.1l-0.1-0.1h0.1h-0.1c0-0.1,0,0,0.1-0.1l-0.1-0.1c0,0.3-0.1,0.2,0.1,0.4h-0.2h0.1v0.1c-0.1,0,0,0.1,0,0.2
			v-0.1l-0.1,0.2c0.2,0.1,0.2,0.1,0.1,0.1l-0.2-0.1l-0.4-0.3c0.1-0.2,0-0.1,0-0.2c0-0.1-0.1-0.1,0.1-0.2v-0.1l-0.1,0.1v-0.1
			c-0.1,0-0.3-0.1-0.3-0.2h0.1v-0.1h0.1v-0.1l0.1,0.1l0.1,0.1v0.1c0.1-0.1,0-0.2,0-0.3h-0.1v-0.1v0.1l-0.1,0.1l0.1,0.1h-0.1v-0.1
			c0,0-0.1-0.1-0.1,0v-0.2l0.2-0.1h-0.1l0.1-0.1v-0.2c0.1-0.2-0.2-0.2-0.1-0.2h-0.1v-0.2c0.1,0,0.1-0.1,0-0.1v0.1
			c-0.1-0.2,0-0.1,0-0.4h-0.1l0.1,0.1c-0.1,0-0.5-0.2-0.4-0.4v0.1c0.1-0.1,0-0.1,0-0.1v-0.1l-0.2,0.2l0.1,0.3l-0.1,0.2h-0.1
			c0,0-0.5,0.3-0.4,0.1h-0.3c0-0.1-0.3-0.1-0.3,0v0.1h0.1l0.1,0.1l-0.1,0.1c0,0,0.1,0.1,0.1,0.2c0.2,0,0.3,0.1,0.6,0.2V255l0.1,0.1
			v0.1h0.3c-0.1,0.1,0.2,0.1,0.2,0.1l-0.1,0.2c0.1-0.1,0.3,0.2,0.1,0.2c0-0.1-0.1-0.2-0.2-0.2v-0.2l-0.1,0.1c0-0.1,0,0-0.1,0.1v-0.1
			l-0.2-0.1h-0.2h0.1h-0.1c0-0.1-0.1-0.1-0.2-0.1h0.1v0.1c0-0.1,0-0.2-0.2-0.2h-0.1v0.1h-0.1v0.1l-0.2,0.2c-0.1-0.2-0.3-0.2-0.4-0.1
			v-0.1l-0.2-0.1h-0.1v-0.1v0.1v-0.1l-0.3-0.1h-0.2h0.1l-0.2-0.1v0.2l-0.1,0.1v-0.1h-0.2v0.1h-0.1v0.2h0.1v0.1h-0.1
			c0,0.1,0,0.1,0.1,0.1l0.1,0.1h-0.1h0.2c0.1,0.1-0.1,0.2,0.1,0.3l-0.2,0.2l-0.1-0.1h-0.1V256l-0.1,0.1l-0.1,0.1v9.8
			c0,2.3,1.9,4.2,4.2,4.2h8.5c8.8,0,11.9-4.1,13-8c0.4-1.6,0.6-3.2,0.6-4.3v0.2v-2.4c0-0.4-0.3-0.7-0.7-0.7h-7.8
			c-0.4,0-0.7,0.3-0.7,0.7v0.3c0,3.6-0.5,5.2-4.3,5.2c-4,0-4.3-2.5-4.3-6.5v-7.6c0-4,0.3-6.5,4.2-6.5h0.1c3.9,0,4.3,1.6,4.3,5.4v0.4
			c0.1,0.3,0.4,0.6,0.7,0.6h7.7c0.3,0,0.6-0.2,0.7-0.5v-2.1c0-1-0.1-3.1-0.5-4.7c-1-3.8-3.9-7.9-12.3-8.1h-2.4
			C-132,231.2-135.1,233.5-136.8,236.3"/>
	</defs>
	<clipPath id="SVGID_2_">
		<use xlink:href="#SVGID_1_"  style="overflow:visible;"/>
	</clipPath>
	<path class="st1" d="M-166,231.2h55.9V270H-166V231.2z"/>
</g>
<g>
	<path class="st0" d="M-110,269.6l0.3-0.3c0.3,0.2,0.5,0.3,0.8,0.3c0.3,0,0.5-0.1,0.5-0.3v0c0-0.2-0.1-0.3-0.6-0.4
		c-0.6-0.1-0.9-0.3-0.9-0.8v0c0-0.5,0.4-0.8,0.9-0.8c0.4,0,0.7,0.1,1,0.3l-0.3,0.4c-0.2-0.2-0.5-0.3-0.7-0.3c-0.3,0-0.4,0.1-0.4,0.3
		v0c0,0.2,0.1,0.3,0.6,0.4c0.6,0.1,0.9,0.3,0.9,0.8v0c0,0.5-0.4,0.8-1,0.8C-109.3,270-109.7,269.9-110,269.6z"/>
	<path class="st0" d="M-107.4,267.3h0.5l0.8,1.3l0.8-1.3h0.5v2.7h-0.5V268l-0.8,1.3h0l-0.8-1.2v1.9h-0.5V267.3z"/>
</g>
</svg>
