<svg xmlns="http://www.w3.org/2000/svg" viewBox="0 0 304.2 42.1" preserveAspectRatio="xMinYMid"><path d="M23.3.5v.6c0 .7-.2 1.3-.5 1.7-.3.4-.7.7-1 .9-.2.1-.3.2-.4.4-.1.2-.1.4-.1.7l-.1 35.9c0 .4-.1.6-.2.7-.1.1-.4.2-.8.2h-1.8c-.3 0-.5 0-.9-.1-.3-.1-.6-.4-.9-1-.1-.1-.3-.7-.6-1.5-.3-.9-.7-2-1.2-3.3-.5-1.3-1-2.8-1.6-4.4-.6-1.6-1.2-3.3-1.9-5-.6-1.7-1.3-3.4-1.8-5s-1-3-1.5-4.3c-.5-1.3-1-2.7-1.6-4.3-.1-.2-.1-.2-.1.1v24.4c0 .4 0 .6.1.8.1.1.2.3.4.4.3.2.6.5.9.9.3.4.5 1 .5 1.6v.7H0V41c0-.7.2-1.2.5-1.6.3-.4.7-.7 1-.9.2-.1.3-.2.4-.4.1-.2.1-.5.1-.9v-33c-.3-.1-.7-.3-1-.5-.2-.2-.4-.5-.6-.9-.2-.4-.3-.9-.3-1.5V.5h5.4c.7 0 1.2.4 1.4 1.2 0 .1.2.7.7 1.9.4 1.2 1 2.8 1.7 4.6.7 1.8 1.4 3.9 2.2 6.1.8 2.2 1.5 4.3 2.2 6.3.7 2 1.3 3.7 1.9 5.2.5 1.5.9 2.5 1 2.9.1.1.1.2.2.2s.1-.1.1-.2L17 4.9c0-.3 0-.6-.1-.7-.1-.2-.2-.3-.4-.4-.3-.2-.6-.5-1-.8-.3-.4-.5-.9-.5-1.6V.5h8.3zm12.3 41.6c-1.4 0-2.6-.2-3.8-.5-1.2-.3-2.2-.8-3-1.5-.8-.7-1.5-1.6-2-2.6s-.7-2.3-.7-3.7V8.3c0-1.4.2-2.6.7-3.7.5-1 1.2-1.9 2-2.6.8-.7 1.8-1.2 3-1.5C33 .2 34.2 0 35.6 0s2.6.2 3.8.5c1.2.3 2.2.9 3 1.5.8.7 1.5 1.5 2 2.6.5 1 .7 2.3.7 3.7v25.5c0 1.4-.2 2.6-.7 3.7-.5 1-1.2 1.9-2 2.6-.8.7-1.8 1.2-3 1.5-1.2.4-2.4.5-3.8.5zm5.3-34.4c0-.7-.2-1.4-.5-1.9-.4-.5-.8-1-1.3-1.3-.5-.3-1.1-.6-1.7-.8-.6-.2-1.2-.2-1.6-.2-.5 0-1.1.1-1.7.2-.6.2-1.2.4-1.7.8-.5.3-1 .8-1.3 1.3-.3.5-.5 1.2-.5 1.9v26.7c0 .7.2 1.4.5 1.9s.8 1 1.3 1.3c.5.3 1.1.6 1.7.8.6.2 1.2.2 1.7.2s1-.1 1.6-.2c.6-.2 1.2-.4 1.7-.8.5-.3 1-.8 1.3-1.3.4-.5.5-1.2.5-1.9V7.7zm27.5 30.6c.4.2.7.4.8.7.1.3.2.7.2 1.4v1.3h-3c-1 0-1.7-.3-2.1-1-.5-.7-.7-1.4-.7-2.3V28.2c0-1.3-.4-2.4-1.2-3.2-.8-.9-1.7-1.3-2.9-1.3h-4.7c-.5 0-.7.2-.7.7v12.9c0 .3 0 .6.1.7.1.2.2.3.4.4.3.2.6.5 1 .9.3.4.5 1 .5 1.7v.6h-8.2V41c0-.7.2-1.3.5-1.7.3-.4.7-.7 1-.9.2-.1.3-.2.4-.4.1-.1.1-.4.1-.7V4.7c0-.5-.2-.8-.5-1.1-.3-.2-.6-.5-1-.9-.2-.4-.4-.9-.4-1.7V.5h11c1.5 0 2.9.2 4 .7 1.1.4 2 1.1 2.7 1.9.7.8 1.2 1.8 1.5 2.9.3 1.1.5 2.4.5 3.7v5.8c0 1.5-.3 2.7-.9 3.7-.6 1-1.2 1.8-2 2.4.8.6 1.5 1.5 2.1 2.7.5 1.2.8 2.6.8 4.1v8.8c0 .3.1.5.2.6l.5.5zM63.6 8.7c0-1.3-.4-2.4-1.2-3.3-.7-.9-1.7-1.4-2.8-1.4h-4.7c-.2 0-.4.1-.6.2-.2.1-.2.3-.2.6v14.8c0 .2.1.3.2.4.1.1.3.2.4.2h4.8c1.1 0 2.1-.4 2.9-1.2.8-.8 1.2-1.8 1.2-3.1V8.7zM91.4.9c.3.3.5.8.5 1.6v5.1h-1.1c-.3 0-.5-.1-.9-.2-.3-.1-.6-.3-.9-.5-.3-.2-.5-.5-.7-.9-.2-.4-.3-.8-.3-1.3 0-.4-.2-.5-.5-.5H84c-.3 0-.5 0-.6.1-.1.1-.2.3-.2.6v32.4c0 .3 0 .6.1.7.1.1.2.3.4.4.3.2.6.5 1 .9.3.4.5 1 .5 1.7v.6h-8.3V41c0-.7.2-1.3.5-1.7.3-.4.6-.7.9-.9.2-.1.3-.3.4-.4.1-.1.2-.4.2-.7V4.7c0-.3-.1-.5-.3-.5-.2-.2-.4-.2-.5-.2h-3.4c-.1 0-.3 0-.5.1s-.3.2-.3.5-.1.6-.2 1c-.1.3-.3.7-.5 1-.2.3-.5.5-.9.7-.4.2-.8.3-1.2.3h-.9V2.3c0-.6.2-1.1.5-1.3.3-.3.9-.4 1.8-.4H90c.6-.1 1.1.1 1.4.3zm24.7 36.3c0 .4 0 .6.1.8.1.1.2.3.4.4.3.2.6.5 1 .9.3.4.5 1 .5 1.6v.7h-8.4V41c0-.7.2-1.2.5-1.6.3-.4.7-.7 1-.9.2-.1.3-.2.4-.4.1-.1.2-.4.2-.8V22.7c0-.3-.1-.4-.2-.6-.2-.1-.4-.2-.6-.2h-9c-.5 0-.8.3-.8.8v14.9c0 .2.1.4.2.5.1.1.2.2.4.3.3.2.6.5 1 .9.3.4.5 1 .5 1.7v.7h-8.4V41c0-.7.2-1.2.5-1.6.3-.4.7-.7 1-.9.2-.1.3-.2.4-.4.1-.1.1-.4.1-.8V4.6c0-.2-.1-.4-.2-.5l-.4-.4c-.3-.2-.6-.5-1-.9-.3-.4-.5-1-.5-1.6V.5h8.5v.7c0 .7-.2 1.2-.5 1.6-.3.4-.7.7-1 .9-.1.1-.3.2-.4.4-.1.1-.2.4-.2.7v12.9c0 .5.2.8.6.8h9.2c.5 0 .8-.3.8-.8v-13c0-.3-.1-.4-.2-.6l-.4-.4c-.3-.2-.6-.5-.9-.9-.3-.4-.5-1-.5-1.6V.5h8.3v.7c0 .7-.2 1.2-.5 1.6-.3.4-.7.7-1 .9-.2.1-.3.3-.4.4-.1.1-.1.4-.1.8v32.3zm27.8 4.9c-1.4 0-2.6-.1-3.7-.4-1.1-.3-2.1-.7-2.9-1.3-.8-.6-1.5-1.4-1.9-2.4-.5-1-.7-2.2-.7-3.6V7.9c0-1.4.2-2.6.7-3.6.5-1 1.1-1.8 1.9-2.5.8-.6 1.8-1.1 2.9-1.4 1.1-.3 2.4-.4 3.7-.4 1.4 0 2.6.2 3.7.5s2.1.8 2.9 1.5 1.5 1.5 1.9 2.5c.5 1 .7 2.2.7 3.6v4.3H152c-.9 0-1.7-.3-2.2-.9-.6-.6-.9-1.3-.9-2.2V7.7c0-.7-.2-1.4-.5-1.9s-.8-.9-1.3-1.3c-.5-.3-1.1-.6-1.6-.7-.6-.1-1.1-.2-1.6-.2s-1.1.1-1.7.2c-.6.1-1.2.3-1.7.7-.5.3-.9.7-1.3 1.2-.3.5-.5 1.1-.5 1.8v27c0 .7.2 1.4.5 1.9s.8 1 1.3 1.3c.5.3 1.1.6 1.7.8.6.2 1.2.2 1.7.2s1-.1 1.6-.2c.6-.1 1.2-.4 1.7-.7.5-.3 1-.7 1.3-1.3.3-.5.5-1.1.5-1.9v-1.8c0-.8.2-1.6.6-2.2.4-.6 1.1-.9 2-.9h1.5V34c0 1.4-.2 2.6-.7 3.6-.5 1-1.1 1.9-1.9 2.5-.8.7-1.8 1.1-2.9 1.5-1.1.3-2.3.5-3.7.5zm32.8-3.7c.3.2.6.5.8.9.3.4.4.9.4 1.5v.8h-8v-.8c0-.7.2-1.1.5-1.5.3-.3.6-.6.9-.7.3-.2.5-.7.5-1.4-.1-1-.3-1.8-.4-2.6-.1-.7-.2-1.3-.3-1.9-.1-.6-.2-1-.2-1.2-.1-.4-.2-.7-.4-.8-.2-.1-.4-.1-.7-.1h-7c-.7 0-1 .3-1 .9 0 .2-.1.6-.2 1.2s-.1 1.3-.2 1.9c-.1.8-.2 1.7-.3 2.6 0 .4 0 .6.1.8.1.1.2.3.4.4.3.2.5.4.8.8.3.3.4.8.4 1.5v.9h-7.9v-.9c0-.6.1-1.1.4-1.4.3-.3.5-.5.8-.7.3-.2.5-.4.6-.7.1-.3.2-.6.2-.9 1-5.9 2-11.2 2.8-15.9.4-2 .7-3.9 1-5.8.3-1.9.6-3.6.9-5.1.3-1.5.5-2.7.7-3.7.2-.9.2-1.4.2-1.5 0-.3.1-.5.1-.8 0-.2-.1-.4-.5-.5-.4-.2-.7-.4-.8-.8-.3-.3-.3-.8-.3-1.6V.5h5.9c.8 0 1.5.3 2 .8s.8 1.1.9 1.8c0 .1.1.7.3 1.8.2 1 .4 2.4.7 4 .3 1.6.6 3.4 1 5.5.4 2 .7 4.1 1.2 6.2.9 4.9 1.9 10.5 3.1 16.6.1.3.1.5.2.7 0 .2.1.4.4.5zM169.2 27c.3 0 .5-.1.6-.3.1-.2.2-.4.1-.6 0 0-.1-.4-.2-1s-.2-1.4-.4-2.4-.3-2.1-.5-3.3c-.2-1.2-.4-2.5-.6-3.8-.5-3-1.1-6.4-1.7-10.2 0 0 0-.1-.1-.2l-.2-.2-.2.2c0 .1-.1.1-.1.2l-1.8 10.2c-.2 1.3-.4 2.5-.7 3.8-.2 1.2-.4 2.3-.6 3.3-.2 1-.3 1.8-.4 2.4-.1.6-.2 1-.2 1 0 .2 0 .4.1.6.1.2.3.2.6.2h6.3zm31.3 11.3c.4.2.7.4.8.7.1.3.2.7.2 1.4v1.3h-3c-1 0-1.7-.3-2.1-1-.5-.7-.7-1.4-.7-2.3V28.2c0-1.3-.4-2.4-1.2-3.2-.8-.9-1.7-1.3-2.9-1.3h-4.7c-.5 0-.7.2-.7.7v12.9c0 .3 0 .6.1.7.1.2.2.3.4.4.3.2.6.5 1 .9.3.4.5 1 .5 1.7v.6H180V41c0-.7.2-1.3.5-1.7.3-.4.7-.7 1-.9.2-.1.3-.2.4-.4.1-.1.1-.4.1-.7V4.7c0-.5-.2-.8-.5-1.1-.3-.2-.6-.5-1-.9-.3-.4-.5-1-.5-1.7V.5h11c1.5 0 2.9.2 4 .7 1.1.4 2 1.1 2.7 1.9.7.8 1.2 1.8 1.5 2.9.3 1.1.5 2.4.5 3.7v5.8c0 1.5-.3 2.7-.9 3.7-.6 1-1.2 1.8-2 2.4.8.6 1.5 1.5 2.1 2.7.5 1.2.8 2.6.8 4.1v8.8c0 .3.1.5.2.6.3.2.4.3.6.5zm-4.8-29.6c0-1.3-.4-2.4-1.2-3.3-.8-.9-1.7-1.4-2.9-1.4H187c-.2 0-.4.1-.6.2-.2.1-.2.3-.2.6v14.8c0 .2.1.3.2.4.1.1.3.2.4.2h4.8c1.1 0 2.1-.4 2.9-1.2.8-.8 1.2-1.8 1.2-3.1V8.7zm17.4 33.4c-1.4 0-2.6-.2-3.8-.5-1.2-.3-2.2-.8-3-1.5-.8-.7-1.5-1.6-2-2.6s-.7-2.3-.7-3.7V8.3c0-1.4.2-2.6.7-3.7.5-1 1.2-1.9 2-2.6.8-.7 1.8-1.2 3-1.5 1.2-.3 2.4-.5 3.8-.5s2.6.2 3.8.5c1.2.3 2.2.9 3 1.5.8.7 1.5 1.5 2 2.6.5 1 .7 2.3.7 3.7v25.5c0 1.4-.2 2.6-.7 3.7-.5 1-1.2 1.9-2 2.6-.8.7-1.8 1.2-3 1.5-1.2.4-2.4.5-3.8.5zm5.3-34.4c0-.7-.2-1.4-.5-1.9-.4-.5-.8-1-1.3-1.3-.5-.3-1.1-.6-1.7-.8-.6-.2-1.2-.2-1.6-.2-.5 0-1.1.1-1.7.2-.6.2-1.2.4-1.7.8-.5.3-1 .8-1.3 1.3-.3.5-.5 1.2-.5 1.9v26.7c0 .7.2 1.4.5 1.9s.8 1 1.3 1.3c.5.3 1.1.6 1.7.8.6.2 1.2.2 1.7.2s1-.1 1.6-.2c.6-.2 1.2-.4 1.7-.8.5-.3 1-.8 1.3-1.3.4-.5.5-1.2.5-1.9V7.7zm25.3 26.7v6.1c0 .4-.1.7-.3.9-.2.2-.4.2-.7.2h-17.8v-.5c0-1.5.4-2.4 1.2-2.8.2-.1.4-.3.8-.4.3-.2.5-.4.5-.7V4.9c0-.3-.1-.6-.2-.7-.1-.2-.3-.3-.4-.4-.3-.2-.6-.5-1-.9-.3-.4-.5-1-.5-1.7V.5h8.4v.6c0 .7-.2 1.3-.5 1.7-.3.4-.7.7-1 .9-.2.1-.3.2-.4.4-.1.2-.2.4-.2.7v32.4c0 .5.2.8.6.8h7.4c.3 0 .4-.1.5-.2.1-.1.1-.3.1-.5 0-.9.3-1.6.9-2.2.6-.5 1.3-.8 2.1-.8h.5zm9.7 4c.3.2.6.5 1 .9.3.4.5 1 .5 1.6v.7h-8.4V41c0-.7.2-1.3.5-1.7.3-.4.7-.7 1-.9.3-.2.5-.5.5-.9V4.7c0-.3-.1-.5-.2-.6-.1-.1-.2-.2-.4-.3-.3-.2-.6-.5-1-.9-.3-.4-.5-1-.5-1.7V.5h8.5v.6c0 .7-.2 1.3-.5 1.7-.3.4-.7.7-1 .9-.1.1-.3.2-.4.3-.1.1-.2.3-.2.6v32.7c0 .4 0 .6.1.7.2.2.3.3.5.4zM280.6.5v.6c0 .7-.2 1.3-.5 1.7-.3.4-.7.7-1 .9-.2.1-.3.2-.4.4s-.1.4-.1.7l-.1 35.9c0 .4-.1.6-.2.7-.1.1-.4.2-.8.2h-1.8c-.3 0-.5 0-.9-.1-.3-.1-.6-.4-.9-1-.1-.1-.3-.7-.6-1.5-.3-.9-.7-2-1.2-3.3-.5-1.3-1-2.8-1.6-4.4-.6-1.6-1.2-3.3-1.9-5-.6-1.7-1.3-3.4-1.8-5-.6-1.6-1.1-3-1.6-4.3-.5-1.3-1-2.7-1.6-4.3-.1-.2-.1-.2-.1.1v24.4c0 .4 0 .6.1.8.1.1.2.3.4.4.3.2.6.5.9.9.3.4.5 1 .5 1.6v.7h-8.3V41c0-.7.2-1.2.5-1.6.3-.4.7-.7 1-.9.2-.1.3-.2.4-.4.1-.1.1-.4.1-.8v-33c-.4-.1-.7-.3-1-.5-.3-.2-.5-.5-.7-.9-.2-.4-.3-.9-.3-1.5V.5h5.4c.7 0 1.2.4 1.4 1.2 0 .1.2.7.7 1.9.4 1.2 1 2.8 1.7 4.6.7 1.8 1.4 3.9 2.2 6.1.8 2.2 1.5 4.3 2.2 6.3.7 2 1.3 3.7 1.9 5.2.5 1.5.9 2.5 1 2.9.1.1.1.2.2.2s.1-.1.1-.2l.1-23.8c0-.3 0-.6-.1-.7s-.2-.3-.4-.4c-.3-.2-.6-.5-1-.8-.3-.4-.5-.9-.5-1.6V.5h8.6zm22.3 37.9c.3.2.6.5.8.9.3.4.4.9.4 1.5v.8h-8v-.8c0-.7.2-1.1.5-1.5.3-.3.6-.6.9-.7.3-.2.5-.7.5-1.4-.1-1-.3-1.8-.4-2.6-.1-.7-.2-1.3-.3-1.9-.1-.6-.2-1-.2-1.2-.1-.4-.2-.7-.4-.8-.2-.1-.4-.1-.7-.1h-7c-.7 0-1 .3-1 .9 0 .2-.1.6-.2 1.2s-.1 1.3-.2 1.9c-.1.8-.2 1.7-.3 2.6 0 .4 0 .6.1.8.1.1.2.3.4.4.3.2.5.4.8.8.3.3.4.8.4 1.5v.9h-8v-.9c0-.6.1-1.1.4-1.4.3-.3.5-.5.8-.7.3-.2.5-.4.6-.7.1-.3.2-.6.2-.9 1-5.9 2-11.2 2.8-15.9.4-2 .7-3.9 1-5.8.3-1.9.6-3.6.9-5.1.3-1.5.5-2.7.7-3.7.2-.9.2-1.4.2-1.5 0-.3.1-.5.1-.8 0-.2-.1-.4-.5-.5-.4-.2-.7-.4-.8-.8-.1-.3-.2-.9-.2-1.7V.5h5.9c.8 0 1.5.3 2 .8s.8 1.1.9 1.8c0 .1.1.7.3 1.8.2 1 .4 2.4.7 4 .3 1.6.6 3.4 1 5.5.4 2 .8 4.1 1.2 6.2.9 4.9 1.9 10.5 3.1 16.6.1.3.1.5.2.7 0 .2.2.4.4.5zM295.5 27c.3 0 .5-.1.6-.3.1-.2.2-.4.1-.6 0 0-.1-.4-.2-1s-.2-1.4-.4-2.4-.3-2.1-.5-3.3c-.2-1.2-.4-2.5-.6-3.8-.5-3-1.1-6.4-1.7-10.2 0 0 0-.1-.1-.2l-.2-.2-.2.2c0 .1-.1.1-.1.2l-1.8 10.2c-.2 1.3-.4 2.5-.7 3.8-.2 1.2-.4 2.3-.6 3.3-.2 1-.3 1.8-.4 2.4-.1.6-.2 1-.2 1 0 .2 0 .4.1.6.1.2.3.2.6.2h6.3z" fill="#fff"/></svg>