<?xml version="1.0" encoding="utf-8"?>
<!-- Generator: Adobe Illustrator 19.0.0, SVG Export Plug-In . SVG Version: 6.00 Build 0)  -->
<!DOCTYPE svg PUBLIC "-//W3C//DTD SVG 1.1//EN" "http://www.w3.org/Graphics/SVG/1.1/DTD/svg11.dtd">
<svg version="1.1" id="Layer_1" xmlns="http://www.w3.org/2000/svg" xmlns:xlink="http://www.w3.org/1999/xlink" x="0px" y="0px"
	 viewBox="100 -18.4 211.6 47.4" style="enable-background:new 100 -18.4 211.6 47.4;" xml:space="preserve">
<style type="text/css">
	.st0{fill:#FFFFFF;}
	.st1{fill:#288DC1;}
</style>
<path class="st0" d="M116.2,0.1v0.4c0,0.5-0.1,0.9-0.4,1.2c-0.2,0.3-0.5,0.5-0.7,0.6l-0.3,0.3c-0.1,0.1-0.1,0.3-0.1,0.5v25
	c0,0.3,0,0.4-0.1,0.5s-0.3,0.1-0.5,0.1h-1.3c-0.2,0-0.4,0-0.6-0.1c-0.2,0-0.4-0.3-0.6-0.7c-0.1-0.1-0.2-0.5-0.4-1.1
	c-0.2-0.6-0.5-1.4-0.8-2.3c-0.3-0.9-0.7-1.9-1.1-3c-0.4-1.1-0.9-2.3-1.3-3.5s-0.9-2.3-1.3-3.5c-0.4-1.1-0.8-2.1-1.1-3
	s-0.7-1.9-1.1-3c-0.1-0.2-0.1-0.1-0.1,0v17c0,0.3,0,0.4,0.1,0.5l0.3,0.3c0.2,0.3,0.4,0.5,0.7,0.8c0.2,0.3,0.3,0.7,0.3,1.1v0.5H100
	v-0.5c0-0.5,0.1-0.9,0.4-1.1c0.2-0.3,0.4-0.5,0.6-0.7l0.3-0.3c0.1-0.1,0.1-0.3,0.1-0.5v-23c-0.3-0.1-0.5-0.2-0.7-0.4
	c-0.2-0.2-0.3-0.4-0.5-0.6C100.1,1.3,100,1,100,0.5V0h3.7c0.5,0,0.8,0.3,1,0.8c0,0.1,0.2,0.5,0.5,1.4c0.3,0.9,0.7,1.9,1.2,3.2
	c0.5,1.3,1,2.7,1.5,4.2s1.1,3,1.5,4.4c0.5,1.4,0.9,2.6,1.3,3.6c0.4,1,0.6,1.7,0.7,2c0.1,0.1,0.1,0.2,0.2,0.2s0.1-0.1,0.1-0.2V3
	c0-0.2,0-0.4-0.1-0.5l-0.3-0.3c-0.2-0.1-0.4-0.3-0.7-0.6c-0.2-0.3-0.4-0.6-0.4-1.1V0h6V0.1z M124.8,29c-0.9,0-1.8-0.1-2.6-0.3
	c-0.8-0.2-1.5-0.6-2.1-1.1s-1.1-1.1-1.4-1.8c-0.3-0.7-0.5-1.6-0.5-2.5V5.5c0-1,0.2-1.8,0.5-2.5c0.3-0.7,0.8-1.3,1.4-1.8
	s1.3-0.8,2.1-1.1c0.8-0.2,1.7-0.4,2.6-0.4c0.9,0,1.8,0.1,2.6,0.4c0.8,0.2,1.5,0.6,2.1,1.1s1.1,1.1,1.4,1.8c0.3,0.7,0.5,1.6,0.5,2.5
	v17.7c0,1-0.2,1.8-0.5,2.5c-0.3,0.7-0.8,1.3-1.4,1.8s-1.3,0.8-2.1,1.1S125.7,29,124.8,29 M128.4,5.1c0-0.5-0.1-0.9-0.4-1.3
	c-0.3-0.4-0.6-0.7-0.9-0.9c-0.4-0.2-0.8-0.4-1.2-0.5s-0.8-0.2-1.1-0.2c-0.4,0-0.7,0.1-1.2,0.2c-0.4,0.1-0.8,0.3-1.2,0.5
	s-0.7,0.5-0.9,0.9s-0.4,0.8-0.4,1.3v18.5c0,0.5,0.1,0.9,0.4,1.3c0.2,0.4,0.5,0.7,0.9,0.9s0.8,0.4,1.2,0.5s0.8,0.2,1.2,0.2
	c0.3,0,0.7-0.1,1.1-0.2c0.4-0.1,0.8-0.3,1.2-0.5c0.4-0.2,0.7-0.5,0.9-0.9c0.3-0.4,0.4-0.8,0.4-1.3C128.4,23.6,128.4,5.1,128.4,5.1z
	 M147.6,26.3c0.3,0.1,0.5,0.3,0.6,0.5c0.1,0.2,0.2,0.5,0.2,1v0.9h-2.1c-0.7,0-1.2-0.2-1.5-0.7s-0.5-1-0.5-1.6v-7
	c0-0.9-0.3-1.6-0.8-2.3c-0.5-0.6-1.2-0.9-2-0.9h-3.3c-0.3,0-0.5,0.2-0.5,0.5v8.9c0,0.2,0,0.4,0.1,0.5l0.3,0.3
	c0.2,0.1,0.4,0.3,0.7,0.6c0.2,0.3,0.4,0.7,0.4,1.2v0.4h-5.7v-0.4c0-0.5,0.1-0.9,0.4-1.2c0.2-0.3,0.5-0.5,0.7-0.6l0.3-0.3
	c0.1-0.1,0.1-0.3,0.1-0.5V2.9c0-0.3-0.1-0.6-0.3-0.8c-0.2-0.1-0.4-0.3-0.7-0.6c-0.2-0.3-0.4-0.7-0.4-1.2V0h7.4c1.1,0,2,0.2,2.8,0.5
	s1.4,0.7,1.9,1.3c0.5,0.6,0.8,1.2,1.1,2c0.2,0.8,0.3,1.7,0.3,2.6v4c0,1-0.2,1.9-0.6,2.6c-0.4,0.7-0.9,1.2-1.4,1.7
	c0.6,0.4,1.1,1.1,1.4,1.9c0.4,0.8,0.6,1.8,0.6,2.9v6.1c0,0.2,0.1,0.4,0.2,0.4L147.6,26.3 M144.2,5.8c0-0.9-0.3-1.7-0.8-2.3
	c-0.5-0.6-1.2-1-2-1h-3.2c-0.2,0-0.3,0-0.4,0.1c-0.1,0.1-0.2,0.2-0.2,0.4v10.3c0,0.1,0.1,0.2,0.2,0.3c0.1,0.1,0.2,0.1,0.3,0.1h3.3
	c0.8,0,1.5-0.3,2-0.8s0.8-1.2,0.8-2.1C144.2,10.8,144.2,5.8,144.2,5.8z M163.6,0.3c0.2,0.2,0.4,0.5,0.4,1.1v3.5h-0.8
	c-0.2,0-0.4,0-0.6-0.1L162,4.5c-0.2-0.2-0.3-0.4-0.5-0.6c-0.1-0.3-0.2-0.6-0.2-0.9s-0.1-0.4-0.4-0.4h-2.6c-0.2,0-0.3,0-0.4,0.1
	c-0.1,0.1-0.2,0.2-0.2,0.4v22.5c0,0.2,0,0.4,0.1,0.5l0.3,0.3c0.2,0.1,0.4,0.3,0.7,0.6c0.2,0.3,0.4,0.7,0.4,1.2v0.4h-5.8v-0.4
	c0-0.5,0.1-0.9,0.3-1.2s0.4-0.5,0.6-0.6l0.3-0.3c0.1-0.1,0.1-0.3,0.1-0.5V2.9c0-0.2-0.1-0.3-0.2-0.4s-0.3-0.1-0.4-0.1h-2.4
	c-0.1,0-0.2,0-0.3,0.1c-0.1,0-0.2,0.2-0.2,0.4s0,0.4-0.1,0.7c-0.1,0.2-0.2,0.5-0.4,0.7s-0.4,0.4-0.6,0.5c-0.3,0.1-0.5,0.2-0.8,0.2
	h-0.6V1.3c0-0.4,0.1-0.7,0.3-0.9c0.2-0.2,0.6-0.3,1.2-0.3h12.2C163,0.1,163.4,0.2,163.6,0.3 M180.8,25.6c0,0.3,0,0.4,0.1,0.5
	l0.3,0.3c0.2,0.2,0.4,0.4,0.7,0.6c0.2,0.3,0.4,0.7,0.4,1.1v0.5h-5.8v-0.5c0-0.5,0.1-0.9,0.4-1.1c0.2-0.3,0.5-0.5,0.7-0.6l0.3-0.3
	c0.1-0.1,0.1-0.3,0.1-0.5V15.5c0-0.2-0.1-0.3-0.2-0.4c-0.1-0.1-0.2-0.1-0.4-0.1H171c-0.4,0-0.5,0.2-0.5,0.5v10.4
	c0,0.2,0,0.3,0.1,0.3c0.1,0.1,0.2,0.1,0.3,0.2c0.2,0.1,0.4,0.3,0.7,0.6c0.2,0.3,0.4,0.7,0.4,1.2v0.5h-6v-0.5c0-0.5,0.1-0.9,0.4-1.1
	c0.2-0.3,0.5-0.5,0.7-0.6l0.3-0.3c0.1-0.1,0.1-0.3,0.1-0.5V2.9c0-0.2-0.1-0.3-0.1-0.4c-0.1-0.1-0.1-0.2-0.2-0.2
	c-0.2-0.1-0.4-0.3-0.7-0.6c-0.2-0.3-0.4-0.7-0.4-1.1V0.1h5.8v0.5c0,0.5-0.1,0.9-0.4,1.1c-0.2,0.3-0.5,0.5-0.7,0.6l-0.3,0.3
	c-0.1,0.1-0.1,0.3-0.1,0.5v9c0,0.4,0.1,0.5,0.4,0.5h6.4c0.4,0,0.5-0.2,0.5-0.5V3c0-0.2-0.1-0.3-0.2-0.4s-0.2-0.2-0.3-0.2
	c-0.2-0.1-0.4-0.3-0.6-0.6c-0.2-0.3-0.3-0.7-0.3-1.1V0.2h5.8v0.5c0,0.5-0.1,0.9-0.4,1.1c-0.2,0.3-0.5,0.5-0.7,0.6l-0.3,0.3
	c-0.1,0.1-0.1,0.3-0.1,0.5v22.4H180.8z M200.2,29c-0.9,0-1.8-0.1-2.6-0.3c-0.8-0.2-1.5-0.5-2-0.9c-0.6-0.4-1-1-1.3-1.7
	s-0.5-1.5-0.5-2.5V5.2c0-1,0.2-1.8,0.5-2.5s0.8-1.3,1.3-1.7c0.6-0.4,1.3-0.8,2-1c0.8-0.2,1.7-0.3,2.6-0.3c0.9,0,1.8,0.1,2.6,0.3
	c0.8,0.2,1.5,0.6,2,1c0.6,0.5,1,1,1.3,1.8c0.3,0.7,0.5,1.6,0.5,2.5v3h-0.8c-0.6,0-1.2-0.2-1.5-0.6c-0.4-0.4-0.6-0.9-0.6-1.5V5
	c0-0.5-0.1-0.9-0.3-1.3c-0.2-0.4-0.5-0.6-0.9-0.9c-0.4-0.2-0.7-0.4-1.1-0.5c-0.4-0.1-0.8-0.2-1.1-0.2c-0.4,0-0.7,0-1.2,0.1
	c-0.4,0.1-0.8,0.2-1.2,0.5c-0.4,0.2-0.7,0.5-0.9,0.8c-0.2,0.3-0.4,0.8-0.4,1.2v18.9c0,0.5,0.1,0.9,0.4,1.3c0.2,0.4,0.5,0.7,0.9,0.9
	s0.7,0.4,1.2,0.5c0.4,0.1,0.8,0.2,1.2,0.2c0.3,0,0.7-0.1,1.1-0.2c0.4-0.1,0.8-0.3,1.2-0.5s0.7-0.5,0.9-0.9c0.2-0.4,0.4-0.8,0.4-1.3
	v-1.3c0-0.6,0.1-1.1,0.4-1.5s0.7-0.6,1.4-0.6h1.1v3c0,1-0.2,1.8-0.5,2.5s-0.8,1.3-1.3,1.8c-0.6,0.5-1.3,0.8-2,1
	C202,28.9,201.1,29,200.2,29 M222.9,26.4c0.2,0.1,0.4,0.3,0.6,0.6c0.2,0.3,0.3,0.6,0.3,1.1v0.5h-5.6V28c0-0.5,0.1-0.8,0.3-1
	c0.2-0.2,0.4-0.4,0.6-0.5c0.2-0.2,0.3-0.5,0.3-1c-0.1-0.7-0.2-1.3-0.3-1.8s-0.1-0.9-0.2-1.4c-0.1-0.4-0.1-0.7-0.1-0.8
	c-0.1-0.3-0.1-0.5-0.2-0.5c-0.1-0.1-0.3-0.1-0.5-0.1h-4.9c-0.5,0-0.7,0.2-0.7,0.7c0,0.1-0.1,0.4-0.1,0.8c-0.1,0.4-0.1,0.9-0.2,1.3
	c-0.1,0.6-0.2,1.2-0.2,1.8c0,0.3,0,0.4,0.1,0.5c0.1,0.1,0.1,0.2,0.3,0.3c0.2,0.1,0.4,0.3,0.5,0.5c0.2,0.2,0.3,0.6,0.3,1v0.6h-5.5
	v-0.6c0-0.4,0.1-0.8,0.3-1c0.2-0.2,0.4-0.4,0.6-0.5s0.3-0.3,0.4-0.5c0.1-0.2,0.1-0.4,0.2-0.6c0.7-4.1,1.4-7.8,1.9-11.1
	c0.3-1.4,0.5-2.7,0.7-4.1c0.2-1.3,0.4-2.5,0.6-3.6c0.2-1,0.3-1.9,0.5-2.5c0.1-0.6,0.2-1,0.2-1c0-0.2,0.1-0.4,0.1-0.5
	c0-0.2-0.1-0.3-0.3-0.3c-0.3-0.1-0.5-0.3-0.6-0.6c-0.1-0.2-0.2-0.6-0.2-1.2v-0.5h4.1c0.6,0,1.1,0.2,1.4,0.6c0.3,0.4,0.6,0.8,0.6,1.2
	c0,0.1,0.1,0.5,0.2,1.2s0.3,1.6,0.5,2.8c0.2,1.1,0.4,2.4,0.7,3.8c0.3,1.4,0.5,2.8,0.8,4.3c0.6,3.4,1.3,7.3,2.1,11.6
	c0.1,0.2,0.1,0.4,0.2,0.5C222.6,26.2,222.8,26.3,222.9,26.4 M217.7,18.5c0.2,0,0.3-0.1,0.4-0.2c0.1-0.1,0.1-0.3,0.1-0.4
	c0,0,0-0.3-0.1-0.7s-0.2-1-0.3-1.7c-0.1-0.7-0.2-1.5-0.4-2.3c-0.1-0.9-0.3-1.7-0.4-2.6c-0.4-2.1-0.8-4.4-1.2-7.1V3.4l-0.1-0.1
	c0,0-0.1,0-0.2,0.1v0.1l-1.2,7.1c-0.2,0.9-0.3,1.8-0.5,2.6c-0.2,0.9-0.3,1.6-0.4,2.3s-0.2,1.2-0.3,1.7c-0.1,0.4-0.1,0.7-0.1,0.7
	c0,0.2,0,0.3,0.1,0.4c0.1,0.1,0.2,0.2,0.4,0.2H217.7z M239.5,26.3c0.3,0.1,0.5,0.3,0.6,0.5s0.2,0.5,0.2,1v0.9h-2.1
	c-0.7,0-1.2-0.2-1.5-0.7s-0.5-1-0.5-1.6v-7c0-0.9-0.3-1.6-0.8-2.3c-0.5-0.6-1.2-0.9-2-0.9H230c-0.3,0-0.5,0.2-0.5,0.5v8.9
	c0,0.2,0,0.4,0.1,0.5l0.3,0.3c0.2,0.1,0.4,0.3,0.7,0.6c0.2,0.3,0.4,0.7,0.4,1.2v0.4h-5.7v-0.4c0-0.5,0.1-0.9,0.4-1.2
	c0.2-0.3,0.5-0.5,0.7-0.6l0.3-0.3c0.1-0.1,0.1-0.3,0.1-0.5V2.9c0-0.3-0.1-0.6-0.3-0.8c-0.2-0.1-0.4-0.3-0.7-0.6
	c-0.2-0.3-0.4-0.7-0.4-1.2V0h7.6c1.1,0,2,0.2,2.8,0.5s1.4,0.7,1.9,1.3c0.5,0.6,0.8,1.2,1.1,2c0.2,0.8,0.3,1.7,0.3,2.6v4
	c0,1-0.2,1.9-0.6,2.6c-0.4,0.7-0.9,1.2-1.4,1.7c0.6,0.4,1.1,1.1,1.4,1.9c0.4,0.8,0.6,1.8,0.6,2.9v6.1c0,0.2,0.1,0.4,0.2,0.4
	C239.3,26.1,239.4,26.2,239.5,26.3 M236.2,5.8c0-0.9-0.3-1.7-0.8-2.3c-0.5-0.6-1.2-1-2-1h-3.2c-0.2,0-0.3,0-0.4,0.1
	c-0.1,0.1-0.2,0.2-0.2,0.4v10.3c0,0.1,0.1,0.2,0.2,0.3c0.1,0.1,0.2,0.1,0.3,0.1h3.3c0.8,0,1.5-0.3,2-0.8s0.8-1.2,0.8-2.1L236.2,5.8
	L236.2,5.8z M248.3,29c-0.9,0-1.8-0.1-2.6-0.3s-1.5-0.6-2.1-1.1s-1.1-1.1-1.4-1.8c-0.3-0.7-0.5-1.6-0.5-2.5V5.5c0-1,0.2-1.8,0.5-2.5
	s0.8-1.3,1.4-1.8c0.6-0.5,1.3-0.8,2.1-1.1c0.8-0.2,1.7-0.4,2.6-0.4c0.9,0,1.8,0.1,2.6,0.4c0.8,0.2,1.5,0.6,2.1,1.1s1.1,1.1,1.4,1.8
	c0.3,0.7,0.5,1.6,0.5,2.5v17.7c0,1-0.2,1.8-0.5,2.5s-0.8,1.3-1.4,1.8c-0.6,0.5-1.3,0.8-2.1,1.1S249.2,29,248.3,29 M251.9,5.1
	c0-0.5-0.1-0.9-0.4-1.3c-0.3-0.4-0.6-0.7-0.9-0.9c-0.4-0.2-0.8-0.4-1.2-0.5s-0.8-0.2-1.1-0.2c-0.4,0-0.7,0.1-1.2,0.2
	c-0.4,0.1-0.8,0.3-1.2,0.5s-0.7,0.5-0.9,0.9s-0.4,0.8-0.4,1.3v18.5c0,0.5,0.1,0.9,0.4,1.3c0.2,0.4,0.5,0.7,0.9,0.9s0.8,0.4,1.2,0.5
	s0.8,0.2,1.2,0.2c0.3,0,0.7-0.1,1.1-0.2c0.4-0.1,0.8-0.3,1.2-0.5s0.7-0.5,0.9-0.9c0.3-0.4,0.4-0.8,0.4-1.3
	C251.9,23.6,251.9,5.1,251.9,5.1z M269.5,23.6v4.2c0,0.3-0.1,0.5-0.2,0.6c-0.1,0.1-0.3,0.2-0.5,0.2h-12.4v-0.3c0-1,0.3-1.7,0.8-1.9
	c0.1-0.1,0.3-0.2,0.6-0.3c0.2-0.1,0.4-0.3,0.4-0.5V3.1c0-0.2,0-0.4-0.1-0.5l-0.3-0.3c-0.2-0.1-0.4-0.3-0.7-0.6
	c-0.2-0.3-0.4-0.7-0.4-1.2V0.1h5.8v0.4c0,0.5-0.1,0.9-0.4,1.2c-0.2,0.3-0.5,0.5-0.7,0.6l-0.3,0.3C261,2.7,261,2.9,261,3.1v22.5
	c0,0.4,0.1,0.5,0.4,0.5h5.1c0.2,0,0.3,0,0.3-0.1s0.1-0.2,0.1-0.4c0-0.6,0.2-1.1,0.6-1.5s0.9-0.6,1.5-0.6L269.5,23.6L269.5,23.6z
	 M276.3,26.4c0.2,0.2,0.4,0.4,0.7,0.6c0.2,0.3,0.4,0.7,0.4,1.1v0.5h-5.8v-0.5c0-0.5,0.1-0.9,0.4-1.2c0.2-0.3,0.5-0.5,0.7-0.6
	s0.4-0.3,0.4-0.6V2.9c0-0.2-0.1-0.3-0.1-0.4c-0.1-0.1-0.1-0.2-0.2-0.2c-0.2-0.1-0.4-0.3-0.7-0.6c-0.2-0.3-0.4-0.7-0.4-1.2V0.1h5.8
	v0.4c0,0.5-0.1,0.9-0.4,1.2c-0.2,0.3-0.5,0.5-0.7,0.6l-0.2,0.2c-0.1,0.1-0.1,0.2-0.1,0.4v22.8c0,0.3,0,0.4,0.1,0.5
	C276.1,26.3,276.2,26.3,276.3,26.4 M295.2,0.1v0.4c0,0.5-0.1,0.9-0.4,1.2c-0.2,0.3-0.5,0.5-0.7,0.6l-0.3,0.3
	c-0.1,0.1-0.1,0.3-0.1,0.5v25c0,0.3,0,0.4-0.1,0.5c-0.1,0.1-0.3,0.1-0.5,0.1h-1.3c-0.2,0-0.4,0-0.6-0.1c-0.2,0-0.4-0.3-0.6-0.7
	c-0.1-0.1-0.2-0.5-0.4-1.1s-0.5-1.4-0.8-2.3c-0.3-0.9-0.7-1.9-1.1-3.1c-0.4-1.1-0.9-2.3-1.3-3.5s-0.9-2.3-1.3-3.5
	c-0.4-1.1-0.8-2.1-1.1-3c-0.3-0.9-0.7-1.9-1.1-3c-0.1-0.2-0.1-0.1-0.1,0v17c0,0.3,0,0.4,0.1,0.5l0.3,0.3l0.6,0.6
	c0.2,0.3,0.3,0.7,0.3,1.1v0.5H279v-0.5c0-0.5,0.1-0.9,0.4-1.1c0.2-0.3,0.5-0.5,0.7-0.6l0.3-0.3c0.1-0.1,0.1-0.3,0.1-0.5V2.6
	c-0.3-0.1-0.5-0.2-0.7-0.4c-0.2-0.2-0.3-0.4-0.5-0.6c-0.1-0.3-0.2-0.6-0.2-1.1V0h3.7c0.5,0,0.8,0.3,1,0.8c0,0.1,0.2,0.5,0.5,1.4
	c0.3,0.9,0.7,1.9,1.2,3.2c0.5,1.3,1,2.7,1.5,4.2s1.1,3,1.5,4.4c0.5,1.4,0.9,2.6,1.3,3.6c0.4,1,0.6,1.7,0.7,2
	c0.1,0.1,0.1,0.2,0.2,0.2c0.1,0,0.1-0.1,0.1-0.2V3c0-0.2,0-0.4-0.1-0.5l-0.3-0.3c-0.2-0.1-0.4-0.3-0.7-0.6c-0.2-0.3-0.4-0.6-0.4-1.1
	V0h5.9V0.1z M310.8,26.4c0.2,0.1,0.4,0.3,0.6,0.6c0.2,0.3,0.3,0.6,0.3,1.1v0.5h-5.6V28c0-0.5,0.1-0.8,0.3-1c0.2-0.2,0.4-0.4,0.6-0.5
	c0.2-0.2,0.3-0.5,0.3-1c-0.1-0.7-0.2-1.3-0.3-1.8c-0.1-0.5-0.1-0.9-0.2-1.4c-0.1-0.4-0.1-0.7-0.1-0.8c-0.1-0.3-0.1-0.5-0.2-0.5
	c-0.1-0.1-0.3-0.1-0.5-0.1h-4.9c-0.5,0-0.7,0.2-0.7,0.7c0,0.1-0.1,0.4-0.1,0.8c-0.1,0.4-0.1,0.9-0.2,1.3c-0.1,0.6-0.2,1.2-0.2,1.8
	c0,0.3,0,0.4,0.1,0.5s0.1,0.2,0.3,0.3c0.2,0.1,0.4,0.3,0.5,0.5c0.2,0.2,0.3,0.6,0.3,1v0.6h-5.5v-0.6c0-0.4,0.1-0.8,0.3-1
	c0.2-0.2,0.4-0.4,0.6-0.5c0.2-0.1,0.3-0.3,0.4-0.5c0.1-0.2,0.1-0.4,0.2-0.6c0.7-4.1,1.4-7.8,1.9-11.1c0.3-1.4,0.5-2.7,0.7-4.1
	c0.2-1.3,0.4-2.5,0.6-3.6c0.2-1,0.3-1.9,0.5-2.5c0.1-0.6,0.2-1,0.2-1c0-0.2,0.1-0.4,0.1-0.5c0-0.2-0.1-0.3-0.3-0.3
	c-0.3-0.1-0.5-0.3-0.6-0.6c-0.1-0.2-0.2-0.6-0.2-1.2v-0.5h4.1c0.6,0,1.1,0.2,1.4,0.6c0.3,0.4,0.6,0.8,0.6,1.2c0,0.1,0.1,0.5,0.2,1.2
	c0.1,0.7,0.3,1.6,0.5,2.8c0.2,1.1,0.4,2.4,0.7,3.8s0.5,2.8,0.8,4.3c0.6,3.4,1.3,7.3,2.1,11.6c0.1,0.2,0.1,0.4,0.2,0.5
	C310.5,26.2,310.6,26.3,310.8,26.4 M305.6,18.5c0.2,0,0.4-0.1,0.4-0.2c0.1-0.1,0.1-0.3,0.1-0.4c0,0,0-0.3-0.1-0.7s-0.2-1-0.3-1.7
	c-0.1-0.7-0.2-1.5-0.4-2.3c-0.1-0.9-0.3-1.7-0.4-2.6c-0.4-2.1-0.8-4.4-1.2-7.1V3.4l-0.1-0.1c0,0-0.1,0-0.2,0.1v0.1l-1.2,7.1
	c-0.2,0.9-0.3,1.8-0.5,2.6c-0.2,0.9-0.3,1.6-0.4,2.3c-0.1,0.7-0.2,1.2-0.3,1.7c-0.1,0.4-0.1,0.7-0.1,0.7c0,0.2,0,0.3,0.1,0.4
	c0.1,0.1,0.2,0.2,0.4,0.2H305.6z"/>
<path class="st1" d="M157.7-16.4c0-0.2-0.1-0.3-0.2-0.4l-0.5-0.4c0-0.1,0-0.2,0.1-0.2h2.3c0.1,0,0.1,0.1,0,0.1l-0.4,0.5
	c-0.1,0.1-0.2,0.3-0.2,0.4V-8h-0.9l-5.7-6.8V-9c0,0.2,0.1,0.3,0.2,0.4l0.5,0.4c0.1,0.1,0.1,0.1,0,0.1h-2.3c-0.1,0-0.1-0.1,0-0.1
	l0.5-0.4c0.1-0.1,0.2-0.3,0.2-0.4v-6.9c-0.2-0.2-1-1.1-1.2-1.3c-0.1-0.1-0.1-0.2,0-0.2h1.8c0.1,0,0.1,0,0.1,0.1l5.8,6.8L157.7-16.4
	L157.7-16.4z M160.2-11.3c0-1.8,1.3-3.6,3.3-3.6c2.2,0,3.3,1.7,3.3,3.4c0,1.8-1.3,3.6-3.3,3.6C161.3-7.9,160.2-9.5,160.2-11.3z
	 M161.6-11.5c0,1.6,0.8,2.8,1.9,2.8c1.5,0,1.9-1.5,1.9-2.5c0-1.6-0.8-2.8-1.9-2.8C162-14,161.6-12.5,161.6-11.5z M168.5-9.9v-4h-1.1
	l0.2-0.8h0.9V-16l1.3-0.5v1.8h2l-0.2,0.8h-1.9v3.9c0,0.9,0.3,1.4,1,1.4c0.3,0,0.5,0,0.9-0.1l0.1,0.2c-0.3,0.4-0.9,0.7-1.5,0.7
	C169.6-7.8,168.5-8.2,168.5-9.9z M177.7-12.1c0-1.2-0.3-1.8-1.1-1.8c-1,0-2.1,0.9-2.1,2V-9c0,0.2,0.1,0.3,0.2,0.4l0.5,0.4
	c0.1,0.1,0.1,0.1,0,0.1h-2.4c-0.1,0-0.1-0.1,0-0.1l0.2-0.2c0.1-0.1,0.2-0.3,0.2-0.5v-8c0-0.2-0.1-0.3-0.2-0.4l-0.5-0.4
	c-0.1-0.1-0.1-0.1,0-0.1l2.2-0.3v0.1c-0.3,0.8-0.3,2.4-0.3,2.8v1.5c0.7-0.8,1.6-1.2,2.4-1.2c1.2,0.1,2.2,0.7,2.2,2.3V-9
	c0,0.2,0.1,0.3,0.2,0.4l0.5,0.4c0.1,0.1,0.1,0.1,0,0.1h-2.4c-0.1,0-0.1-0.1,0-0.1l0.2-0.2c0.1-0.1,0.2-0.3,0.2-0.5L177.7-12.1
	L177.7-12.1z M182.2-9c0,0.2,0.1,0.3,0.2,0.4l0.5,0.4c0.1,0.1,0.1,0.1,0,0.1h-2.4c-0.1,0-0.1-0.1,0-0.1l0.2-0.2
	c0.1-0.1,0.2-0.3,0.2-0.5v-4.6c0-0.2-0.1-0.3-0.2-0.4l-0.5-0.4c-0.1-0.1-0.1-0.1,0-0.1l2.2-0.3v0.1c-0.3,0.8-0.3,2.4-0.3,2.8V-9
	H182.2z M181.5-17.3c0.5,0,0.8,0.4,0.8,0.9s-0.3,0.8-0.8,0.8s-0.8-0.4-0.8-0.9S181.1-17.3,181.5-17.3z M185-14.7
	c0.3,0,0.3,0.1,0.3,1v0.3c0.7-1,1.6-1.4,2.4-1.4c1.1,0,2.3,0.5,2.3,2.4V-9c0,0.2,0.1,0.3,0.2,0.4l0.5,0.4v0.1c0,0,0,0.1-0.1,0.1
	h-2.4c0,0-0.1,0-0.1-0.1v-0.1l0.2-0.2c0.1-0.1,0.2-0.3,0.2-0.5V-12c0-1.4-0.4-1.9-1.1-1.9c-1,0-2.1,0.9-2.1,2V-9
	c0,0.2,0.1,0.3,0.2,0.4l0.5,0.4v0.1c0,0,0,0.1-0.1,0.1h-2.4c0,0-0.1,0-0.1-0.1v-0.1l0.2-0.2c0.1-0.1,0.2-0.3,0.2-0.5v-4.8
	c0-0.2-0.1-0.3-0.2-0.4l-0.5-0.4c-0.1-0.1-0.1-0.1,0-0.1L185-14.7L185-14.7z M197.4-8.8c0,1.9-0.9,3.7-3.2,3.7c-0.7,0-1.5-0.1-2-0.4
	c0-0.4,0-1,0.3-1.5h0.1c0.1,0.7,1,0.9,1.6,0.9c1.6,0,2-1.2,2-2.6v-0.4c-0.5,0.8-1.4,1.2-2.2,1.2c-1.3,0-2.6-1-2.6-3.3
	c0-1.5,0.8-3.6,3.3-3.6c0.7,0,1.9,0.2,3.1,0.7v0.1c-0.3,0.5-0.3,1-0.3,1.3v3.9H197.4z M196.1-13.7c-0.4-0.2-1-0.3-1.4-0.3
	c-1.4,0-2,1.3-2,2.6c0,1.6,0.7,2.4,1.7,2.4c0.8,0,1.7-0.8,1.7-1.8C196.1-10.8,196.1-13.7,196.1-13.7z M201.9-12.5c0-2.9,2-5,4.9-5
	c1.5,0,2.5,0.4,3.3,1c-0.1,0.7-0.5,1.6-0.9,2h-0.1c0.1-0.9-0.7-2-2.4-2c-2,0-3.2,1.7-3.2,3.7c0,2.4,1.4,4.1,3.6,4.1
	c1.2,0,2.3-0.6,2.8-2.1h0.2c0,0.6-0.3,1.9-0.5,2.4c-0.5,0.4-1.3,0.7-2.7,0.7C203.7-7.9,201.9-9.9,201.9-12.5z M211-11.3
	c0-1.8,1.3-3.6,3.3-3.6c2.2,0,3.3,1.7,3.3,3.4c0,1.8-1.3,3.6-3.3,3.6C212.2-7.9,211-9.5,211-11.3z M212.4-11.5
	c0,1.6,0.8,2.8,1.9,2.8c1.5,0,1.9-1.5,1.9-2.5c0-1.6-0.8-2.8-1.9-2.8C212.8-14,212.4-12.5,212.4-11.5z M220.3-13.6
	c0.5-0.8,1.3-1.3,2-1.3s1.4,0.3,1.6,1.4c0.6-0.9,1.5-1.4,2.2-1.4c0.8,0,1.8,0.5,1.8,2.2V-9c0,0.2,0.1,0.3,0.2,0.4l0.5,0.4v0.1
	c0,0,0,0.1-0.1,0.1h-2.4c0,0-0.1,0-0.1-0.1v-0.1l0.2-0.2c0.1-0.1,0.2-0.3,0.2-0.5v-3.6c0-0.9-0.3-1.3-0.9-1.3
	c-0.8,0-1.5,0.9-1.6,1.8v3c0,0.2,0.1,0.3,0.2,0.4l0.5,0.4v0.1c0,0,0,0.1-0.1,0.1h-2.4c0,0-0.1,0-0.1-0.1v-0.1l0.2-0.2
	c0.1-0.1,0.2-0.3,0.2-0.5v-3.6c0-0.9-0.3-1.3-0.9-1.3c-0.8,0-1.5,0.8-1.6,1.8v3c0,0.2,0.1,0.3,0.2,0.4l0.5,0.4v0.1
	c0,0,0,0.1-0.1,0.1h-2.4c0,0-0.1,0-0.1-0.1v-0.1l0.2-0.2c0.1-0.1,0.2-0.3,0.2-0.5v-4.8c0-0.2-0.1-0.3-0.2-0.4l-0.5-0.4
	c-0.1-0.1-0.1-0.1,0-0.1h1.5c0.3,0,0.3,0.1,0.3,1L220.3-13.6z M231.1-8v2.2c0,0.2,0.1,0.3,0.2,0.4l0.5,0.4v0.1c0,0,0,0.1-0.1,0.1
	h-2.4c0,0-0.1,0-0.1-0.1V-5l0.2-0.2c0.1-0.1,0.2-0.3,0.2-0.5v-8c0-0.2-0.1-0.3-0.2-0.4l-0.5-0.4c-0.1-0.1-0.1-0.1,0-0.1h1.5
	c0.3,0,0.3,0.1,0.3,1v0.2c0.6-1,1.4-1.4,2.3-1.4c1.3,0,2.6,1,2.6,3.3c0,1.5-0.8,3.6-3.3,3.6C232.2-7.9,231.7-7.9,231.1-8z M231.1-9
	c0.4,0.2,1,0.3,1.4,0.3c1.4,0,2-1.3,2-2.6c0-1.6-0.7-2.4-1.7-2.4c-0.8,0-1.7,0.7-1.7,1.8C231.1-11.9,231.1-9,231.1-9z M239.1-7.9
	c-1.6,0-2.2-1-2.2-2c0-2.5,4.5-1.9,4.5-3.2c0-0.4-0.4-1-1.4-1s-1.6,0.6-1.8,1.1l-0.1,0.1c-0.3-0.3-0.6-1.1-0.6-1.3
	c0.5-0.3,1.6-0.6,2.6-0.6c0.8,0,1.5,0.2,2,0.6s0.7,1.1,0.7,2v2.5c0,0.8,0,1.3,0.5,1.5v0.3h-0.5c-0.9,0-1.3-0.6-1.4-1.2
	C240.8-8.3,240-7.9,239.1-7.9z M241.3-11.9c-0.9,0.4-1.6,0.6-2.2,0.8c-0.6,0.2-0.9,0.5-0.9,1.2c0,0.6,0.5,1,1.1,1c0.9,0,2-0.7,2-2.3
	L241.3-11.9L241.3-11.9z M245.8-13.5c0.5-0.9,1.2-1.4,2.2-1.4c0.4,0,0.7,0,1,0.1c0.1,0.5-0.1,1.1-0.3,1.6h-0.1
	c-0.2-0.5-0.8-0.6-1.1-0.6c-1.3,0-1.7,1.3-1.7,2V-9c0,0.2,0.1,0.3,0.2,0.4l0.5,0.4v0.1c0,0,0,0.1-0.1,0.1H244c0,0-0.1,0-0.1-0.1
	v-0.1l0.2-0.2c0.1-0.1,0.2-0.3,0.2-0.5v-4.8c0-0.2-0.1-0.3-0.2-0.4l-0.5-0.4c-0.1-0.1-0.1-0.1,0-0.1h1.5c0.3,0,0.3,0.1,0.3,0.9v0.2
	L245.8-13.5z M251-11.7v0.3c0,1.8,1,2.6,2.2,2.6c0.6,0,1.2-0.2,1.6-0.6l0.2,0.1c-0.7,1.1-1.6,1.4-2.3,1.4c-1.6,0-3.1-1.4-3.1-3.4
	c0-2.2,1.5-3.6,3.2-3.6c1.2,0,2.6,0.9,2.7,3.1H251V-11.7z M251.1-12.5h2.9c-0.1-0.9-0.6-1.4-1.4-1.4C252-13.9,251.4-13.3,251.1-12.5
	z M261.5-14.3c0,0.5-0.1,1.1-0.2,1.5h-0.2c-0.2-0.8-1-1.3-2-1.3c-0.7,0-1.2,0.3-1.2,0.8c0,0.6,0.6,0.9,1.5,1.1
	c1.1,0.4,2.5,0.9,2.5,2.2c0,1.2-1,2-2.8,2c-0.7,0-1.7-0.2-2.2-0.6c-0.1-0.4-0.3-1.4-0.2-1.8h0.2c0.4,1.1,1.3,1.6,2.3,1.6
	c0.9,0,1.5-0.4,1.5-1.1c0-0.7-0.7-0.9-1.5-1.2c-1.1-0.3-2.3-0.7-2.3-2.1c0-1.3,1.1-1.9,2.4-1.9C260.1-14.8,260.9-14.6,261.5-14.3z
	 M148.9-16.4c-1.1,0-1.6-1.7-2.8-1.5c-0.8,0.1-1.7,0.6-2.2,0.9c-1.6,1.2-3,2.3-4.8,3.3c-3.6,1.9-7.7,3.3-11.7,4.6
	c-1,0.3-1.9,0.6-2.9,1c-0.5,0.2-0.4,0.3-0.1,0.3c0.3,0,1.5-0.3,2.1-0.5c3.1-1,6.1-2,9.1-3.2c2.5-1,5.6-1.9,7.7-3.3
	c0.6-0.5,2.7-1.9,3.7-1.6c0.8,0.2,0.7,0.6,1.4,1C149.8-14.5,149.7-16.4,148.9-16.4z M130.8-15.8c1.2-0.5,3.4-2.2,4.5-1.6
	c1.5,0.8,1.6,1.6,3.1,2.4c0.3,0.2,3-1.5,2.6-1.7c-1.7-0.8-3.6-0.5-5.2-1.5c-0.8-0.5-1.8-0.1-2.5,0.4c-1.9,1.2-4,2-6,2.8
	c-2.4,0.9-4.9,2.1-7.3,2.7c-0.6,0.2-0.5,0.8,0.2,0.6c1.9-0.5,3.7-1.4,5.6-2.1C127.3-14.3,129-15,130.8-15.8z M292.3-8.7
	c-3.4,0.9-6.9-0.4-6.4-2.9c0.2-1.1-1.3,0.7-4.9,2.5c-1.1,0.5-2.2,0.9-3.4,0.8c-2-0.2-3.1-2-2.6-3.8c0.1-0.3-0.4-0.4-0.6-0.3
	C273-12,266.1-9.3,264-8.8c-1.8,0.4-1.6,0.4-1.3,0.4c0.7,0.1,2.1-0.2,2.8-0.4c0.1,0,0.3-0.1,0.4-0.1c0.4-0.1,0.7-0.2,1.1-0.3
	c2.5-0.7,4.9-1.6,7.3-2.2c-0.1,0.2,0.2,3.4,3.9,3.7c2.4,0.2,6.1-2.3,7.1-3.2c0.2-0.1,0.1,0,0.2,0.2c0.9,3,6.2,2.9,7.2,2
	C292.7-8.6,292.8-8.8,292.3-8.7L292.3-8.7z"/>
<g>
	<path class="st0" d="M295.7-9.6l0.6-0.1c0,0.3,0.1,0.5,0.2,0.6c0.1,0.2,0.3,0.3,0.5,0.4c0.2,0.1,0.5,0.2,0.8,0.2
		c0.3,0,0.5,0,0.7-0.1s0.3-0.2,0.4-0.3c0.1-0.1,0.1-0.3,0.1-0.4c0-0.2,0-0.3-0.1-0.4c-0.1-0.1-0.3-0.2-0.5-0.3
		c-0.1-0.1-0.4-0.1-0.9-0.3s-0.8-0.2-1-0.3c-0.2-0.1-0.4-0.3-0.6-0.5c-0.1-0.2-0.2-0.4-0.2-0.6c0-0.3,0.1-0.5,0.2-0.7
		c0.1-0.2,0.4-0.4,0.7-0.5c0.3-0.1,0.6-0.2,1-0.2c0.4,0,0.7,0.1,1,0.2c0.3,0.1,0.5,0.3,0.7,0.5s0.2,0.5,0.3,0.8l-0.7,0
		c0-0.3-0.2-0.6-0.4-0.7s-0.5-0.3-0.9-0.3c-0.4,0-0.7,0.1-0.9,0.2c-0.2,0.2-0.3,0.3-0.3,0.6c0,0.2,0.1,0.3,0.2,0.5
		c0.1,0.1,0.5,0.2,1,0.4c0.6,0.1,0.9,0.2,1.1,0.3c0.3,0.1,0.5,0.3,0.7,0.5s0.2,0.5,0.2,0.7c0,0.3-0.1,0.5-0.2,0.8s-0.4,0.4-0.7,0.6
		c-0.3,0.1-0.6,0.2-1,0.2c-0.5,0-0.9-0.1-1.2-0.2c-0.3-0.1-0.6-0.3-0.7-0.6C295.8-9,295.7-9.3,295.7-9.6z"/>
	<path class="st0" d="M300.7-8v-5.2h1l1.2,3.7c0.1,0.3,0.2,0.6,0.2,0.8c0.1-0.2,0.2-0.5,0.3-0.8l1.2-3.6h0.9V-8H305v-4.3L303.5-8
		h-0.6l-1.5-4.4V-8H300.7z"/>
</g>
</svg>
