<?xml version="1.0" encoding="utf-8"?>
<!-- Generator: Adobe Illustrator 18.1.1, SVG Export Plug-In . SVG Version: 6.00 Build 0)  -->
<!DOCTYPE svg PUBLIC "-//W3C//DTD SVG 1.1//EN" "http://www.w3.org/Graphics/SVG/1.1/DTD/svg11.dtd">
<svg version="1.1" id="Layer_1" xmlns="http://www.w3.org/2000/svg" xmlns:xlink="http://www.w3.org/1999/xlink" x="0px" y="0px"
	 viewBox="0 0 185 128.2" enable-background="new 0 0 185 128.2" xml:space="preserve" preserveAspectRatio="xMinYMid">
<g>
	<path fill="#FFFFFF" d="M100.6,69.8C100.6,69.8,100.6,69.8,100.6,69.8C100.5,69.7,100.6,69.7,100.6,69.8c-0.1-0.1-0.1-0.2-0.2-0.2
		c0,0,0-0.1,0-0.1c0,0,0,0,0,0c0,0,0,0,0,0c0,0,0-0.1,0-0.1c0,0,0-0.1,0-0.1c0,0,0,0,0,0h0c0,0,0,0,0,0
		C100.5,69.6,100.6,69.5,100.6,69.8z M98.2,45.5c-0.1,0.1-0.4,0.2-0.1,0.5c0,0,0-0.4,0-0.3c0.1,0,0.2,0.1,0.1,0.2
		c0.1-0.3,0.4-0.5,0.1-0.9c0.1,0.1,0.1,0.2,0.2,0.2c0,0-0.2-0.3-0.3-0.3C97.9,45.4,98,45.6,98.2,45.5C98.3,45.6,98.2,45.5,98.2,45.5
		z M98.5,76.1c0.2,0.1,0,0.6,0,0.6c0.2,0.1,0.2,0,0.1,0C98.8,76.6,98.6,75.9,98.5,76.1z M89.1,67.3C89.1,67.3,89.1,67.2,89.1,67.3
		L89.1,67.3C89.1,67.3,89.1,67.3,89.1,67.3C89.2,67.4,89.1,67.4,89.1,67.3z M97,56.6c0,0,0.1,0.1,0.1,0.2c0,0,0,0.1,0,0.1
		c-0.1,0-0.2,0.2-0.1,0.2C97.3,56.8,97.1,56.4,97,56.6z M97,57.4c0,0,0,0.1,0,0.1C97,57.4,97.1,57.5,97,57.4z M96.9,57.6
		c0,0,0-0.1,0-0.1C96.9,57.5,96.9,57.5,96.9,57.6z M97.9,46.9c0.1,0,0.2,0,0.2,0c-0.1-0.3,0-0.5-0.2-0.2
		C98.2,46.8,97.8,46.6,97.9,46.9z M99,75.7C99,75.7,99,75.7,99,75.7C99,75.7,99,75.7,99,75.7c0.1,0,0.1,0,0.1,0
		c0.1-0.2,0.1-0.4,0-0.5c-0.2-0.1-0.5,0.4-0.4,0.7c-0.4,0,0.1-0.1-0.1-0.3c0,0.2-1,0.3,0.2,0.5C98.8,75.6,99,75.7,99,75.7z
		 M100.4,69.2C100.4,69.2,100.4,69.2,100.4,69.2C100.4,69.2,100.4,69.2,100.4,69.2C100.4,69.2,100.4,69.2,100.4,69.2z M104.8,78.3
		C104.7,78.3,104.7,78.4,104.8,78.3L104.8,78.3z M104.5,78c0,0.6,0.2-0.2,0.1,0.3c0.1,0,0.1-0.1,0.2-0.1c0,0.2,0.1,0.3,0.1,0.2
		c-0.1-0.2-0.2-0.4-0.2-0.6C104.6,78.1,104.6,78.1,104.5,78z M104.1,77.1c-0.2,0.6-0.2,0.9,0.1,0.9c0.1-0.2,0.3-0.3,0.4-0.4
		C104.5,77.3,104.2,77.1,104.1,77.1z M100.1,69.5c0-0.2,0.4-0.5-0.1-0.5c0,0.4,0.1-0.2,0.2,0.2c-0.1,0-0.3,0.1-0.2-0.2
		c-0.1,0.1-0.2,0-0.2,0c0.2,1,0.3,0.4,0.6,0.5c0,0-0.1-0.1-0.1-0.2C100.3,69.3,100.2,69.4,100.1,69.5z M98.2,36.4c0,0,0-0.7-0.2,0
		C98,36.4,98.2,36.7,98.2,36.4z M104.4,78.4c-0.1,0.1-0.5,0.5-0.2,0.5C104.1,78.7,104.4,78.4,104.4,78.4z M105.4,68.6
		c-0.2-0.1-0.3-0.3-0.3-0.6c-0.2,0.2-0.5,0.5-0.5,0c-0.1,0-0.2,0.1-0.3,0.2c0.1,0.3-0.4,0.3-0.4,0.3c0-0.2,0-0.2,0.1-0.2
		c0,0,0-0.1-0.1-0.3c0,0,0,0,0,0c0,0,0-0.1,0-0.1c-0.1-0.2-0.1-0.5-0.1-0.7c0.1,0.1,0.2,0.2,0.3,0c0.1,0.1,0.1,0.2,0,0.3
		c0.4,0,0.5,0.4,0.7-0.4c0.1,0.3,0.2-0.2,0.2-0.3c0.1-0.1,0.2,0,0.3,0.1c0.3-0.3-0.3-0.8-0.3-1.1c0.1,0,0.1,0,0.2,0.1
		c0-0.1-0.2-0.7-0.3-0.4c-0.1-0.2-0.1-0.3-0.1-0.5c-0.1,0-0.1,0.1-0.2,0c0,0.3,0.1-0.1,0.2,0.1c-0.1,0.1-0.1,0.1-0.1,0.2
		c-0.1-0.2-0.2-0.2-0.2,0c0,0,0-0.2-0.1-0.2c0.1-0.2,0.5-0.6,0.4-0.5c0.1-0.2,0.1-0.3,0-0.4c0,0-0.1-0.1-0.3-0.2
		c-0.1,0.2-0.2,0.4-0.3,0.6c0-0.1-1-1.3-1.1-0.6c-0.3-0.3-0.6-0.6-0.9-0.9c0.1-0.2,0.4,0.1,0.4,0.2c0.1-0.4,0.4-0.6,0.7-0.7
		c0,0.4,0,0-0.1,0.1c0,0.1,0.2,0.2,0.3,0.2c0,0.1,0,0.1,0,0.1c0.1,0.1,0,0,0.2-0.1c0,0.1-0.2,0.4-0.2,0.1c0,0,0,0.1,0,0.1
		c0.3,0.2,0.2,0.3,0.3,0.6c0-0.1,0-0.2,0-0.2c0.4,0.1,0,0.1,0.3,0c0-0.1-0.2,0-0.3,0c0.1-0.1,0.1-0.2,0.2-0.3c0.1,0.1,0.1,0.1,0,0.1
		c-0.1,0.2,0.3,0,0.3,0.4c0.3,0.1-0.2-0.6,0.1-0.6c0,0.3,0.2,0.4,0.2,0.6c0.1-0.1,0.1-0.1,0.1-0.2c0.1,0,0.1-0.1,0,0.1
		c0.1,0,0.4,0.2,0.5,0.4c0.1,0,0.1-0.1-0.1-0.1c0.5-0.4,0.5,0.8,0.5,0.8c0.3-0.4,1,0.7,0.5,0.7c0.1,0,0.2,0.1,0.4,0
		c0,0.1-0.1,0.1-0.1,0.1c0,0,0.1,0,0.1,0c0,0.2,0,0.3,0.1,0.4c0.2,0-0.2,0.5-0.1,0.1c-0.1,0.2,0.1,0.8-0.3,0.8
		c0.2,0.5,0.4-0.1,0.7,0.1c0,0.5,0,0.2-0.2,0.2c0.7,0.3-0.6,1.6-0.7,1.5c0,0,0.1,0,0.1,0.1c-0.3-0.1-0.8-0.2-0.9-0.2
		C105.3,68.6,105.3,68.6,105.4,68.6z M106.4,66.6c-0.2-0.2,0-0.5-0.2-0.4c0.2-0.1,0.2-0.1-0.1,0c0.3-0.1,0.3,0.2,0.1,0.3
		c0-0.1,0-0.2-0.1-0.3c0,0.2-0.1,0.2-0.1,0C106,66.6,106.2,66.8,106.4,66.6z M105.7,67.4c0,0,0.3,0.4,0.3,0.1
		C105.9,67.2,105.8,67.3,105.7,67.4C105.7,67.3,105.6,67.3,105.7,67.4z M103.6,72.4C103.5,72.4,103.6,72.4,103.6,72.4
		c0.1,0.1,0.2,0.3,0.3,0.3c0-0.5-0.4-0.3-0.6-0.4C103.2,72.6,103.6,72.4,103.6,72.4z M105,79c0-0.1,0.1-0.1,0.1-0.2
		c-0.2-0.1-0.8-0.6-0.9,0c0.1,0,0.1,0.1,0,0.1c0.1-0.1,0.2-0.1,0.2,0c-0.1,0.1-0.1,0.2,0,0.3c0.3,0,0.4-0.1,0.3-0.4
		C105.1,78.8,104.5,79,105,79z M103.3,66.9c0,0.2-0.1,0.3-0.2,0.4c0,0,0.2-0.1,0.2-0.1c0.3,0.3,0.2,0.2,0.7,0.1
		C103.8,66.9,103.5,66.9,103.3,66.9z M101.6,67.3c0,0-0.1-0.9-0.2-0.2c0.1,0,0.1,0,0.1,0C101.5,67.2,101.4,67.2,101.6,67.3z
		 M100.5,77.5C100.6,77.5,100.5,77.6,100.5,77.5C100.6,77.6,100.6,77.6,100.5,77.5z M100.3,77.6C100.3,77.6,100.3,77.6,100.3,77.6
		C100.3,77.6,100.3,77.7,100.3,77.6z M100.4,77.5c0.1-0.1,0.1-0.2,0.1-0.3c0,0.2-0.1,0.2-0.1,0.1c-0.1,0.1-0.1,0.1-0.1,0.2
		c-0.3,0-0.2,0,0,0.1c0,0,0,0.1,0,0.1C100.3,77.6,100.3,77.5,100.4,77.5c0,0.1,0,0.1,0.1,0.1c0,0,0,0,0-0.1
		C100.8,77.3,100.3,77.4,100.4,77.5z M100.9,66.5c-0.1,0-0.2-0.2,0-0.4c-0.1,0-0.2,0.1-0.3,0.1c0,0,0,0.2-0.1,0.2
		c0,0.1,0,0.2-0.2,0.1c0,0.4-0.2,0.3-0.2,0.5c0,0,0.5-0.1,0.1,0.3c0.3,0.2,0.4-0.4,0.6-0.5c-0.1,0-0.1-0.3,0-0.1
		C100.8,66.5,100.8,66.6,100.9,66.5z M100.6,66.4C100.6,66.3,100.6,66.3,100.6,66.4C100.6,66.4,100.6,66.4,100.6,66.4z M101,66.4
		c0,0-0.1,0.1-0.1,0.1C101,66.5,101.1,66.5,101,66.4z M90.7,69.6C90.7,69.5,90.8,69.5,90.7,69.6c-0.1-0.2-0.1-0.2-0.2-0.2
		c-0.1,0-0.1,0-0.2,0.2c0.1,0,0.2-0.1,0.2-0.2c0,0,0,0.2,0,0.3c0,0,0,0,0,0c0,0,0,0,0,0C90.6,69.7,90.7,69.6,90.7,69.6
		c-0.1,0.1-0.1,0.1-0.1,0.1c0,0,0.1,0.1,0,0c0.1,0.2,0.2,0.2,0.3,0C90.8,69.8,90.8,69.7,90.7,69.6z M92.5,79.6c0,0,0,0,0.1,0.1
		c0.1-0.4,0.2-0.4,0.4-0.8c0,0-0.3,0.2-0.3,0.2c0-0.1-0.1-0.4,0-0.5c0,0-0.1,0-0.1,0c0.1-0.1,0-0.2-0.1-0.2c-0.1,0.1,0,0.4-0.1,0.5
		c0-0.1-0.1-0.6-0.2-0.6c0,0.1,0.1,0.1,0,0.2c-0.2-0.6,0,0.5,0,0.5C92.4,79.1,92.4,79.4,92.5,79.6z M93.2,78.6c-0.1,0-0.2,0-0.3,0
		c0,0.1,0,0.3,0.1,0.4C92.9,78.7,93.1,78.7,93.2,78.6z M92.9,78.6C92.8,78.6,92.8,78.6,92.9,78.6C92.8,78.6,92.8,78.6,92.9,78.6
		C92.9,78.6,92.9,78.6,92.9,78.6z M93.3,82c0.2-0.1,0.2-0.2,0.2-0.4c0,0,0,0,0-0.1c-0.1,0-0.2-0.2-0.2-0.2c0,0-0.2,0.1-0.1,0.4
		c-0.1-0.1-0.1-0.1-0.2,0c0.3,0,0,0.3,0,0.3C93.3,82.3,93.2,81.4,93.3,82z M95.6,54.1C95.4,54,95.4,54,95.6,54.1L95.6,54.1z
		 M95.6,69.4C95.6,69.5,95.6,69.5,95.6,69.4c0-0.4-0.1-0.4-0.1-0.2C95.3,69.5,95.6,69.5,95.6,69.4z M95.8,54.3
		C95.7,54.3,95.8,54.3,95.8,54.3L95.8,54.3z M89,80.3c-0.1,0.1-0.2,0.1-0.2,0.4C88.9,81.5,89.7,80.2,89,80.3z M89.1,67.3L89.1,67.3
		C89.1,67.3,89.1,67.3,89.1,67.3C89.1,67.3,89.1,67.3,89.1,67.3z M88.9,67.3C88.9,67.3,88.9,67.3,88.9,67.3
		C88.8,67.3,88.9,67.3,88.9,67.3z M89.1,67.3c0,0-0.1,0-0.1,0C89,67.9,89,67.5,89.1,67.3z M90.4,66.1c0-0.5-0.4,0-0.4,0.1
		c0.3,0.1,0.3,0.2,0.3-0.1c0.4,0.3,0.4,0.4,0.5-0.2c-0.3,0.1-0.2,0.1-0.2,0C90.5,65.9,90.5,66,90.4,66.1
		C90.5,66,90.4,65.9,90.4,66.1z M96.1,54.3c-0.3-0.1-0.4-0.2-0.5-0.2c0.1,0.1,0.3,0.2,0.2,0.2C95.8,54.3,96.1,54.4,96.1,54.3z
		 M90.5,69.6C90.5,69.6,90.6,69.6,90.5,69.6C90.6,69.6,90.6,69.6,90.5,69.6C90.5,69.6,90.5,69.6,90.5,69.6z M91.9,79.2
		c0.3,0.4,0.2,0.2,0.1,0.1c0.2,0.2,0-0.5-0.1-0.6C91.9,78.9,92.1,79.4,91.9,79.2z M96,68.8c0.1,0-0.1,0.3,0.1,0.2
		C96.2,68.8,96,68.6,96,68.8z M100.1,41.7c0.1,0.1,0.3,0.3,0.4,0.1c-0.2-0.3,0.4-0.3,0.4-0.7c-0.1,0.1-0.2,0.2-0.4,0.2c0,0,0,0,0,0
		c0,0,0,0,0,0c0,0-0.1,0-0.1,0.1c0,0,0,0,0.1,0C100.3,41.6,100.2,41.7,100.1,41.7z M99.6,43.3c-0.1,0.1-0.1,0.1-0.2,0.2
		c0-0.1,0-0.1-0.1-0.1C99.4,43.5,99.4,43.6,99.6,43.3z M100.1,45.8C100.2,45.9,100.2,45.9,100.1,45.8
		C100.2,45.9,100.2,45.8,100.1,45.8z M96.9,52.9c0-0.1-0.1-0.5-0.2-0.5c0-0.1,0-0.1,0-0.2c0,0.1-0.1,0.1-0.1,0c0,0.1-0.2-0.1,0,0.5
		c0,0,0,0,0.1-0.1C96.6,52.7,96.8,52.9,96.9,52.9z M96.9,57.6c0,0-0.1-0.3-0.1-0.3C96.8,57.5,96.8,57.7,96.9,57.6
		C97,57.6,97,57.6,96.9,57.6C96.9,57.6,96.9,57.6,96.9,57.6C96.9,57.5,96.9,57.6,96.9,57.6z M99.1,41.9c0.3,0.1,0.7,0.8,0.8,0
		c0,0,0.2,0.1,0.2,0c-0.1-0.2-0.1-0.3,0-0.5c0,0.1,0.1,0.2,0-0.1c0-0.1,0-0.1,0,0c0,0,0,0-0.1,0c0,0,0,0,0-0.1
		c-0.3-0.3-0.1,0.5-0.1,0.5c-0.1-0.1-0.1-0.2-0.1-0.2c0,0,0,0,0,0c0,0,0,0,0,0c-0.2-0.1-0.3,0.2-0.5,0.1c0,0.1,0.1,0.1,0.2,0.1
		C99.3,41.7,99.1,41.7,99.1,41.9z M96.2,57.8c0,0,0,0.1,0,0.1c0.1,0.1,0.3,0.2,0.3,0.2C96.5,58.1,96.2,57.8,96.2,57.8z M100.5,41.3
		C100.5,41.3,100.5,41.3,100.5,41.3C100.5,41.3,100.5,41.3,100.5,41.3z M96.2,59.3c-0.1,0.1-0.2,0.4-0.2,0.6c0.4,0,0.3,0,0.2,0
		c0.4-0.1,0.2-0.4,0.4-0.8C96.4,59,96.4,59.5,96.2,59.3z M99.8,40.9C99.7,40.9,99.7,40.9,99.8,40.9c0,0.1-0.1,0.4,0,0.5c0,0,0,0,0,0
		C99.8,41.1,100,40.9,99.8,40.9z M96.1,57.9C96.1,57.9,96.1,57.9,96.1,57.9c-0.1,0-0.1,0-0.1,0C96.1,58.1,96.1,58,96.1,57.9z
		 M96.1,57.9c0.1-0.1,0.1-0.3,0.1-0.3C95.8,57.6,95.9,57.7,96.1,57.9z M96.3,59.3C96.3,59.3,96.3,59.3,96.3,59.3
		C96.4,59.2,96.3,59.2,96.3,59.3z M96.1,66.9c0,0,0,0.1,0,0.1c0-0.2-0.3,0.1,0,0.1c0-0.1,0-0.2,0-0.3c-0.1,0-0.1,0.1-0.2,0.1
		C96,66.8,96.1,66.8,96.1,66.9z M96.2,59.2c0,0.1,0.1,0.1,0.1,0.1c0,0,0,0,0.1-0.1C96.3,59.2,96.2,59.2,96.2,59.2z M111.5,48.8
		c-0.1,0-0.1-0.2-0.2-0.3C111.3,48.7,111.4,48.8,111.5,48.8z M108.7,47.4c0-0.1,0.1-0.1,0.1-0.1c-0.2,0.2,0.4,1.4,0.5,1.4
		c0.1-0.2-0.1-1,0.5-0.7c-0.1,0-0.2,0.1-0.1,0.3c0.3-0.1,0.7-0.2,0.7-0.6c0.1,0.1,0.1,0.1,0.1,0.2c0.1-0.1,0.1-0.2,0.2-0.3
		c-0.1,0-0.1,0.1-0.1,0.1c0,0,0-0.9,0-1.2c0,0,0,0.1,0,0.1c-0.3,0,0.1-0.4,0.1-0.4c-0.1,0.1-0.2,0.2-0.4,0.1
		c0.1,0.3,0.2,0.6,0.3,0.9c0-0.1-0.4-1.1-0.6-0.7c0-0.1,0.1-0.2,0.1-0.3c-0.2,0-0.2,0.1-0.2,0.3c-0.1-0.2-0.2-0.2,0-0.1
		c0-0.2,0-0.1,0-0.4c-0.1,0-0.2,0.2-0.3,0.3c0-0.4,0.3-0.4,0.4-0.4c0-0.4-0.3-0.1-0.4,0c0,0,0,0,0,0c-0.1,0.3-0.7,0.7-0.7,0.7
		c0.2,0.1,0.3,0.4,0.1,0.7c-0.1-0.1-0.2-0.1-0.3,0C108.9,47.2,108.6,47.4,108.7,47.4z M109.5,45.7c0,0.1,0,0.2,0,0.2
		C109.6,45.8,109.5,45.7,109.5,45.7z M107.1,46c0,0-0.3,0-0.3,0c0,0.1,0,0.1,0,0.1c0,0.9,1.1,0.5,0.9,0.2c-0.1-0.1-0.6,0.2-0.8,0.1
		C107.1,46.3,107.2,46.1,107.1,46z M108.9,47.3C108.9,47.2,108.8,47.2,108.9,47.3L108.9,47.3z M109.3,45.6c0.1,0,0.1,0,0.1,0.1
		C109.4,45.5,109.4,45.3,109.3,45.6z M109.1,45.3c0,0-0.6,0.1-0.4,0.3C108.6,45.7,109.1,46,109.1,45.3z M110.3,48.9
		C110.3,48.9,110.3,49,110.3,48.9L110.3,48.9z M112.2,49.8L112.2,49.8C112.2,49.7,112.2,49.7,112.2,49.8z M106.5,47.9
		c0.3-0.1,0,0.3,0.4-0.1c-0.1,0.1,0.2,0.4,0.3,0.7c0,0.1-0.2-0.1,0,0.3c0,0,0.1-0.3,0.3-0.1c-0.1-0.1,0-0.5-0.1-0.6
		c0.4,0.3,0.5-0.4,0.9-0.2c-0.1,0.1,0,0.3,0.1,0.3c-0.1-0.2-0.1-0.3,0.1-0.5c0.5,0.2,0.1,0.8,0,0.9c0,0,0.2-0.3,0.2-0.2
		c-0.1,0.3,0.1,0.1,0.1,0.1c0-0.1,0.1-0.1,0.1-0.1c0.2,0,0,0.6,0,0.6c0.1,0,0.1,0,0.2,0c-0.1-0.1-0.1-0.2,0-0.3
		c-0.2,0.1,0.2,0.5,0.3,0.4c-0.1,0-0.1,0.1-0.1,0.2c0-0.1,0.1-0.2,0.2-0.2c-0.1,0.1-0.1,0.2-0.1,0.3c0.1-0.1,0.2-0.2,0.3-0.2
		c0,0.1,0,0.6,0,0.8c0.2-0.1,0.4,0.1,0.3,0.3c0.2,0.2,0.4,0.9,0.8,0.6c0,0.1,0,0.3-0.1,0.3c-0.1,0,0-0.2,0-0.3
		c-0.2,0.2-0.9,0.8-1.1,0c0,0.3-0.2,0.1-0.2,0.1c0.1-0.5-0.3,0.1-0.8-0.2c0.1-0.4-0.2-0.7,0-0.9c-0.1,0-0.6,0.6-0.6,0
		c-0.2,0.2-0.1,0-0.4,0.1c0.1-0.1,0.1-0.3-0.1-0.4c-0.1,0.1,0.1,0.1,0.1,0.3c-0.2-0.1-0.4-0.4-0.6-0.7c0.1,0,0.2-0.1,0.2-0.2
		c0.1,0.1,0.1,0.1,0.1,0.2c0.1,0,0.4,0,0.4,0.2c-0.1,0-0.1,0-0.1-0.1c0.1,0.3,0.2-0.1,0.4,0c-0.1-0.1-0.2-0.2-0.2-0.3
		c0.1,0.1,0.2,0.1,0.3,0.1c-0.1-0.2-0.5,0-0.4-0.3c0.1,0,0,0.2,0.2,0c-0.1-0.1-0.1-0.2-0.1-0.3c-0.2,0.2-0.5,0.5-0.5,0.1
		c-0.1,0-0.3,0.1-0.4,0.1C106.6,48.6,106.8,48.2,106.5,47.9z M108.7,48.9c0.1,0.2,0.1-0.2,0.2-0.2c0,0,0,0.1,0,0c0,0,0,0,0,0
		c0,0,0,0,0,0C108.6,48.4,108.7,48.9,108.7,48.9z M108.7,49.9c0-0.2-0.2-0.6-0.2-0.4C108.9,49.6,107.8,49.7,108.7,49.9z M106.9,47.8
		C106.8,47.9,106.7,48,106.9,47.8L106.9,47.8z M110.7,48.3c0-0.3-1,0-0.8,0.5c-0.1-0.2-0.3-0.1-0.4,0c0.3,0,0.2,0.2,0.3,0.2
		c0,0.1,0.4-0.1,0.4-0.1c0,0.1,0,0.2-0.1,0.3c0.1,0,0.2-0.1,0.2-0.2c0-0.1,0-0.1,0.1-0.2c0,0.1,0,0.1,0,0.2c0,0,0,0.1,0.1,0.2
		c-0.1,0.1-0.3-0.2-0.4,0.1c0.3,0.3,0.7,0.6,1,0.8c0,0,0,0,0,0c0,0,0,0,0,0c0,0,0,0,0,0c0,0,0,0,0,0c0,0,0,0,0,0
		c0.2,0.1,0.3,0.2,0.3,0.3c0,0,0.7-0.1,0.6-0.1c0,0,0.2-0.3,0.3-0.4c-0.1-0.1-0.1-0.2-0.1-0.2c-0.2,0-0.2-0.1-0.1-0.3
		c-0.1-0.1-0.3,0.1-0.2,0.1c-0.3,0-0.7,0.2-1.2-0.1c0,0,0.2-0.4,0.1-0.5C110.4,48.9,110.9,48.5,110.7,48.3
		C110.8,48.4,110.9,48.4,110.7,48.3z M104.5,65.4C104.5,65.4,104.5,65.3,104.5,65.4C104.5,65.3,104.5,65.3,104.5,65.4z M107.2,32.6
		c0,0-0.2,0.1-0.3,0.1c0,0.2-0.1,0.1-0.1,0.3C106.9,33,107.1,32.8,107.2,32.6z M104.8,65.5c0,0.1,0,0.1,0.1,0.2
		C104.8,65.7,104.8,65.6,104.8,65.5z M104.4,68.2C104.5,68.5,104.5,68.2,104.4,68.2L104.4,68.2z M108.5,49.5
		C108.6,49.6,108.5,49.4,108.5,49.5L108.5,49.5z M110.8,58.2C110.8,58.2,110.9,58.2,110.8,58.2C110.8,58.2,110.8,58.2,110.8,58.2z
		 M108.2,63.4c0-0.2-0.1-0.2-0.1-0.3c-0.1-0.1-0.1-0.2-0.2,0c0-0.5-0.2-0.2-0.2-0.4c0.2,0-0.1-0.1-0.3-0.1c0.1-0.2,0.1-0.3,0.1-0.3
		c-0.2,0.1-0.3,0.2-0.3,0.4c0,0,0,0.1,0,0.1c0,0,0,0,0,0c0,0.3,0.2,0.6,0.1,0.7c0.2,0,0.3,0,0.4-0.1
		C107.8,63.8,107.9,63.9,108.2,63.4c-0.1,0.4,0.1,0.4,0.2,0.5c-0.2-0.1-0.2-0.1-0.2,0.1c0.2,0.1,1.1-0.4,1-0.8c0,0,0,0,0,0
		C109.1,63,108.5,63.3,108.2,63.4z M109.9,63.7C109.9,63.8,110.3,63.3,109.9,63.7L109.9,63.7z M109.6,63c-0.1,0.3,0,0.1-0.3,0.4
		c0,0.2-0.1,0.5-0.1,0.6c-0.1-0.1-0.2,0.1-0.3,0.1c0,0,0,0.1,0,0c0.1-0.2,0.2,0.1,0.3,0c0-0.1,0-0.2,0-0.2c0.1,0.1,0.8,0.5,0.7,0
		c0-0.2-0.3,0,0-0.3C110.3,63.4,109.8,63.1,109.6,63z M107.3,75.6C107.2,75.6,107.2,75.6,107.3,75.6
		C107.3,75.6,107.3,75.6,107.3,75.6z M108.5,64.7C108.5,64.8,108.6,64.7,108.5,64.7L108.5,64.7z M107.6,75.2c-0.4-0.1,0.1,0,0-0.1
		c-0.3-0.1-1.4-0.4-1.5-0.5c-0.3-0.5-0.4-0.7-0.7-0.7c0,0.3,0.3,0.7,0.4,0.9c0-0.1,0.2,0.6,0.5,0.2c-0.1,0.4,0.1,0.8,0.1,0.9
		c0.1,0,0.2-0.7,0.4-0.2c0.2-0.4,0.6-0.1,0.6,0C107.4,75.5,107.5,75.3,107.6,75.2z M108.7,64.7c0-0.2-0.3-0.4-0.4-0.3
		c0,0,0.1,0.5,0.1,0.7c0.1-0.1,0.1-0.2,0.1-0.3C108.6,64.7,108.6,64.7,108.7,64.7z M111.9,59.4c0-0.6-0.3-0.3-0.5-0.5
		c0.2,0,0-0.2,0-0.3c0,0.3-0.2,0.4-0.4,0.2c0-0.1,0-0.1,0.1-0.1c-0.1-0.1-0.3-0.4-0.3-0.5c-0.1,0-0.1,0-0.2,0
		c0.1-0.3,0.2-0.5,0.3-0.4c0-0.2-0.1-0.2-0.2-0.1c0.1-0.3-0.1,0.2-0.2,0c0-0.4-0.8,0.3-0.9-0.4c-0.3-0.1-0.1,0.5-0.1,0.6
		c-0.2,0.1-0.3,0-0.2-0.3c-0.1,0-0.1,0.7-0.2,0.8c0,0.1,0.1,0.3,0.2,0.3c0.1,0,0.3-0.1,0.5-0.2c0-0.2,0-0.3-0.1-0.4
		c0.2,0.2,0.1-0.1,0.2-0.1c0,0.5,0.5,0.4,0.4,0.7c0.1,0,0.2-0.1,0.3-0.2c0,0,0.1,0,0.1,0.1c-0.3,0,0.3,0.4,0.5,0.5c0,0,0,0,0,0
		c0.1,0,0.5,0.1,0.6,0.1c-0.1,0-0.1,0.1,0,0C111.7,59.3,111.8,59.3,111.9,59.4z M109.2,63.4C109.3,63.4,109.3,63.4,109.2,63.4
		c0-0.1,0-0.1,0-0.1C109.2,63.3,109.2,63.3,109.2,63.4z M105.7,67.3C105.7,67.3,105.7,67.3,105.7,67.3
		C105.8,67.4,105.7,67.3,105.7,67.3z M112.4,59.2C112.4,59.3,112.4,59.3,112.4,59.2C112.4,59.2,112.4,59.2,112.4,59.2z M112.6,59.3
		C112.5,59.3,112.5,59.3,112.6,59.3C112.5,59.2,112.5,59.3,112.6,59.3C112.5,59.3,112.5,59.3,112.6,59.3z M113,58
		c-0.1-0.2-0.1-0.4-0.2-0.2c-0.2-0.6-0.8-0.2-0.7,0.1c-0.1-0.1-0.2,0-0.3,0.1c0.4-0.2,0.6-0.1,0.4-0.4c0.2,0,0.4,0.2,0.5,0.4
		c-0.1,0-0.5,0.6-0.5,0.6c0,0.1,0.3,0.3,0.3,0.3c-0.4,0.1-0.4-0.3-0.5-0.4c0,0.3-0.1,0.1-0.1,0.3c0.4-0.1,0.4,0.3,0.6,0.4
		c0.2-0.1,0.7-0.6,0.8-0.4c-0.1-0.3-0.2-0.4-0.2-0.1C113.1,58.7,113.1,58.3,113,58C113.1,58,113,58,113,58z M109.8,58.6
		C109.8,58.7,109.8,58.7,109.8,58.6C109.9,58.6,109.9,58.6,109.8,58.6z M98.5,44.3c0,0-0.2,0.2-0.2,0.2c0,0.1,0,0.2,0.1,0.4
		c-0.1-0.1,0-0.2,0.1-0.3c0,0.2,0.2,0.7,0.5,0.1c0.2,0.4,0,0.6,0.2,0.4c-0.2,0.5,0.3,0.5,0.3,0.5c0,0.1-0.1,0.5,0.1,0.4
		c-0.1-0.1-0.1-0.2,0-0.3c0,0.2,0.4,0.2,0.5,0.2c0,0,0-0.1,0.1-0.1c-0.1-0.3-0.3-1.3-0.3-1.4c0.1,0,0.1-0.1,0.2-0.1
		c0-0.1-0.1-0.3-0.2-0.4c0.3-0.2,0-0.4,0.3-0.7c-0.1,0-0.3-0.2-0.4-0.2c0,0.3-0.1,0.8-0.1,0.9c-0.2-0.1-0.5,0.1-0.6,0
		c-0.2-0.2-0.1-0.2,0-0.2c0-0.1-0.1-0.2-0.2-0.2c0,0,0.1,0,0.1,0c-0.1-0.1-0.1-0.2-0.2,0.1C98.8,43.7,98.5,44.1,98.5,44.3z
		 M109.1,58.5C109.1,58.5,109.1,58.5,109.1,58.5C109.1,58.4,109.1,58.4,109.1,58.5C109.1,58.4,109.1,58.4,109.1,58.5z M111.2,58.8
		C111.1,58.7,111.1,58.7,111.2,58.8C111.1,58.8,111.2,58.8,111.2,58.8z M98.1,22.5C98.1,22.5,98.1,22.5,98.1,22.5c0,0,0,0.5,0.1,0.2
		C98.3,22.7,98.2,22.5,98.1,22.5z M98.4,28C98.4,28,98.4,27.9,98.4,28C98.4,27.9,98.4,27.9,98.4,28z M98.3,30.9
		c0.1,0.1,0.1,0.2,0.1,0.2C98.4,31.1,98.4,31,98.3,30.9C98.4,31,98.4,31,98.3,30.9c0.2,0.1,0.2,0.2,0.1,0.3
		C98.7,31.2,98.4,30.7,98.3,30.9z M97.6,36.2c0.1,0,0.1,0,0.1,0c0-0.1,0.1-0.1,0.1-0.2C97.7,36,97.7,36.1,97.6,36.2z M98.1,28.1
		c0,0.2,0.3,0.2,0.3,0.2c0,0,0-0.3,0-0.3C98.1,28,98.3,28.2,98.1,28.1z M99.1,37.5c0-0.1-0.1-0.3-0.1-0.3c-0.1,0-0.2,0.1-0.1,0.3
		c-0.1-0.4-0.5,0.3-0.7,0.6c0.1,0,0.2,0,0.2,0.1c-0.1,0-0.1,0-0.2,0.1c0.1-0.1,0.2,0.2,0.3,0.2c0-0.1,0-0.2,0-0.3
		c0.1,0.2,0,0,0.1,0.3c0.2,0.1,0.3,0.1,0.4,0.1c-0.1,0-0.2,0-0.2,0c0,0.2,0.3,0.2,0.3,0c0,0-0.1,0-0.1,0c0,0,0,0,0.1,0c0,0,0,0,0,0
		c0,0,0,0,0,0c0,0,0-0.1,0-0.2c0.3,0.3,0.1-0.4,0-0.2c0.1-0.2,0.4-0.6,0.6-0.4c0-0.4,0.1,0.3,0.2-0.3c0,0-0.4-0.2-0.5-0.4
		c0,0,0-0.1,0-0.1c0,0,0,0,0,0c0,0,0,0,0,0C99.3,37.2,99.1,37.4,99.1,37.5z M98.2,38.1c-0.1,0-0.1,0-0.2,0
		C98.1,38.2,98.1,38.2,98.2,38.1z M106.4,69.1c0,0-0.1,0-0.2,0C106.3,69.1,106.3,69.1,106.4,69.1z M106.6,35.4c0,0.1-0.1,0.2,0,0.3
		c0.2,0,0.3-0.1,0.3,0.2C107.3,36,107,35.6,106.6,35.4C106.8,35.5,106.7,35.6,106.6,35.4z M99.8,25.8C99.7,25.8,99.7,25.8,99.8,25.8
		c-0.4,0,0.3,0.8,0.2,0c-0.1,0-0.1,0-0.2-0.1C99.8,25.7,99.9,26.3,99.8,25.8z M96.6,38.7c0.1,0,0.1,0.1,0.1,0.2c0,0,0,0,0,0
		c0-0.1,0,0,0,0c0,0,0,0,0,0c0,0,0,0,0,0c0-0.1,0-0.1,0.1-0.2c0.3-0.2,0,0.1,0,0.2c0.3,0,0.2-0.6,0.2-0.6
		C96.4,37.9,96.5,38.3,96.6,38.7z M96.8,38.9C96.8,38.9,96.7,38.8,96.8,38.9c0,0,0,0.1,0.1,0.2C96.8,39,96.8,39,96.8,38.9
		C96.8,38.9,96.8,38.9,96.8,38.9C96.8,38.9,96.8,38.9,96.8,38.9C96.8,38.9,96.8,38.9,96.8,38.9z M97.7,35.4
		C97.7,35.4,97.7,35.4,97.7,35.4C97.7,35.5,97.7,35.5,97.7,35.4z M98.6,35.4c0.1-0.2,0.4-0.1,0.3-0.4c-0.3,0.1,0.1,0.1-0.3,0.2
		c0-0.3,0.2-0.2-0.1-0.3c-0.1,0.1-0.2,0.1-0.3,0.1C98.2,35,98.6,35.4,98.6,35.4C98.5,35.5,98.6,35.5,98.6,35.4c0,0.1,0,0.1,0,0.2
		C98.6,35.6,98.6,35.5,98.6,35.4C98.6,35.5,98.6,35.5,98.6,35.4z M98.6,35.6c-0.1-0.2-0.7,0.1-0.4-0.4c-0.3,0-0.2,0.2-0.1,0.2
		c0,0,0,0-0.1-0.1c0,0.1,0,0.2,0,0.3c0-0.1,0-0.1-0.1-0.1c0,0.2,0,0.3-0.2,0.4c0.2-0.1,0.2-0.3,0.1-0.4c0,0,0,0,0,0
		c-0.1,0.1-0.4,0.6-0.3,0.7c0.1-0.2,0.2-0.2,0.4-0.2c-0.1,0-0.2,0.1-0.1,0.1c0.1-0.1,0.2-0.1,0.3-0.2c-0.1,0.1-0.1,0.2,0,0.3
		c0,0,0.1-0.1,0.1-0.1C98,36.3,98.4,35.9,98.6,35.6z M98.6,35.6C98.6,35.6,98.6,35.6,98.6,35.6C98.6,35.7,98.6,35.7,98.6,35.6
		C98.6,35.7,98.6,35.6,98.6,35.6z M97.9,36.2C97.9,36.2,97.9,36.2,97.9,36.2c-0.1,0-0.1,0-0.2,0c0,0,0,0,0,0
		C97.8,36.2,97.8,36.2,97.9,36.2z M104.3,38.6c0.1,0,0.1,0,0.2,0c0,0,0,0,0,0.1c0.1,0,0.4,0.1,0.5-0.1c0-0.4-0.2-0.1-0.3,0
		c0,0,0-0.1,0,0c-0.1-0.1-0.2-0.3-0.2-0.4C104.3,38.3,104.3,38.5,104.3,38.6z M103.6,38.7c0-0.3,0.3-0.3,0.5-0.2
		c-0.1-0.1,0-0.5,0-0.4c0,0.1,0,0.2-0.1,0.3c-0.3-0.1,0.1-0.4-0.2-0.6c0,0.2,0,0.2,0,0.5c-0.1-0.2-0.2-0.1-0.3,0.1
		c0.1,0.1,0.1,0.2,0.1,0.2c-0.1,0-0.1,0-0.1-0.1C103.4,38.5,103.4,38.7,103.6,38.7z M104.2,38.5c0,0,0,0-0.1,0
		C104.1,38.5,104.1,38.5,104.2,38.5z M103.7,38.2C103.7,38.1,103.6,37.9,103.7,38.2L103.7,38.2z M100.4,27.7c0,0,0.2,0.7,0.2,0.3
		C100.5,28,100.5,27.8,100.4,27.7c0.1,0.1,0.7-0.3,0.5-0.4c0,0-0.3,0-0.4,0C100.5,27.5,100.7,27.8,100.4,27.7z M106.3,36.7
		c0.1-0.1,0.1-0.3,0-0.4c0,0.3,0,0.1-0.1,0c0.1-0.1,0.1-0.2,0.1-0.1C105.7,35.7,106.3,36.9,106.3,36.7z M105,46.4
		c0.3,0,0.1-0.4,0.1-0.4c-0.1,0-0.2-0.1,0,0.2c-0.2,0-0.3,0.1-0.4,0.1C104.8,46.6,104.9,46.2,105,46.4z M105.5,29.9
		c0.1,0.1,0.2,0.3,0.2,0.5c0,0,0,0,0,0.1c0.3-0.3,0.4-0.6,0.3-1.1c-0.3,0-0.2,0.3-0.2,0.3c0,0,0-0.1,0,0
		C105.7,29.7,105.6,29.8,105.5,29.9z M103.1,43.5c-0.1,0.2,1.2,1.4,0.8,1.6c0.1,0.1,0.2,0,0.2-0.1c0,0.1,0,0.2,0.1,0.3
		c-0.1,0-0.3,0-0.4-0.1c0,0.1-0.3,0.2-0.3,0.2c0.3-0.4,0.2-0.2,0.3-0.6c-0.1,0-0.1,0.1,0,0.1c0,0,0-0.1-0.1-0.2
		c-0.3,0.2-0.2,1.4-0.6,1.4c0,0.5-0.2,0.4-0.3,0.2c0,0.1-0.3,0.2-0.3,0.2c0-0.1,0-0.2,0-0.3c0.3,0.1,0,0.1,0.1-0.2c0,0,0,0,0,0
		c-0.1-0.2-0.5-0.6-0.5-0.7c0.4,0.1,0.4-0.6,0.5-0.4c0-0.1,0.3-0.4,0.1-0.1c0.1-0.1,0.1-0.3,0.2-0.4c-0.3,0.1-0.5-0.4-0.6-0.4
		c0,0-0.9-0.2-0.9,0.4c-0.3,0.4-0.9-0.4-0.9-0.5c0.1,0,0.2,0.2,0.2-0.4c0,0,0.3,0.2,0.4,0.3c0-0.1-0.1-0.1-0.1-0.2
		c0.1,0,0.3,0.3,0.3,0.4c0.1-0.5,0.8-0.5,0.6-0.1c0.1-0.1,0.6-0.4,0.8-0.4c-0.2,0.2-0.2,0.4,0,0.6C102.5,43.7,102.8,43.5,103.1,43.5
		C102.9,43.6,103,43.8,103.1,43.5z M101.2,43.8c0,0-0.1,0-0.1-0.2c0,0.1,0,0.2,0.1,0.3C101.2,43.9,101.2,43.9,101.2,43.8z
		 M100.9,36.2C100.7,36.2,101,36.3,100.9,36.2L100.9,36.2z M100.9,36.1c-0.1-0.1-0.2-0.1-0.3-0.2c0,0.1,0.1,0.3,0.1,0.4
		c0,0,0.1,0,0.1,0C100.7,36.4,100.8,36.2,100.9,36.1z M101.2,37.5c0,0.3,0.2,0.5,0.2,0.4c0.2-0.1,0.4-0.1,0.8-0.4
		c0,0.1,0.1,0.3,0.1,0.5c0.1,0,0.2-0.1,0.4-0.1c0-0.4-0.1,0-0.1,0c0-0.3,0-0.2,0.2-0.2c0-0.6-0.5,0.2-0.4-0.2c0-0.1,0-0.4-0.4-0.7
		c0,0.2,0.1,0.3,0.2,0.3c-0.1,0-0.6,0.3-0.7,0.1c0.2-0.2-0.1-0.4-0.2-0.5c-0.1,0.1,0,0,0,0c0,0.1-0.1,0.2-0.1,0.3
		c0-0.2-0.1-0.4-0.2-0.6c-0.1,0.5-0.2,0.3-0.3,0.2c0,0,0,0,0,0c-0.2-0.3-0.2,0.2-0.2,0.5c0-0.1,0.1-0.2,0.1-0.3
		C100.9,37.2,100.8,37.8,101.2,37.5z M100.5,37.2C100.5,37.2,100.5,37.3,100.5,37.2c0,0.1,0,0.1,0,0.1
		C100.6,37.3,100.5,37.3,100.5,37.2z M104.8,63.8c0,0,0-0.1-0.1-0.1C104.7,63.8,104.8,63.8,104.8,63.8z M103.7,44.8
		C103.7,44.9,103.7,44.9,103.7,44.8L103.7,44.8z M100.5,37.3c0,0-0.1-0.1-0.1-0.1C100.3,37.6,100.4,37.5,100.5,37.3z M106.9,32.7
		C106.6,32.9,106.9,32.9,106.9,32.7L106.9,32.7L106.9,32.7C106.8,32.8,106.8,32.8,106.9,32.7z M95.3,52.3
		C95.2,52.4,95.3,52.5,95.3,52.3L95.3,52.3z M90.2,46.4c0,0.5,0.3,0.1,0.2,0C90.4,46.5,90.3,46.5,90.2,46.4
		C90.3,46.4,90.3,46.4,90.2,46.4z M88.9,71.2c0.1,0,0.3-0.1,0.5-0.2c-0.1,0-0.2-0.2-0.4-0.2c0,0.1,0,0.1,0.1,0.1
		C89.2,70.9,88.9,71.2,88.9,71.2z M91.9,28.7c0-0.1,0.1-0.3,0.1-0.4c0,0.1,0,0.2,0-0.1C91.6,27.9,91.6,28.6,91.9,28.7z M91,47.5
		c0,0,0.2-0.4,0.2-0.5c0,0-0.2-0.1-0.2-0.1c0,0,0-0.1,0-0.1c0,0.1,0.1,0.1,0.2,0.1c0-0.1-0.1-0.2-0.1-0.3c0.1,0.2,0.4,0.4,0.4-0.1
		c-0.2,0-0.4,0.2-0.6-0.2c0,0.2-0.1,0.4-0.1,0.5c0.1,0,0.2-0.2,0.3,0c-0.1,0-0.2,0-0.4,0c0,0.4-0.1,0.1-0.4,0.1
		c0,0.1,0.2,0.4,0.1,0.4c-0.4-0.2-0.7,0.1-0.7-0.5c-0.1,0-0.2,0-0.3-0.2c0,0,0,0.6-0.1,0.6c0-0.1-0.3,0.1-0.2,0.4
		c-0.4,0.9,0.8,0.4,1.2,0.7c0-0.1-0.1-0.1-0.1-0.2c0.1,0.1,0.1,0.1,0.1,0c0,0,0,0.1,0,0.1c0.1-0.2,0.4-0.5,0.4-0.7
		C91,47.6,90.8,47.3,91,47.5z M91.9,29.2C91.9,29.2,91.9,29.2,91.9,29.2c0.1-0.1,0-0.1,0-0.1c-0.3,0.3-0.2-0.2-0.3,0.2
		C91.6,29.3,91.7,29.3,91.9,29.2C91.9,29.3,91.9,29.3,91.9,29.2z M92.2,29.4c0-0.1,0.1-0.2,0.1-0.4c-0.2,0-0.2,0.1,0,0.1
		c-0.1,0-0.2,0-0.3,0.1C92,29.3,92.1,29.4,92.2,29.4z M91.8,49.7c-0.1,0-0.1-0.1-0.1-0.2c0.1,0.1,0.2-0.1,0.4-0.3c0,0,0,0,0,0
		c0-0.1,0.1-0.2,0.1-0.2c0-0.3,0-0.8,0-0.8c0.1,0,0.2-0.1,0.3,0.3c-0.3,0.1,0.2,0.3-0.2,0.3c0.1,0,0.1,0.1,0.1,0.1c0,0,0.3,0,0.3,0
		c-0.1-0.2-0.1-0.3,0.2-0.4c0,0.1-0.2,0.2-0.2,0.2c0,0.2,0.4,0.1,0.6,0.1c0-0.1,0-0.1-0.1-0.2c0,0,0.1,0,0.1,0
		c-0.2-0.1-0.1-0.3,0.1-0.4c0,0.1,0,0.1,0,0.2c0.1-0.1,0.1-0.3,0.2-0.4c0.1,0.1,0.1,0.2,0.1,0.3c0.1,0,0.9-0.7,0.9-0.2
		c0,0-0.3-0.2-0.3,0c0.4,0.6,0.5,0.8,0.6,1c0.1,0,0.1,0.2,0.2,0.2c-0.1,0-0.3,0-0.4,0c-0.4,0.6,0.6,0.2,0.6,0.1
		c0,0.4,0.4,0.4,0.1,0.6c0,0.1,0.5-0.1,0.3-0.1c0.1-0.1,0.9,0.2,0.5,0c0-0.1,0.4-0.1,0.5,0.3c-0.1,0-0.1-0.1-0.1-0.1
		c0,0.1-0.1,2.3-0.7,1.4c0,0.2,0.1,0.5,0.1,0.7c0,0,0.1,0,0.1,0c-0.1,0-0.2,0.1-0.1,0.2c0,0-0.6-0.1-0.6-0.2c0,0.2-0.1,0.3-0.3,0.3
		c0-0.5-1,0.2-1.2,0.3c-1,0.7-0.9-0.4-1.6-0.1c0-0.1,0.1-0.4,0.3-0.6c-0.1-0.1-0.2-0.1-0.2-0.3c0,0,0.1,0,0.2,0c0,0,0,0,0,0
		c0,0,0,0,0,0c0.3-0.1,0.8-0.3,0.8-0.6c0.1,0.1,0.4,0,0.2-0.5c-0.1,0-0.3-0.2-0.2-0.2c-0.1,0.1-0.1-0.7-0.2-0.8
		C93,50,92.6,50.3,92.6,50c0.2,0.2,0.2,0.1,0-0.1c0,0.1-0.1,0.3-0.1,0.4c0-0.4-0.9,0.5-0.8-0.6C91.8,49.8,91.6,49.8,91.8,49.7z
		 M94.3,49.1c0.1,0.4,0,0,0.4,0.3C94.6,49.3,94.3,49.1,94.3,49.1C94.3,49.1,94.3,49.2,94.3,49.1z M90.8,47.4
		C90.8,47.6,90.9,47.5,90.8,47.4L90.8,47.4z M88.2,60C88.2,60,88.2,59.9,88.2,60L88.2,60z M88.2,60.2c0.1,0,0.2-0.1,0.2-0.1
		c-0.1-0.1-0.1-0.1-0.2-0.1C88,59.9,88,60,88.2,60.2z M90.5,52.9c0.2-0.3,0.2,0.1,0.4,0.2c0-0.1-0.1-0.4-0.2-0.6c0,0,0,0,0,0
		c-0.6-0.3-0.2-0.5-0.1-0.8c-0.1,0-0.3,0-0.4-0.1c0,0.4,0.1,0.7,0.3,0.9C90.3,52.4,90.2,53,90.5,52.9z M89.3,61.9
		c0.1,0,0.1-0.4,0.1-0.5c-0.1,0-0.2,0.1-0.2,0.3c0,0,0,0,0,0c-0.1,0-0.2-0.1-0.2-0.1c0,0.1,0,0.2,0,0.3c0.1-0.1,0.1-0.2,0.1-0.3
		C89.2,61.9,89.1,61.9,89.3,61.9z M88.5,69.7c-0.1,0-0.2-0.2-0.3,0C88.4,69.8,88.4,69.9,88.5,69.7z M90.6,52.5
		C90.6,52.5,90.7,52.5,90.6,52.5C90.7,52.5,90.7,52.5,90.6,52.5z M89.5,59.9c0,0,0,0-0.1,0.1c0.3,0.2,0.1,0.4,0,0.5
		c0.7,0.2,0.6-0.4,0.7-0.2c0.5-0.2,0.2-0.7,0.4-1c-0.1,0.1-0.2,0.1-0.1-0.1C90.2,59.3,89.7,59.6,89.5,59.9z M90.3,60.8
		c-0.2,0-0.8,0.6-0.7,1c0.7,0,0.8-0.5,1-1c0,0,0,0,0,0c0,0.2,0,0.3-0.2,0.4c0.1,0,0.3-0.2,0.5-0.3c0.1,0,0.2,0,0.1-0.1c0,0,0,0,0,0
		c0.2-0.2,0.5-0.4,0.6-0.3c0-0.2-0.3,0-0.2-0.3c0.1,0,0.3-0.1,0.1-0.4c0,0,0,0-0.1,0c0-0.1-0.2-0.3-0.2-0.4
		c-0.2,0.7-0.2,0.2-0.5,0.3c0.1,0.3,0.2,0.2,0,0.4c0-0.1,0-0.2,0-0.3c0,0.1,0,0.4,0,0c0,0.1,0,0.3-0.1,0.4c0,0,0,0,0,0
		c0,0.1,0,0.2,0,0.2c0.1,0,0.1,0.1,0,0c0,0,0,0-0.1,0c0,0,0,0.1,0,0.1c0,0.1,0.1,0.1,0.1,0.2c-0.1,0-0.1-0.1-0.2-0.1
		C90.4,60.9,90.2,61.2,90.3,60.8z M88.1,82.6c0.1,0,0.2,0,0.2-0.1c0-0.1-0.1-0.2-0.1-0.2C88.1,82.3,88.1,82.4,88.1,82.6
		C88.1,82.6,88.1,82.6,88.1,82.6z M94.1,24.6c0-0.2,0,0.1,0.3,0c0-0.2,0-0.4-0.2-0.4c-0.1,0.1,0.1,0.1,0.1,0.2
		C94.3,24.3,94.3,24.3,94.1,24.6C94.4,24.2,93.7,24.5,94.1,24.6z M92.4,47.4c-0.1,0.1,0,0.4,0.1,0.5C92.6,47.7,92.5,47.4,92.4,47.4z
		 M93.5,24.3c0.4,0,0.2-0.7,0.1-0.4C93.7,24.1,93.7,24.2,93.5,24.3z M92.3,47C92.3,47,92.3,47,92.3,47c0-0.1,0.1,0,0.2,0.2
		c0,0-0.1-0.5,0.1-0.5C92.5,46.6,92.3,47,92.3,47z M94,26.1c-0.1,0.2,0.2,0,0.3-0.1C94.2,26,94.1,26,94,26.1z M93.7,24.9
		c0.1,0,0.1,0.3,0.3,0.3c-0.2,0-0.1,0.4-0.1,0.4c0.1-0.1,0.2-0.2,0.2-0.3c0.3,0.3,0.5-0.2,0.5,0.6c0,0.2-0.1,0.2-0.2,0.1
		c0,0.1,0,0.1,0.1,0.2c-0.2-0.1-0.3-0.1-0.5,0.1c0.3,0.4,0.3,0.6-0.2,0.6c0.1,0.1,0.1,0.1,0.1,0.2c0.2,0,1.1-0.1,1.1-0.2
		c-0.1,0-0.4-0.6-0.3-0.6c0.4,0,0.2-0.5,0.2-0.9c-0.1,0.1-0.1,0.1-0.1,0.1c-0.1-0.2-0.1-0.5-0.3-0.2c0-0.2,0-0.3-0.1-0.3
		c0.1,0.1,0.1,0.2,0,0.2c0.1-0.1-0.1-0.3-0.1-0.3C94.1,24.9,93.9,24.9,93.7,24.9z M94.3,26C94.3,26.1,94.4,26.1,94.3,26
		C94.4,26,94.4,26,94.3,26C94.4,26,94.3,26,94.3,26z M92.6,35.6C92.7,35.4,92.7,35.4,92.6,35.6c0.2-0.2,0.2-0.3,0-0.3
		C92.4,35.3,92.7,35.4,92.6,35.6z M92.9,47.1C93,47.1,93,47.1,92.9,47.1c0-0.1-0.1-0.2-0.1-0.3C92.7,46.9,92.7,47.1,92.9,47.1z
		 M93.1,47.7c0.1-0.1,0.2-0.2,0.2-0.4c-0.1,0.1-0.2,0.1-0.2,0c-0.1,0.3-0.2,0.5-0.5,0.4c0.2,0.1,0.2,0.3,0.2,0.5
		c0.3-0.1,0.2-0.3,0.1-0.3c0-0.2,0.1-0.3,0.3-0.3C93.1,47.6,93.1,47.7,93.1,47.7z M92.8,46.9C92.8,46.9,92.8,46.8,92.8,46.9
		C92.8,46.8,92.8,46.8,92.8,46.9z M92.8,25.1C92.8,25.2,92.8,25.2,92.8,25.1c0.1,0.2,0.2,0.2,0.3,0.3c0,0-0.1-0.2-0.1-0.3
		C93,25.1,92.9,25.1,92.8,25.1z M92.4,24.6c0.1-0.1,0.1-0.3,0-0.4c0,0,0,0.1,0.1,0.2C92.4,24.4,92,24.6,92.4,24.6z M93,25.1
		c0,0,0.1,0,0.1,0C93.1,25,93,25.1,93,25.1z M92.4,24.4C92.4,24.3,92.3,24.5,92.4,24.4L92.4,24.4z M92.9,46.8c0.1,0,0.1,0.1,0.3,0.1
		C93.1,46.8,93,46.8,92.9,46.8z M88.7,83.7c0.1,0,0.3-0.2,0.4-0.1c0.1-0.1,0.2-0.2,0.3-0.2c-0.1,0-0.3,0-0.4,0
		c0-0.2-0.2-0.2-0.3-0.1c0,0,0-0.1,0,0.1c0.1,0,0.1,0.1,0.3,0.1C88.8,83.4,88.7,83.5,88.7,83.7z M88.9,73.9c0,0-0.1,0.1,0,0.2
		C88.9,74.1,89.1,74.1,88.9,73.9z M88.8,75.1C88.8,75.1,88.8,75,88.8,75.1C88.8,75,88.8,75,88.8,75.1z M88.8,74.2
		C88.8,74.2,88.8,74.2,88.8,74.2C88.8,74.2,88.8,74.1,88.8,74.2C88.8,74.1,88.8,74.2,88.8,74.2z M92.3,80.4c0-0.1,0-0.4-0.1-0.3
		c0,0.1,0,0.1,0,0.2c-0.2-0.5-0.1,0.1-0.2,0C92,80.2,92.1,80.3,92.3,80.4C92.2,80.3,92.2,80.4,92.3,80.4z M90.5,80.5
		c0.1,0,0.2,0.1,0.3,0.1c0,0,0-0.1,0.1,0c-0.1-0.2,0.2-0.4,0.1-0.4c0.1,0-0.2,0.1-0.2,0.1c0.1-0.1,0.1-0.2,0.2-0.2
		C90.6,79.9,90.7,80.3,90.5,80.5z M94.5,75.9C94.6,76,94.5,75.8,94.5,75.9L94.5,75.9z M92,75.3C92,75.3,92,75.3,92,75.3
		C92,75.4,92,75.4,92,75.3z M91.5,76c0,0-0.1,0.2-0.1,0.3c0,0.1,0,0.2,0.1,0.3c-0.6,0.7-1.9-0.1-1.7-0.3c-0.1,0.1-0.1,0-0.1,0
		c-0.3,0-1.1-0.1-0.7-0.5c0.4-0.3-0.1-0.4,0-0.8c0.1,0.1,0.2,0.1,0.2,0.1c0,0-0.1-0.6-0.2-1c0.4,0.1,0.3-0.5,0.3-0.7
		c0.2,0,0.3,0.5,0.4,0c0.5,0.4,0.3,0.2,0.1,0.2c0.1,0,0.2,0.1,0.2,0.3c0-0.1-0.1-0.1-0.2-0.1c0.2,0.4,0.7,0.8,0.7,1.3
		c0.1-0.1,1-1.1,1-1.3c0.2,0.2,0.1,0.1,0.1,0c0.1-0.3,0.5,0.1,0.6,0.1c0,0-0.2-0.3-0.2-0.3c0-0.1,0-0.2,0-0.1c0-0.2,0.4,0.3,0.5,0.3
		c-0.1,0.1-0.7,0.8-0.7,0.4c0,0.1,0,0.2,0,0.3c0.2,0-0.2,0.3,0,0.7c0.1-0.2,0.2-0.3,0.3-0.3c0,0,0,0.2,0,0.2
		c-0.1,0.2-0.1,0.9-0.3,0.5C91.7,75.8,91.3,76.4,91.5,76z M89.6,74.6c0,0,0,0.1,0,0.1C89.6,74.7,89.6,74.7,89.6,74.6z M90.6,81.4
		C90.7,81.4,90.6,81.1,90.6,81.4L90.6,81.4z M95.7,71.5c-0.1-0.2-0.3-0.1-0.3-0.4c-0.1,0-0.3,0-0.5,0c0,0,0.1,0.1,0.1,0.1
		c-0.1-0.1-0.2-0.1-0.3-0.1c0,0,0,0-0.1,0c0,0,0,0,0,0c-0.2-0.1-0.4-0.2-0.4-0.5c0,0.1-0.2,0.3-0.2,0.3c-0.1-0.2-0.9-0.2-1-0.2
		c0.1-0.2,0.4-0.5,0.5-0.7c0-0.1,0,0-0.1-0.2c0,0,0.1,0,0.1-0.1c0,0.1-0.2-0.2-0.2-0.2c-0.1-0.3,0.7-0.5,0.7-0.8
		c0.4-0.1-0.1,0.2,0.3,0.3c0.1-0.4,0.5,0.3,0.3,0.4c0.3-0.1,0.5-0.1,0.6,0.2c-0.4-0.1,0,0.1,0,0.2c0-0.1,0-0.2,0.1-0.2
		c0,0.1,0,0.1,0.1,0.2c-0.1,0.1-0.1,0.8,0.1,0.9c0-0.1,0-0.2,0-0.3C95.8,70.6,95.7,71.1,95.7,71.5z M94.4,69.5
		C94.4,69.5,94.4,69.5,94.4,69.5L94.4,69.5z M94.4,69.2c0,0,0,0.1,0,0.2c-0.1,0-0.1,0.1,0,0.1c0,0,0-0.1,0-0.1
		C94.5,69.3,94.6,69.2,94.4,69.2z M93.9,76.8C93.8,76.8,93.8,76.8,93.9,76.8C94,76.8,93.9,76.8,93.9,76.8z M94.6,76.1
		c-0.1,0.1-0.2,0.1-0.3,0.2C94.8,76.6,94.7,76.3,94.6,76.1z M93.5,69.8C93.5,69.8,93.5,69.8,93.5,69.8
		C93.3,69.8,93.4,69.9,93.5,69.8z M94,76.4C94,76.4,94,76.4,94,76.4C94,76.2,93.9,76.3,94,76.4z M94.5,75.9c0,0,0.1,0.1,0.1,0.1
		C94.6,76,94.6,76,94.5,75.9z M94.3,76.2C94.2,76.2,94.2,76.2,94.3,76.2C94,76.3,94.1,76.3,94.3,76.2z M94.5,77c0-0.2,0-0.3-0.1-0.3
		c0,0.1,0,0.1,0.1,0.1c-0.1,0-0.4-0.3-0.5-0.4c0,0,0,0,0.1,0c0,0,0,0,0,0c-0.1-0.1-0.2-0.2-0.3-0.3c0,0.2,0.2,0.5,0,0.7
		c0.1,0,0.1,0,0.2,0c0-0.1-0.1-0.2,0.1-0.3c0,0.1,0.3,0.3,0.5,0.6C94.3,76.6,94.4,77,94.5,77z M87.3,62.1
		C87.3,62.1,87.2,62.1,87.3,62.1C87.2,62.1,87.3,62.1,87.3,62.1C87.3,62.1,87.3,62.1,87.3,62.1z M87.5,82c0-0.4-0.1-0.3-0.1-0.2
		c-0.3,0,0,0.3-0.3,0.5c0.1-0.1,0.2,0,0.2,0.1C87.4,82.3,87.2,81.8,87.5,82z M88.1,69.4c0,0.1,0,0.2,0,0.2c0,0.1,0.1,0.1,0.1,0.1
		c0,0,0.1,0,0.3,0c0-0.3-0.1-0.1-0.1-0.3C88.2,69.3,88.4,69.4,88.1,69.4z M88.4,82.9c-0.1-0.3-0.2-0.3-0.2-0.1
		C88.2,83,88.3,83,88.4,82.9C88.3,82.9,88.3,82.8,88.4,82.9C88.4,82.9,88.4,83,88.4,82.9z M88,68.7C88,68.7,88,68.7,88,68.7
		C88,68.8,88,68.8,88,68.7C88,68.9,88.1,68.9,88,68.7z M88.1,68.5c-0.1-0.2-0.3,0.1-0.4,0c0,0.2,0.1,0.2,0.1,0.3c-0.4,0,0,0.4,0,0.3
		c-0.2,0-0.2-0.1-0.1-0.2c0,0.3,0.1,0,0.2,0c0-0.1,0-0.1,0-0.1C88.1,68.7,88.1,68.7,88.1,68.5z M87.2,64c0,0,0,0,0-0.2
		c0.2-0.2,0.3-0.4,0.1-0.6c0,0-0.3,0.6-0.3,0.6C86.9,64.2,87.1,64.1,87.2,64z M87.3,62.4C87.3,62.4,87.3,62.4,87.3,62.4
		C87.4,62.3,87.4,62.3,87.3,62.4C87.3,62.3,87.3,62.3,87.3,62.4C87.3,62.3,87.3,62.3,87.3,62.4c-0.1-0.1-0.1-0.3-0.1-0.3
		c0,0,0,0,0.1-0.1c0,0,0,0,0,0c-0.4,0-0.3,0.5-0.3,0.5C86.9,62.6,87.2,62.5,87.3,62.4z M87.2,63.8C87.2,63.9,87.4,63.8,87.2,63.8
		L87.2,63.8z M90.2,64.1C90.3,64.1,90.3,64.1,90.2,64.1C90.2,64,90.2,64.1,90.2,64.1z M91.2,63.7C91.2,63.7,91.2,63.7,91.2,63.7
		C91.2,63.8,91.2,63.8,91.2,63.7z M88.5,67.2C88.5,67.2,88.5,67.2,88.5,67.2C88.5,67.2,88.5,67.1,88.5,67.2
		C88.5,67.1,88.5,67.1,88.5,67.2z M96.1,42.4c0-0.1,0.2,0.3,0.3,0.3c0-0.3,0-0.5-0.2-0.6c0.1,0.1,0,0.1,0,0.1
		C96.2,42.5,96.1,42.1,96.1,42.4z M89.1,65.7C89.1,65.4,88.9,65.8,89.1,65.7L89.1,65.7z M88.6,67C88.6,67,88.6,67,88.6,67
		C88.5,67,88.5,67,88.6,67c0-0.1-0.1-0.1,0-0.2C88.5,66.9,88.5,66.9,88.6,67c-0.1,0-0.2,0-0.1,0.1c-0.2-0.2-0.1-0.5-0.1-0.7
		c-0.1,0-0.2,0-0.3,0.1c0.1,0,0.1-0.1,0-0.2c-0.1,0.2-0.2,0.2-0.3,0.1c0.1-0.3,0-0.2,0.1-0.5c0.2,0,0.3-0.5,0.6-0.5
		c0,0.1-0.1,0.2-0.1,0.3c0-0.1,0.2,0,0.3,0c-0.1-0.1-0.2-0.2-0.1-0.3c0.1,0.2,0.3,0.3,0.6,0.3c0-0.2,0-0.4,0-0.6
		c0,0-0.1,0.1-0.2,0.1c0-0.5,0.3-0.9,0.5-0.7c0-0.1,0.1-0.2,0.1-0.2c-0.3,0.5-0.3-0.4-0.4-0.5c0.1-0.2,0.2,0,0.2,0.1
		c0.3-0.1-0.1-0.2-0.1-0.2c0.2-0.2,0.2,0.2,0.5,0.2c0,0-0.5-0.3-0.3-0.3c0.3,0,0.1,0.2,0.3,0.2c0.3-0.4-0.1-0.1,0.3-0.4
		c0,0,0.2-1,0.4-0.5c0,0.1-0.1,0.1-0.1,0c0.1,0.5,0.7-0.5,0.8,0c0.1,0,0.6-1.1,0.9-1c0,0.3-0.1,0.8,0.3,0.7c0,0.1-0.1,0.2-0.2,0.3
		c0,0-0.3-0.1-0.5,0.1c0.1,0.1,0.5,0.8-0.1,0.8c0-0.1,0-0.1,0-0.2c-0.1,0-0.3,0,0-0.2c-0.2-0.4-0.3,0.1-0.2,0.3c0,0,0,0-0.1,0
		c-0.2,0.1,0,0.1,0.1,0.1c0,0,0,0,0,0c-0.8,0.3-0.1,0.5-0.3,1.4c-0.3,0-0.4,0.1-0.6,0.1c0,0.1,0,0.2,0,0.2c-0.1-0.1-0.1-0.2-0.2-0.2
		c0,0.3,0.3,0.2-0.2,0.3c0-0.1,0.2-0.4-0.4-0.3c0.1,0.5-0.1,0.4,0.1,0.9c0.1-0.1,0.6-0.5,0.7-0.5c0,0.2-0.4,0.7-0.4,0.3
		c-0.1,0.1-0.1,0.7,0,0.2c0,0-0.3,0.9-0.6,0.8c0.1,0.1,0.1,0.1,0.2,0.1C89.3,67.3,88.7,67.3,88.6,67z M90.2,64.1
		c0,0.1,0.2,0.4,0.1,0C90.2,63.6,90.1,64.5,90.2,64.1z M90.3,64C90.2,64.1,90.4,64.1,90.3,64L90.3,64z M90.5,81.4
		c0.2,0,0.2-0.1,0.2-0.2C90.7,81.3,90.7,81.4,90.5,81.4c0.2-0.5-0.2,0.2,0-0.2C90.4,81.3,90.4,81.3,90.5,81.4z M89.8,46.7
		c0-0.1,0-0.1,0-0.2c0.1,0.1,0.2,0.1,0.3-0.1c0-0.1-0.2-0.2-0.2,0c0.1,0,0.1,0,0.1,0.1c-0.2,0-0.3,0-0.5,0
		C89.7,46.6,89.8,46.7,89.8,46.7z M91,50.5c0.1-0.1,0.2-0.2,0.2-0.4c0,0.2,0,0.3,0.1,0.3c0.1-0.4,0-0.6-0.3-0.7c0,0,0.2-0.2,0.2-0.1
		c-0.2,0-0.3,0.1-0.2,0.3c0-0.1-0.1-0.1,0,0c-0.1-0.1-0.1-0.1-0.1,0C91.4,49.8,90.9,50.4,91,50.5z M91.5,52.7
		c-0.2-0.1-0.2,0.4,0,0.4c0,0,0.5-0.7,0-0.7C91.4,52.5,91.4,52.6,91.5,52.7z M91.6,58.9c0,0.2,0.5,0.3,0.5-0.2
		C92.2,58.7,91.5,58.9,91.6,58.9z M91.8,51.4C91.8,51.9,91.8,51.3,91.8,51.4c-0.1,0.4,0.3,0.4,0.3,0.4c-0.1,0-0.1,0.1-0.1,0.2
		c0.2,0,0.2,0,0.3,0C92.2,51,92.2,51.7,91.8,51.4z M90.8,50.7c0,0.1-0.1,1.1-0.1,1.1c0,0,0,0,0,0c0.3,0.2,0.2,0.6,0.5,0.1
		c0.1,0.1,0.1,0.2-0.1,0.3c0.5,0-0.2-0.9,0.2-0.9c-0.1,0.2-0.1,0.2,0.1,0.2c0,0,0.2-0.3,0.2-0.5c-0.1,0-0.1,0.1-0.2,0.2
		c-0.1-0.3,0.2-0.2,0.2-0.4c0-0.2-0.2,0.3-0.2-0.2C91,50.7,91.1,51.2,90.8,50.7z M91.5,61.7C91.5,61.6,91,62.1,91.5,61.7L91.5,61.7z
		 M91,52.5C91,52.6,91,52.6,91,52.5c-0.1,0.2,0.1,0.7,0.2,0.2C91.1,52.7,91.1,52.6,91,52.5z M92.9,69.1c0,0.1-0.1,0.4-0.1,0.5
		c0.1,0,0.2,0,0.3,0c0.1-0.6,0,0.3,0.2-0.2c-0.1,0-0.1-0.2-0.2-0.3c0,0,0.1-0.1,0.1-0.1c-0.1,0-0.5-0.2-0.1-0.2
		c0-0.2-0.1-0.3-0.3-0.2c0,0-0.1,0.2-0.2,0.2C92.6,69.3,92.7,68.9,92.9,69.1c-0.2-0.2-0.2-0.3-0.1-0.4C92.8,68.7,92.8,69,92.9,69.1z
		 M95,23.2c0,0.2-0.1,0.2-0.2,0.1C94.8,23.8,95.4,23.2,95,23.2z M96.3,54.2C96.3,54.3,96.4,54.4,96.3,54.2c0.2,0.1-0.3-0.2-0.3-0.3
		c0,0.2-0.1,0.2-0.1,0.2c0,0,0.1,0.1,0.1,0.1C96.1,53.7,96.1,54.3,96.3,54.2z M93.3,35.5c0.1,0.1,0.1,0.1,0.2,0.2
		c0.1-0.1,0.1-0.2,0-0.3c0-0.1,0-0.1,0-0.2C93.4,35.3,93.3,35.4,93.3,35.5z M96.3,54.8c0.2-0.1,0.2-0.2,0-0.2
		C96,54.6,96.2,54.7,96.3,54.8C96.2,54.7,96.3,54.8,96.3,54.8z M91.6,61.4c0,0-0.2,0.1-0.3,0.1c0,0.1,0.1,0.1,0.2,0.2
		c-0.1,0.1-0.1,0.2-0.2,0.2C91.5,61.8,91.6,61.7,91.6,61.4z M94.3,58.1c-0.2,0.4-0.8-0.2-0.8-0.5c0.1,0.1,0.2,0.1,0.2,0
		c0,0,0,0,0-0.1c0,0,0,0,0,0.1c0-0.2,0.2-0.6,0.2-0.7C94,56.9,94,57,94,57.2c0.1-0.2,0.2-0.1,0.5,0.1c0.1-0.2,0.1-0.4-0.1-0.6
		c0.1,0,0.4,0.1,0.5,0.1c0,0,0,0-0.1,0c0.1-0.1,0.4,0.3,0,0.3c0.1,0.5,0.5-0.5,0.3,0.6C95.9,57.7,94.5,58.7,94.3,58.1z M94.9,57.6
		C94.9,57.7,94.8,57.7,94.9,57.6C94.8,57.9,95,57.6,94.9,57.6z M94,56.8c-0.1-0.4-0.4,0.3-0.3,0.2C93.8,56.8,93.9,56.7,94,56.8z
		 M92.7,69.6C92.7,69.6,92.7,69.6,92.7,69.6C92.7,69.7,92.7,69.7,92.7,69.6z M94.7,68.9c0.3-0.2,0.2,0.6,0.4,0.2
		C95.3,68.6,94.2,68.4,94.7,68.9z M90.8,73C90.8,73,90.9,73,90.8,73C90.9,72.9,90.9,72.8,90.8,73z M91.2,68.8c0,0,0,0,0-0.1
		C91.2,68.7,91.2,68.8,91.2,68.8z M95.2,44C95.2,44,95.1,44,95.2,44c-0.1,0,0.3,0.3,0.3,0C95.5,44,95.2,43.9,95.2,44z M90.3,73.5
		C90.2,73.6,90.2,73.8,90.3,73.5L90.3,73.5z M91.2,69.4c0-0.2-0.1-0.4-0.1-0.6c0,0.1-0.1-0.1,0,0.3C91.1,69,91,69.1,91,69.2
		c0-0.1-0.1-0.2-0.1-0.1C90.9,69.3,91,69.4,91.2,69.4C91.1,69.4,91.2,69.2,91.2,69.4z M90.1,73c0,0.2-0.1,0.6-0.1,0.6
		c0.1-0.1,0.2-0.1,0.3-0.1c0,0,0,0.1,0,0.1c0,0,0.1,0,0.1,0c0.1,0.1,0.1,0.2-0.1,0.2c0.1-0.1,0.2,0,0.1,0.1c0-0.2,0.3-0.3,0.3-0.6
		c0.3,0.2,0.1,0,0-0.1c0,0,0-0.1,0,0c0-0.1,0-0.1,0-0.1C90.6,72.9,90,73,90.1,73z M90.9,73c0,0.1,0,0.2,0,0.2
		C90.9,73.1,90.9,73.1,90.9,73z M90.2,70.7c0,0.1-0.1,0.2-0.1,0.3C90.2,70.7,90.4,71.2,90.2,70.7c0.3,0,0.5,0,0.7,0
		c0-0.5-0.6-0.4-0.6-0.5c0,0,0.1,0,0.2-0.1c0.4-0.5-1.2-0.1-1-0.2c0,0.1,0.6-0.6,0.4-0.7c0.1,0-1.3,0.2-0.8,0.4
		c-0.8-0.1-0.3,1,0,0.8c0,0.2,0.2,0.5,0.4,0.4c0,0,0,0,0,0c0.1,0,0.2-0.1,0.2,0c-0.1,0-0.1,0-0.1,0.1c0.1-0.1,0.3-0.2,0.4-0.3
		C90.1,70.8,89.8,71.4,90.2,70.7z M90.2,70.8C90.3,70.9,90.4,70.8,90.2,70.8L90.2,70.8z M89.5,56.7c0.3,0.4,0.4-0.2,0.4-0.3
		c0,0-0.1,0.1,0,0C89.7,56.6,89.2,56.8,89.5,56.7z M90.5,62.3c0.1-0.1,0.2,0,0.1,0.1c0.1,0,0.2-0.1,0.2-0.1c0,0,0,0,0,0
		c0-0.1,0,0,0,0c0,0,0,0,0,0c0,0,0-0.1,0.1-0.2C90.9,61.8,90.5,62.2,90.5,62.3z M91.9,67.9c-0.1-0.2-0.2-0.2-0.4,0
		c0.1,0.2,0.2,0.1,0.2,0c0,0,0,0,0,0c0,0,0,0,0,0.1C91.8,67.9,91.8,67.9,91.9,67.9z M91,62c0.1-0.1,0.2-0.2,0.3-0.2
		C91,61.7,91,62,91,62z M90.9,62.1C90.9,62.1,91,62.1,90.9,62.1C91,62,90.9,62.1,90.9,62.1C90.9,62.1,90.9,62.1,90.9,62.1z
		 M91.4,61.6c-0.2-0.2-0.3,0-0.2,0.2C91.3,61.7,91.4,61.7,91.4,61.6z M91.8,67.9C91.8,68,91.8,68.1,91.8,67.9L91.8,67.9z M91.2,61.8
		C91.2,61.8,91.2,61.8,91.2,61.8C91.2,61.8,91.2,61.8,91.2,61.8C91.2,61.8,91.2,61.8,91.2,61.8z M93.3,36.3c0,0,0.4-0.3,0.4-0.3
		c-0.2,0.1-0.2,0.2,0,0.2c0-0.1-0.1-0.7-0.1-0.5c0.1,0.2,0.1,0.3-0.1,0.2C93.6,36.3,93.4,36.2,93.3,36.3z M96,47.3
		C96.1,47.7,96,47.4,96,47.3L96,47.3z M96.6,30.5c-0.3-0.1,0.2,0,0.1,0c0.3-0.5-0.1-0.2-0.1-0.3c0.1-0.1,0.2-0.2,0.3-0.3
		c0,0.1-0.1,0.2-0.2,0.3c0.2,0,0.4,0,0.3-0.4c-0.2,0-0.3,0.4-0.3,0c-0.1,0.1-0.1,0.1-0.1,0.1C95.8,30.3,96.5,30.8,96.6,30.5z
		 M95.7,43.7C95.7,43.7,95.7,43.7,95.7,43.7C95.7,43.7,95.7,43.7,95.7,43.7z M96.4,37.7c0-0.2-0.1-0.2-0.1-0.1c0.1,0,0.2,0.4,0.3,0
		C96.5,37.7,96.5,37.7,96.4,37.7z M95.8,43.5c0,0.1-0.1,0.1-0.1,0.2c0.2-0.1,0.3,0.1,0.4,0.3c0,0,0,0,0,0c0.1,0.1,0.1,0.1,0.3,0
		c-0.1,0-0.2-0.1-0.2-0.1c0.4,0-0.1-0.7-0.1-0.7c-0.1,0-0.2,0.1-0.3,0.1C95.8,43.4,95.8,43.4,95.8,43.5z M95.5,45.1
		c-0.2,0.1-0.4,0.4-0.4,0.2c0.2,0,0.1,0.1,0.1-0.1c-0.3,0.1-0.1,0.7,0.1,0.3c0,0.1-0.1,0.3-0.2,0.4c0,0,1,0.1,0.9,0.1
		c-0.1,0.2,0.4,0.2,0.5,0.1c-0.1,0.3-0.1,0.3,0.1,0.4c0-0.4-0.1-0.4,0-0.3c0.1-0.9,0,0-0.2-0.3c0.1-0.2,0.1-0.2,0.1,0
		c0-0.5-0.8-0.6-0.8-0.7c0.4-0.2,0-0.1-0.4-0.3C95.4,45,95.4,45,95.5,45.1z M95.9,29.1c0-0.1,0-0.3,0-0.4
		C95.6,28.7,95.6,28.9,95.9,29.1z M96.4,46.2C96.4,46.2,96.4,46.4,96.4,46.2L96.4,46.2z M96.4,37.7C96.5,37.7,96.4,37.6,96.4,37.7
		L96.4,37.7z M96.4,27.3c0,0.2,0.2,0.6,0.1,0.7c0,0,0.1,0,0.1,0c0-0.1,0.2-0.2,0.2-0.3c0,0,0,0,0.1,0c0-0.1,0.1-0.2,0.1-0.3
		c-0.1-0.3-0.2,0.1-0.2-0.2c-0.1,0-0.1,0,0,0c-0.2,0.1-0.2,0.2-0.1,0.3c0,0,0,0,0,0c0,0.1,0.1,0.2,0,0.2
		C96.4,27.5,96.6,27.3,96.4,27.3z M96.6,28C96.6,28,96.6,28,96.6,28C96.5,28,96.5,28,96.6,28z M96.2,42.1
		C96.2,42.1,96.2,42.1,96.2,42.1C96.2,42.1,96.2,42.1,96.2,42.1C96.2,42.1,96.2,42.1,96.2,42.1z M97,37.7c-0.1-0.2,0-0.2-0.1-0.4
		c-0.1,0.2,0.2,0.2,0,0.3c-0.1-0.9-0.7-0.1-0.2,0c0,0.1,0.2,0.4,0,0.5c0.2,0.1,0.1-0.3,0.1-0.5C96.9,37.7,97,37.7,97,37.7z
		 M96.8,43.4c-0.9-0.2,0,0.9-0.1,0.8c-0.1,0.2-0.2,0.2-0.3,0c-0.2,0.3,0.2,0.2,0.3,0.1c0,0.1,0,0.3,0,0.4c0.3-0.1,0.3,0,0.3-0.4
		c-0.1-0.1-0.2-0.1-0.2,0.1c0-0.2,0-0.5,0-0.7c0,0.1,0.1,0.1,0.2,0.1c0-0.2,0-0.3-0.2-0.3c0,0.1,0.1,0.1,0.1,0.2
		c-0.3,0-0.1-0.3-0.3-0.1C96.6,43.6,96.8,43.4,96.8,43.4z M97.4,28.6c-0.2,0-0.3-0.5-0.6-0.1c0,0,0-0.3,0-0.3c-0.1,0-0.2,0-0.3,0
		c0,0.1,0,0.6-0.1,0.8c0,0,0,0,0,0.1c0-0.1-0.1,0.2,0.1,0c-0.1,0.4,0.3,0.2,0.5,0.1c0-0.3-0.4-0.4-0.5-0.6c0.1,0,0.3,0,0.4,0
		C96.6,28.7,97.3,28.7,97.4,28.6z M96.7,37.6C96.6,37.6,96.7,37.7,96.7,37.6L96.7,37.6z M94.5,29.7c0.1-0.1,0.2-0.1,0.2-0.3
		c0,0.1,0.1,0.1,0.2,0.1c0.2-0.3-0.3-0.4-0.3-0.3c0.1,0,0.1,0.2,0,0.2c-0.1,0.1-0.3,0.1-0.4,0C94.1,29.8,94.6,29.6,94.5,29.7z
		 M96.2,48.5c-0.1-0.1-0.2-0.1-0.3-0.1C96,48.6,96.1,48.7,96.2,48.5z M94.5,28.7c-0.1,0.1-0.1,0.2-0.2,0.3c1.1-0.5,0.1-0.2,0.3-0.5
		c-0.1,0-0.1,0.1-0.2,0.2c0-0.1,0.3-0.6,0.1-0.6c0,0-0.1,0-0.1,0.1c0.3,0.2,0.1,0.4,0,0.3c0,0.1,0,0.2,0,0.3
		C94.3,28.7,94.4,28.7,94.5,28.7z M94.5,29.4C94.4,29.2,94.4,29.3,94.5,29.4L94.5,29.4z M94.9,27.5c0-0.1-0.1-0.2-0.1-0.3
		c0,0,0,0,0,0c-0.2,0.3,0.2,0-0.1,0.2C94.6,27.3,94.8,27.4,94.9,27.5z M95,43.9c-0.1-0.3-0.1-0.3-0.2,0C94.7,44.1,94.8,44.1,95,43.9
		z M95.9,48.4C96,48.4,96,48.2,95.9,48.4L95.9,48.4z M94.3,43.8C94.3,43.8,94.3,43.8,94.3,43.8C94.3,43.8,94.3,43.8,94.3,43.8z
		 M94.5,43.9c-0.2-0.2-0.2-0.1-0.2-0.1C94.3,43.9,94.5,44.2,94.5,43.9z M93.6,28.7C93.6,28.7,93.6,28.8,93.6,28.7
		c0-0.3,0.1-0.1,0.1-0.4C93.5,28.4,93.5,28.5,93.6,28.7z M96.2,48.3c-0.1-0.2-0.1-0.4-0.2-0.6c0,0.2-0.1,0.4-0.1,0.6
		C96,48.3,96.1,48.3,96.2,48.3z M96,47.3c0.1,0.2,0,0-0.1-0.2c0,0,0,0,0,0.1c0,0,0-0.1,0-0.1c-0.1-0.2-0.5-0.1-0.6,0
		c0-0.1-0.2,0-0.1-0.2c0,0.3,0.2-0.1,0.2-0.1c-0.2,0-0.9-0.1-1,0.1c0.1,0.1,0.2,0.1,0.2,0c0,0.2,0,0.3,0.1,0.5
		c0-0.1,0.1-0.1,0.2-0.1c0-0.1,0-0.2-0.1-0.3c0.2,0,0.3,0.6,0.4,0.6c-0.1,0-0.1,0.1-0.2,0.1c0.2,0,0,0.1,0,0.3
		c0.2-0.5,0.9-0.2,1,0.2c0-0.2,0-0.4,0.1-0.5C96,47.6,96,47.4,96,47.3z M96,47.7L96,47.7C96,47.7,96,47.7,96,47.7L96,47.7z
		 M94.4,42.7c0.1,0,0.1,0.1,0.2,0c0-0.2-0.3-0.2-0.4-0.5c-0.1,0,0,0.3-0.2,0.4c0-0.1-0.1-0.2-0.1-0.3c0,0.1,0,0.1-0.1,0.1
		c0,0,0,0,0,0c-0.2,0.1-0.4,0.3-0.3,0.4c0.1-0.1,0.5-0.1,0.6,0.3c0,0.1,0,0.2-0.1,0.3C94.3,43.2,94.3,43.2,94.4,42.7z M93.5,41.5
		c0,0,0.1,0.3,0.1,0.3c0.1-0.1,0.2-0.2,0.2-0.4c0,0-0.1,0-0.1,0c0,0,0,0,0,0C93.7,41.3,93.5,41.4,93.5,41.5z M96,42.3
		c0.1,0,0.2,0,0.2-0.2c0,0,0-0.1,0-0.1C96,42,95.9,42.1,96,42.3z M93.8,27.1c-0.1,0,0.3-0.5-0.1-0.1C93.8,26.9,93.5,27,93.8,27.1z
		 M87.7,59.7c0.1-0.1,0.2-0.3,0.3-0.4c-0.3,0,0,0.1-0.2,0.2c-0.1-0.2-0.2-0.6-0.2-0.2c0,0-0.1,0-0.1,0c0-0.2-0.2-0.1,0,0
		c0,0,0,0,0,0.1c-0.1-0.2-0.3,0.2-0.3,0.3C87.3,59.5,87.5,59.5,87.7,59.7c-0.2-0.5-0.1,0.1-0.3-0.3C88.2,59.5,87.4,59.7,87.7,59.7z
		 M113,77.7c-0.1,0,0.2,0.3,0.3,0.4c-0.1,0-0.1,0,0,0.2c0.2,0,0.1-0.4,0.1-0.5c0.1-0.1,0.1-0.1,0.1,0.1c0-0.4,0-0.1-0.2,0
		c0,0,0-0.1,0-0.2c0,0,0,0,0,0c0.1-0.1,0.1-0.2,0.1-0.2c0.1-0.2-0.4,0.3-0.4,0.3c0.1,0,0.2,0.1,0.1,0.2
		C113.2,77.8,113.2,77.6,113,77.7z M114.2,81C114.1,81,114.1,81,114.2,81C114.1,81,114.1,81,114.2,81C114.1,81,114.1,81,114.2,81z
		 M114.2,81c0.1-0.1,0.1-0.1,0.1-0.1C114.2,80.9,114.2,80.9,114.2,81z M112.9,80.8c-0.2-0.2-0.1-0.3,0.1-0.4c0,0.2,0,0.3,0.1,0.3
		C113.1,80.7,113,80.8,112.9,80.8c0.2,0.2,0.1,0.7,0.4,0.4c-0.1-0.1-0.2-0.1-0.2,0c0,0,0.1-0.1,0.2-0.3c0,0.2,0,0.3,0.2,0.3
		c0-0.2,0.2-0.3,0.4-0.5c0,0.1,0.1,0.4,0.2,0.5c0,0,0.1,0,0.1,0c0,0,0-0.1-0.1-0.1c0,0,0,0,0.1,0c0-0.3,0.3-1-0.2-1
		c0.2,0-0.2,0.4-0.2,0c0,0.5-0.2,0.1-0.1-0.1c0-0.1-0.9,0.7-0.9,0.6C112.7,80.7,112.8,80.8,112.9,80.8z M113,80.8
		C113,80.8,113,80.8,113,80.8C113,80.8,113,80.8,113,80.8z M112.6,77.7C112.6,78,112.5,77.6,112.6,77.7
		C112.2,78,112.7,77.8,112.6,77.7C112.7,77.7,112.6,77.7,112.6,77.7z M114.2,81.2c0.1,0,0.1,0,0.2,0
		C114.3,81.2,114.2,81.1,114.2,81.2C114.2,81.1,114.2,81.2,114.2,81.2z M114.3,81.1C114.3,81.1,114.3,81.1,114.3,81.1
		c0,0,0.1,0.1,0.1,0.1C114.4,81.1,114.3,81.1,114.3,81.1z M112.1,79c-0.1,0,0,0,0.2,0.1C112.2,78.9,112.1,78.8,112.1,79z
		 M112.2,79.1c0.1,0,0.1,0,0.2,0C112.3,79.1,112.3,79.1,112.2,79.1C112.3,79.1,112.3,79.1,112.2,79.1z M112.2,77.8
		C112.4,77.9,111.9,77.6,112.2,77.8L112.2,77.8z M111.9,79.9C111.9,79.9,111.9,79.9,111.9,79.9C111.9,79.9,111.9,79.9,111.9,79.9
		C111.9,79.9,111.9,79.9,111.9,79.9z M112.2,76.9c0.1,0.1,0.1,0.2,0.2,0.3c0.1,0,0.2,0,0.2,0C112.5,77,112.4,76.9,112.2,76.9z
		 M111.7,77.2c0,0.1-0.1,0.2-0.1,0.3c0,0,0,0.1,0,0.1c-0.2,0-0.2,0-0.2,0.1c0.1,0.3,0.3,0.5,0.2,0.7c0.2,0.1,0.1,0.4,0.3,0.4
		c0-0.2-0.2-1.4-0.2-1.4c0,0,0,0,0.1,0C111.8,77.4,111.7,77.3,111.7,77.2z M112.4,77.2C112.4,77.2,112.4,77.2,112.4,77.2
		C112.4,77.2,112.4,77.1,112.4,77.2C112.3,77.3,112.4,77.2,112.4,77.2z M112.2,77.8c0,0,0.5,1.2,0.5,1.2c-0.1-0.1-0.2-0.1-0.2,0
		c0.1,0,0.1,0,0.1,0.1c0,0-0.1,0-0.3-0.1c0,0,0,0,0.1,0c0,0.1-0.3-0.5-0.4-0.9c0,0.1,0.1,0,0-0.1c0,0,0,0,0,0
		C111.9,77.9,112,77.7,112.2,77.8z M112.2,78.2c0,0,0.1,0,0.1,0.1c0-0.1,0-0.2-0.1-0.3C112.2,78.1,112.2,78.2,112.2,78.2z
		 M112.9,77.3c0-0.3-0.3,0.1-0.3,0.1c0-0.3-0.1-0.2-0.2-0.2c0.1,0.1,0.1,0.1,0.4,0.5C112.9,77.6,112.9,77.5,112.9,77.3z M110.7,77.5
		c0,0.1,0.1,0.2,0.2,0.2C110.9,77.5,110.9,77.4,110.7,77.5C110.7,77.5,110.7,77.5,110.7,77.5z M118.1,72c0,0.1,0,0.1,0,0.2
		C118.2,72.1,118.1,71.9,118.1,72z M114.2,53.3C114.2,53.2,114.2,53.2,114.2,53.3c-0.1,0-0.1-0.1,0-0.1c-0.1-0.1-0.2-0.1-0.2-0.1
		c0,0,0-0.1-0.1,0c0,0.1,0,0.2,0,0.3C114,53.5,114.1,53.4,114.2,53.3z M115.3,56c-0.1,0.1-0.2,0.1-0.3,0.1c0,0.2-0.1,0.3-0.1,0.3
		c0,0,0,0,0.1,0.1c-0.1-0.1-0.1-0.2,0-0.2C115.1,56.5,115.3,56.1,115.3,56z M111.9,79.9C111.9,79.9,111.9,79.9,111.9,79.9
		C111.9,79.9,111.9,79.9,111.9,79.9L111.9,79.9z M112.9,50C112.9,50,112.9,50,112.9,50c0-0.5-0.1,0-0.2,0c0-0.3,0,0.1-0.1-0.1
		c0,0.1,0,0.1,0,0.1C112.6,50.1,112.8,50,112.9,50z M113.6,50.3c0.1-0.2,0-0.3,0-0.5C113.3,49.6,113.5,50.2,113.6,50.3z M91,29.2
		c0-0.1,0.1-0.2,0.2-0.3C91,29.1,91,29,91,28.8c0.2,0.1,0.1-0.3,0.2-0.4c0,0,0,0,0,0c0,0.2,0-0.2,0-0.2c-0.1,0-0.1,0.1-0.1,0.2
		c0-0.1,0-0.5-0.2-0.2c-0.3-0.4,0.4-0.3,0.3-0.8c0,0,0,0-0.1,0c0-0.1,0-0.2,0.1-0.2c0-0.1-0.1-0.2-0.2-0.2c-0.1,0.1-0.1,0.1-0.1,0.2
		c-0.1,0-0.2,0-0.2,0c0,0.4-0.3,0-0.3,0.1c-0.1,0,0,0.6,0,0.6c0,0.1-0.4,0.2-0.1,0.2c-0.1,0.2-0.1,0.3,0.1,0.2
		c-0.1-0.1-0.1-0.2,0-0.2c0,0,0.1,0.6,0.2,0.5c0.3-0.7,0.1,0.7,0.3,0.7c0-0.2,0.1-0.3,0.2-0.3C90.9,29.1,90.9,29.2,91,29.2z
		 M114.3,46.5c0-0.1-0.4-0.1-0.6-0.1c0,0.6,0.3,0.5,0.7,0.7c-0.1,0.2-0.1,0.2-0.2,0c-0.5,0.4,0.9,0.7,1.1,0.6c0-0.3-0.4-0.5-0.6-0.7
		c0.1,0,0.2,0,0.3,0c-0.2-0.1-0.2-0.2-0.4-0.3c0,0.2,0,0.4,0,0.5C114.6,47.4,114,46.6,114.3,46.5z M118,71.8c0,0.1-0.3,0.6,0.2,0.5
		c0,0,0-0.1,0-0.1c0,0.1,0,0.1-0.1-0.1c0-0.1,0-0.2,0-0.2C118.1,71.9,118,71.9,118,71.8z M111.9,80c0.1,0.2,0.2,0.2,0.2-0.1
		c0,0,0,0,0,0c-0.1-0.1-0.1-0.1-0.2,0c0,0,0,0,0,0C111.9,79.8,112,79.9,111.9,80C112,80,111.9,80,111.9,80z M111.7,81
		c0-0.1,0-0.1-0.1-0.2C111.7,81,111.7,81,111.7,81z M111.6,77.5C111.6,77.3,111.5,77.8,111.6,77.5L111.6,77.5z M111.9,79.9
		C111.9,79.9,111.9,79.8,111.9,79.9C111.9,79.8,111.9,79.8,111.9,79.9C111.9,79.9,111.9,79.9,111.9,79.9z M111.7,81
		C111.7,81,111.7,81,111.7,81L111.7,81L111.7,81z M119.3,79c0-0.1,0-0.4-0.1-0.4c0,0,0-0.1-0.1,0c0,0.2,0,0.3-0.1,0.4
		C119.2,79,119.2,79,119.3,79z M111.7,81.1C111.7,81.1,111.7,81.1,111.7,81.1C111.7,81.1,111.7,81.1,111.7,81.1
		C111.6,81.1,111.7,81.1,111.7,81.1z M117.7,72.4c0.1-0.3-0.1-0.2-0.1-0.2C117.6,72.2,117.4,72.5,117.7,72.4z M78.1,77.1
		C78,77.1,78,77.1,78.1,77.1C78,77.1,78.1,77.1,78.1,77.1z M85.1,76.6C85.1,76.6,85.1,76.6,85.1,76.6C85.2,76.5,85.1,76.5,85.1,76.6
		z M80.9,75.7C81,75.8,81,75.8,80.9,75.7C81,75.8,81,75.8,80.9,75.7C81,75.7,81,75.7,80.9,75.7z M81,75.3c-0.5,0.2-0.3,0.4-0.1,0.5
		c-0.1-0.1-0.1-0.2-0.1-0.3C80.9,75.5,81,75.5,81,75.3z M84.7,79.9C84.7,79.9,84.7,79.9,84.7,79.9C84.7,80,84.7,80,84.7,79.9z
		 M83.9,81.7C83.9,81.7,83.9,81.7,83.9,81.7c-0.1,0.1-0.1,0.1-0.1,0.1C83.8,81.8,84,81.7,83.9,81.7z M84.6,80.1
		C84.6,80.1,84.6,80.2,84.6,80.1C84.6,80.2,84.6,80.2,84.6,80.1z M83.8,89.3C83.7,89.3,83.7,89.3,83.8,89.3
		C83.8,89.4,83.8,89.3,83.8,89.3z M79.9,77C79.9,77,79.9,76.9,79.9,77C79.9,76.9,79.9,76.9,79.9,77z M77.7,70.9
		C77.7,70.8,77.5,70.8,77.7,70.9L77.7,70.9z M77.5,70.7c0.1,0,0.2,0,0.3,0.2c0,0,0,0,0,0c0,0,0,0.1,0,0.1c0.5,0,0.1-0.8,0.1-0.8
		c0,0-0.7-0.3-0.8-0.5c0,0.2,0.1,0.4,0.1,0.4c0.2,0.1,0.4,0.2,0.6,0.3C77.6,70.5,77.4,70.7,77.5,70.7z M76.8,77.5
		C76.8,77.7,77,77.6,76.8,77.5L76.8,77.5z M76.1,79.3C76.1,79.3,76.1,79.3,76.1,79.3C76.1,79.3,76.1,79.3,76.1,79.3z M88,83.9
		C88,83.9,88,83.9,88,83.9C88,83.8,88,83.8,88,83.9z M79.9,77.1c0-0.1,0-0.1,0-0.2C79.8,77,79.8,77.1,79.9,77.1z M79.3,76.5
		C79.3,76.5,79.3,76.5,79.3,76.5C79.3,76.5,79.2,76.5,79.3,76.5z M78.1,77.1C78.1,77.1,78.1,77.1,78.1,77.1
		C78.2,77.1,78.2,77.1,78.1,77.1C78.1,77.1,78.1,77.1,78.1,77.1z M89.8,25.9C89.8,25.8,89.8,25.9,89.8,25.9L89.8,25.9z M111.4,77.5
		C111.4,77.4,111.4,77.4,111.4,77.5L111.4,77.5z M111.5,76.7C111.5,76.7,111.4,76.4,111.5,76.7L111.5,76.7z M111.1,75.5
		c-0.1,0.3-0.3-0.3-0.4,0c0.1,0,0.1,0.3,0.2,0.5c0,0,0,0,0,0c0,0.2,0,0.3-0.1,0.5c0.3,0.1-0.2,0.1,0.1,0.2c0.1-0.2,0.3-0.1,0.3,0
		c-0.1,0.1-0.1,0.1-0.1-0.1c0,0.5,0.2,0.4,0.4,0.2c-0.1,0.2,0.1,0.3,0.2,0.3c0.1-0.2,0.1-0.4-0.1-0.6c0,0.1,0.1,0.1,0,0.2
		c0,0-0.2-0.2-0.3-0.5c0,0,0.1,0,0.1,0c0-0.5-0.1-0.3,0-0.7C111.1,75.5,111,75.7,111.1,75.5C111.1,75.4,111.1,75.4,111.1,75.5z
		 M110.4,75.3c0-0.1-0.1,0.4,0,0.3C110.4,75.7,110.8,75.2,110.4,75.3z M111.4,77.7C111.4,77.7,111.4,77.7,111.4,77.7
		C111.4,77.7,111.4,77.7,111.4,77.7C111.4,77.7,111.4,77.7,111.4,77.7z M111.3,77.5c-0.1-0.2-0.2-0.3-0.2-0.5
		C111.1,77.2,111.2,77.4,111.3,77.5z M111.4,77.5C111.4,77.5,111.4,77.5,111.4,77.5L111.4,77.5C111.4,77.5,111.4,77.5,111.4,77.5z
		 M111.3,77.5c0,0.1,0.1,0.1,0.1,0.2C111.4,77.6,111.4,77.6,111.3,77.5C111.4,77.5,111.4,77.5,111.3,77.5z M109.6,74.5
		c-0.2-0.1-0.3-0.1-0.5-0.1c0,0.3,0.1,0.1,0.1,0.4C109.4,74.8,109.5,74.8,109.6,74.5z M118.7,74.2C118.6,74.1,118.6,74.3,118.7,74.2
		L118.7,74.2z M93.6,82.3C93.6,82.3,93.7,82.5,93.6,82.3L93.6,82.3z M115.8,48.9C115.7,48.8,115.7,48.8,115.8,48.9L115.8,48.9z
		 M98.7,79.6c-0.1-0.1-0.2-0.2-0.3-0.3C98.4,79.4,98.6,79.8,98.7,79.6z M80.5,82.7C80.5,82.8,80.6,82.9,80.5,82.7L80.5,82.7z
		 M120.3,71.7C120.2,71.7,120.3,71.7,120.3,71.7L120.3,71.7z M154.2,48.6v-0.7C154.1,35.2,152.9,30,140,30c-0.1,0-0.1,0-0.2,0
		c-13.1,0.1-14,8.3-14,21.6v25.1c0,13.4,0.9,21.6,14.1,21.6c12.4,0,14-5.3,14.1-17.2c0,0,0-1.1,0-1.1c0.1-1.3,1.1-2.3,2.4-2.3h0h0h0
		h25.9h0h0h0c1.3,0,2.4,1.1,2.4,2.4V88c0,0.4,0-1,0-0.5c-0.1,3.6-0.4,9.1-1.9,14.3c-3.6,12.8-14,26.4-43.1,26.4
		c-2.1,0-22.4,0-27.6,0c-0.2,0-0.4,0-0.7,0c-7.7,0-14-6.3-14-14c0-0.3,0-0.5,0-0.7c0-4.4,0-26.6-0.1-31.4c0-0.1,0-0.2,0-0.2
		c0,0,0,0,0,0c0,0,0,0,0,0c0.1-0.1,0.1-0.1,0.2-0.2c0.2-0.2,0.5-0.4,0.5-0.4c0.1,0,0,0.1,0,0.3c0.1,0,0.3,0,0.4,0.1
		c0.2,0,0.3,0.2,0.3,0.4c0,0,0,0.1,0,0.1c0.2-0.1,0.5-0.3,0.7-0.6c-0.6-0.2,0.1-0.8-0.3-1c-0.1,0.3-0.3,0.3-0.5,0.1
		c0-0.3,0.3,0,0.4,0c-0.3-0.6-0.4,0.1-0.5-0.7c0.1-0.1,0.3-0.1,0.4,0c-0.1,0-0.1-0.1,0-0.2c-0.1,0-0.1,0-0.2,0
		c0.2-0.3,0.2-0.3,0-0.3c0-0.1,0-0.1,0-0.1c0,0-0.1,0-0.1,0c0-0.1,0-0.1,0-0.1c-0.1-0.1-0.1-0.1,0-0.2c0.1,0,0.2,0.1,0.2,0.2
		c0,0,0-0.2-0.1-0.3c0.2,0.1,0.4,0.1,0.5,0.1c0,0.1,0,0.2,0,0.3c0.1,0.2,0.3,0.3,0.5,0.4c0.2-0.3-0.3-0.5-0.2-0.7
		c0.2,0,0.5,0.2,0.7,0.2c-0.1,0-0.2-0.1-0.3-0.1c0.2-0.1,0.4-0.1,0.6,0c-0.1,0.2,0.7,0.3,1,0.2c0,0.1,0,0.2,0,0.3c0,0,0.1,0,0.1,0
		c0-0.1,0-0.2,0-0.2c0-0.2,0.1,0.1,0.1,0.2c0.1,0,0.2-0.1,0.3-0.1c0.2-0.1,0.4-0.1,0.5,0.2c0,0.1,0.1,0.2,0.1,0.3
		c0.5-0.4,1.1-0.5,1.4,0.2c0.1-0.2,0.3-0.4,0.6-0.6c-0.1-0.1-0.1-0.2-0.1-0.3c0.2,0,0.2,0.2,0.4,0.3c0.1-0.2,0-0.4,0-0.4
		c0,0,0.1,0,0.1,0c0,0,0,0-0.1-0.1c0,0,0.1,0,0.2,0.1c0.5,0.2,0.6,0.2,0.6,0.7c0.2,0,0-0.5,0.1-0.4c0.1,0.1-0.1,0.6,0.2,0.4
		c0.2,0,0.6,0.1,0.6,0.5c0,0,0.1-0.1,0.2-0.1c-0.1,0-0.2,0-0.2,0c0,0,0-0.1,0-0.1c0.1,0,0.2-0.1,0.2-0.2c-0.1,0.2,0.3,0.3,0.4,0.1
		c0.3,0,0.3,0.4,0.5,0.4c0.1,0-0.1,0.4-0.1,0.4c0.2-0.1,0.2-0.6,0.2-0.2c0.1-0.1,0.2-0.3,0.2-0.5c0.1,0.1,0.1,0.1,0.1,0
		c0.2,0.1,0,0.2-0.1,0.2c0,0.1,0,0.1,0.1,0.2c0,0,0,0,0,0.1c0.3,0.1,0.6,0.5,0.7,0.8c0.1-0.2,0.1-0.2,0.1,0c0.5-0.2,0-1.1-0.4-0.8
		c0.2-0.2,0.2-0.5,0.2-0.8c0,0-1.1-0.2-0.7-0.4c-0.2,0-1.4-0.2-1.2,0c-0.2-0.1-0.2-0.3,0.1-0.4c0,0-0.2-0.2-0.2-0.2
		c-0.1,0.1-0.1,0.2-0.1,0.4c-0.8-0.3-1.1-0.8-1.9-0.6c-0.1-0.3-0.3-0.7-0.3-0.7c0,0.1,0.2-0.1,0.3-0.3c-0.1-0.1-0.2-0.2-0.3-0.2
		c0.2,0.3,0.1,0.1-0.2,0.2c0.1-0.2-0.2-0.3-0.1-0.5c0-0.3,0.9-0.5,0.9,0c0.1,0,0.2,0,0.3,0c0,0,0,0,0,0.1c0-0.1,0.1-0.1,0.1,0.1
		c0,0-0.1,0.1-0.1,0.1c0.2,0,0.4,0.1,0.6,0.1c-0.4,0.6,1.4-0.2,1.4-0.2c0.1,0,0.3-0.2,0.3,0c0.1-0.2,0.3-0.5,0.3-0.8
		c-0.1,0-0.3-0.9-0.4-1c0.2,0,0.3-0.4,0.8-0.6c-0.2,0.5,0.5-0.1,0.1,0.6c0-0.1,0-0.1-0.1-0.2c-0.3,0.4,0.7,1.2,1.2,1.2
		c0-0.1,0-0.1-0.1-0.1c0,0,0.1,0,0.1,0c-0.1,0-0.2-0.1-0.2-0.3c0.1,0,0.1,0.2,0.4,0c-0.1,0.8-0.2,0.5,0.1,1.2c0-0.1,0-0.1,0-0.2
		c0.3,0,0.2,0.3,0,0.3c0,0.1-0.1,0.5,0.2,0.7c0.3-0.2,0.1-0.2,0.5-0.1c-0.2-0.1,0.7-0.2,0.5,0.6c0.1,0.1,0.1,0,0.1-0.1
		c0,0,0.2,0.6-0.1,0.4c0,0,0,0-0.1-0.1c-0.1,0.1-0.1,0.2-0.2,0.3c0.2,0,0.3-0.1,0.3-0.1c0,0,0,0.1,0,0.1c-0.2,0.1-0.6,0.2-0.5,0.3
		c0.2-0.1-0.2,0.4,0,0.6c-0.1-0.4,0.2-0.2,0.2-0.1c-0.3,0.1,0.1,0.3,0,0.4c0.1,0,0.1,0,0.2-0.1c-0.1-0.1-0.1-0.2-0.2-0.3
		c0.3,0.1,0.3-0.6,0.3-0.5c0,0,0,0,0,0c0,0.1,0,0.2,0,0.3c0.2-0.1,0.1-0.1,0.3-0.1c-0.1,0.4,0.2,0.9-0.1,1.1c0,0,0,0,0,0
		c0.1,0-0.1-0.1,0,0c0,0,0,0,0,0c0,0-0.1,0-0.1,0c-0.1-0.2-0.1-0.3-0.1-0.3c0,0,0,0,0,0c-0.3,0.2-0.4-0.4-0.6-0.4
		c0.1,0.1,0.1,0.2,0,0.3c0-0.1-0.1-0.1-0.2-0.1c0.1,0.1,0.1,0.1,0.1,0.2c-0.1-0.1-0.1-0.1-0.2-0.1c0,0.3,0.5,0.7,0.9,0.8
		c0,0.1-0.1,0.1-0.1,0.2c0.1,0,0.2-0.1,0.3-0.2c0,0,0.1,0,0.1,0c0,0.1,0,0.3,0,0.4c-0.7,0-0.4,0-0.3,0.5c0,0,0-0.1-0.1-0.1
		c-0.1,0.3,0.2,0.2-0.1,0.7c0,0.2,0.6,0.4,0.7,0.7c0-0.2,0.5,0.2,0.6,0.3c-0.5-0.3,0.8,0.2-0.4-0.5c0.3-0.2,0.3-0.3,0.4-0.5
		c0,0,0,0.2,0.1,0.3c0-0.1,0-0.1,0.1-0.1c0-0.3-0.4-0.7-0.1-0.6c0-0.1,0-0.2,0-0.2c-0.3,0.1-0.4-0.3-0.5-0.3c0,0,0.5,0.1,0.4,0
		c-0.7-0.8-0.1-0.3-0.2-1.3c0.1,0,0.3,0.3,0.4,0.4c-0.1,0.3-0.2,0.1-0.2,0.5c0.1-0.1,0.2-0.1,0.4-0.1c0,0.1,0.1,0.1,0.1,0.1
		c-0.1,0-0.1,0.1-0.2,0.1c0.1,0.2,0.2,0.3,0.4,0.4c0,0,0,0.1,0,0.1c0,0,0.1,0,0.1,0c0,0,0,0.1,0,0.1c0.2-0.1,0.3-0.2,0.5-0.3
		c0-0.1-0.1-0.2-0.1-0.3c0,0,0.1,0,0.1,0c0,0,0,0-0.1,0c0.3,0.1,0.4,0.2,0.4,0.2c0,0,0-0.1,0.1-0.2c0.2,0.1,0.2,0.2,0.1,0.3
		c0.3,0.1,0.5-0.7-0.1-0.3c0-0.2,0.2-0.3,0.4-0.2c0-0.1,0-0.2-0.1-0.2c0.1-0.2,0.3-0.3,0.4-0.5c0.1-0.2,0.3-0.2,0.4-0.2c0,0,0,0,0,0
		c0,0,0,0,0,0c0.1,0,0.1,0.1,0.2,0.2c0.1,0.2,0.2,0.3,0.3,0.5c0.5-0.4,1-0.6,1.4-1.1c0.2-0.2,0.4-0.2,0.5,0.1c0,0.1,0.1,0.1,0.1,0.2
		c0.1-0.1,0.2-0.2,0.3-0.3c0.2-0.2,0.3-0.2,0.5,0c-0.2-0.2,0.7-0.9,0.8-0.9c0.3-0.1,0.6-0.1,1,0c0,0,0,0,0-0.1c0,0,0,0,0,0.1
		c0.1,0,0.1,0,0.2,0.1c0,0,0,0,0.1,0c0.1,0,0.1,0,0.2,0.1c0,0,0.1,0,0.1,0.1c0,0,0,0,0,0s0,0,0,0c0.1,0.1,0.1,0.2,0.2,0.3
		c0-0.1,0.1-0.2,0.1-0.2c0,0,0,0,0,0l-0.6-0.8c-0.1-0.1-0.1-0.4,0-0.5c-0.1,0-0.1-0.1-0.2-0.1c-0.2-0.1-0.4-0.5-0.2-0.7
		c0.1-0.2,0.2-0.3,0.3-0.3c-0.1-0.1-0.2-0.4-0.1-0.6c0.1-0.2,0.2-0.3,0.3-0.4c0,0,0.1,0,0.2-0.1c0.5-0.6,1.1-0.6,1.8-0.7
		c0,0,0,0,0.1,0c0,0,0,0,0,0c0-0.1,0-1.3,0-1.3c0,0.1-0.1,0.1-0.1,0.1c0.1,0,0.1-0.1,0.1-0.2c-0.1,0-0.5,0-0.5,0
		c0.5,0.4-0.6,0.6-0.5-0.1c-0.4,0.1-1.5,0.7-1.6,1.4c0-0.1,0-0.2,0.1-0.3c-0.1,0.1-0.8,0-0.5,0.2c-0.1-0.1-0.3-0.2-0.4-0.3
		c0,0.1-0.1,0.2-0.1,0.4c-0.1,0,0.1-0.3,0-0.2c-0.1,0.1-0.1,0.2,0,0.3c-0.6,0-0.3-0.1-0.2,0c0-0.3-0.3-0.2-0.4,0
		c0.1-0.8-0.3-0.2-0.4-0.2c-0.2-1.2-0.6,0.3-1,0.1c-0.1,0.4-0.9,0.1-0.8,0c0-0.4,0.3-0.1,0.3-0.1c0-0.1-0.1-0.1-0.1-0.2
		c0,0.5,0.8-0.2,0.8-0.3c-0.2,0-0.1-1.8,0.7-1.6c0.6,0.2,0.4-0.1,0.9-0.1c0,0.1,0,0.1,0,0.1c0-0.1,0.1-0.1,0.2,0
		c0,0.1-0.1,0.1-0.2,0.1c0.1,0.1,0.1,0.1,0.2-0.1c0.5,0.1,0.3,0.1,0.8-0.6c-0.2,0,0.1-0.5,0.2-0.5c0,0.1,0,0.2,0.1,0.2
		c0,0-0.7-1.6-0.8-1.7c0,0.1,0.1,0.3-0.1,0.3c0.1-0.4-0.4-0.2-0.4-0.5c0,0.1,0.1,0.1,0.1,0c-0.1,0-0.1-0.1-0.1-0.2c0,0-0.2,0-0.4,0
		c0,0,0,0,0,0.1c0.1,0,0.2-0.1,0.1,0.2c-0.4,0,0-0.1-0.1-0.2c0,0,0-0.1,0-0.1c-0.4,0-1.1,0.1-1.1,0.1c0,0,0-0.4,0-0.4
		c0,0-0.1,0-0.1,0c0,0.2-0.4,0.7-0.4,0.3c-0.5,0.1,0.1,0.1-0.2,0.3c0,0-0.1,0-0.1,0c0,0,0,0,0,0c-0.2-0.1-0.7-0.4-0.8-0.6
		c-0.1,0,0-0.5,0-0.6c-0.1,0-0.1,0-0.2,0c0.1-0.3,0.2-0.6,0.4-0.7c0,0-0.2-0.2-0.2-0.2c0.1,0,0.3-0.6,0.1-0.6c0,0.1-0.1,0.2-0.3,0.2
		c-0.1-0.4,0-0.8,0-1.2c-0.2,0.1-0.3-0.2-0.3-0.2c-0.2,0.2-0.7,1.1-0.6,0.5c-0.1,0.2-0.2,0.5-0.2,0.7c-0.1-0.2-0.1-0.3-0.1-0.5
		c-0.2,0.4-0.6,0.3-0.6,0c-0.4,0.5-1.1,0.4-1.6,0.5c0,0.2,0,0.4-0.2,0.4c-0.2,0-0.2-0.4,0.1-0.4c0.2-0.6-0.9-0.7-0.9-0.8
		c-0.1-0.1,0.4-0.3,0.1-0.4c0,0.6-0.4-0.2-0.4-0.3c-0.4-0.1-0.2,0.4-0.5,0.4c-0.2-0.1-0.1-0.2,0-0.3c-0.5,0.6-1-0.8-0.9-0.6
		c-0.1-0.4-0.3,0.1-0.3,0.1c-0.2-0.2,0.4-0.5,0.6-0.6c-0.1,0-0.2-0.1-0.2,0c0.1-0.3,0.6-0.6,0.7-0.8c-0.2,0,0.4-0.1,0.4-0.1
		c0.2-0.2,0.2-0.4,0.1-0.6c-0.1,0.1-0.2,0.2-0.4,0.1c0-0.1,0-0.2-0.1-0.3c0.1,0,0.2,0,0.2-0.1c0,0,0,0.1,0,0.1c0.1-0.5,0.3,0,0.3,0
		c0.1-0.1,0.1-0.2,0-0.2c0.1-0.1,0.2-0.1,0.2,0c0-0.6,0.1-0.2,0.1-0.2c0.1,0,0.8-0.5,0.8-0.7c0,0-0.2-0.1-0.3-0.1
		c0.1-0.1,0.2-0.1,0.3-0.2c-0.1,0.2-0.1,0.3,0.1,0.5c-0.2,0-0.1,0-0.1,0.1c0.2,0.1,0.4,0,0.5,0c0.1,0.2,0.3,0.3,0.2,0.5
		c0.1,0,0.3,0,0.4,0c0,0,0,0,0.1,0c0,0,0,0,0,0c0.1,0,0.2,0.1,0.2,0.2c0-0.1,0-1-0.2-0.6c-0.3-0.1,0-0.3,0.2-0.4
		c-0.1,0-0.2-0.2-0.2-0.3c0.3,0.5,0.6-0.4,0.7-0.5c0,0.1,0,0.2,0.1,0.3c-0.1-0.4-0.2-0.9-0.5-0.4c0-0.2,0-0.2,0-0.2c0,0,0,0,0.1-0.1
		c-0.2,0-0.2-0.4-0.2-0.7c-0.4,0.3-0.8-0.3-0.7-0.4c0.1,0.2,0.2,0.2,0.3,0c0,0-0.4-0.1-0.2-0.2c0.2,0.1,0.3,0.1,0.5,0.1
		c-0.4-0.7,0.4-0.4,0.5-0.4c0-0.4-0.1-0.5-0.4-0.4c0.4-0.4,0.6,0.2,0.3-0.4c0.3,0,0.1,0,0.3-0.1c0.3,0.4-0.5,0.8,0.4,0.8
		c0.4,0,0.2,0.4,0.7,0.3c-0.1,0.2,0,0.4,0.2,0.5c0.2-0.3-0.2,0.1,0.1-0.2c0.1-0.1-0.1,0.3,0,0.3c-0.2,0.7,2.1-1.3,0.6-1.6
		c0.2-0.3,0-0.4,0-0.6c0.1-0.1,0.4-1-0.2-0.8c0-0.2,0-0.3,0.1-0.4c0.1,0.1,0.1,0.1,0,0.1c0.3,0.1,0-0.4-0.1-0.5
		c0.1,0,0.2-0.3,0.2-0.3c-0.1,0-0.2,0-0.3,0.1c0.1-0.2-0.2-0.4-0.3-0.4c0.1,0,0.1-0.1,0.1-0.2c-0.2,0.2-0.8-0.8-0.6-0.7
		c-2,0.7-0.1-0.2-0.9-0.4c0.1,0.4-0.3,0.1-0.3,0.1c-0.3,0.6,0-0.1-0.3,0.2c0-0.1,0-0.2-0.1-0.3c0.1,0.1,0.2,0.1,0.2,0
		c-0.1,0-0.1-0.1-0.1-0.2c0.2,0,0.2,0.2,0.4,0.2c-0.1-0.4,0-0.2,0.2-0.2c0,0,0.8-0.2,0.6-0.7c0.6,0.1,0.9-0.3,0.7-1
		c-0.2-0.1-0.3,0-0.2,0.2c-0.4-0.2-0.5-0.7-0.9-0.4c0-0.2,0-0.5,0-0.7c-0.1,0-0.7,0.2-0.7,0.3c0.3-0.3-0.1-0.2-0.1-0.5
		c-0.1,0.1-0.2,0-0.2-0.2c0.3,0.2,0.1-0.1,0.1-0.2c0,0-0.2,0.1-0.2,0.2c0-0.2,0-0.3-0.1-0.5c-0.1,0.1-0.2,0.2-0.2,0.3
		c-0.2-0.1-0.1-0.1-0.2-0.3c0.1,0.1,0,0.1-0.1,0.3c0-0.2-0.1-0.5-0.3-0.3c0.1-0.2,0.1-0.5,0.2-0.7c0.2,0.2,0.3,0.4,0.5,0.6
		c-0.1,0.1,0.5-0.8,0.5-0.8c0-0.2,0.4,0.7,0,0.6c0-0.1,0.1-0.4-0.1-0.5c0,0.1,0,0.6,0.1,0.6c0.1,0,0.1-0.1,0-0.1
		c0.3,0,0.5,0.3,0.8,0.2c-0.1-0.6,0.1-0.5-0.2-0.9c0.3-0.1,0.7,0,0.7,0.3c0.2,0,0-0.8,0.1-0.8c0,0.1,0.1,0.2,0.2,0.2
		c0-1,0.1-0.4,0.2-0.4c0.2-0.2-0.1-0.6-0.1-0.7c0,0,0.3-0.6,0.1-0.7c-0.1,0.2,0.1,0.2,0,0.3c-0.1-0.2-0.1-0.4,0-0.5
		c0.7,0,1.1-0.5,1.5-1c0,0.1,0.1,0.1,0.1,0.1c-0.1,0,0.4-0.6,0.3-0.1c0.2,0.1,0.1-0.4,0.3,0c-0.1-0.1-0.2,0-0.2,0.1
		c0.7-0.3,0.9-0.4,1-1.4c-0.1-0.2-0.9-0.4-0.9-1c-0.2,0.2-0.3,0.2-0.4,0.1c0.1-0.2,0.4-0.8,0.4-0.5c0-0.1,0.1-0.1,0.2-0.2
		c0,0,0,0,0,0c0.2-0.1,0.3-0.1,0.2,0.1c0.1,0,0.2-0.1,0.2-0.2c0,0.3,0.1,0.1,0.2,0.3c-0.1-0.1,0.3-1,0.4-1.2c-0.2,0.1-0.3,0-0.4-0.2
		c0,0.2,0,0.3-0.1,0.2c0.1-0.1-0.1-0.2,0-0.5c-0.1,0.1-0.2,0.2-0.3,0.4c-0.2-0.2-0.3-0.4-0.4-0.7c-0.1,0-0.7,0.7-1,0.7
		c-0.4,1.3-1-0.2-1.6,0.1c0-0.3,0.2-0.1,0-0.4c0.6,0.4,0.6-1.4,0.8-1.1c0,0-0.2-0.8-0.2-0.8c-0.1,0-0.2,0.1-0.2,0.1
		c0-0.1,0-0.4,0-0.5c-0.1-0.1-0.2-0.1-0.3,0.1c0-0.1-0.1-0.3-0.1-0.4c-0.1,0.4-0.4,0.4-0.6,0.3c0.2,1.4-0.6,0.9-1,1.3
		c-0.2-0.2,0.1-0.2,0-0.3c-0.1,0-1.3,0.6-1.1,0.2c-0.2,0.5-1-0.8-1.4,0.1c0.1-0.1-0.6-0.9,0-0.8c0.2,0,0.4-0.3,0.3-0.4
		c0.5,0,0.2,0.1,0.3,0.3c0.4,0-0.4-1.7,0.6,0.5c0.1-0.3,0.1-0.5,0.3-0.5c-0.1-0.2-0.2-0.3-0.2-0.6c0.2-0.2,0.9-0.4,0.7-0.5
		c0,0,0.1-0.6-0.2-0.9c0,0-0.1,0-0.2,0.1c0.1-0.3-0.1-0.1-0.2-0.1c0-0.2,0.1-0.4,0.1-0.6c0,0,0.1,0.4,0.1,0.1
		c-0.4-0.2,0.4-1.8-0.3-1.9c-0.3,0.4-0.7,0.6-0.7-0.1c-0.2,0-0.3-0.1-0.4-0.2c0,0-0.4,0.2-0.4,0.3c0-0.1,0.1,0,0.1-0.2
		c-0.5-0.1-0.8-0.3-1.3,0.4c0.2,0.1-0.2,0.6-0.6,0.1c-0.2,0.6-0.8,0.3-0.7,0.8c-0.1,0-0.2-0.1-0.2-0.3c-0.1,0.5-0.7,1-0.8,0.5
		c0,0,0.1,0,0.1,0c-0.1-0.3-0.1-0.8-0.1-1c-0.1,0-0.2,0-0.3,0c0.1,0-0.1-0.4-0.1-0.3c0.1,0,0.3,0.1,0.2,0.3c0.3-0.2,1-2,1-2
		c0.1-0.2,0.5-0.2,0.4-0.7c0,0.1,0.1,0.1,0.1,0.1c-0.2-0.1,0.1-0.7-0.2-0.6c0,0.3,0.1-0.1,0.1,0.1c-0.1,0-0.6,0-0.6-0.2
		c0-0.1,0.1-0.1,0.1-0.2c0,0.1,0,0.2,0,0.1c0-0.6-0.1-0.6-0.4-0.9c0.4-0.2,0.5-0.5,0.3-1.2c-0.1,0.1-0.3,0.2-0.4,0.2
		c-0.1-0.3-0.1-1.6-0.3-1.3c0.1-1.1-0.5-0.4-0.7-1c0-0.3,0.2,0.1,0.2,0c-0.2-0.3-0.1-0.2-0.2-0.8c-0.1,0-0.1,0-0.1,0c0,0,0,0,0-0.1
		c-0.2,0-0.3,0.1-0.3,0.3c-0.4-0.4,0-0.5,0-0.5c-0.1,0-0.2-0.1-0.2-0.1c0.2-0.3,0.6-1,0.6-1c0.4-0.5,0-0.9-0.2-1.2
		c-0.3,0.3-0.7-0.2-1,0.2c0.6,0.1-0.4,0.8-0.6,0.9c-0.3-0.6,0.1-1.2,0.1-1c-0.1-0.3-0.1-0.7-0.2-1c-0.1,0.1-0.7,0.4-0.8,0.3
		c0,0.1,0,0.2,0,0.2c0,0,0,0.1-0.1,0.2c0.3,0,0.1,0.3-0.1,0.5c0.1-1.1-0.9-0.3-0.9-0.3c0.1,0,0.1,1-0.2,1.1c0,0,0-0.3,0-0.3
		c0,0.2-0.2,1.1-0.3,1.1c0.1,0.6-0.9,0.1-1-0.1c1.3-0.1-0.7-1.6-0.7-1.6c0.1,0.1,0.2,0,0.3-0.1c-0.1,0.1-0.3,0-0.4-0.1
		c0.8-0.4,0.2-0.7,0.2-1.2c0.4,0,0.5-0.2,0.9,0c-0.3-0.1,0.2-0.5,0.3-0.7c0,0.1,0,0.2,0,0.2c0.2-0.4-0.1-0.7,0.1-1.2
		c-0.3-0.2,0-0.4,0-0.5c-0.1-0.1-0.3-0.2-0.4-0.3c0,0.1,0,0.1,0,0.2c0-0.2-0.1-0.3-0.1-0.4c0,0.1,0,0.2,0,0.3
		c-0.1-0.7-0.6-0.2-0.6-1.2c0,0.1-0.1,0.1-0.1,0c-0.2,0.7-1.1,0.4-1.3,0.4c0,0.2-0.1,0.2-0.2,0.3C99,21.6,99,21.5,99,21.4
		c-0.1,0-0.1,0.1-0.1,0.2c-0.1-0.1-0.1-0.3-0.4-0.1c0-0.2,0-0.3-0.1-0.5c0-0.1-0.5,1.1-0.5,1.1c0-0.2-1.4-0.2-1.8-0.3
		c0,0.1-0.4,0.3-0.4,0.3c0-0.5-0.2-0.4-0.3-0.4c0-0.7-1.1-1-1.2-0.5c0-0.1,0-0.1-0.1-0.2c0,0.8-1-0.6-1.1-0.6
		c-0.6,0-1.6,1.2-2.3,1.1c-0.4,0.4-0.2,1.6,0.3,1.7c-0.1,0-0.1,0-0.2,0c0,0,0.2,0.3,0.2,0.4c-0.7,0-1.5,0.6-1.6,1.4
		c0.1,0,0.1,0,0.2-0.1c-0.1,0.5-1.4,0.3-0.9,1.3c0,0.1,0.9,1.3,0.2,1.1c0.1,0.1,0.3,0.6,0.2,1c0.2,0,0-0.1,0-0.1c0,0,0.3-0.1,0.3,0
		c-0.2,0.4-0.3,0.5-0.3,0.9c0-0.1,0.8,0.6,1,0c0,0,0.2,1-0.3,0.5c0.2,0.5,1.1,1.1,1.1,0.9c0,0,0.5-0.4,0.5,0.1c0,0,0.4,0.3,0.1,0.2
		c0.1,0.5,0.6-0.2,0.6,0.4c0,0-0.2,0-0.3,0.1c0.1,0.1-0.3,0.2-0.4,0c0,0,0.2-0.2,0.2-0.2c-0.3,0-1,0.2-1.1,0.1
		c0.1,0.1-0.4,1.1-0.5,1.2c-0.1-0.1-0.2-0.5-0.4-0.7c0,0.1,0,0.2-0.1,0.3c0.1,0.3,0.1,0.5-0.1,0.7c-0.1-0.1-0.1-0.2-0.1-0.3
		c-0.1,0.1-0.2,0.1-0.3,0.2c0-0.1,0.1-0.2,0.1-0.3c-0.1,0-0.3,0.2-0.2,0.3c-0.1-0.1-0.2-0.1-0.3-0.2c0,0.2,0,1,0,1.1
		c0,0,0,0.1,0,0.1c0,0.1,0.2-0.1,0.2-0.2c0,0-0.1-0.1-0.2,0c1-0.3,0.4,0,0.4,0c0,0.5-0.1,0.3-0.6,0.9c0.3-0.4-0.8-0.5-0.8-0.5
		c0,0.7-0.5,0.3-0.9,0.7C87,35,87.1,35,87.1,35c0,0,0,0.1-0.1,0.4c0,0.1-0.1,0.6,0,0.7c0,0.1,0-0.1,0-0.2c0,0.1,0.8,0.2,0.9,0.5
		c0,0-0.1,0.1-0.2,0.1c0.2,0.8,2.1-0.3,2-0.3c-0.1-0.1,0.4,0.3,0.4,0.4c0.3-0.1,1.8-0.7,1.9-0.7c-0.1,0.3-0.1,0.6,0,1
		c-0.1,0-0.2,0-0.1,0.1c0,0.1,0.2-0.1,0.2,0c0,0,0,0,0,0c0,0,0,0.1,0.1,0.1c-0.1,0-0.1,0-0.2,0.1c0.1,0,0.1,0.1,0.1,0.3
		c-0.1,0-0.4-0.1-0.4-0.3c-0.1-0.1-0.1-0.2-0.1-0.2c0-0.3-0.1-0.2-0.1,0c-0.1,0-0.1,0-0.3,0c0-0.1,0.1-0.2,0.1-0.2
		c-0.1,0.1-0.2,0-0.3,0c0,0.3,0.3,0.5,0.4,0.7c-0.1-0.1-0.3-0.2-0.4-0.3c0.2,0.8-0.5,0.6-0.6,1c-0.3-0.4-0.6,0.5-0.8,0.4
		c0-0.1,0.1-0.2,0-0.2c0-0.3-0.1,0.9-0.1,1.2c0,0,0.1,0,0.1,0c0,0,0,0,0,0.1c0,0,0,0,0,0.1c0-0.1-1.6,0.3-1.5,0.7
		c0.1,0-0.1,0.2-0.4-0.2c0.1,0.1,0.1,0.2,0,0.3c0-0.3-0.3-0.3-0.4-0.8c-0.1,0.1-0.2,0.1-0.3,0.2c-0.1-0.3,0-0.1,0,0
		c-0.1,0-0.2,0-0.2,0c-0.2,0.1-0.5-0.2-0.5,0c0.1,0,0.2,0,0.2,0c-0.4,0.7-0.9,0.6-1.2,1.1c0,0.1-0.7,0.9-0.7,0.9
		c-0.2,0.6,0.3,0.9,0.3,1.6c0-0.1,0.2-0.2,0-0.3c0.4,0,0.2,0.6,0,0.7c-0.1-0.1-0.1-0.2,0.1-0.2C85,43.2,84.9,44,84.9,44
		c-0.2-1.1-1,0.3-1.3,0c-0.2-0.2-0.2-0.5-0.5-0.5c0,0.3,0,0.3-0.2,0.2c0,0,0,0.2,0,0.2c0.1,0,0.1-0.1,0.2,0
		c-0.1,0.2-0.3,0.6-0.1,0.8c0.1,0,0.1,0,0.2-0.1c-0.1,0.2,0.1,0.3,0.1,0.3c-0.1,0.2-1,0-1,0.1c-0.5,0.8-0.8,0.9,0,1.8
		c0.1-0.1-0.2-0.3,0.1-0.4c-0.1,0.1-0.1,0.1-0.1,0.2c0.4-0.2-0.2,1.8,0,1.6c0,0.2-0.1,0.3-0.2,0.2c0,0.3,0.1,0.4,0.2,0.2
		c0,0.4-0.1,0-0.3,0.1c0.1-0.1,0.2,0.3,0.4,0.2c-0.1,0-0.1,0-0.1-0.1c0.3,0,0.1,0.1,0.2,0.2c-0.1,0-0.2,0-0.5,0.1
		c0-0.1-0.2-0.6,0.1-0.1c-0.2-0.3-0.5-1-1-0.8c0,0.2-0.4,0.5-0.4,0.7c-0.4,0.1-0.3,0.9-0.3,1.5c0-0.1,0-0.3,0.1-0.4
		c0,0.7-0.7,2.2-0.2,2.4c0-0.1,0.1-0.2,0.2-0.2c0.1,0.1,0.6,0.3,0.8,0.6c0,0-0.1,0-0.1,0c0.2,0.1,0.4-0.1,0.7,0
		c0-0.1-0.1-0.2-0.2-0.3c0.2,0.1,0.6-0.4,0.8-0.4c-0.3,0.2-0.3,0.4-0.2,0.8c0-0.1,0.1-0.5,0.1-0.5c-0.1,0.2,0.3,0.5,0.4,0.4
		c-0.1-0.4-0.4,0.1,0-0.4c0.1,0.2,0.5,0.5,0.7-0.4c0.1,0,0.2,0,0.2,0c-0.2,0-0.1,0.6-0.5,0.6c0.2,0.2,0.5,0.3,0.8,0.1
		c0,0-0.2-0.5-0.2-0.5c0,0,0.4-0.2,0.4-0.2c0,0,0,0,0,0c0,0-0.1-0.1-0.1-0.1c0,0,0.2,0,0.4,0c0-0.2,0.1-0.4,0.1-0.4
		c0,0.1-0.1,0.1-0.1,0c0.1,0.1,0,0.2-0.1,0.2c0-0.1,0-0.1,0-0.2c0,0-0.2,0.2-0.2,0.2c0-0.1,0-0.2-0.1-0.2c0.1-0.1,0.8,0.1,0.6-0.4
		c-0.5-0.1,0.7-1.3,0.8-0.6c0.3,0,0.1-0.2-0.1-0.3c0.3-0.3,0.5,0.2,0.5,0.2c0.2,0,0.5,0.1,0.7,0.1c0.1-0.4,0.1-0.4,0.1-0.5
		c0,0,0.4-0.2,0.4-0.1c-0.1,0-0.1,0-0.1,0.1c0.3-0.1,0.8-0.9,0.3-0.9c0.1,0,0.6-0.4,0.6-0.5c0.2,0.2,0.1,0.4-0.1,0.4
		c0.5,0.1-0.1,1,0.1,1c-0.3,0-0.5,0-0.6,0c0,0.5,1,0.4,1,0.1C88.1,49.9,88,50,88,50c0-0.3,0.4-0.8,0.5-0.4c0-0.1-0.1-0.7-0.1-0.7
		c0,0.2,0.1,0.2,0.1,0c0,0.1,0,0.1,0,0.2c0.1-0.1,0.1-0.2,0.2-0.2c0,0.1,0.1,0.1,0.1,0.2c0.3,0,0.7,0.1,0.8,0c0,0-0.2-0.2-0.2-0.2
		c0.3-0.8,1.1,0,1.2-0.1c0.2,0.2-0.3,0.2-0.2,0.3c0.1,0,0.2-0.1,0.2-0.1c0.1,0.5,0,0.3,0.2,0.6c-0.3-0.1-0.2,0.4-0.5,0.4
		c0,0,0,0,0,0c-0.4,0.5-1.2,1.8-1.4,1.8c0,0.1,0.1,0.1,0.1,0c0,0.1-0.1,0.1-0.1,0.2c0.4-0.1-0.1,0.4-0.3,0.5c0.2,0,0.1,0.2-0.1-0.1
		c-0.2,0.4,0.3,1.3,0.5,1.4c0.1-0.3-0.1-0.5,0.2-0.2c0-0.2,0.2-0.7-0.1-0.7c0,0-0.1,0.1-0.1,0.2c-0.2-0.6,0.8-0.1,0.7,0.5
		c-0.1-0.1-0.2-0.1-0.2,0c0.2,0,0.8,0.1,0.9,0.4c-0.2,0.1-0.2-0.2,0,0.3c0,0-0.2,0.1-0.2,0.1c-0.1-0.1-1,0.6-1,0.3
		c0.2,0-0.2-0.1-0.2,0.1c-0.1,0.2,0.2-0.2,0.2,0c-0.1,0-0.9,0.7-1,0.6c0,0.2,0,1-0.1,1c-0.1-0.3-0.2-0.3-0.3,0
		c0-0.5-0.3,0.4-0.4,0.7c-0.3-0.2-1.7-0.1-2,0.2c0.2-0.3-0.8-0.6-0.9,0c0,0-0.1,0-0.1-0.1c-0.1,0.4-0.3,0-0.4,0.1c0,0-1,0.7-1,1
		c0.2,0.1,0.1,0,0.3-0.1c0,0.5-0.8,0-1.1,0.1c0,0.7,0.1,0.9,0.3,0.8c0.3,0.1,0.3,0.2,0.2,0.6c-0.8-1.3,0.3,2.5,0.3,2.1
		c0,0,0.3-0.5,0.4-0.5c0,0.2,0.4,0.2,0.7,0.1c0-0.1,0-0.2-0.1-0.3c0,0.1,0,0.2,0,0.3C83.9,61,84,61,84,60.8c0-0.1,0.1-0.2,0.2-0.1
		c0.1,0,0,0.2,0.1,0.2c0-0.2,0.4-0.8,0.4-0.4c-0.1,0.1-0.2,0.2-0.4,0.2c0,0,0,0.1,0,0.1c0-0.2,0.5,0,0.7,0.3
		c-0.3,0.1-0.8,0.1-0.6,0.4c-0.1-0.1-0.2-0.1-0.3-0.1c0.6,0.6,0,0.3-0.2,0.3c0,0.3,0.2,0.2,0.3,0.2c0,0.5-0.3,0.5-0.3,0.5
		c0-0.1,0.1-0.5-0.1-0.4c0,0-0.3,0.1-0.3,0.1c0.1,0,0.1,0.3,0.1,0.4l0,0c-0.1,0.5-0.2-0.2-0.3,0.1c-0.1,0-0.5-0.2-0.5-0.2
		c0,0.2,0,0.4,0.1,0.6c0-0.2,0.1-0.2,0.2-0.2c0,0.1,0,0.1,0.1,0.2c-0.3,0.1-0.2,0-0.3,0.5c0,0-0.1,0-0.1,0.1c0-0.1-0.1-0.3-0.2-0.3
		c0.1,0,0.2,0.1,0.3,0.3c0.1-0.1-0.1-0.2,0-0.4c-0.4-0.1-1.6-0.5-1.3-1c0-0.2-0.2,0.4-0.4,0.2c0.1,0.4-0.2,0.3,0.1,0.6
		c-0.1,0.4-0.6-0.2-0.6-0.3c-0.1-0.1-0.2-0.1-0.3,0c0.3,0.2-0.4,1.3,0.2,0.6c-0.2,0.4-0.3,0.5-0.1,0.5c0.2,0.6-0.5,0.3-0.4,0.3
		c-0.1,0.1-0.6,0.3-0.4,0.8c0.2,0.5,0,1.4-0.6,1.7c0,0,0.1,1,0.2,1.3c0,0,0,0,0,0c0,0,0,0,0,0c0,0,0,0.1,0,0.1
		c-0.1,0-0.1-0.1-0.1-0.1c-0.1,0-0.4-0.1-0.3-0.1c0,0.3-0.1,0.6-0.3,0.2c0,0,0-0.1,0-0.1c0,0,0,0,0,0c0,0,0,0,0,0
		c-0.6-0.5-0.3-0.4-1-0.6c0,0.1,0,0.4,0,0.4c-0.1,0-0.2,0-0.3,0c0.1,0.5,0.3,0.3,0.4,0.8c-0.6,0.5-0.9,0.3-1.5,0.4
		c0,0.1,0.1,0.1,0.1,0c-0.1,0.7,0.6,0.9,0.6,1.3c0-0.2,0.1-0.3,0.2-0.3c0,0.5-0.1-0.2-0.1,0.4c0.1,0,0.1,0,0.1,0
		c0,0.2,0.1,0.6,0.1,0.7c-0.1,0-0.2,0-0.3-0.2c0.1,0.1,0.2,0.1,0.3,0c-0.6-0.7-0.5,0.5-0.5,0.5c-0.1,0-0.3,0-0.4,0
		c0,0.4-1.2,2.3-1.3,2.5c-0.2-0.2-0.2-0.2-0.4-0.1c0.2,0.6,0.6,1.7,0.6,2c-0.4,0.3,0.7,0.8,0.6,1.2c-0.5-0.1,0,0.4,0,0.6
		c0.1,0.1,0.2,0.1,0.2,0c0-0.4,0.1-0.6,0.5-0.4c0-0.1,0.1-0.1,0.1-0.2c0-0.1-0.2,0-0.2,0.1c0.1-0.2,0.3-0.3,0.5-0.2
		c0,0.1,0,0.2-0.2,0.2c0.1,0.1,0.2,0,0.3-0.1c0-0.2,0.3-0.1,0.4-0.5c-0.1,0-0.3-0.1-0.1-0.3c0.2,0,0.1,0.5,0.1,0.6
		c0.2-0.1,0.3,0,0.4,0.2c0,0-0.2-0.1-0.3-0.1c0,0-0.3,0.4-0.3,0.4c0.1,0.1,0.1,0.2,0.2,0.3c-0.1,0-0.4,0.2-0.5,0.1c0,0,0,0.1,0,0.1
		c0,0,0,0-0.1,0c-0.2,0.3-0.3,0.3-0.8,0.2c0,0.1,0,0.1,0,0.2c0,0,0-0.2,0-0.3c0,0,0,0,0,0c0,0,0,0,0,0c0,0-0.1,0-0.1,0
		c0,0,0,0,0,0.1c-0.2,0.2-0.4,0.1-0.5-0.3c-0.2,0.5,0.2,0.2-0.2,0.7c0.1,0,0.3-0.1,0.4-0.1c0,0.1-0.7,0.6-0.4,0.1
		c-0.2,0-0.1,0-0.2,0c0.1,0.1,0.1,0.2,0.2,0.3c-0.2,0.2-0.4-0.4-0.5,0.2c0.4-0.2,0.3,0.5,0.4,0.5c0.1-0.2,0.3,0.1,0.2-0.2
		c0.1,0,0.4,0.4,0.2,0.6c-0.1-0.1-0.3-0.1-0.4-0.2c0.1,0.2,0.1,0.7,0.1,0.9c0.1,0,0.3,0.4,0.5,0.3c0,0.1,0,0.1,0,0.1
		c0,0-0.1,0-0.1,0.1c0.1,0,0.2,0,0.3,0c0-0.3,0-0.6-0.2-0.7c0-0.2,0.6-0.4,0.7-0.7c-0.1,0.1-0.2,0-0.2,0c0.3-0.5,0,0.3,0.3,0
		c0,0.1,0,0.2,0.1,0.3c0,0,0,0,0,0c0-0.2,0-0.2-0.1-0.3c0,0,0.1-0.1,0.2-0.2c-0.1,0.1-0.1,0.2,0,0.2c0.1-0.1,0.3-0.6,0.3-0.6
		c0,0.1,0.1,0.1,0.2,0c0,0-0.1,0.1-0.2,0.2c0.3,0,0.2,0,0.4,0c0-0.4,0.3-0.6,0.5-0.9c-0.1,0-0.2,0-0.2-0.2c0.3-0.1,0.2-0.1,0.1-0.3
		c0.2-0.3,0.4,0,0.5-0.4c0.2,0,0.5,0.1,0.5,0c-0.2-0.1-0.2-0.1-0.1-0.3c-0.1,0,0.2-0.1,0.2-0.1c0,0,0.1,0.6,0.1,0.6
		c0.1,0,0.2,0,0.2-0.1c-0.3,0,0.2-0.4,0.2-0.4c-0.1,0.1-0.1,0.3-0.1,0.4c0.1-0.2,0.2-0.5,0.1-0.7c0,0,0,0,0.1,0c0,0,0,0,0,0
		c0,0,0-0.1,0-0.1c0.1,0.1,0.2,0.1,0.3,0c-0.1-0.1-0.2,0-0.3,0c0.2-0.6,0.4,0.4,0.4,0.4c-0.2,0-0.6,0.8-0.3,0.9c0,0,0.5,0.1,0.5,0.1
		c0-0.1-0.1-0.4-0.1-0.6c0,0.1,0.1,0.1,0.1,0.1c-0.2-0.2,0.2-0.4,0.3-0.4c0.1,0.1-0.1,0.4-0.2,0.4c0.1,0,0.3,0,0.4,0
		c-0.1-0.2-0.1-0.3-0.2-0.5c0.1,0,0.2-0.1,0.3-0.2c0,0,0,0,0,0.1c0,0,0,0,0.1-0.1c0.1,0.2-0.2,0.2,0.1,0.2c0,0,0.1-0.3,0.2-0.2
		c0.1,0.4,0.4-0.1,0.2-0.4c0,0-0.1,0.1-0.1,0.1c0.1,0,0.1,0.1,0,0.2c0.1-0.1-0.5-0.4-0.5-0.4c0.2-0.1,0.3,0,0.5,0.2
		c-0.2-0.4,0.1-0.3,0.1-0.4c0.1,0.1,0.1,0.3,0,0.2c0-0.1,0-0.3-0.1,0c0.1,0.1,0.2,0.1,0.3-0.1c0,0.2,0.1,0.3,0.1,0.5
		c0,0,0.5-0.2,0.5-0.2c-0.2-0.1,0.2-0.3,0.3-0.1c0-0.2-0.2,0-0.2-0.2c0.2-0.1,0.3-0.2,0.1-0.5c0.2,0,0.3,0,0.5,0
		c0,0.2-0.1,0.3-0.1,0.5c0.5,0.1,1.4,0.7,2.1,0.4c0.1,0.1-0.3,0.9-0.7,0.6c0.1,0,0.2,0,0.1-0.1c0,0-0.1,0-0.1-0.1
		c0,0-0.3,0.4-0.3,0.5c-0.1-0.1,0-0.5,0-0.6c0,0,0,0,0-0.1c-0.1,0-0.3,0-0.3-0.1c0.1,1.2-0.5,0.4-1.2,1.1c0-0.1,0.1-0.2,0-0.2
		c-0.1,0-0.2,0-0.2,0.1c0.1,0,0.1,0.3,0.1,0.5c-0.1,0-0.4,0.1-0.3,0.4c0.1,0,0.2-0.1,0.3-0.2c0,0.5-1.1,1.2-1.2,1.1
		c0.1,0,0.2-0.1,0.2-0.2c-0.1,0.3-0.8-0.8-0.9-0.2c0.1-0.1,0.2,0,0.2,0.1c-0.2,0.3-0.3,0.3-0.6,0.2c0.1,0.1,0.2,0.3,0.1,0.4
		c0-0.1-0.1-0.4-0.2-0.5c0.1,0,0.2,0,0.3-0.1c-0.4-0.1-1-0.5-1.3,0.1c-0.1-0.7-0.6,0.4-0.6,0.4c-0.1-0.1-1.6-0.1-0.6,0.7
		c-0.3,0,0.2,1.2,0.3,1.4c0,0,0,0,0,0c0,0,0,0,0,0c0,0,0,0,0,0c-0.1,0-0.2,0-0.3-0.1c-0.5,1.9,1.6-0.5,1.6-0.5c0,0.2,0.2,0.8,0.4,1
		c-0.1,0-0.2,0.1-0.2,0.3c0.2,0,0.1,0.1,0.1,0.1c0.1-0.2,0.5-0.2,0.5-0.2c0,0-0.1,0.3-0.2,0.4c-0.1,0-0.2-0.1-0.3-0.1
		c-0.1,0.1-0.4,0.5-0.5,0.5c0,0.1,0,0.2,0,0.2c0.2-0.2-0.4,0.7-0.3,0.4c-0.1,0.1-0.2,0.3-0.4,0.5c-0.3-0.1,1,1.2,0.7,0.6
		c0.4-0.1,0.1,0.4,0.1,0.3c0.1,0,0.1,0.1,0.1,0.2c0.1,0,0.7-0.1,0.7-0.1c-0.1,0-0.1-0.3-0.1-0.5c0,0,0-0.1,0-0.1c0,0,0,0,0,0
		c0.1,0,0,0,0,0c0,0,0,0,0,0c0.1,0,0.1,0,0,0c0-0.1,0.1-0.2,0.1-0.2c-0.1,0.1,0,0.2,0.1,0.2c-0.1-0.4,0-0.2,0-0.4
		c0.1-0.2,0.3-0.2,0.5-0.1c0,0-0.2-0.4-0.1-0.4c-0.3,0.1-0.3,0.3-0.3,0.3c-0.3-0.1,0.2-0.3,0.2-0.4c0,0-0.9,0.3-0.5-0.1
		c0.2,0,0.3,0.3,0.4-0.2c0,0.3,0.3,0,0.3,0c-0.1,0-0.1-0.1-0.1-0.2c0.1,0.4,0.6-0.2,0.7-0.2c0,0,0,0,0,0.1c0.1-0.4,0.5-1.1,0.7-0.9
		c-0.1,0-0.1-0.1-0.1-0.2c0.7,0,0.5-1.3,0.8-1.1c-0.2-0.4,0.2-0.6,0.4-0.7c0,0-0.3-0.3-0.2-0.3c0.1,0.5,0.6-0.7,0.8-1
		c0,0.1,0,0.2,0,0.3c0.1-0.3,0.6-1,0.9-1c0,0,0.3,0.2,0.2,0.1c-0.1-0.3-0.1-0.7,0.2-0.8c0,0.1,0,0.2,0,0.2c0-0.3,0.5-0.5,0.6-0.7
		c0,0,0,0,0,0c0.1-0.1,0.2-0.2,0.2-0.3c0,0.1,0,0.1,0.1,0.1c0,0,0,0,0,0c0,0,0-0.2,0-0.2c0,0,0,0,0,0c0.1,0.1,0,0.2,0,0.4
		c0.1,0.1,0.1,0.3-0.1,0.3c0.1-0.1,0-0.1,0-0.2c-0.1,0.3-0.2,0.8-0.2,1.1c0,0,0.2,0.4,0,0.8c-0.3-0.1-0.9-0.2-1.1-0.2
		c0,0,0.1,0.6,0.1,0.7c0.2,0,0.2,0,0-0.2c0.2,0,0.2,0.1,0.1,0.3c0.1,0,0.6-0.2,0.6,0c0.1-0.1,0.1-0.1,0.2,0c-0.1,0-0.2,0-0.2,0.1
		c0-0.1,0.1-0.1,0.1,0c0,0-0.2,0.2-0.3,0.2c0,0,0.1,0.2,0.2,0.2c-0.1,0-0.1,0.1-0.2,0.1c0,0,0.1,0.1,0.1,0.1c-0.1,0.4,0-0.1,0.1,0.3
		c0,0.2-0.4-0.1-0.4-0.1c0,0.2,0.1,0.1,0.1,0.3c-0.6-0.5-0.5,0.8-0.5,1.1c-0.3,0.3-1,1.2-0.3,1.7c-0.6-0.1-0.6,1.1-1,1.4
		c0-0.2-0.1-0.2-0.1-0.1c0.1,0,0.1,0.1,0.1,0.2c-0.3-0.6-0.6-0.3-0.7-0.2c0.1,0.1,0.2,0.6,0.2,0.7c0,0-0.3,0.2-0.4,0.2
		c0,0.6,0.6,0.5,0.5,1.1c0.4,0.1,0.6,0.7,0.6,0.8c-0.3-0.1,0.2,0.3,0.2,0.3c0.4,0.2,0.2-0.2,0.5-0.2c0,0,0.1,0.3,0.1,0.2
		c0-0.1,0-0.3-0.1-0.3c0.2,0.3,0.3-0.3,0.4-0.3c-0.2,0.6-0.4,1.5-0.6,1.5c0,0.2-0.4,0.4-0.1,1c0.3,0.7,0.5,0,0.7-0.3c0,0,0,0,0,0.1
		c0,0,0.3,0,0.2-0.2c0.8-0.3,0,0.1,0.1-0.8c0.1,0,0.1-0.1,0.2-0.1c-0.1,0.1-0.1,0.2,0,0.3c0,0,0.5-0.2,0.5-0.2
		c-0.2-0.1,0.1-1,0.2-1.1c0,0.1,0.1,0.2,0.1,0.3c0.1-0.3,0.3-0.6,0.5-0.8c0,0.2,0.1,0.2,0.2,0.2c-0.1,0.4-0.2,1-0.3,1.3
		c0.1,0,0.2,0,0.2,0l0.5-0.8c-0.1,0-0.1,0.1-0.1,0.2c-0.1,0-0.1-0.1-0.1-0.2c0.1-0.2,0.3-0.2,0.5-0.1c0-0.6,0-0.5,0.5-0.6
		c-0.1,0.1-0.1,0.2,0,0.3c0-0.1,0.2-1.2,0.2-1.3c0,0-0.6-0.1-0.3-0.3c0.1,0.2,0.1,0.2,0.2,0.1c0,0,0,0-0.1-0.1
		c-0.1,0-0.3-0.2-0.2-0.3c-0.1,0.1-0.1,0.1-0.1,0.2c0-0.1,0.6-1.7,0.6-1.6c0,0-0.1,0-0.1-0.1c0.1,0,0.2-0.1,0.3-0.2
		c-0.1,0-0.1,0,0-0.1c0,0.2,0.3,0.6,0.3,0.6c-0.1-0.2,0-0.3,0.1-0.2c-0.1,0.1-0.1,0.1,0,0.1c0.2,0.1,0.1-0.2,0-0.3
		c0.5-0.2,0.2,0.4,0.6,0.8c-0.1,0-0.2,0-0.3,0c0,0,0,0,0.1,0c0,0,0,0,0,0c0,0,0,0,0,0c0.2,0.1,0.4,0.3,0.6,0.3
		c0.2-0.1,0.4-0.2,0.4-0.2c-0.1,0.1,0,0.1,0,0.1c0,0.1-0.1,0.1-0.2,0.2c0.6-0.1,1.1-0.4,1.7-0.2c0.2,0,0.4,0.1,0.6,0.1
		c0,0,0-0.1,0-0.1c0.1,0,0,0,0.1,0.1c0.1,0,0.1,0,0.2,0c-0.1-0.2-0.4-0.2,0-0.8c0.1-0.2,0.3-0.5,0.4-0.2c0.1-0.1,0.1-0.2,0.2-0.2
		c-0.1,0.1-0.1,0.2,0.1,0.3c0.2-0.2-0.2-0.5,0-0.7c0.1,0.4,0.7,0.3,0.8,0.2c0-0.2-0.2-0.2-0.2-0.2c0.1-0.4,0.3,0.2,0.4-0.3
		c0,0,0,0,0,0c-0.1-0.1-0.1-0.1-0.2-0.2c-0.1,0.2-0.2,0.3-0.2,0.2c-0.3,0.1-0.2,0-0.3-0.7c0,0,0.5,0.3,0.6,0c0,0.1-0.3,0.3-0.2,0.3
		c0,0,0.4-0.2,0.1-0.4c0-0.2,0.2,0.1,0.2,0c0,0-0.1,0.2-0.2,0.4c0.2-0.2,0.4,0,0.6-0.1c-0.1-0.2-0.2-0.4-0.2-0.6
		c0.1,0,0.2,0.2,0.2,0.3c0.1,0,0.6,0.3,1,0.3l0,31.5c0,0,0,0,0,0c0,0,0,0,0,0c0,7.7-6.3,14-14,14c-0.3,0-0.6,0-1,0c0,0,0,0,0,0H63.5
		c-0.1,0-0.1,0-0.2,0v0c-0.1,0-0.1,0-0.2,0c-0.2,0-0.3,0-0.5,0c-2.6,0-4.8-1.7-5.4-4.1l0,0l-1-2.4h0L32.9,64.4
		c-0.7-1.6-2.1-1.3-2.1,0.5v37.9v19.9c0,0.1,0,0.3,0,0.4v2.5c0,1.3-1.1,2.4-2.4,2.4h-2.9h-1.1H2.4c-1.3,0-2.4-1.1-2.4-2.4v-22.8V9.4
		V8.2V5.3C0,4,1.1,2.9,2.4,2.9h2.9h1.1h25.2c0.1,0,0.1,0,0.2,0c4.6,0,4.5,0.3,6.1,4.1l1,2.4l23.4,57.2c0.7,1.6,2.1,1.3,2.1-0.5V8.2
		c0,0,0-0.1,0-0.1V5.3c0-1.3,1.1-2.4,2.4-2.4h2.5c0.1,0,0.3,0,0.4,0h18.9h5.3c1.3,0,2.4,1.1,2.4,2.4v4.1v7.4
		c5.8-9.2,16-16.8,38.2-16.8h5.4c0,0,0,0,0,0h0h2.4l0,0c28,0.7,37.6,14,40.8,26.7c1.4,5.5,1.7,12.3,1.7,15.7v6.9
		c-0.3,1-1.2,1.8-2.3,1.8h-2.9h-1.1h-21.9c-1.2,0-2.1-0.8-2.4-1.9C154.2,49.2,154.2,48.8,154.2,48.6
		C154.2,48.6,154.2,48.6,154.2,48.6z M84.6,77.1C84.6,77.1,84.7,77.2,84.6,77.1C84.7,77.1,84.7,77.1,84.6,77.1z M78.8,82.3
		C78.8,82.4,78.8,82.4,78.8,82.3C78.8,82.3,78.8,82.3,78.8,82.3z M93.5,83.2c0.1,0,0.1-0.1,0-0.2C93.6,83.1,93.6,83.2,93.5,83.2z
		 M92.8,84.2C92.8,84.3,92.8,84.3,92.8,84.2C92.8,84.2,92.8,84.2,92.8,84.2z M87.9,85.1c0.2,0,0.1-0.2,0-0.3
		C87.9,85,87.9,85.1,87.9,85.1z M80.5,82.9c0.1,0.3,0.1-0.2,0.1-0.2C80.4,82.8,80.4,82.8,80.5,82.9z M80.4,83.9
		C80.4,83.9,80.4,83.9,80.4,83.9C80.3,83.9,80.3,83.9,80.4,83.9z M82.1,53.2c0.1,0,0.1,0,0.1-0.1C82.2,53.1,82.1,53.1,82.1,53.2z
		 M91.2,36.4c0,0.2,0.2,0.2,0.2,0C91.2,36.2,91.3,36.5,91.2,36.4z M115.7,48.8C115.8,48.8,115.9,48.9,115.7,48.8
		C115.7,48.8,115.7,48.8,115.7,48.8C115.7,48.8,115.6,48.8,115.7,48.8C115.7,48.9,115.7,48.8,115.7,48.8z M114.8,60.6
		c-0.1-0.1-0.1-0.2-0.2-0.2c0.1,0,0-0.1,0,0C114.5,60.3,114.8,60.8,114.8,60.6z M118.7,74.2c-0.1-0.4-0.2-0.4-0.3-0.1
		C118.3,74.4,118.4,74.4,118.7,74.2z M120.3,71.7c0-0.2-0.1-0.1-0.1,0.2C120.3,72.1,120.3,71.7,120.3,71.7z M111.8,83.9
		C111.8,84,111.8,84,111.8,83.9c0.1,0.1,0.2,0.2,0.3,0.2C111.8,83.9,112,83.9,111.8,83.9z M111.6,84.1c0.1,0,0.3,0.3,0.4,0
		C111.8,84.2,111.7,84.1,111.6,84.1z M111.4,83.6C111.5,83.7,111.5,83.7,111.4,83.6C111.5,83.6,111.5,83.6,111.4,83.6z M111.3,84.6
		C111.3,84.6,111.3,84.6,111.3,84.6C111.4,84.6,111.4,84.6,111.3,84.6z M109.3,82.1c0,0,0-0.1,0-0.1C109.3,82,109.3,82.1,109.3,82.1
		L109.3,82.1C109.3,82.1,109.3,82.1,109.3,82.1c0.2,0.1,0.2,0,0.2-0.2C109.4,82,109.4,82,109.3,82.1c0.1-0.1,0-0.1,0-0.1
		C109.2,82,109.2,82.1,109.3,82.1z M108.6,82c0.1,0.3,0.5,0,0.5,0c-0.3,0-0.1,0-0.2,0c-0.1-0.1,0,0,0,0
		C108.9,82.2,108.8,81.9,108.6,82z M101.5,80.1C101.5,80.2,101.5,80.2,101.5,80.1C101.5,80.1,101.5,80.1,101.5,80.1z M100,82.6
		C100,82.6,100,82.6,100,82.6C100,82.6,100,82.6,100,82.6c-0.1-0.1-0.1-0.1-0.1,0c-0.1,0.1-0.1,0.1,0,0.1c0-0.1,0-0.1,0-0.1
		C100,82.6,100,82.6,100,82.6c-0.1,0.1-0.1,0.2-0.1,0.3C100.1,82.9,100.1,82.7,100,82.6z M99.9,82.9c0,0.1,0,0.2,0,0.2
		C100,83,100.1,82.9,99.9,82.9z M99.9,82c0.1,0,0.1,0.1,0.1,0.1C100,82.1,100,82,99.9,82C99.9,82.1,99.8,82.1,99.9,82z M99.9,82.3
		c0,0-0.1,0-0.1,0C100.1,82.3,100,82.3,99.9,82.3C100,82.3,100,82.2,99.9,82.3C100,82.2,99.9,82.3,99.9,82.3
		C99.9,82.3,99.9,82.3,99.9,82.3z M99.8,83.2c0,0,0.1,0,0.1-0.1C99.9,83.1,99.8,83,99.8,83.2z M99.9,82.9
		C99.9,83,100,82.9,99.9,82.9L99.9,82.9z M85.2,80.8C85.2,80.9,85.2,80.9,85.2,80.8c-0.1,0.2-0.1,0.3-0.1,0.4c0,0,0,0,0-0.1
		c0.3-0.2,0.1,0.1,0,0.3c0,0-0.1,0,0,0.1c0.1-0.1,0.2-0.2,0.3-0.2C85.4,81,85.3,80.9,85.2,80.8z M79.2,76.6
		C79.2,76.6,79.2,76.6,79.2,76.6C79.2,76.7,79.2,76.7,79.2,76.6z M77.8,75.8c0,0.2-0.2,0-0.2,0c0,0.1-0.1,0.2,0.1,0.3
		C77.7,76.2,77.8,75.8,77.8,75.8z M79.3,76.4C79.3,76.4,79.3,76.3,79.3,76.4C79.3,76.3,79.3,76.3,79.3,76.4
		C79.2,76.3,79.2,76.3,79.3,76.4C79.3,76.4,79.3,76.4,79.3,76.4z M77.2,71c0.1,0.1,0.3,0.3,0.4,0.1C77.4,71.1,77.3,70.9,77.2,71z
		 M76.8,71.2C76.8,71.2,76.8,71.2,76.8,71.2c0,0.3,0.1,0.1,0.2,0.3c0.1-0.4,0.1-0.3-0.2-0.4C76.8,71.1,76.8,71.2,76.8,71.2z
		 M77.8,76.4c0,0.1,0,0.3,0.1,0.3C78.3,76.7,77.9,76.4,77.8,76.4z M79.8,67.3c-0.1-0.3-0.3-0.3-0.5,0c0.2,0.2,0.2,0.1,0.2,0.1
		C79.7,67.5,79.7,67.2,79.8,67.3z M77.9,75.9c0,0.3-0.1,0,0.1,0.2C78.1,75.9,78.3,76,77.9,75.9z M86.7,61.3c-0.2,0-0.2,0.3-0.3,0.1
		c0,0.3,0.1,0.3,0.3,0.3C86.7,61.4,86.7,61.5,86.7,61.3z M85.8,86.9C85.8,86.9,85.8,86.9,85.8,86.9C85.8,86.9,85.8,86.9,85.8,86.9
		C85.8,86.9,85.8,86.9,85.8,86.9z M76.4,76.2c-0.1-0.3-0.2-0.5-0.5-0.5c0,0.1,0,0.1,0,0.1c-0.1,0-0.1,0-0.2,0
		c0.4,0.1-0.3,0.2-0.1,0.4c0.3,0.2,0,0,0.2,0.2c0.1-0.2,0.1-0.3-0.1-0.4c0.1,0,0.2,0,0.3,0C76.1,76.1,76.1,76.1,76.4,76.2
		C75.9,76,76.1,76.3,76.4,76.2z M84.2,62.6c-0.1,0.1,0,0.2,0,0.3c0,0,0.1,0,0.2-0.1c0,0.1,0,0.1,0.1,0.1c0.1,0,0.1-0.1,0.1-0.2
		c-0.3,0-0.1-0.3-0.1-0.4c0,0-0.1,0-0.1,0c-0.1-0.1-0.1,0.2-0.1,0.4C84.4,62.7,84.3,62.7,84.2,62.6C84.3,63,84.2,62.6,84.2,62.6z
		 M86.4,82.4c0.3-0.1,0.2-0.3,0-0.3c0,0.2-0.1,0.3-0.2,0.2c0.3,0,0-0.3,0-0.3c0,0.4,0,0.1-0.1,0.1C85.9,82.3,86.4,82.3,86.4,82.4z
		 M80.1,76.4c0,0.1,0,0.3,0.1,0.3c0,0,0,0,0,0c0-0.1,0-0.8-0.3-0.7c0,0.2,0,0.4,0,0.6C80,76.5,80,76.5,80.1,76.4z M80.4,76.1
		c0.1-0.2,0.1-0.3,0-0.3c0,0,0,0,0,0C80.4,75.8,79.8,76.1,80.4,76.1z M84.5,75.9c0.1,0,0.1,0,0.1-0.1C84.5,75.5,84.4,76,84.5,75.9
		C84.5,75.9,84.5,75.9,84.5,75.9z M83.6,76c0-0.2,0.4-0.3,0.3-0.5c-0.3,0.4-0.3-0.5-0.3-0.7c0,0,0.2,0.1,0.3,0.2
		c0.1-0.3,0-0.5-0.3-0.7c0,0.1,0,0.2-0.1,0.2c0.1,0,0.1-0.1,0.1,0.1c-0.2-0.2-0.8,0.4-0.8,0.5c0.1,0,0.2,0,0.3,0
		c0,0.1-0.2-0.1-0.1,0.1c0.2,0.1,0.3,0.7,0.2,0.7C83.5,75.8,83.1,76,83.6,76z M86.5,59.9c0,0.1,0,0.2,0,0.2
		C86.6,60.1,86.7,59.9,86.5,59.9z M77.7,79.4c0,0.1,0.2,0.6,0.2,0.2C78,79.6,77.8,79.4,77.7,79.4z M79.1,84.7c0.1-0.2,0.1-0.4,0-0.6
		c-0.1,0.1-0.1,0.1-0.2,0C79.2,84.4,78.8,84.8,79.1,84.7z M81.5,80.9c0.1-0.5-0.6,0.3-0.9,0.2c0.2,0,0.2-0.1,0-0.2
		c-0.1,0.4-0.6,1.2-0.8,1c0.1,0.8,1.2-0.5,1.3-0.5c0,0,0,0,0,0C81.1,81.2,81.3,81,81.5,80.9z M81.6,79.9
		C81.6,79.9,81.6,80,81.6,79.9c0,0.2,0.1,0.3,0.1,0.1C81.6,80,82,79.6,81.6,79.9z M83.9,83.7C83.8,83.7,83.8,83.7,83.9,83.7
		c0-0.3-0.2,0-0.1-0.2C83.6,83.5,83.7,83.7,83.9,83.7z M89.9,26c0-0.4-0.1-0.2-0.1-0.1C89.5,25.9,90.1,26,89.9,26z M84.1,83.8
		c0-0.1,0-0.2,0-0.3c-0.1,0-0.1,0-0.1,0c0,0-0.2-0.4-0.3,0c0.1,0.1,0.2,0.1,0.3,0C83.9,83.5,84.1,83.8,84.1,83.8z M83.6,87.3
		C83.6,87.3,83.6,87.4,83.6,87.3c0.1-0.1,0.2-0.3,0.3-0.4c-0.1,0.2-0.2,0.2-0.4,0.3C83.5,87.1,83.6,87.2,83.6,87.3z M75.3,74.7
		C75.3,74.7,75.3,74.7,75.3,74.7c0.1-0.1,0.1-0.1,0.2-0.1c0,0,0,0,0,0c0,0,0,0,0,0c0,0,0,0,0,0l0,0c-0.1-0.1-0.2-0.1-0.3-0.1
		C75.2,74.7,75.2,74.7,75.3,74.7z M75.8,79c-0.1,0.2,0,0.2,0.1,0.2C76.1,79,75.9,78.9,75.8,79z M75.3,74.3c-0.1-0.3,0-0.1-0.2-0.2
		C75.1,74.2,75.2,74.2,75.3,74.3z M75.6,74.7c0,0-0.1-0.1-0.1-0.1C75.5,74.7,75.5,74.7,75.6,74.7z M82.2,79.1
		c0.1-0.2,0.2-0.5,0.1-0.8C82.1,78.9,81.7,77.9,82.2,79.1z M75,74.2C75.1,74,74.9,74.1,75,74.2L75,74.2z M83.6,77.6
		c-0.1-0.3-0.6,0.1-1.1-0.2c0.1,0.2,0.1,0.2,0.1,0.2c-0.1,0.1-0.2,0-0.4-0.1c-0.1,0.3-0.3,0.9-0.3,0.8c0.2,0,0.2-0.2,0.2-0.4
		C82.4,78.2,83.3,77.5,83.6,77.6z M82.6,77.6c-0.1-0.1-0.1-0.1-0.1-0.2c0-0.1,0,0-0.1,0.2C82.4,77.5,82.5,77.5,82.6,77.6z
		 M82.3,77.5C82.3,77.5,82.3,77.5,82.3,77.5C82.3,77.5,82.3,77.5,82.3,77.5C82.3,77.5,82.3,77.5,82.3,77.5z M83.2,85.9
		c0.1-0.1,0.2-0.2,0.3-0.2C83.3,85,82.8,85.8,83.2,85.9z M84.6,81.8L84.6,81.8L84.6,81.8L84.6,81.8z M85.1,74.1
		C85.1,74,84.8,74.3,85.1,74.1L85.1,74.1z M83.5,51.8c0.1,0,0.2,0,0.3-0.1c0-0.2,0-0.4,0.1-0.6C83.8,51.2,83.5,51.6,83.5,51.8z
		 M83.4,51.4c-0.2,0-0.2,0.1-0.2,0.2c0-0.1,0-0.2,0-0.3c-0.1,0-0.2,0.2-0.2,0.2c0,0,0,0,0,0c0.1,0,0.1,0.7,0.2,0.1c0,0,0,0,0,0
		c0,0,0,0,0,0C83.3,51.6,83.4,51.5,83.4,51.4z M84.7,81.8C84.6,81.8,84.6,81.8,84.7,81.8c-0.2,0.1-0.2,0.3-0.2,0.3
		C84.8,82.1,84.6,81.9,84.7,81.8z M85.1,83c0-0.2,0.1-0.3,0.3-0.3c0-0.2-0.3-0.1-0.2-0.1c0,0.1,0,0.1,0,0.2
		C84.8,82.8,85.1,83,85.1,83z M77,70.1C77,70.1,77,70.1,77,70.1C77,70.2,77.1,70.1,77,70.1C77,70.1,77,70.1,77,70.1z M85.1,81.1
		c0,0,0,0.1,0,0.2C85.1,81.2,85.1,81.2,85.1,81.1z M84.6,81.8c0.2,0,0.2-0.2,0.2-0.3c0,0,0,0.1,0,0.2c0.1,0,0.1,0,0,0
		c0.1-0.1,0.2-0.3,0.2-0.3C84.9,81.1,84.7,81.5,84.6,81.8z M90.2,35.9c-0.1,0.4,0.4-0.1,0.4-0.1C90.5,35.3,90.3,36,90.2,35.9z
		 M90.3,26.9C90.2,26.9,90.2,26.9,90.3,26.9C90.2,26.9,90.3,26.9,90.3,26.9z M84.6,49.6c0.1,0-0.2-0.1-0.2-0.1
		C84.2,49.8,84.6,49.8,84.6,49.6z M89.9,27.6c-0.1-0.1,0.1,0.2,0.1,0.2C90.3,27.8,89.9,27.7,89.9,27.6z M100,54.9
		C100,54.9,100,54.9,100,54.9C100.1,54.9,100.1,54.9,100,54.9z M89.7,33.6c0-0.1,0.1-0.3-0.1-0.3C89.6,33.4,89.6,33.4,89.7,33.6z
		 M87.6,35.2c0-0.1,0.1-0.2-0.1-0.3C87.5,34.9,87.5,35.2,87.6,35.2C87.5,35.2,87.5,35.2,87.6,35.2z M89,35.5c0,0.2,0,0.3,0.2,0.3
		C89.1,35.7,89.2,35.4,89,35.5z M85.9,62.8C85.8,62.8,85.8,62.8,85.9,62.8C85.8,62.8,85.8,62.8,85.9,62.8z M86.1,62.2
		c0-0.1,0-0.1-0.1-0.2c-0.1,0.2-0.2,0.5-0.2,0.7c0,0,0.2,0.3,0.1,0.2c0.7,1,0.5-1.8,0.2-1.3C86.1,61.8,86.4,62,86.1,62.2z
		 M86.1,86.9c-0.1,0.1-0.2,0.1-0.2,0C85.9,87.1,86,87.2,86.1,86.9z M86.5,60.2c0,0-0.1,0-0.1-0.1c0,0,0,0.1,0,0.1
		C86.4,60.2,86.5,60.2,86.5,60.2z M85.6,63.7c0,0.1,0.1,0.3,0.2,0.4c-0.1-0.1-0.1,0,0,0.1C85.7,63.8,86,63.9,85.6,63.7z M86.1,83
		c0-0.2,0-0.4,0-0.4c0.1-0.2-0.4,0-0.5-0.1C85.6,82.8,85.8,83,86.1,83z M86,86.8C86,86.8,86,86.7,86,86.8c-0.1-0.5,0.2-0.8-0.1-1.3
		c0,0.2-0.1,0.1-0.1,0c0,0.3,0,1,0,1.4C85.9,86.9,86,86.9,86,86.8z M85.8,85.5c0-0.1,0-0.2,0-0.2C85.8,85.3,85.8,85.4,85.8,85.5z
		 M85.7,60.4C85.7,60.5,85.8,60.4,85.7,60.4c-0.1,0-0.2,0-0.3,0C85.4,60.9,85.6,60.6,85.7,60.4z M85.2,60.5c0,0.1-0.1,0.2-0.2,0.1
		c0,0,0,0,0,0c0.1,0.1,0.2,0.2,0.3,0.2C85.3,60.7,85.3,60.6,85.2,60.5z M84.9,75c-0.1,0.1,0,0.3-0.2,0.3c0.1,0,0.4,0,0.4,0
		C85.2,75.1,84.9,75,84.9,75z M85.5,74.8c0.1,0,0,0.1,0.1,0.1c0.1-0.2,0.5-0.7,0.5-0.8c0,0-1,0-1,0c-0.3,0.1,0,0.7,0.2,0.6
		c0-0.1,0-0.1,0.1-0.2c0,0-0.1,0.4-0.1,0.5C85.3,75,85.3,74.9,85.5,74.8C85.4,74.9,85.4,74.9,85.5,74.8z M85.1,75.3
		C85.1,75.4,85.2,75.2,85.1,75.3L85.1,75.3z M85,60.6C85,60.6,85,60.6,85,60.6C85,60.7,85,60.7,85,60.6z M85.7,61.3
		c0,0.1,0.1,0.3,0.1,0.3C85.7,61.5,85.7,61.4,85.7,61.3z M85.7,61.7c0,0-0.2-0.3-0.2-0.3c0.1-0.1,0.1-0.1,0.2-0.1c0-0.1,0-0.1,0-0.1
		c0.1,0,0.1-0.4-0.1-0.3C84.7,61.1,85.6,62.3,85.7,61.7z M85.5,60.9C85.6,60.8,85.2,60.9,85.5,60.9L85.5,60.9z M90.2,26.8
		C90.2,26.9,90.2,26.9,90.2,26.8c0.2,0,0.2,0,0.3-0.1C90.3,26.8,90.2,26.2,90.2,26.8z M103.1,69C103.1,69,103.1,69,103.1,69
		c0,0.2,0,0.3-0.1,0.3C103.2,69.2,103.2,69.1,103.1,69z M102.6,57.2c-0.2,0.2-0.2,0.1-0.4,0.1C102.3,57.3,102.7,57.6,102.6,57.2z
		 M102.4,72.8c0-0.3,0.6-0.5,0.8-0.6c-0.4-0.1-0.7-0.5-1.3-0.2C102,72.6,102.1,72.4,102.4,72.8z M103,69.2c-0.1,0.1-0.1,0.2-0.1,0.3
		C103,69.4,103,69.3,103,69.2z M102.6,62.6C102.6,62.5,102.6,62.5,102.6,62.6c-0.1-0.2-0.4-0.2-0.3,0
		C102.3,62.7,102.5,62.5,102.6,62.6z M102.5,67.7c0.1-0.2,0.2-0.4,0.2-0.4c-0.2-0.2-0.3,0.5-0.3,0.6c0.1-0.1,0.3,0,0.3,0.1
		c-0.4,0.2,0.2,0.9,0.3,1.3c0.1-0.1,0.1-0.2,0.2-0.2c0-0.4,0-1.1-0.1-1.3c0,0,0,0,0-0.1C102.4,68.2,102.7,67.5,102.5,67.7z
		 M101.7,70c0,0,0.5-0.7,0.6-0.8c-0.1-0.2-0.1-0.4-0.4-0.3c0,0.1-0.5,0.6-0.3,0.9C101.5,69.8,101.5,69.8,101.7,70z M102.7,66.7
		c-0.1-0.2-0.2-0.3-0.3-0.2C102.5,66.7,102.5,66.6,102.7,66.7C102.7,66.7,102.7,66.7,102.7,66.7z M98.4,70.7c0-0.1-0.1-0.4-0.2-0.6
		c0,0.1-0.3,0.2-0.1,0.2C98.1,70.1,98.3,70.6,98.4,70.7z M99.8,69.4c-0.1-0.1-0.2-0.2-0.3-0.2c0-0.1,0.1-0.2,0.2-0.2
		c0,0-0.3-0.1-0.2-0.3c-0.1,0.1-0.5,0.4,0-0.1c-0.1-0.1-0.2,0-0.3,0.1c0.3,0.1-0.1,0-0.1-0.1c0.4-0.1,0.5-0.7-0.2-0.6
		c0,0,0.1,1,0.3,0.7C99.5,69.1,99.4,69.3,99.8,69.4z M99.7,68.1C99.6,68.1,99.6,68,99.7,68.1C99.6,68.2,99.7,68.1,99.7,68.1z
		 M99.8,67.8c0,0.2-0.1,0.3-0.2,0.2c0,0,0,0.1,0,0.1C99.7,68.2,100,67.9,99.8,67.8z M101.4,56.7c-0.1,0.1-0.6,0-0.3,0.5
		c-0.2,0-0.1-0.3-0.2-0.3c0,0.1-0.1,0.1-0.2,0.2c0.2,0,0.1,0,0.2,0.2c-0.1,0-0.3,0.1-0.3-0.2c0,0.2,0,0.2,0,0.3c0.3,0.2,0,0,0.2,0.2
		c-0.1-0.1-0.1-0.1-0.2,0c0.1,0.1,0.1,0.1,0,0.2c0.1,0,0.1,0,0.1,0c0,0,0,0,0,0.1c0,0.1,0.4-0.3,0.4-0.3
		C101.1,57.5,101.5,56.7,101.4,56.7z M99.2,68.7C99,69.1,99.4,68.9,99.2,68.7L99.2,68.7z M100.4,68c0.2,0.2,0.3,0,0.3-0.2
		C100.6,67.8,100.6,67.9,100.4,68z M101.2,63.9c0,0,0.1,0,0.1,0C101,63.7,101.3,63.9,101.2,63.9c-0.1-0.1-0.2-0.3-0.3-0.4
		c-0.1,0.1-0.1,0.3-0.1,0.4c0.1,0,0.1,0,0.1,0c0,0,0,0.1,0,0.1c0.1,0,0.3,0.1,0.4,0.2C101.4,64,101.3,63.9,101.2,63.9z M100.9,65.8
		c-0.1,0-0.2,0.1-0.2,0C100.7,65.8,100.7,66.4,100.9,65.8z M103.1,64.6C103.1,64.6,103.1,64.6,103.1,64.6c0-0.1,0-0.2,0-0.2
		C102.9,64.4,103.1,64.6,103.1,64.6z M106.7,57.2C106.7,57.3,106.7,57.3,106.7,57.2c0,0-0.1-0.1-0.3-0.1c0-0.2,0.1-0.5-0.2-0.5
		c0,0.1,0,0.2,0,0.3c0,0,0,0.1,0,0.1c0.1,0,0.5,0.2,0.4,0.4c0,0,0.1,0,0.1,0c0,0.1,0,0.1-0.1,0.2c0-0.1-0.2,0.1,0,0
		C106.5,57.7,107.2,57.5,106.7,57.2z M104,58.1c-0.1,0.1,0,0.3,0,0.4C104.1,58.4,104.2,58.1,104,58.1z M105.1,57.5
		c0,0,0.3,0.2,0.3,0.2C105.4,57.7,105.4,57.3,105.1,57.5z M105,57.5c0-0.1-0.2,0-0.2,0.1c0,0-0.1,0,0,0.1
		C104.8,57.7,105,57.8,105,57.5z M105.9,55.7c0.5,0.4,0.8,0.8,0.9,0.3c-0.1-0.2-0.6,0-0.6-0.2c0,0,0.1-0.1,0,0c0,0,0-0.5,0-0.5
		C106.1,55.4,105.9,55.6,105.9,55.7z M106.1,58.4C106.1,58.4,106.1,58.4,106.1,58.4C106,58.3,106,58.4,106.1,58.4z M103.3,64.6
		c0,0.1,0.1,0.3,0.2,0.3C103.5,64.7,103.5,64.6,103.3,64.6z M107.3,58.1c0-0.1-0.2-0.3-0.4-0.3c0,0,0,0.1,0,0.1
		C106.9,58.1,107.3,58.1,107.3,58.1z M106.8,58C106.8,57.9,106.8,57.9,106.8,58C106.8,57.9,106.8,58,106.8,58z M104.3,67.1
		C104.3,67.1,104.3,67.2,104.3,67.1c0.1-0.1,0.1-0.2,0.1-0.4c-0.1-0.1-0.2,0-0.3,0c0,0,0.1,0.2,0.2,0.2
		C104,67.2,104.2,67.1,104.3,67.1z M104.3,65.7c0,0.2-0.2-0.1-0.3-0.2c0,0.1-0.1,0.1-0.2,0.2c0.3,0.3,0.2,0,0.4,0.4
		C104.3,66.1,104.4,65.8,104.3,65.7C104.4,65.7,104.4,65.6,104.3,65.7z M102.8,57.7c-0.1-0.2,0.2,0,0.2-0.3
		c-0.1-0.1-0.2-0.2-0.3-0.1C102.8,57.4,102.8,57.5,102.8,57.7C102.7,57.6,102.7,57.8,102.8,57.7z M103.5,54.7c0.2,0,0.2-0.1,0.3-0.4
		C103.5,54.4,103.6,54.4,103.5,54.7z M103.7,65.1c0.1,0,0.2-0.1,0.3-0.3c0,0-0.1-0.1-0.1-0.1c-0.1,0-0.1,0-0.2,0c0,0,0-0.1-0.1,0
		c0.1,0,0.1,0,0.1,0.1C103.6,64.7,103.5,64.8,103.7,65.1z M103.5,54.5c0.1-0.3,0-0.3,0.2-0.3c0,0-0.1-0.4-0.3-0.1
		C103.6,54.2,103.2,54.5,103.5,54.5z M104,54.2C104,54.1,104,54.1,104,54.2c-0.1,0-0.2,0.1-0.3,0.1C103.8,54.5,104.1,54.4,104,54.2z
		 M106.1,57.7c-0.1,0.2-0.1,0.6,0,0.7c0,0,0,0,0,0C106.2,58.5,106.1,57.7,106.1,57.7z M103.7,53.8c0-0.1,0-0.1-0.1-0.1
		c0-0.1,0.3,0.2,0.3,0.2c0-0.4,0.1-0.4-0.1-0.2c0-0.1,0.1-0.3-0.2-0.3C103.5,53.6,103.3,53.9,103.7,53.8z M100.5,68.9
		C100.4,69,100.4,69,100.5,68.9C100.5,69,100.5,69,100.5,68.9z M100.4,68.9C100.4,68.9,100.4,68.9,100.4,68.9
		c0.1-0.1,0.2-0.1,0.2-0.2C100.4,68.4,100.4,68.8,100.4,68.9z M100.5,55.7C100.5,55.7,100.5,55.7,100.5,55.7
		C100.5,55.7,100.5,55.7,100.5,55.7c0.1,0,0.2,0,0.3,0c-0.1-0.2-0.1-0.4-0.1-0.7c0,0.2-0.2,0.4-0.3,0.4c0,0.1,0.1,0.1,0.1,0.1
		c0,0,0.1,0,0.2-0.2C100.7,55.5,100.6,55.6,100.5,55.7C100.5,55.7,100.5,55.7,100.5,55.7z M99.9,67.6c0.1,0,0.2,0,0.2,0.1
		c0-0.2,0.4-0.2,0.5-0.2c-0.1-0.1-0.2-0.1-0.3-0.2C100.3,67.8,100.1,67.3,99.9,67.6z M99.8,55.4c0.1,0,0.3-0.4,0.3-0.4
		c-0.1,0-0.1,0-0.1,0c0,0,0,0,0,0C99.8,55,99.8,55.2,99.8,55.4z M99.8,63c0,0.1,0.1,0.1,0.1,0.1c0.1,0.1,0.2,0.1,0.3-0.1
		C99.9,62.7,99.8,63,99.8,63z M100,66.2c0.1,0.2-0.4-1.3-0.5-0.4C99.6,65.9,100,66.4,100,66.2z M99.7,66.9c0,0,0.2-0.2,0.3-0.2
		C99.8,66.4,99.4,67,99.7,66.9z M100.1,66.8c0,0-0.1,0.2-0.2,0.2c0,0,0,0,0,0C100.2,67.2,100.2,66.8,100.1,66.8z M100.9,53.3
		C100.9,53.5,100.8,53.5,100.9,53.3c-0.1,0.1-0.2,0.2-0.2,0.2c0.2,0.4,0.6-0.7,0.7,0.6c-0.5-0.2-0.7,0.8-1.3,0.8
		c0-0.1-0.2-0.2,0-0.2c-0.1-0.5-0.2,0.4-0.2-0.2c-0.1,0.1-0.2,0.2-0.3,0.2c0-0.1,0-0.2-0.1-0.3c0.1-0.1,0.1,0,0.1,0.1
		c0-0.1-0.1-0.6-0.1-0.6c0.1-0.4,0.6-0.9,1.3-0.9C100.9,53.4,100.4,53.4,100.9,53.3z M100.3,53.6C100,53.6,100.2,53.8,100.3,53.6
		L100.3,53.6z M101,52.9c0,0.4,0.7,0.2,0.8,0.2c0.1-0.2,0.1-0.3,0.1-0.5c0,0-0.1,0-0.1,0.1c0-0.1,0.1-0.2,0.2-0.2
		c-0.1,0-0.3-0.3-0.2-0.4c-0.3,0-0.4,0.3-0.5,0.3c0,0,0.3,0.4,0.1,0.4c0,0-0.2-0.3-0.1-0.2c0,0.1,0,0.2,0.1,0.3c-0.1,0-0.1,0-0.1,0
		c0,0-0.1,0-0.1-0.1C101.1,52.9,101.1,52.9,101,52.9z M100.3,53.6C100.2,53.6,100.2,53.7,100.3,53.6L100.3,53.6z M101.4,51.6
		C101.3,51.5,101.4,51.9,101.4,51.6L101.4,51.6z M101.7,51.9c-0.1-0.1-0.2-0.1-0.3-0.3c0,0.1,0.1,0.2,0.1,0.3
		C101.5,52,101.6,52,101.7,51.9z M100.8,52c-0.1,0,0.2,0.5,0.2,0.2C100.9,52.1,101,51.7,100.8,52z M100.9,55.8
		c0.2,0.2,0.5-0.3,0.1-0.2c0,0,0,0,0,0C101.1,55.8,101.1,55.9,100.9,55.8z M102,66.4c-0.1-0.2-0.4,0.3-0.2,0.4c-0.1-0.1,0-0.2,0,0
		c0-0.2,0.1-0.2,0.2-0.2c0,0-0.1,0-0.1-0.1C102,66.5,102,66.5,102,66.4z M99,57.9c-0.2-0.3-0.6,0.6,0,0.4c0,0,0,0.5-0.2,0.3
		c0.1,0.3,0.1,0.3,0.1,0.2C98.9,59,99,59,99.1,59c0-0.1,0-0.1,0.1-0.1c-0.1,0,0,0.1,0,0c0,0,0,0,0,0c0.1,0,0.1,0,0.2,0
		c0-0.2-0.3-0.1-0.1-0.2c0,0,0.1,0,0.2,0C99.6,57.8,98.9,57.5,99,57.9z M98.9,50.8c0,0.1,0,0.2,0.1,0.3C99.1,51.1,99,50.9,98.9,50.8
		z M99,51.1C99,51.1,98.9,51.3,99,51.1L99,51.1z M98.7,51c0.3,0.2,0-0.2,0.1-0.2C98.8,50.7,98.7,50.8,98.7,51z M98.5,64.5
		c-0.4,0.6,0.3,0.1,0.3,0C98.4,64.6,98.6,64.5,98.5,64.5z M98.9,50.8C98.9,50.8,98.9,50.8,98.9,50.8C98.9,50.8,98.9,50.8,98.9,50.8
		C98.9,50.8,98.9,50.8,98.9,50.8z M99,66.9C99,66.7,99,66.7,99,66.9c0-0.2-0.1-0.3-0.1-0.4C98.6,66.7,98.6,66.8,99,66.9z M98.3,44.4
		C98.4,44.4,98.3,44.3,98.3,44.4L98.3,44.4z M99.2,64.4c0,0.2-0.2,0.3,0.1,0.3C99.3,64.6,99.3,64.5,99.2,64.4z M100.4,63.3
		c0.2-0.3-0.1-0.4,0.1-0.7c-0.2,0,0,0.2-0.2,0.2c0,0.1,0,0.1,0,0.1C100.3,63,100.4,63.2,100.4,63.3z M97.8,73.7
		c-0.1,0,0.1,0.4,0.2,0.3c0,0,0,0,0-0.1C98.2,74,97.8,73.5,97.8,73.7z M99.5,58.7c0,0.1,0,0.1,0,0.2C99.5,58.8,99.5,58.7,99.5,58.7z
		 M100.4,55.7c0-0.1,0-0.1,0-0.1c-0.1,0-0.1-0.1-0.1-0.2c-0.1,0-0.1,0-0.1,0C100.2,55.7,100.3,55.8,100.4,55.7z M98.1,68.4
		c0.2,0.3,0.1,0.9,0.5,0.2c-0.2,0.1-0.1-0.1-0.1-0.1c-0.2-0.1,0,0.3-0.2,0.3c-0.1,0.1,0-0.3,0-0.4C98.3,68.3,98.2,68.4,98.1,68.4
		C98.1,68.4,98.1,68.5,98.1,68.4z M99.2,67.4c-0.2,0.1-0.2-0.1-0.2,0.2c0-0.1,0-0.3,0-0.3c-0.2-0.2-0.3-0.1-0.4,0c0,0-0.1-0.1,0,0
		c-0.1-0.1-0.2-0.2-0.3-0.2c0,0.2-0.1,0.3-0.2,0.5c0.1,0,0.6,0.2,0.7,0.2c0,0,0,0.1,0,0.1C99,67.7,99.1,67.6,99.2,67.4z M98.7,51.2
		c-0.1,0.1-0.4-0.2-0.5-0.2c-0.1,0.6,0.3,0,0.4,0.4c0,0,0,0.1,0,0.2c-0.1-0.1-0.2,0-0.3,0.1c0.1,0,0.3,0.2,0.3,0.2
		c0,0.1,0,0.2,0,0.2c0.2,0.2,0.1-0.2,0.2-0.2c0.1,0,0.3,0.9,0.5,0.4c-0.3-0.2-0.4-0.5-0.6-0.5c0-0.3,0-0.4,0.1-0.2
		c-0.1-0.4-0.2-0.2-0.2-0.2C98.7,51.3,98.7,51.2,98.7,51.2z M98.4,68.3L98.4,68.3C98.4,68.3,98.4,68.3,98.4,68.3z M112.3,57.4
		c-0.1-0.1-0.4,0.1-0.5,0C111.9,57.5,112.2,57.8,112.3,57.4z M99,78.9c0.1,0,0.1,0,0.2,0c0-0.1,0-0.1,0-0.1
		C99.1,78.8,99.1,78.8,99,78.9z M111.4,80.3C111.4,80.3,111.4,80.3,111.4,80.3C111.1,80.4,111.3,80.3,111.4,80.3z M106.5,79.9
		C106.5,79.9,106.5,79.9,106.5,79.9c0.1,0,0.1,0,0.2-0.1C106.6,79.7,106.5,79.8,106.5,79.9z M99.7,79C99.7,79,99.7,79,99.7,79
		C99.8,79,99.8,79,99.7,79z M111.3,78.8C111.3,78.8,111.3,78.8,111.3,78.8C111.3,78.8,111.3,78.8,111.3,78.8
		C111.3,78.8,111.3,78.8,111.3,78.8C111.3,78.9,111.3,78.9,111.3,78.8z M112.7,81.1C112.7,81.1,112.7,81.1,112.7,81.1
		C112.7,81.1,112.8,81.1,112.7,81.1C112.8,81.1,112.7,81.1,112.7,81.1z M104.2,54.6c0.2,0.1,0.4,0.2,0.5,0.4c0,0-0.1,0-0.1,0
		c0.1,0,0.1,0.1,0.1,0.2c0.5,0,0.3,0.5,0.2,1.3c0.2-0.1,1,0.1,0.7,0.6c0,0.1,0.2,0,0.2,0c-0.1,0.2-0.6,0-0.6-0.3
		c-0.1,0-0.2,0.2-0.2,0.3c0-0.1-0.1-0.7-0.1-0.6c0.1,0-0.1,0.1-0.3,0.2c0.1,0.1,0.1,0.4,0.1,0.5c-0.2,0.1-0.5-0.4-0.5-0.4
		c0.1-0.1,0.1-0.1,0.2-0.1c-0.1-0.3-1-2.3-0.1-0.3c0.3,0.3,0.4-0.4,0.3-0.4c0.1-0.1-0.4-0.6-0.3-0.4c-0.1-0.1-0.2-0.1-0.3,0
		C104.2,55.2,104.1,55,104.2,54.6z M104.6,55.3c0-0.2,0-0.2-0.1-0.3c0,0,0-0.1-0.1,0C104.2,54.8,104.6,55.2,104.6,55.3z M111.3,82
		c0,0.1,0,0.2,0,0.3C111.3,82.2,111.3,82.1,111.3,82z M120.4,79C120.4,78.8,120.3,79,120.4,79L120.4,79z M99.9,34.7
		c0,0.3,0.4,0,0.5-0.1c0,0,0-0.1,0-0.1C100.2,34.7,100.1,34.8,99.9,34.7z M98.6,78.4c-0.2,0-0.2,0.6-0.1,0.8c0.2,0,0.4-0.2,0.6-0.4
		c-0.3-0.1-0.5-0.1-0.6-0.2C98.4,78.7,98.5,78.5,98.6,78.4z M100.1,27.4c-0.1,0.2-0.1,0.2,0.1,0.2C100.1,27.3,100.4,27.4,100.1,27.4
		z M101.7,42.6c-0.1,0-0.2-0.4-0.3-0.1C101.5,42.5,101.7,42.8,101.7,42.6z M102.4,43.2c-0.1,0-0.2,0-0.3,0
		C102.1,43.6,102.4,43.1,102.4,43.2z M100,28C100.1,28,100,28,100,28L100,28z M98.9,34.7c0,0.2,0,0.3,0.1,0.3
		C98.9,34.4,99,34.8,98.9,34.7z M100,27.9c-0.1,0.2,0,0.4,0.2,0.2c0.1,0-0.2,0-0.2,0C100,27.9,100.1,27.9,100,27.9z M112.6,80.8
		c-0.2,0.2-0.1,0.3,0.2,0.3C112.7,81,112.6,80.8,112.6,80.8z M85.2,50C85.2,50,85.2,50,85.2,50C85.2,50,85.2,50,85.2,50z M90.4,54.4
		C90.4,54.4,90.4,54.4,90.4,54.4C90.3,54.4,90.3,54.4,90.4,54.4z M82.5,49C82.4,49,82.4,49,82.5,49C82.4,49,82.4,49,82.5,49
		C82.5,49,82.5,49,82.5,49z M82.5,49c0.1,0,0.1-0.1,0.2-0.4C82.3,48.7,82.4,48.8,82.5,49z M84.7,57.3C84.7,57.3,84.7,57.3,84.7,57.3
		C84.6,57.3,84.6,57.3,84.7,57.3C84.7,57.3,84.7,57.3,84.7,57.3z M106,56.8c0.4,0.1-0.2,0.1,0.1,0.2c0-0.1,0.1-0.2,0.1-0.4
		C106.1,56.6,106,56.6,106,56.8C106,56.7,106,56.8,106,56.8z M87,35.9L87,35.9C87,35.9,87,35.9,87,35.9z M84.7,57.3
		C84.8,57.4,84.8,57.3,84.7,57.3L84.7,57.3z M115.8,56.4C115.8,56.4,115.8,56.4,115.8,56.4C115.8,56.3,115.8,56.3,115.8,56.4z
		 M91.1,23.6C91.1,23.6,91.1,23.6,91.1,23.6C91.1,23.6,91.1,23.6,91.1,23.6z M115.1,48c0.1,0,0.1,0,0.2,0c0,0,0-0.1,0.1-0.1
		C115.3,47.9,115.2,47.9,115.1,48z M116.9,45C116.9,45,117,44.9,116.9,45c0-0.1,0-0.1-0.1-0.1C116.8,45,116.8,45,116.9,45z
		 M115.8,56.8C115.8,56.8,115.8,56.8,115.8,56.8C115.9,56.8,115.9,56.7,115.8,56.8C115.9,56.8,115.8,56.8,115.8,56.8z M117,44.7
		c-0.1,0-0.8,0-0.5,0.2c-0.1,0.1-0.3,0.3-0.2,0.3c0.1,0.4,0.3-0.4,0.3-0.4c0.1,0,0.2,0,0.2,0.1C116.9,44.8,117,44.8,117,44.7z
		 M105.7,27.8C105.7,27.8,105.7,27.8,105.7,27.8c0-0.1,0-0.1,0-0.2C105.7,27.7,105.7,27.8,105.7,27.8z M105.7,27.8
		c0,0.1-0.1,0.1-0.1,0.1C105.7,27.9,105.7,27.9,105.7,27.8z M106.3,28.2C106.1,28.2,106.3,28.3,106.3,28.2L106.3,28.2z M83.9,62
		C83.9,62,83.8,62.1,83.9,62C83.9,62,83.9,62,83.9,62z M107.7,57.9C107.7,57.9,107.6,57.8,107.7,57.9L107.7,57.9z M107.9,58
		c0-0.2-0.1-0.3-0.2-0.4c-0.1,0.2,0.3,0.2,0,0.3c0,0-0.1-0.2-0.1-0.3C107.5,57.7,107.5,57.9,107.9,58z M108.2,62.4
		C108.3,62.3,108.1,62.3,108.2,62.4L108.2,62.4z M107.6,57.6c0,0,0-0.1,0-0.1C107.6,57.5,107.6,57.5,107.6,57.6z M108.5,58.5
		c0,0,0.1-0.3,0.1-0.3c-0.2,0-0.2-0.2-0.2-0.2c-0.3,0,0.1,0.2-0.2,0.4C108.5,58.4,108.4,58.4,108.5,58.5z M107.9,62.2
		c-0.1,0.1,0,0.5,0.1,0.5c0,0,0.4-0.6,0.2-0.3C108.1,62.3,108,62.1,107.9,62.2C108.2,62.3,107.9,62.4,107.9,62.2z M108.2,63
		c0,0,0.2-0.2,0.1-0.2c-0.1,0-0.1,0,0-0.1C108.2,62.7,108.1,63,108.2,63z M108.2,74.2c0.1,0.5,0.3,0.2,0.3-0.2
		c-0.1,0.1-0.2,0.1-0.3,0c0.1-0.1,0.3-0.6,0.3-0.6c-0.1-0.1-0.2-0.1-0.3,0.1c0-0.2-0.1-0.3-0.2-0.3c-0.3,0.2-0.2,0.3-0.3-0.1
		c-0.1-0.2-0.1,0.2-0.2,0.2c0-0.1-0.1-0.2-0.2-0.2c0.1,0,0.1,0,0.1,0c-0.2-0.1-0.7,0.1-0.5-0.5c-0.2,0,0,0.3-0.3,0.4
		c0,0.2,0.1,0.3,0.2,0.3c0-0.1,0.1-0.2,0.2-0.2c-0.3,0.6,0.3,0.6,0.6,0.7c0,0.1,0.2,0.6,0.2,0.6c0,0,0-0.1,0-0.3
		c0,0.2,0.1,0.4,0.1,0.5c0,0-0.1,0,0,0.1C108,74.4,108.1,74.3,108.2,74.2z M106,73.1C105.9,73.1,106,73.2,106,73.1L106,73.1z
		 M105.9,57.6C105.9,57.6,105.9,57.6,105.9,57.6C105.9,57.6,105.9,57.5,105.9,57.6z M107.9,77c-0.2-0.1-0.3-0.1-0.4,0.1
		C107.6,77.1,107.8,77,107.9,77z M105.9,57.6C105.9,57.6,105.9,57.6,105.9,57.6C105.9,57.6,105.9,57.6,105.9,57.6
		C105.9,57.6,105.9,57.6,105.9,57.6z M106.3,56.6c-0.1-0.1-0.2-0.2-0.3-0.3C105.8,56.6,106.2,56.7,106.3,56.6z M105.9,57.6
		c0,0,0,0.1,0,0.1C106,57.7,106,57.7,105.9,57.6z M107.5,62c0.1,0.1,0.2,0.4,0.2,0.1C107.7,62.1,107.4,61.8,107.5,62z M106.1,72.2
		c-0.3-0.2,0.1,0.2,0,0.2c0-0.1-0.1-0.2-0.2-0.3c0.1,0.2-0.4,0.5,0,0.6c0.1-0.1-0.1-0.1,0-0.2c0.2,0.3-0.2,0.5,0.1,0.5
		C106,74.2,107.2,72.9,106.1,72.2z M105.7,57.9c0.1,0.1,0.2,0.2,0.3,0.3c-0.1,0-0.1-0.3-0.1-0.4C105.8,57.8,105.7,57.7,105.7,57.9z
		 M111.4,58c0.1-0.2,0-0.6-0.2-0.5c0,0-0.1,0.2-0.1,0.2C111.5,57.7,111.1,58,111.4,58z M104.7,47.7
		C104.6,47.7,104.6,47.8,104.7,47.7C104.7,47.8,104.7,47.8,104.7,47.7z M106.2,50.6c0.2,0,0.3,0.1,0.5,0.1c-0.1-0.1-0.2-0.4-0.2-0.5
		C106.3,50.4,106.2,50.5,106.2,50.6z M104.7,47.7C104.7,47.7,104.7,47.7,104.7,47.7C104.7,47.7,104.6,47.7,104.7,47.7
		C104.6,47.7,104.6,47.7,104.7,47.7z M108.8,57.4C108.8,57.3,108.8,57.3,108.8,57.4C108.8,57.2,108.8,57.2,108.8,57.4z M104.7,55.2
		C104.9,55.2,104.8,55,104.7,55.2L104.7,55.2z M104.7,47.7c0.2,0.1,0.2,0.2,0.1,0.4c-0.1,0,0,0.3,0.2,0.4c0.1-0.1,0-0.2,0.1-0.2
		c0,0,0,0.3,0,0.3c0,0,0.1-0.1,0.1,0c0-0.1,0.1-0.5,0.2-0.2c-0.1,0.1-0.2,0.2-0.2,0.3c0.4,0,0.2-0.3,0.5-0.5c0,0.4,0.1-0.1,0.1-0.2
		c0.4,0,0.4-0.2,0.3-0.6c0.1,0,0.1,0,0.2,0c0,0-0.3-0.5-0.2-0.5c-0.4,0,0,0.4-0.2,0.6c-0.2-0.3-0.3-0.1-0.4-0.4
		c-0.1,0.1-0.3,0.1-0.4,0.1C105.6,47,104.9,47.5,104.7,47.7z M109.6,48.5C109.6,48.5,109.7,48.5,109.6,48.5c0,0-0.2-0.3-0.2,0.1
		C109.5,48.6,109.6,48.5,109.6,48.5z M105.2,34.8c-0.3,0,0.1,0.6,0.2,0.6c0-0.1,0-0.4,0-0.5C105.3,34.9,105.3,35.3,105.2,34.8z
		 M107.7,48.9c0-0.4-0.2-0.2-0.3-0.1c0,0,0,0,0,0.1c0,0,0,0,0,0C107.6,48.7,107.7,48.7,107.7,48.9z M104.5,55
		C104.5,55,104.4,55,104.5,55C104.5,55,104.5,55,104.5,55z M109.9,61.4C109.9,61.4,109.9,61.4,109.9,61.4c-0.1-0.1-0.3-0.2-0.4-0.2
		c0,0.3,0.1,0.5,0.3,0.6c0-0.2-0.2-0.2,0-0.3c0.1,0.3,0.1,0.2,0.2,0C109.8,61.6,110.1,61.4,109.9,61.4z M109,57.9
		c0.1,0.4,0.3-0.3,0.3-0.3c0,0.1-0.3-0.5-0.4-0.3c0,0,0,0.2,0,0.2c0,0.2,0,0.5,0,0.7C108.9,58.2,109,58,109,57.9z M83.3,62.6
		C83.3,62.6,83.3,62.6,83.3,62.6C83.3,62.6,83.3,62.6,83.3,62.6z M111.6,58.6c0-0.1,0-0.2,0.1-0.3c-0.1,0-0.2,0-0.2,0
		c0,0.1,0,0.1,0,0.2C111.5,58.5,111.6,58.5,111.6,58.6z M112.3,54.3c0,0-0.1,0.2-0.1,0.2c0.1,0,0.3,0.3,0.3-0.1
		C112.4,54.5,112.5,54.5,112.3,54.3z M110.2,50.2c0.1,0.1,0.1,0.2,0.1,0.3C110.6,50.6,110.4,49.9,110.2,50.2z"/>
</g>
</svg>
